<svg width="373" height="306" viewBox="0 0 373 306" fill="none" xmlns="http://www.w3.org/2000/svg">
<path d="M369.638 150.007C368.332 150.64 367.284 151.142 366.1 149.55C364.737 147.717 362.659 147.948 360.816 147.837C358.294 147.683 355.768 147.753 353.245 147.706C350.925 147.662 348.597 147.745 346.289 147.487C343.852 147.212 341.438 146.585 339.012 146.137C334.823 145.364 330.645 144.406 326.437 143.91C322.023 143.391 317.58 143.192 313.152 143.103C310.137 143.041 307.082 143.12 304.123 143.64C298.331 144.659 292.598 146.04 286.836 147.255C282.928 148.08 279.01 148.858 275.104 149.69C272.184 150.315 269.247 150.87 266.372 151.681C262.535 152.763 258.76 154.098 254.938 155.246C253.689 155.621 252.37 155.721 251.094 156.001C245.505 157.232 239.838 156.63 234.185 156.373C229.668 156.166 225.199 155.465 220.814 154.08C219.154 153.556 217.563 152.712 215.938 152.022C215.76 151.946 215.562 151.933 214.934 151.792C215.733 153.755 216.437 155.351 217.017 157.005C217.17 157.441 216.931 158.047 216.872 158.574C216.55 158.336 216.139 158.174 215.923 157.847C214.664 155.935 213.048 154.476 211.073 154.015C208.263 153.358 206.333 151.295 204.339 149.212C203.931 148.785 203.412 148.497 202.93 148.171C202.722 148.031 202.341 148.031 202.272 147.852C201.333 145.438 199.284 145.643 197.657 145.438C192.477 144.784 187.772 142.636 183.38 139.471C180.755 137.579 178.335 135.305 175.753 133.328C174.6 132.445 173.292 131.824 172.021 131.177C171.331 130.826 170.555 130.446 170.931 129.537C171.108 129.108 172.173 128.756 172.609 128.983C174.499 129.963 176.324 131.127 178.136 132.306C179.604 133.26 181.058 134.259 182.448 135.36C185.337 137.648 188.528 139.295 191.863 140.016C194.776 140.645 197.794 141.33 200.805 140.815C201.239 140.742 201.761 140.646 202.13 140.846C203.475 141.577 204.166 140.957 204.468 139.53C204.937 137.311 206.591 136.395 207.957 135.139C209.792 133.451 211.583 131.7 213.42 130.01C214.222 129.271 215.062 128.575 215.94 127.963C216.167 127.805 216.648 127.943 216.925 128.126C217.062 128.216 217.124 128.811 217.009 129.021C216.167 130.563 215.27 132.065 214.393 133.58C214.155 133.989 213.923 134.403 213.653 134.875C215.619 135.576 216.995 134.288 218.444 133.518C220.521 132.417 222.509 131.105 224.535 129.882C224.639 129.819 224.763 129.764 224.828 129.662C226.496 127.014 229.286 126.692 231.68 125.799C235.895 124.226 240.292 123.256 244.58 121.91C246.617 121.271 248.562 120.28 250.584 119.576C252.425 118.935 254.312 118.446 256.187 117.927C258.876 117.183 261.545 116.331 264.268 115.783C267.335 115.167 270.45 114.818 273.55 114.39C276.296 114.012 279.077 113.85 281.787 113.287C285.064 112.609 288.264 111.5 291.536 110.777C296.718 109.631 301.862 108.253 307.192 107.948C308.838 107.854 310.437 107.142 312.083 107.01C315.588 106.729 319.107 106.472 322.626 106.525C326.062 106.578 329.518 106.85 332.94 107.35C337.759 108.055 342.616 108.981 347.033 111.504C349.854 113.115 352.405 115.428 354.973 117.595C356.585 118.957 358.163 120.474 359.469 122.206C361.444 124.819 363.084 127.761 365.027 130.41C366.589 132.539 367.574 134.912 368.097 137.541C368.419 139.164 368.568 140.828 368.767 142.478C369.066 144.952 369.342 147.43 369.638 150.007ZM220.173 139.935C221.002 140.835 221.838 141.716 223.09 141.572C223.832 141.797 224.575 142.021 225.317 142.246C225.294 142.363 225.273 142.481 225.25 142.599C223.172 142.094 221.093 141.59 219.362 141.169C219.157 141.725 219.008 142.127 218.86 142.53C219.026 140.719 217.757 140.26 215.535 140.656C216.03 141.067 216.334 141.418 216.699 141.603C217.405 141.961 218.145 142.226 218.871 142.528C219.14 142.69 219.407 142.852 219.675 143.016C217.822 142.704 216.08 142.269 214.33 141.888C212.917 141.58 212.635 141.895 212.523 143.733C216.431 145.917 220.34 148.101 224.248 150.286C224.257 150.257 224.267 150.228 224.277 150.197C223.509 149.602 222.74 149.005 221.973 148.409C222.029 148.321 222.086 148.235 222.142 148.146C223.497 148.922 224.851 149.701 226.205 150.477C226.244 150.388 226.284 150.296 226.323 150.205C225.778 149.742 225.233 149.279 224.686 148.818C224.742 148.731 224.797 148.641 224.852 148.554C226.428 149.4 228.002 150.244 229.578 151.089C229.611 150.994 229.644 150.897 229.677 150.802C229.219 150.357 228.761 149.913 228.303 149.468C228.361 149.386 228.421 149.303 228.479 149.222C229.648 149.904 230.815 150.587 231.983 151.269C232.036 151.162 232.09 151.053 232.144 150.947C231.474 150.376 230.803 149.805 230.133 149.234C230.174 149.157 230.216 149.079 230.258 149.002C231.579 149.5 232.898 149.999 234.521 150.611C233.936 150.017 233.591 149.669 233.037 149.107C235.544 149.656 237.703 150.128 240.181 150.671C238.576 151.536 237.187 150.712 235.929 150.922C235.748 151.256 235.468 151.6 235.246 151.548C234.451 151.363 233.676 151.042 232.855 150.759C232.984 151.129 233.103 151.477 233.268 151.95C232.908 151.977 232.658 152.072 232.45 152C230.778 151.422 229.151 151.059 227.383 151.51C225.525 151.984 223.787 150.49 221.861 150.471C220.64 150.46 219.427 149.371 218.164 148.992C216.907 148.614 215.578 148.274 214.154 149.119C215.115 149.68 215.882 150.228 216.708 150.591C221.117 152.535 225.651 153.953 230.328 154.235C231.905 154.331 233.669 155.371 235.177 153.916C235.291 153.805 235.565 153.912 235.764 153.914C237.289 153.927 238.833 154.098 240.334 153.912C242.218 153.678 244.069 153.166 245.932 152.751C249.819 151.882 253.727 151.098 257.582 150.083C260.402 149.341 263.149 148.276 265.933 147.372C266.876 147.066 267.839 146.836 268.788 146.545C271.377 145.75 273.956 144.924 276.549 144.143C279.074 143.384 281.355 141.519 284.189 142.133C284.266 142.15 284.351 142.117 284.432 142.097C290.489 140.573 296.544 139.048 302.599 137.526C302.757 137.486 302.923 137.481 303.085 137.479C304.396 137.467 305.718 137.566 307.016 137.429C309.305 137.19 311.58 136.809 313.756 136.501C313.797 136.557 313.704 136.429 313.612 136.3C313.776 136.24 313.944 136.114 314.104 136.132C314.985 136.225 315.866 136.354 316.746 136.469C316.89 136.31 317.028 136.704 317.126 136.696C318.057 136.607 318.979 136.452 319.49 136.376C318.917 136.068 317.994 135.72 317.216 135.12C316.116 134.272 315.085 133.51 313.673 133.596C312.934 133.64 312.159 133.179 311.4 132.945C311.437 132.781 311.472 132.618 311.509 132.454C311.973 132.56 312.432 132.698 312.899 132.763C313.426 132.838 313.958 132.848 314.487 132.886C314.338 132.368 314.188 131.848 314.008 131.222C315.269 132.303 316.476 133.336 317.681 134.368C317.741 134.275 317.801 134.182 317.859 134.087C316.787 133.077 315.735 132.038 314.637 131.065C313.859 130.377 313.82 130.319 314.413 129.664C314.615 130.002 314.766 130.416 315.033 130.676C316.009 131.634 316.933 132.74 318.041 133.418C319.706 134.435 321.003 136.457 323.18 136.197C323.782 136.126 324.405 136.227 325.017 136.256C327.744 136.39 330.47 136.527 333.196 136.663C333.26 136.714 333.327 136.763 333.396 136.807C339.672 138.073 345.946 139.336 352.552 140.668C351.484 139.491 350.711 138.641 349.937 137.788C350.022 137.658 350.107 137.531 350.192 137.401C352.258 138.251 353.365 141.149 356.083 141.423C355.027 140.595 354.209 140.031 353.472 139.355C352.768 138.708 352.149 137.941 351.49 137.228C351.601 137.057 351.714 136.887 351.824 136.717C353.343 138.045 354.863 139.374 356.38 140.702C356.449 140.591 356.52 140.482 356.591 140.373C354.858 138.524 353.127 136.674 351.249 134.669C351.974 134.542 352.412 134.465 352.846 134.389C353.009 134.968 353.018 135.764 353.361 136.089C355.265 137.894 357.21 139.65 359.229 141.275C359.995 141.893 360.992 142.119 361.884 142.525C361.944 142.349 362.005 142.176 362.066 142C361.228 141.5 360.308 141.126 359.564 140.479C357.286 138.504 355.078 136.426 352.842 134.388C352.673 134.039 352.505 133.69 352.338 133.34C352.447 133.229 352.555 133.119 352.664 133.008C356.278 136.903 360.446 139.887 364.436 143.17C363 141.526 361.477 140.017 359.92 138.56C357.777 136.553 355.581 134.622 353.467 132.579C352.864 131.998 352.465 131.13 351.972 130.395C352.072 130.292 352.17 130.187 352.269 130.083C353.521 130.558 353.833 132.869 355.694 132.291C353.315 129.948 350.936 127.605 348.558 125.263C348.633 125.128 348.705 124.992 348.78 124.858C349.173 125.12 349.569 125.382 349.962 125.644C350.034 125.58 350.104 125.515 350.177 125.449C349.48 124.408 348.784 123.369 348.087 122.327C348.004 122.397 347.922 122.465 347.839 122.534C347.995 123.02 348.15 123.503 348.315 124.021C346.828 122.441 345.413 120.938 343.997 119.435C343.936 119.487 343.874 119.54 343.812 119.592C344.027 120.093 344.243 120.596 344.456 121.098C344.386 121.143 344.316 121.187 344.246 121.23C343.256 119.63 342.264 118.032 341.275 116.433C341.182 116.508 341.09 116.584 340.996 116.659C341.736 118.093 342.477 119.527 343.349 121.214C342.102 120.033 341.157 119.138 340.156 118.191C340.021 120.45 342.383 120.593 342.717 122.288C342.592 122.413 342.466 122.538 342.341 122.663C340.424 121.092 338.507 119.524 336.523 117.899C336.822 119.673 337.663 120.759 338.978 121.439C339.504 121.712 340.014 122.064 340.476 122.465C341.269 123.155 342.017 123.91 342.787 124.638C342.684 124.817 342.58 124.995 342.478 125.174C339.855 123.456 337.574 121.066 334.829 119.159C335.11 119.992 335.305 120.578 335.599 121.453C337.486 122.797 339.667 124.339 341.832 125.911C342.096 126.104 342.274 126.459 342.493 126.74C342.386 126.86 342.281 126.979 342.174 127.1C337.841 123.621 333.053 120.93 329.065 116.683C328.704 117.426 328.626 117.967 329.438 118.525C331.18 119.726 332.877 121.02 334.564 122.323C334.812 122.516 334.909 122.979 335.075 123.315C337.357 125.122 339.847 126.714 341.912 129.051C341.469 129.069 341.103 128.926 340.809 128.672C337.882 126.146 334.563 124.337 331.866 121.323C330.109 119.361 327.654 118.228 325.508 116.733C325.472 116.707 325.382 116.791 325.318 116.823C325.38 117.188 325.441 117.547 325.573 118.319C324.558 116.425 323.721 114.922 322.055 114.278C322.707 116.005 322.929 117.914 324.663 118.642C324.232 118.718 323.801 118.797 323.369 118.874C323.427 118.749 323.485 118.625 323.544 118.499C322.072 117.351 320.6 116.203 319.13 115.056C319.012 115.241 318.894 115.429 318.775 115.614C320.001 116.84 321.226 118.065 322.714 119.552C321.343 118.927 320.34 118.417 319.307 118.018C318.486 117.702 317.595 117.616 317.346 116.363C317.308 116.171 316.879 116.072 316.63 115.927C317.835 118.508 320.192 119.083 322.004 120.621C319.588 119.763 317.171 118.904 314.781 118.056C314.729 118.308 314.673 118.587 314.683 118.539C313.411 117.607 312.154 116.683 310.898 115.761C311.996 117.899 311.998 118.17 315.976 120.338C316.264 120.459 316.552 120.581 316.841 120.704C317.583 121.26 318.325 121.814 319.067 122.37C319.003 122.496 318.939 122.622 318.876 122.748C315.422 121.013 311.97 119.276 308.534 117.549C308.565 117.804 308.598 118.099 308.634 118.395C307.373 116.516 306.076 114.838 303.611 114.806C304.398 115.842 304.94 116.961 305.761 117.552C307.33 118.681 309.065 119.488 310.712 120.473C311.241 120.79 311.71 121.25 312.206 121.646C312.16 121.713 312.112 121.782 312.068 121.85C311.764 121.751 311.459 121.654 311.155 121.556L311.202 121.592C308.948 120.52 306.693 119.45 304.432 118.388C303.59 117.749 302.747 117.108 301.905 116.469C301.842 116.593 301.778 116.717 301.715 116.841C302.434 117.811 303.206 118.657 304.461 118.336C305.329 118.937 306.196 119.538 307.065 120.137C307.468 120.415 307.875 120.688 308.279 120.965C308.231 121.051 308.185 121.139 308.137 121.225C306.452 120.477 304.767 119.729 303.081 118.982C303.034 119.124 302.987 119.263 302.941 119.405C303.453 119.733 303.964 120.06 304.478 120.387C303.306 120.388 302.181 120.142 301.051 119.955C300.774 119.909 300.477 120.052 300.19 120.107C300.326 120.387 300.433 120.692 300.604 120.939C300.852 121.302 301.145 121.622 301.419 121.959C301.363 122.033 301.308 122.107 301.252 122.181C300.093 121.637 298.931 121.094 297.771 120.55C297.742 120.622 297.711 120.693 297.684 120.764C298.177 121.163 298.672 121.561 299.166 121.961C299.118 122.063 299.072 122.167 299.027 122.27C297.716 121.812 296.444 120.96 294.922 121.307C293.88 119.442 291.858 119.559 290.23 118.699C290.146 118.835 290.061 118.971 289.976 119.108C291.433 120.47 292.891 121.833 294.335 123.183C292.565 122.337 290.774 121.483 288.984 120.627C288.927 120.775 288.871 120.922 288.814 121.07C290.593 122.095 292.375 123.121 294.156 124.146C294.095 124.319 294.033 124.491 293.97 124.666C292.008 123.737 290.048 122.809 288.087 121.881C287.997 121.981 287.907 122.082 287.817 122.182C288.086 122.655 289.502 122.917 288.21 123.594C291.025 124.94 293.775 126.253 296.523 127.566C296.474 127.705 296.424 127.847 296.375 127.987C291.925 125.957 287.476 123.927 283.027 121.899C282.967 122.078 282.906 122.256 282.844 122.437C284.003 124.498 286.237 123.866 287.767 125.088C287.044 125.095 286.317 125.072 285.627 124.861C283.989 124.365 282.369 123.784 280.742 123.235C280.695 123.434 280.648 123.634 280.601 123.833C282.19 124.364 283.776 124.893 285.365 125.424C283.066 125.738 281.025 124.911 279.114 123.505C279.152 123.29 279.274 122.852 279.224 122.821C278.42 122.341 277.595 121.914 276.773 121.474C276.679 121.692 276.585 121.91 276.489 122.127C277.822 123.173 279.156 124.217 280.773 125.487C278.134 125.723 276.703 123.363 274.369 122.625C275.377 123.759 276.06 124.827 276.966 125.464C277.83 126.073 278.922 126.234 279.916 126.593C279.881 126.741 279.849 126.888 279.816 127.038C278.975 126.865 278.134 126.694 277.142 126.491C277.891 126.991 278.524 127.415 279.157 127.839C279.105 127.934 279.053 128.03 279.001 128.125C276.308 127.096 273.616 126.07 270.922 125.043C270.877 125.156 270.83 125.268 270.785 125.38C271.159 125.711 271.503 126.111 271.915 126.359C273.566 127.352 275.252 128.271 276.89 129.289C277.173 129.465 277.296 129.991 277.493 130.356C277.393 130.427 277.292 130.499 277.192 130.57C274.67 128.771 272.218 126.786 269.192 126.298C269.972 126.885 270.806 127.341 271.639 127.794C272.499 128.263 273.387 128.671 274.208 129.219C274.967 129.726 275.655 130.379 276.369 130.975C277.069 131.56 278.047 131.831 278.354 133.161C278.06 133.079 277.941 133.073 277.843 133.017C275.002 131.329 272.807 128.423 269.104 128.354C266.663 128.307 264.203 126.46 261.747 125.434C260.444 124.891 259.133 124.376 257.826 123.848C258.288 124.607 258.82 125.177 259.445 125.477C261.654 126.54 263.894 127.51 266.123 128.517C266.088 128.677 266.05 128.836 266.015 128.995C264.846 128.658 263.687 128.266 262.51 128.001C261.774 127.836 261.011 127.863 260.261 127.798C259.987 127.518 259.749 127.102 259.433 126.984C258.481 126.625 257.499 126.384 256.529 126.096C256.878 126.615 257.304 126.967 257.774 127.125C258.595 127.4 259.445 127.556 260.282 127.762C260.427 128.016 260.525 128.386 260.728 128.503C261.183 128.763 261.691 128.896 262.178 129.083C262.144 129.25 262.11 129.417 262.076 129.584C259.2 130.261 256.793 127.789 253.952 127.201C255.048 129.45 257.071 129.253 258.652 130.294C257.662 130.236 256.802 130.186 255.78 130.128C254.899 130.118 253.897 130.109 252.896 130.093C252.171 127.987 250.397 128.711 249.145 128.019C249.881 129.387 249.856 129.222 252.918 130.045C253.661 130.323 254.443 130.503 255.137 130.902C256.032 131.417 256.855 132.108 257.707 132.722C257.636 132.865 257.565 133.008 257.495 133.15C255.427 132.217 253.359 131.286 251.024 130.234C251.249 130.922 251.323 131.149 251.288 131.041C249.836 130.433 248.255 129.774 246.676 129.112C247.12 129.988 247.615 130.611 248.139 131.2C248.306 131.388 248.669 131.661 248.744 131.596C249.721 130.762 250.645 131.552 251.531 131.848C253.779 132.601 256.005 133.464 258.218 134.361C258.508 134.479 258.669 135.05 259.002 135.593C257.932 135.331 257.27 135.169 256.61 135.007C256.583 135.141 256.555 135.275 256.529 135.407C257.053 135.618 257.595 135.783 258.098 136.048C258.731 136.38 259.364 136.742 259.929 137.208C260.1 137.347 260.034 137.871 260.077 138.219C255.811 134.484 250.63 135.18 246.125 132.681C246.263 133.28 246.317 133.518 246.396 133.862C245.099 132.892 244.125 131.49 242.591 131.473C242.508 131.628 242.422 131.783 242.338 131.938C243.387 132.844 244.437 133.748 245.484 134.652C245.468 134.715 245.454 134.777 245.438 134.841C243.636 134.219 241.833 133.597 240.032 132.974C239.982 133.076 239.933 133.179 239.883 133.281C240.333 133.778 240.782 134.275 241.41 134.969C240.045 134.587 238.882 134.262 237.717 133.935C237.677 134.094 237.636 134.251 237.596 134.41C238.898 135.013 240.2 135.615 241.501 136.216C239.607 135.781 237.6 135.877 235.968 134.662C236.01 134.513 236.051 134.363 236.093 134.214C236.414 134.328 236.735 134.446 237.27 134.638C236.132 132.992 234.829 133.119 233.541 133.169C233.479 133.289 233.416 133.408 233.353 133.53C234.47 134.522 235.587 135.514 236.647 136.454C236.639 136.459 236.467 136.55 236.113 136.739C237.964 137.55 239.674 138.298 241.663 139.168C241.209 139.291 241.077 139.382 240.977 139.345C239.016 138.641 237.041 137.979 235.109 137.174C234.372 136.868 233.249 137.075 233.079 135.632C233.069 135.547 232.595 135.516 232.356 135.464C233.846 139.04 236.851 139.828 239.635 141.058C239.245 141.138 238.866 141.192 238.539 141.064C237.036 140.473 235.564 139.743 234.043 139.246C233.145 138.951 232.211 138.134 231.234 138.946C230.208 137.319 228.76 137.009 227.089 137.205C228.009 138.038 228.931 138.871 229.847 139.7C229.733 139.72 229.575 139.751 229.417 139.78L229.459 139.787C227.749 139.248 226.039 138.708 224.075 138.088C224.512 138.879 224.797 139.393 225.05 139.852C224.201 139.731 223.437 139.624 222.408 139.478C222.893 140.083 223.242 140.385 223.408 140.781C223.484 140.964 223.201 141.336 223.084 141.619C222.423 140.271 221.713 139.006 220.057 139.17C220.127 139.477 220.185 139.729 220.242 139.983C220.026 139.892 219.8 139.826 219.597 139.706C218.953 139.322 218.319 138.917 217.68 138.519C217.584 138.749 217.49 138.98 217.393 139.211C218.232 139.64 219.07 140.075 219.919 140.472C219.934 140.477 220.083 140.12 220.173 139.935ZM222.38 135.946C223.049 135.667 223.676 135.465 224.253 135.151C225.169 134.651 226.429 134.752 226.83 133.318C228.456 133.719 229.423 132.303 230.638 131.586C231.796 130.902 232.863 129.991 234.067 129.445C236.014 128.563 238.035 127.879 240.034 127.141C242.638 126.179 245.227 125.144 247.869 124.321C251.529 123.183 255.229 122.201 258.918 121.18C260.883 120.635 262.839 120.002 264.839 119.663C268.797 118.991 272.794 118.567 276.756 117.908C281.505 117.117 286.234 116.183 290.974 115.321C293.228 114.911 295.489 114.537 297.739 114.105C298.078 114.041 298.381 113.753 298.628 113.611C299.156 113.739 299.747 114.109 300.148 113.938C301.802 113.227 303.435 113.427 305.091 114.122C304.827 113.434 304.619 112.897 304.413 112.36C304.515 112.282 304.619 112.203 304.721 112.125C305.094 112.507 305.468 112.892 305.787 113.219C306.174 113.051 306.505 112.908 306.644 112.849C306.626 112.287 306.613 111.831 306.599 111.377C307.263 111.664 307.576 112.133 307.985 112.407C308.333 112.64 308.835 112.826 309.192 112.721C310.159 112.439 311.066 111.928 312.028 111.626C313.404 111.19 314.808 110.86 316.252 110.471C316.261 110.605 316.238 110.467 316.244 110.331C316.25 110.183 316.283 110.038 316.299 109.92C318.137 110.552 319.864 111.511 321.573 110.004C321.668 109.92 321.944 110.126 322.14 110.169C323.01 110.359 323.931 110.82 324.736 110.649C325.679 110.449 326.431 110.635 327.184 111.172C327.741 111.57 328.258 112.054 328.768 112.534C329.572 113.292 330.356 114.077 331.148 114.852C331.221 114.75 331.294 114.647 331.366 114.547C330.757 113.929 330.178 113.263 329.532 112.704C328.862 112.125 328.935 111.59 329.625 111.412C330.59 111.163 331.64 110.93 332.605 111.111C334.938 111.553 337.251 111.959 339.564 112.855C342.525 114.004 345.206 115.68 347.91 117.356C349.62 118.415 351.302 119.595 352.837 120.962C354.48 122.425 355.995 124.1 357.454 125.809C358.668 127.233 359.848 128.744 360.809 130.393C361.705 131.929 362.278 133.706 363.021 135.362C363.352 136.099 363.932 136.753 364.084 137.517C364.494 139.588 365.127 140.426 367.159 141.014C366.884 139.455 366.825 137.832 366.297 136.43C365.6 134.58 364.618 132.836 363.611 131.163C362.096 128.649 360.579 126.11 358.835 123.81C355.991 120.061 352.379 117.339 348.818 114.614C344.65 111.424 339.846 110.482 335.078 109.577C332.612 109.11 330.12 108.777 327.634 108.591C324.492 108.355 321.328 108.111 318.201 108.271C314.792 108.447 311.416 109.089 308.022 109.515C306.163 109.748 304.275 109.819 302.444 110.203C298.763 110.975 295.116 111.933 291.446 112.773C287.663 113.639 283.881 114.511 280.078 115.27C277.471 115.789 274.832 116.135 272.203 116.529C269.138 116.99 266.03 117.215 263.016 117.916C259.296 118.78 255.654 120.032 251.977 121.114C250.829 121.452 249.673 121.756 248.535 122.13C244.628 123.411 240.73 124.729 236.823 126.001C235.619 126.392 234.404 126.806 233.164 126.993C230.653 127.368 228.827 129.273 226.704 130.498C224.263 131.904 221.924 133.533 219.511 135.004C218.43 135.662 217.278 136.17 216.144 136.756C216.638 137.988 217.287 137.667 217.78 137.362C217.835 136.852 217.872 136.511 217.909 136.169C218.203 136.54 218.499 136.913 218.94 137.473C220.564 137.387 222.248 138.291 223.936 139.162C223.98 139.049 224.022 138.934 224.065 138.82C223.414 138.267 222.764 137.718 222.104 137.159C222.201 136.727 222.305 136.278 222.38 135.946ZM205.157 142.673C201.666 143.31 198.519 142.587 195.41 142.132C192.184 141.661 189.016 140.479 185.822 139.607C185.955 139.529 186.07 139.655 186.203 139.741C190.151 142.354 194.46 143.361 198.865 143.969C200.429 144.185 202.209 143.93 202.941 146.254C202.965 146.328 203.156 146.338 203.059 146.303C203.444 145.545 203.79 144.864 204.137 144.183C204.311 144.203 204.486 144.222 204.661 144.243C204.733 144.774 204.751 145.325 204.893 145.833C205.196 146.904 205.316 148.272 205.961 148.935C207.145 150.147 208.625 151.003 210.039 151.874C210.632 152.24 211.405 152.178 212.043 152.474C212.761 152.807 213.42 153.323 214.289 153.877C213.54 151.138 211.852 149.926 209.985 148.845C209.557 148.597 209.347 147.826 209.036 147.296C209.494 147.175 209.948 147.026 210.413 146.945C210.55 146.921 210.719 147.074 210.869 147.156C212.269 147.93 213.561 147.868 214.859 146.458C213.506 146.088 212.269 145.759 211.034 145.41C210.284 145.197 210.024 144.169 210.444 143.431C210.966 142.516 211.676 141.594 211.816 140.569C212.093 138.54 212.034 136.437 212.113 134.366C211.998 134.28 211.881 134.196 211.765 134.109C209.28 136.779 205.174 137.648 205.157 142.673ZM367.305 144.449C367.395 144.365 367.488 144.281 367.578 144.198C367.37 143.064 367.217 141.928 366.06 141.384C365.44 141.091 364.829 140.683 364.309 140.194C361.919 137.94 359.565 135.635 357.187 133.361C356.989 133.173 356.723 133.076 356.489 132.938C356.435 133.039 356.383 133.142 356.329 133.243C356.59 133.522 356.851 133.802 357.139 134.108C356.871 134.18 356.704 134.224 356.399 134.308C360.098 137.747 363.702 141.098 367.305 144.449ZM327.648 138.413C327.965 139.251 328.259 139.993 328.53 140.75C329.249 142.753 329.244 142.757 331.063 142.387C331.319 139.415 330.536 138.44 327.648 138.413ZM328.37 117.701C326.956 115.036 325.275 112.781 322.541 112.027C324.769 113.538 325.504 117.112 328.37 117.701ZM347.472 146.01C348.116 145.97 349.223 146.1 349.279 145.864C349.526 144.814 349.653 143.62 349.435 142.57C349.354 142.176 348.219 142.036 347.416 141.724C347.42 142.599 347.42 143.202 347.427 143.805C347.437 144.444 347.454 145.08 347.472 146.01ZM307.941 139.36C309.053 141.751 309.782 142.149 311.374 141.311C310.367 138.417 310.367 138.417 307.941 139.36ZM334.29 113.5C334.663 114.878 337.8 118.316 339.323 118.92C338.044 116.505 336.511 114.564 334.29 113.5ZM242.582 129.216C243.496 130.354 245.762 131.243 247.535 131.212C244.937 128.735 244.851 128.699 242.582 129.216ZM228.837 135.178C229.488 136.571 231.733 137.801 233.391 137.671C232.073 136.313 231.003 134.36 228.837 135.178ZM336.351 119.297C336.442 119.193 336.531 119.09 336.62 118.985C335.227 117.382 333.834 115.78 332.441 114.177C332.357 114.275 332.273 114.369 332.19 114.467C333.138 116.587 334.324 118.433 336.351 119.297ZM318.709 116.816C317.075 113.8 315.902 112.856 314.199 113.236C315.702 114.429 317.206 115.622 318.709 116.816ZM269.393 121.15C271.095 122.174 272.794 123.197 274.496 124.221C273.263 122.133 271.717 120.76 269.393 121.15ZM237.651 130.869C239.304 131.697 240.957 132.525 242.61 133.353C242.651 133.237 242.692 133.121 242.732 133.004C241.334 131.463 239.848 130.163 237.651 130.869ZM263.929 121.229C265.481 123.962 267.847 124.38 270.118 125.009C268.128 123.793 266.137 122.579 263.929 121.229ZM321.263 115.501C320.009 113.986 318.877 112.215 316.879 112.106C316.798 112.261 316.716 112.417 316.635 112.571C318.186 113.553 319.739 114.537 321.263 115.501ZM331.782 116.302C331.668 116.426 331.554 116.552 331.441 116.678C331.689 117.087 332.131 117.491 332.151 117.906C332.247 119.86 333.767 119.955 334.693 120.815C334.794 120.71 334.893 120.603 334.992 120.499C333.922 119.099 332.853 117.7 331.782 116.302ZM300.262 118.261C300.449 117.626 300.585 117.17 300.691 116.817C299.843 116.389 299.047 115.989 298.251 115.589C298.28 115.441 298.308 115.292 298.337 115.142C298.018 115.281 297.697 115.42 296.947 115.746C298.231 116.721 299.217 117.469 300.262 118.261ZM315.499 115.54C314.339 114.754 313.182 113.969 311.794 113.029C312.586 115.244 314.058 116.309 315.499 115.54ZM295.569 116.827C297.04 119.271 298.851 120.503 299.574 119.829C298.908 119.419 298.224 119 297.539 118.577C297.583 118.48 297.627 118.385 297.672 118.287C297.842 118.283 298.011 118.278 298.179 118.272C298.197 118.155 298.213 118.037 298.231 117.921C297.449 117.602 296.666 117.279 295.569 116.827ZM230.409 133.158C230.365 133.365 230.321 133.57 230.276 133.776C231.501 134.242 232.724 134.706 233.948 135.171C233.005 133.766 232.047 132.428 230.409 133.158ZM330.879 117.696C329.842 115.853 329.101 113.716 327.236 112.736C327.908 113.932 328.642 115.065 329.441 116.138C329.866 116.712 330.396 117.179 330.879 117.696ZM284.043 119.119C284.685 120.094 286.467 120.893 287.894 120.844C286.309 119.229 285.685 118.948 284.043 119.119ZM353.496 128.182C353.563 128.085 353.631 127.986 353.698 127.889C352.649 126.782 351.598 125.674 350.549 124.567C350.457 124.662 350.363 124.758 350.272 124.854C350.474 125.413 350.545 126.176 350.906 126.492C351.69 127.175 352.625 127.632 353.496 128.182ZM309.796 116.356C308.799 114.509 307.501 113.84 306.004 114.346C307.416 115.095 308.607 115.725 309.796 116.356ZM303.989 116.78C302.495 114.38 302.319 114.308 300.593 115.406C301.739 115.87 302.827 116.31 303.989 116.78ZM285.947 118.163C287.399 119.019 288.57 119.711 289.739 120.402C289.789 120.305 289.839 120.206 289.89 120.109C288.992 119.294 288.094 118.481 287.13 117.607C286.972 117.682 286.679 117.82 285.947 118.163ZM350.413 142.4C350.444 142.982 350.468 143.448 350.481 143.692C351.49 143.655 352.338 143.624 353.19 143.593C353.185 143.469 353.171 143.135 353.154 142.772C352.29 142.653 351.427 142.536 350.413 142.4ZM282.798 145.879C281.107 146.019 279.413 146.16 277.599 146.31C278.586 147.164 279.853 147.063 282.798 145.879ZM284.976 122.132C285.016 121.916 285.056 121.7 285.097 121.482C283.859 121.067 282.619 120.65 281.381 120.235C281.332 120.448 281.283 120.66 281.234 120.873C282.481 121.292 283.73 121.712 284.976 122.132ZM336.551 113.466C337.79 114.68 338.768 115.638 339.745 116.597C339.302 114.896 338.473 113.727 336.551 113.466ZM262.498 123.239C263.397 124.814 264.107 125.227 266.757 125.613C265.371 124.839 263.984 124.067 262.498 123.239ZM314.931 139.357C314.884 139.52 314.836 139.684 314.79 139.848C316.471 140.208 318.153 140.568 319.834 140.929C319.853 140.79 319.873 140.649 319.892 140.511C318.237 140.127 316.583 139.741 314.931 139.357ZM356.605 129.022C356.494 129.18 356.384 129.336 356.272 129.494C357.197 130.455 358.123 131.418 359.047 132.378C359.165 132.229 359.282 132.079 359.401 131.93C358.47 130.962 357.537 129.992 356.605 129.022ZM345.222 120.278C345.315 120.206 345.409 120.134 345.506 120.061C344.489 118.614 343.471 117.165 342.454 115.718C342.344 115.82 342.235 115.92 342.126 116.022C343.156 117.44 344.187 118.859 345.222 120.278ZM245.18 128.002C246.268 128.315 247.356 128.628 248.443 128.943C246.944 127.349 246.413 127.195 245.18 128.002ZM256.547 127.553C256.592 127.407 256.637 127.261 256.685 127.114C255.266 126.482 253.847 125.85 252.427 125.216C252.378 125.372 252.331 125.529 252.282 125.684C253.703 126.308 255.124 126.93 256.547 127.553ZM180.249 135.122C180.178 135.262 180.105 135.404 180.033 135.546C181.335 136.509 182.635 137.472 183.936 138.433C183.963 138.383 183.991 138.333 184.018 138.283C182.761 137.228 181.505 136.175 180.249 135.122ZM257.683 125.693C256.579 125.091 255.645 123.721 254.218 124.523C255.373 124.911 256.528 125.302 257.683 125.693ZM326.945 141.673C326.973 141.528 327 141.384 327.029 141.241C325.534 140.909 324.039 140.574 322.543 140.241C322.526 140.371 322.509 140.504 322.49 140.635C323.976 140.98 325.462 141.327 326.945 141.673ZM251.052 126.271C250.977 126.447 250.905 126.622 250.83 126.798C251.792 127.321 252.754 127.843 253.717 128.364C253.775 128.22 253.833 128.075 253.89 127.932C252.945 127.378 251.998 126.823 251.052 126.271ZM234.929 132.184C233.909 130.773 233.068 130.749 232.343 132.086C233.21 132.119 234.033 132.15 234.929 132.184ZM295.194 118.019C295.261 117.823 295.326 117.627 295.394 117.432C294.362 117.017 293.332 116.603 292.3 116.188C292.26 116.328 292.22 116.471 292.179 116.611C293.185 117.08 294.189 117.551 295.194 118.019ZM244.209 154.793C244.218 154.882 244.228 154.972 244.236 155.061C245.944 154.865 247.654 154.668 249.362 154.473C249.351 154.371 249.339 154.269 249.328 154.168C247.623 154.376 245.917 154.585 244.209 154.793ZM298.079 141.283C297.92 140.27 296.92 140.208 295.328 141.168C296.329 141.21 297.201 141.245 298.079 141.283ZM228.764 136.253C227.639 134.756 227.42 134.733 226.246 135.887C227.048 136.004 227.797 136.112 228.764 136.253Z" fill="#CFBDAD"/>
<path d="M309.37 138.424C308.6 138.152 307.833 137.879 306.776 137.505C308.432 136.096 309.543 138.006 310.828 137.769C310.81 137.601 310.786 137.4 310.735 136.949C311.417 137.528 311.978 138.006 312.653 138.581C311.509 138.576 310.539 138.572 309.57 138.568C309.502 138.526 309.435 138.479 309.37 138.424Z" fill="#CFBDAD"/>
<path d="M349.016 121.729C348.715 120.842 349.062 120.514 349.732 120.879C351.176 121.668 352.573 122.576 353.937 123.62C352.585 123.111 351.23 122.602 349.877 122.093C349.59 121.97 349.303 121.849 349.016 121.729Z" fill="#CFBDAD"/>
<path d="M255.75 141.795C256.568 142.385 257.491 141.484 258.463 142.774C259.2 143.75 260.85 143.822 262.09 144.304C262.398 144.422 262.728 144.516 262.993 144.717C263.192 144.868 263.31 145.172 263.463 145.407C263.222 145.463 262.965 145.618 262.745 145.56C262.233 145.425 261.74 145.188 261.403 145.055C261.072 145.35 260.78 145.811 260.577 145.758C258.681 145.266 256.802 144.686 254.955 143.82C256.092 143.831 257.229 143.844 258.463 143.857C257.458 143.26 256.541 142.713 255.624 142.167C255.665 142.043 255.707 141.918 255.75 141.795Z" fill="#CFBDAD"/>
<path d="M328.718 119.212C329.064 121.182 330.678 121.677 331.831 122.68C333.28 123.938 334.823 125.048 336.286 126.284C336.679 126.615 336.931 127.17 337.247 127.622C337.146 127.73 337.046 127.836 336.946 127.944C336.003 127.21 335.02 126.534 334.121 125.73C332.342 124.142 330.604 122.49 328.86 120.849C328.346 120.364 327.69 119.827 328.764 119.249L328.718 119.212Z" fill="#CFBDAD"/>
<path d="M307.292 120.37C309.121 120.336 316.198 125.805 316.447 127.332C314.849 126.295 313.152 125.323 311.58 124.135C310.098 123.013 308.748 121.66 307.292 120.37Z" fill="#CFBDAD"/>
<path d="M343.367 127.295C346.12 129.76 348.657 132.033 351.363 134.454C350.205 134.74 347.063 132.092 343.675 128.293C343.515 128.112 343.503 127.756 343.367 127.295Z" fill="#CFBDAD"/>
<path d="M365.621 128.922C366.678 129.929 367.732 130.94 368.796 131.94C369.48 132.582 369.49 132.605 368.943 133.612C367.69 130.857 365.242 131.282 363.25 130.464C362.856 130.303 362.472 130.116 362.082 129.94C362.121 129.776 362.159 129.611 362.197 129.449C363.506 129.899 364.814 130.351 366.121 130.8C365.71 130.152 364.68 129.921 365.669 128.956L365.621 128.922Z" fill="#CFBDAD"/>
<path d="M336.166 131.779C335.941 131.427 335.716 131.075 335.382 130.554C335.711 130.465 336.099 130.214 336.258 130.34C337.617 131.438 338.933 132.605 340.261 133.752C340.458 133.921 340.718 134.056 340.829 134.282C340.973 134.575 340.993 134.943 341.068 135.278C340.793 135.202 340.46 135.213 340.252 135.034C339.011 133.964 337.8 132.845 336.566 131.764C336.468 131.679 336.271 131.747 336.118 131.745L336.166 131.779Z" fill="#CFBDAD"/>
<path d="M263.37 143.655C260.384 142.196 257.741 140.903 255.097 139.609C255.128 139.497 255.158 139.383 255.189 139.271C257.734 140.307 260.284 141.322 262.813 142.408C263.035 142.505 263.119 143.07 263.37 143.655Z" fill="#CFBDAD"/>
<path d="M290.579 137.631C290.834 137.675 291.089 137.721 291.343 137.765C291.424 137.59 291.505 137.416 291.586 137.242C291.239 137.144 290.871 137.104 290.555 136.932C290.24 136.757 289.978 136.447 289.691 136.198C289.744 136.091 289.799 135.985 289.852 135.878C291.637 136.92 293.422 137.961 295.208 139.003C295.162 139.142 295.117 139.282 295.073 139.423C293.539 138.999 292.008 138.576 290.474 138.152C290.511 137.979 290.545 137.805 290.579 137.631Z" fill="#CFBDAD"/>
<path d="M260.471 140.727C258.318 139.466 256.166 138.207 254.011 136.948C256.314 137.831 258.859 138.08 260.693 140.225C260.619 140.392 260.545 140.56 260.471 140.727Z" fill="#CFBDAD"/>
<path d="M297.647 134.041C295.149 132.389 292.651 130.737 290.153 129.085C290.221 128.939 290.288 128.793 290.356 128.647C292.866 130.248 295.376 131.846 297.886 133.447C297.807 133.645 297.726 133.843 297.647 134.041Z" fill="#CFBDAD"/>
<path d="M295.655 126.026C293.551 124.746 291.448 123.464 289.345 122.185C289.39 121.986 289.435 121.787 289.48 121.588C289.86 121.686 290.297 121.675 290.61 121.9C291.644 122.641 292.626 123.473 293.637 124.256C294.05 124.575 294.399 125.273 295.037 124.664C295.065 124.636 295.609 125.31 295.912 125.657C295.828 125.779 295.742 125.904 295.655 126.026Z" fill="#CFBDAD"/>
<path d="M279.172 136.106C277.247 134.488 275.32 132.87 273.395 131.251C273.472 131.127 273.549 131.004 273.627 130.88C275.587 132.417 277.548 133.955 279.509 135.492C279.397 135.697 279.284 135.901 279.172 136.106Z" fill="#CFBDAD"/>
<path d="M275.002 133.859C276.833 135.328 278.665 136.796 280.495 138.265C280.388 138.44 280.282 138.615 280.175 138.79C278.344 137.313 276.513 135.838 274.681 134.36C274.787 134.194 274.896 134.026 275.002 133.859Z" fill="#CFBDAD"/>
<path d="M314.742 131.903C312.663 130.714 310.584 129.524 308.505 128.334C310.199 128.346 314.387 131.295 314.742 131.903Z" fill="#CFBDAD"/>
<path d="M331.485 130.825C329.768 130.558 328.05 130.289 326.334 130.021C326.361 129.786 326.388 129.548 326.416 129.313C328.205 128.988 329.801 130.268 331.539 130.37C331.52 130.522 331.504 130.673 331.485 130.825Z" fill="#CFBDAD"/>
<path d="M274.363 136.45C276.11 137.589 277.889 138.75 279.618 139.877C278.55 140.362 275.633 138.487 274.363 136.45Z" fill="#CFBDAD"/>
<path d="M256.575 150.843C258.142 151.158 259.71 151.471 261.277 151.786C261.26 151.926 261.239 152.066 261.222 152.206C259.638 152.024 258.012 152.147 256.528 151.201C256.543 151.082 256.558 150.963 256.575 150.843Z" fill="#CFBDAD"/>
<path d="M229.308 141.418C231.074 141.934 232.837 142.45 234.603 142.966C234.608 143.054 234.612 143.141 234.616 143.23C234.422 143.282 234.214 143.42 234.039 143.372C232.668 142.998 231.299 142.615 229.943 142.166C229.71 142.088 229.552 141.682 229.353 141.426C229.347 141.425 229.308 141.418 229.308 141.418Z" fill="#CFBDAD"/>
<path d="M277.753 140.962C276.308 140.638 274.861 140.315 273.417 139.991C273.459 139.745 273.5 139.5 273.542 139.255C274.98 139.675 276.418 140.096 277.855 140.515C277.822 140.664 277.787 140.812 277.753 140.962Z" fill="#CFBDAD"/>
<path d="M294.124 142.348C292.81 142.168 291.498 141.989 290.185 141.808C290.197 141.663 290.211 141.517 290.223 141.372C291.555 141.512 292.886 141.651 294.218 141.791C294.186 141.975 294.155 142.161 294.124 142.348Z" fill="#CFBDAD"/>
<path d="M258.274 155.892C259.34 155.194 260.923 155.568 261.913 156.654C260.644 156.386 259.59 156.167 258.274 155.892Z" fill="#CFBDAD"/>
<path d="M272.284 141.167C273.366 141.293 274.448 141.42 275.532 141.546C275.52 141.684 275.51 141.824 275.499 141.962C274.415 141.898 273.332 141.835 272.248 141.771C272.26 141.568 272.271 141.367 272.284 141.167Z" fill="#CFBDAD"/>
<path d="M111.329 263.929C112.896 262.174 114.631 260.736 117.505 261.995C121.135 263.587 125.006 264.396 128.645 265.965C131.375 267.143 132.945 269.909 133.405 273.171C134.118 278.254 133.208 283.164 132.216 288.039C131.497 291.564 130.044 294.635 128.124 297.412C126.312 300.034 123.578 300.861 120.89 299.502C116.939 297.503 113.032 295.388 109.114 293.296C107.393 292.378 106.424 290.754 105.842 288.716C104.793 285.042 105.216 281.409 105.677 277.778C106.379 272.257 108.085 268.07 111.329 263.929ZM123.379 278.804C123.199 280.099 123.018 281.395 122.811 282.87C123.647 283.138 124.279 283.342 124.822 283.518C124.831 282.728 124.837 282.232 124.844 281.624C127.003 282.276 128.973 283.307 131.696 282.169C130.367 281.739 129.645 281.56 128.955 281.269C127.051 280.471 125.159 279.627 123.262 278.802C123.858 278.727 124.475 278.487 125.046 278.605C127.16 279.043 129.216 280.101 131.555 279.079C130.038 278.436 128.522 277.79 126.943 277.121C128.371 274.324 128.371 274.324 130.809 274.298C130.533 273.536 130.331 272.792 130.01 272.119C128.971 269.948 127.476 269.082 125.745 269.583C124.159 270.042 123.194 271.813 123.258 274.142C123.298 275.698 123.334 277.251 123.379 278.804ZM109.304 270.906C107.316 275.046 107.266 279.456 106.827 283.677C110.237 285.356 113.229 287.046 116.505 287.51C116.585 287.265 116.665 287.021 116.744 286.777C115.423 286.038 114.105 285.299 112.785 284.558C112.85 284.315 112.914 284.071 112.979 283.828C114.292 284.217 115.605 284.606 116.877 284.984C117.69 281.526 118.457 278.267 119.257 274.865C115.931 273.541 112.806 272.299 109.304 270.906ZM130.29 288.166C130.312 287.865 130.334 287.563 130.355 287.261C128.243 286.48 126.134 285.681 124.015 284.931C123.493 284.746 122.932 284.718 122.568 284.652C121.68 286.885 120.926 288.904 120.086 290.869C119.097 293.181 119.369 295.192 120.987 296.845C122.11 297.99 123.608 297.861 125.505 296.427C124.364 295.015 122.156 295.309 121.152 292.685C122.537 293.145 123.483 293.459 124.787 293.892C123.983 292.96 123.469 292.361 122.955 291.762C123.02 291.606 123.086 291.447 123.152 291.291C124.58 291.773 126.006 292.255 127.433 292.739C127.474 292.585 127.514 292.432 127.556 292.28C126.696 291.606 125.836 290.931 124.975 290.257C125.067 290.036 125.16 289.813 125.252 289.592C126.48 289.966 127.71 290.341 129.39 290.853C128.48 289.711 127.89 288.972 126.972 287.821C128.428 287.972 129.358 288.069 130.29 288.166ZM125.043 267.534C121.69 265.094 118.207 264.592 114.771 264.048C113.603 263.864 112.557 264.608 112.307 266.325C115.226 268.695 118.736 268.905 121.896 270.446C122.857 269.556 123.799 268.686 125.043 267.534ZM117.796 295.231C117.618 292.949 116.849 291.855 115.559 291.287C113.659 290.451 111.745 289.667 109.82 288.922C109.34 288.736 108.799 288.782 108.286 288.722C108.223 288.944 108.161 289.166 108.099 289.388C110.832 292.136 114.202 293.471 117.796 295.231ZM121.164 276.45C119.212 280.152 118.4 284.191 118.696 288.558C120.813 284.903 120.963 280.67 121.164 276.45ZM109.777 286.624C109.718 286.845 109.658 287.063 109.599 287.284C111.866 287.952 113.797 289.88 117.036 289.587C114.185 288.422 111.981 287.525 109.777 286.624Z" fill="#CFBDAD"/>
<path d="M104.742 213.337C107.414 216.563 109.792 219.639 110.902 223.786C111.522 226.103 111.115 227.855 109.899 229.628C107.47 233.172 104.159 234.573 100.347 234.844C97.9502 235.013 95.5302 235.432 93.1559 235.154C91.1532 234.921 89.202 233.756 87.856 231.819C85.8987 229.006 84.029 226.109 82.1643 223.212C80.3415 220.382 80.7334 217.168 81.2957 214.216C81.7584 211.782 83.908 210.842 85.8675 210.221C88.0843 209.521 90.3469 208.946 92.6288 208.558C97.382 207.756 101.335 209.98 104.742 213.337ZM98.5865 214.6C98.3249 214.157 98.0622 213.715 97.7788 213.236C98.2195 212.601 98.6364 212.003 99.1035 211.329C95.6019 209.852 95.0521 210.029 93.0312 213.246C94.3604 214.51 95.6938 215.778 97.0258 217.045C97.1936 216.788 97.36 216.53 97.5268 216.275C96.8322 215.671 96.1376 215.067 95.4419 214.465C96.0317 214.014 96.663 213.918 96.8712 214.212C97.4372 215.013 97.9317 215.108 98.5751 214.508C99.5986 214.295 100.622 214.081 101.646 213.867C101.545 213.568 101.445 213.269 101.345 212.968C100.425 213.51 99.506 214.055 98.5865 214.6ZM92.3879 215.787C92.6987 220.452 95.0683 223.817 97.7332 226.959C98.0216 227.299 98.893 227.427 99.2058 227.179C99.5349 226.918 99.7787 225.964 99.61 225.531C98.0494 221.522 95.6327 218.297 92.3879 215.787ZM108.737 223.212C108.074 221.005 107.608 218.87 105.601 218.929C103.529 218.992 101.49 219.745 99.4007 220.203C100.57 223.603 100.901 223.898 103.448 223.723C105.082 223.612 106.707 223.412 108.737 223.212ZM93.6658 224.533C93.007 223.837 92.2994 222.514 91.6964 222.556C89.4937 222.704 87.1534 222.319 84.7222 223.617C87.4933 227.792 90.4823 225.2 93.6658 224.533ZM108.318 227.901C106.657 227.9 105.262 227.874 103.866 227.906C102.501 227.938 101.066 227.834 100.014 229.344C105.17 232.405 105.566 232.346 108.318 227.901ZM87.5244 227.993C88.3008 228.923 88.707 229.823 89.2806 230.023C91.8121 230.905 94.1817 230.111 96.6326 229.118C95.8914 227.422 95.1476 226.499 93.4523 226.996C91.705 227.508 89.8589 227.62 87.5244 227.993ZM84.1366 214.693C87.7292 215.263 90.4094 213.971 91.6844 210.956C88.8388 211.534 85.813 211.298 84.1366 214.693ZM89.7974 216.76C89.7594 216.427 89.7229 216.096 89.6849 215.763C87.5864 216.289 85.3901 216.437 83.4625 217.635C83.512 217.853 83.5627 218.07 83.6122 218.288C85.6743 217.778 87.7364 217.268 89.7974 216.76ZM103.519 225.589C105.1 226.407 106.588 226.402 107.984 225.403C106.495 225.465 105.007 225.528 103.519 225.589Z" fill="#CFBDAD"/>
<path d="M7.9337 284.541C7.12165 283.299 5.79518 281.336 4.52958 279.321C3.27952 277.331 3.45052 275.229 4.46434 273.349C6.77869 269.059 9.20264 264.847 11.6144 260.629C15.2677 254.242 24.0106 253.691 28.4517 259.63C29.7866 261.416 31.0578 263.341 32.0055 265.407C33.5897 268.861 32.0909 278.366 28.2873 280.712C25.8605 282.209 23.8189 284.486 21.4277 286.073C19.6417 287.259 17.634 288.404 15.6158 288.655C12.9468 288.987 10.6086 287.242 7.9337 284.541ZM19.989 269.585C17.2627 267.31 15.4968 266.36 13.1449 266.309C10.9725 266.263 10.3985 266.926 10.4568 269.402C10.5949 275.129 15.303 279.5 20.8106 279.017C22.7128 278.85 23.5357 277.836 22.8642 275.748C22.171 273.59 20.9692 271.632 19.989 269.585ZM22.61 270.243C25.0931 268.388 27.3072 266.737 29.8777 264.815C28.406 262.856 27.243 261.308 25.8612 259.469C23.8969 262.365 22.1798 264.893 20.389 267.53C21.227 268.555 21.8135 269.27 22.61 270.243ZM16.9549 264.972C17.8075 263.729 18.5745 262.637 19.3169 261.52C20.0998 260.341 20.8574 259.14 21.7419 257.77C16.717 257.042 13.022 259.596 12.2548 264.048C13.7699 264.347 15.2835 264.646 16.9549 264.972ZM8.48504 271.21C5.80716 275.438 5.63219 276.646 7.45932 279.254C8.3315 277.783 9.14691 276.411 9.87129 275.188C9.37141 273.751 8.97348 272.612 8.48504 271.21ZM24.7215 279.638C27.4076 278.568 29.3209 277.227 29.8065 273.607C27.5 275.209 24.5799 275.374 24.7215 279.638ZM24.2768 258.888C24.0763 258.681 23.8747 258.476 23.6741 258.269C21.6064 260.378 20.1039 262.963 19.2108 266.065C20.8996 263.674 22.5884 261.282 24.2768 258.888ZM10.5419 282.798C10.676 282.959 10.81 283.12 10.9416 283.281C12.3386 282.476 13.736 281.675 15.4999 280.659C14.433 279.936 13.7283 279.46 13.0708 279.016C12.1468 280.4 11.3441 281.598 10.5419 282.798ZM30.7321 267.704C30.5456 267.393 30.3602 267.08 30.1722 266.767C28.2485 268.234 26.3245 269.698 24.4007 271.165C24.5261 271.386 24.6501 271.605 24.7754 271.826C26.857 270.631 29.105 269.739 30.7321 267.704ZM12.3532 277.901C10.1411 277.716 9.63859 278.33 9.12748 281.324C10.1806 280.206 11.125 279.205 12.3532 277.901ZM18.6273 283.567C18.7553 283.858 18.8546 284.11 18.8655 284.105C19.8305 283.707 20.7868 283.287 21.7444 282.87C21.6702 282.683 21.5959 282.496 21.5227 282.308C20.5625 282.726 19.6009 283.143 18.6273 283.567Z" fill="#CFBDAD"/>
<path d="M260.186 200.57C260.638 200.983 261.13 201.535 261.699 201.936C264.837 204.144 267.005 207.182 268.269 211.174C269.773 215.922 270.339 220.762 270.057 225.704C269.989 226.89 269.611 228.069 269.235 229.184C268.674 230.856 267.65 231.661 265.949 231.787C262.399 232.049 258.884 232.706 255.336 233.038C254.352 233.13 253.234 232.863 252.313 232.395C249.544 230.984 247.996 228.318 247.169 225.086C245.684 219.283 244.974 213.485 246.548 207.612C247.591 203.727 248.033 203.299 251.418 202.702C254.265 202.198 257.056 201.346 260.186 200.57ZM250.057 212.877C249.194 212.822 248.331 212.771 247.007 212.69C247.48 216.348 247.868 219.537 248.312 222.717C248.491 224.003 249.179 224.771 250.361 224.569C252.424 224.216 254.474 223.786 256.445 223.405C255.837 220.105 255.28 217.076 254.726 214.069C253.125 214.123 251.528 214.178 249.712 214.24C249.866 213.552 249.954 213.158 250.04 212.743C250.919 212.821 251.832 213.005 252.141 211.461C251.448 211.933 250.752 212.405 250.057 212.877ZM260.87 219.424C263.394 219.007 265.726 218.621 268.345 218.187C267.725 215.756 267.201 213.695 266.63 211.462C263.939 212.129 261.632 212.7 259.168 213.311C259.725 215.31 260.22 217.09 260.87 219.424ZM255.578 204.076C249.287 204.5 248.502 204.896 247.883 210.94C249.05 210.717 250.136 210.507 251.239 210.295C251.056 209.454 250.931 208.886 250.783 208.209C252.214 207.903 253.503 207.626 254.854 207.337C255.107 206.201 255.336 205.166 255.578 204.076ZM267.905 222.626C265.582 223.075 263.448 223.488 261.229 223.915C261.238 224.708 261.247 225.347 261.256 226.153C262.527 226.073 263.669 226.059 264.795 225.915C266.022 225.758 267.235 225.475 268.697 225.203C268.582 223.527 268.466 221.815 268.348 220.1C262.661 220.525 262.661 220.525 261.205 222.161C262.677 221.993 263.792 221.844 264.911 221.744C265.882 221.652 267.046 220.577 267.905 222.626ZM262.282 204.65C260.986 203.384 259.926 202.39 258.666 203.131C257.086 204.059 256.581 206.024 256.572 207.917C256.565 209.402 257.151 210.88 258.876 211.554C258.92 209.648 260.48 208.269 259.443 206.267C259.387 206.16 259.824 205.572 260.119 205.419C260.677 205.125 261.3 204.984 262.282 204.65ZM256.669 212.814C256.502 218.753 257.177 221.567 259.233 224.032C259.188 220.213 258.83 216.666 256.669 212.814ZM261.058 229.583C260.521 229.2 259.942 228.448 259.454 228.503C257.022 228.778 254.615 229.264 251.846 229.737C255.161 232.442 258.026 229.441 261.058 229.583ZM262.391 227.788C263.243 230.406 265.261 227.624 266.288 229.23C266.354 229.333 267.066 229.114 267.261 228.841C267.509 228.492 267.531 227.933 267.706 227.254C265.793 227.447 264.12 227.615 262.391 227.788Z" fill="#CFBDAD"/>
<path d="M161.027 197.893C162.256 196.698 163.443 195.438 164.724 194.32C166.381 192.874 166.743 192.894 168.533 194.483C172.248 197.78 175.915 201.148 179.631 204.439C181.555 206.141 183.562 207.714 185.488 209.409C185.834 209.713 186.119 210.3 186.191 210.797C186.574 213.366 186.74 216.035 185.524 218.245C183.244 222.39 180.157 225.598 176.178 227.582C175.053 228.143 174.075 228.278 172.981 227.185C167.722 221.924 162.373 216.785 157.128 211.506C154.717 209.08 154.665 207.035 156.616 204.353C158.137 202.263 159.637 200.154 161.147 198.053C161.108 197.999 161.067 197.946 161.027 197.893ZM182.597 217.885C176.777 212.806 170.957 207.727 165.011 202.537C163.661 204.238 162.414 205.807 160.909 207.703C167.362 212.554 172.814 218.593 179.374 223.026C180.154 222.043 180.766 221.273 181.48 220.372C179.736 218.8 177.974 217.521 176.56 215.85C175.223 214.271 172.918 213.8 172.455 211.151C176.227 212.698 178.832 216.408 182.597 217.885ZM174.298 222.37C174.456 222.141 174.613 221.913 174.768 221.685C169.894 217.238 165.02 212.792 160.022 208.232C159.411 209.192 159.049 209.764 158.641 210.403C159.991 211.829 161.194 213.138 162.43 214.399C165.955 217.998 169.49 221.582 173.028 225.161C173.791 225.933 174.589 226.665 175.522 225.262C174.458 224.269 173.292 223.404 172.382 222.267C171.555 221.231 169.896 220.936 169.83 218.547C170.824 219.277 171.548 219.742 172.204 220.312C172.939 220.948 173.603 221.68 174.298 222.37ZM167.673 199.05C173.131 204.013 178.331 209.021 184.251 212.96C183.888 211.847 183.464 210.769 182.751 210.112C178.707 206.372 174.608 202.709 170.487 199.083C169.763 198.441 168.865 197.634 167.673 199.05ZM166.812 195.259C162.379 198.219 160.266 202.876 157.004 207.256C160.503 205.639 165.845 199.074 166.812 195.259ZM180.716 214.117C180.879 213.931 181.042 213.746 181.204 213.557C176.378 209.169 171.554 204.779 166.677 200.344C166.496 200.817 166.327 201.154 166.363 201.185C171.137 205.511 175.927 209.814 180.716 214.117Z" fill="#CFBDAD"/>
<path d="M167.721 207.617C169.979 207.173 170.521 208.759 171.601 210.193C169.585 210.658 168.912 209.211 167.721 207.617Z" fill="#BB9F87" fill-opacity="0.5"/>
</svg>
