<svg width="238" height="351" viewBox="0 0 238 351" fill="none" xmlns="http://www.w3.org/2000/svg">
<path opacity="0.44" d="M254.749 66.5423C251.633 64.0833 247.756 61.3146 245.956 56.491C245.398 54.995 243.391 53.4931 241.737 53.244C237.852 52.6581 236.233 50.2665 234.738 47.1944C233.683 45.0266 232.045 43.0986 230.332 41.3867C229.23 40.2836 227.629 39.2486 226.067 39.0829C221.276 38.5692 216.397 38.4879 210.416 38.1819C212.031 39.361 212.887 39.9847 214.066 40.848C212.843 42.2332 211.909 42.9729 210.013 41.8566C207.023 40.0944 203.918 38.4216 200.628 37.2117C197.757 36.1538 194.717 36.0551 192.972 40.0033C192.578 40.8943 191.401 41.5004 190.623 42.275C187.969 44.918 185.254 47.5112 182.716 50.2555C180.806 52.3225 179.448 55.2454 175.904 53.994C177.536 47.0874 176.842 45.9075 169.708 45.2116C163.767 44.6309 157.724 44.5726 151.756 44.1222C149.953 43.9872 147.715 43.8424 146.6 42.7769C143.937 40.2314 140.974 40.5373 137.654 41.5091C130.949 43.4732 125.006 46.96 119.48 51.3415C118.506 52.1134 117.318 52.9765 116.194 53.1406C107.71 54.3608 102.473 59.7494 100.09 67.1991C98.5659 71.9645 96.0111 75.322 91.2985 79.0281C92.8366 76.4117 93.8541 74.6825 94.8745 72.9528C91.3967 73.518 89.0733 75.8244 87.7549 78.1897C86.0481 81.2511 83.4733 83.1689 81.1968 85.5544C79.1582 87.6904 77.2689 89.2847 74.3252 90.398C69.0436 92.3968 66.9291 97.5046 65.6879 102.348C64.8776 105.507 63.7398 107.685 60.9647 109.777C55.7042 113.742 55.0528 119.904 53.8534 125.437C53.2773 128.105 52.6808 130.107 50.6082 132.106C49.256 133.407 47.9971 135.467 47.8508 137.175C47.5124 141.061 47.4751 144.893 46.8808 148.833C46.5372 151.105 49.9994 153.579 52.0401 156.359C51.4539 156.773 50.2036 157.514 49.1275 158.453C47.6241 159.765 45.4221 161.068 44.9735 162.647C43.4926 167.856 39.3381 171.01 35.8124 174.576C31.0191 179.426 28.1469 185.223 26.9359 191.299C25.8286 196.85 26.0709 202.57 25.4817 208.23C25.2544 210.413 27.2954 212.612 28.46 215.139C24.3774 220.215 25.2316 224.8 29.6662 228.804C30.4056 229.474 31.0601 230.33 31.462 231.243C35.0053 239.311 40.3257 244.999 50.9586 243.923C50.749 245.801 50.5797 247.214 50.4398 248.623C50.2922 250.106 49.499 252.071 50.1414 252.991C53.826 258.258 52.4877 265.445 55.9559 270.706C57.1649 272.539 58.5514 274.292 60.1041 275.84C62.5868 278.31 66.0045 279.665 67.0726 283.742C67.5495 285.562 70.7525 287.205 73.0467 287.516C77.1715 288.078 81.55 287.511 85.8109 287.542C87.6955 287.555 89.5689 287.789 91.4079 288.078C96.2673 288.842 101.043 289.712 105.64 285.778C106.665 284.902 108.436 284.957 109.793 284.386C115.963 281.781 122.702 279.689 122.982 271.131C129.506 269.308 133.713 265.542 133.795 258.296C138.786 257.783 142.988 256.005 144.03 250.634C145.013 245.568 142.544 242.398 137.237 240.778C138.537 240.031 139.058 239.49 139.495 239.514C155.053 240.37 168.566 245.644 181.166 253.636C194.372 262.015 205.145 272.783 215.345 284.216C221.962 291.633 228.21 299.372 234.765 307.139C237.424 307.406 239.305 305.513 241.238 303.528C259.259 285.026 280.29 268.75 289.729 243.386C286.579 241.931 283.492 240.763 280.685 239.168C268.334 232.146 256 225.103 243.805 217.847C239.877 215.509 238.98 211.324 239.796 206.804C241.222 198.889 243.724 191.219 249.24 184.719C250.892 182.774 253.414 181.445 255.665 180.065C257.155 179.149 258.896 178.691 260.489 177.937C264.351 176.111 273.269 177.627 275.382 180.645C275.737 181.152 275.226 182.217 275.356 182.962C275.946 186.357 278.236 188.841 281.431 188.995C284.26 189.129 286.175 190.114 288.241 191.441C292.746 194.333 298.156 194.622 303.513 194.827C306.607 194.946 306.64 194.71 309.566 190.256C311.104 190.444 312.788 191.019 314.421 190.767C316.918 190.383 321.061 189.933 321.564 188.642C323.869 182.746 332.788 182.821 333.244 175.773C333.324 174.515 333.118 173.262 333.246 172.008C333.369 170.823 333.356 169.219 334.099 168.528C337.301 165.543 336.472 162.545 335.097 159.752C332.22 153.901 334.176 147.693 335.01 141.551C335.21 140.079 336.302 138.042 335.7 137.243C332.058 132.392 334.049 125.786 331.911 121.353C333.505 117.892 335.836 114.864 336.003 111.924C336.181 108.756 334.325 105.667 333.281 102.306C337.459 97.0584 336.357 91.6083 334.146 86.3505C333.423 84.6315 332.141 83.2653 333.343 81.1656C335.009 78.2579 333.942 75.876 332.696 73.4127C328.649 65.4221 322.466 60.2882 312.875 59.4878C311.209 59.3482 308.887 59.5459 308.07 58.5785C304.928 54.8486 300.734 55.3048 296.324 55.8152C291.339 56.3931 286.348 56.7933 281.36 57.2998C280.279 57.4081 279.05 57.3502 278.142 57.8591C273.33 60.5502 268.429 61.4043 263.091 61.6133C260.488 61.7145 257.725 64.691 254.749 66.5423ZM214.205 276.359C215.906 277.817 217.608 279.277 219.307 280.735C218.939 281.083 218.574 281.427 218.206 281.775C216.919 279.959 215.628 278.144 214.341 276.332C210.818 275.812 210.79 272.566 209.596 269.869C211.002 269.538 212.354 269.464 213.173 270.061C215.3 271.609 216.286 273.668 214.205 276.359ZM115.651 190.857C114.453 192.924 115.063 194.477 116.497 195.945C118.119 197.605 119.126 199.533 117.824 201.955C114.785 200.051 111.813 198.189 108.413 196.057C108.357 195.243 108.257 193.786 108.138 192.112C110.71 191.746 113.193 191.391 115.676 191.036C116.382 189.304 117.09 187.569 117.792 185.85C118.793 185.967 119.457 185.943 120.028 186.134C121.993 186.787 123.52 188.133 122.516 190.284C121.45 192.567 119.314 193.159 117.12 191.933C116.588 191.633 116.138 191.216 115.651 190.857ZM309.781 66.4262C312.273 66.676 314.765 66.9257 317.445 67.1942C317.447 68.3059 317.104 69.4599 317.507 69.8205C320.111 72.1483 321.401 75.7108 324.784 77.2926C327.547 78.5855 327.931 80.7299 326.363 83.4339C330.852 86.97 332.35 90.411 332.439 94.958C332.506 98.5739 329.98 100.085 326.99 101.584C328.873 104.237 330.567 106.268 331.873 108.542C334.237 112.656 333.289 115.06 328.777 117.147C328.534 106.8 323.964 101.887 316.109 103.59C317.07 105.834 318.122 108.023 318.96 110.308C321.198 116.412 319.865 118.893 312.637 121.815C315.935 124.785 319.867 127.501 317.078 133.334C314 132.637 311.079 130.181 308.131 134.412C311.73 137.312 317.797 137.954 316.789 143.985C314.928 145.48 313.382 146.724 311.634 148.128C309.941 145.568 308.523 142.054 303.548 143.132C302.545 143.35 300.87 141.413 300.154 140.091C299.32 138.55 299.196 136.593 298.896 135.357C300.132 131.904 304.945 131.211 304.252 126.834C302.418 128.179 300.86 129.318 299.013 130.672C298.145 128.757 297.416 127.143 296.565 125.262C295.296 126.213 294.369 126.908 293.346 127.673C290.778 125.297 289.31 122.889 290.538 120.74C294.843 120.049 298.213 119.507 301.964 118.904C301.276 121.089 300.701 122.921 299.991 125.182C305.934 122.513 308.591 117.74 307.89 111.926C307.376 107.656 303.829 104.378 298.953 104.1C300.538 106.591 301.973 108.842 303.546 111.316C301.237 111.808 299.638 112.147 298.045 112.485C298.199 113.921 298.308 114.966 298.447 116.249C295.066 116.544 292.275 116.791 289.598 117.025C288.531 118.828 287.58 120.433 286.441 122.36C285.257 121.226 284.435 120.436 283.602 119.636C287.617 115.95 288.229 112.891 285.678 109.089C284.908 107.941 283.787 106.305 282.681 106.298C280.958 106.286 279.125 107.51 277.318 108.141C276.488 108.434 275.556 108.428 274.765 108.792C271.984 110.065 270.576 112.17 271.096 115.056C271.394 116.711 272.028 118.279 272.558 120.035C270.149 119.779 268.062 119.56 266.021 119.342C268.491 114.167 262.891 116.393 262.761 114.466C262.401 112.036 262.042 109.603 261.706 107.33C263.513 106.823 264.602 106.516 266.089 106.101C263.485 101.615 258.692 103.118 254.696 101.505C255.021 99.6591 255.102 97.5644 255.885 95.6998C256.137 95.1005 258.242 95.1016 260.174 94.6819C259.422 91.8486 258.998 88.9595 257.902 86.3933C255.559 80.8907 256.211 75.5343 259.144 70.0648C261.232 70.269 263.059 70.4507 265.307 70.6711C266.646 64.1304 272.484 64.5491 276.619 63.0948C282.848 60.9078 282.798 69.443 287.784 70.1096C291.887 60.7539 295.448 58.3476 303.363 59.4554C302.773 65.3643 302.775 65.358 308.84 65.966C309.247 66.0081 309.61 66.2735 309.994 66.4361L309.781 66.4262ZM93.9476 207.771C90.7941 210.329 95.0764 213.452 91.7656 216.689C90.0388 216.713 87.6223 216.75 84.4375 216.794C85.8407 218.754 86.903 220.241 87.9645 221.723C84.1796 226.528 79.8191 220.704 76.0524 224.086C75.9935 224.784 75.9109 225.764 75.8348 226.662C73.4082 227.943 70.4472 225.175 67.4735 229.074C71.4724 229.375 74.6854 230.29 77.7256 229.678C81.6861 228.881 85.525 226.926 89.3738 225.345C90.1212 225.037 91.0259 224.243 91.2543 223.537C92.0888 220.941 94.4942 220.113 96.2484 218.494C99.3392 215.635 104.217 213.836 104.172 208.606C103.473 204.799 105.351 201.979 108.591 199.353C110.035 200.738 111.412 202.06 112.724 203.318C111.14 207.996 107.316 207.754 104.078 208.598C105.898 210.347 107.72 212.092 109.575 213.874C107.842 215.369 106.816 216.257 105.793 217.144C106.012 217.537 106.228 217.931 106.447 218.324C108.833 217.243 111.215 216.159 113.6 215.076C114.296 215.501 115.124 216.006 116.075 216.583C115.075 217.034 114.134 217.458 112.525 218.181C113.54 220.017 114.49 221.734 115.792 224.087C113.182 225.036 110.195 226.121 107.089 227.251C107.007 221.734 104.739 218.743 101.876 220.008C102.371 221.507 102.866 223.002 103.446 224.768C100.614 225.521 98.1974 226.161 95.3019 226.932C97.4448 228.441 99.1234 229.623 100.799 230.803C100.632 231.112 100.468 231.417 100.301 231.726C98.4146 231.786 96.5284 231.849 94.1144 231.925C100.187 236.905 102.767 236.34 105.713 229.698C107.256 229.686 108.904 229.673 110.856 229.659C109.597 235.628 105.19 236.917 100.661 238.101C100.378 238.176 100.173 238.684 99.9344 238.992C100.468 239.97 101.002 240.949 101.227 241.361C96.1033 247.911 91.3299 243.061 85.9146 242.432C86.3155 244.373 86.5748 245.618 86.875 247.07C82.4744 247.607 80.5623 245.065 78.7948 241.837C77.1744 245.176 78.3558 247.177 80.4463 248.135C82.582 249.117 85.4281 250.215 87.5496 249.54C93.7166 247.58 99.6549 244.684 105.743 242.349C106.755 241.961 108.689 242.116 109.145 242.771C110.964 245.398 112.19 248.348 109.887 252.398C108.963 250.157 108.268 248.472 107.574 246.787C106.956 246.651 106.342 246.516 105.724 246.38C108.15 253.86 99.7738 255.818 98.476 261.463C97.2552 261.294 96.0373 261.124 94.8623 260.961C91.0251 267.051 85.6436 269.301 78.3325 267.391C84.1419 259.873 77.6775 257.895 73.2174 254.872C73.0461 256.508 73.2035 258.269 74.1954 259.033C76.4513 260.774 77.6007 262.199 76.7277 265.704C75.3739 271.139 80.652 274.75 86.3671 273.05C87.6003 272.683 88.8886 272.52 90.1568 272.361C99.0474 271.241 102.18 267.688 101.686 258.965C102.643 258.636 103.652 258.289 104.746 257.912C108.058 262.956 104.532 267.556 102.611 272.421C104.091 271.712 105.177 271.19 106.384 270.612C106.072 275.291 105.369 276.185 101.831 275.885C99.5901 275.695 97.4398 274.996 94.8886 274.45C94.9762 276.161 95.0404 277.38 95.1099 278.745C93.1589 279.397 90.7162 276.202 89.134 279.859C90.664 280.488 92.1247 281.373 93.7521 281.668C95.0969 281.911 97.256 282.004 97.9855 281.221C101.198 277.768 105.193 278.26 108.889 277.846C111.993 277.5 114.499 277.007 115.417 273.547C116.171 270.713 117.944 271.409 119.759 271.443C118.857 278.447 115.557 280.624 104.846 281.605C103.656 284.92 101.27 287.166 97.5385 286.309C94.5577 285.622 91.7203 284.415 89.0017 283.115C88.5945 282.92 89.1802 280.97 89.3069 279.832C87.9317 279.888 86.5593 279.943 84.3447 280.033C84.9408 282.173 85.3721 283.729 86.0279 286.084C82.0987 285.444 79.7885 285.212 77.58 284.676C73.6466 283.725 68.736 283.952 68.5982 278.078C68.5826 277.469 67.1248 276.778 66.1937 276.561C62.2229 275.642 62.0131 271.344 59.4306 269.147C58.9726 268.759 60.1169 266.065 61.0729 264.821C61.7674 263.915 63.5714 263.865 64.5113 263.022C65.3873 262.238 66.3819 260.02 66.281 259.961C63.0106 257.985 64.1246 253.972 62.4579 250.996C61.322 252.454 60.6394 253.901 60.233 255.395C59.7885 257.025 59.6751 258.712 59.2368 260.343C59.154 260.653 58.2285 260.822 57.3363 261.209C57.4724 259.255 57.5853 257.63 57.6932 256.054C51.6247 254.924 51.1299 252.845 55.1969 246.21C57.4571 245.521 60.3955 247.629 62.1148 244.204L62.0951 244.408C55.7995 243.583 50.1083 241.612 45.8135 236.391C45.1339 238.247 44.7319 239.342 44.167 240.881C40.2142 239.466 37.9236 236.849 36.0047 233.826C37.5359 232.822 38.7186 232.047 39.8787 231.26C36.9634 228.606 31.5026 229.01 30.1712 223.163C33.8482 226.216 36.8925 228.743 39.934 231.271C41.4197 231.257 42.9027 231.244 44.9026 231.225C41.4712 228.885 38.3053 226.972 35.4407 224.705C31.7155 221.758 28.9098 218.297 32.8031 212.87C28.6864 211.137 27.5497 208.508 29.611 203.837C31.8861 206.018 33.8058 207.86 35.7259 209.705C34.2726 205.506 32.5522 201.69 30.5333 198.053C27.6641 192.882 30.0522 188.559 33.4909 183.956C34.9062 185.312 36.0146 186.376 38.3557 188.624C36.8645 180.049 36.8935 173.306 45.9094 170.607C47.1805 162.071 54.3941 156.045 62.1035 158.042C65.7922 158.998 70.3269 160.228 71.5434 165.612C72.4885 169.794 75.4007 173.463 77.8599 177.059C78.6447 178.207 80.7182 178.654 82.3311 178.953C83.9684 179.255 85.7675 178.975 87.4936 178.945C92.4302 178.863 99.0282 186.036 98.4935 191.031C98.4171 191.733 97.7352 192.428 97.2575 193.257C94.9148 191.905 92.8613 190.717 90.5771 189.398C89.9454 192.355 89.5922 194.234 91.7851 196.124C94.9501 198.853 94.1089 201.594 90.0356 204.556C87.8065 202.188 85.5632 199.803 83.098 197.179C81.2648 199.523 79.9039 200.956 78.9233 202.585C77.0698 205.667 78.8118 207.847 80.5885 209.888C82.4582 212.039 84.7358 211.756 86.8084 209.757C89.0364 207.604 91.3065 206.965 93.9525 207.957C95.3102 204.364 96.668 200.771 98.1288 196.907C99.9064 196.299 102.079 195.561 105.083 194.535C104.451 197.469 103.979 199.66 103.535 201.723C101.606 201.929 100.27 202.074 98.7861 202.231C101.369 209.417 101.369 209.416 97.2077 211.379C96.1023 210.164 95.0266 208.969 93.9476 207.771ZM81.3381 168.487C75.2896 168.754 74.577 167.954 74.3835 160.643C71.3447 158.005 68.3056 155.364 65.3522 152.802C57.8529 156.746 50.3913 153.168 50.1375 145.897C51.7723 145.835 53.4159 145.772 55.9199 145.675C54.1006 143.542 52.4242 142.483 52.1434 141.041C51.6933 138.744 51.6431 136.072 52.3875 133.777C53.3837 130.707 56.0429 134.018 57.7558 132.836C57.4372 129.868 56.7928 127.121 57.0088 124.36C57.1061 123.12 58.9205 121.848 59.9585 120.591C60.737 121.608 61.6033 122.567 62.2748 123.653C63.5181 125.669 64.707 127.724 65.8067 129.826C66.9301 131.97 67.84 134.237 69.0155 136.346C69.3267 136.907 70.2705 137.086 71.2637 137.621C71.1749 135.232 70.3236 132.848 71.2278 131.598C72.4134 129.958 74.9804 129.215 77.2212 127.932C75.5674 126.346 73.3495 125.116 72.5708 123.213C71.8281 121.397 72.5895 118.879 72.6876 116.737C74.6822 116.529 75.8975 116.399 77.6294 116.218C76.903 114.67 76.3674 113.527 75.7628 112.232C77.9469 111.491 79.837 110.852 82.9961 109.78C80.2099 108.36 78.5708 107.527 76.4064 106.424C77.9956 103.918 79.2854 101.692 80.765 99.5821C85.1148 93.389 89.3943 87.1423 93.9991 81.1263C95.8897 78.6565 98.0459 75.6624 101.829 77.3226C102.727 73.9507 102.727 73.9506 107.618 68.9423C105.762 68.5562 104.191 68.2311 102.585 67.8962C106.845 59.1553 112.152 55.5909 116.751 58.1752C113.204 63.678 113.204 63.6779 113.306 66.2057C118.569 62.2584 118.539 62.2565 120.344 54.6353C120.523 53.8789 121.182 53.0183 121.85 52.5283C127.161 48.6454 132.759 45.409 139.199 44.1425C141.328 43.7222 142.988 43.947 143.608 46.1484C137.945 50.341 132.456 54.4051 126.825 58.5731C129.111 60.8736 130.454 59.2251 132.012 57.9444C135.132 55.3822 138.237 52.7511 141.586 50.5248C145.209 48.1133 152.312 47.5971 153.707 49.9924C155.007 52.2212 156.644 52.4742 158.764 52.6134C162.984 52.8907 166.486 54.3795 168.985 57.6551C170.858 60.1112 174.634 61.1144 176.451 59.5998C179.434 57.1086 181.519 58.7174 184.209 59.2062C184.544 57.0892 184.8 55.4809 185.165 53.1723C188.025 53.8918 190.568 54.5317 193.143 55.182C197.647 52.0885 202.297 49.5545 209.395 51.2867C209.049 52.115 208.557 53.2963 208.063 54.4811C212.296 55.7551 213.366 59.4129 213.886 63.4881C214.318 63.4091 214.75 63.33 215.182 63.2509C215.801 61.2179 216.423 59.1843 217.069 57.0644C222.135 58.9091 220.245 64.4031 222.581 67.9113C223.548 66.1213 224.057 64.3932 224.071 62.706C224.121 56.1524 218.097 53.9435 214.706 49.9515C215.952 47.6458 217.069 45.5796 218.443 43.0344C220.008 43.9534 221.162 44.6807 222.368 45.3216C223.159 45.7401 224.266 46.5763 224.82 46.2996C228.859 44.2776 231.087 46.2731 232.831 49.047C234.105 51.0706 234.979 53.3596 236.024 55.5154C242.635 55.337 245.229 57.8778 245.304 64.1407C245.327 65.9641 246.078 67.7144 246.554 69.7429C248.348 68.5801 249.359 67.9271 250.369 67.2712C253.484 70.1348 254.223 73.4767 254.046 77.2972C251.508 76.9306 249.568 76.6526 247.629 76.372C250.271 79.497 253.925 81.2786 253.947 86.1696C249.921 86.4093 249.245 80.9885 244.941 82.4657C250.145 88.6934 250.145 88.6933 250.595 92.9287C248.044 93.2089 245.85 89.8163 242.991 92.8142C243.542 95.1061 244.226 97.2556 244.551 99.491C244.922 102.04 244.786 104.941 242.193 106.447C240.763 107.277 238.541 106.638 236.368 106.661C238.392 112.821 238.095 118.713 230.976 124.623C239.272 121.175 240.597 118.753 240.642 108.327C242.733 109.18 245.337 109.394 245.947 110.664C247.312 113.511 243.52 114.123 242.043 115.819C242.551 117.687 245.014 119.391 242.45 121.318C240.829 122.537 238.713 123.082 236.743 123.966C236.709 126.14 236.677 128.345 236.634 131.293C233.818 130.586 231.699 130.054 229.78 129.575C227.101 129.988 228.026 135.299 223.666 133.51C224.816 132.199 225.94 131.154 226.768 129.933C229.075 126.518 230.45 122.898 229.832 118.919C229.468 116.569 228.19 115.99 225.853 116.774C228.335 126.795 224.755 131.632 214.42 132.673C213.561 132.761 212.702 132.826 211.841 132.902C214.317 133.722 216.246 134.874 215.04 138.159C213.137 138.081 211.5 138.016 209.642 137.942C210.462 139.322 211.099 140.393 212.411 142.602C209.144 142.204 207.141 141.961 203.681 141.537C206.896 137.998 209.036 135.643 211.177 133.29C211.744 129.547 213.118 125.832 209.694 122.702C208.635 121.734 208.811 118.367 209.761 116.795C210.457 115.643 213.344 115.629 215.992 114.908C215.775 110.233 215.547 105.307 215.313 100.253C221.081 94.9159 219.54 89.1997 210.095 85.3077C211.154 79.5573 209.868 74.9885 203.962 72.742C202.89 72.334 202.622 70.3979 201.758 69.3514C199.057 66.0835 196.668 62.411 193.373 59.8217C189.597 56.857 185.993 57.742 183.657 62.1599C181.933 65.4215 179.268 66.5969 176.196 68.1663C180.55 68.636 185.154 68.0536 186.568 73.1339C186.734 73.7321 187.88 74.219 188.673 74.3251C192.607 74.8538 193.807 77.7895 195.32 81.1638C193.125 81.8471 191.303 82.4154 189.073 83.1093C192.534 84.3676 195.271 85.3658 199.098 86.7591C195.624 87.4159 193.6 87.7983 191.38 88.2157C192.485 90.8317 192.875 93.2806 194.308 94.7403C195.957 96.4231 199.926 95.5347 199.964 98.1201C198.654 105.018 193.661 104.047 189.135 104.866C191.631 107.449 195.565 107.912 195.423 111.701C193.827 112.583 192.498 113.316 189.829 114.792C193.351 115.084 195.301 115.247 197.333 115.414C196.243 117.703 195.355 119.57 194.396 121.587C191.714 118.347 188.061 115.791 187.063 112.287C185.586 107.1 181.225 102.998 182.52 96.6197C183.071 93.9028 180.947 92.1409 176.94 93.5521C182.698 98.8559 177.559 104.318 176.151 110.337C178.185 108.898 179.771 107.776 182.282 106C182.679 109.273 182.966 111.667 183.256 114.064C178.644 114.974 183.795 118.918 180.721 120.303C180.518 120.394 180.3 120.44 180.127 120.507C181.962 121.894 182.965 120.706 184.28 119.225C184.739 118.71 186.681 118.877 187.487 119.385C188.104 119.773 188.502 121.521 188.101 122.061C187.48 122.899 185.766 123.894 185.091 123.628C183.315 122.93 181.849 121.593 180.259 120.51C174.12 119.889 172.516 118.055 172.163 112.036C172.016 109.553 171.512 107.037 170.631 104.781C170.152 103.551 168.543 102.829 167.444 101.876C170.755 111.876 170.858 113.699 167.679 117.069C165.952 113.485 167.733 108.131 162.214 105.524C162.861 109.863 163.395 113.458 163.958 117.238C162.304 117.763 161.14 118.132 159.629 118.611C160.627 119.57 161.427 120.336 162.266 121.139C161.202 122.206 160.318 123.087 158.447 124.961C161.485 124.225 163.118 123.829 165.061 123.358C164.943 125.247 164.841 126.885 164.726 128.672C163.227 129.044 160.923 129.434 160.919 129.643C160.864 133.414 157.021 134 154.775 136.173C159.512 137.872 163.715 130.92 168.292 134.676C166.173 142.148 160.625 137.352 156.979 138.769C157.032 142.784 157.082 146.47 157.133 150.269C154.327 151.039 153.587 149.367 154.072 147.234C155.242 142.089 153.688 138.117 150.162 134.923C154.111 129.1 153.96 122.938 153.975 116.869C153.983 114.163 152.31 112.202 149.713 111.407C149.034 111.2 147.964 111.962 145.636 112.79C151.692 114.674 151.787 118.42 150.427 123.443C145.895 123.336 144.555 126.972 143.538 131.272C139.108 123.548 139.008 123.493 134.094 125.707C137.562 127.42 140.219 129.704 138.96 133.925C138.235 136.354 136.148 136.225 134.297 135.786C131.981 128.186 127.718 125.226 123.108 127.944C124.217 129.445 125.322 130.937 126.427 132.429C126.243 132.618 126.063 132.805 125.879 132.993C124.287 132.026 122.692 131.059 121.1 130.091C120.671 130.34 120.242 130.592 119.81 130.841C125.417 135.532 126.208 141.58 124.155 147.76C125.608 148.785 126.584 149.474 128.1 150.543C125.848 150.603 124.476 150.641 122.878 150.685C123.395 155.576 127.353 156.663 130.235 158.515C129.487 163.855 127.479 165.947 123.57 165.672C120.508 165.457 117.756 162.082 118.287 158.654C118.804 155.306 118.783 152.364 115.354 150.004C115.425 152.735 115.481 154.935 115.531 156.874C113.124 158.965 109.644 158.283 107.961 161.793C110.376 162.161 112.389 162.468 114.81 162.835C115.019 164.337 115.236 165.906 115.519 167.946C112.558 167.852 110.915 167.771 109.265 167.79C109.065 167.791 108.817 168.335 108.426 168.841C109.767 169.636 111.052 170.401 113.068 171.598C108.962 173.222 105.769 174.959 102.446 175.666C99.1895 176.361 95.6909 176.451 92.5028 175.976C89.6844 175.553 87.5073 172.697 83.9397 174.729C83.7428 174.842 82.2409 172.948 81.7165 171.8C81.2745 170.835 81.3748 169.594 81.2348 168.475L81.3381 168.487ZM153.438 225.244C152.518 229.641 151.802 233.071 151.005 236.885C147.971 236.462 145.541 236.123 143.887 235.891C145.082 231.341 146.12 227.383 147.281 222.959C142.868 224.871 142.868 224.871 139.279 235.022C137.776 234.779 136.235 234.528 134.827 234.299C135.604 231.396 136.264 228.929 136.998 226.192C132.722 226.181 132.87 229.014 132.288 230.755C131.047 234.458 128.802 235.664 125.584 235.036C124.421 232.606 123.368 230.412 122.074 227.708C127.041 226.028 131.953 224.368 137.597 222.459C135.902 221.76 134.74 221.28 133.575 220.8C134.011 219.972 134.409 219.26 134.75 218.525C134.808 218.399 134.61 218.181 134.248 217.389C129.706 217.767 124.873 218.167 119.922 218.578C120.202 217.051 120.505 215.392 120.781 213.892C130.052 210.847 137.978 213.327 145.75 216.622C147.118 215.02 148.187 213.77 149.397 212.351C153.902 214.601 158.106 216.814 162.42 218.826C166.741 220.843 171.215 222.586 175.546 224.589C180.056 226.677 184.526 228.839 188.912 231.136C193.121 233.34 197.253 235.682 201.319 238.105C205.156 240.394 208.87 242.87 212.635 245.265C205.691 237.213 197.087 231.458 187.576 226.943C172.058 219.573 156.485 212.309 140.994 205.026C141.378 199.507 141.378 199.507 138.146 199.061C136.809 206.341 136.809 206.341 133.243 206.594C134.131 204.044 135.012 201.52 135.908 198.942C130.041 197.773 131.792 205.716 126.858 205.473C127.353 203.731 128.38 202.089 128.018 201.015C126.71 197.127 128.828 194.291 131.264 190.894C143.423 194.18 152.74 202.093 163.583 207.432C162.093 201.505 156.145 200.183 152.551 196.41C153.112 191.496 157.538 191.406 161.026 189.187C169.637 195.526 178.251 201.865 187.751 208.862C187.377 207.027 187.5 205.966 187.036 205.619C177.756 198.619 169.715 190.026 158.77 185.282C155.853 186.981 153.791 190.521 149.585 189.333C156.04 183.387 156.04 183.387 154.7 180.783C146.126 186.041 146.126 186.041 144 183.101C149.587 178.683 149.587 178.683 149.927 174.289C152.502 172.911 155.024 171.566 157.61 170.183C161.765 173.271 163.453 178.991 170.555 180.431C167.975 177.064 166.272 174.604 164.323 172.356C161.001 168.513 160.937 168.571 161.605 164.303C164.323 167.994 166.852 171.428 169.349 174.819C173.091 172.485 169.933 169.981 170.997 167.577C174.255 168.101 177.531 168.629 181.686 169.299C180.758 165.997 180.057 163.513 179.349 160.993C180.868 160.958 182.643 160.917 185.286 160.855C183.507 157.651 180.87 155.319 183.12 151.726C185.605 151.016 188.21 150.272 191.732 149.27C191.369 152.696 190.893 155.459 190.835 158.193C190.771 161.14 190.723 164.166 191.338 166.958C192.407 171.817 193.8 176.602 195.418 181.27C196.843 185.38 199.775 188.151 204.328 189.079C202.415 184.628 199.648 180.776 197.783 176.484C195.847 172.02 194.098 167.263 193.532 162.381C192.965 157.493 193.956 152.289 194.255 147.407C197.911 146.403 201.178 145.504 204.886 144.483C201.104 152.681 198.877 160.885 199.873 169.189C200.595 175.218 201.955 181.876 207.43 184.681C213.072 187.57 217.205 191.111 219.713 196.698C219.956 197.242 220.512 197.623 220.879 198.113C223.356 201.425 225.086 205.895 228.473 207.779C232.734 210.15 233.72 214.601 236.928 217.426C237.842 218.23 238.503 219.369 239.526 219.992C249.537 226.069 259.613 232.056 269.644 238.102C271.444 239.185 273.134 240.428 275.685 242.143C270.988 243.824 268.258 242.287 265.594 240.947C260.236 238.248 254.777 235.668 249.727 232.514C242.403 227.944 235.515 222.756 228.223 218.135C224.675 215.885 224.364 211.758 222.128 208.805C219.051 204.743 216.009 200.635 212.655 196.805C211.065 194.991 208.788 193.769 206.825 192.277C206.413 192.698 206.002 193.12 205.59 193.541C210.293 198.901 215 204.26 219.703 209.621C219.273 210.017 218.846 210.415 218.416 210.812C217.049 209.499 215.555 208.29 214.332 206.853C210.524 202.376 205.481 199.596 200.024 197.414C199.203 197.086 197.981 197.575 196.943 197.689C197.811 199.459 198.999 200.084 200.132 200.79C205.693 204.257 211.155 207.646 215.267 213.014C219.953 219.134 225.094 225.188 231.225 229.831C239.683 236.24 249.236 241.324 258.353 246.927C260.915 248.504 263.59 249.918 266.069 251.329C265.201 254.157 264.152 253.824 262.597 252.903C255.169 248.51 247.706 244.167 240.157 239.959C238.23 238.886 235.944 238.377 233.823 237.608C238.469 241.557 243.979 244.06 248.647 247.588C253.131 250.975 259.399 252.534 261.503 258.636C241.243 246.969 221.883 234.178 204.313 218.962C205.323 220.787 206.645 222.263 208.001 223.711C218.69 235.11 231.174 244.384 244.595 252.585C248.981 255.263 253.093 258.346 257.264 261.332C258.852 262.468 259.531 263.827 256.555 265.156C251.798 261.073 246.96 256.924 242.125 252.775C241.894 253.026 241.662 253.277 241.43 253.528C245.838 258.48 250.248 263.432 254.783 268.526C253.77 269.815 252.895 270.932 252.109 271.934C245.795 265.876 239.852 260.174 233.91 254.472C235.004 257.073 236.819 259.043 238.572 261.066C241.876 264.881 245.398 268.541 248.352 272.619C250.87 276.098 250.536 276.456 246.09 280.53C239.954 274.981 236.325 266.986 228.212 263.262C230.252 265.219 232.293 267.179 234.333 269.135C234.143 269.316 233.952 269.5 233.762 269.684C232.203 268.888 230.641 268.093 229.083 267.3C229.864 270.02 231.509 271.501 232.807 273.245C235.72 277.156 238.504 281.171 241.254 285.202C242.288 286.719 241.694 287.854 239.871 288.506C223.558 266.854 194.169 242.02 184.93 242.25C186.491 243.747 187.924 245.123 189.587 246.716C188.483 248.424 187.428 250.055 186.035 252.206C183.884 250.464 182.045 248.971 180.329 247.58C181.442 244.536 182.393 241.935 183.07 240.085C178.249 234.024 172.156 231.354 164.351 229.554C167.358 233.797 164.17 236.391 162.722 239.785C159.575 238.783 156.866 237.917 154.198 237.068C156.516 229.457 156.516 229.457 153.438 225.244ZM230.471 164.852C240.337 158.413 240.165 148.434 242.21 139.451C245.827 140.085 248.883 140.622 252.138 141.195C253.827 143.465 255.743 146.038 257.718 148.691C250.899 156.351 244.017 163.995 237.284 171.757C236.538 172.62 236.615 174.148 236.314 175.368C242.22 172.669 246.161 168.664 249.546 163.998C253.253 158.887 257.028 153.776 263.364 151.654C265.927 154.892 261.776 155.743 260.805 157.291C261.481 158.562 261.919 159.386 262.36 160.214C255.024 166.089 248.062 171.663 240.865 177.423C240.872 179.333 240.881 181.53 240.891 183.723C240.901 186.149 239.658 187.201 237.423 186.579C236.003 186.185 234.63 185.671 231.939 184.784C233.493 187.987 234.365 189.783 235.236 191.576C234.954 191.916 234.672 192.259 234.393 192.599C230.223 190.286 226.451 186.676 221.105 189.27C218.515 186.174 216.161 183.36 213.807 180.543C214.08 180.289 214.353 180.037 214.626 179.783C216.103 180.762 217.583 181.74 219.06 182.722C219.319 182.496 219.578 182.271 219.837 182.046C219.238 180.36 218.639 178.673 217.863 176.489C220.761 177.871 221.022 181.937 224.965 180.815C224.826 177.394 220.97 175.49 222.454 171.646C224.912 172.554 225.098 176.074 228.555 175.6C227.885 172.904 227.309 170.586 226.544 167.51C228.483 168.603 229.49 169.172 231.308 170.199C230.95 167.939 230.745 166.61 230.471 164.852ZM208.246 179.384C201.614 168.125 202.571 154.968 210.089 145.506C212.374 148.725 215.152 149.05 219.178 147.152C223.64 145.047 228.507 143.929 234.673 141.895C233.021 146.839 232.503 150.62 230.603 153.647C224.664 163.103 215.927 170.315 208.246 179.384ZM322.99 150.888C324.438 145.958 324.015 142.344 320.279 139.731C319.493 139.181 319.237 136.705 319.856 135.773C323.639 130.09 321.219 125.893 317.489 121.572C320.763 120.55 323.437 119.714 326.208 118.85C327.569 121.623 328.746 124.029 330.042 126.677C328.077 126.778 326.826 126.843 324.769 126.95C326.366 129.291 327.46 130.902 328.836 132.92C326.429 134.65 324.268 136.204 322.109 137.754C322.208 138.033 322.303 138.309 322.401 138.587C324.061 138.422 325.72 138.257 327.465 138.081C324.658 142.168 330.7 141.314 330.321 144.411C330.015 146.914 332.226 149.411 329.699 152.424C327.699 151.966 325.705 151.51 322.99 150.888ZM140.72 149.402C137.451 146.74 136.547 141.24 130.112 143.464C130.197 142.96 130.286 142.452 130.371 141.948C135.802 139.685 141.232 137.421 147.056 134.995C148.273 137.231 150.125 139.296 150.49 141.711C150.811 143.837 149.475 146.356 148.699 149.369C147.364 147.625 146.594 146.621 145.771 145.548C143.896 146.98 142.358 148.152 140.72 149.402ZM276.455 167.526C276.157 167.843 275.86 168.161 275.56 168.482C273.722 167.529 271.887 166.575 268.768 164.96C270.196 168.09 271.017 169.886 271.881 171.781C268.267 172.487 266.28 171.024 264.815 168.552C264.616 168.215 263.899 168.207 262.782 167.833C262.757 169.643 262.738 170.953 262.722 172.26C257.41 174.664 257.41 174.664 255.421 171.243C259.822 165.94 264.812 161.79 272.5 162.082C273.698 163.727 275.078 165.626 276.455 167.526ZM186.874 49.3912C191.4 43.2627 194.603 42.3574 203.679 44.7978C203.401 43.436 203.183 42.3811 202.982 41.4063C206.566 41.5222 207.682 44.026 208.339 46.4734C203.029 48.1174 197.865 49.7144 192.28 51.4431C190.972 50.9464 188.94 50.1751 186.874 49.3912ZM206.315 268.14C200.803 263.529 195.287 258.919 189.399 253.991C190.859 252.068 192.107 250.423 193.292 248.865C198.854 251.592 199.592 252.312 198.743 254.954C198.531 255.61 196.954 255.957 196.11 256.39C198.796 260.647 205.895 261.353 206.315 268.14ZM174.534 147.876C171.044 148.808 167.566 149.737 164.064 150.669C164.033 144.223 168.537 140.072 173.1 134.987C173.738 136.777 174.957 139.529 174.728 139.667C169.797 142.616 174.232 144.879 174.534 147.876ZM176.728 245.683C172.947 244.037 169.567 242.564 165.913 240.976C167.546 238.391 168.692 236.581 169.959 234.574C173.051 236.018 175.972 237.38 179.327 238.948C178.552 240.958 177.798 242.908 176.728 245.683ZM117.01 183.887C115.501 181.032 113.793 180.107 110.939 181.134C107.558 182.354 104.519 181.507 100.805 180.388C103.623 179.341 105.446 178.521 107.326 178.009C108.892 177.581 110.889 176.867 112.058 177.421C114.697 178.663 117.079 178.25 119.364 176.634C121.85 174.875 123.299 175.528 124.474 177.328C122.984 178.224 120.342 179.567 120.423 179.804C121.458 182.868 118.186 182.128 117.01 183.887ZM157.641 161.424C155.821 165.437 155.06 169.319 151.008 170.795C149.82 171.228 147.867 171.138 147.128 170.424C146.395 169.718 146.238 167.737 146.74 166.652C147.878 164.197 149.578 161.949 151.178 159.414C153.368 160.098 155.283 160.693 157.641 161.424ZM119.291 241.79C123.323 238.117 125.143 243.476 127.836 242.604C129.01 247.53 124.263 251.593 125.989 256.271C126.209 256.864 124.445 259.123 123.937 259.061C122.71 258.915 121.154 258.119 120.692 257.098C119.868 255.277 121.064 253.8 122.637 252.147C125.479 249.155 125.172 246.445 122.416 243.926C121.522 243.111 120.4 242.536 119.291 241.79ZM184.678 137.184C180.03 137.626 178.067 134.867 174.964 132.954C177.758 130.453 180 128.447 181.925 126.724C188.358 129.075 183.79 133.569 184.678 137.184ZM319.404 158.185C314.961 158.694 317.902 167.232 311.355 165.114C311.36 163.359 311.367 161.919 311.368 160.98C314.935 158.786 318.228 156.76 321.527 154.733C325.64 158.991 325.6 159.931 320.876 163.122C320.362 161.4 319.869 159.745 319.404 158.185ZM197.984 107.678C201.09 104.146 203.166 101.785 205.418 99.2226C206.006 100.007 206.685 100.913 207.463 101.947C205.671 103.271 204.188 104.367 201.878 106.076C204.886 107.735 207.245 109.034 209.884 110.491C209.337 111.601 208.814 112.668 208.205 113.904C204.582 111.7 201.335 109.718 197.984 107.678ZM326.75 169.847C329.885 172.553 330.617 175.307 329.041 177.779C327.466 180.254 325.349 180.703 321.06 179.24C322.968 176.093 324.838 173.004 326.75 169.847ZM286.174 155.631C288.665 155.182 291.255 153.137 293.791 156.164C292.991 158.426 292.154 160.787 291.314 163.15C286.015 161.713 286.015 161.713 286.174 155.631ZM108.786 267.926C108.355 263.545 108.008 260.001 107.624 256.109C108.397 255.789 109.534 255.316 111.397 254.542C108.627 257.217 109.288 259.111 111.155 260.315C113.25 261.668 115.266 262.844 115.221 266.54C113.001 267.021 110.83 267.488 108.786 267.926ZM253.337 133.025C250.365 133.717 247.657 133.056 247.189 131.277C246.625 129.132 247.786 127.834 249.813 126.625C251.416 125.669 252.601 123.963 254.665 121.899C254.16 126.14 253.749 129.565 253.337 133.025ZM206.926 89.377C214.176 89.2671 215.874 91.1499 213.862 97.0639C210.089 96.0195 207.126 92.738 206.926 89.377ZM267.572 144.652C267.608 147.651 267.637 150.042 267.659 151.909C264.973 149.571 262.127 147.092 259.21 144.551C263.128 140.037 265.181 143.814 267.572 144.652ZM135.842 157.634C138.797 154.187 141.843 155.128 145.095 156.583C144.969 158.266 144.851 159.872 144.701 161.879C141.415 160.483 136.871 162.401 135.842 157.634ZM159.255 46.354C163.428 47.0693 167.3 47.5948 171.071 48.4344C172.934 48.8507 173.826 50.1045 172.109 52.1833C169.608 51.5483 167.196 50.9687 164.81 50.3197C162.685 49.7423 159.26 51.0267 159.255 46.354ZM325.738 165.613C326.814 162.554 327.692 160.056 328.758 157.036C331.585 159.577 333.912 161.718 332.338 165.674C331.661 165.97 331.233 166.319 330.878 166.286C329.222 166.13 327.588 165.868 325.738 165.613ZM76.6883 93.4524C77.3952 99.9758 76.9583 100.495 69.3745 102.621C70.6208 98.7636 71.8913 95.2969 76.6883 93.4524ZM294.97 160.454C297.777 161.705 301.268 160.888 301.21 164.919C301.181 166.994 300.389 168.236 298.019 167.853C298.23 166.483 298.437 165.148 298.693 163.476C296.431 164.923 294.726 166.014 293.024 167.101C292.797 166.849 292.567 166.594 292.341 166.341C293.085 164.67 293.829 163.002 294.97 160.454ZM227.03 190.701C228.714 193.869 232.582 195.554 229.379 200.46C227.18 198.348 225.247 196.494 223.199 194.53C224.501 193.229 225.516 192.217 227.03 190.701ZM292.737 171.874C288.49 172.636 282.26 168.914 278.582 163.781C283.861 166.8 288.299 169.337 292.737 171.874ZM68.6408 114.925C68.7446 119.581 68.84 123.832 68.9469 128.554C63.8315 124.216 63.8747 120.879 68.6408 114.925ZM283.02 185.217C289.249 183.683 291.182 184.604 293.377 190.807C290.064 189.018 286.75 187.227 283.02 185.217ZM312.921 175.807C309.512 174.295 307.559 173.427 305.55 172.536C308.577 167.88 312.685 168.601 316.473 168.131C316.592 168.535 316.71 168.939 316.827 169.346C314.828 170.087 312.827 170.831 310.615 171.651C311.176 172.652 311.714 173.624 312.921 175.807ZM319.743 180.989C319.413 183.532 319.719 185.241 319.007 185.937C316.383 188.489 313.592 187.708 309.523 186.233C313.092 184.403 315.543 183.145 319.743 180.989ZM291.382 59.7659C289.6 61.5501 287.975 63.175 286.182 64.9674C284.592 63.231 283.294 61.8135 281.124 59.4437C285.192 59.5702 288.06 59.6609 291.382 59.7659ZM207.865 126.609C209.045 132.703 207.315 135.099 201.469 135.901C203.562 132.863 205.648 129.833 207.865 126.609ZM185.053 62.3193C187.639 62.707 189.597 62.8132 191.338 63.4097C191.703 63.5363 191.732 65.9041 191.144 66.4773C189.087 68.4817 187.08 67.2196 185.441 66.0833C184.918 65.7262 185.214 64.2996 185.053 62.3193ZM301.075 154.464C299.042 153.835 296.092 154.819 297.627 150.756C298.238 149.138 298.055 147.299 298.348 144.426C301.376 147.716 302.383 150.429 301.075 154.464ZM170.301 119.225C170.649 119.078 171 118.933 171.348 118.786C172.355 120.803 173.91 122.689 174.238 124.863C174.745 128.222 172.584 128.002 170.599 127.313C170.49 124.345 170.395 121.783 170.301 119.225ZM317.176 152.324C314.08 155.491 311.534 158.072 307.461 156.052C310.518 151.476 310.518 151.476 317.176 152.324ZM274.312 126.64C277.064 127.031 278.884 127.292 280.707 127.553C280.651 127.947 280.597 128.34 280.541 128.731C279.007 129.004 277.473 129.274 275.519 129.62C276.288 131.156 276.857 132.297 277.821 134.22C275.911 134.461 274.732 134.611 272.87 134.848C273.426 131.668 273.781 129.653 274.312 126.64ZM286.252 180.247C285.761 180.524 285.267 180.802 284.775 181.079C283.564 180.05 281.529 179.192 281.371 177.94C281.214 176.701 282.953 175.062 283.864 173.599C284.393 173.678 284.921 173.756 285.45 173.835C285.716 175.971 285.986 178.109 286.252 180.247ZM282.073 153.771C282.081 155.794 282.088 157.918 282.099 160.483C280.223 159.625 278.868 159.006 277.609 158.429C277.682 155.805 277.911 153.526 282.073 153.771ZM294.347 151.471C291.318 150.006 289.563 149.156 286.987 147.911C293.295 145.825 293.295 145.825 294.347 151.471ZM196.698 76.6186C198.674 76.5792 200.583 76.0292 201.064 76.6294C202.592 78.5415 202.852 80.7394 199.163 82.3944C198.445 80.709 197.766 79.1186 196.698 76.6186ZM104.874 185.364C108.147 185.18 110.749 185.033 114.11 184.84C110.193 189.273 109.635 189.282 104.874 185.364ZM201.68 258.718C202.025 258.294 202.371 257.87 202.716 257.447C205.334 258.431 208.778 258.396 209.424 263.775C206.176 261.654 203.928 260.186 201.68 258.718ZM275.656 138.362C275.814 137.923 275.972 137.486 276.129 137.047C277.807 137.169 279.649 136.977 281.061 137.598C281.488 137.786 280.724 140.221 280.317 142.834C278.09 140.699 276.872 139.53 275.656 138.362ZM274.535 147.116C281.577 145.837 282.336 146.104 283.196 150.322C280.391 149.284 277.795 148.324 274.535 147.116ZM203.017 85.1018C203.733 84.1103 204.474 83.1303 205.16 82.1193C205.739 81.2679 206.263 80.38 207.26 78.7882C207.342 82.3142 207.967 85.1124 203.017 85.1018ZM177.925 156.51C175.434 155.749 172.939 154.986 169.745 154.009C175.12 149.559 174.844 157.215 177.925 156.51ZM330.962 76.5756C330.537 76.8351 330.111 77.0919 329.686 77.3514C328.252 74.9505 326.815 72.5501 325.38 70.1492C325.857 69.8522 326.337 69.5574 326.814 69.2604C328.196 71.6988 329.579 74.1372 330.962 76.5756ZM302.79 158.46C305.66 159.49 307.113 160.015 309.223 160.771C307.588 162.234 306.435 163.265 304.778 164.747C304.118 162.659 303.675 161.258 302.79 158.46ZM212.167 265.485C212.463 265.156 212.758 264.825 213.054 264.496C214.593 265.972 216.133 267.448 217.67 268.925C217.35 269.233 217.03 269.539 216.711 269.844C215.195 268.391 213.683 266.938 212.167 265.485ZM223.582 141.998C220.683 142.937 217.786 143.872 214.414 144.962C216.832 140.552 220.154 141.111 223.582 141.998ZM121.411 198.567C121.328 193.715 123.541 193.293 127.194 192.781C125.03 194.943 123.681 196.292 121.411 198.567ZM135.584 173.78C138.026 173.435 140.466 173.09 144.189 172.565C140.698 175.756 138.23 175.873 135.584 173.78ZM301.931 187.93C301.609 188.392 301.289 188.85 300.967 189.312C298.966 188.029 296.962 186.743 294.961 185.459C295.238 185.062 295.516 184.665 295.79 184.269C297.836 185.49 299.885 186.709 301.931 187.93ZM115.019 238.765C116.581 236.877 118.145 234.989 120.377 232.287C121.601 237.964 117.229 237.429 115.019 238.765ZM136.922 178.678C139.271 178.457 141.091 178.285 143.39 178.07C141.212 181.45 139.407 182.315 136.922 178.678ZM248.543 177.422C251.194 173.81 251.194 173.81 253.383 176.34C252.592 176.788 251.876 177.392 251.099 177.574C250.333 177.751 249.505 177.499 248.543 177.422ZM302.777 175.445C307.113 174.763 308.174 176.089 307.148 180.068C305.59 178.419 304.426 177.189 302.777 175.445ZM84.4303 207.696C81.6275 207.602 80.5544 206.62 80.6829 203.466C82.1395 204.386 83.1499 204.894 83.9758 205.605C84.3023 205.888 84.22 206.611 84.4303 207.696ZM277.452 111.396C277.822 113.2 277.548 114.682 275.196 114.854C274.81 114.883 274.112 114.204 274.113 113.802C274.125 111.581 275.415 110.935 277.452 111.396ZM320.777 168.884C321.493 171.436 321.119 173.299 317.564 174.06C318.934 171.851 319.857 170.369 320.777 168.884ZM281.299 116.82C281.534 114.023 281.692 112.119 281.853 110.214C283.928 112.114 285.484 114.017 281.299 116.82ZM201.167 129.166C197.288 130.442 197.359 128.15 196.87 126.546C196.81 126.346 197.227 125.967 197.648 125.333C198.766 126.553 199.799 127.675 201.167 129.166ZM66.5222 111.021C64.541 113.896 63.7728 116.02 60.7545 115.775C61.2307 112.711 63.4335 112.233 66.5222 111.021ZM199.591 142.825C199.116 142.483 198.641 142.142 198.165 141.8C198.951 141.015 199.733 140.223 200.555 139.476C200.574 139.46 201.381 140.121 201.323 140.223C200.813 141.123 200.185 141.965 199.591 142.825ZM219.801 273.155C220.25 272.659 220.699 272.166 221.148 271.67C222.083 272.669 223.018 273.67 223.953 274.669C223.627 275.014 223.3 275.355 222.973 275.699C221.918 274.849 220.858 274.002 219.801 273.155ZM284.828 140.03C285.223 140.243 285.617 140.452 286.012 140.665C285.375 141.688 284.742 142.707 284.105 143.73C283.714 143.523 283.32 143.313 282.929 143.106C283.562 142.081 284.195 141.055 284.828 140.03ZM129.165 263.587C127.501 266.119 126.074 267.243 122.736 265.755C125.356 264.873 126.966 264.329 129.165 263.587Z" fill="#B5BF65"/>
<path d="M149.877 53.1974C147.973 49.9515 145.024 50.2459 142.395 50.8542C140.539 51.2835 138.814 52.7551 137.095 53.8609C136.439 54.2825 136.053 55.1874 135.386 55.5241C130.926 57.7545 126.436 59.9207 121.929 62.0458C118.515 63.6554 116.279 66.0454 115.635 69.9864C119.293 70.5306 118.812 66.2298 121.221 65.5146C123.619 64.8019 125.964 63.8579 128.693 62.8855C131.737 56.0548 136.22 56.9399 143.958 60.8038C144.281 57.6826 144.281 57.6827 138.463 54.8366C142.106 51.5879 145.821 54.4399 149.877 53.1974Z" fill="#BB9F87" fill-opacity="0.5"/>
<path d="M82.2395 165.829C84.9055 166.04 87.6994 165.896 90.2099 166.539C95.1756 167.812 96.6172 167.435 100.632 163.267C101.783 162.071 103.489 161.382 104.906 160.407C106.192 159.52 106.17 159.488 106.238 155.867C102.765 157.592 99.5098 160.625 95.6659 158.453C91.5487 161.476 85.5239 160.874 82.3915 165.836C82.3563 165.838 82.2395 165.829 82.2395 165.829Z" fill="#BB9F87" fill-opacity="0.5"/>
<path d="M157.308 80.5674C163.109 83.1099 163.109 83.1099 162.343 88.6636C163.527 89.301 164.92 89.7895 165.937 90.683C166.778 91.4202 167.177 92.6383 167.747 93.6052C168.442 93.2898 169.111 93.1582 169.165 92.9361C170.22 88.5956 165.102 79.2896 161.253 78.4444C160.139 78.1999 159.922 78.3155 157.308 80.5674Z" fill="#BB9F87" fill-opacity="0.5"/>
<path d="M101.585 120.044C102.706 115.105 99.5403 109.978 104.93 105.152C97.2291 106.949 96.4547 110.706 101.585 120.044Z" fill="#BB9F87" fill-opacity="0.5"/>
<path d="M64.1568 127.547C57.844 135.93 59.1345 140.526 67.4302 142.329C65.6714 139.829 63.3934 137.902 62.8691 135.462C62.361 133.095 63.654 130.206 64.1568 127.547Z" fill="#BB9F87" fill-opacity="0.5"/>
<path d="M215.431 72.3302C218.6 75.9937 221.669 79.5399 224.861 83.2306C226.725 79.0088 223.438 76.5485 221.658 73.7374C220.253 71.513 219.434 71.6201 215.431 72.3302Z" fill="#BB9F87" fill-opacity="0.5"/>
<path d="M116.102 87.1518C117.652 83.1493 119.131 79.3372 120.805 75.0098C113.734 78.9686 112.689 81.8564 116.102 87.1518Z" fill="#BB9F87" fill-opacity="0.5"/>
<path d="M222.621 88.2458C223.329 92.419 223.785 96.3319 218.482 99.6994C224.075 99.142 224.485 98.9108 225.652 96.2955C227.272 92.6691 225.758 90.237 222.621 88.2458Z" fill="#BB9F87" fill-opacity="0.5"/>
<path d="M86.5817 149.717C84.408 145.522 88.2537 140.112 84.196 136.079C82.3526 140.696 82.1364 144.516 83.9842 148.112C84.386 148.897 85.6905 149.192 86.5817 149.717Z" fill="#BB9F87" fill-opacity="0.5"/>
<path d="M115.151 96.4326C111.04 93.7702 107.571 96.5563 106.251 103.258C109.074 101.098 111.896 98.9329 115.151 96.4326Z" fill="#BB9F87" fill-opacity="0.5"/>
<path d="M135.596 68.4622C139.199 69.3626 142.799 70.2637 147.649 71.4767C144.518 65.7687 139.675 68.1848 136.25 66.8952C136.031 67.4196 135.815 67.9405 135.596 68.4622Z" fill="#BB9F87" fill-opacity="0.5"/>
<path d="M97.3344 124.238C95.9619 130.951 95.9618 130.951 101.001 132.352C99.5658 129.169 98.4503 126.705 97.3344 124.238Z" fill="#BB9F87" fill-opacity="0.5"/>
<path d="M234.855 95.8359C232.2 97.7161 230.307 99.0587 228.372 100.43C232.797 102.524 233.774 101.926 234.855 95.8359Z" fill="#BB9F87" fill-opacity="0.5"/>
<path d="M105.981 86.402C107.819 86.1762 109.178 86.3654 109.518 85.8924C110.136 85.035 110.151 83.7883 110.419 82.7042C109.641 82.7136 108.559 82.4108 108.147 82.7991C107.371 83.5306 106.981 84.6566 105.981 86.402Z" fill="#BB9F87" fill-opacity="0.5"/>
<path d="M141.986 103.283C142.302 105.991 142.471 107.443 142.647 108.951C143.542 108.672 144.065 108.667 144.297 108.411C146.179 106.336 145.183 105.122 141.986 103.283Z" fill="#BB9F87" fill-opacity="0.5"/>
<path d="M229.469 251.769C222.994 240.934 189.797 217.461 179.288 216.63C187.817 221.835 196.643 226.651 204.794 232.348C213.063 238.126 220.661 244.772 229.469 251.769Z" fill="#BB9F87" fill-opacity="0.5"/>
<path d="M189.461 189.634C189.383 187.703 189.857 185.888 189.189 185.302C186.628 183.046 185.115 179.279 180.643 179.084C181.213 183.14 182.295 184.444 189.461 189.634Z" fill="#BB9F87" fill-opacity="0.5"/>
<path d="M57.6388 186.351C50.711 193.286 50.5305 196.033 57.0438 198.016C53.5517 192.52 58.1696 190.432 62.0369 187.889C60.8883 186.182 59.9056 184.724 58.7077 182.942C63.0611 177.163 69.02 178.79 74.9078 178.442C74.9496 176.182 73.5883 174.88 72.0385 175.171C67.5967 176.01 63.0585 176.95 58.8496 178.691C54.89 180.332 56.0752 183.529 57.6388 186.351Z" fill="#BB9F87" fill-opacity="0.5"/>
<path d="M64.9903 242.768C66.8848 243.865 68.776 244.959 70.7918 246.131C71.3122 248.585 68.7799 251.777 71.7565 254.795C73.7911 250.502 73.3873 245.319 78.6885 243.258C74.1171 243.164 69.5427 243.071 64.9709 242.975L64.9903 242.768Z" fill="#BB9F87" fill-opacity="0.5"/>
<path d="M71.8524 263.686C69.541 269.879 71.8481 272.822 79.2099 273.435C77.0017 270.508 74.4858 267.172 71.8524 263.686Z" fill="#BB9F87" fill-opacity="0.5"/>
<path d="M77.8004 230.861C78.7976 237.268 73.6765 235.387 71.4311 237.211C74.7959 239.423 77.5151 239.332 79.7267 236.899C81.8169 234.602 80.5376 233.095 77.8004 230.861Z" fill="#BB9F87" fill-opacity="0.5"/>
<path d="M232.181 171.868C241.355 167.175 247.678 152.782 245.515 143.612C241.304 145.831 243.255 149.792 241.91 152.68C240.34 156.052 239.36 159.654 237.692 162.981C236.151 166.064 234.04 168.916 232.181 171.868Z" fill="#BB9F87" fill-opacity="0.5"/>
<path d="M233.814 181.806C229.94 182.623 229.94 182.623 227.801 185.768C231.016 186.155 231.016 186.155 233.814 181.806Z" fill="#BB9F87" fill-opacity="0.5"/>
</svg>
