<svg width="185" height="186" viewBox="0 0 185 186" fill="none" xmlns="http://www.w3.org/2000/svg">
<path d="M160.522 126.423C161.68 129.877 161.742 133.219 160.595 136.497C159.511 139.59 158.246 142.645 157.493 145.819C155.789 152.994 151.615 159.037 146.674 164.675C142.293 169.673 136.437 173.09 128.488 173.737C127.216 173.84 126.001 174.178 124.745 174.363C118.434 175.297 111.95 175.551 105.468 174.723C99.2194 173.925 92.9727 172.583 86.8223 171.085C80.1358 169.455 73.5336 167.45 66.9476 165.457C61.1163 163.694 55.8528 161.002 51.459 157.164C48.9705 154.989 46.6613 152.675 44.1437 150.528C38.0135 145.3 32.9226 139.464 28.3417 133.318C26.7515 131.186 24.5744 129.164 23.7081 126.894C22.2378 123.043 20.0497 119.343 19.7359 115.199C19.0672 106.391 17.7305 97.566 16.8913 88.7501C16.6366 86.0695 17.028 83.3859 17.2848 80.7269C17.5054 78.4309 17.7552 76.1158 18.3498 73.902C19.063 71.2497 20.4872 68.7652 21.0087 66.0837C22.0128 60.9295 26.1518 57.4812 29.7057 53.8371C31.9706 51.5163 35.6592 50.1936 38.6869 48.4002C44.1406 45.1666 50.2313 42.9372 56.9123 41.7239C58.7129 41.3977 60.8262 41.2435 62.6077 41.7055C65.0521 42.3391 67.6535 42.697 69.9172 43.9801C71.1232 44.6632 72.4355 45.2429 73.7594 45.727C78.037 47.2928 81.39 49.7288 83.8768 53.0442C84.5289 53.9138 85.2954 54.7325 85.9326 55.6093C88.2356 58.7761 89.6427 62.1346 90.1132 65.7044C90.7699 70.6894 88.7759 74.9773 86.4355 79.1635C85.26 81.2669 83.8999 83.2875 82.3776 85.7392C85.0275 86.3761 87.3263 86.8748 89.5929 87.4841C94.4332 88.7873 98.5733 88.114 102.154 85.5793C102.653 85.2261 103.503 84.8481 104.064 84.9861C105.336 85.2995 105.862 84.7345 106.444 84.1386C109.171 81.3435 111.951 78.5825 114.592 75.7298C119.26 70.6851 123.33 65.303 126.523 59.4351C127.51 57.6213 128.618 55.8598 129.733 54.1058C131.771 50.8995 133.927 47.7489 135.898 44.5108C137.441 41.9734 139.155 39.4571 140.123 36.7201C141.852 31.8324 146.342 29.0017 152.613 29.4089C153.247 29.4505 154.041 29.4539 154.474 29.1786C155.887 28.2831 157.227 29.2904 158.376 29.6771C159.691 30.1191 160.796 31.1697 161.917 32.0245C163.411 33.1611 164.746 34.4604 166.308 35.5196C170.679 38.4844 172.671 44.6676 170.506 48.5718C169.552 50.292 168.785 52.1019 168.032 53.9058C165.872 59.0817 164.524 64.565 161.017 69.2267C159.209 71.6312 157.352 74.0087 155.613 76.4497C148.978 85.7628 140.998 94.1059 131.382 101.366C127.24 104.492 123.686 108.164 122.471 113.046C121.725 116.047 121.956 119.02 124.27 122.102C125.961 120.508 127.525 119.074 129.035 117.601C131.159 115.528 134.069 114.327 136.991 113.249C138.416 112.723 140.36 112.657 142.001 112.924C145.894 113.562 149.396 115.11 152.406 117.508C154.878 119.477 157.452 121.359 159.941 123.249C160.109 124.216 160.16 125.345 160.522 126.423ZM133.385 121.486C133.982 120.926 134.58 120.366 135.177 119.804C135.837 119.547 136.498 119.291 137.158 119.033C137.014 118.871 136.871 118.71 136.726 118.548C136.227 118.987 135.725 119.428 135.226 119.867C134.085 119.877 133.325 120.282 133.385 121.486ZM115.213 151.046C116.134 151.512 117.339 151.548 118.413 151.779C118.464 151.582 118.515 151.385 118.567 151.187C115.592 149.902 112.615 148.618 109.64 147.333C108.877 146.114 108.006 144.951 108.324 143.508C108.423 143.059 107.839 142.454 107.568 141.922C107.342 141.943 107.116 141.962 106.889 141.983C106.972 143.269 106.922 144.563 107.179 145.838C107.379 146.827 107.675 148.052 109.547 147.706C111.428 148.834 113.247 150.051 115.213 151.046ZM78.3678 71.6968C76.5541 74.0616 77.3557 76.6401 77.6939 79.178C77.9851 79.2341 78.2767 79.2889 78.5682 79.3436C78.7294 78.3975 78.8902 77.4529 79.0531 76.5073C79.4178 76.8009 79.784 77.0963 80.436 77.6201C80.2872 76.9161 80.1877 76.4482 80.0474 75.7799C79.6208 76.1613 79.3754 76.3789 79.1319 76.5969C78.8677 74.9556 78.6179 73.3255 78.3678 71.6968ZM151.036 135.793C150.908 134.86 150.672 133.931 150.483 133C150.25 133 150.018 132.998 149.785 132.997C149.573 135.604 149.361 138.211 149.147 140.817C148.969 139.707 148.718 138.594 148.631 137.484C148.482 135.606 148.488 133.73 148.315 131.851C148.265 131.297 147.827 130.735 147.402 129.819C146.029 132.237 146.809 134.582 146.654 136.772C144.709 131.524 144.601 130.496 145.761 128.283C144.777 127.693 143.736 127.071 142.293 126.207C142.274 127.681 142.261 128.766 142.245 129.965C140.474 128.664 142.268 126.061 138.811 125.353C139.004 127.568 139.179 129.588 139.354 131.607L139.42 131.563C139.036 130.859 138.51 130.174 138.306 129.448C137.981 128.295 137.993 127.098 137.618 125.956C137.437 125.402 136.702 124.93 135.914 124.524C135.119 127.401 136.81 130.201 136.188 133.015C135.444 130.173 134.699 127.329 133.967 124.533C132.914 124.275 132.269 124.312 132.467 125.286C132.667 126.271 132.888 127.257 133.056 128.244C133.184 129.009 133.243 129.779 132.795 130.579C132.183 128.67 131.57 126.762 130.848 124.502C128.726 126.478 131.176 128.632 130.329 131.062C129.567 128.837 129.021 127.237 128.252 124.993C127.792 125.94 127.426 126.373 127.378 126.851C127.275 127.894 127.334 128.962 127.326 130.019L127.399 129.992C126.97 128.919 126.541 127.845 126.03 126.57C125.307 126.774 124.714 126.91 124.895 127.914C125.262 129.947 125.449 131.987 125.71 134.024C125.502 134.033 125.292 134.042 125.083 134.05C124.679 132.182 124.276 130.314 123.806 128.136C122.524 128.966 122.967 129.881 123.041 130.696C123.112 131.466 123.189 132.237 122.805 133.05C122.545 132.385 122.286 131.719 121.961 130.885C121.681 131.18 121.252 131.409 121.267 131.654C121.379 133.43 121.581 135.21 121.232 137.065C120.938 136.259 120.642 135.452 120.347 134.646C120.234 134.658 120.12 134.667 120.008 134.677C119.94 135.346 119.798 136.009 119.823 136.684C119.893 138.604 120.686 140.535 119.374 142.388C118.915 143.036 119.559 144.611 120.257 145.479C121.94 147.57 123.857 149.538 126.84 150.553C130.981 151.962 134.412 149.97 133.734 146.374C133.462 144.932 133.165 143.356 130.968 142.427C131.528 143.82 132.154 144.971 132.426 146.15C132.777 147.68 131.824 148.62 129.783 149.151C127.956 149.626 126.654 149.241 125.491 147.882C122.713 144.636 124.115 140.922 128.642 139.538C133.693 137.993 139.173 141.425 138.902 146.222C138.63 151.03 136.356 154.839 130.661 156.634C127.172 157.734 123.531 158.134 119.744 158.204C117.339 158.248 115.234 157.541 113.38 156.158C111.779 154.963 110.268 153.683 108.635 152.523C105.383 150.211 104.69 147.142 104.481 144.105C104.101 138.605 104.77 133.209 106.064 127.941C106.609 125.729 107.484 123.586 108.402 121.482C109.323 119.375 110.115 117.214 112.058 115.541C114.688 113.276 116.604 110.2 119.751 108.652C122.958 107.073 124.66 104.67 126.985 102.595C127.266 102.345 127.529 102.079 127.82 101.837C131.029 99.1793 134.317 96.5852 137.432 93.8527C139.907 91.6821 142.371 89.472 144.482 87.0512C147.507 83.5827 150.229 79.9198 153.042 76.3188C155.461 73.2252 158.258 70.2935 160.109 66.9468C162.53 62.5693 164.281 57.8882 166.113 53.2664C166.738 51.6898 165.038 49.8801 165.629 48.177C165.636 48.1572 165.086 47.9636 164.624 47.7834C164.08 48.9447 163.557 50.0573 163.035 51.1684C162.795 51.0954 162.556 51.0209 162.316 50.9479C162.639 49.6044 162.961 48.2624 163.284 46.9189C163.014 46.8155 162.744 46.7107 162.473 46.6073C161.805 47.7404 161.139 48.8738 160.472 50.0054C160.301 49.9444 160.13 49.8834 159.959 49.8238C160.31 48.3641 160.661 46.903 161.012 45.4433C160.822 45.3886 160.635 45.3343 160.446 45.2795C159.966 46.0553 159.486 46.8311 158.842 47.873C158.074 46.2889 160.207 44.9565 158.204 43.4333C157.538 44.3673 156.966 45.173 156.392 45.9784C156.222 45.939 156.051 45.8995 155.881 45.8601C156.002 44.783 156.123 43.7059 156.243 42.6288C156.051 42.578 155.859 42.5286 155.666 42.4778C155.225 43.3688 154.782 44.258 154.231 45.3728C152.658 43.8456 154.443 42.9597 154.325 41.561C153.801 41.2061 153.082 40.7197 152.142 40.0838C151.387 41.7165 150.746 43.1002 150.105 44.4825C149.414 42.725 150.207 41.3792 150.86 39.9629C149.938 38.9885 149.117 38.6545 148.429 39.8564C147.858 40.8531 147.376 41.8924 146.298 42.7625C146.696 41.4265 147.097 40.0895 147.555 38.5556C146.895 38.2772 146.169 37.9689 145.316 37.6089C144.421 39.2004 143.624 40.6203 142.824 42.0413C142.607 41.9537 142.389 41.8661 142.172 41.7785C142.807 40.229 143.445 38.6785 144.08 37.129C143.908 37.0262 143.738 36.9223 143.566 36.8195C143.142 37.0725 142.54 37.2382 142.319 37.5906C138.81 43.1443 135.316 48.7048 131.894 54.3012C130.204 57.0659 128.793 59.9669 127.048 62.7029C123.155 68.8051 118.614 74.5458 113.351 79.83C110.005 83.1893 106.607 86.5545 102.755 89.494C100.143 91.4872 96.6949 92.7323 93.6393 94.3347C91.099 95.6675 88.2524 96.6441 86.1326 98.4713C85.9299 98.6454 85.6245 98.7824 85.3292 98.8297C80.1665 99.6552 75.1931 101.268 69.6151 100.444C63.6568 99.5632 57.6348 98.5783 52.7607 94.9902C47.6488 91.2266 45.2799 86.4047 44.8883 81.018C44.7945 79.731 45.3733 78.3938 44.1764 77.1213C41.4718 79.169 41.1828 81.7574 43.0046 88.7845C42.2911 87.9969 41.7362 87.6362 41.6331 87.2304C40.8346 84.0642 40.6959 80.9168 41.9286 77.9852C42.3256 77.0421 42.6589 75.2694 44.9939 76.4682C46.2922 75.5312 47.5165 74.5166 48.8975 73.6686C52.8069 71.2698 57.2797 71.7396 61.8169 73.2172C62.5838 73.4676 63.1967 74.3585 63.692 75.0383C64.0194 75.4872 63.925 76.1083 64.158 76.619C65.8044 80.2103 65.5683 83.366 62.1853 85.8267C61.6825 85.7059 61.1798 85.585 60.6394 85.4552C60.577 88.2424 60.8006 88.7847 62.6117 90.1633C63.3992 88.6427 61.9829 87.1807 62.1292 85.761C62.7504 86.9166 63.3738 88.0712 63.9929 89.2278C64.2865 89.7777 64.572 90.3303 64.943 91.0386C66.6382 90.0725 65.0524 88.4654 66.2521 87.4033C66.6735 88.8074 67.0542 90.0742 67.4967 91.5479C69.7879 90.5039 67.6542 88.4517 68.9524 87.0584C69.3502 88.4507 69.6711 89.5725 69.9934 90.6961C70.1456 90.7005 70.2983 90.7034 70.4487 90.7073C70.2843 88.7612 70.1203 86.8137 69.9399 84.6824C72.2897 86.5992 71.7634 89.0015 72.9018 91.2969C73.9811 90.3103 73.175 89.3177 73.277 88.4757C73.3579 87.8007 71.539 86.557 73.9501 86.3761C74.3684 86.3445 74.421 84.661 74.6455 83.7271C74.9144 84.1989 75.2876 84.8509 75.9752 86.0531C76.7005 83.2086 75.8279 81.1538 74.7966 79.1376C73.9459 77.4721 74.0033 77.509 75.0706 75.5486C75.4801 74.7974 75.2165 73.7447 75.2141 72.8254C75.2097 71.096 75.1716 69.3646 75.1485 67.6338C74.8288 67.5938 74.5109 67.5543 74.1912 67.5143C73.8372 69.9319 73.485 72.3499 73.0822 75.0968C71.3328 73.879 71.2999 72.4961 71.8709 71.7346C73.2005 69.9586 72.5607 67.9827 72.7297 66.0354C69.456 63.0255 65.3341 60.8749 61.4223 58.5197C60.7561 58.1184 58.9793 58.3612 58.8845 58.1018C58.4949 57.0219 57.8064 56.5399 56.4311 56.3799C56.0579 57.9325 55.6882 59.4706 55.3189 61.0073L55.3948 60.9748C55.3347 59.5162 55.1498 58.0414 55.2567 56.6046C55.3423 55.4452 54.702 54.9595 53.3448 54.598C53.0764 55.7149 52.8177 56.7911 52.559 57.8674C52.455 57.8593 52.3528 57.8516 52.2484 57.8449C52.0826 56.5269 51.9171 55.2073 51.7378 53.78C49.2384 52.8321 46.7849 52.2209 44.11 52.2079C42.4768 52.1994 41.7305 52.7298 41.4999 53.9096C41.2627 55.1246 41.1318 56.3622 40.938 57.5861C40.6734 59.2539 40.4607 60.9342 40.0884 62.5777C39.9496 63.1865 39.4183 63.7041 38.6821 64.0818C39.1206 62.2576 39.6349 60.4485 39.976 58.6039C40.328 56.7067 40.5157 54.7761 40.8033 52.6421C37.6399 52.756 35.3361 54.2624 32.811 55.2717C31.4462 55.8163 30.2977 56.7755 29.271 57.7163C28.5597 58.3688 28.0584 59.2577 27.7578 60.1303C27.2694 61.54 27.0224 63.0246 26.36 64.4262C26.405 63.483 26.4482 62.5393 26.5171 61.0795C23.9402 63.9107 23.0221 66.7857 22.8456 69.9296C22.8116 70.5437 22.9569 71.2146 22.7378 71.7642C21.1109 75.8715 20.9379 80.1976 21.1274 84.6063C21.2565 87.6362 21.1346 90.655 21.1272 93.6782C20.839 93.3969 20.5508 93.1156 20.0556 92.6325C19.2493 94.4359 18.7355 96.2743 19.9011 98.4564C20.2917 96.8312 20.6824 95.2059 21.073 93.5807C22.976 92.703 22.8822 90.9751 23.1597 89.4425C23.5182 87.4547 23.7233 85.4361 24.5096 83.4482C24.6165 84.1452 24.8142 84.8503 24.8134 85.5383C24.8065 87.835 24.3889 90.0606 25.0551 92.4545C25.4352 93.8179 24.5042 95.3056 24.3406 96.7658C23.9504 100.279 23.5569 103.798 23.3652 107.336C23.145 111.41 23.168 115.511 23.0215 119.593C22.9872 120.539 23.0134 121.32 24.1536 121.985C24.567 122.226 24.6673 122.88 24.8893 123.35C25.6424 124.941 26.3855 126.535 27.1311 128.126C27.3528 128.101 27.5725 128.077 27.7942 128.052C28.0056 126.204 28.217 124.356 28.4284 122.508L28.353 122.569C28.7255 122.342 29.0998 122.116 29.8181 121.679C29.5739 123.978 29.3238 126.05 29.143 128.133C29.0246 129.5 28.4525 130.943 30.3781 132.278C30.7213 131.496 31.0145 130.828 31.3094 130.159C31.4092 130.185 31.5105 130.212 31.6104 130.238C31.6037 131.581 31.2287 132.991 31.6932 134.248C32.1422 135.459 33.4597 136.513 34.6539 137.946C34.9819 137.046 35.1539 136.574 35.3404 136.058C35.4662 136.188 35.6656 136.312 35.6532 136.395C35.1389 139.464 35.5155 140.141 38.5237 141.641C38.7652 141.762 38.8818 142.081 39.0496 142.312C39.8805 143.453 40.7093 144.596 41.6382 145.873C42.2626 145.267 42.5615 144.976 43.3768 144.183C42.373 146.446 43.3672 147.64 45.1746 148.695C45.6012 148.243 45.9543 147.869 46.3681 147.431C46.5049 150.877 47.6967 152.431 51.0581 153.651L50.993 153.693C52.1038 154.851 53.2146 156.009 54.3254 157.167C54.5873 157.101 54.8493 157.035 55.1112 156.969C54.8611 154.285 54.6107 151.602 54.3607 148.918C54.5268 148.92 54.693 148.921 54.861 148.923C55.315 150.83 55.7689 152.737 56.2233 154.642L57.7177 159.031C57.8722 159.049 58.0249 159.068 58.1793 159.086C58.1973 157.146 58.2134 155.204 58.2361 152.74C59.7376 155.154 59.6258 157.116 59.5371 159.044C59.4833 160.197 59.7669 161.001 61.6713 161.314C61.7516 159.673 61.831 158.051 61.9347 155.927C63.7288 157.722 62.9766 159.23 63.2006 160.597C63.3835 161.718 63.4672 162.543 65.2807 162.786C65.4416 162.353 65.6123 161.894 65.783 161.436C66.1945 163.354 66.1945 163.354 67.9502 163.034L67.8821 163.058C68.7075 164.119 69.7516 164.847 71.7138 164.785C71.9346 163.15 72.1643 161.431 72.3957 159.712C72.5065 159.708 72.6172 159.703 72.728 159.699C72.7827 160.519 72.8599 161.34 72.8849 162.157C72.913 163.127 72.896 164.095 72.8979 165.197C74.2458 165.621 75.4476 165.999 77.0822 166.513C77.2925 165.221 77.4665 164.143 77.6422 163.065C77.7891 163.061 77.9356 163.057 78.0824 163.053C78.2326 164.144 78.3843 165.238 78.5777 166.638C81.9271 168.309 85.9488 168.869 89.8138 169.781C93.6036 170.675 97.4674 171.245 101.574 172.01C101.845 170.883 102.124 169.724 102.442 168.4C103.357 169.79 103.357 169.79 103.436 172.648C104.439 172.823 105.475 173.002 106.336 173.151C108.667 171.94 107.84 169.939 108.518 168.223C108.663 168.991 108.851 169.76 108.937 170.527C109.027 171.327 109.016 172.128 109.061 173.222C110.971 173.237 112.841 173.252 114.711 173.268L114.633 173.294C115.378 173.255 116.122 173.202 116.869 173.179C119.062 173.11 120.118 172.308 120.034 170.478C119.966 168.997 119.632 167.504 119.418 166.016C119.64 166.006 119.86 165.996 120.082 165.985C120.531 168.291 120.98 170.596 121.467 173.098C122.052 172.907 122.588 172.733 123.124 172.557L123.043 172.611C123.473 172.61 123.923 172.668 124.328 172.598C127.584 172.027 128.028 171.453 127.445 168.55C127.086 166.767 126.682 164.984 126.314 163.201C126.302 163.146 126.45 163.082 126.892 162.718C127.694 165.843 128.431 168.715 129.274 172.003C132.207 169.783 131.389 166.896 131.27 163.974C133.468 166.363 132.006 168.611 132.724 170.806C134.202 170.838 134.829 170.514 135.097 169.099C135.607 166.401 135.395 163.789 134.47 161.101C134.242 160.436 134.185 159.742 134.333 159.043C136.029 162.275 136.69 165.583 136.582 169.078C138.139 169.308 139.11 168.67 139.889 167.722L139.795 167.775C141.409 167.137 142.354 166.19 142.193 164.504C142.009 162.547 142.101 160.595 141.962 158.639C141.882 157.515 141.58 156.385 141.378 155.258C141.651 155.248 141.924 155.239 142.197 155.229C142.786 158.251 143.377 161.274 144.037 164.66C146.319 162.861 145.543 160.418 145.816 158.434C146.106 156.327 145.398 154.047 145.082 151.486C146.7 154.038 146.974 155.829 146.632 160.873C148.183 160.128 148.812 159.076 149.06 157.786C151.035 155.594 152.557 153.282 152.563 150.268C152.569 147.083 153.021 143.936 153.164 140.76C153.213 139.673 152.916 138.548 152.777 137.439C152.52 137.412 152.266 137.385 152.009 137.359C151.821 138.143 151.632 138.929 151.443 139.713C151.311 138.406 151.216 137.099 151.036 135.793ZM72.422 60.9377C74.5519 59.5799 76.6183 58.1562 78.7361 56.7863C79.5963 56.231 80.5248 55.7459 81.526 55.1708C82.6508 56.578 81.7529 56.9752 80.9132 57.5077C78.2231 59.2117 75.5934 60.9794 72.9122 62.7408C73.7586 64.0381 74.5877 64.4079 75.6493 63.6522C77.2154 62.5384 78.7397 61.3854 80.2465 60.2189C81.5231 59.2306 82.7511 58.1999 84.2761 56.9656C83.1003 55.7474 81.9453 54.5526 80.5314 53.0882C76.7964 55.6118 73.2465 58.011 69.5813 60.4884C70.662 62.008 71.6016 61.461 72.422 60.9377ZM52.2812 89.2842C50.7021 87.7832 50.414 85.895 50.9058 84.1404C51.6644 81.4329 52.6721 78.7915 53.5642 76.1192C53.6714 75.7992 53.7259 75.4621 53.8142 75.0946C51.9057 74.6651 51.073 75.6725 50.4002 76.5739C46.5324 81.7526 47.6883 88.7472 54.3129 93.3829C56.1355 94.6583 57.978 96.1658 60.1415 96.2356C57.621 94.0213 54.8477 91.7247 52.2812 89.2842ZM75.2283 48.8285C71.1735 51.4151 67.2279 53.9327 63.2625 56.4624C64.3604 57.5006 65.1583 57.2914 65.9832 56.7492C68.2465 55.2622 70.5122 53.7803 72.8118 52.3312C73.8337 51.6858 74.9373 51.126 76.3198 50.3506C76.7793 52.6119 74.6055 52.664 73.7823 53.5692C72.8021 54.6472 71.4178 55.4698 70.143 56.3402C69 57.1194 67.7703 57.8101 66.8731 58.842C72.235 58.1012 74.4687 53.808 79.3802 52.051C77.7578 50.7931 76.5313 49.8407 75.2283 48.8285ZM107.507 136.696C106.502 138.466 107.628 139.902 108.989 141.162C111.708 143.681 114.506 146.158 117.469 148.476C118.73 149.461 120.491 149.998 121.895 150.677C117.085 145.469 112.272 140.258 107.284 134.858C107.381 135.518 107.76 136.249 107.507 136.696ZM60.533 51.1406C60.361 51.2345 60.2367 51.3813 60.0661 51.477C58.0382 52.615 57.5218 52.6845 54.3702 52.1114C56.3785 53.9844 58.7955 54.5822 60.909 55.7185C65.0526 53.164 69.4325 50.9967 72.4991 47.5611C69.784 48.007 68.414 49.9192 66.3547 51.0696C64.2387 52.251 62.176 53.4943 60.1469 54.6766C58.5342 53.6222 59.303 53.1402 60.1149 52.6517C62.5402 51.1914 64.9698 49.7366 67.3678 48.2482C67.8906 47.9237 68.2896 47.468 68.7462 47.0723C68.6472 46.9963 68.5503 46.9192 68.4512 46.8432C65.812 48.2721 63.1722 49.704 60.533 51.1406ZM118.682 131.367C118.849 130.814 118.908 130.065 118.588 129.569C117.121 127.288 115.502 125.063 113.917 122.789C112.187 123.73 112.104 125.253 112.911 126.978C113.991 129.292 115.244 131.546 117.328 133.955C117.958 132.791 118.457 132.117 118.682 131.367ZM115.478 138.494C113.916 136.691 112.776 134.655 111.442 132.724C110.912 131.956 110.347 131.203 109.585 130.146C108.234 131.515 108.57 132.887 109.251 133.865C111.36 136.896 113.763 139.801 116.051 142.755C116.312 142.669 116.571 142.582 116.833 142.494C116.845 141.104 116.647 139.843 115.478 138.494ZM57.0602 83.2045C57.9941 82.3582 58.9985 81.4473 60.3794 80.1984C60.0081 79.5776 59.3417 78.468 58.6859 77.3778C55.2856 78.3196 54.3497 80.0089 55.6913 82.4822C56.6303 84.2135 57.6749 85.9148 58.9178 88.051C60.3317 85.7038 58.005 84.8404 57.0602 83.2045ZM79.6514 92.0972C77.9907 91.6996 76.9437 91.9611 76.0897 93.2383C79.3799 94.5576 82.8285 94.7613 86.1884 95.1525C87.238 95.2741 88.3365 94.4597 89.4445 94.0623C85.9621 93.3774 82.7812 92.8479 79.6514 92.0972ZM84.3765 66.0601C85.4258 65.0725 86.2863 63.9412 87.172 62.839C87.2557 62.7347 86.9278 62.3824 86.5709 61.7651C83.9061 63.7886 81.3783 65.6836 78.9053 67.6257C78.7143 67.7749 78.8957 68.2487 78.9164 68.9342C81.5115 68.4441 83.0339 67.3229 84.3765 66.0601ZM76.6132 65.9179C78.6775 65.8887 84.625 61.7583 85.9845 59.2597C83.7232 59.2739 78.5713 63.0548 76.6132 65.9179ZM87.8657 65.2994C85.4717 67.1099 83.2417 68.797 80.7602 70.6725C80.8542 70.9194 81.0718 71.4941 81.3077 72.1192C81.7357 72.1099 82.139 72.2038 82.3027 72.0818C84.1847 70.6691 86.0312 69.2232 88.1357 67.5935C88.0549 66.9058 87.9726 66.2009 87.8657 65.2994ZM117.381 118.04C115.073 120.783 115.871 124.513 119.654 127.64C118.837 124.193 118.132 121.214 117.381 118.04ZM54.7167 87.4269C54.2896 90.8654 61.3885 95.2602 67.0139 95.9901C62.2325 93.7961 57.888 91.2648 54.7167 87.4269ZM147.048 126.661C148.65 127.406 149.437 126.672 150.088 126.154C151.411 125.1 152.548 123.886 153.769 122.743C154.49 122.068 154.358 121.514 152.784 120.858C151.205 122.996 148.238 124.119 147.048 126.661ZM51.5819 51.0033C54.1027 50.7442 55.791 49.4601 57.5826 48.2898C59.3538 47.1332 61.1891 46.0411 62.9952 44.9204C62.8673 44.736 62.7394 44.5516 62.6114 44.3673C58.4219 46.0104 54.912 48.4008 51.5819 51.0033ZM148.608 117.798C148.496 117.596 148.385 117.394 148.273 117.192C147.698 117.28 146.943 117.205 146.576 117.48C144.22 119.245 141.948 121.084 139.647 122.9C144.061 122.662 146.207 120.097 148.608 117.798ZM122.98 123.5C121.895 120.891 120.929 118.571 119.866 116.015C119.247 119.05 120.489 121.974 120.615 124.862C120.834 124.936 121.052 125.011 121.273 125.086C121.928 124.477 122.584 123.868 122.98 123.5ZM126.592 145.576C126.701 146.447 127.267 147.376 128.733 147.19C129.933 147.038 130.835 146.036 130.294 145.097C129.776 144.196 128.779 143.454 127.992 142.642C127.666 142.708 127.342 142.773 127.016 142.839C126.853 143.75 126.478 144.665 126.592 145.576ZM143.045 124.023C143.92 124.696 144.448 125.101 145.74 126.093C144.881 124.433 145.104 123.787 146.393 123.472C148.81 122.881 150.015 121.167 151.096 119.329C147.758 120.098 146.587 123.091 143.045 124.023ZM149.561 128.991C151.776 129.193 152.922 128.167 153.667 127.273C154.661 126.08 156.776 125.401 156.007 123.167C153.956 125.02 151.904 126.873 149.561 128.991ZM22.0066 99.5002C19.9015 100.707 19.4195 104.303 20.993 108.458C21.3271 105.508 21.6612 102.559 22.0066 99.5002ZM151.601 131.16C154.637 131.401 158.189 128.586 157.867 126.003C155.713 127.776 153.67 129.457 151.601 131.16ZM161.463 34.0631C158.578 33.0718 158.319 35.254 156.924 35.7821C155.516 36.3164 154.357 37.2393 153.088 37.9913C156.563 37.6772 159.014 36.157 161.463 34.0631ZM137.526 120.899C140.958 120.243 143.036 118.264 145.234 116.404C144.987 116.187 144.742 115.972 144.494 115.756C142.173 117.471 139.849 119.185 137.526 120.899ZM163.842 36.1545C161.385 36.2383 158.896 37.5759 156.48 40.0847C159.303 39.3622 161.75 38.231 163.842 36.1545ZM87.4225 70.5055C85.6816 71.9061 83.5476 72.9971 82.6311 75.0229C84.9236 74.0284 87.5329 73.259 87.4225 70.5055ZM118.432 153.227C121.047 154.429 123.127 154.853 125.198 153.709C123.081 152.767 121.017 152.418 118.432 153.227ZM112.97 152.882C114.485 155.474 115.995 156.147 120.425 156.031C117.662 154.864 115.416 153.916 112.97 152.882ZM92.0105 91.3237C87.9308 91.0452 84.2403 90.7928 80.5667 90.5412C84.2471 91.7961 87.9413 92.3951 92.0105 91.3237ZM158.18 32.4369C156.311 32.1798 156.311 32.1798 152.364 35.7908C154.858 35.3532 156.538 34.0226 158.18 32.4369ZM116.25 136.587C116.236 135.01 115.183 133.341 112.06 129.98C112.725 132.363 114.126 134.44 116.25 136.587ZM19.227 80.9694C19.4363 81.012 19.6456 81.0546 19.8552 81.0958C20.3108 78.271 20.7668 75.4447 21.2224 72.6198C19.7064 75.2343 19.2508 78.0592 19.227 80.9694ZM135.678 149.059C137.674 145.984 136.661 143.034 133.188 141.583C135.372 143.877 136.22 146.182 135.678 149.059ZM154.918 137.208C156.899 136.243 158.688 135.423 159.099 132.956C154.817 135.615 154.817 135.615 154.918 137.208ZM19.8762 84.7803C19.5226 87.3931 18.2373 89.2212 19.1478 91.6062C20.237 89.539 20.5452 87.5559 19.8762 84.7803ZM128.649 154.982C130.495 154.149 132.34 153.316 134.187 152.483C133.994 152.237 133.804 151.99 133.611 151.744C132.409 153.36 128.867 152.151 128.649 154.982ZM77.3805 97.8134C75.2584 97.6813 73.1378 97.5511 70.8685 97.4097C72.2736 98.9027 73.3018 98.987 77.3805 97.8134ZM81.5228 87.8705C83.8196 88.9525 86.1742 89.5815 88.6569 89.1658C86.302 88.546 83.9508 87.8948 81.5228 87.8705ZM133.214 118.342C134.967 117.778 136.494 116.994 137.834 115.278C135.052 115.608 134.405 117.236 133.214 118.342ZM21.1975 114.623C21.4718 114.663 21.7457 114.704 22.0201 114.744C22.1346 113.196 22.2505 111.651 22.365 110.104C22.1393 110.074 21.9158 110.044 21.6901 110.014C21.5252 111.551 21.3606 113.086 21.1975 114.623ZM65.9638 46.0026C65.8121 45.8386 65.6621 45.6751 65.5104 45.5111C64.0132 46.4018 62.5174 47.2944 61.0201 48.1851C61.1837 48.3627 61.3476 48.5388 61.5095 48.716C62.9945 47.8131 64.4799 46.9088 65.9638 46.0026ZM149.77 33.8368C149.912 34.0001 150.055 34.1634 150.197 34.3252C151.461 33.9744 152.389 33.2143 153.329 32.4693C153.203 32.2993 153.076 32.1288 152.95 31.9588C151.89 32.5842 150.829 33.2096 149.77 33.8368ZM58.1193 75.097C59.157 75.6536 60.0808 76.1491 61.0027 76.6442C59.851 74.8925 59.851 74.8925 58.1193 75.097ZM82.6992 77.8338C84.7731 77.5442 84.7731 77.5442 85.4847 75.9853C84.5231 76.6237 83.7869 77.112 82.6992 77.8338ZM43.6767 47.7897C43.7833 47.9291 43.8881 48.0679 43.9946 48.2072C44.7587 47.7134 45.5207 47.2205 46.2847 46.7266C46.2507 46.6478 46.2167 46.5689 46.1809 46.4897C45.346 46.9235 44.5116 47.3559 43.6767 47.7897ZM23.5864 93.0925C23.5166 93.0757 23.4465 93.0604 23.3785 93.044C23.2047 93.7673 23.0308 94.4906 22.8566 95.2154C22.9306 95.2147 23.0042 95.2155 23.076 95.2159C23.2464 94.5071 23.4164 93.7998 23.5864 93.0925ZM78.5057 86.4309C78.6654 86.4278 78.8247 86.4262 78.9841 86.4245C78.8991 85.6836 78.8145 84.9412 78.7295 84.2002C78.5069 84.2051 78.2843 84.21 78.0617 84.2149C78.2099 84.9526 78.3578 85.6917 78.5057 86.4309ZM128.747 122.507C128.657 122.395 128.567 122.282 128.476 122.17C127.823 122.368 127.172 122.566 126.52 122.764C126.71 123.005 126.899 123.245 127.087 123.486C127.64 123.16 128.194 122.833 128.747 122.507ZM167.849 41.1535C167.739 40.9917 167.628 40.8314 167.517 40.6696C166.734 40.9899 165.95 41.3084 165.167 41.6287C165.291 41.8228 165.412 42.0165 165.536 42.2106C166.306 41.8565 167.078 41.5057 167.849 41.1535ZM97.3097 90.5603C97.2462 90.462 97.1655 90.2782 97.1194 90.281C96.9126 90.2912 96.6725 90.3134 96.5294 90.4127C96.4341 90.4788 96.4835 90.6828 96.4631 90.8699C96.7641 90.7594 97.0379 90.6593 97.3097 90.5603ZM155.838 138.837C155.909 138.961 155.979 139.086 156.05 139.21C156.486 139.08 156.922 138.948 157.359 138.818C157.268 138.652 157.179 138.486 157.089 138.32C156.673 138.492 156.256 138.665 155.838 138.837ZM81.3934 96.7162C80.7552 96.4814 80.2668 96.301 79.7798 96.1225C79.7594 96.2466 79.739 96.3708 79.719 96.4935C80.225 96.5614 80.7332 96.6282 81.3934 96.7162Z" fill="#BB9F87" fill-opacity="0.5"/>
<path d="M94.5399 99.163C92.8197 99.8081 91.2155 100.364 89.6664 100.998C83.8393 103.383 77.5935 104.211 70.8002 103.411C67.8408 103.062 64.8575 103.119 61.8845 102.969C61.2525 102.937 60.5816 102.901 59.9859 102.711C55.2179 101.185 50.5482 99.4713 46.9821 96.1346C46.0968 95.3057 45.4251 94.3208 44.6851 93.3917C44.2158 92.8011 43.8023 92.1824 42.851 91.6757C42.8914 92.1218 42.738 92.6656 43.0047 92.997C44.4983 94.8539 45.7955 96.9294 47.7184 98.4255C51.4382 101.32 55.7016 103.409 60.7753 104.159C71.6792 105.77 82.0935 105.127 92.1411 102.443C94.2773 101.87 94.2719 101.861 94.5399 99.163Z" fill="#BB9F87" fill-opacity="0.5"/>
<path d="M84.7492 107.469C78.6669 109.278 72.9983 110.996 66.6067 109.753C60.6455 108.594 54.7319 107.212 49.5593 103.725C48.8486 104.989 49.7334 105.544 50.5287 105.952C52.1551 106.784 53.7914 107.716 55.5438 108.22C60.2562 109.576 64.9561 111.077 69.9063 111.348C74.4194 111.596 78.6454 110.825 82.8076 109.846C83.8287 109.606 85.0767 109.375 84.7492 107.469Z" fill="#BB9F87" fill-opacity="0.5"/>
<path d="M151.406 139.612C151.176 140.572 150.945 141.532 150.755 142.321C150.155 141.742 149.625 141.23 149.096 140.719C149.429 143.453 149.868 146.188 150.054 148.917C150.16 150.466 150.842 152.182 149.406 153.487C150.153 153.806 150.957 154.056 151.018 153.094C151.119 151.517 151.159 149.927 151.077 148.336C151.018 147.196 150.52 146.01 151.851 145.21C152.055 145.087 152.153 144.734 152.121 144.49C151.91 142.863 151.65 141.238 151.406 139.612Z" fill="#BB9F87" fill-opacity="0.5"/>
<path d="M93.5386 138.361C94.1134 135.497 94.6545 132.624 95.274 129.771C95.7935 127.38 96.4065 125.011 96.9312 122.828C95.3753 125.215 93.6647 130.624 93.5443 133.967C93.4911 135.417 93.5806 136.879 93.6067 138.337L93.5386 138.361Z" fill="#BB9F87" fill-opacity="0.5"/>
<path d="M107.841 117.661C104.23 120.108 99.8802 130.11 100.64 134.036C101.051 127.995 104.852 123.198 107.841 117.661Z" fill="#BB9F87" fill-opacity="0.5"/>
<path d="M27.1726 76.0372C27.9432 73.1068 28.737 70.1819 29.4757 67.2423C30.2068 64.3346 30.8838 61.4155 31.5844 58.5006C31.3557 58.4441 31.1274 58.3861 30.8987 58.3296C29.4143 64.1672 27.9298 70.0048 26.4432 75.8435C26.6869 75.9082 26.9307 75.9729 27.1726 76.0372Z" fill="#BB9F87" fill-opacity="0.5"/>
<path d="M109.988 101.121C106.183 104.032 102.377 106.942 98.6409 109.802C98.8561 110.143 98.8864 110.245 98.9657 110.301C99.0367 110.352 99.1874 110.394 99.2527 110.367C99.6074 110.214 99.9983 110.084 100.281 109.861C103.726 107.142 107.152 104.409 110.584 101.679C110.383 101.492 110.186 101.307 109.988 101.121Z" fill="#BB9F87" fill-opacity="0.5"/>
<path d="M152.877 65.5144C155.449 61.8602 158.393 58.3781 158.947 53.7872C157.895 55.725 156.9 57.6906 155.775 59.5939C154.647 61.4997 153.386 63.343 152.182 65.212C152.413 65.3122 152.646 65.4143 152.877 65.5144Z" fill="#BB9F87" fill-opacity="0.5"/>
<path d="M100.562 142.841C99.9333 147.237 103.089 152.815 107.418 154.555C107.149 154.081 107.067 153.717 106.805 153.513C103.34 150.788 101.743 147.431 101.017 143.758C100.958 143.454 100.672 143.164 100.492 142.866L100.562 142.841Z" fill="#BB9F87" fill-opacity="0.5"/>
<path d="M26.0304 111.759C25.031 113.216 25.0706 113.217 25.237 114.942C25.2867 115.459 25.0567 115.976 24.9356 116.487C24.5845 117.972 24.2246 119.454 23.8681 120.937C24.0968 121.048 24.3272 121.161 24.5558 121.272C24.9003 121.028 25.522 120.819 25.5436 120.533C25.7561 117.751 25.8699 114.954 26.0304 111.759Z" fill="#BB9F87" fill-opacity="0.5"/>
<path d="M139.788 167.772C140.845 163.833 139.972 159.921 138.308 155.436C138.054 156.234 137.85 156.489 137.92 156.704C138.986 160.008 139.576 163.292 138.841 166.58C138.777 166.864 139.519 167.333 139.885 167.717C139.884 167.72 139.788 167.772 139.788 167.772Z" fill="#BB9F87" fill-opacity="0.5"/>
<path d="M149.129 157.83C149.251 156.375 149.375 154.923 149.498 153.468C149.224 152.554 148.981 151.634 148.667 150.726C148.296 149.657 147.862 148.597 147.453 147.534L147.532 147.506C147.447 147.755 147.277 148 147.294 148.251C147.483 151.002 147.77 153.758 147.869 156.504C147.899 157.349 148.361 157.606 149.129 157.83Z" fill="#BB9F87" fill-opacity="0.5"/>
<path d="M25.6321 71.55C24.9586 74.9508 23.6063 78.2069 23.1828 81.8353C25.1824 81.5554 25.2124 80.3044 25.0464 79.5148C24.5762 77.274 25.5154 75.3428 25.816 73.2734C25.8944 72.7345 25.6587 72.1402 25.5683 71.5715L25.6321 71.55Z" fill="#BB9F87" fill-opacity="0.5"/>
<path d="M70.6616 65.8899C70.0416 68.4694 69.422 71.0474 68.6788 74.1396C71.2188 72.4226 70.1329 69.8694 71.5523 68.2472C71.9649 67.7748 71.3406 66.64 71.1922 65.8085C71.0154 65.8352 70.8387 65.8618 70.6616 65.8899Z" fill="#BB9F87" fill-opacity="0.5"/>
<path d="M28.3553 122.566C28.1769 120.615 28.0007 118.664 27.8223 116.713C27.7173 116.716 27.6123 116.72 27.5069 116.726C27.1484 118.966 26.7912 121.207 26.3854 123.746C27.1807 123.264 27.8028 122.888 28.4278 122.509C28.4307 122.505 28.3553 122.566 28.3553 122.566Z" fill="#BB9F87" fill-opacity="0.5"/>
<path d="M50.2405 68.0385C52.4657 65.7097 51.9459 62.7226 52.1922 59.9181C51.5415 62.6254 50.8912 65.3312 50.2405 68.0385Z" fill="#BB9F87" fill-opacity="0.5"/>
<path d="M61.3848 69.5268C63.0716 66.9026 63.1093 63.9036 62.7555 60.8319C62.2992 63.7304 61.8429 66.6288 61.3848 69.5268Z" fill="#BB9F87" fill-opacity="0.5"/>
<path d="M50.99 153.69C51.1819 152.498 51.5589 151.315 51.5235 150.108C51.4658 148.136 51.1414 146.147 50.9289 144.164C50.6788 144.166 50.429 144.166 50.1789 144.167C50.4781 147.324 50.7773 150.481 51.0658 153.643C51.0551 153.648 50.99 153.69 50.99 153.69Z" fill="#BB9F87" fill-opacity="0.5"/>
<path d="M93.6066 138.341C92.449 140.338 93.178 142.337 94.3524 144.301C94.7464 144.961 95.3716 145.565 96.66 144.968C93.9291 143.141 94.2543 140.638 93.5367 138.364L93.6066 138.341Z" fill="#BB9F87" fill-opacity="0.5"/>
<path d="M114.637 173.294C115.952 172.593 116.041 171.505 115.808 170.265C115.561 168.955 115.428 167.639 114.688 166.318C114.703 168.633 114.718 170.948 114.725 173.266C114.715 173.268 114.637 173.294 114.637 173.294Z" fill="#BB9F87" fill-opacity="0.5"/>
<path d="M123.039 172.611C123.772 170.383 124.252 168.131 123.187 165.486C122.884 167.439 122.54 169.13 122.401 170.848C122.359 171.377 122.873 171.981 123.127 172.555C123.121 172.557 123.039 172.611 123.039 172.611Z" fill="#BB9F87" fill-opacity="0.5"/>
<path d="M88.0404 107.397C90.8742 107.575 92.6125 105.91 94.5066 104.486C92.2586 105.264 90.0085 106.043 87.7605 106.821C87.8527 107.012 87.9464 107.205 88.0404 107.397Z" fill="#BB9F87" fill-opacity="0.5"/>
<path d="M67.0273 65.5528C66.6858 67.7138 66.3457 69.8766 66.0043 72.0375C66.2457 72.0725 66.4868 72.1089 66.7296 72.1458C67.5017 70.0515 68.0542 67.9259 66.9584 65.5793L67.0273 65.5528Z" fill="#BB9F87" fill-opacity="0.5"/>
<path d="M145.188 51.467C144.179 53.3478 143.171 55.2301 142.162 57.1109C142.346 57.1951 142.53 57.2793 142.712 57.3645C143.789 55.537 144.865 53.7092 145.942 51.8817C145.691 51.7446 145.438 51.6056 145.188 51.467Z" fill="#BB9F87" fill-opacity="0.5"/>
<path d="M55.3958 60.9707C54.8165 63.0345 54.1473 65.0782 53.845 67.2025C54.9858 65.2828 55.8218 63.293 55.3159 61.0037L55.3958 60.9707Z" fill="#BB9F87" fill-opacity="0.5"/>
<path d="M48.3397 62.3148C47.7283 64.1497 47.117 65.9846 46.5056 67.8195C48.5689 66.4319 47.891 64.2364 48.3397 62.3148Z" fill="#BB9F87" fill-opacity="0.5"/>
<path d="M100.488 142.866C100.534 140.832 100.58 138.798 100.626 136.766C99.5159 138.738 99.7373 140.777 100.56 142.843L100.488 142.866Z" fill="#BB9F87" fill-opacity="0.5"/>
<path d="M122.485 90.2968C120.89 91.8692 119.61 93.1331 118.069 94.6525C120.581 93.594 121.534 92.663 122.485 90.2968Z" fill="#BB9F87" fill-opacity="0.5"/>
<path d="M111.853 157.377C111.758 159.637 112.73 160.665 114.863 161.625C113.809 160.136 113.017 159.021 111.853 157.377Z" fill="#BB9F87" fill-opacity="0.5"/>
<path d="M115.05 106.043C117.405 105.944 118.306 104.521 119.106 103.009C117.754 104.021 116.402 105.033 115.05 106.043Z" fill="#BB9F87" fill-opacity="0.5"/>
<path d="M128.893 84.2868C127.377 85.5632 125.863 86.84 124.347 88.1164C124.578 88.2887 124.811 88.4614 125.042 88.6337C126.47 87.281 128.251 86.1789 128.842 84.2238L128.893 84.2868Z" fill="#BB9F87" fill-opacity="0.5"/>
<path d="M96.4443 169.546C98.5361 168.441 98.0808 166.8 97.2482 165.114C97.2201 165.893 97.2768 166.688 97.1421 167.446C97.0125 168.166 96.6844 168.846 96.4443 169.546Z" fill="#BB9F87" fill-opacity="0.5"/>
<path d="M46.1056 54.6884C45.6801 56.4589 45.2545 58.2294 44.829 59.9999C44.9771 60.037 45.1253 60.0742 45.2734 60.1113C45.6986 58.3423 46.1242 56.5718 46.5494 54.8027C46.4016 54.7641 46.2534 54.727 46.1056 54.6884Z" fill="#BB9F87" fill-opacity="0.5"/>
<path d="M33.7386 65.1374C33.4255 66.4402 33.112 67.7445 32.661 69.621C34.3018 68.1411 34.0356 66.6422 34.444 65.3684C34.2091 65.2905 33.9756 65.2144 33.7386 65.1374Z" fill="#BB9F87" fill-opacity="0.5"/>
<path d="M92.3618 169.134C92.475 167.86 92.5882 166.586 92.7032 165.312C92.5015 165.285 92.3015 165.259 92.0998 165.232C91.9185 166.529 91.7358 167.825 91.5545 169.123C91.8222 169.127 92.092 169.13 92.3618 169.134Z" fill="#BB9F87" fill-opacity="0.5"/>
<path d="M25.5696 71.5726C25.9731 69.8936 26.377 68.2132 26.7805 66.5342C25.9508 68.1123 24.9733 69.6671 25.6337 71.5496L25.5696 71.5726Z" fill="#BB9F87" fill-opacity="0.5"/>
<path d="M142.409 78.6904C144.118 77.2792 144.118 77.2792 144.446 75.1965C143.789 76.3875 143.132 77.577 142.475 78.7664L142.409 78.6904Z" fill="#BB9F87" fill-opacity="0.5"/>
<path d="M34.5181 63.0875C34.7361 61.8417 34.9559 60.5964 35.174 59.3506C35.0688 59.3238 34.965 59.2988 34.8616 59.2724C34.5655 60.5041 34.2695 61.7357 33.9735 62.9673C34.1549 63.0079 34.3367 63.047 34.5181 63.0875Z" fill="#BB9F87" fill-opacity="0.5"/>
<path d="M82.7886 164.214C82.546 165.223 82.3034 166.233 82.0608 167.242C82.2758 167.285 82.493 167.326 82.7098 167.369C82.8643 166.387 83.0166 165.407 83.1694 164.425C83.0425 164.355 82.9155 164.284 82.7886 164.214Z" fill="#BB9F87" fill-opacity="0.5"/>
<path d="M67.8806 163.056C68.019 161.881 68.1588 160.709 68.2986 159.537C67.424 160.625 67.2634 161.797 67.9505 163.033L67.8806 163.056Z" fill="#BB9F87" fill-opacity="0.5"/>
<path d="M114.712 97.8249C113.623 98.4973 112.534 99.1696 111.446 99.8405C111.639 100.03 111.83 100.219 112.023 100.408C113.135 99.7671 114.319 99.196 114.836 97.9729L114.712 97.8249Z" fill="#BB9F87" fill-opacity="0.5"/>
<path d="M142.478 78.7642C140.51 78.809 140.972 80.5638 139.584 81.0168C139.827 81.1781 140.073 81.3385 140.316 81.4999C141.013 80.5613 141.711 79.6245 142.409 78.6877L142.478 78.7642Z" fill="#BB9F87" fill-opacity="0.5"/>
<path d="M133.273 79.763C134.88 79.3318 135.109 77.9996 136.141 77.1937C135.902 77.0471 135.663 76.9005 135.421 76.755C134.724 77.7763 134.025 78.7992 133.328 79.8206L133.273 79.763Z" fill="#BB9F87" fill-opacity="0.5"/>
<path d="M151.173 54.2832C150.678 55.1753 150.183 56.0654 149.688 56.9575C149.85 57.0317 150.012 57.106 150.174 57.1788C150.689 56.2963 151.202 55.4148 151.717 54.5322C151.536 54.4489 151.356 54.3656 151.173 54.2832Z" fill="#BB9F87" fill-opacity="0.5"/>
<path d="M140.294 49.3267C140.622 49.2242 141.154 49.1985 141.24 49.0056C141.662 48.0671 141.965 47.0829 141.858 45.9218C141.35 47.0748 140.84 48.2274 140.332 49.3819L140.294 49.3267Z" fill="#BB9F87" fill-opacity="0.5"/>
<path d="M58.4975 65.5946C58.2253 66.2389 57.9531 66.8833 57.6809 67.5277C57.9152 67.6239 58.1494 67.7202 58.3837 67.8164C58.7456 67.169 59.1075 66.5216 59.4693 65.8742C59.1433 65.782 58.8197 65.6874 58.4975 65.5946Z" fill="#BB9F87" fill-opacity="0.5"/>
<path d="M129.853 93.368C130.429 92.8136 131.006 92.2592 131.582 91.7048C131.438 91.5873 131.294 91.4682 131.15 91.3507C130.567 91.8697 129.985 92.3873 129.402 92.9063C129.554 93.0611 129.703 93.2136 129.853 93.368Z" fill="#BB9F87" fill-opacity="0.5"/>
<path d="M116.838 88.9827C117.491 88.304 118.143 87.6234 118.797 86.9446C118.646 86.8378 118.494 86.7306 118.344 86.6238C117.676 87.2467 117.007 87.871 116.339 88.4939C116.504 88.6566 116.671 88.8196 116.838 88.9827Z" fill="#BB9F87" fill-opacity="0.5"/>
<path d="M121.481 84.3868C122.115 83.6913 122.748 82.9969 123.382 82.3013C123.212 82.185 123.039 82.0683 122.867 81.9515C122.228 82.6077 121.59 83.2625 120.952 83.9186C121.128 84.0733 121.305 84.2293 121.481 84.3868Z" fill="#BB9F87" fill-opacity="0.5"/>
<path d="M101.16 95.1356C102.504 94.9978 103.087 94.2206 103.711 93.4812C103.513 93.3291 103.317 93.176 103.119 93.0239C102.484 93.7502 101.85 94.4765 101.215 95.2027L101.16 95.1356Z" fill="#BB9F87" fill-opacity="0.5"/>
<path d="M114.835 97.973C115.683 97.3579 116.533 96.7433 117.382 96.1287C117.177 95.9672 116.972 95.8043 116.765 95.6424C116.081 96.3705 115.395 97.0968 114.711 97.825L114.835 97.973Z" fill="#BB9F87" fill-opacity="0.5"/>
<path d="M125.993 96.6932C125.56 97.259 125.125 97.8243 124.691 98.3915C124.833 98.4884 124.976 98.5873 125.117 98.6843C125.439 98.3837 125.813 98.111 126.065 97.7707C126.253 97.5163 126.284 97.1749 126.383 96.8716C126.254 96.8128 126.122 96.7535 125.993 96.6932Z" fill="#BB9F87" fill-opacity="0.5"/>
<path d="M131.45 82.1647C129.86 82.2589 129.416 83.3029 128.896 84.2856L128.845 84.2226C129.695 83.5176 130.546 82.8126 131.397 82.1076L131.45 82.1647Z" fill="#BB9F87" fill-opacity="0.5"/>
<path d="M59.1381 61.6146C59.0223 62.4271 58.9069 63.2381 58.7929 64.0511C58.9066 64.0738 59.0225 64.0956 59.1363 64.1183C59.3335 63.2977 59.5308 62.4771 59.728 61.6565C59.5307 61.6428 59.3333 61.6292 59.1381 61.6146Z" fill="#BB9F87" fill-opacity="0.5"/>
<path d="M66.9565 65.5756C67.2494 64.735 67.632 63.899 66.3763 63.0134C66.5933 63.8583 66.8101 64.7047 67.0254 65.5492L66.9565 65.5756Z" fill="#BB9F87" fill-opacity="0.5"/>
<path d="M142.52 67.4897C142.078 68.0042 141.638 68.5192 141.161 69.0741C141.457 69.1869 141.721 69.3194 141.746 69.2932C142.199 68.7999 142.623 68.2888 143.054 67.7809C142.874 67.684 142.697 67.5861 142.52 67.4897Z" fill="#BB9F87" fill-opacity="0.5"/>
<path d="M149.808 69.6234C150.29 68.8741 150.769 68.1243 151.25 67.375C151.052 67.2782 150.852 67.181 150.653 67.0842C150.16 67.8151 149.666 68.5461 149.171 69.2766C149.385 69.3912 149.598 69.5082 149.808 69.6234Z" fill="#BB9F87" fill-opacity="0.5"/>
<path d="M101.215 95.2013C100.415 95.5299 99.6128 95.8579 98.8131 96.185C100.28 96.5882 100.978 96.1308 101.159 95.1342L101.215 95.2013Z" fill="#BB9F87" fill-opacity="0.5"/>
<path d="M147.453 147.533C147.455 146.685 147.454 145.838 147.455 144.991C146.578 145.834 146.555 146.681 147.53 147.505L147.453 147.533Z" fill="#BB9F87" fill-opacity="0.5"/>
<path d="M134.293 88.0038C133.852 88.4923 133.41 88.979 132.948 89.4903C133.227 89.6064 133.462 89.7291 133.48 89.7103C133.907 89.2322 134.31 88.739 134.717 88.2486C134.578 88.1674 134.436 88.0858 134.293 88.0038Z" fill="#BB9F87" fill-opacity="0.5"/>
<path d="M44.1981 66.5626C44.3528 65.9191 44.5074 65.2758 44.662 64.6323C44.5375 64.607 44.4148 64.5821 44.2903 64.5568C44.184 65.2119 44.0794 65.8673 43.9734 66.5209C44.0478 66.5342 44.1241 66.5478 44.1981 66.5626Z" fill="#BB9F87" fill-opacity="0.5"/>
<path d="M131.397 82.1073C132.022 81.325 132.647 80.5442 133.272 79.7619L133.327 79.818C132.7 80.5999 132.075 81.3822 131.45 82.1644L131.397 82.1073Z" fill="#BB9F87" fill-opacity="0.5"/>
<path d="M35.1861 55.2342C35.0482 55.8079 34.9103 56.3816 34.7724 56.9553C34.8809 56.9844 34.9893 57.0135 35.0974 57.0441C35.281 56.4614 35.4664 55.8792 35.6499 55.2965C35.494 55.2759 35.3399 55.2558 35.1861 55.2342Z" fill="#BB9F87" fill-opacity="0.5"/>
<path d="M140.158 150.159C140.237 150.73 140.318 151.299 140.396 151.869C140.519 151.893 140.642 151.916 140.766 151.938C140.834 151.655 140.992 151.367 140.947 151.088C140.895 150.765 140.662 150.449 140.506 150.131C140.388 150.139 140.272 150.148 140.158 150.159Z" fill="#BB9F87" fill-opacity="0.5"/>
<path d="M26.189 104.325C26.1564 103.555 26.1241 102.784 26.0915 102.014C26.1044 102.771 24.6737 103.488 26.237 104.29L26.189 104.325Z" fill="#BB9F87" fill-opacity="0.5"/>
<path d="M45.7969 140.164C45.6796 139.455 45.5637 138.748 45.4464 138.039C45.2606 138.04 45.073 138.041 44.8872 138.043C44.9627 138.752 45.0364 139.461 45.1119 140.171C45.3395 140.169 45.5675 140.165 45.7969 140.164Z" fill="#BB9F87" fill-opacity="0.5"/>
<path d="M87.5508 168.498C87.7236 167.779 87.8964 167.06 88.0688 166.343C87.9375 166.307 87.8061 166.27 87.6748 166.234C87.4422 166.942 87.2097 167.649 86.9771 168.357C87.1682 168.405 87.3597 168.451 87.5508 168.498Z" fill="#BB9F87" fill-opacity="0.5"/>
<path d="M26.2391 104.293C25.9315 105.187 25.6257 106.082 25.3181 106.976C25.5099 107.02 25.6999 107.064 25.8917 107.109C25.9826 106.187 26.0731 105.267 26.1775 104.337C26.191 104.328 26.2391 104.293 26.2391 104.293Z" fill="#BB9F87" fill-opacity="0.5"/>
<path d="M140.331 49.3838C140.019 50.2476 139.709 51.1118 139.398 51.9756C139.574 52.0148 139.748 52.0536 139.924 52.0914C140.053 51.1775 140.18 50.2646 140.3 49.3409C140.293 49.3286 140.331 49.3838 140.331 49.3838Z" fill="#BB9F87" fill-opacity="0.5"/>
<path d="M139.416 131.563C138.843 132.427 138.779 133.266 140.098 134.033C139.84 133.229 139.585 132.424 139.339 131.614C139.35 131.607 139.416 131.563 139.416 131.563Z" fill="#BB9F87" fill-opacity="0.5"/>
<path d="M127.397 129.996C127.417 130.842 127.438 131.685 127.458 132.531C128.418 131.686 127.899 130.854 127.324 130.023L127.397 129.996Z" fill="#BB9F87" fill-opacity="0.5"/>
</svg>
