<svg width="159" height="484" viewBox="0 0 159 484" fill="none" xmlns="http://www.w3.org/2000/svg">
<path d="M-79.1283 121.303C-50.1387 114.659 -26.8105 112.485 -3.44309 114.318C7.45193 115.174 18.3993 115.73 28.6672 118.934C36.1583 121.272 43.981 123.505 50.4299 127.6C61.1497 134.411 70.8018 142.787 81.0573 150.303C90.6995 157.368 97.5933 166.815 103.747 176.942C105.303 179.504 106.713 182.185 107.954 184.937C111.263 192.28 114.429 199.698 117.68 207.074C122.264 217.481 124.593 228.657 126.241 240.102C127.27 247.251 128.814 254.273 129.95 261.397C131.683 272.253 131.067 283.258 128.795 294.38C127.652 299.975 127.469 305.763 125.724 311.193C123.437 318.309 120.391 325.314 117.025 332.084C112.496 341.19 107.417 350.062 102.427 358.96C100.842 361.783 98.9729 364.516 96.9138 367.035C91.2885 373.913 86.2803 381.132 82.3628 389.066C81.6287 390.555 80.4362 391.99 79.1557 393.076C66.6609 403.67 53.7506 413.505 38.7645 420.053C30.9127 423.485 23.3935 427.856 15.6788 431.692C2.36143 438.31 -11.713 441.279 -25.8459 443.381C-34.5158 444.67 -43.2756 445.284 -51.9367 445.44C-61.4315 445.612 -70.8879 445.08 -80.314 444.544C-93.9195 443.769 -105.625 437.842 -117.897 433.371C-133.252 427.774 -145.726 417.839 -158.938 409.002C-160.871 407.709 -162.241 405.579 -163.744 403.731C-167.754 398.795 -171.614 393.8 -176.965 390.104C-179.668 388.238 -181.411 385.059 -183.643 382.526C-189.445 375.941 -192.44 367.654 -195.002 359.34C-199.359 345.205 -203.281 330.872 -206.634 316.377C-208.228 309.489 -208.711 302.091 -208.603 294.839C-208.361 278.481 -204.19 262.248 -201.251 246.01C-200.096 239.631 -197.181 233.389 -194.866 227.145C-193.295 222.908 -191.609 218.67 -189.549 214.62C-186.818 209.245 -183.973 203.865 -180.635 198.823C-175.338 190.821 -169.009 183.404 -164.221 175.16C-160.511 168.769 -155.809 164.009 -150.088 159.646C-142.349 153.742 -135.083 147.204 -126.439 142.623C-119.793 139.1 -113.529 134.681 -106.801 131.393C-96.1259 126.175 -85.0172 122.328 -79.1283 121.303ZM68.6145 387.339L68.8044 387.057C62.0856 393.563 54.0398 398.726 48.7512 406.404C46.5683 407.309 44.2282 408.012 42.1227 409.198C33.2939 414.17 24.5553 419.324 15.7436 424.329C13.0831 425.84 9.74603 425.716 7.16784 427.976C9.89485 431.022 12.5994 429.731 15.3968 428.352C24.0654 424.077 32.8463 420.064 41.4231 415.582C54.4832 408.759 67.0164 400.935 76.7336 389.32C80.558 384.749 83.362 379.337 86.9304 373.847C86.4968 372.868 85.7155 371.486 85.2991 369.969C85.1495 369.425 85.8798 368.559 86.2092 367.839C86.8843 368.276 87.6776 368.607 88.1979 369.19C88.5659 369.601 88.5619 370.358 88.9356 371.753C92.1699 367.556 95.032 364.242 97.4423 360.646C106.824 346.645 114.669 331.907 120.539 316.295C121.916 312.635 124.735 308.929 122.059 305.002C121.841 304.684 122.119 303.772 122.435 303.317C126.072 298.092 126.266 292.107 127.036 286.443C127.826 280.634 127.159 274.773 127.358 268.923C127.645 260.357 125.139 252.806 121.792 246.089C122.204 243.64 122.978 241.576 122.798 239.696C121.764 228.967 118.977 218.772 115.157 209.008C112.07 201.121 108.636 193.371 104.86 185.848C99.0835 174.338 92.4688 163.535 82.7206 154.895C74.1892 147.335 64.9132 140.896 55.4335 134.667C50.3039 131.296 45.2286 127.683 39.6036 125.226C27.1716 119.798 13.7048 117.513 -0.235209 117.08C-4.04027 116.962 -7.87491 115.528 -11.2256 118.746C-18.3912 114.521 -43.9114 116.144 -50.8141 120.505C-54.3519 120.099 -57.1314 119.095 -59.7567 119.612C-66.967 121.027 -74.112 123.083 -81.2857 124.881C-81.7482 126.214 -82.2127 127.551 -82.6803 128.897C-85.6708 129.14 -86.7486 125.498 -90.1917 127.107C-100.506 131.925 -111.066 136.11 -120.745 142.452C-123.409 144.198 -126.469 145.396 -128.871 147.437C-132.711 150.703 -138.368 152.073 -139.362 156.559C-142.751 158.661 -145.624 159.711 -147.466 161.715C-154.096 168.931 -160.623 176.28 -166.714 183.947C-171.323 189.747 -174.901 196.348 -179.549 202.113C-181.852 204.972 -181.847 207.264 -180.483 210.386C-184.527 210.605 -186.112 212.732 -187.224 215.896C-188.573 219.737 -190.675 223.364 -192.184 227.17C-195.438 235.388 -198.733 243.578 -199.646 252.35C-200.144 257.131 -201.264 261.926 -202.371 266.672C-205.095 278.348 -205.563 290.006 -205.786 301.689C-205.915 308.373 -203.095 314.164 -202.081 320.526C-200.6 329.811 -198.103 338.901 -195.204 347.726C-194.085 351.135 -194.601 356.427 -188.377 356.737C-189.889 358.471 -190.824 359.541 -192.02 360.911C-189.051 366.906 -186.089 373.057 -182.968 379.113C-181.557 381.852 -179.687 384.188 -175.528 382.915C-175.913 386.79 -174.577 389.199 -171.828 390.877C-170.675 391.582 -169.793 392.782 -168.981 393.908C-159.193 407.478 -145.56 416.395 -131.284 424.526C-129.309 425.65 -127.354 427.524 -124.707 424.728C-124.404 424.409 -121.871 425.623 -121.893 425.68C-123.445 429.87 -119.974 429.954 -117.829 430.867C-112.885 432.97 -107.841 434.867 -103.848 436.448C-101.391 435.39 -99.841 434.723 -98.2906 434.057C-97.8604 435.481 -97.4299 436.906 -96.8243 438.903C-83.6642 443.826 -68.5446 443.013 -53.7603 443.168C-43.3123 443.276 -32.6532 441.535 -22.0981 440.248C-18.2388 439.778 -13.846 439.118 -10.7394 436.92C-8.12497 435.072 -6.55206 434.233 -3.63683 434.971C1.18716 436.192 3.04841 434.492 3.89628 428.704C0.14006 429.648 -3.58105 430.348 -7.18985 431.537C-16.2878 434.529 -26.0909 434.156 -34.6251 439.826C-34.7494 439.909 -35.0128 439.755 -35.366 439.677C-35.505 438.795 -35.6546 437.845 -35.915 436.191C-42.3442 436.627 -48.9489 437.076 -55.5513 437.525L-55.3049 437.676C-61.7236 436.84 -68.1426 436.002 -74.7285 435.143C-74.8825 436.375 -75.0247 437.502 -75.2194 439.047C-76.8657 438.999 -78.3386 438.954 -80.2442 438.898C-79.4014 437.077 -78.8608 435.909 -78.1648 434.404C-81.9229 433.922 -85.1797 433.631 -88.3641 433.064C-92.5281 432.32 -96.8797 431.889 -100.718 430.389C-111.541 426.154 -121.829 420.991 -131.493 414.567C-137.677 410.457 -142.717 403.772 -151.716 405.259C-151.713 400.762 -151.83 400.878 -155.956 396.783C-161.699 391.081 -168.154 385.88 -171.397 378.115C-172.792 374.775 -174.772 373.012 -178.269 372.927C-177.381 367.677 -183.487 347.967 -188.446 339.519L-188.362 339.615C-190.354 328.906 -192.938 318.316 -194.129 307.443C-194.902 300.383 -193.915 292.908 -193.225 285.62C-192.63 279.356 -190.844 273.076 -190.447 266.828C-189.263 248.137 -185.162 230.132 -175.151 213.256C-173.314 210.158 -171.673 206.952 -170.13 204.137C-171.441 202.846 -172.307 201.994 -173.983 200.341C-171.204 200.26 -169.646 200.216 -168.302 200.176C-165.804 195.955 -163.465 191.785 -160.901 187.749C-159.18 185.042 -157.018 182.544 -159.13 179.191C-156.645 178.566 -154.384 178.62 -152.936 177.517C-148.619 174.239 -144.62 170.504 -140.496 166.951C-129.627 157.596 -119.126 147.696 -105.962 141.758C-104.251 140.986 -102.643 139.934 -100.775 138.893C-101.926 137.883 -102.8 137.115 -103.712 136.314C-100.269 133.085 -98.6716 136.023 -97.0186 137.287C-91.4236 135.208 -86.2682 133.165 -81.0477 131.37C-57.5152 123.289 -33.7817 121.433 -9.98147 122.601C-4.06301 122.892 1.90632 123.1 7.68026 124.037C11.6121 124.674 15.2555 126.247 18.7317 123.059C20.3007 124.797 21.2551 126.752 22.8403 127.435C27.4288 129.416 32.2438 130.955 37.0193 132.544C46.4956 135.698 54.9932 140.337 62.1156 147.235C64.158 149.213 65.488 152.245 69.2473 152.102C69.9935 152.074 71.0006 153.583 71.2896 154.606C73.0291 160.795 77.6177 164.309 82.1991 167.929C85.0762 164.816 85.0762 164.816 87.2733 166.964C86.0039 167.745 84.8188 168.474 84.0009 168.98C88.9053 176.379 93.735 183.666 98.5561 190.943C100.309 190.388 102.27 189.025 102.962 192.184C101.998 192.827 100.997 193.494 99.5009 194.492C100.333 196.663 101.156 198.896 102.045 201.096C102.798 202.961 103.872 204.701 104.38 206.645C106.797 215.905 108.93 225.268 111.45 234.49C112.736 239.198 114.618 243.689 116.394 248.745C112.969 249.432 113.322 252.435 113.089 255.486C112.386 264.675 111.506 273.868 110.531 283.057C109.618 291.653 108.333 300.246 107.567 308.84C107.365 311.105 109.248 313.47 108.777 315.601C108.265 317.902 105.847 319.872 104.736 322.183C102.044 327.782 99.8404 333.59 97.0234 339.13C95.2965 342.524 94.0917 345.806 94.3861 349.449L94.4966 349.309C90.0895 356.841 85.8276 364.393 80.0173 371.135C75.7222 376.115 72.3792 381.909 68.6145 387.339ZM-68.3777 130.851C-85.7026 135.69 -102.615 141.764 -117.581 152.634C-128.276 160.402 -138.151 169.407 -148.345 177.921C-155.42 183.832 -159.735 191.606 -163.598 199.69C-165.181 203.004 -166.865 206.31 -168.829 209.43C-178.552 224.877 -184.36 241.515 -185.966 258.936C-186.877 268.833 -188.351 278.621 -190.02 288.441C-190.267 289.896 -190.39 291.37 -190.463 292.829C-191.198 307.621 -189.206 321.849 -185.195 335.588C-183.721 340.633 -181.017 345.236 -179.784 350.344C-177.117 361.399 -171.272 370.669 -165.596 379.896C-160.586 388.043 -153.891 394.962 -145.753 400.28C-138.917 404.747 -132.614 410.048 -125.506 414.046C-116.643 419.031 -107.687 424.451 -97.8731 427.145C-85.8715 430.441 -73.0128 431.482 -60.3857 432.765C-53.0939 433.506 -45.5287 432.855 -38.0801 432.743C-25.7676 432.555 -13.6283 430.335 -1.68517 425.997C-0.68856 425.634 0.340147 425.385 1.3445 425.041C7.53092 422.928 14.065 421.58 19.8131 418.503C28.4984 413.853 36.8792 408.367 44.9438 402.557C56.6853 394.097 66.0673 383.239 74.0376 371.132C79.8674 362.273 82.8295 352.076 89.138 343.401C92.1783 339.219 94.1262 334.28 96.5913 329.694C100.338 322.722 103.065 315.554 103.259 307.769C103.332 304.85 103.846 301.899 104.177 298.963C105.832 284.317 107.394 269.668 109.181 255.028C110.715 242.467 106.467 231.316 103.936 219.8C102.416 212.885 99.2464 206.499 97.0489 199.778C93.1942 187.991 86.7115 178.042 78.3574 169.338C75.0604 165.904 71.9248 162.308 68.5608 158.946C61.794 152.186 55.8295 144.956 45.9717 141.424C29.0697 135.37 12.2045 129.338 -5.94735 127.257C-17.6844 125.911 -29.7529 125.649 -41.7336 126.229C-50.5699 126.657 -59.4943 129.233 -68.3777 130.851Z" fill="#FEC94E" fill-opacity="0.44"/>
<path d="M85.6051 255.936C82.0306 260.45 82.9954 263.983 85.073 267.381C85.3778 267.878 85.7539 268.44 85.7634 269.009C85.877 275.607 86.0072 282.205 85.9514 288.819C85.9284 291.441 85.4569 294.102 85.1944 296.744C85.1539 297.16 85.251 297.612 85.1004 297.988C82.7687 303.865 80.407 309.731 78.2695 315.06C75.4505 315.768 73.6362 316.224 71.5317 316.752C71.048 319.127 76.1897 320.232 73.1445 322.661C71.337 324.101 68.2538 323.835 65.3574 324.411C65.8885 325.656 67.0209 327.306 67.2582 329.155C67.4798 330.875 66.7451 332.809 66.3963 334.859C59.9841 339.199 54.0893 337.49 48.6186 334.433C44.314 332.028 40.5448 328.756 36.3393 326.172C32.1417 323.593 27.8545 321.074 23.3258 319.087C12.9162 314.521 4.59018 307.454 -2.94231 299.215C-6.51768 295.304 -10.7475 292.012 -14.5904 288.348C-16.0001 287.003 -17.1597 285.391 -18.342 284.008C-17.9008 280.495 -15.8263 278.385 -12.9758 276.995C-10.4777 275.778 -7.94906 274.485 -5.3362 273.726C7.04139 270.138 19.3794 266.104 31.8759 263.419C44.1195 260.79 56.5369 259.593 68.8796 257.772C72.7988 257.194 76.7185 256.604 80.6403 256.102C81.9837 255.935 83.3409 256.005 85.6051 255.936ZM46.3147 311.548C50.7943 317.157 60.7339 320.865 68.88 319.193C65.8039 317.313 63.7399 315.482 61.2644 314.659C56.5467 313.088 51.5942 312.092 46.7407 310.856C45.2986 310.098 43.8562 309.338 42.4141 308.58C42.2133 308.966 42.0102 309.353 41.8095 309.74C43.312 310.342 44.8122 310.946 46.3147 311.548ZM-14.4028 281.642C-5.24871 281.026 2.3211 283.46 10.5801 281.144C26.1789 276.767 29.5717 275.691 33.2235 271.473C28.4888 271.948 23.9871 272.315 19.4913 272.87C11.7187 273.83 3.92458 273.442 -3.83407 275.971C-7.26268 277.089 -10.5009 278.203 -14.4028 281.642ZM64.9502 268.364C64.7003 268.14 64.4761 267.735 64.1957 267.721C51.2586 267.043 39.6605 272.51 28.2796 278.921C28.154 278.992 28.1504 279.312 28.0906 279.516C38.8365 282.432 53.418 277.555 64.9502 268.364ZM31.1323 296.777C18.7271 291.786 6.30963 287.225 -7.62285 287.471C3.53625 296.118 16.826 298.211 31.1323 296.777ZM59.6477 284.619C59.0432 283.94 58.8139 283.412 58.5405 283.413C50.5314 283.471 42.4817 282.823 34.5189 283.952C29.3325 284.688 24.8308 283.38 20.2672 282.622C16.9771 282.076 14.789 282.478 11.6039 284.183C26.3593 289.382 45.3608 289.511 59.6477 284.619ZM1.68871 297.021C1.20038 297.617 0.713984 298.21 0.225655 298.807C11.9404 310.56 25.1854 319.906 43.2073 323.407C39.5945 318.66 39.5389 318.786 34.9025 317.043C28.3866 314.594 21.6716 312.587 16.2709 307.939C11.678 303.99 6.56851 300.637 1.68871 297.021ZM80.217 289.205C74.863 282.042 68.6487 282.478 55.624 290.935C64.1633 295.107 74.9244 294.351 80.217 289.205ZM12.042 299.659C20.3065 309.147 30.8346 313.597 43.3658 316.232C38.2599 309.058 22.3762 300.755 12.042 299.659ZM52.0655 279.624C61.2072 280.14 70.2849 281.85 79.3811 275.707C75.1174 270.585 69.2308 272.143 64.3219 273.172C60.0908 274.06 56.1392 277.378 52.0655 279.624ZM38.7119 301.801C45.0558 308.528 61.1305 313.272 68.4823 310.749C59.6219 304.315 49.441 302.576 38.7119 301.801ZM43.9173 265.265C43.967 265.819 44.0166 266.374 44.066 266.926C52.8392 265.927 61.61 264.943 70.382 263.907C71.3841 263.788 72.487 263.591 73.3471 263.064C74.1988 262.545 74.8031 261.562 76.0118 260.242C64.5494 260.453 54.1148 261.517 43.9173 265.265ZM76.7632 301.857C68.1924 296.797 58.6739 295.102 48.3618 296.389C57.476 299.422 66.7745 301.77 76.7632 301.857ZM62.031 328.405C59.4024 322.544 52.3533 319.015 46.8923 320.745C51.0662 324.714 55.2782 328.087 62.031 328.405ZM65.4836 304.005C65.3279 304.304 65.1695 304.6 65.0137 304.898C68.5764 307.158 72.139 309.418 76.4878 312.178C77.125 309.281 77.5005 307.565 77.9832 305.363C73.4301 304.866 69.4557 304.436 65.4836 304.005ZM57.2507 333.63C54.4215 331.027 51.3356 328.995 46.1801 329.074C49.6466 332.758 53.1806 333.789 57.2507 333.63ZM81.0925 298.945C82.1006 293.435 81.9989 293.389 74.1807 295.914C76.8956 297.104 78.912 297.99 81.0925 298.945ZM30.1066 291.945C35.1247 294.031 36.4707 293.985 41.6641 291.395C37.7919 291.329 34.4464 291.269 31.0953 291.233C30.9441 291.231 30.7698 291.457 30.1066 291.945ZM22.6665 269.098C31.2065 269.327 31.2064 269.327 33.5385 266.368C29.8283 267.3 26.2474 268.199 22.6665 269.098Z" fill="#FEC94E" fill-opacity="0.44"/>
<path d="M-39.6911 191.2C-46.3254 181.338 -47.8911 169.467 -44.6963 156.359C-35.2216 155.182 -26.2732 153.65 -17.3619 153.11C-11.159 152.734 -4.99507 153.686 1.17204 154.143C1.91884 154.199 3.08582 154.723 3.17538 155.261C3.84209 159.272 7.61371 158.716 10.1247 160.083C13.9554 162.171 19.0065 163.789 20.8598 167.238C23.5015 172.157 24.6265 178.285 21.3268 184.707C16.4266 194.242 9.21487 201.919 1.81621 209.425C-2.06661 213.362 -4.95494 217.518 -5.45805 222.834C-5.98295 228.375 -8.53838 233.322 -11.6596 237.727C-16.5909 244.69 -22.3616 251.087 -27.6951 257.787C-29.3971 259.926 -31.2816 260.802 -33.9697 260.279C-33.6895 257.515 -32.8293 254.749 -33.3321 252.396C-33.8665 249.888 -35.89 247.872 -36.9101 245.464C-39.3563 239.696 -41.4354 233.923 -41.6016 227.181C-41.8381 217.558 -43.0252 208.04 -41.6387 198.274C-41.3671 196.334 -40.595 194.416 -39.6911 191.2ZM-20.7217 187.58C-24.596 193.174 -23.1983 197.293 -21.7002 201.307C-19.3199 207.687 -18.7526 214.049 -22.3813 220.822C-23.0861 222.137 -23.1848 224.159 -22.744 225.515C-21.4093 229.598 -21.9041 233.741 -22.7191 237.973C-23.3966 241.489 -24.0202 245.012 -24.6663 248.529C-16.4471 238.702 -13.7413 227.58 -13.0764 216.011C-12.9747 214.25 -13.7449 212.276 -14.7158 210.846C-19.1407 204.313 -20.5878 196.749 -20.7217 187.58ZM-29.0449 220.775C-23.4478 216.774 -22.646 212.457 -23.6859 207.035C-26.4742 192.517 -34.9368 181.331 -42.5445 168.055C-42.4361 175.701 -41.5465 181.685 -38.3737 186.913C-32.324 196.884 -28.9383 207.833 -29.0449 220.775ZM-31.5023 248.056C-30.9733 247.897 -30.4446 247.736 -29.9179 247.578C-29.8705 246.834 -29.6373 246.027 -29.803 245.356C-31.3674 239.031 -33.3224 232.818 -34.4878 226.388C-35.1372 222.804 -38.051 218.718 -33 215.085C-32.5152 214.737 -32.6967 213.043 -32.8891 212.066C-33.683 208.02 -34.5206 203.985 -35.5279 200.009C-35.769 199.056 -36.7279 198.352 -37.3584 197.536C-37.7736 197.72 -38.1887 197.904 -38.6038 198.089C-39.784 215.562 -40.5833 232.951 -31.5023 248.056ZM18.2736 174.654C17.0598 176.042 16.147 176.932 15.4137 177.945C12.6576 181.758 10.4731 185.803 6.81042 189.168C1.57739 193.977 -0.913563 200.378 -0.95924 208.667C5.97855 200.374 13.149 193.858 17.4913 185.131C19.0469 182.004 20.5593 178.801 18.2736 174.654ZM-12.9224 203.097C-8.90943 197.609 -5.8131 192.866 -2.19524 188.551C2.21411 183.289 2.4306 183.299 0.264447 176.037C-6.0046 184.102 -13.3531 191.594 -12.9224 203.097ZM-11.5638 207.271C-10.858 210.562 -9.85546 213.48 -9.68555 216.523C-9.51944 219.527 -10.1933 222.657 -10.4984 225.732C-6.62626 213.935 -4.37537 201.928 -0.146226 190.063C-4.06848 195.975 -7.99267 201.889 -11.5638 207.271ZM-3.20298 168.898C-11.2227 172.893 -13.3907 177.224 -12.4056 186.702C-4.10213 178.664 -1.945 174.643 -3.20298 168.898ZM-17.7792 174.235C-15.9465 174.09 -14.7205 174.382 -14.1284 173.881C-10.8245 171.088 -7.66578 168.116 -4.47691 165.184C-1.4218 162.373 -1.37281 161.882 -3.99017 156.194C-9.59952 161.464 -13.7586 167.192 -17.7792 174.235ZM6.47384 178.729C12.2533 177.744 14.7462 175.638 14.9453 171.997C15.2034 167.217 13.6173 165.339 8.39758 164.59C7.77775 169.151 7.15859 173.686 6.47384 178.729ZM-25.1868 177.237C-24.9618 177.376 -24.7391 177.516 -24.5144 177.653C-23.15 173.618 -21.4395 169.626 -20.5644 165.532C-20.1191 163.451 -20.9199 161.072 -21.6313 159.031C-22.236 157.303 -23.779 156.727 -25.4444 157.947C-25.3592 164.464 -25.273 170.85 -25.1868 177.237ZM-27.6987 240.016C-27.2091 239.865 -26.7176 239.71 -26.2279 239.559C-25.4476 234.729 -24.1369 229.838 -26.9371 225.141C-29.8163 226.222 -31.4996 227.693 -30.508 230.827C-29.5419 233.876 -28.6337 236.952 -27.6987 240.016ZM-36.4269 160.27C-37.8867 162.143 -39.3692 163.327 -39.2126 163.956C-38.0778 168.497 -37.0927 173.225 -32.1303 175.597C-33.4697 170.819 -34.8087 166.043 -36.4269 160.27ZM-29.8785 172.237C-27.3895 167.549 -28.0632 163.508 -29.8841 159.734C-30.1855 159.111 -31.3622 158.978 -33.0866 158.176C-31.8597 163.559 -30.8691 167.898 -29.8785 172.237ZM-17.3914 157.839C-16.8636 160.094 -16.4121 162.016 -15.7887 164.665C-13.2334 161.925 -10.9658 160.222 -11.4951 156.778C-13.3438 157.11 -14.9718 157.402 -17.3914 157.839Z" fill="#FEC94E" fill-opacity="0.44"/>
<path d="M3.1246 397.225C-4.68641 387.03 -8.66113 375.227 -10.2075 362.953C-11.6037 351.872 -15.4855 342.382 -20.6548 333.294C-26.2235 323.507 -28.3145 312.295 -31.7458 301.632C-32.43 299.51 -32.711 297.246 -30.3078 295.283C-27.9725 293.374 -26.2587 294.388 -24.0009 295.031C-13.1684 298.112 -4.57602 304.96 4.10628 311.166C19.2271 321.981 34.6717 332.574 47.1379 346.651C50.4721 350.416 51.5738 354.425 49.6543 359.497C45.3862 370.782 38.3497 380.069 28.5932 387.389C25.3169 389.848 22.2663 392.812 18.7166 394.645C15.7484 396.178 12.2191 396.551 8.91378 397.146C7.0706 397.478 5.17695 397.218 3.1246 397.225ZM27.6606 370.418C25.4935 368.684 23.5114 366.653 21.126 365.262C4.613 355.638 -6.51736 341.165 -14.8061 324.13C-15.9141 321.852 -16.3487 319.207 -17.2955 316.829C-19.3881 311.571 -22.4651 307.072 -27.2947 303.873C-26.9837 306.962 -25.999 309.746 -25.4536 312.655C-23.3824 323.666 -16.115 331.857 -12.0522 341.781C-11.7524 342.514 -11.1234 343.091 -10.6099 343.708C-0.411681 355.972 12.2963 364.949 27.6606 370.418ZM-3.24179 335.584C2.72563 349.606 14.919 356.944 27.2597 364.126C21.5485 349.91 10.1042 341.759 -3.24179 335.584ZM17.1006 325.968C24.0296 337.405 29.7784 350.194 45.9171 351.091C37.2325 341.66 29.0058 331.709 17.1006 325.968ZM5.73263 335.133C-1.49697 323.972 -4.5206 310.941 -17.7127 305.816C-13.2189 320.664 -7.18543 329.306 5.73263 335.133ZM-3.31011 311.765C-1.50367 315.075 0.809201 318.171 1.9991 321.74C4.32065 328.705 9.20744 333.296 14.6603 337.444C16.0462 338.5 18.0014 338.832 19.6959 339.496C13.5652 328.451 8.30417 317.177 -3.31011 311.765ZM4.95671 368.85C5.09359 374.863 5.25187 380.8 5.35886 386.745C5.48813 393.906 7.17062 394.812 13.9713 391.314C10.9063 376.765 9.27679 372.682 4.95671 368.85ZM-5.95779 358.544C-4.19474 367.816 -3.72793 377.614 1.5216 386.439C2.29779 375.536 2.19651 365.691 -5.95779 358.544ZM17.6518 389.613C20.4845 388.069 22.4896 386.975 25.0028 385.603C20.5051 381.872 18.475 376.343 12.0253 373.148C14.1356 379.321 15.7983 384.189 17.6518 389.613ZM33.4945 364.795C32.097 357.368 27.9319 351.262 23.81 345.142C22.4483 343.119 20.4683 342.737 18.1504 343.257C23.3921 350.61 28.4511 357.713 33.4945 364.795ZM33.4822 353C35.1436 359.115 36.8697 365.474 38.5225 371.566C42.5646 365.085 40.9374 358.884 33.4822 353ZM29.0884 381.321C28.458 377.208 23.3846 372.919 16.5104 370.79C20.9775 375.115 22.5516 380.648 29.0884 381.321ZM44.116 362.981C46.0693 360.455 47.7422 358.576 46.1304 356.332C45.6432 355.653 43.8683 355.963 41.9968 355.738C42.8132 358.531 43.3579 360.391 44.116 362.981Z" fill="#FEC94E" fill-opacity="0.44"/>
<path d="M74.5037 237.294C71.9363 238.301 69.9093 238.544 68.6767 239.677C63.6625 244.287 57.7156 246.222 51.5875 247.994C44.5329 250.036 37.5332 252.352 30.5076 254.532C23.4597 256.721 16.4076 258.882 9.35668 261.067C4.72995 262.499 0.108321 263.949 -4.5163 265.395C-7.69748 266.388 -10.7566 267.767 -14.1001 266.332C-15.3416 265.799 -17.3205 266.749 -20.0365 267.202C-16.9069 263.335 -14.528 260.359 -12.1107 257.419C-7.59596 251.925 -3.02231 246.477 1.43605 240.939C2.20304 239.986 3.10927 238.515 2.93706 237.558C2.12941 233.069 5.05237 229.755 7.41917 226.644C16.4338 214.788 25.4765 202.915 36.4827 192.722C39.7024 189.738 42.6674 189.357 46.5497 192.015C53.7759 196.959 60.0375 202.931 64.9331 210.277C69.3363 216.889 72.1087 224.331 74.1451 232.118C74.5831 233.789 74.4079 235.675 74.5037 237.294ZM-2.82796 251.566C7.699 245.831 15.8344 238.746 23.0383 230.573C29.4563 223.293 35.0795 215.21 45.0979 212.541C46.5561 212.152 47.7576 210.286 49.0765 209.104C48.8579 208.629 48.6416 208.153 48.4231 207.678C46.5337 208.152 44.5802 208.414 42.7673 209.134C30.4575 214.021 20.556 222.644 11.6269 232.301C6.46085 237.886 2.40556 244.501 -2.82796 251.566ZM59.6629 218.778C49.9512 222.749 40.4888 226.391 31.195 230.506C26.4327 232.614 22.0543 235.679 17.7021 240.667C23.294 240.043 27.5461 238.831 31.6252 236.403C39.91 231.47 48.0119 226.095 57.3148 223.543C59.4322 222.963 60.6001 221.57 59.6629 218.778ZM53.5552 207.793C51.0077 213.693 45.915 214.647 41.439 216.856C36.9366 219.075 32.6212 221.899 30.1637 228.086C36.7856 225.151 42.5443 222.649 48.2667 220.051C54.6762 217.141 55.2823 215.811 53.5552 207.793ZM-1.29468 260.398C13.1124 258.453 26.7838 253.206 40.3611 247.527C25.4177 247.058 12.0136 253.521 -1.29468 260.398ZM13.8513 223.833C23.6647 217.556 32.2266 209.999 38.1699 199.787C38.5716 199.098 38.2213 198.012 38.2192 196.569C26.9852 203.576 21.4378 214.597 13.8513 223.833ZM-1.70505 256.011C8.95229 251.385 20.4391 248.883 31.3252 240.775C18.2075 243.063 6.93874 246.052 -1.70505 256.011ZM58.2619 233.161C48.9996 233.884 41.4951 239.14 33.9389 244.262C42.915 242.948 51.8876 241.642 58.2619 233.161ZM63.648 224.724C58.5047 226.565 52.425 225.871 48.0407 232.102C54.331 230.508 60.0706 230.403 63.648 224.724ZM36.3766 208.616C40.7951 206.878 44.6002 205.382 48.7063 203.766C48.3074 202.401 47.943 201.151 47.5549 199.826C41.8663 200.12 39.013 203.651 36.3766 208.616ZM53.9276 244.52C59.1752 243.324 63.4568 241.36 66.5405 236.457C59.3784 234.466 57.555 240.587 53.9276 244.52ZM68.5512 227.888C67.1282 229.572 66.3281 230.45 65.6386 231.401C65.5093 231.58 65.8226 232.06 65.9327 232.399C69.2272 231.945 69.2272 231.945 68.5512 227.888ZM58.0515 214.354C60.7916 211.997 60.7916 211.997 58.4131 208.822C58.2712 210.992 58.1767 212.42 58.0515 214.354Z" fill="#FEC94E" fill-opacity="0.44"/>
<path d="M69.4529 392.366C71.3414 391.892 73.2276 391.418 75.1161 390.944C75.2927 391.362 75.4696 391.781 75.6443 392.202C73.8977 393.606 72.1534 395.009 69.708 396.973C69.6803 394.944 69.6626 393.517 69.6423 392.088L69.4529 392.366Z" fill="#BB9F87" fill-opacity="0.5"/>
<path d="M109.397 336.801C108.427 338.618 107.539 340.282 106.621 342.001C104.095 338.091 104.402 337.47 109.397 336.801Z" fill="#BB9F87" fill-opacity="0.5"/>
<path d="M93.8439 354.466C95.2853 353.401 96.7268 352.336 98.1682 351.271C98.4523 351.508 98.736 351.742 99.0224 351.978C98.2374 353.715 97.4506 355.455 96.3716 357.841C95.218 356.138 94.5963 355.22 93.9647 354.314C93.9547 354.326 93.8439 354.466 93.8439 354.466Z" fill="#BB9F87" fill-opacity="0.5"/>
<path d="M114.458 286C116.601 285.888 118.054 286.227 117.595 288.543C117.503 289.004 116.744 289.754 116.339 289.76C114.126 289.793 113.87 288.363 114.458 286Z" fill="#BB9F87" fill-opacity="0.5"/>
<path d="M110.615 236.876C109.646 235.867 108.804 235.352 108.558 234.593C108.418 234.157 109.24 233.323 109.63 232.669C110.377 233.142 111.354 233.457 111.773 234.149C111.991 234.503 111.22 235.526 110.615 236.876Z" fill="#BB9F87" fill-opacity="0.5"/>
<path d="M34.8815 129.892C33.8509 129.042 32.8204 128.192 31.1654 126.827C34.6021 125.768 35.5992 126.737 34.8815 129.892Z" fill="#BB9F87" fill-opacity="0.5"/>
<path d="M88.1972 176.944C87.3973 176.467 86.5575 176.037 85.8427 175.454C85.7503 175.379 86.3088 174.518 86.5666 174.02C87.4511 174.522 88.3356 175.025 89.2201 175.528C88.8777 176.001 88.5376 176.473 88.1972 176.944Z" fill="#BB9F87" fill-opacity="0.5"/>
<path d="M113.252 311.792C112.6 310.747 111.91 310.165 111.97 309.593C112.033 308.996 112.821 308.409 113.291 307.817C113.779 308.266 114.65 308.672 114.661 309.175C114.672 309.807 113.98 310.521 113.252 311.792Z" fill="#BB9F87" fill-opacity="0.5"/>
<path d="M110.099 277.116C111.1 276.09 111.627 275.161 112.143 275.118C112.785 275.064 113.419 275.741 114.055 276.103C113.569 276.709 113.172 277.591 112.572 277.835C112.061 278.043 111.317 277.507 110.099 277.116Z" fill="#BB9F87" fill-opacity="0.5"/>
<path d="M109.115 215.365C108.223 216.322 107.734 217.174 107.068 217.439C106.68 217.593 105.537 216.822 105.559 216.44C105.596 215.81 106.212 214.803 106.755 214.613C107.318 214.413 108.085 214.998 109.115 215.365Z" fill="#BB9F87" fill-opacity="0.5"/>
<path d="M-36.5698 23.608C-21.3496 20.1176 -9.12825 18.8259 3.08026 19.4508C8.77246 19.7426 14.4945 19.8907 19.8391 21.3124C23.7383 22.3496 27.8119 23.3332 31.1513 25.2226C36.7022 28.3644 41.6816 32.2664 46.9838 35.7507C51.9688 39.0258 55.4964 43.4697 58.6309 48.2473C59.4239 49.4559 60.139 50.723 60.7651 52.0256C62.4349 55.5019 64.0297 59.0159 65.6685 62.5089C67.9801 67.437 69.1049 72.7571 69.8719 78.2134C70.3505 81.6215 71.0996 84.9632 71.6346 88.3584C72.4508 93.532 72.0369 98.8024 70.7558 104.146C70.111 106.835 69.9673 109.605 69.0092 112.221C67.7537 115.649 66.1021 119.032 64.2845 122.307C61.8397 126.711 59.1086 131.009 56.4242 135.318C55.5717 136.686 54.5712 138.013 53.4731 139.24C50.4731 142.591 47.7931 146.097 45.6777 149.934C45.2813 150.654 44.6456 151.353 43.9667 151.887C37.3422 157.089 30.5067 161.932 22.6128 165.225C18.4768 166.951 14.507 169.123 10.4394 171.041C3.41777 174.35 -3.9695 175.922 -11.3801 177.079C-15.9261 177.79 -20.5136 178.178 -25.0457 178.346C-30.014 178.53 -34.9563 178.378 -39.8827 178.223C-46.9935 177.999 -53.0675 175.291 -59.4498 173.284C-67.4354 170.773 -73.8779 166.156 -80.7161 162.072C-81.7161 161.474 -82.4151 160.47 -83.1862 159.603C-85.2426 157.285 -87.2204 154.938 -89.9889 153.228C-91.3868 152.364 -92.2726 150.863 -93.4189 149.675C-96.3989 146.588 -97.897 142.657 -99.1679 138.708C-101.329 131.994 -103.262 125.181 -104.895 118.284C-105.671 115.008 -105.862 111.474 -105.745 108.005C-105.482 100.178 -103.165 92.3691 -101.493 84.5709C-100.835 81.5073 -99.2584 78.4903 -97.9952 75.4789C-97.1384 73.4356 -96.2208 71.3905 -95.1098 69.4313C-93.6361 66.8309 -92.1033 64.227 -90.3151 61.7794C-87.4775 57.8951 -84.1049 54.2795 -81.5318 50.2847C-79.5374 47.1881 -77.0384 44.8604 -74.0094 42.7122C-69.9116 39.8049 -66.0564 36.5995 -61.4964 34.3153C-57.9903 32.5585 -54.6768 30.3774 -51.1298 28.7322C-45.5021 26.1214 -39.6589 24.1617 -36.5698 23.608ZM38.5002 149.257L38.6019 149.12C35.033 152.304 30.7812 154.86 27.9506 158.589C26.8012 159.046 25.5712 159.407 24.4599 159.997C19.8 162.471 15.1858 165.03 10.5346 167.519C9.13027 168.27 7.38566 168.247 6.01816 169.355C7.41931 170.783 8.84484 170.136 10.3197 169.447C14.8899 167.308 19.5168 165.295 24.0408 163.058C30.9295 159.654 37.5509 155.777 42.7309 150.116C44.7696 147.889 46.2814 145.27 48.1939 142.606C47.9752 142.142 47.578 141.49 47.3728 140.769C47.2991 140.51 47.6884 140.088 47.8666 139.74C48.2162 139.942 48.6284 140.092 48.8957 140.365C49.0848 140.558 49.0764 140.919 49.2602 141.583C50.9872 139.54 52.512 137.925 53.8028 136.179C58.8272 129.381 63.0537 122.247 66.2543 114.717C67.0052 112.952 68.5109 111.149 67.1436 109.299C67.0321 109.149 67.1851 108.71 67.3545 108.489C69.3002 105.951 69.4516 103.086 69.9018 100.369C70.3635 97.5822 70.0634 94.7864 70.2161 91.986C70.4378 87.8861 69.1898 84.3012 67.4946 81.125C67.7307 79.9492 68.1527 78.9537 68.0741 78.0562C67.6228 72.9357 66.2497 68.0897 64.3326 63.4609C62.7836 59.7221 61.0515 56.0524 59.1392 52.4947C56.2133 47.0519 52.843 41.9566 47.8156 37.9291C43.4157 34.4053 38.6169 31.4256 33.7099 28.5487C31.0546 26.9914 28.4297 25.3182 25.5077 24.2038C19.0496 21.7417 12.0239 20.7938 4.73534 20.7371C2.74585 20.7216 0.751837 20.0773 -1.02778 21.6526C-4.74099 19.709 -18.1045 20.7604 -21.7517 22.9209C-23.5989 22.765 -25.0446 22.3146 -26.4222 22.59C-30.2058 23.3447 -33.9606 24.405 -37.7282 25.3423C-37.9813 25.9851 -38.2354 26.6293 -38.4912 27.2784C-40.0576 27.4266 -40.591 25.6965 -42.4056 26.5031C-47.8412 28.9185 -53.4004 31.0342 -58.5163 34.1719C-59.9243 35.0357 -61.5351 35.6418 -62.8085 36.6441C-64.8447 38.2476 -67.8153 38.9638 -68.3726 41.1201C-70.163 42.1619 -71.6745 42.6952 -72.6546 43.6734C-76.1834 47.1962 -79.6589 50.7816 -82.909 54.5141C-85.3682 57.3379 -87.295 60.5338 -89.7741 63.3413C-91.0031 64.7335 -91.0191 65.8299 -90.3321 67.3083C-92.449 67.4564 -93.2962 68.4909 -93.9042 70.0164C-94.6417 71.868 -95.7717 73.6253 -96.5924 75.4619C-98.3634 79.4276 -100.155 83.3806 -100.706 87.5861C-101.006 89.8781 -101.632 92.1833 -102.25 94.4654C-103.773 100.079 -104.115 105.66 -104.329 111.25C-104.452 114.449 -103.025 117.188 -102.547 120.22C-101.85 124.645 -100.619 128.966 -99.1769 133.155C-98.6198 134.774 -98.934 137.31 -95.6804 137.392C-96.486 138.237 -96.9841 138.759 -97.6209 139.427C-96.1178 142.262 -94.6193 145.173 -93.0375 148.035C-92.3218 149.33 -91.3635 150.427 -89.1772 149.774C-89.4105 151.631 -88.7317 152.769 -87.308 153.542C-86.7108 153.867 -86.259 154.431 -85.8436 154.961C-80.8364 161.346 -73.7793 165.463 -66.379 169.198C-65.3555 169.715 -64.3484 170.59 -62.9401 169.224C-62.7792 169.068 -61.4642 169.622 -61.4761 169.649C-62.3228 171.67 -60.5079 171.673 -59.3936 172.086C-56.8249 173.039 -54.202 173.891 -52.1264 174.605C-50.8323 174.072 -50.0157 173.737 -49.1992 173.401C-48.986 174.078 -48.7727 174.755 -48.4725 175.703C-41.6293 177.916 -33.7133 177.364 -25.9807 177.279C-20.5161 177.218 -14.9257 176.27 -9.39344 175.541C-7.37071 175.274 -5.06725 174.911 -3.42388 173.827C-2.04083 172.914 -1.21103 172.496 0.307818 172.818C2.82114 173.349 3.80894 172.517 4.3007 169.739C2.3279 170.231 0.375506 170.606 -1.52221 171.213C-6.30638 172.743 -11.4314 172.67 -15.943 175.474C-16.0087 175.515 -16.1452 175.444 -16.3293 175.411C-16.3947 174.99 -16.465 174.537 -16.5875 173.749C-19.9543 174.027 -23.4131 174.313 -26.8706 174.599L-26.7429 174.669C-30.0937 174.338 -33.4446 174.007 -36.8826 173.666C-36.9734 174.258 -37.0572 174.798 -37.1719 175.539C-38.0327 175.534 -38.8028 175.528 -39.7992 175.522C-39.3431 174.642 -39.0506 174.077 -38.674 173.35C-40.6359 173.16 -42.3372 173.056 -43.9982 172.819C-46.1702 172.509 -48.4431 172.349 -50.4383 171.673C-56.0648 169.764 -61.4033 167.406 -66.4053 164.438C-69.6059 162.538 -72.1869 159.395 -76.9066 160.204C-76.868 158.053 -76.9301 158.11 -79.0543 156.195C-82.0109 153.53 -85.3443 151.112 -86.9759 147.433C-87.6778 145.851 -88.699 145.029 -90.5275 145.026C-90.0194 142.505 -93.0496 133.144 -95.5729 129.157L-95.5299 129.202C-96.4827 124.102 -97.7463 119.064 -98.2788 113.877C-98.6245 110.508 -98.0458 106.922 -97.6242 103.429C-97.2606 100.427 -96.2738 97.4039 -96.0142 94.4115C-95.2392 85.4588 -92.9442 76.8029 -87.5666 68.6237C-86.5795 67.1221 -85.6946 65.5711 -84.8638 64.2078C-85.5391 63.6044 -85.985 63.2062 -86.8481 62.434C-85.3937 62.3651 -84.5781 62.327 -83.875 62.2936C-82.5326 60.2476 -81.2744 58.2282 -79.8997 56.2702C-78.9766 54.9566 -77.825 53.7389 -78.902 52.1578C-77.5968 51.8323 -76.4147 51.8335 -75.6479 51.2905C-73.3623 49.6761 -71.2395 47.8466 -69.0524 46.1027C-63.2888 41.5111 -57.713 36.6625 -50.7772 33.6808C-49.8756 33.2929 -49.0257 32.7726 -48.04 32.2543C-48.6338 31.7836 -49.0846 31.4257 -49.5551 31.0527C-47.7268 29.4709 -46.9158 30.8592 -46.0616 31.446C-43.1175 30.3912 -40.4036 29.3582 -37.6577 28.4433C-25.2803 24.3247 -12.8495 23.1808 -0.409049 23.4832C2.68455 23.5584 5.80545 23.5933 8.81807 23.9792C10.8696 24.2417 12.7624 24.9548 14.6074 23.3923C15.4136 24.2065 15.8966 25.1316 16.7202 25.4412C19.104 26.339 21.61 27.0232 24.0948 27.7317C29.0257 29.1382 33.4323 31.2652 37.1006 34.4878C38.1526 35.4117 38.8231 36.8474 40.7908 36.7387C41.1814 36.7173 41.6957 37.4279 41.8383 37.914C42.6967 40.8554 45.0678 42.487 47.4342 44.1688C48.9652 42.6488 48.9652 42.6488 50.0966 43.6523C49.4261 44.0396 48.8 44.4012 48.368 44.6519C50.8719 48.1381 53.3377 51.5712 55.7991 54.9998C56.7204 54.7153 57.7579 54.0422 58.0934 55.5457C57.5836 55.8639 57.0545 56.1935 56.2638 56.6867C56.681 57.7164 57.0928 58.7754 57.5393 59.8179C57.9178 60.702 58.4654 61.5227 58.7146 62.4469C59.902 66.8499 60.9396 71.3049 62.1812 75.6889C62.8148 77.9268 63.7617 80.0542 64.6489 82.4534C62.8516 82.819 63.0108 84.2515 62.8639 85.7134C62.4195 90.1157 61.8825 94.5221 61.2957 98.9275C60.7468 103.049 60.0032 107.173 59.5309 111.291C59.4063 112.377 60.3717 113.488 60.1071 114.512C59.8203 115.618 58.5392 116.586 57.9386 117.703C56.484 120.411 55.2826 123.212 53.7629 125.892C52.8312 127.534 52.1737 129.117 52.2973 130.856L52.3563 130.788C49.9881 134.438 47.6957 138.096 44.6002 141.383C42.3118 143.812 40.5148 146.619 38.5002 149.257ZM-31.0256 28.0584C-40.1288 30.5596 -49.0264 33.6474 -56.946 39.0079C-62.6053 42.8385 -67.8461 47.2517 -73.2495 51.4341C-77 54.3375 -79.3218 58.1021 -81.4099 62.0106C-82.2658 63.6125 -83.1743 65.2118 -84.2278 66.7255C-89.4424 74.2184 -92.6191 82.2386 -93.6047 90.5882C-94.1638 95.3318 -95.0159 100.029 -95.9709 104.744C-96.1122 105.443 -96.1889 106.149 -96.2394 106.847C-96.747 113.93 -95.8235 120.714 -93.8399 127.242C-93.1108 129.639 -91.7344 131.811 -91.1319 134.241C-89.829 139.5 -86.8484 143.87 -83.9565 148.223C-81.4034 152.065 -77.959 155.302 -73.7462 157.758C-70.207 159.821 -66.9543 162.288 -63.269 164.124C-58.6745 166.413 -54.0343 168.908 -48.9232 170.091C-42.6725 171.538 -35.9546 171.897 -29.3599 172.375C-25.5516 172.65 -21.5887 172.258 -17.6913 172.123C-11.2489 171.901 -4.88022 170.708 1.40352 168.504C1.92787 168.32 2.46808 168.19 2.99634 168.015C6.25013 166.937 9.67944 166.222 12.712 164.688C17.2941 162.37 21.7239 159.656 25.991 156.791C32.2036 152.617 37.2019 147.323 41.4721 141.446C44.5956 137.147 46.23 132.238 49.6023 128.02C51.2276 125.987 52.2877 123.604 53.6154 121.384C55.6336 118.009 57.1195 114.551 57.2863 110.826C57.3488 109.428 57.6419 108.012 57.8395 106.604C58.8273 99.581 59.7667 92.5577 60.8232 85.5364C61.7301 79.512 59.6013 74.2245 58.3732 68.7436C57.6357 65.4525 56.0306 62.4326 54.937 59.2415C53.0188 53.6456 49.7104 48.9572 45.4128 44.884C43.7167 43.2774 42.1064 41.5913 40.3747 40.0192C36.8912 36.8589 33.8313 33.4656 28.704 31.8824C19.9127 29.1689 11.1406 26.4662 1.66247 25.6664C-4.4661 25.1494 -10.7771 25.1538 -17.0492 25.5606C-21.6751 25.8608 -26.3651 27.1889 -31.0256 28.0584Z" fill="#FEC94E" fill-opacity="0.44"/>
<path d="M48.4722 86.212C46.5648 88.4096 47.04 90.089 48.0985 91.692C48.2538 91.9266 48.4458 92.191 48.4461 92.4632C48.4505 95.6177 48.4636 98.7724 48.3793 101.937C48.3455 103.191 48.0767 104.469 47.9173 105.735C47.8927 105.935 47.9397 106.15 47.8578 106.331C46.5892 109.168 45.3049 111.999 44.1424 114.571C42.662 114.94 41.7091 115.177 40.6039 115.453C40.3311 116.594 43.0114 117.067 41.3983 118.262C40.4408 118.97 38.8302 118.876 37.3104 119.183C37.5778 119.773 38.1564 120.55 38.2651 121.431C38.3667 122.252 37.9663 123.185 37.7668 124.169C34.3765 126.314 31.3072 125.56 28.471 124.157C26.2394 123.053 24.295 121.528 22.1167 120.338C19.9425 119.15 17.7209 117.991 15.3686 117.089C9.96149 115.018 5.66511 111.727 1.79361 107.868C-0.0440379 106.036 -2.22917 104.507 -4.20884 102.796C-4.935 102.168 -5.52815 101.409 -6.13507 100.76C-5.87505 99.075 -4.77229 98.0435 -3.26966 97.3479C-1.95279 96.7386 -0.619332 96.0929 0.753745 95.7019C7.25819 93.8519 13.7457 91.7896 20.3048 90.3705C26.7312 88.9812 33.2365 88.2744 39.708 87.2706C41.7629 86.9518 43.8181 86.6274 45.8737 86.3451C46.5779 86.2507 47.2872 86.2695 48.4722 86.212ZM27.4566 113.236C29.7531 115.87 34.9214 117.537 39.1965 116.649C37.6031 115.783 36.5387 114.929 35.2506 114.562C32.7959 113.862 30.2136 113.439 27.6852 112.9C26.9371 112.553 26.1889 112.205 25.4409 111.858C25.3327 112.045 25.2232 112.232 25.115 112.419C25.8959 112.691 26.6756 112.964 27.4566 113.236ZM-4.05485 99.5859C0.738697 99.1924 4.67808 100.275 9.01755 99.0782C17.2136 96.8167 18.9972 96.2655 20.9426 94.2084C18.462 94.4866 16.1041 94.7108 13.7478 95.0247C9.67409 95.5677 5.6003 95.4663 1.52079 96.7596C-0.281992 97.3311 -1.98513 97.8989 -4.05485 99.5859ZM37.5643 92.3794C37.4355 92.2749 37.3215 92.0832 37.175 92.0798C30.4134 91.8948 24.3011 94.6348 18.2944 97.824C18.2282 97.8594 18.2236 98.0128 18.1906 98.111C23.7874 99.3897 31.4554 96.8997 37.5643 92.3794ZM19.6379 106.334C13.1905 104.081 6.73306 102.033 -0.556888 102.301C5.20825 106.317 12.1425 107.174 19.6379 106.334ZM34.6552 100.211C34.3447 99.8932 34.2291 99.6431 34.0861 99.6465C29.8962 99.7607 25.6909 99.5375 21.5162 100.163C18.7972 100.571 16.4533 99.994 14.0724 99.6807C12.356 99.4551 11.2081 99.6712 9.52775 100.521C17.2028 102.848 27.1412 102.705 34.6552 100.211ZM4.23431 106.768C3.97391 107.059 3.71453 107.348 3.45413 107.638C9.48405 113.134 16.3345 117.461 25.7323 118.941C23.8821 116.71 23.8519 116.771 21.4412 115.987C18.0532 114.886 14.5574 113.998 11.7711 111.834C9.40153 109.994 6.75675 108.445 4.23431 106.768ZM45.3766 102.183C42.6356 98.8148 39.3814 99.0902 32.4979 103.276C36.9299 105.179 42.5652 104.701 45.3766 102.183ZM9.628 107.919C13.872 112.368 19.342 114.382 25.875 115.508C23.264 112.132 15.0245 108.332 9.628 107.919ZM30.7307 97.9037C35.5083 98.052 40.2425 98.7723 45.0518 95.7359C42.8641 93.332 39.772 94.1404 37.1956 94.6858C34.975 95.1559 32.8803 96.7858 30.7307 97.9037ZM23.5608 108.655C26.8232 111.805 35.1922 113.9 39.0588 112.614C34.4776 109.633 29.1666 108.911 23.5608 108.655ZM26.5881 91.1236C26.6095 91.3883 26.6308 91.653 26.652 91.9166C31.2495 91.3442 35.8456 90.7788 40.4427 90.1887C40.9679 90.1211 41.5465 90.0147 42.0008 89.7537C42.4506 89.496 42.7749 89.0197 43.4182 88.3749C37.4205 88.5995 31.9535 89.2209 26.5881 91.1236ZM43.4645 108.272C39.0234 105.944 34.0585 105.236 28.6537 105.963C33.3959 107.315 38.2403 108.338 43.4645 108.272ZM35.5371 121.129C34.211 118.354 30.553 116.742 27.6821 117.629C29.8323 119.482 32.0074 121.05 35.5371 121.129ZM37.5464 109.421C37.4624 109.565 37.3771 109.709 37.2932 109.853C39.1379 110.896 40.9827 111.938 43.2345 113.212C43.5919 111.819 43.8026 110.994 44.0735 109.936C41.6959 109.747 39.6206 109.584 37.5464 109.421ZM32.9931 123.68C31.5348 122.465 29.9376 121.527 27.2402 121.62C29.0227 123.345 30.8627 123.8 32.9931 123.68ZM45.7534 106.833C46.3266 104.186 46.2738 104.165 42.1631 105.457C43.5734 105.997 44.6207 106.399 45.7534 106.833ZM19.1416 104.034C21.7491 104.978 22.4536 104.941 25.1918 103.647C23.1668 103.657 21.4173 103.664 19.6647 103.683C19.5857 103.684 19.4926 103.793 19.1416 104.034ZM15.4401 93.1863C19.9054 93.2035 19.9054 93.2035 21.1499 91.7633C19.2014 92.2489 17.3208 92.7176 15.4401 93.1863Z" fill="#FEC94E" fill-opacity="0.44"/>
<path d="M-16.5414 56.6235C-19.9301 51.9783 -20.6504 46.3179 -18.8699 40.0147C-13.9034 39.3493 -9.20923 38.5202 -4.54268 38.1656C-1.29452 37.919 1.92228 38.3077 5.14484 38.4599C5.53506 38.4785 6.14122 38.7166 6.1836 38.9726C6.499 40.8841 8.47677 40.5772 9.77904 41.2041C11.7657 42.161 14.3948 42.8803 15.3356 44.5102C16.6767 46.8342 17.2142 49.7528 15.4345 52.8594C12.7916 57.4728 8.95482 61.2219 5.02169 64.8917C2.9576 66.8166 1.41196 68.835 1.10451 71.3828C0.783781 74.0385 -0.59429 76.4323 -2.26381 78.5727C-4.90164 81.9559 -7.97385 85.0773 -10.8199 88.3392C-11.7281 89.3804 -12.7212 89.82 -14.1232 89.599C-13.9536 88.2739 -13.4806 86.9419 -13.724 85.822C-13.9827 84.6283 -15.0246 83.6858 -15.5382 82.5454C-16.7699 79.8131 -17.8096 77.0745 -17.8404 73.852C-17.884 69.2521 -18.4258 64.7132 -17.6192 60.0275C-17.4609 59.0965 -17.0411 58.1713 -16.5414 56.6235ZM-6.58732 54.6871C-8.66076 57.4047 -7.96381 59.3595 -7.21349 61.2628C-6.02131 64.2884 -5.77752 67.3251 -7.73226 70.6035C-8.11191 71.2399 -8.1804 72.2081 -7.96104 72.8517C-7.29678 74.7899 -7.59013 76.7765 -8.05175 78.8095C-8.43541 80.4982 -8.79101 82.19 -9.1583 83.8791C-4.77657 79.0903 -3.26845 73.742 -2.82431 68.2021C-2.75641 67.3589 -3.14291 66.423 -3.63895 65.7493C-5.89952 62.6727 -6.59359 59.0712 -6.58732 54.6871ZM-11.218 70.6528C-8.25652 68.6788 -7.80113 66.6057 -8.29997 64.0237C-9.63788 57.1106 -13.972 51.8519 -17.8415 45.5849C-17.8485 49.2406 -17.4329 52.093 -15.8165 54.5586C-12.7346 59.2622 -11.0545 64.4621 -11.218 70.6528ZM-12.7307 83.7263C-12.4526 83.6447 -12.1746 83.562 -11.8978 83.4807C-11.8668 83.1245 -11.7381 82.736 -11.8192 82.4166C-12.5849 79.4086 -13.556 76.4585 -14.1122 73.396C-14.4221 71.6889 -15.9124 69.7664 -13.2397 67.9744C-12.9832 67.8026 -13.0641 66.9941 -13.1566 66.5292C-13.5382 64.6027 -13.9428 62.6819 -14.4367 60.7912C-14.5549 60.3383 -15.0508 60.012 -15.3738 59.6281C-15.5925 59.7208 -15.8112 59.8135 -16.0299 59.9062C-16.7928 68.2755 -17.3557 76.6006 -12.7307 83.7263ZM13.9209 48.0847C13.2743 48.7617 12.7894 49.1973 12.3973 49.6895C10.9237 51.5427 9.74722 53.5008 7.80306 55.1496C5.02534 57.5063 3.6689 60.5941 3.57601 64.559C7.27458 60.5182 11.0801 57.3244 13.4244 53.1035C14.2643 51.5914 15.0822 50.0431 13.9209 48.0847ZM-2.63624 62.0244C-0.491142 59.3564 1.16821 57.0544 3.09682 54.9519C5.4474 52.3879 5.56058 52.3901 4.48779 48.9402C1.14097 52.8653 -2.76579 56.5273 -2.63624 62.0244ZM-1.96024 64.0058C-1.61838 65.5723 -1.11816 66.9566 -1.0546 68.4103C-0.992705 69.8452 -1.37128 71.3494 -1.5565 72.8233C0.567426 67.1396 1.84493 61.3731 4.15619 55.6528C2.05504 58.5224 -0.0471547 61.3933 -1.96024 64.0058ZM2.73321 45.5633C-1.49562 47.5606 -2.66585 49.6554 -2.22942 54.1778C2.18152 50.244 3.34351 48.2975 2.73321 45.5633ZM-4.93685 48.2735C-3.97685 48.184 -3.33792 48.3105 -3.02398 48.0648C-1.27227 46.6933 0.404971 45.2379 2.09765 43.8013C3.71935 42.4238 3.74907 42.1882 2.42713 39.4963C-0.551305 42.0772 -2.77481 44.8615 -4.93685 48.2735ZM7.71386 50.1607C10.7456 49.6274 12.0673 48.5934 12.2018 46.8498C12.3766 44.5611 11.5624 43.6799 8.83797 43.3778C8.47574 45.566 8.11407 47.7416 7.71386 50.1607ZM-8.83719 49.7887C-8.72063 49.853 -8.60528 49.9176 -8.48888 49.9808C-7.74147 48.0363 -6.81342 46.1087 -6.32153 44.1412C-6.07123 43.1412 -6.47034 42.0117 -6.82555 41.0433C-7.12752 40.2235 -7.92997 39.9646 -8.8114 40.5663C-8.82105 43.6819 -8.82913 46.7353 -8.83719 49.7887ZM-10.6739 79.8402C-10.4164 79.7626 -10.158 79.6836 -9.9006 79.606C-9.45216 77.2874 -8.72578 74.9343 -10.1516 72.718C-11.6669 73.2662 -12.5597 73.9877 -12.0671 75.4762C-11.587 76.9239 -11.1375 78.3849 -10.6739 79.8402ZM-14.5763 41.7959C-15.3556 42.7072 -16.141 43.2895 -16.0643 43.5886C-15.5085 45.7483 -15.0324 47.9987 -12.4561 49.0797C-13.117 46.809 -13.7778 44.5394 -14.5763 41.7959ZM-11.25 47.4483C-9.90889 45.1794 -10.2277 43.2541 -11.1489 41.4687C-11.3014 41.1739 -11.9159 41.1234 -12.8114 40.7583C-12.2143 43.3192 -11.7322 45.3838 -11.25 47.4483ZM-4.59753 40.4279C-4.34015 41.5005 -4.11996 42.4148 -3.81583 43.6748C-2.45624 42.3368 -1.25573 41.4982 -1.50398 39.8567C-2.47392 40.0352 -3.32805 40.1928 -4.59753 40.4279Z" fill="#FEC94E" fill-opacity="0.44"/>
<path d="M4.16003 154.675C0.158474 149.883 -1.82271 144.281 -2.52955 138.428C-3.16776 133.143 -5.11962 128.647 -7.74831 124.356C-10.5802 119.736 -11.5808 114.396 -13.2872 109.334C-13.6275 108.326 -13.7556 107.246 -12.4821 106.281C-11.2444 105.344 -10.3562 105.81 -9.1804 106.093C-3.53891 107.449 0.899271 110.632 5.38985 113.506C13.2105 118.515 21.2023 123.415 27.607 130.012C29.3199 131.777 29.8629 133.683 28.8165 136.129C26.4897 141.572 22.7312 146.089 17.5661 149.696C15.8316 150.907 14.2109 152.358 12.3386 153.272C10.773 154.038 8.92351 154.254 7.18936 154.574C6.22232 154.753 5.23379 154.649 4.16003 154.675ZM17.2194 141.589C16.1001 140.783 15.08 139.834 13.8437 139.194C5.28481 134.77 -0.417692 127.968 -4.61226 119.911C-5.17296 118.833 -5.37829 117.572 -5.85384 116.446C-6.90483 113.953 -8.47716 111.835 -10.9772 110.357C-10.8402 111.831 -10.3482 113.152 -10.0871 114.537C-9.09518 119.781 -5.36131 123.62 -3.3184 128.322C-3.16766 128.669 -2.84343 128.939 -2.57993 129.229C2.65332 134.984 9.22691 139.14 17.2194 141.589ZM1.34241 125.263C4.34763 131.905 10.6657 135.283 17.062 138.584C14.1925 131.847 8.27312 128.073 1.34241 125.263ZM12.0647 120.445C15.5945 125.84 18.4957 131.894 26.9313 132.149C22.4664 127.733 18.2453 123.062 12.0647 120.445ZM6.04122 124.951C2.35187 119.691 0.878482 113.492 -5.98044 111.183C-3.75305 118.235 -0.668496 122.304 6.04122 124.951ZM1.50491 113.873C2.42242 115.436 3.60665 116.892 4.19946 118.586C5.35603 121.892 7.8744 124.035 10.6926 125.96C11.4088 126.45 12.429 126.587 13.31 126.887C10.1945 121.671 7.53599 116.336 1.50491 113.873ZM5.35468 141.084C5.37624 143.959 5.40963 146.796 5.41613 149.639C5.42416 153.062 6.29683 153.477 9.88377 151.73C8.4014 144.805 7.58287 142.871 5.35468 141.084ZM-0.269586 136.274C0.575605 140.689 0.738278 145.37 3.41118 149.534C3.90799 144.311 3.93694 139.604 -0.269586 136.274ZM11.8235 150.877C13.3182 150.108 14.3763 149.564 15.7026 148.88C13.3806 147.144 12.3645 144.522 9.01692 143.064C10.0696 145.993 10.8989 148.303 11.8235 150.877ZM20.3183 138.837C19.649 135.3 17.5208 132.425 15.4153 129.543C14.7197 128.59 13.6871 128.428 12.4701 128.702C15.1512 132.162 17.7387 135.505 20.3183 138.837ZM20.41 133.196C21.2283 136.103 22.0784 139.126 22.8924 142.021C25.0609 138.878 24.2613 135.93 20.41 133.196ZM17.8756 146.788C17.58 144.828 14.9615 142.832 11.3829 141.888C13.684 143.908 14.4615 146.537 17.8756 146.788ZM25.8901 137.855C26.933 136.626 27.8238 135.709 26.9993 134.653C26.75 134.334 25.8189 134.502 24.8417 134.414C25.2456 135.741 25.5151 136.624 25.8901 137.855Z" fill="#FEC94E" fill-opacity="0.44"/>
<path d="M42.8121 77.4283C41.4607 77.9375 40.3985 78.0757 39.7443 78.6306C37.0831 80.8899 33.9563 81.8799 30.7361 82.7935C27.029 83.846 23.3484 85.0293 19.6553 86.1481C15.9505 87.2709 12.2437 88.381 8.53738 89.502C6.10532 90.2371 3.6758 90.9804 1.24474 91.7219C-0.427524 92.2312 -2.03915 92.9237 -3.77609 92.2733C-4.42103 92.0319 -5.46407 92.5075 -6.88849 92.7536C-5.2193 90.8698 -3.95016 89.4211 -2.66122 87.9885C-0.253934 85.3118 2.18381 82.6564 4.56199 79.9594C4.97112 79.4954 5.45739 78.782 5.37529 78.3263C4.99022 76.1877 6.54675 74.5711 7.81068 73.0572C12.6248 67.2889 17.4537 61.5124 23.2956 56.5179C25.0046 55.056 26.5587 54.8418 28.5673 56.0713C32.3059 58.3582 35.5314 61.1471 38.031 64.6084C40.2791 67.7237 41.6673 71.2535 42.6676 74.9563C42.8828 75.7509 42.7755 76.6546 42.8121 77.4283ZM2.24307 85.0887C7.79721 82.2321 12.1116 78.7551 15.9479 74.7682C19.3656 71.2166 22.3743 67.2897 27.6369 65.9052C28.4029 65.7034 29.0469 64.7979 29.7466 64.2184C29.6362 63.9934 29.5271 63.7681 29.4167 63.5432C28.4245 63.7902 27.4005 63.9366 26.4462 64.3005C19.9666 66.7708 14.7155 71.0025 9.96449 75.7176C7.21576 78.4449 5.03943 81.6531 2.24307 85.0887ZM35.2035 68.7316C30.0905 70.7354 25.1106 72.5799 20.215 74.6481C17.7064 75.7078 15.3907 77.2212 13.0726 79.6541C16.0027 79.2955 18.237 78.6695 20.3909 77.4644C24.7655 75.0155 29.0482 72.3569 33.9356 71.0359C35.0479 70.7357 35.6705 70.057 35.2035 68.7316ZM32.1002 63.5427C30.7186 66.3925 28.0468 66.9038 25.6871 68.0084C23.3135 69.1187 21.0327 70.5159 19.6957 73.5018C23.1839 72.0265 26.217 70.7675 29.2319 69.4633C32.6087 68.0024 32.9369 67.3593 32.1002 63.5427ZM2.97152 89.2966C10.5236 88.2113 17.7185 85.554 24.8678 82.6911C17.0552 82.6277 9.99002 85.8639 2.97152 89.2966ZM11.1986 71.6434C16.384 68.5353 20.9254 64.828 24.1193 59.8794C24.3351 59.5455 24.161 59.0297 24.1719 58.3394C18.2373 61.8123 15.2438 67.1439 11.1986 71.6434ZM2.7934 87.2028C8.40651 84.8752 14.4358 83.5545 20.1976 79.5588C13.317 80.7947 7.3977 82.346 2.7934 87.2028ZM34.3508 75.6263C29.5 76.0723 25.5308 78.6672 21.5357 81.1988C26.2418 80.4733 30.946 79.7516 34.3508 75.6263ZM37.2385 71.5324C34.5328 72.4684 31.3584 72.2024 29.0133 75.2301C32.3168 74.3998 35.3199 74.2877 37.2385 71.5324ZM23.1077 64.1219C25.4334 63.2427 27.4362 62.4861 29.5975 61.6689C29.4002 61.0205 29.2199 60.4265 29.028 59.7966C26.05 59.9988 24.5281 61.7186 23.1077 64.1219ZM31.9891 81.1062C34.7439 80.4779 36.9998 79.4922 38.6537 77.1139C34.924 76.2387 33.9192 79.1862 31.9891 81.1062ZM39.7769 72.9931C39.0185 73.8142 38.5927 74.2424 38.2241 74.7051C38.1549 74.7921 38.3148 75.018 38.3696 75.1793C40.0966 74.9265 40.0966 74.9265 39.7769 72.9931ZM34.3975 66.6325C35.8504 65.4757 35.8504 65.4757 34.6327 63.9829C34.5404 65.0224 34.4791 65.7064 34.3975 66.6325Z" fill="#FEC94E" fill-opacity="0.44"/>
<path d="M38.8952 151.621C39.8869 151.374 40.8776 151.127 41.8693 150.88C41.9582 151.078 42.0473 151.276 42.1351 151.475C41.2098 152.166 40.2857 152.856 38.9902 153.822C38.9926 152.852 38.9953 152.169 38.9966 151.486L38.8952 151.621Z" fill="#BB9F87" fill-opacity="0.5"/>
<path d="M60.2403 124.618C59.7179 125.497 59.2399 126.303 58.7449 127.135C57.4563 125.292 57.6223 124.991 60.2403 124.618Z" fill="#BB9F87" fill-opacity="0.5"/>
<path d="M51.9609 133.233C52.7238 132.708 53.4868 132.183 54.2497 131.658C54.3963 131.768 54.5428 131.877 54.6906 131.987C54.2655 132.826 53.8394 133.667 53.2551 134.82C52.6658 134.017 52.3482 133.585 52.0253 133.158C52.02 133.164 51.9609 133.233 51.9609 133.233Z" fill="#BB9F87" fill-opacity="0.5"/>
<path d="M63.3051 100.271C64.4272 100.194 65.1848 100.341 64.9249 101.453C64.8732 101.675 64.47 102.042 64.2577 102.049C63.0999 102.089 62.9778 101.408 63.3051 100.271Z" fill="#BB9F87" fill-opacity="0.5"/>
<path d="M61.6978 76.8283C61.199 76.3562 60.7629 76.119 60.6405 75.7587C60.5708 75.5514 61.0077 75.1439 61.2173 74.8266C61.6041 75.0447 62.1126 75.1853 62.3261 75.5117C62.4371 75.6783 62.0254 76.1762 61.6978 76.8283Z" fill="#BB9F87" fill-opacity="0.5"/>
<path d="M22.9647 26.4998C22.4327 26.1044 21.9006 25.709 21.0462 25.0739C22.8529 24.5306 23.3664 24.9832 22.9647 26.4998Z" fill="#BB9F87" fill-opacity="0.5"/>
<path d="M50.4635 48.4159C50.049 48.1963 49.6133 48 49.2443 47.7289C49.1966 47.6938 49.4959 47.2762 49.6349 47.0348C50.0934 47.2657 50.5519 47.4966 51.0104 47.7275C50.8273 47.9575 50.6455 48.1872 50.4635 48.4159Z" fill="#BB9F87" fill-opacity="0.5"/>
<path d="M62.4625 112.618C62.1302 112.125 61.7735 111.854 61.8097 111.58C61.8479 111.294 62.265 111.005 62.5158 110.716C62.7676 110.925 63.2199 111.111 63.221 111.351C63.2217 111.653 62.8539 112.002 62.4625 112.618Z" fill="#BB9F87" fill-opacity="0.5"/>
<path d="M61.0975 96.0712C61.6298 95.5693 61.9132 95.1194 62.1834 95.0931C62.5193 95.0605 62.8455 95.3774 63.1753 95.5437C62.9161 95.8389 62.7007 96.2653 62.385 96.3883C62.1159 96.493 61.7313 96.245 61.0975 96.0712Z" fill="#BB9F87" fill-opacity="0.5"/>
<path d="M61.0883 66.5575C60.6138 67.025 60.3511 67.4375 60.0006 67.5716C59.796 67.6492 59.2045 67.2929 59.2195 67.1101C59.2443 66.8081 59.5745 66.3199 59.8602 66.2231C60.1564 66.1215 60.5527 66.393 61.0883 66.5575Z" fill="#BB9F87" fill-opacity="0.5"/>
</svg>
