<svg width="193" height="184" viewBox="0 0 193 184" fill="none" xmlns="http://www.w3.org/2000/svg">
<g opacity="0.5">
<path d="M21.3187 122.484C23.6106 121.123 25.9726 120.167 28.6239 122.552C31.9712 125.565 35.8487 127.809 39.2136 130.801C41.7382 133.046 42.4657 136.613 41.8279 140.33C40.8321 146.119 38.1518 151.149 35.3945 156.111C33.401 159.698 30.7745 162.532 27.7487 164.883C24.8929 167.101 21.6693 167.039 19.2531 164.612C15.7024 161.042 12.2387 157.361 8.75562 153.702C7.2251 152.095 6.74705 149.984 6.82815 147.559C6.97585 143.186 8.68975 139.377 10.4445 135.582C13.1133 129.814 16.3977 125.853 21.3187 122.484ZM29.1049 142.936C28.4623 144.283 27.8179 145.632 27.0849 147.166C27.889 147.753 28.4979 148.198 29.0201 148.58C29.3032 147.723 29.4823 147.185 29.7007 146.525C31.794 147.996 33.5525 149.813 36.8719 149.532C35.5932 148.595 34.8799 148.145 34.2399 147.586C32.4707 146.046 30.7311 144.46 28.9791 142.892C29.6462 143.021 30.3921 142.977 30.9645 143.307C33.0835 144.528 34.9249 146.405 37.7926 146.116C36.3858 144.88 34.9807 143.643 33.5167 142.358C36.0202 139.813 36.0202 139.813 38.6482 140.643C38.6165 139.716 38.6575 138.834 38.5465 137.987C38.1822 135.256 36.8769 133.786 34.8441 133.722C32.9812 133.663 31.3303 135.253 30.5915 137.813C30.0949 139.523 29.5952 141.228 29.1049 142.936ZM16.7239 129.372C13.1526 133.183 11.57 137.97 9.63395 142.415C12.7147 145.445 15.3432 148.341 18.7012 150.001C18.8722 149.762 19.0433 149.524 19.2126 149.287C18.0498 148.016 16.8897 146.746 15.7286 145.474C15.8828 145.232 16.036 144.988 16.1902 144.746C17.4659 145.633 18.7415 146.52 19.9773 147.379C22.049 143.897 24.0039 140.617 26.0422 137.192C22.9284 134.577 20.003 132.124 16.7239 129.372ZM33.2825 155.571C33.4103 155.25 33.5381 154.929 33.666 154.608C31.6679 153.013 29.6795 151.4 27.6635 149.836C27.1669 149.45 26.5739 149.222 26.2049 149.022C24.4774 151.143 22.9673 153.077 21.3832 154.922C19.5197 157.093 19.114 159.38 20.2796 161.75C21.0877 163.394 22.7423 163.781 25.2776 162.887C24.5413 160.946 22.0674 160.488 21.8985 157.276C23.2264 158.265 24.134 158.94 25.3846 159.871C24.8445 158.573 24.4999 157.739 24.1552 156.906C24.28 156.759 24.4055 156.608 24.5303 156.461C25.8971 157.49 27.2627 158.517 28.6278 159.547C28.7245 159.394 28.8212 159.241 28.919 159.091C28.2281 158.053 27.5389 157.015 26.848 155.977C27.0232 155.769 27.2002 155.559 27.3755 155.351C28.5656 156.19 29.7567 157.032 31.3842 158.182C30.8013 156.617 30.4243 155.604 29.8368 154.027C31.3493 154.704 32.3145 155.137 33.2825 155.571ZM34.8004 131.242C32.0442 127.402 28.4766 125.629 24.975 123.826C23.7842 123.214 22.4021 123.656 21.5384 125.438C23.8524 129.049 27.5496 130.514 30.4094 133.307C31.751 132.675 33.0645 132.059 34.8004 131.242ZM17.4101 158.868C18.0108 156.319 17.5638 154.856 16.3757 153.782C14.6246 152.203 12.8397 150.674 11.0311 149.184C10.5798 148.813 9.98253 148.672 9.45166 148.426C9.3077 148.646 9.16375 148.866 9.01979 149.086C11.0036 153.043 14.1601 155.685 17.4101 158.868ZM27.5413 139.59C24.1604 142.937 21.8875 147.052 20.6918 151.914C24.2332 148.678 25.8621 144.118 27.5413 139.59ZM11.7806 146.665C11.6411 146.885 11.5007 147.102 11.3612 147.321C13.5647 148.848 14.9703 151.629 18.5521 152.451C15.8929 150.177 13.8364 148.423 11.7806 146.665Z" fill="#B5BF65"/>
</g>
<g opacity="0.5">
<path d="M143.266 74.3795C145.453 76.0206 147.38 77.9346 147.015 81.8065C146.551 86.6963 146.926 91.7389 146.487 96.6356C146.157 100.31 143.926 102.824 140.876 104.031C136.124 105.908 131.051 105.703 125.988 105.386C122.327 105.156 118.888 103.911 115.596 102.02C112.489 100.235 110.858 96.942 111.376 93.2872C112.141 87.9144 113.033 82.5739 113.898 77.2254C114.278 74.8753 115.573 73.3392 117.389 72.2127C120.665 70.1826 124.342 70.0183 128.03 69.903C133.637 69.7288 138.242 71.0785 143.266 74.3795ZM132.355 92.4533C131.035 92.4746 129.713 92.4948 128.21 92.5176C128.199 93.6237 128.19 94.4618 128.182 95.1809C128.956 95.0402 129.443 94.9533 130.039 94.8453C130.052 97.6969 129.637 100.382 131.568 103.602C131.589 101.841 131.547 100.895 131.623 99.9682C131.83 97.4098 132.085 94.8589 132.321 92.3044C132.574 93.0436 132.994 93.7767 133.05 94.5202C133.259 97.2734 132.843 100.073 134.546 102.831C134.718 100.791 134.893 98.7525 135.071 96.6301C138.234 97.8956 138.234 97.8955 138.994 100.969C139.656 100.475 140.322 100.077 140.884 99.5423C142.692 97.8122 143.088 95.7585 142.079 93.6691C141.153 91.7547 139.131 90.8764 136.874 91.4048C135.365 91.7546 133.859 92.0983 132.355 92.4533ZM135.838 73.1629C131.193 71.4479 126.869 72.2323 122.611 72.4883C121.996 77.1167 121.245 81.2198 121.777 85.4457C122.04 85.5 122.304 85.5543 122.565 85.6075C122.89 83.7973 123.216 81.9902 123.542 80.1811C123.8 80.2166 124.058 80.2501 124.315 80.2856C124.329 82.0185 124.344 83.7515 124.358 85.4305C127.982 85.7917 131.398 86.1352 134.963 86.4908C135.257 82.0365 135.53 77.8528 135.838 73.1629ZM125.284 102.979C125.586 102.949 125.887 102.918 126.188 102.887C126.316 100.07 126.462 97.2538 126.558 94.4338C126.582 93.7389 126.44 93.0254 126.394 92.5523C123.945 91.8608 121.745 91.2966 119.572 90.6131C117.015 89.8091 115.131 90.5385 114.003 92.8996C113.221 94.5367 113.799 96.4041 115.771 98.5242C116.808 96.8118 115.856 94.08 118.118 92.3077C118.085 94.1449 118.063 95.3999 118.032 97.1296C118.701 95.9356 119.132 95.1714 119.562 94.4072C119.735 94.4602 119.91 94.5123 120.082 94.5653C120.04 96.4613 120 98.3553 119.956 100.25C120.118 100.272 120.28 100.294 120.441 100.317C120.841 99.1011 121.242 97.886 121.642 96.6697C121.885 96.7431 122.131 96.8177 122.374 96.8911C122.379 98.5141 122.383 100.139 122.388 102.359C123.229 100.99 123.774 100.103 124.622 98.7222C124.914 100.59 125.098 101.783 125.284 102.979ZM143.87 92.3889C145.245 87.6858 144.687 83.1911 144.185 78.7487C144.014 77.2384 142.972 76.0601 141.219 76.0745C139.781 80.2162 140.632 84.6881 140.076 88.9743C141.236 90.017 142.369 91.0395 143.87 92.3889ZM114.619 88.5592C116.796 87.8962 117.634 86.7148 117.802 84.9772C118.046 82.4177 118.236 79.8496 118.386 77.2763C118.423 76.6345 118.216 75.9597 118.119 75.3C117.883 75.264 117.647 75.228 117.412 75.192C115.549 79.1718 115.258 83.6831 114.619 88.5592ZM133.988 89.2036C129.782 87.45 125.591 87.2006 121.413 88.414C125.621 90.385 129.804 89.7606 133.988 89.2036ZM120.618 76.7794C120.385 76.7476 120.153 76.7138 119.92 76.682C119.95 79.6728 118.646 82.4817 119.907 86.516C120.188 82.6916 120.401 79.736 120.618 76.7794Z" fill="#B5BF65"/>
</g>
<g opacity="0.5">
<path d="M34.4055 19.4679C36.1672 23.9519 37.6649 28.1663 37.4171 33.1059C37.2787 35.8649 36.2277 37.6419 34.2948 39.155C30.4326 42.1784 26.3644 42.5414 22.1498 41.4871C19.5005 40.8232 16.7388 40.4248 14.2692 39.2792C12.186 38.3136 10.4833 36.346 9.70437 33.7453C8.57049 29.9675 7.56037 26.1295 6.55589 22.2926C5.57309 18.5444 7.11822 15.1599 8.75603 12.1229C10.1054 9.61892 12.7569 9.34996 15.0914 9.36403C17.7319 9.38156 20.378 9.55324 22.9797 9.93735C28.3974 10.7415 31.8943 14.5806 34.4055 19.4679ZM27.3111 18.6712C27.183 18.0928 27.0531 17.5158 26.9139 16.8905C27.612 16.3498 28.2712 15.8423 29.0111 15.269C25.7419 12.4087 25.0857 12.4082 21.779 15.2187C22.7745 17.0755 23.7733 18.9381 24.7709 20.7988C25.042 20.5767 25.3119 20.3527 25.5812 20.1319C25.0411 19.2239 24.5011 18.3159 23.9593 17.4093C24.754 17.1241 25.47 17.2419 25.5924 17.6386C25.9248 18.7165 26.4262 18.9959 27.3307 18.5669C28.5115 18.6953 29.6924 18.8239 30.8732 18.9523C30.869 18.5888 30.8647 18.2253 30.8622 17.8604C29.679 18.1284 28.4951 18.3998 27.3111 18.6712ZM20.1971 17.7758C18.9051 23.0003 20.2923 27.5286 22.0763 31.9175C22.2694 32.3925 23.1665 32.8418 23.591 32.6808C24.038 32.5107 24.6343 31.5518 24.6029 31.0176C24.3151 26.0698 22.8284 21.6774 20.1971 17.7758ZM35.2773 31.7092C35.3314 29.0547 35.5727 26.5491 33.3822 25.9032C31.1209 25.2375 28.6543 25.3403 26.2359 25.1026C26.3141 29.2437 26.5683 29.685 29.3829 30.3952C31.1872 30.8526 33.0133 31.2096 35.2773 31.7092ZM18.5266 27.8165C18.0572 26.8201 17.754 25.1192 17.0876 24.9516C14.6553 24.3328 12.2598 23.0822 9.17909 23.6436C10.7176 29.2018 14.8529 27.4193 18.5266 27.8165ZM33.1882 36.7011C31.393 36.1115 29.8941 35.5887 28.3751 35.1288C26.8876 34.6805 25.3736 34.0584 23.7093 35.3402C28.2145 40.5232 28.663 40.5991 33.1882 36.7011ZM10.6811 29.4332C11.1958 30.7278 11.3207 31.8588 11.8711 32.2808C14.2995 34.1448 17.1378 34.1141 20.1332 33.8942C19.9239 31.7728 19.4421 30.4972 17.4361 30.4413C15.369 30.3831 13.3344 29.8521 10.6811 29.4332ZM11.6603 13.6527C15.3444 15.5507 18.6921 15.0844 21.1223 12.2309C17.845 11.8559 14.6568 10.525 11.6603 13.6527ZM17.0575 17.9244C17.1326 17.5464 17.2086 17.1704 17.2837 16.7924C14.832 16.625 12.4064 16.0094 9.90488 16.6395C9.88233 16.896 9.86153 17.1512 9.83899 17.4078C12.2457 17.5795 14.6525 17.7513 17.0575 17.9244ZM28.8084 32.4655C30.2312 33.9229 31.8418 34.4448 33.6987 33.8441C32.068 33.385 30.4373 32.9259 28.8084 32.4655Z" fill="#B5BF65"/>
</g>
<g opacity="0.5">
<path d="M178.51 138.774C178.854 139.386 179.192 140.163 179.665 140.801C182.277 144.321 183.556 148.406 183.53 153.213C183.498 158.931 182.425 164.419 180.403 169.718C179.917 170.989 179.101 172.143 178.308 173.229C177.122 174.857 175.74 175.376 173.864 174.912C169.949 173.944 165.935 173.421 161.999 172.531C160.907 172.283 159.796 171.598 158.966 170.76C156.475 168.241 155.735 164.783 155.967 160.96C156.385 154.096 157.637 147.512 161.374 141.651C163.848 137.775 164.472 137.464 168.326 138.008C171.568 138.462 174.87 138.517 178.51 138.774ZM163.323 148.642C162.412 148.278 161.501 147.917 160.103 147.361C159.34 151.524 158.65 155.145 158.022 158.775C157.768 160.244 158.242 161.325 159.585 161.522C161.929 161.865 164.287 162.12 166.542 162.399C167.035 158.58 167.488 155.074 167.937 151.593C166.194 151.087 164.455 150.583 162.477 150.01C162.882 149.312 163.114 148.912 163.35 148.49C164.271 148.885 165.19 149.409 166.059 147.832C165.149 148.102 164.236 148.372 163.323 148.642ZM172.692 159.613C175.555 160.048 178.201 160.451 181.173 160.902C181.35 158.027 181.502 155.59 181.664 152.949C178.534 152.727 175.851 152.536 172.984 152.334C172.889 154.715 172.803 156.834 172.692 159.613ZM172.329 140.978C165.406 139.219 164.423 139.375 161.655 145.759C162.989 145.926 164.232 146.082 165.493 146.239C165.588 145.256 165.651 144.591 165.727 143.8C167.374 143.97 168.86 144.123 170.415 144.285C171.083 143.132 171.689 142.083 172.329 140.978ZM179.156 165.595C176.498 165.266 174.056 164.962 171.517 164.646C171.252 165.515 171.038 166.217 170.769 167.1C172.165 167.461 173.4 167.85 174.662 168.09C176.039 168.352 177.443 168.47 179.112 168.69C179.572 166.819 180.042 164.908 180.511 162.992C174.238 161.448 174.238 161.449 172.101 162.721C173.745 163.058 174.998 163.289 176.238 163.574C177.315 163.817 178.943 163.054 179.156 165.595ZM179.35 143.972C178.394 142.132 177.598 140.672 175.983 141.036C173.959 141.492 172.732 143.459 172.064 145.524C171.54 147.144 171.657 148.966 173.28 150.311C173.99 148.245 176.151 147.289 175.73 144.736C175.706 144.599 176.382 144.111 176.752 144.048C177.455 143.925 178.176 143.99 179.35 143.972ZM170.466 150.908C168.221 157.338 167.969 160.65 169.327 164.069C170.606 159.881 171.454 155.879 170.466 150.908ZM169.363 170.777C168.917 170.17 168.555 169.143 168.011 169.031C165.296 168.472 162.534 168.154 159.388 167.692C162.017 171.818 166.147 169.551 169.363 170.777ZM171.422 169.287C171.43 172.448 174.571 170.122 175.118 172.238C175.153 172.374 175.996 172.387 176.302 172.157C176.689 171.864 176.908 171.261 177.333 170.581C175.204 170.116 173.345 169.709 171.422 169.287Z" fill="#B5BF65"/>
</g>
<g opacity="0.5">
<path d="M69.6151 64.2179C71.2261 65.4743 72.8853 66.6626 74.4391 68.005C76.4484 69.7398 76.5587 70.2018 75.6442 72.849C73.747 78.3415 71.7631 83.7924 69.8725 89.2858C68.8952 92.1289 68.0735 95.0462 67.1048 97.8911C66.9309 98.4011 66.4584 98.9043 65.9975 99.1178C63.6186 100.23 61.0651 101.093 58.4646 100.102C53.5891 98.2418 49.3421 95.1342 45.9736 90.6034C45.0207 89.3216 44.5382 88.1216 45.2167 86.4737C48.4838 78.5509 51.5982 70.5454 54.8879 62.6366C56.4001 59.0016 58.3837 58.4341 61.709 60.2382C64.3007 61.6435 66.9033 63.0194 69.5012 64.4078C69.5405 64.3452 69.5778 64.2815 69.6151 64.2179ZM57.7691 96.3214C60.6566 87.7369 63.544 79.1524 66.4959 70.3803C64.3465 69.0951 62.3629 67.9068 59.9669 66.4734C57.5289 75.8003 53.5694 84.1568 51.5802 93.5169C52.822 94.2596 53.7956 94.8433 54.9331 95.5229C55.8477 92.9384 56.4688 90.4021 57.598 88.2099C58.665 86.1363 58.3001 83.1129 60.7279 81.8802C60.565 87.0165 57.8665 91.2119 57.7691 96.3214ZM50.4032 86.9543C50.6841 87.0974 50.9631 87.2395 51.2429 87.3795C53.8498 80.1422 56.4566 72.9049 59.131 65.4842C57.9727 64.9492 57.2829 64.6329 56.5112 64.2749C55.5981 66.3267 54.7475 68.165 53.9554 70.0331C51.6949 75.3606 49.452 80.6971 47.215 86.0365C46.7329 87.1884 46.3012 88.3735 48.0101 89.2065C48.6007 87.6215 49.0301 85.9393 49.8174 84.5121C50.5359 83.2151 50.2299 81.0508 52.5452 80.3819C52.1867 81.8146 51.9914 82.8422 51.6678 83.8093C51.3088 84.8912 50.8297 85.9093 50.4032 86.9543ZM70.8636 72.8831C67.9599 80.9834 64.9195 88.7688 63.1839 97.2013C64.1434 96.4704 65.0471 95.6709 65.4349 94.6113C67.6483 88.5936 69.7662 82.5271 71.8403 76.441C72.2094 75.3693 72.678 74.0402 70.8636 72.8831ZM74.2677 70.8679C69.7805 66.0026 64.4637 64.4791 59.0058 61.4384C61.8429 65.4557 70.1856 70.5842 74.2677 70.8679ZM60.7848 93.0264C61.0248 93.1863 61.2648 93.3461 61.5076 93.5048C64.0752 86.3427 66.6448 79.1816 69.2403 71.9435C68.7115 71.8319 68.3218 71.701 68.3043 71.7547C65.7783 78.8354 63.2815 85.9309 60.7848 93.0264Z" fill="#B5BF65"/>
<path d="M62.5663 74.8845C63.8357 77.6611 62.4476 78.7493 61.4078 80.4865C60.2055 78.0244 61.407 76.804 62.5663 74.8845Z" fill="#B5BF65"/>
</g>
</svg>
