<svg width="110" height="401" viewBox="0 0 110 401" fill="none" xmlns="http://www.w3.org/2000/svg">
<path opacity="0.44" d="M59.6378 153.284C63.5984 165.422 65.0222 177.981 66.9476 190.385C67.7911 195.822 67.0358 201.525 66.4364 206.941C64.9219 220.62 62.048 233.789 58.9041 246.842C58.2378 249.604 57.8943 252.517 57.4371 255.375C56.0386 264.119 54.7208 272.894 53.2537 281.612C51.3476 292.925 46.4504 302.138 41.0073 311.068C33.7766 322.929 24.7465 332.715 16.0571 342.85C12.589 346.896 7.77434 349.357 3.41654 352.237C-3.91346 357.076 -11.5121 361.406 -19.9817 363.397C-28.5073 365.399 -37.0283 367.806 -45.7819 368.442C-63.1888 369.708 -80.279 365.08 -96.611 354.439C-103.886 349.699 -111.284 345.152 -118.216 339.684C-124.359 334.838 -129.979 328.908 -135.746 323.322C-139.462 319.722 -143.267 316.162 -146.613 312.091C-156.393 300.196 -165.963 288.056 -175.616 276.013C-180.244 270.239 -184.708 264.309 -187.623 257.105C-190.704 249.494 -192.951 241.644 -194.14 233.501C-195.724 222.627 -197.314 211.752 -199.038 200.891C-200.065 194.419 -199.337 188.282 -198.47 182.223C-196.732 170.065 -194.879 158.023 -194.834 145.327C-194.809 138.142 -192.842 131.202 -191.541 124.236C-189.55 113.568 -184.123 105.374 -178.981 97.0881C-166.948 77.6902 -151.391 63.0439 -134.017 50.7351C-125.878 44.9693 -117.054 40.8617 -108.357 36.4654C-98.7801 31.6237 -88.1355 30.8168 -77.3615 31.7271C-66.5331 32.6421 -55.6673 33.8567 -44.8428 35.7851C-40.1468 36.6222 -35.4346 39.2924 -30.8773 41.6513C-27.149 43.5798 -23.664 46.3559 -20.0237 48.6303C-14.4621 52.1063 -8.68862 55.0795 -3.32448 58.9884C3.2255 63.7602 9.63586 68.9534 15.7607 74.5493C26.0326 83.9325 32.7981 96.9377 40.2653 109.138C45.8441 118.253 50.6693 127.901 54.5071 138.091C56.3857 143.082 57.9382 148.214 59.6378 153.284ZM-7.29018 256.579C-6.18782 258.009 -5.08604 259.436 -3.98368 260.866C-3.79942 260.621 -3.61582 260.373 -3.43222 260.126C-4.7377 258.982 -6.04136 257.838 -7.34683 256.694C-6.62217 253.441 -8.72401 251.13 -9.96916 248.015C-10.6144 249.016 -11.0658 249.714 -11.4465 250.303C-9.91705 252.614 -8.60455 254.597 -7.29018 256.579ZM-20.0742 240.068C-18.9977 241.535 -17.9193 243.002 -16.3772 245.103C-16.0557 243.536 -15.604 242.676 -15.7799 241.952C-16.5984 238.57 -18.7625 241.319 -20.1203 240.177C-26.9535 232.311 -34.5171 225.922 -42.9275 220.868C-46.5128 218.714 -49.8729 215.367 -52.7681 211.886C-55.4547 208.655 -57.9757 206.496 -61.5948 207.113C-61.0886 213.927 -57.0457 220.327 -51.6394 222.924C-48.543 224.413 -45.3662 225.629 -42.3338 227.314C-34.8806 231.457 -27.4899 235.8 -20.0742 240.068ZM-14.5603 216.238L-14.4338 216.302C-17.1513 216.229 -19.8781 216.052 -22.5799 216.117C-24.6648 216.167 -26.808 217.246 -28.3604 213.977C-28.4965 213.688 -29.4978 213.905 -31.0446 213.856C-26.9899 218.242 -23.7497 221.874 -20.395 225.344C-17.0153 228.837 -13.4078 232.017 -10.1183 235.622C-7.76972 238.195 -5.44401 241.014 -3.72236 244.157C-2.06586 247.179 -1.0311 250.703 -0.0232012 254.099C1.69185 259.873 3.51388 265.673 4.61984 271.554C5.28264 275.082 4.77294 278.806 4.59586 282.404C4.47144 284.931 3.82892 287.358 3.77076 289.889C3.72249 291.973 3.54313 293.666 1.71759 294.269C0.58114 291.241 0.0784708 288.22 0.0333331 284.969C-0.0968717 275.553 -2.0983 266.722 -8.77777 259.723C-9.69674 258.761 -10.3892 257.481 -11.2086 256.369C-16.993 248.521 -23.3395 241.815 -31.3382 237.271C-40.7455 231.926 -50.8323 228.659 -60.1349 220.484C-59.0666 224.196 -58.2225 227.128 -57.3777 230.064C-57.5281 230.114 -57.6774 230.162 -57.8278 230.213C-58.2055 229.524 -58.5832 228.835 -59.3301 227.472C-59.2192 229.571 -59.5619 231.291 -58.9889 232.446C-56.8625 236.746 -57.8445 240.833 -58.4134 244.706C-60.0229 255.676 -61.9918 266.53 -63.9774 277.368C-64.9858 282.871 -66.3229 288.217 -69.4412 292.472C-71.7163 295.578 -73.7178 298.976 -75.9659 302.113C-78.2804 305.344 -80.0227 308.814 -79.2113 313.637C-80.2341 314.211 -81.0757 314.686 -81.9543 315.181C-81.3619 315.816 -80.8621 316.349 -80.6906 316.534C-81.7971 318.892 -82.7262 320.869 -83.606 322.74C-82.713 323.804 -82.1078 324.526 -81.3822 325.39C-82.3837 326.208 -83.2915 326.686 -83.8953 327.499C-85.3685 329.475 -81.9685 330.001 -82.5608 330.967C-84.4271 334.014 -81.1323 334.726 -80.3675 336.47C-82.2503 337.477 -83.8933 338.354 -85.8774 339.412C-83.4606 340.324 -81.6923 340.994 -79.9267 341.662C-79.9117 342.054 -79.8979 342.449 -79.8829 342.841C-81.539 343 -83.1963 343.161 -85.4869 343.381C-83.3029 344.576 -81.7624 345.417 -80.2213 346.261C-80.2173 346.601 -80.2159 346.939 -80.2137 347.279C-81.4578 347.786 -82.7011 348.295 -84.5849 349.064C-82.4136 350.214 -81.0003 350.961 -78.8481 352.101C-80.3503 352.915 -81.1568 353.349 -82.065 353.84C-80.5741 354.842 -79.3511 355.664 -77.8909 356.645C-78.7721 357.562 -79.2348 358.044 -80.0633 358.911C-78.0568 359.687 -76.3892 360.333 -74.2932 361.143C-72.3006 357.636 -70.1565 354.394 -68.4916 350.789C-66.84 347.216 -65.672 343.28 -64.2931 339.503C-63.2626 344.344 -65.0404 347.769 -66.555 351.279C-68.0508 354.749 -69.7062 358.104 -71.3582 361.654C-65.9594 363.601 -64.5192 362.955 -62.4157 358.282C-59.5212 351.855 -57.9903 344.853 -57.7442 337.247C-57.6153 333.234 -57.2518 329.264 -56.9932 325.277C-56.6876 325.34 -56.3825 325.401 -56.0788 325.466C-56.0122 329.768 -55.747 334.11 -55.9328 338.364C-56.129 342.858 -56.4558 347.388 -57.2765 351.681C-58.0358 355.664 -59.5233 359.353 -60.8138 363.572C-56.2498 363.922 -52.178 364.29 -48.1145 364.501C-47.171 364.55 -46.0215 364.409 -45.3691 363.779C-39.6572 358.275 -36.256 351.144 -36.04 341.699C-35.9601 338.237 -35.3776 334.859 -34.9486 331.463C-34.8455 330.646 -34.4464 329.923 -34.1823 329.155C-33.7384 336.666 -33.813 343.948 -34.6113 351.017C-34.9986 354.458 -36.6974 357.527 -37.8886 360.71C-38.226 361.612 -38.8689 362.317 -39.4813 363.284C-35.0094 363.923 -33.0971 361.128 -31.8686 357.261C-31.5189 356.16 -31.0618 355.107 -30.8118 353.965C-29.0606 345.923 -27.2945 337.947 -26.8187 329.368C-26.3317 320.567 -26.6274 311.97 -29.1858 303.237C-29.4746 302.255 -29.4102 301.169 -29.5096 300.129C-29.1789 300.075 -28.8482 300.02 -28.5194 299.966C-27.9446 301.517 -27.1117 303.037 -26.8389 304.622C-25.7241 311.087 -24.4877 317.506 -24.8486 324.063C-25.423 334.472 -26.0441 344.812 -29.0494 354.409C-29.6665 356.379 -30.0118 358.501 -30.6086 361.094C-27.4576 360.641 -24.8693 360.456 -22.4045 359.815C-21.4862 359.579 -20.7722 358.363 -20.1188 357.433C-19.6032 356.697 -19.4447 355.583 -18.9182 354.863C-16.3345 351.335 -15.5047 346.911 -15.2004 342.176C-15.0848 340.375 -14.8585 338.599 -14.6822 336.811C-13.296 343.652 -15.0309 349.726 -16.2341 357.009C-14.0339 356.376 -12.4581 356.2 -11.1225 355.488C-6.27972 352.905 -1.65032 349.8 3.3208 347.564C6.78734 346.006 7.25576 342.776 7.28409 339.072C7.29995 337.01 6.70602 334.868 6.49663 332.76C6.36216 331.408 6.42879 330.053 6.40522 328.697L6.32506 328.652C7.36801 333.302 8.40902 337.953 9.47183 342.693C13.6532 341.962 14.0726 336.381 17.1504 334.909C16.6317 333.107 15.9806 331.666 15.8382 330.223C14.594 317.615 9.41518 307.1 1.72889 297.856C0.59424 296.491 -0.420667 294.983 -1.4905 293.539C-1.31389 293.289 -1.13786 293.036 -0.963134 292.787C-0.0568381 293.238 0.847589 293.689 1.75511 294.137C5.95528 299.603 10.1603 305.136 12.6923 311.879C15.1886 318.527 17.2543 325.357 19.5205 332.147C25.2033 328.674 25.9876 322.902 24.1321 315.832C23.3212 312.746 22.3767 309.69 21.4937 306.622C21.7508 306.546 22.0099 306.469 22.267 306.392C23.8922 312.039 25.5174 317.685 27.1607 323.394C29.8759 321.775 30.1308 319.177 29.3521 316.195C28.7692 313.965 28.1295 311.692 27.1873 309.616C25.2454 305.333 23.0874 301.17 21.0174 296.959C26.188 302.681 28.5057 310.231 31.67 317.982C35.0641 312.872 38.1251 308.263 40.8028 304.233C40.8472 298.843 36.2003 298.729 34.7884 295.083C36.5437 294.215 37.9747 295.073 39.17 296.039C40.488 297.106 41.575 298.631 42.78 299.978C45.7467 295.239 45.8205 294.589 42.8 290.248C40.4294 286.841 37.8194 283.664 35.316 280.383C35.439 280.131 35.5613 279.876 35.6869 279.625C39.2725 283.798 42.8557 287.97 46.8429 292.611C47.8322 288.911 48.6836 285.73 49.5159 282.61C43.7639 273.438 36.6216 266.615 28.9652 260.796C21.2723 254.949 12.9687 250.819 4.08673 249.182C6.3224 247.072 8.78708 247.804 11.1566 248.75C24.1241 253.939 35.9982 261.589 45.6815 274.146C46.7961 275.589 48.2276 276.69 49.7157 278.15C51.6444 272.778 46.0498 271.318 45.654 267.118C47.5096 268.863 49.1301 270.386 51.094 272.232C52.432 264.036 55.6305 256.597 49.866 248.514C49.78 248.393 49.9699 247.997 50.1005 247.425C51.3479 248.891 52.4897 250.231 53.9302 251.922C54.5867 248.665 55.1434 245.905 55.6073 243.608C51.8414 238.61 48.4421 234.101 45.0429 229.591C45.1347 229.393 45.2264 229.195 45.3182 228.997C48.8962 232.619 52.4754 236.239 56.074 239.884C57.6657 237.618 57.0765 235.677 55.5486 233.633C53.603 231.03 51.7579 228.322 49.8686 225.66C50.0514 225.473 50.2341 225.287 50.4168 225.1C52.726 227.692 55.0326 230.283 57.8421 233.437C58.8876 227.999 59.7344 223.209 60.7444 218.49C61.2449 216.157 60.5823 214.422 59.0046 212.857C56.5224 210.393 54.0482 207.914 51.569 205.439C51.6973 205.17 51.8275 204.9 51.9565 204.633C55.0643 207.104 58.1741 209.574 61.5382 212.248C61.827 211.014 61.9502 210.196 62.2034 209.454C63.5928 205.374 63.0875 201.919 59.3361 199.167C58.3743 198.459 57.7287 197.044 56.9392 195.951C58.9878 197.043 61.0363 198.135 63.1472 199.259C65.4405 194.042 60.332 193.776 58.3301 190.765C60.3195 191.283 61.6573 191.632 63.0197 191.99C63.2196 182.594 62.5183 182.473 56.4062 179.067C54.2193 177.849 51.8166 177.311 49.5029 176.53C47.0067 175.689 44.4992 174.928 41.9955 174.132C42.0401 173.755 42.0827 173.38 42.1279 173.006C48.3756 174.787 54.6252 176.568 61.3722 178.491C60.8505 175.645 60.4452 173.436 59.9527 170.748C53.779 170.25 47.8319 169.768 41.5793 169.266C47.3376 166.649 53.5644 168.896 59.7135 168.048C58.9775 165.023 58.3242 162.336 57.6049 159.37C53.8163 160.46 50.4161 161.476 46.9929 162.414C43.539 163.357 40.1013 164.392 36.5854 165.071C32.9124 165.777 29.1776 166.269 25.4254 166.551C21.8204 166.821 18.1531 166.655 14.522 166.764C8.02618 166.96 5.60301 166.698 4.12722 165.295C13.2666 164.838 22.1921 164.516 31.0774 163.912C40.1207 163.299 48.3169 159.799 56.6189 156.255C55.7292 153.164 54.9803 150.562 54.2348 147.972C50.1756 149.822 46.6659 151.938 42.8612 153.015C39.002 154.108 35.63 157.369 30.1963 155.845C35.7955 153.653 40.6619 151.96 45.3517 149.822C47.6687 148.766 49.7643 147.047 51.7595 145.319C53.0273 144.222 53.2194 142.511 51.5876 140.913C44.6324 146.495 31.4026 153.274 25.745 153.812C27.741 152.568 29.0323 151.666 30.3972 150.928C35.2369 148.313 40.1642 145.882 44.934 143.124C47.2911 141.761 49.5428 140.033 50.6525 136.878C49.9167 135.611 49.2388 134.437 48.4543 133.085C43.0029 136.202 38.4628 140.856 32.196 141.388C37.3159 137.841 43.1011 135.467 47.2232 129.984C46.1883 126.778 45.2695 123.826 43.1631 121.506C37.8152 127.206 37.8152 127.206 35.7904 126.07C37.4474 124.038 39.1058 122.089 40.6793 120.043C41.9383 118.405 41.3045 117.088 39.7696 115.912C34.7826 123.51 22.0185 134.974 17.3513 135.795C18.366 134.788 19.064 134.027 19.8196 133.352C23.82 129.79 27.9103 126.356 31.8163 122.657C33.6437 120.927 35.329 118.894 36.7195 116.659C38.3616 114.022 38.5084 111.042 35.8867 108.242C25.9966 121.739 24.0914 123.56 15.511 127.418C16.7434 126.134 18.0625 124.975 19.4589 123.949C24.3665 120.345 28.5399 115.819 31.8961 110.231C34.664 105.622 34.5027 104.397 30.207 99.491C27.1766 105.468 24.2028 111.471 19.9886 116.698C19.7739 115.952 19.6423 115.714 19.6887 115.628C21.7063 111.854 23.7297 108.085 25.7742 104.334C29.2968 97.8722 28.9541 95.6761 23.0803 89.147C22.5599 91.2331 22.1223 93.1539 21.6039 95.0349C19.5552 102.461 17.0119 109.585 13.0281 115.626C9.25866 121.344 5.18968 126.764 1.24707 132.311C0.528823 133.321 -0.0859495 134.52 -0.991838 135.217C-1.52875 135.632 -2.54242 135.24 -4.18968 135.181C0.000197 129.459 3.35276 124.389 7.13281 119.827C12.5932 113.237 16.5401 105.545 19.0018 96.5589C21.8667 86.0984 22.6625 85.6699 13.2267 77.3437C13.123 77.2524 12.944 77.2963 12.8 77.2772C12.4383 88.4688 11.1088 94.9732 8.3706 98.1697C10.0324 91.1909 11.4913 84.5129 10.8353 77.0929C10.5661 74.0476 9.59241 73.1641 7.49615 72.6289C6.56022 78.7096 6.01564 84.5641 4.73519 90.0851C2.11097 101.403 1.16541 103.336 -1.08909 105.161C0.292877 100.184 1.98766 95.3593 2.95675 90.2435C3.98998 84.7912 4.46484 79.0981 4.89678 73.4402C5.01187 71.9353 4.45095 69.6959 3.53216 68.635C1.94943 66.811 -0.161535 65.6515 -2.30527 64.0167C-1.5113 78.0691 -2.46598 85.6496 -5.43615 89.9025C-2.15357 72.2053 -2.87475 66.1522 -7.45907 60.9307C-7.64637 62.8149 -7.83436 64.4771 -7.97492 66.1483C-8.5452 73.0251 -8.80218 80.006 -9.72122 86.7685C-12.0276 103.75 -18.4132 118.526 -24.2086 133.597C-24.8432 135.244 -25.8911 134.952 -26.9863 133.207C-15.8959 110.958 -9.5509 86.5175 -9.98816 58.8489C-10.7191 58.4762 -11.4805 58.0894 -12.4881 57.5767C-12.8937 62.5404 -13.2588 67.0355 -13.6265 71.5289C-14.4708 67.2076 -14.5738 63.0543 -14.4543 58.9378C-14.3666 55.8933 -15.4672 54.6827 -18.4618 54.7722C-16.3465 68.2322 -18.5976 80.3715 -22.6641 91.9251C-22.5665 88.8298 -22.1497 85.8243 -21.4213 82.9665C-19.2745 74.543 -18.8104 65.8388 -20.2725 56.6944C-21.057 51.788 -21.3428 51.3048 -26.0684 50.0748C-26.246 54.8391 -26.4224 59.6005 -26.5988 64.3619C-26.9073 64.3169 -27.2169 64.2748 -27.5254 64.2298C-27.5984 62.2767 -27.6689 60.3253 -27.7653 57.7175C-34.25 62.6537 -39.9838 67.9898 -45.5366 73.7988C-45.5137 72.2498 -45.2093 70.9706 -44.5001 70.2414C-41.9889 67.6581 -39.3421 65.2554 -36.7373 62.7991C-34.9997 61.1604 -32.5767 60.0061 -31.6761 57.8031C-30.738 55.511 -29.5664 54.3205 -27.5657 53.9643C-27.6539 52.9142 -27.729 52.2214 -27.7707 51.5316C-28.101 46.093 -32.0793 42.9768 -35.5946 47.389C-38.3645 50.8647 -42.3456 52.8588 -44.1822 58.1258C-46.0719 54.7467 -44.6268 53.3235 -43.5157 52.0646C-41.9149 50.2482 -40.0066 48.8205 -38.3518 47.0643C-37.5433 46.2055 -37.0128 44.9824 -36.3579 43.923C-36.6378 43.5946 -36.916 43.2657 -37.196 42.9373C-41.7951 43.2513 -43.6759 48.223 -47.1338 52.0912C-47.1892 46.0004 -43.1371 44.8265 -41.1871 41.66C-45.1973 40.1257 -45.1556 40.1642 -47.047 43.2583C-47.4185 43.8651 -48.2567 44.0331 -49.498 44.769C-49.0191 42.4677 -48.727 41.0608 -48.361 39.302C-52.2777 38.7152 -55.8393 38.1802 -59.6815 37.6047C-58.9 42.5575 -58.2254 46.8342 -57.5516 51.1085C-57.7691 51.1459 -57.9847 51.1827 -58.2022 51.2201C-59.2661 46.6389 -60.3324 42.0559 -61.4344 37.3065C-64.1809 37.1604 -66.4535 37.0395 -68.8225 36.9161C-66.722 45.0992 -64.7559 52.7656 -62.7879 60.4314C-64.1597 58.4482 -64.7438 56.2559 -65.4219 54.0983C-66.9634 49.2027 -68.5275 44.3137 -70.1305 39.4383C-70.9825 36.8461 -72.3398 35.4443 -74.7386 36.7684C-74.5089 37.9418 -74.2894 39.1434 -74.0385 40.341C-72.4356 48.0059 -70.3817 55.6445 -69.3255 63.3431C-67.738 74.9127 -66.8339 86.5226 -65.6791 98.1183C-65.4515 100.403 -65.3757 102.691 -65.2901 104.971C-65.2249 106.692 -65.9184 107.058 -67.3094 106.105C-67.6439 98.6131 -67.8174 91.0997 -68.3529 83.5744C-69.4092 68.7594 -71.4089 54.0443 -76.2726 39.6738C-77.1453 37.095 -78.1202 35.5555 -80.4553 35.7555C-81.3027 35.8278 -82.1603 35.8222 -83.4048 35.8673C-81.8688 41.2037 -80.41 46.2721 -78.9506 51.3427C-79.1041 51.397 -79.2589 51.4542 -79.4124 51.5085C-81.4625 46.4816 -83.5126 41.4547 -85.6207 36.2829C-86.6197 36.4089 -87.4219 36.5111 -88.5782 36.6571C-87.7052 39.6901 -86.9269 42.3945 -86.1485 45.0988L-86.1007 45.0169C-87.7744 42.3102 -89.45 39.6041 -91.2593 36.6815C-92.5626 37.145 -93.7213 37.5592 -94.8448 37.9609C-94.5583 40.153 -94.3235 41.9459 -94.088 43.7412C-94.3134 43.8288 -94.5415 43.9146 -94.7669 44.0022C-95.676 42.267 -96.585 40.5318 -97.6056 38.5864C-98.9889 38.9845 -100.288 39.3583 -101.835 39.8036C-99.3777 47.2353 -95.6064 53.8167 -94.5302 61.3656C-97.333 53.9501 -99.9462 46.4497 -104.496 39.9762C-105.483 40.4194 -106.231 40.7584 -107.086 41.1434C-106.011 45.8071 -102.401 49.0319 -102.136 53.7622C-104.006 50.8244 -105.535 47.6721 -107.285 44.6869C-109.082 41.6168 -110.001 41.6517 -112.023 44.2129C-106.862 55.6879 -101.746 67.0624 -96.6294 78.4369C-96.9195 78.6895 -97.2102 78.9398 -97.5002 79.1924C-98.1282 78.4694 -98.9881 77.8611 -99.3466 77.005C-100.921 73.2399 -102.279 69.3667 -103.85 65.6005C-106.908 58.2761 -109.942 50.9145 -115.093 44.5587C-116.62 45.5184 -118.027 46.4028 -119.399 47.2648C-117.155 52.463 -113.674 56.2855 -112.557 61.533C-115.554 56.9275 -118.551 52.3197 -121.7 47.4776C-123.193 48.781 -124.235 49.6919 -125.361 50.6747C-120.888 57.0314 -116.339 62.7527 -113.528 69.863C-115.66 67.1721 -117.45 64.1832 -119.44 61.3908C-121.544 58.442 -123.77 55.5991 -126.075 52.867C-127.672 50.9714 -128.66 52.0786 -129.422 53.6992C-111.008 79.4551 -106.818 86.527 -106.236 93.6575C-112.906 79.1128 -121.373 66.2062 -131.898 54.5934C-133.003 55.3483 -134.105 56.1021 -135.731 57.214C-130.44 62.4189 -125.761 67.1485 -122.408 73.3123C-126.074 69.6519 -129.579 65.8011 -133.165 62.0669C-137.379 57.6757 -137.827 57.7288 -141.705 62.402C-135.483 67.2681 -129.717 72.778 -124.636 79.3057C-124.763 79.5668 -124.892 79.8262 -125.019 80.0873C-125.887 79.3299 -126.782 78.6131 -127.62 77.8041C-131.708 73.8536 -135.75 69.8292 -139.867 65.9273C-142.569 63.3652 -143.11 63.425 -146.276 66.1285C-134.547 73.176 -125.085 83.335 -116.405 94.792C-106.957 107.26 -96.0646 126.8 -95.3931 134.132C-96.6992 131.463 -97.5717 129.798 -98.343 128.082C-107.755 107.129 -120.451 89.4487 -136.644 75.3498C-140.492 71.9992 -144.648 69.179 -149.251 67.9717C-150.824 69.5581 -152.274 71.0205 -154.06 72.8222C-145.482 79.1204 -137.504 85.362 -130.603 93.456C-130.684 93.6207 -130.767 93.7836 -130.848 93.9482C-135.183 90.1822 -139.501 86.3887 -143.856 82.6588C-146.42 80.4634 -149.072 78.4626 -153.162 76.714C-150.758 82.6183 -148.874 87.3092 -146.94 91.9757C-145.601 95.2029 -144.196 98.3985 -142.822 101.61L-142.814 101.601C-145.699 96.7105 -148.586 91.821 -151.435 86.9936C-151.653 87.2558 -152.109 87.8087 -152.544 88.3354C-149.422 95.9265 -144.84 102.683 -142.993 110.808C-143.573 110.624 -143.929 110.303 -144.123 109.891C-147.563 102.521 -150.84 95.0445 -154.488 87.8068C-155.784 85.2363 -157.981 83.2331 -159.766 80.9698C-156.557 89.9348 -150.934 97.47 -148.501 106.633C-148.829 106.823 -149.158 107.014 -149.487 107.202C-151.321 103.024 -153.154 98.8487 -154.99 94.6739C-155.275 98.5175 -152.332 101.45 -152.717 105.296C-153.885 104.012 -154.761 102.59 -155.471 101.073C-157.342 97.0801 -159.079 93.0058 -161.01 89.0504C-161.512 88.0211 -162.539 87.3092 -163.323 86.452C-163.622 86.7323 -163.92 87.0126 -164.217 87.2923C-162.923 89.9166 -161.655 92.5531 -160.334 95.1594C-157.475 100.797 -157.464 100.791 -158.349 103.333C-164.332 89.9712 -164.332 89.9712 -167.273 89.2273C-165.801 93.4585 -161.592 96.0161 -161.125 102.375C-164.401 98.2562 -165.586 93.2832 -169.753 91.1552C-168.475 95.0285 -165.307 97.2141 -164.713 101.486C-168.056 99.6791 -168.523 94.9691 -171.771 93.286C-171.733 97.1982 -167.479 98.2837 -167.656 103.098C-169.797 100.503 -171.346 98.6141 -172.923 96.7582C-173.006 96.661 -173.33 96.8602 -173.75 96.981C-173.377 97.6462 -173.045 98.2196 -172.73 98.803C-172.422 99.373 -172.13 99.9555 -171.823 100.546C-172.694 101.09 -173.539 101.325 -173.981 101.97C-174.421 102.614 -174.459 103.673 -174.686 104.607C-176.079 104.104 -177.157 103.715 -178.265 103.314C-179.556 105.592 -180.703 107.618 -182.261 110.369C-171.731 110.398 -162.034 113.08 -152.512 117.267C-142.886 121.496 -133.608 126.705 -126.129 136.026C-127.433 135.788 -128.537 135.048 -129.576 134.185C-131.095 132.921 -132.52 131.468 -134.068 130.273C-144.355 122.338 -155.477 117.863 -166.987 115.069C-171.643 113.937 -176.281 112.523 -180.973 113.139C-182.93 113.397 -184.084 114.31 -184.742 116.796C-179.587 117.466 -174.626 118.017 -169.67 118.777C-160.889 120.119 -158.269 121.115 -155.82 123.644C-159.867 122.648 -164.073 121.304 -168.288 120.651C-173.397 119.86 -178.521 119.534 -183.624 119.249C-185.418 119.149 -187.615 119.178 -186.941 122.7C-175.809 122.369 -153.851 128.732 -149.98 133.788C-151.162 133.55 -151.988 133.553 -152.731 133.203C-160.975 129.341 -169.386 126.9 -177.929 125.483C-189.336 123.592 -188.819 124.47 -190.494 136.683C-190.557 137.138 -190.334 137.685 -190.21 138.394C-180.509 136.397 -170.768 137.918 -160.977 141.027C-162.373 141.351 -163.789 141.22 -165.206 141.04C-168.581 140.608 -171.959 140.101 -175.333 139.714C-180.05 139.173 -184.71 139.05 -189.18 140.491C-191.107 141.111 -192.236 142.123 -191.305 144.927C-178.291 145.072 -165.288 145.833 -152.3 150.079C-154.596 151.245 -154.6 151.286 -157.159 150.544C-167.136 147.645 -177.078 147.643 -187.024 146.989C-189.291 146.839 -191.112 148.237 -191.54 150.667C-192.039 153.507 -191.763 156.641 -191.829 160.043C-180.555 156.255 -169.718 153.883 -158.112 156.15C-161.92 156.614 -165.805 156.526 -169.645 156.778C-177.05 157.264 -184.251 158.629 -190.71 162.508C-191.556 163.016 -192.33 164.307 -192.504 165.453C-193.395 171.326 -194.088 177.269 -194.812 183.2C-194.834 183.391 -194.464 183.701 -194.259 183.98C-185.977 179.059 -176.982 176.175 -167.718 174.033C-171.02 175.766 -174.492 177.049 -177.871 178.566C-182.597 180.691 -187.323 182.835 -191.916 185.272C-194.783 186.792 -196.659 189.366 -195.32 194.123C-192.814 194.823 -190.209 195.553 -187.602 196.282C-184.435 197.544 -181.265 198.807 -178.097 200.069C-178.155 200.528 -178.213 200.986 -178.27 201.444C-182.219 201.533 -186.091 198.955 -190.169 199.055C-187.723 200.621 -185.275 202.186 -182.83 203.751C-182.879 204.109 -182.93 204.464 -182.98 204.822C-185.436 204.504 -187.891 204.186 -190.346 203.87C-190.378 204.119 -190.411 204.368 -190.443 204.617C-189.299 205.588 -188.158 206.56 -186.326 208.115C-188.47 208.732 -189.947 209.158 -191.573 209.626C-190.108 212.69 -188.343 212.833 -186.444 212.118C-180.263 209.786 -173.782 208.231 -168.284 204.114C-167.848 203.787 -167.173 203.873 -165.623 203.58C-168.505 207.757 -171.594 209.479 -174.923 210.665C-180.325 212.588 -185.81 214.263 -191.215 216.174C-191.897 216.416 -192.314 217.46 -192.854 218.133C-192.642 218.516 -192.432 218.9 -192.22 219.281C-190.652 218.731 -189.078 218.197 -187.516 217.627C-186.305 217.182 -185.149 216.524 -183.898 216.255C-180.559 215.536 -177.162 215.06 -173.828 214.321C-171.422 213.787 -169.081 212.985 -166.71 212.302C-174.375 218.05 -183.739 218.915 -192.402 222.234C-191.921 223.903 -191.556 225.171 -191.117 226.698C-175.833 222.941 -163.262 213.907 -150.921 204.208C-152.01 207.067 -153.936 208.86 -156.037 210.354C-158.543 212.135 -161.26 213.541 -163.727 215.384C-170.479 220.433 -177.768 224.192 -185.595 226.765C-187.22 227.301 -188.784 228.153 -190.192 229.189C-190.679 229.549 -190.605 230.898 -190.926 232.467C-177.768 229.501 -165.886 225.397 -154.199 218.453C-154.784 219.606 -154.893 220.064 -155.154 220.291C-155.933 220.969 -156.699 221.74 -157.597 222.153C-164.542 225.341 -171.491 228.522 -178.499 231.551C-181.54 232.866 -184.711 233.842 -187.841 234.92C-189.423 235.463 -190.418 236.257 -188.765 239.012C-181.471 236.774 -173.782 235.265 -166.766 232.06C-156.811 227.511 -147.339 221.737 -137.688 216.43C-135.297 215.116 -133.003 213.584 -130.252 211.899C-130.58 215.409 -132.397 216.389 -134.112 217.448C-136.217 218.746 -138.33 220.03 -140.481 221.23C-154.294 228.942 -167.893 237.201 -183.397 240.625C-185.039 240.987 -186.634 241.542 -188.372 242.042C-188.037 243.551 -187.919 244.416 -187.645 245.224C-187.383 246.001 -186.962 246.721 -186.522 247.652C-174.81 245.26 -164.265 240.155 -153.443 235.829C-158.358 239.308 -163.408 242.395 -168.996 244.357C-174.675 246.352 -180.266 248.613 -186.037 250.812C-185.73 251.877 -185.449 252.854 -185.025 254.327C-178.686 252.503 -172.305 251.222 -166.342 248.793C-160.338 246.349 -154.752 242.766 -148.99 239.687C-147.63 242.827 -149.609 243.528 -150.772 244.279C-158.858 249.507 -167.093 254.44 -176.229 257.203C-178.184 257.794 -180.312 257.803 -182.92 258.157C-181.531 260.739 -180.046 263.505 -178.521 266.34C-167.088 261.517 -156.232 256.953 -146.251 250.231C-147.413 251.774 -148.725 252.972 -150.099 254.067C-156.962 259.531 -164.94 262.57 -172.498 266.525C-173.839 267.227 -175.14 268.023 -176.716 268.921C-175.78 270.305 -175.234 271.182 -174.622 271.991C-174.112 272.665 -173.525 273.258 -172.775 274.11C-163.766 271.423 -155.65 266.646 -147.711 261.43C-139.67 256.145 -131.158 251.63 -123.658 245.478C-116.325 239.461 -110.004 231.803 -103.239 224.868C-103.617 226.554 -104.278 228.075 -105.216 229.286C-114.414 241.163 -125.436 250.261 -137.568 257.64C-142.527 260.655 -147.516 263.609 -152.517 266.535C-155.017 267.996 -157.575 269.334 -160.106 270.729C-163.589 272.647 -167.074 274.567 -170.952 276.703C-169.397 278.75 -168.093 280.472 -166.765 282.218C-155.82 278.361 -144.895 275.257 -135.927 267.306C-143.364 277.298 -154.38 279.938 -164.47 284.506C-161.834 288.94 -161.229 289.228 -157.968 287.666C-157.063 287.234 -156.2 286.69 -155.286 286.283C-144.932 281.67 -135.361 275.512 -127.076 267.116C-121.387 261.354 -116.196 254.914 -110.776 248.785C-109.944 247.844 -109.228 246.161 -107.755 248.332C-121.323 268.19 -138.353 282.452 -159.39 290.966C-157.735 293.269 -156.459 295.045 -155.003 297.074C-146.02 293.923 -137.935 289.284 -130.157 283.864C-136.119 291.934 -145.117 294.56 -152.972 299.789C-151.388 301.76 -150.122 303.334 -148.522 305.325C-145.683 303.788 -142.855 302.404 -140.156 300.756C-137.304 299.016 -134.57 297.038 -131.792 295.148C-129.315 293.46 -128.016 289.739 -123.904 289.148C-124.749 290.702 -125.124 291.537 -125.608 292.257C-128.285 296.238 -132.167 298.216 -135.896 300.491C-139.401 302.631 -143.2 304.285 -146.394 307.512C-144.654 309.573 -143.245 311.24 -141.671 313.105C-132.069 306.938 -121.331 303.045 -115.101 291.227C-114.076 293.923 -115.309 295.381 -116.385 296.762C-120.089 301.511 -124.265 305.566 -129.253 308.417C-131.899 309.929 -134.518 311.508 -137.082 313.187C-137.831 313.678 -138.344 314.621 -139.77 316.309C-137.652 316.588 -136.529 317.068 -135.62 316.806C-124.288 313.559 -114.542 307.478 -107.86 296.125C-104.51 290.436 -101.273 284.647 -97.9391 278.946C-97.5663 278.309 -96.8802 277.952 -96.3376 277.465C-96.0953 277.691 -95.8511 277.916 -95.6089 278.142C-96.0771 279.46 -96.5696 280.766 -97.0111 282.1C-98.8362 287.626 -102.308 291.7 -105.066 296.409C-110.637 305.922 -118.293 312.142 -127.515 316.043C-129.84 317.028 -131.98 318.507 -134.493 319.922C-133.399 321.294 -132.837 322.192 -132.129 322.854C-128.471 326.273 -124.835 329.737 -121.054 332.93C-120.074 333.759 -118.601 333.671 -117.354 334.004C-115.36 336.144 -113.042 336.693 -110.738 337.3C-110.665 336.88 -110.594 336.461 -110.523 336.041C-112.812 335.395 -115.103 334.749 -117.392 334.106C-118.335 333.35 -119.278 332.596 -120.504 331.613C-119.814 331.233 -119.499 330.907 -119.141 330.883C-116.051 330.678 -112.954 330.528 -109.858 330.364C-108.149 326.659 -104.954 328.087 -102.159 328.111C-101.938 328.113 -101.735 327.908 -101.601 327.839C-102.172 327.117 -102.748 326.389 -103.917 324.908C-101.32 324.476 -99.424 324.16 -97.3757 323.821C-98.1243 322.827 -98.7561 321.991 -99.8765 320.506C-97.6019 320.018 -95.892 319.65 -94.0704 319.259C-94.7875 318.34 -95.3369 317.634 -96.5229 316.113C-90.6338 317.101 -90.9657 309.214 -86.2142 309.288C-87.3408 305.303 -86.2746 302.295 -85.1988 299.072C-81.2578 299.857 -80.1899 296.939 -79.5725 292.995C-78.5504 286.463 -78.9473 279.879 -80.0823 273.16C-80.7002 269.498 -81.1242 265.816 -81.5853 262.139C-83.0658 250.375 -84.1329 238.567 -86.13 226.863C-87.4372 219.199 -86.7687 213.003 -82.484 207.872C-81.4396 206.622 -80.6419 205.075 -79.4881 203.291C-80.8279 202.75 -81.6461 202.251 -82.4732 202.111C-89.5993 200.903 -96.4004 197.9 -103.159 194.457C-106.507 192.753 -109.977 191.472 -113.417 190.135C-118.433 188.185 -123.433 185.883 -128.511 184.611C-134.439 183.126 -140.445 180.109 -146.415 182.812C-149.051 184.005 -152.27 183.674 -155 184.692C-157.185 185.505 -159.198 186.675 -161.669 186.245C-163.99 184.826 -166.322 183.528 -168.909 184.686C-166.484 185.175 -164.059 185.661 -161.634 186.149C-160.958 186.919 -160.282 187.689 -158.988 189.162C-160.792 189.095 -161.785 189.285 -162.713 188.984C-165.583 188.056 -168.443 187.021 -171.272 185.864C-172.538 185.347 -173.566 185.067 -174.228 186.578C-174.893 185.535 -175.558 184.49 -176.046 183.724C-174.624 182.779 -173.656 182.102 -172.656 181.483C-172.074 181.124 -171.389 180.447 -170.845 180.624C-167.544 181.688 -165.265 178.533 -162.116 178.909C-160.753 179.072 -159.377 178.535 -158.046 178.172C-154.089 177.088 -150.189 175.782 -146.195 174.852C-142.845 174.072 -139.393 173.687 -135.985 173.145C-131.327 172.405 -126.702 171.465 -121.999 171.003C-114.272 170.24 -106.516 169.621 -98.7287 169.276C-94.0566 169.067 -89.3667 169.77 -85.1914 173.804C-84.511 174.461 -83.506 174.603 -82.3775 175.104C-83.9443 172.054 -84.8804 169.162 -86.563 167.183C-90.2216 162.876 -92.0178 157.585 -94.0724 152.372L-94.1113 152.457C-93.6197 152.805 -92.9622 153.022 -92.6616 153.521C-88.1818 160.964 -81.2095 165.978 -77.8135 174.477C-77.6256 174.946 -77.172 175.29 -76.4403 176.182C-76.9084 172.609 -76.9665 169.773 -77.6937 167.112C-79.4328 160.751 -81.2146 154.362 -83.4838 148.191C-86.1111 141.046 -85.8268 133.933 -86.1431 126.794C-86.2172 125.106 -85.8279 123.273 -85.1895 121.844C-82.2842 115.341 -81.7683 107.914 -81.069 100.551C-80.9069 98.8483 -80.6801 97.0588 -80.9593 95.3594C-82.8053 84.1873 -84.0669 72.9076 -88.2688 62.1535C-89.2124 59.7391 -89.7487 57.1392 -90.4721 54.626C-90.1844 54.4927 -89.8967 54.3595 -89.609 54.2262C-88.8687 55.8635 -87.9074 57.4398 -87.4313 59.1507C-86.0478 64.1346 -84.8764 69.1746 -83.5858 74.1828C-83.0869 76.1143 -82.4907 78.0229 -81.8318 80.3122C-81.1646 78.4667 -80.6695 77.0923 -80.1726 75.7173C-79.822 75.7956 -79.4713 75.8739 -79.1188 75.9517C-78.8897 77.1935 -78.3699 78.5181 -78.4868 79.6625C-78.7724 82.4585 -78.9516 85.1356 -77.5138 87.8723C-77.2341 88.4052 -77.3345 89.2318 -77.3429 89.9108C-77.4789 100.3 -76.3726 110.736 -72.6553 120.635C-68.7311 131.083 -63.8524 141.122 -59.4493 151.371C-57.5253 155.854 -55.7514 160.41 -53.9093 164.934C-53.6124 164.967 -53.3142 164.997 -53.0173 165.03C-52.6378 162.851 -52.2601 160.672 -51.8806 158.493C-51.5378 157.099 -49.5449 155.541 -49.7841 154.873C-50.6289 152.518 -50.0862 151.019 -48.7611 150.135C-46.7865 148.817 -48.7043 145.779 -47.5128 144.757C-45.4453 142.983 -47.1677 139.619 -45.6142 137.872C-43.3613 135.34 -41.0413 132.893 -38.7504 130.408C-38.5198 130.685 -38.2893 130.962 -38.0588 131.239C-38.7313 132.379 -40.219 134.029 -39.9434 134.576C-38.2571 137.936 -40.9214 138.599 -41.6674 140.404C-42.7674 141.907 -43.8649 143.412 -44.9629 144.915C-44.6918 145.17 -44.42 145.427 -44.1488 145.682C-43.7011 143.585 -40.7892 143.739 -41.7772 140.327C-41.1102 140.648 -40.4433 140.968 -39.1927 141.567C-42.0956 145.268 -44.6776 148.561 -47.2584 151.851C-47.0924 152.081 -46.9276 152.314 -46.7615 152.544C-45.4374 151.423 -44.1114 150.302 -42.788 149.179C-42.6248 149.427 -42.4627 149.678 -42.2995 149.927C-43.7868 151.819 -45.2722 153.711 -46.7712 155.619C-46.2323 155.969 -45.7636 156.273 -45.5379 156.42C-46.1779 158.919 -47.6906 161.488 -47.1415 163.516C-46.4051 166.237 -47.2972 167.479 -48.2312 168.984C-49.0702 170.339 -50.1764 171.445 -50.1561 174.497C-48.6886 172.812 -47.791 171.852 -46.9604 170.815C-44.4647 167.703 -41.9819 164.434 -38.0544 163.932C-34.1093 163.428 -30.2891 163.785 -26.4539 167.119C-24.2171 169.063 -21.1618 169.822 -18.425 170.536C-10.0593 172.723 -1.66813 174.637 6.71577 176.639C7.27422 176.774 7.85317 176.817 8.40819 176.791C13.3996 176.559 18.3041 175.712 23.4719 177.176C35.6013 180.615 46.6413 187.391 57.1077 196.069C56.3955 195.974 55.5991 196.117 54.9811 195.747C48.8403 192.065 42.7181 188.326 36.6103 184.545C28.9167 179.779 20.9411 178.743 12.0998 178.139C14.108 179.955 15.3098 181.411 16.719 182.243C21.0526 184.795 23.4596 189.532 25.1549 194.169C26.9462 199.068 29.4284 201.497 33.4124 202.465C34.5781 202.748 35.7628 203.155 36.8707 203.74C38.9752 204.855 41.146 205.94 42.9011 208.618C37.6402 206.441 32.8645 204.463 27.5242 202.252C27.5963 204.917 27.4226 206.82 27.754 208.658C28.2221 211.247 29.0149 213.804 29.7646 216.345C30.2966 218.151 30.3027 219.446 28.1002 219.697C25.8424 214.068 23.2858 208.485 21.3709 202.675C19.8953 198.199 17.5292 194.801 14.558 191.771C8.12897 185.217 1.21675 187.245 -5.5969 187.328C1.80957 191.535 10.0927 191.834 17.5382 197.565C15.7256 199.347 14.6057 197.821 13.4424 197.242C11.0626 196.061 8.72932 194.582 6.29944 193.752C0.991862 191.937 -4.29312 189.393 -9.77641 189.985C-13.3916 187.451 -16.0508 189.534 -18.3568 191.846C-23.3119 196.814 -28.6972 200.684 -35.5085 201.597C-35.6475 201.616 -35.7188 202.013 -35.9278 202.462C-31.6158 203.261 -27.7811 200.425 -23.592 201.59C-23.5014 202.089 -23.4127 202.589 -23.3227 203.085C-29.1464 204.335 -34.9694 205.587 -40.7924 206.839C-37.2863 207.16 -33.9083 206.746 -30.5395 206.278C-27.292 205.828 -24.2396 203.836 -19.829 205.849C-24.9082 209.444 -30.8128 207.162 -36.1913 209.796C-32.6023 212.565 -30.1337 210.322 -27.5621 210.639C-24.8262 210.975 -22.0953 210.26 -19.372 209.943C-16.7751 209.64 -14.193 209.258 -10.7572 208.797C-13.1343 212.78 -16.3194 211.124 -18.7377 211.757C-21.2106 212.406 -24.0168 211.762 -27.2799 213.093C-26.0304 213.518 -25.6573 213.724 -25.2917 213.755C-19.3997 214.258 -13.6337 213.941 -8.07084 212.267C-6.95502 211.931 -5.68459 210.984 -4.58682 213.347C-7.98051 214.344 -11.2704 215.291 -14.5603 216.238ZM-77.2716 225.111C-77.5139 226.011 -77.7066 226.786 -77.9304 227.545C-78.1562 228.304 -78.6959 229.651 -78.6154 229.711C-75.7523 231.891 -78.1299 233.628 -78.332 235.532C-78.4095 236.261 -78.5231 237.523 -78.2549 237.718C-76.4005 239.07 -77.2867 240.679 -77.6654 241.891C-79.4436 247.58 -79.4976 253.617 -78.7824 259.833C-78.0655 266.077 -77.4441 272.343 -75.4046 278.607C-72.8904 276.488 -73.4436 273.355 -73.4896 270.455C-73.5277 268.007 -73.7983 265.636 -71.2819 264.586C-70.2904 264.172 -69.8731 262.209 -69.1957 260.951C-69.4398 260.691 -69.684 260.431 -69.9281 260.17C-71.0882 260.608 -72.2483 261.045 -73.57 261.544C-73.3409 258.219 -72.8832 255.384 -72.9957 252.5C-73.3782 242.717 -75.2286 232.889 -74.827 223.09C-74.5911 217.324 -74.4067 211.684 -72.4328 206.554C-71.695 204.635 -71.102 202.624 -70.4031 200.535C-72.4019 198.788 -74.1638 197.248 -75.9264 195.705C-76.081 195.954 -76.233 196.205 -76.3876 196.454C-75.1891 198.048 -73.9886 199.641 -72.7275 201.318C-73.7359 206.24 -77.8253 208.091 -79.9677 212.048C-78.5622 211.946 -77.35 211.86 -75.4589 211.725C-76.8931 214.099 -77.8454 215.676 -78.8186 217.286C-78.0195 217.811 -77.4188 218.206 -76.6866 218.689C-77.6319 220.744 -78.426 222.467 -79.234 224.227C-78.5471 224.531 -78.0215 224.771 -77.2716 225.111ZM-96.1753 189.703C-99.1464 184.904 -104.069 183.93 -107.847 179.279C-99.4953 179.301 -92.4154 181.113 -85.4471 185.321C-82.6518 187.01 -79.5105 187.707 -76.5191 188.81C-76.2958 188.892 -76.0124 188.616 -75.483 188.388C-75.1197 187.271 -74.6815 185.925 -74.1966 184.438C-77.8788 182.188 -81.3035 180.202 -84.6553 178.024C-89.4826 174.89 -94.5015 173.328 -99.6501 173.588C-103.941 173.805 -108.191 174.397 -112.417 175.028C-116.865 175.692 -121.265 176.598 -125.859 177.43C-122.267 180.918 -122.267 180.918 -119.166 178.43C-117.653 177.217 -115.482 178.069 -113.679 179.764C-111.695 181.629 -109.388 182.967 -107.221 184.537C-104.42 182.039 -102.863 185.683 -100.803 187.112C-99.4842 188.028 -98.7067 190.503 -96.1753 189.703ZM24.3189 201.899C22.1687 192.021 14.1721 182.514 6.97484 180.697C6.41626 180.555 5.66948 180.397 5.29593 180.706C3.20925 182.428 0.792592 181.126 -1.47831 180.954C-3.66965 180.79 -5.89011 180.106 -8.06833 180.044C-18.0792 179.767 -26.9764 183.275 -35.4157 188.352C-38.0215 189.92 -40.7966 191.14 -43.4703 192.571C-44.8652 193.318 -46.3307 193.998 -47.522 195.07C-48.0447 195.541 -47.9627 196.924 -48.1423 197.836C-43.3373 195.108 -38.3901 196.357 -33.1231 197.288C-34.0115 196.198 -34.5159 195.578 -35.2175 194.72C-33.0077 194.785 -30.9997 194.844 -28.3294 194.923C-29.646 193.719 -30.2195 193.193 -30.7705 192.687C-30.6023 192.316 -30.5748 192.121 -30.4836 192.077C-30.2304 191.951 -29.9278 191.735 -29.6854 191.82C-25.611 193.209 -22.8961 190.845 -19.9279 188.511C-17.3204 186.461 -14.2406 184.996 -11.1398 184.015C-5.14705 182.121 1.19843 182.926 7.54657 183.81C10.665 184.243 13.2056 185.493 15.5656 188.29C18.852 192.188 22.0262 196.122 24.3189 201.899ZM-68.4787 203.773C-69.6515 208.195 -71.245 212.026 -71.6627 216.183C-72.8735 228.22 -71.3238 240.55 -70.0829 252.821C-70.0256 253.395 -69.7673 253.967 -69.4344 255.123C-68.6573 253.766 -67.6384 252.569 -67.8259 252.229C-70.1369 248.045 -66.9186 246.098 -66.2351 243.163C-66.1706 242.884 -66.2573 242.533 -66.277 242.16C-66.908 242.276 -67.529 242.392 -68.2141 242.518C-69.2608 239.32 -67.1819 237.763 -66.3647 235.624C-68.98 233.633 -69.2123 232.889 -68.0788 229.945C-67.2625 227.824 -65.453 225.685 -65.7328 223.658C-66.3129 219.447 -65.0349 216.184 -64.2673 212.606C-63.6783 209.859 -65.2977 205.917 -68.4787 203.773ZM-65.5119 156.981C-65.7378 154.575 -65.8314 153.067 -66.0391 151.566C-66.1515 150.758 -66.4454 149.298 -66.6762 149.261C-69.1275 148.866 -68.3722 146.732 -68.5778 145.203C-68.849 143.199 -68.9924 141.185 -69.1919 139.175C-69.4255 139.192 -69.6611 139.209 -69.8947 139.226C-70.0456 141.031 -70.1945 142.836 -70.3696 144.947C-71.2027 143.737 -71.7687 142.918 -72.3321 142.101C-72.4214 145.671 -70.8175 148.347 -69.3254 151.01C-66.6538 155.775 -64.1039 160.577 -62.84 166.045C-62.2422 168.625 -61.7116 171.218 -61.1051 174.013C-58.8973 174.872 -56.7333 175.713 -53.9453 176.796C-55.9697 171.25 -57.6539 166.637 -59.4313 161.772C-59.9898 161.779 -60.7797 161.789 -61.8519 161.802C-62.2973 159.143 -62.7289 156.574 -63.1828 153.857C-63.8858 154.799 -64.4632 155.576 -65.5119 156.981ZM-70.8649 178.821C-69.055 177.901 -67.6236 176.934 -66.0485 176.43C-63.9555 175.765 -63.6312 174.285 -64.0233 171.783C-65.2338 164.058 -68.4878 157.419 -72.9227 151.18C-73.0054 152.953 -73.1848 155.219 -72.3226 156.288C-70.5459 158.496 -70.3478 160.537 -70.5867 163.077C-70.9867 167.345 -71.1941 171.666 -71.4099 175.979C-71.4446 176.736 -71.1156 177.568 -70.8649 178.821ZM-63.2267 188.748C-65.417 193.905 -62.215 198.423 -54.9458 200.496C-53.2223 193.838 -54.1793 191.667 -59.775 189.673C-60.9151 189.266 -62.0847 189.048 -63.2267 188.748ZM-75.0043 292.283C-74.6376 291.107 -73.8418 289.914 -73.9829 288.758C-74.427 285.119 -73.0154 282.539 -71.7645 279.784C-71.2902 278.741 -71.0847 277.5 -70.758 276.348C-73.4881 280.883 -77.1247 284.846 -75.0043 292.283ZM-157.357 76.5203C-156.437 78.3658 -155.53 80.185 -154.663 81.9222C-152.999 80.234 -152.485 78.5083 -153.888 76.4079C-154.803 75.0429 -155.824 74.7332 -157.357 76.5203ZM-91.833 190.968C-93.8339 185.836 -95.495 184.221 -98.0353 184.438C-95.8594 186.73 -93.8471 188.849 -91.833 190.968ZM-88.9289 328.243C-88.9953 327.906 -89.0624 327.567 -89.1306 327.231C-91.3857 327.496 -93.6415 327.759 -95.8966 328.025C-95.8101 328.467 -95.7236 328.909 -95.6371 329.351C-93.3996 328.982 -91.1646 328.612 -88.9289 328.243ZM-82.4603 198.977C-82.2681 198.568 -82.0766 198.157 -81.8844 197.748C-83.3847 196.423 -84.8832 195.097 -86.3842 193.77C-86.4933 193.95 -86.6024 194.13 -86.7115 194.311C-85.2936 195.867 -83.8756 197.422 -82.4603 198.977ZM-195.271 197.148C-195.41 197.527 -195.547 197.907 -195.687 198.286C-194.321 200.099 -192.577 200.397 -190.61 199.914C-192.164 198.993 -193.717 198.07 -195.271 197.148ZM1.27652 271.643C1.58358 271.535 1.89135 271.428 2.19652 271.32C1.58204 269.702 0.96752 268.084 0.355598 266.468C0.187941 266.544 0.0202992 266.62 -0.147357 266.696C0.327046 268.344 0.80145 269.993 1.27652 271.643ZM-92.1667 192.705C-92.3426 192.993 -92.5193 193.278 -92.6953 193.566C-91.422 194.818 -90.1467 196.069 -88.8734 197.321C-88.6839 197.017 -88.4943 196.712 -88.3055 196.405C-89.5923 195.17 -90.8804 193.938 -92.1667 192.705ZM-159.884 88.0143C-159.754 87.9364 -159.622 87.8608 -159.491 87.7852C-159.902 86.8811 -160.275 85.9534 -160.737 85.0866C-161.134 84.3426 -161.637 83.6668 -162.09 82.9617C-162.19 83.0461 -162.292 83.1333 -162.394 83.2181C-161.556 84.8175 -160.719 86.4145 -159.884 88.0143ZM-194.413 203.894C-194.508 204.338 -194.602 204.782 -194.696 205.226C-193.879 205.432 -193.063 205.639 -192.248 205.844C-192.209 205.527 -192.172 205.211 -192.132 204.894C-192.893 204.56 -193.653 204.226 -194.413 203.894ZM-75.2493 127.448C-75.655 127.979 -75.8021 128.077 -75.8279 128.22C-76.006 129.188 -76.1655 130.163 -76.3055 131.142C-76.3129 131.187 -76.0768 131.314 -75.9554 131.403C-75.6856 130.492 -75.4096 129.582 -75.1544 128.663C-75.114 128.52 -75.1742 128.325 -75.2493 127.448ZM-101.611 344.15C-101.64 344.486 -101.67 344.823 -101.701 345.16C-100.828 345.255 -99.9549 345.349 -99.0826 345.442C-99.0768 345.228 -99.0711 345.014 -99.0653 344.8C-99.9139 344.585 -100.763 344.368 -101.611 344.15ZM-134.375 178.973C-134.428 178.617 -134.48 178.261 -134.533 177.905C-135.232 177.977 -135.93 178.049 -136.629 178.122C-136.604 178.279 -136.58 178.433 -136.556 178.588C-135.828 178.717 -135.1 178.846 -134.375 178.973ZM-26.2038 229.775C-26.0016 229.578 -25.7976 229.381 -25.5948 229.186C-26.0538 228.462 -26.5146 227.739 -26.9743 227.013C-27.1299 227.131 -27.2849 227.251 -27.4404 227.369C-27.0287 228.17 -26.6162 228.972 -26.2038 229.775Z" fill="#A60403"/>
<path d="M24.319 201.899C22.0264 196.122 18.8523 192.188 15.5639 188.29C13.2039 185.493 10.6633 184.243 7.54491 183.81C1.19557 182.929 -5.14991 182.125 -11.1415 184.016C-14.2404 184.996 -17.3202 186.46 -19.9295 188.512C-22.8996 190.846 -25.6138 193.212 -29.6871 191.82C-29.9313 191.736 -30.2321 191.952 -30.4852 192.077C-30.5758 192.124 -30.6041 192.316 -30.7723 192.688C-30.222 193.191 -29.6466 193.717 -28.3312 194.924C-31.0015 194.844 -33.0094 194.786 -35.2192 194.72C-34.5196 195.579 -34.0132 196.198 -33.1248 197.288C-38.3918 196.357 -43.339 195.108 -48.1439 197.837C-47.9624 196.923 -48.0457 195.544 -47.5237 195.07C-46.333 193.996 -44.8669 193.319 -43.472 192.571C-40.7983 191.14 -38.0239 189.918 -35.4175 188.352C-26.9794 183.278 -18.0809 179.767 -8.06999 180.044C-5.89245 180.104 -3.67196 180.788 -1.47996 180.955C0.79095 181.127 3.20571 182.428 5.29428 180.706C5.66783 180.397 6.41461 180.556 6.97318 180.698C14.1723 182.513 22.1689 192.021 24.319 201.899Z" fill="#CFBDAD"/>
<path d="M1.27806 271.645C0.803655 269.997 0.328583 268.346 -0.145822 266.698C0.0218315 266.622 0.189466 266.546 0.35712 266.47C0.971602 268.088 1.58612 269.706 2.19805 271.322C1.8922 271.428 1.58512 271.537 1.27806 271.645Z" fill="#CFBDAD"/>
<path d="M29.3417 134.988C28.9784 138.541 26.8716 139.938 24.859 141.244C15.5525 147.288 6.13137 153.082 -4.27071 156.672C-8.21232 158.031 -12.0767 159.623 -15.9817 161.095C-17.061 161.502 -18.1738 161.976 -19.1509 159.664C-1.83127 154.023 14.8802 147.168 29.3417 134.988Z" fill="#CFBDAD"/>
<path d="M0.567404 166.852C-1.90988 167.648 -4.3809 168.473 -7.10436 167.076C-7.15903 166.688 -7.21305 166.302 -7.26771 165.913C-4.73653 165.68 -2.20726 165.447 0.324597 165.215C0.405937 165.76 0.487275 166.304 0.567404 166.852Z" fill="#BB9F87" fill-opacity="0.5"/>
<path d="M-27.9382 269.626C-23.6859 273.411 -20.5838 278.574 -17.7131 283.655C-12.3346 293.18 -8.20698 303.463 -6.04239 314.389C-3.7913 325.758 -2.69749 337.184 -3.13126 348.543C-3.15233 349.072 -3.73829 349.493 -4.51305 350.624C-4.90231 342.736 -4.86462 335.687 -5.70593 328.672C-6.54282 321.693 -7.74128 314.59 -9.74394 307.831C-11.7969 300.896 -14.582 294.031 -17.8497 287.655C-20.99 281.531 -25.161 276.075 -28.8788 270.324C-28.5682 270.093 -28.2538 269.861 -27.9382 269.626Z" fill="#BB9F87" fill-opacity="0.5"/>
<path d="M6.41001 328.704C5.54575 325.702 4.68215 322.701 3.81789 319.698C4.07237 319.648 4.32812 319.594 4.58259 319.544C5.16376 322.583 5.74419 325.619 6.32724 328.657L6.41001 328.704Z" fill="#BB9F87" fill-opacity="0.5"/>
<path d="M25.2345 241.88C30.0699 244.355 33.9282 248.463 37.3984 253.177C38.9947 255.346 40.4783 257.632 42.1329 260.039C40.3996 262.613 38.5992 262.157 35.8517 259.918C37.1912 259.432 37.881 259.18 38.6266 258.91C38.5151 258.629 38.4655 258.272 38.2936 258.107C36.9792 256.847 34.4553 258.338 34.0277 255.21C33.7251 252.997 30.3104 254.127 30.9941 251.022C31.0093 250.954 29.8324 250.349 29.2037 250.02C28.4478 249.624 27.6835 249.256 26.6646 248.746C27.3649 247.901 27.7917 247.387 28.3838 246.668C26.2967 246.151 24.3724 245.675 21.5697 244.979C23.2816 243.499 24.2835 242.633 25.2855 241.767L25.2345 241.88Z" fill="#CFBDAD"/>
<path d="M30.8068 292.648C24.7266 286.173 17.362 282.38 10.7459 276.926C12.5715 275.565 14.0531 276.867 15.3568 277.729C19.8778 280.72 24.3495 283.85 28.7231 287.178C29.9678 288.125 30.8167 289.921 31.8449 291.326C31.4989 291.767 31.1528 292.207 30.8068 292.648Z" fill="#BB9F87" fill-opacity="0.5"/>
<path d="M21.1299 217.961C19.7251 220.897 17.4479 220.434 15.4275 220.347C13.6488 220.27 11.5035 221.774 10.0798 218.18C9.69929 217.219 7.58423 217.05 6.13333 216.463C7.95447 214.881 12.4277 214.258 16.7735 214.933C16.5187 215.875 16.2848 216.74 16.0448 217.627C17.7422 217.739 19.4351 217.85 21.1299 217.961Z" fill="#CFBDAD"/>
<path d="M-14.5611 216.238C-10.2974 217.626 -6.20063 217.182 -2.1435 216.302C-0.8125 216.012 0.524045 215.749 2.66256 215.305C1.23106 218.701 -0.95355 218.56 -2.74522 218.608C-7.46925 218.736 -12.1214 220.098 -16.9486 218.897C-17.035 218.498 -17.1214 218.098 -17.2071 217.702C-16.2814 217.236 -15.3557 216.77 -14.4326 216.302C-14.4363 216.303 -14.5611 216.238 -14.5611 216.238Z" fill="#BB9F87" fill-opacity="0.5"/>
<path d="M7 169C12.7512 171.669 18.508 174.258 22.4277 180.35C22.2547 180.917 22.2268 181.09 22.154 181.219C22.0867 181.339 21.9797 181.491 21.8725 181.494C21.5921 181.504 21.1747 181.577 21.036 181.392C17.0512 176.023 11.7505 173.007 7 169Z" fill="#CFBDAD"/>
<path d="M7 192C11.754 191.636 15.9992 191.311 21.0938 190.92C17.7083 194.494 10.633 194.908 7 192Z" fill="#CFBDAD"/>
<path d="M25.5285 234.948C22.465 236.292 19.2555 235.083 16.0807 234.489C16.0534 234.005 16.0234 233.519 15.9942 233.035C19.1434 233.171 22.2908 233.308 25.4407 233.446C25.4689 233.948 25.4984 234.447 25.5285 234.948Z" fill="#BB9F87" fill-opacity="0.5"/>
<path d="M30.4858 232.425C27.4785 232.76 24.5322 232.437 21 230C24.8553 228.936 27.9066 228.151 30.4336 232.541L30.4858 232.425Z" fill="#CFBDAD"/>
<path d="M54.2696 218.057C51.6771 216.066 49.0838 214.074 46.4913 212.083C46.6492 211.775 46.8046 211.465 46.9626 211.157C49.7049 212.804 52.4478 214.446 54.613 217.352C54.4991 217.587 54.3853 217.821 54.2696 218.057Z" fill="#BB9F87" fill-opacity="0.5"/>
<path d="M28.0253 206.163C25.523 205.088 23.207 203.626 21 201C23.8522 201.315 24.9313 202.098 28.1452 205.921L28.0253 206.163Z" fill="#CFBDAD"/>
<path d="M-0.413232 200.719C1.24681 200.461 2.80726 200.494 3.88467 204.443C1.90032 203.454 0.599095 202.806 -0.702841 202.156C-0.607722 201.679 -0.509562 201.199 -0.413232 200.719Z" fill="#BB9F87" fill-opacity="0.5"/>
<path d="M51.575 205.446C49.5761 204.307 47.5772 203.169 45.5789 202.032C48.147 201.197 50.0751 202.833 51.9627 204.64C51.8343 204.91 51.7059 205.179 51.575 205.446Z" fill="#BB9F87" fill-opacity="0.5"/>
<path d="M54.6118 217.35C56.8773 218.515 57.9017 220.757 59.277 223.85C55.7534 223.107 55.8118 219.678 54.2704 218.054C54.3842 217.819 54.498 217.584 54.6118 217.35Z" fill="#BB9F87" fill-opacity="0.5"/>
<path d="M40.4018 225.056C42.0426 226.374 43.6853 227.691 45.326 229.008C45.2343 229.206 45.1425 229.405 45.0508 229.603C43.4634 228.166 41.876 226.73 40.2856 225.297C40.2818 225.298 40.4018 225.056 40.4018 225.056Z" fill="#BB9F87" fill-opacity="0.5"/>
</svg>
