<svg width="177" height="146" viewBox="0 0 177 146" fill="none" xmlns="http://www.w3.org/2000/svg">
<path d="M30.9006 100.462C30.1469 100.508 29.4823 100.785 28.7482 101.004C28.6161 101.044 28.5708 100.882 28.6815 100.805C29.336 100.343 30.1972 100.212 30.9246 100.194C31.0983 100.189 31.0767 100.452 30.9006 100.462Z" fill="#A60403" fill-opacity="0.83"/>
<path d="M35.2395 102.411C35.4337 102.349 35.6194 102.348 35.8141 102.336C36.0151 102.324 36.216 102.312 36.4173 102.299C36.6076 102.287 36.5823 102.574 36.3915 102.59C36.1903 102.607 35.9886 102.624 35.7874 102.641C35.5922 102.657 35.4042 102.683 35.2185 102.649C35.1001 102.628 35.1157 102.45 35.2395 102.411Z" fill="#A60403" fill-opacity="0.83"/>
<path d="M40.451 143.432C41.77 143.553 43.2252 142.944 42.9064 141.433C42.6235 140.092 41.319 138.957 40.7701 137.705C39.9946 135.937 39.6068 134.003 39.4307 132.01C39.085 128.1 39.6589 124.072 40.3916 120.062C40.9046 117.254 41.5392 114.439 43.0424 112.054C43.5446 111.379 44.1404 110.764 44.9307 110.262C46.8741 109.027 49.1035 109.51 51.1607 109.195C52.7317 108.954 54.321 108.534 55.8554 107.969C56.3726 107.778 56.8849 107.546 57.3973 107.308C58.3812 107.016 59.3175 106.644 60.2145 106.2C60.2987 106.179 60.382 106.153 60.4667 106.136C60.5673 106.115 60.6274 106.048 60.6566 105.97C63.2147 104.612 65.4501 102.638 67.5306 100.105C71.3162 95.4949 73.6337 90.2172 75.4569 84.84C77.5788 78.5825 79.1443 72.0941 82.521 66.1519C85.7309 60.5025 90.4976 55.7276 95.9795 52.1249C105.974 45.5563 117.496 43.1061 128.397 43.364C134.07 43.4981 139.592 44.4271 144.947 45.6468C147.867 46.3118 153.217 49.109 156.125 45.7589C159.293 42.11 156.027 38.2808 153.827 36.0381C150.406 32.5515 146.323 29.7001 141.853 27.5193C132.87 23.1372 122.526 21.1691 112.019 20.6758C90.4866 19.6646 69.094 29.0535 50.7529 43.1621C41.6393 50.1725 34.7288 58.6094 30.4416 68.9257C26.5108 78.3846 24.8543 88.5227 24.8406 98.1385C24.5273 99.4492 24.7948 100.669 25.4083 101.725C26.0098 103.154 27.6199 104.243 28.7658 105.076C30.3371 106.217 32.1582 107.333 34.2106 107.68C34.1932 107.716 34.1729 107.748 34.1551 107.785C32.6199 111 32.2782 114.798 32.0309 118.102C31.7604 121.714 31.8484 125.331 32.2101 128.835C32.5671 132.291 33.3384 135.72 34.9941 138.628C36.1199 140.603 37.8524 143.194 40.451 143.432ZM40.8618 105.052C41.3472 105.031 41.7981 105.083 42.2182 105.189C39.1991 106.818 37.1803 109.613 35.43 112.468C34.73 113.61 33.9519 114.945 33.4078 116.305C33.4259 116.136 33.4456 115.967 33.4665 115.798C34.7196 112.706 35.9468 109.918 38.207 107.166C38.2553 107.108 38.1875 107.034 38.1338 107.093C36.4128 108.987 34.7764 111.301 33.7967 113.7C34.0456 112.435 34.3886 111.187 34.8691 109.99C35.8602 107.525 38.1533 105.167 40.8618 105.052ZM46.4368 108.589C46.4479 108.581 46.4587 108.574 46.4697 108.567C46.484 108.571 46.4986 108.576 46.5134 108.58C46.4881 108.585 46.4632 108.589 46.4383 108.596C46.4377 108.593 46.4372 108.591 46.4368 108.589ZM34.6101 106.972C32.8761 106.047 30.9809 105.386 29.3704 104.241C29.3604 104.234 29.347 104.226 29.337 104.218C28.6144 103.579 27.8759 102.995 27.2333 102.367C27.2743 102.379 27.3134 102.395 27.3555 102.404C27.5451 102.445 27.7044 102.132 27.5205 102.065C27.3099 101.988 27.1703 101.868 26.9983 101.742C26.958 101.712 26.8957 101.685 26.8312 101.672C26.8461 101.578 26.8705 101.475 26.9023 101.364C27.0272 101.434 27.1672 101.488 27.3019 101.54C27.6444 101.672 27.9868 101.804 28.3292 101.936C28.4427 101.979 28.5545 101.813 28.4456 101.753C28.1306 101.578 27.8152 101.403 27.5002 101.228C27.3521 101.146 27.1897 101.061 27.0173 101.009C27.041 100.944 27.0668 100.878 27.0939 100.811C27.2866 100.769 27.4848 100.696 27.6624 100.65C28.1459 100.525 28.6299 100.4 29.1134 100.276C29.2427 100.242 29.2328 100.04 29.1042 100.058C28.618 100.126 28.1322 100.194 27.646 100.263C27.5425 100.278 27.4311 100.286 27.3181 100.297C27.3275 100.277 27.3374 100.257 27.3473 100.237C29.3967 99.8219 31.3923 99.1246 33.4821 98.9257C35.82 98.7032 38.1259 98.8054 40.3477 99.1722C44.8001 99.9068 48.7872 101.638 52.5029 103.799L52.5185 103.781C49.066 101.052 44.8239 99.21 40.2117 98.5333C36.5328 97.9936 31.5271 97.8474 27.6523 99.6456C27.6944 99.5692 27.7376 99.4939 27.781 99.4203C27.8267 99.3789 27.8744 99.3367 27.9304 99.2902C28.2894 98.9934 28.7112 98.7628 29.1291 98.5834C29.8335 98.2815 30.573 98.1153 31.2995 97.9543L31.2984 97.9326C30.4445 98.0327 29.5726 98.147 28.7306 98.4492C28.603 98.4951 28.4615 98.5483 28.3176 98.6087C28.5003 98.3721 28.6703 98.1963 28.8063 98.1245C29.231 97.9003 29.8391 97.8356 30.2895 97.7312C34.7176 96.7073 39.0337 96.6025 43.2389 97.3076C47.3094 97.9902 51.1612 99.3352 54.5322 101.397C55.9776 102.28 57.6812 104.359 59.6158 105.098C58.9284 105.538 58.2164 105.943 57.4757 106.303C55.6695 106.887 53.9125 107.452 52.0175 107.648C50.8643 107.767 49.5034 107.905 48.3316 107.719C47.0413 103.836 42.9196 101.777 38.515 102.64C38.444 102.654 38.4295 102.761 38.5052 102.753C42.8294 102.269 46.3035 104.179 48.0762 107.669C47.251 107.499 46.5386 107.147 46.0927 106.479C44.7706 104.498 43.2062 103.643 40.9826 103.844C38.6582 103.611 36.1459 104.537 34.6101 106.972ZM60.9502 104.175C60.739 101.507 57.7078 99.4939 55.2717 99.0542C55.2225 99.0454 55.1887 99.1165 55.2305 99.1391C56.4862 99.8135 57.6701 100.54 58.5948 101.605C59.3617 102.488 59.77 103.608 60.5004 104.502C60.4542 104.535 60.4076 104.566 60.3612 104.599C59.2398 103.996 58.3584 102.828 57.4546 102.102C56.7171 101.51 55.944 100.953 55.1438 100.438C53.1871 99.1791 51.0627 98.1651 48.7926 97.4252C44.3006 95.9607 39.3519 95.582 34.3415 96.1574C32.9457 96.318 29.8677 96.6259 27.6603 97.6171C30.1513 95.9908 34.5388 95.3044 36.4121 95.1057C39.6265 94.7652 42.7751 95.1329 45.7425 95.843L45.7581 95.7989C41.7353 94.4351 37.1627 94.2755 32.648 95.16C31.0535 95.4725 26.7144 96.3682 25.4103 98.2853C25.4186 97.9904 25.441 97.6849 25.4962 97.3548C25.5068 97.2918 25.4903 97.2468 25.4596 97.2171C26.1435 87.075 27.9918 76.7965 32.6077 66.9715C35.1442 61.5724 38.539 56.4075 42.7567 51.9512C47.4243 47.0191 52.973 42.9628 58.5471 39.1703C67.373 33.1658 76.8297 28.1635 86.7608 25.0873C97.4004 21.7913 107.938 21.2967 118.264 22.4602C128.422 23.6049 138.189 26.3896 146.38 31.6218C148.553 33.0101 150.59 34.5813 152.452 36.3339C154.225 38.0034 156.834 40.2095 156.423 43.103C155.673 48.3935 149.856 45.9151 147.135 45.2154C144.89 44.6379 142.62 44.1202 140.318 43.6911C122.896 40.445 101.888 42.2468 87.1005 57.346C79.5116 65.0957 76.9453 74.5913 73.7686 84.0937C71.3939 91.1966 67.4113 99.3553 60.9502 104.175ZM35.9134 138.073C35.0534 136.432 34.4772 134.635 34.081 132.774C33.296 129.086 33.0756 125.195 33.1417 121.304C33.1507 120.767 33.1641 120.22 33.1835 119.667C33.8327 117.208 34.3391 115.056 35.7867 112.651C37.5074 109.792 39.5893 107.039 42.5306 105.284C43.5315 105.62 44.3283 106.295 44.9167 107.15C38.1471 111.155 36.6994 120.143 36.3642 126.536C36.353 126.752 36.6818 126.729 36.7053 126.512C37.0596 123.183 37.4326 119.797 38.6011 116.503C39.9077 112.819 42.0904 110.038 45.0509 107.348C45.2823 107.715 45.4782 108.109 45.6371 108.52C40.1227 111.166 39.1201 118.578 38.3923 123.564C37.8624 127.19 37.5645 130.932 38.3265 134.345C38.6105 135.618 39.0119 136.859 39.5596 138.01C39.8922 138.71 40.2758 139.385 40.726 140.007C40.8892 140.232 41.3501 140.678 41.5992 141.143C40.3599 140.146 39.1599 139.285 38.2514 137.91L38.1892 137.948C38.9227 139.501 40.0028 141.152 41.6116 141.897C41.6479 141.914 41.6856 141.919 41.7234 141.917C41.6104 142.221 41.2379 142.477 40.4122 142.609C38.5735 142.901 36.5144 139.221 35.9134 138.073Z" fill="#A60403" fill-opacity="0.83"/>
<path d="M36.153 100.959C41.8104 99.513 48.1074 102.479 50.0741 107.325C50.1515 107.515 49.874 107.678 49.7631 107.513C46.6186 102.805 42.3027 100.88 36.1601 101.112C36.0737 101.116 36.0594 100.984 36.153 100.959Z" fill="#A60403" fill-opacity="0.83"/>
<path d="M33.5625 101.084C33.8685 100.853 34.2852 100.863 34.6301 100.811C34.7975 100.786 34.8091 101.05 34.6422 101.095C34.2995 101.186 33.8948 101.367 33.571 101.267C33.4852 101.241 33.4839 101.144 33.5625 101.084Z" fill="#A60403" fill-opacity="0.83"/>
<path d="M31.3303 101.671C31.4049 101.628 31.4797 101.575 31.5603 101.552C31.6495 101.527 31.7459 101.521 31.8357 101.506C32.0247 101.476 32.2142 101.445 32.403 101.414C32.5698 101.388 32.5832 101.657 32.4151 101.698C32.2267 101.743 32.0382 101.789 31.8498 101.835C31.7668 101.855 31.6813 101.882 31.5983 101.894C31.5069 101.908 31.4259 101.888 31.3393 101.874C31.2455 101.859 31.2398 101.724 31.3303 101.671Z" fill="#A60403" fill-opacity="0.83"/>
<path d="M29.9165 103.261C30.5357 103.475 31.1286 103.787 31.6855 104.106C32.1763 104.387 32.7435 104.602 33.1298 105.009C33.1746 105.057 33.1177 105.132 33.0542 105.127C32.4183 105.074 31.8377 104.736 31.3012 104.466C30.7527 104.191 30.2074 103.859 29.764 103.448C29.6719 103.362 29.8108 103.225 29.9165 103.261Z" fill="#A60403" fill-opacity="0.83"/>
<path d="M56.6815 104.346C57.2843 104.508 57.5989 105.352 57.9009 105.828L57.8434 105.872C57.4237 105.518 56.6245 105.089 56.5456 104.479C56.5364 104.411 56.607 104.327 56.6815 104.346Z" fill="#A60403" fill-opacity="0.83"/>
<path d="M26.2561 97.0377C26.05 97.2534 25.7716 96.9743 25.9773 96.7588C26.9604 95.7301 28.1772 95.2537 29.4734 95.1783L29.4714 95.2019C28.256 95.4022 27.1369 96.116 26.2561 97.0377Z" fill="#A60403" fill-opacity="0.83"/>
<path d="M27.1831 94.9203C26.9872 95.0387 26.7911 95.1566 26.5951 95.2751C26.5016 95.3315 26.437 95.2034 26.5288 95.1444C26.7216 95.0201 26.9141 94.8954 27.1074 94.771C27.2117 94.7031 27.2903 94.855 27.1831 94.9203Z" fill="#A60403" fill-opacity="0.83"/>
<path d="M36.3569 128.586C36.3624 128.498 36.4947 128.491 36.4932 128.576C36.4875 129.024 36.4843 129.461 36.4193 129.915C36.4127 129.963 36.3324 129.985 36.329 129.933C36.2977 129.485 36.3281 129.042 36.3569 128.586Z" fill="#A60403" fill-opacity="0.83"/>
<path d="M36.6071 131.225C36.6804 131.831 36.7581 132.428 36.7711 133.048L36.6809 133.065C36.5917 132.467 36.5694 131.859 36.54 131.246L36.6071 131.225Z" fill="#A60403" fill-opacity="0.83"/>
<path d="M34.9359 123.577C35.7019 118.026 37.9818 109.889 43.6237 106.534C43.7597 106.454 43.8985 106.625 43.7683 106.734C40.7218 109.307 38.7253 111.828 37.3554 115.481C36.2748 118.362 35.634 121.353 35.297 124.291C34.6456 129.963 35.5653 135.385 38.4133 139.841C38.4757 139.938 38.2925 140.082 38.2223 139.988C34.8808 135.51 34.1126 129.545 34.9359 123.577Z" fill="#A60403" fill-opacity="0.83"/>
<path d="M39.0534 141C39.1069 141.04 39.1645 141.078 39.2148 141.123C39.2708 141.172 39.2724 141.227 39.2605 141.304L39.1987 141.364C39.1179 141.379 39.0634 141.377 39.01 141.322C38.9638 141.274 38.9224 141.22 38.8792 141.17C38.79 141.067 38.9482 140.92 39.0534 141Z" fill="#A60403" fill-opacity="0.83"/>
<path d="M38.0449 111.065C36.7465 113.03 35.9307 115.188 35.2397 117.342L35.1514 117.337C35.9682 113.203 38.9005 108.227 42.7876 105.812L42.8005 105.83C41.116 107.544 39.3782 109.049 38.0449 111.065Z" fill="#A60403" fill-opacity="0.83"/>
<path d="M34.0992 121.125L34.0108 121.12C34.0807 120.666 34.1782 120.215 34.276 119.761C34.2912 119.69 34.4033 119.68 34.3898 119.753C34.3021 120.212 34.2154 120.668 34.0992 121.125Z" fill="#A60403" fill-opacity="0.83"/>
<path d="M33.8204 124.017C33.8022 124.082 33.6942 124.092 33.6885 124.026C33.6712 123.829 33.7134 123.625 33.7419 123.422C33.7722 123.203 33.8026 122.983 33.8331 122.764L33.9237 122.757C33.911 122.975 33.8986 123.193 33.8858 123.412C33.8743 123.614 33.8773 123.814 33.8204 124.017Z" fill="#A60403" fill-opacity="0.83"/>
<path d="M75.5858 72.9073C77.0448 69.3573 78.8252 65.8762 80.9933 62.5985C85.3361 56.0336 91.2962 50.2708 98.4391 46.9069C98.5478 46.8555 98.6266 46.9951 98.5148 47.0562C91.4727 50.9179 85.5959 56.5115 81.2367 63.2265C79.1265 66.4774 77.3959 69.9109 75.9802 73.4218C74.62 76.7953 73.9732 80.4664 72.4366 83.7579C72.409 83.8173 72.3234 83.8186 72.3261 83.7518C72.4764 80.281 74.2052 76.267 75.5858 72.9073Z" fill="#A60403" fill-opacity="0.83"/>
<path d="M70.095 88.8035C70.4465 88.0005 70.7608 87.1851 71.0898 86.3759C71.1187 86.3042 71.2143 86.3253 71.1969 86.3963C70.8216 87.9845 70.2245 89.8581 69.1588 91.2419C69.1102 91.305 69.0126 91.2805 69.038 91.2009C69.3042 90.3767 69.7442 89.6057 70.095 88.8035Z" fill="#A60403" fill-opacity="0.83"/>
<path d="M91.1061 49.4568C86.5139 53.6348 82.2994 58.1751 79.011 63.3742C77.3513 65.9983 75.8769 68.7399 74.6343 71.529C73.4374 74.2161 72.7936 77.069 71.5493 79.7182C71.5165 79.7877 71.4104 79.7925 71.4167 79.7108C71.6304 77.0005 72.9826 74.0262 74.1221 71.4312C75.3173 68.7093 76.736 66.0723 78.3783 63.5281C81.7942 58.2365 85.9597 53.2922 90.9448 49.2948C91.0766 49.1903 91.237 49.3377 91.1061 49.4568Z" fill="#A60403" fill-opacity="0.83"/>
<path d="M59.9724 99.4019C66.0718 94.8529 68.3785 88.5864 70.6183 82.0139L70.6421 82.015C69.3707 88.4683 66.3401 95.7343 60.0205 99.4951C59.9512 99.5358 59.9109 99.4475 59.9724 99.4019Z" fill="#A60403" fill-opacity="0.83"/>
<path d="M62.0554 96.0622L62.0755 96.0728C61.4258 96.9172 60.8238 97.645 59.8693 98.1581C59.8135 98.1884 59.7519 98.1195 59.8087 98.0749C60.5867 97.4643 61.4391 96.8408 62.0554 96.0622Z" fill="#A60403" fill-opacity="0.83"/>
<path d="M69.5914 79.5781C71.3249 72.2256 75.0435 64.111 80.3041 58.0016C80.4321 57.8527 80.6357 58.0154 80.5382 58.1719C78.4512 61.5137 76.2242 64.7147 74.4434 68.2065C72.5613 71.8972 71.0403 75.7658 69.6775 79.5945C69.6569 79.653 69.5784 79.6345 69.5914 79.5781Z" fill="#A60403" fill-opacity="0.83"/>
<path d="M68.415 81.9409C68.5027 81.7509 68.5909 81.5607 68.6786 81.3708C68.7287 81.2624 68.8938 81.2883 68.8507 81.4035C68.773 81.6096 68.6956 81.815 68.6178 82.0212C68.5531 82.1926 68.4898 82.3596 68.3516 82.4969C68.3107 82.5378 68.2596 82.5093 68.2583 82.4643C68.2512 82.2841 68.3357 82.1127 68.415 81.9409Z" fill="#A60403" fill-opacity="0.83"/>
<path d="M71.9267 68.5345C70.677 71.58 69.5741 74.664 68.2886 77.6965C68.2652 77.7525 68.1855 77.7377 68.2025 77.6802C69.1182 74.5602 70.4431 71.5308 71.8407 68.5181C71.8661 68.4641 71.9502 68.4774 71.9267 68.5345Z" fill="#A60403" fill-opacity="0.83"/>
<path d="M68.6479 71.8489C68.2455 73.0173 67.9542 74.3549 67.2579 75.4345C67.22 75.4935 67.1246 75.4791 67.1334 75.4107C67.2895 74.2135 67.9658 72.9633 68.4332 71.8083C68.4895 71.6678 68.6967 71.7056 68.6479 71.8489Z" fill="#A60403" fill-opacity="0.83"/>
<path d="M65.754 74.8065C65.838 74.5531 65.9714 74.3101 66.0901 74.0659C66.2048 73.8294 66.5324 73.9534 66.3925 74.1687C66.2346 74.4103 66.0868 74.6591 65.8983 74.8815C65.8328 74.9589 65.7271 74.8878 65.754 74.8065Z" fill="#A60403" fill-opacity="0.83"/>
<path d="M49.6903 48.2513C47.0495 51.5615 44.1342 54.6153 41.6723 58.067C39.378 61.2838 37.3411 64.6045 35.6159 68.0885C33.7827 71.7897 32.2632 75.6016 31.0838 79.4618C30.4587 81.5079 29.9284 83.5682 29.5014 85.6327C29.1261 87.4465 29.078 89.3755 28.4078 91.1481C28.3762 91.2316 28.2431 91.2511 28.2321 91.1609C27.8344 87.91 29.4051 83.4531 30.4013 80.1524C31.5752 76.2646 33.0965 72.4274 34.9322 68.6985C38.4463 61.559 43.1638 53.4967 49.4228 48.0568C49.5772 47.9229 49.8356 48.0697 49.6903 48.2513Z" fill="#A60403" fill-opacity="0.83"/>
<path d="M35.2618 72.3754C36.9508 68.7008 38.9196 64.9306 41.5447 61.7041C41.6414 61.5857 41.8104 61.6626 41.7325 61.8004C39.5695 65.6249 37.2303 69.2861 35.4531 73.2726C34.6276 75.1246 33.8891 77.0031 33.2416 78.8974C32.6886 80.517 32.3992 82.2378 31.5695 83.7782C31.5321 83.8475 31.4452 83.8138 31.445 83.7544C31.4371 80.2708 33.7253 75.7186 35.2618 72.3754Z" fill="#A60403" fill-opacity="0.83"/>
<path d="M30.8938 85.6293C30.9367 85.5009 31.1324 85.5382 31.087 85.6661C30.9187 86.1401 30.753 86.6113 30.5569 87.0788C30.5273 87.1492 30.4301 87.1305 30.4498 87.0585C30.5784 86.5781 30.7365 86.1052 30.8938 85.6293Z" fill="#A60403" fill-opacity="0.83"/>
<path d="M34.3738 79.1658C34.8956 77.6677 35.5604 76.2082 36.3103 74.7758L36.3505 74.7897C35.737 76.1678 35.2125 77.5613 34.791 78.9811C34.3754 80.381 34.2984 81.8965 33.7161 83.2502C33.6577 83.386 33.4198 83.4403 33.4079 83.2727C33.3167 81.9677 33.9211 80.4654 34.3738 79.1658Z" fill="#A60403" fill-opacity="0.83"/>
<path d="M35.563 80.1431C35.7239 79.5907 35.9447 79.0534 36.2066 78.5256C36.2602 78.4174 36.4364 78.4773 36.3876 78.5872C36.1666 79.0885 35.9843 79.5988 35.8556 80.1175C35.7639 80.4893 35.8073 81.0675 35.5124 81.3736L35.4323 81.3797C35.2146 81.0876 35.4581 80.503 35.563 80.1431Z" fill="#A60403" fill-opacity="0.83"/>
<path d="M37.666 80.2474C37.7141 79.9065 37.8414 79.569 37.9457 79.2322C37.9861 79.1031 38.179 79.1405 38.1389 79.2689C38.0341 79.6059 37.9487 79.9472 37.79 80.2714C37.7587 80.3364 37.6569 80.3114 37.666 80.2474Z" fill="#A60403" fill-opacity="0.83"/>
<path d="M48.4069 53.9916C48.9075 53.3472 49.4468 52.7711 50.0405 52.2037C50.1457 52.1033 50.319 52.2143 50.2244 52.3374C49.7183 52.9949 49.219 53.6616 48.733 54.3324C48.3443 54.8685 48.0395 55.4402 47.4952 55.8423C47.4383 55.8842 47.3541 55.8387 47.3664 55.7743C47.4924 55.1022 47.9718 54.5521 48.4069 53.9916Z" fill="#A60403" fill-opacity="0.83"/>
<path d="M50.1564 55.583C50.0866 55.6355 50.0079 55.5742 50.0114 55.5066C50.0507 54.8001 50.9039 54.0901 51.4565 53.6631C51.65 53.5136 51.8662 53.8074 51.6738 53.9632C51.3386 54.2344 51.0318 54.5314 50.7699 54.8723C50.5699 55.1326 50.4237 55.3813 50.1564 55.583Z" fill="#A60403" fill-opacity="0.83"/>
<path d="M52.6979 55.8028C52.4391 56.0546 52.1015 55.7173 52.3608 55.4652C52.6191 55.2136 52.9571 55.5507 52.6979 55.8028Z" fill="#A60403" fill-opacity="0.83"/>
<path d="M120.251 40.5874C126.006 40.0582 131.875 40.7412 137.311 41.681C142.819 42.6331 148.1 44.4774 153.799 44.7881C153.893 44.7934 153.848 44.93 153.765 44.9436C148.341 45.8266 143.298 43.4285 138.337 42.4273C132.429 41.2347 126.38 41.0372 120.231 40.8113C120.09 40.8065 120.101 40.6012 120.251 40.5874Z" fill="#A60403" fill-opacity="0.83"/>
<path d="M112.437 41.7383C113.773 41.2446 115.296 41.1292 116.655 40.9455C116.73 40.9353 116.718 41.0451 116.645 41.0576C115.256 41.2929 113.827 41.7503 112.443 41.8915C112.35 41.9007 112.351 41.7703 112.437 41.7383Z" fill="#A60403" fill-opacity="0.83"/>
<path d="M107.21 43.1583C107.411 42.9892 107.688 42.9472 107.926 42.8706C108.223 42.7753 108.519 42.6802 108.816 42.5849C108.961 42.5385 108.999 42.747 108.855 42.7974C108.56 42.9008 108.264 43.0043 107.969 43.1077C107.732 43.1905 107.476 43.3271 107.238 43.3053C107.173 43.2996 107.156 43.2039 107.21 43.1583Z" fill="#A60403" fill-opacity="0.83"/>
<path d="M118.028 38.4418C123.926 37.2849 130.339 38.7332 135.815 39.7113C141.876 40.7936 147.853 42.0996 153.937 43.1178C154.164 43.1556 154.037 43.4902 153.814 43.4712C147.718 42.9528 141.911 41.4331 136.032 40.2437C133.171 39.6646 130.258 39.2031 127.305 38.9172C124.217 38.6182 121.07 38.8599 117.975 38.6864C117.823 38.6782 117.9 38.4666 118.028 38.4418Z" fill="#A60403" fill-opacity="0.83"/>
<path d="M112.285 39.1491C112.196 39.1601 112.21 39.0279 112.297 39.0149C113.057 38.8972 113.817 38.779 114.578 38.6614C114.709 38.6409 114.693 38.8462 114.56 38.8632C113.801 38.9579 113.043 39.0535 112.285 39.1491Z" fill="#A60403" fill-opacity="0.83"/>
<path d="M108.835 39.6119C109.414 39.4127 110.012 39.3535 110.6 39.2549C110.664 39.2442 110.668 39.3474 110.604 39.364C110.019 39.5178 109.429 39.7131 108.841 39.7646C108.75 39.7723 108.746 39.642 108.835 39.6119Z" fill="#A60403" fill-opacity="0.83"/>
<path d="M104.222 40.9118C104.833 40.547 105.609 40.4249 106.27 40.2289C106.386 40.1946 106.416 40.3586 106.3 40.3988C105.645 40.6261 104.912 40.9891 104.245 41.0349C104.178 41.0396 104.16 40.9491 104.222 40.9118Z" fill="#A60403" fill-opacity="0.83"/>
<path d="M125.401 35.0598C125.272 35.0336 125.31 34.814 125.454 34.8151C130.439 34.8528 135.345 36.1623 140.001 37.2872C144.721 38.4279 149.409 39.885 153.637 42.0077C153.786 42.0827 153.633 42.3062 153.481 42.2517C148.853 40.5805 144.287 38.8287 139.468 37.5551C134.886 36.3431 130.066 36.0022 125.401 35.0598Z" fill="#A60403" fill-opacity="0.83"/>
<path d="M120.865 34.5619C119.936 34.5684 118.943 34.6755 118.08 34.4303C118.015 34.4118 118.006 34.2986 118.094 34.2787C119.036 34.0612 119.976 34.1926 120.895 34.2262C121.106 34.2338 121.086 34.5606 120.865 34.5619Z" fill="#A60403" fill-opacity="0.83"/>
<path d="M114.063 34.417C114.239 34.4206 114.415 34.4243 114.592 34.4279L114.588 34.4725C114.411 34.4689 114.235 34.4652 114.059 34.4611L114.063 34.417Z" fill="#A60403" fill-opacity="0.83"/>
<path d="M109.493 34.8066C110.098 34.7342 110.703 34.6614 111.309 34.5891L111.301 34.6787C110.695 34.7511 110.09 34.8239 109.485 34.8962L109.493 34.8066Z" fill="#A60403" fill-opacity="0.83"/>
<path d="M129.468 26.775C125.263 25.7498 120.928 25.09 116.51 24.7335C111.52 24.331 106.466 24.7059 101.453 24.5251C101.183 24.5153 101.207 24.1374 101.491 24.0994C106.263 23.4644 111.233 23.8038 115.872 24.1201C120.843 24.4586 125.753 25.2222 130.424 26.4847C134.871 27.6865 139.102 29.3609 143.067 31.4643C147.136 33.6238 151.517 36.207 154.238 39.9062C154.278 39.9602 154.205 40.032 154.151 39.9911C150.409 37.1679 147.092 34.0161 142.88 31.7572C138.73 29.5323 134.177 27.9228 129.468 26.775Z" fill="#A60403" fill-opacity="0.83"/>
<path d="M98.1956 24.9764C97.5395 25.0546 96.8638 25.1792 96.2119 25.2039C96.1389 25.2067 96.1256 25.0909 96.2062 25.073C96.8686 24.9248 97.5492 24.8702 98.2131 24.7753C98.3453 24.7562 98.328 24.9606 98.1956 24.9764Z" fill="#A60403" fill-opacity="0.83"/>
<path d="M93.8905 25.552C94.1252 25.5159 94.3593 25.48 94.5938 25.4435C94.6957 25.4278 94.6832 25.5879 94.5798 25.6003C94.3458 25.6288 94.1123 25.6572 93.8785 25.6862C93.7898 25.6972 93.8033 25.5651 93.8905 25.552Z" fill="#A60403" fill-opacity="0.83"/>
<path d="M90.3408 26.4646C89.5292 26.7088 88.7172 26.9533 87.9057 27.1975C87.8186 27.2238 87.7952 27.0953 87.8826 27.0699C88.6956 26.8328 89.5084 26.5952 90.3214 26.3581C90.3938 26.3372 90.4137 26.4423 90.3408 26.4646Z" fill="#A60403" fill-opacity="0.83"/>
<path d="M98.3756 28.6738C103.053 27.0075 108.372 26.7972 113.039 26.7764C117.899 26.7547 122.663 27.2893 127.246 28.2986C137.326 30.5186 146.689 35.1628 154.398 41.2907C154.561 41.4205 154.295 41.7513 154.124 41.6264C146.05 35.7532 137.306 31.0621 127.088 28.7514C122.552 27.7256 117.817 27.2027 112.998 27.2244C108.081 27.2464 103.314 28.3047 98.3841 28.8917C98.2519 28.908 98.2517 28.7181 98.3756 28.6738Z" fill="#A60403" fill-opacity="0.83"/>
<path d="M94.9657 29.7546C94.7049 29.8378 94.4357 29.8842 94.172 29.9559C94.0865 29.9793 94.0371 29.8639 94.1253 29.816C94.3763 29.681 94.6412 29.5237 94.9093 29.4428C95.1826 29.3607 95.4625 29.3079 95.7381 29.2554C95.8811 29.2276 95.8874 29.4543 95.748 29.4955C95.4852 29.5729 95.2275 29.6709 94.9657 29.7546Z" fill="#A60403" fill-opacity="0.83"/>
<path d="M90.5782 31.0134C91.1452 30.5318 91.7552 30.3318 92.4357 30.1617C92.7692 30.0785 92.8583 30.5297 92.524 30.6505C91.8968 30.8771 91.3119 31.1466 90.6671 31.2731C90.5303 31.2997 90.4712 31.1047 90.5782 31.0134Z" fill="#A60403" fill-opacity="0.83"/>
<path d="M79.3751 40.452C73.8679 48.6466 63.0394 46.8565 56.1559 53.1141C56.0277 53.2304 55.8758 53.0781 55.9944 52.9528C62.4871 46.1185 73.3644 48.0599 79.2622 40.3942C79.3185 40.3215 79.4282 40.3735 79.3751 40.452Z" fill="#A60403" fill-opacity="0.83"/>
<path d="M64.9004 49.5223C65.9434 49.1067 67.0239 48.9039 68.0794 48.5434C69.249 48.1434 70.4109 47.6468 71.544 47.1157C71.6797 47.0523 71.7767 47.22 71.6391 47.3025C69.645 48.4949 67.1208 49.708 64.9099 49.7409C64.7796 49.7425 64.7741 49.5726 64.9004 49.5223Z" fill="#A60403" fill-opacity="0.83"/>
<path d="M65.4831 50.5625C66.6145 50.0044 67.9842 49.8798 69.1705 49.6202C69.3711 49.5764 69.4322 49.8617 69.224 49.9178C68.0469 50.2366 66.7059 50.7808 65.5241 50.7883C65.4126 50.7888 65.3546 50.6255 65.4831 50.5625Z" fill="#A60403" fill-opacity="0.83"/>
<path d="M66.6647 52.0189C66.4924 52.0291 66.3202 52.0397 66.1473 52.0501C66.0584 52.0556 66.0719 51.9285 66.1593 51.9159C66.333 51.8907 66.5067 51.8655 66.6802 51.8398C66.7972 51.8224 66.7829 52.0116 66.6647 52.0189Z" fill="#A60403" fill-opacity="0.83"/>
<path d="M61.0676 48.1763C58.6518 49.2975 56.9558 50.8969 55.0488 52.7447C54.9523 52.838 54.8011 52.7372 54.8816 52.6232C56.3371 50.5612 58.7885 49.0275 61.0282 48.0565C61.1014 48.0247 61.1421 48.1423 61.0676 48.1763Z" fill="#A60403" fill-opacity="0.83"/>
<path d="M56.3732 49.8711C56.1802 50.0449 55.9877 50.2185 55.7948 50.3922C55.6249 50.5452 55.4602 50.7354 55.2562 50.833C55.1761 50.8712 55.0867 50.8063 55.1431 50.7197C55.2668 50.5304 55.474 50.3914 55.647 50.2443C55.8452 50.0759 56.0432 49.9071 56.2414 49.7388C56.3479 49.6489 56.4795 49.7757 56.3732 49.8711Z" fill="#A60403" fill-opacity="0.83"/>
<path d="M54.341 50.3098C54.2064 50.4221 54.0721 50.5349 53.9376 50.6473C53.8314 50.7366 53.6524 50.6396 53.7537 50.5137C53.8604 50.3808 53.9667 50.2482 54.0735 50.1153C54.1462 50.0248 54.2567 49.9786 54.3455 50.0433C54.4197 50.0971 54.4322 50.2327 54.341 50.3098Z" fill="#A60403" fill-opacity="0.83"/>
<path d="M54.9913 56.0573C54.3907 56.8806 53.8772 57.7392 53.4873 58.6565C53.1791 59.382 53.0263 60.1576 52.6592 60.8602C52.5985 60.9766 52.4525 60.9184 52.4517 60.8204C52.4409 59.2181 53.8158 57.2635 54.8741 55.972C54.9346 55.8985 55.0469 55.9805 54.9913 56.0573Z" fill="#A60403" fill-opacity="0.83"/>
<path d="M53.469 60.7439C53.341 59.8347 53.928 58.908 54.7617 58.3539C54.8064 58.3241 54.8536 58.386 54.8099 58.4203C54.0548 59.0175 53.7224 59.8459 53.6498 60.7077C53.6415 60.8081 53.483 60.8433 53.469 60.7439Z" fill="#A60403" fill-opacity="0.83"/>
<path d="M54.7699 59.8527C54.8506 59.7392 55.0165 59.8219 54.939 59.939C54.6941 60.3091 54.467 60.717 54.1787 61.0597C54.0854 61.1704 53.9508 61.0483 54.0115 60.9381C54.2176 60.5623 54.518 60.206 54.7699 59.8527Z" fill="#A60403" fill-opacity="0.83"/>
<path d="M82.4145 47.6617C82.341 47.6776 82.2992 47.5883 82.3746 47.5421C85.5378 45.5977 87.7592 43.3817 88.6652 39.8426C88.7047 39.6873 88.9431 39.7084 88.9303 39.8575C88.6544 43.1355 85.9034 46.919 82.4145 47.6617Z" fill="#A60403" fill-opacity="0.83"/>
<path d="M83.557 48.1747C84.1754 47.5248 84.9815 47.0634 85.6622 46.4748C86.3474 45.8824 87.0148 45.2614 87.6463 44.6128C87.721 44.5358 87.8485 44.6227 87.7799 44.7098C86.739 46.037 85.2513 47.7431 83.6402 48.3357C83.5361 48.3746 83.4859 48.2496 83.557 48.1747Z" fill="#A60403" fill-opacity="0.83"/>
<path d="M85.258 48.0765C85.5356 47.8903 85.8456 47.7658 86.1305 47.5908C86.4541 47.392 86.754 47.1625 87.0407 46.91C87.111 46.8483 87.1966 46.9316 87.1291 46.9981C86.6337 47.4825 85.9721 48.0605 85.3117 48.2362C85.2082 48.2636 85.1653 48.1387 85.258 48.0765Z" fill="#A60403" fill-opacity="0.83"/>
<path d="M87.1103 48.0414C87.2217 47.9127 87.4014 48.0843 87.2714 48.203C87.1421 48.3208 87.0133 48.4384 86.884 48.5562C86.7895 48.6425 86.6857 48.5323 86.7667 48.4386C86.8811 48.3063 86.9955 48.174 87.1103 48.0414Z" fill="#A60403" fill-opacity="0.83"/>
</svg>
