<svg width="135" height="294" viewBox="0 0 135 294" fill="none" xmlns="http://www.w3.org/2000/svg">
<path d="M284.935 138.138C285.413 149.191 283.166 159.985 281.479 170.77C280.739 175.498 278.28 180.064 276.066 184.428C270.474 195.451 263.638 205.724 256.56 215.835C255.061 217.974 253.848 220.317 252.535 222.587C248.519 229.529 244.577 236.518 240.498 243.422C235.203 252.382 227.459 258.877 219.239 265.006C208.321 273.146 196.168 279.129 184.263 285.483C179.511 288.019 173.846 288.914 168.525 290.267C159.578 292.539 150.505 294.323 141.229 293.951C131.893 293.575 122.441 293.537 113.274 291.969C95.0449 288.853 78.8809 280.906 65.2694 268.137C59.2068 262.449 52.9603 256.891 47.4643 250.68C42.5934 245.175 38.5796 238.892 34.3128 232.862C31.5637 228.974 28.7122 225.1 26.4816 220.91C19.9612 208.666 13.7294 196.269 7.38252 183.932C4.34079 178.017 1.51228 172.012 0.64889 165.318C-0.264674 158.245 -0.252159 151.172 0.933174 144.11C2.5178 134.679 4.09824 125.247 5.53653 115.794C6.39364 110.16 8.95248 105.227 11.6305 100.392C17.0031 90.6881 22.4594 81.1086 26.2537 70.552C28.4007 64.5782 32.4668 59.2726 35.8577 53.7862C41.0505 45.3834 49.0364 39.8635 56.7568 34.1986C74.8273 20.9356 95.1097 12.4718 116.565 6.38876C126.616 3.53949 136.881 2.23462 147.099 0.658692C158.353 -1.07693 169.51 0.801587 180.293 4.14044C191.13 7.49611 201.917 11.1102 212.451 15.3085C217.021 17.1302 221.067 20.4817 225.045 23.5369C228.3 26.0353 231.055 29.1808 234.118 31.946C238.796 36.1716 243.841 40.0295 248.189 44.5681C253.499 50.1091 258.542 55.9673 263.172 62.0924C270.938 72.3632 274.039 84.8088 278.096 96.7523C281.128 105.676 283.229 114.863 284.157 124.264C284.611 128.867 284.688 133.511 284.935 138.138ZM185.785 208.082C186.493 209.536 187.202 210.988 187.911 212.442C188.172 212.282 188.433 212.12 188.695 211.959C187.693 210.694 186.694 209.429 185.693 208.164C187.396 205.63 185.923 203.203 185.565 200.311C184.608 200.99 183.939 201.463 183.374 201.862C184.261 204.152 185.022 206.117 185.785 208.082ZM177.546 191.276C178.217 192.755 178.89 194.235 179.852 196.353C180.644 195.126 181.361 194.518 181.395 193.873C181.553 190.862 178.522 192.631 177.466 191.356C172.779 183.172 166.907 176.042 159.772 169.82C156.73 167.169 154.272 163.578 152.33 159.987C150.528 156.654 148.579 154.252 144.685 153.899C143.192 159.693 145.45 165.988 150.229 169.444C152.965 171.426 155.865 173.199 158.478 175.328C164.9 180.562 171.199 185.947 177.546 191.276ZM190.237 172.762L190.348 172.846C187.582 172.134 184.838 171.333 182.047 170.741C179.893 170.283 177.376 170.667 176.749 167.574C176.695 167.301 175.604 167.242 174.032 166.83C176.896 171.453 179.147 175.252 181.564 178.944C183.999 182.661 186.761 186.172 189.071 189.961C190.72 192.665 192.274 195.569 193.112 198.597C193.919 201.509 193.94 204.69 193.971 207.758C194.026 212.976 194.182 218.239 193.58 223.4C193.219 226.495 191.596 229.472 190.352 232.425C189.479 234.498 188.103 236.364 187.296 238.457C186.631 240.18 185.948 241.546 183.897 241.611C183.625 238.819 184.001 236.184 184.915 233.467C187.562 225.598 188.116 217.768 183.33 210.343C182.672 209.322 182.339 208.09 181.827 206.968C178.211 199.051 173.68 191.949 166.817 186.25C158.746 179.547 149.363 174.412 142.235 165.378C142.235 168.724 142.235 171.367 142.235 174.012C142.065 174.019 141.898 174.023 141.729 174.029C141.545 173.365 141.361 172.701 140.997 171.388C140.491 173.161 139.632 174.51 139.879 175.609C140.79 179.698 138.576 182.865 136.849 185.952C131.96 194.697 126.735 203.259 121.499 211.805C118.839 216.144 115.89 220.273 111.435 223.068C108.184 225.108 105.128 227.457 101.896 229.529C98.5675 231.664 95.7557 234.135 95.1641 238.344C93.9453 238.577 92.9419 238.77 91.8945 238.972C92.3147 239.642 92.6701 240.205 92.7913 240.401C90.96 242.099 89.4234 243.521 87.9684 244.868C88.5705 245.967 88.9782 246.713 89.4674 247.606C88.1984 248.047 87.126 248.228 86.2667 248.76C84.172 250.052 87.5044 251.304 86.6117 251.966C83.7978 254.055 86.9671 255.437 87.2368 257.072C85.0083 257.459 83.064 257.795 80.7164 258.2C82.9261 259.539 84.5421 260.52 86.156 261.499C86.0556 261.829 85.9532 262.161 85.8528 262.491C84.1072 262.226 82.3596 261.964 79.945 261.598C81.8327 263.115 83.1644 264.185 84.4961 265.256C84.3999 265.54 84.3016 265.822 84.2034 266.105C82.7776 266.229 81.3519 266.355 79.1924 266.544C81.0801 268.022 82.3094 268.982 84.1804 270.446C82.3993 270.764 81.4439 270.932 80.3673 271.123C81.6007 272.314 82.6125 273.291 83.8209 274.458C82.646 275.01 82.0292 275.3 80.9233 275.823C82.7526 276.95 84.2724 277.887 86.1832 279.064C89.2625 276.622 92.4192 274.437 95.1913 271.835C97.9403 269.257 100.301 266.261 102.83 263.447C102.458 267.723 99.6232 270.148 97.033 272.707C94.4742 275.237 91.7858 277.633 89.043 280.192C94.0059 283.106 95.6742 282.913 99.2114 279.528C104.078 274.872 107.716 269.41 110.214 263.138C111.531 259.829 113.076 256.612 114.518 253.355C114.813 253.481 115.108 253.605 115.401 253.731C114.198 257.328 113.189 261.006 111.742 264.502C110.214 268.196 108.541 271.888 106.432 275.264C104.477 278.397 101.862 281.112 99.2929 284.314C103.871 285.699 107.939 286.981 112.045 288.13C112.998 288.397 114.219 288.555 115.074 288.187C122.559 284.974 128.153 279.854 131.163 272.043C132.267 269.181 133.862 266.509 135.305 263.785C135.652 263.13 136.274 262.623 136.772 262.048C135.01 268.406 132.783 274.449 129.877 280.141C128.464 282.913 125.816 285.06 123.654 287.424C123.041 288.095 122.174 288.527 121.26 289.185C125.659 290.788 128.445 288.92 130.847 285.995C131.531 285.163 132.311 284.396 132.905 283.505C137.075 277.231 141.242 271.016 144.262 263.989C147.361 256.78 149.595 249.554 149.549 241.672C149.543 240.785 149.93 239.897 150.135 239.008C150.49 239.041 150.845 239.075 151.199 239.109C151.33 240.537 151.736 242.002 151.548 243.387C150.783 249.035 150.156 254.675 147.85 260.045C144.187 268.572 140.497 277.03 134.581 284.298C133.367 285.79 132.386 287.473 131.008 289.488C134.374 289.866 137.084 290.332 139.801 290.389C140.813 290.412 141.904 289.572 142.849 288.954C143.595 288.464 144.087 287.576 144.839 287.103C148.531 284.785 150.689 281.301 152.399 277.433C153.049 275.962 153.806 274.537 154.514 273.092C153.916 279.118 150.344 283.758 146.959 289.532C149.403 289.532 151.071 289.763 152.652 289.49C158.382 288.5 164.047 287.025 169.807 286.355C173.823 285.888 175.257 283.312 176.379 280.236C177.004 278.523 177.027 276.599 177.435 274.794C177.696 273.636 178.165 272.524 178.541 271.39L178.472 271.333C178.169 275.454 177.864 279.574 177.554 283.774C182.059 284.167 184.137 279.622 187.729 279.135C187.729 277.511 187.486 276.155 187.766 274.92C190.212 264.128 188.005 254.135 182.85 244.599C182.089 243.191 181.493 241.693 180.822 240.235C181.077 240.069 181.332 239.901 181.585 239.735C182.381 240.327 183.176 240.92 183.974 241.51C186.669 247.066 189.349 252.678 189.955 258.898C190.553 265.029 190.656 271.209 190.975 277.404C197.83 275.874 200.339 271.257 200.523 264.928C200.602 262.165 200.535 259.396 200.535 256.631C200.822 256.629 201.11 256.627 201.397 256.624C201.397 261.714 201.397 266.803 201.397 271.949C204.66 271.251 205.689 269.15 205.77 266.481C205.831 264.485 205.845 262.441 205.492 260.487C204.765 256.456 203.78 252.475 202.9 248.474C206.514 254.475 206.663 261.314 207.62 268.524C212.61 265.084 217.111 261.98 221.048 259.268C222.685 254.792 217.952 253.584 217.58 250.211C219.637 249.909 220.851 250.966 221.792 252.056C222.829 253.26 223.494 254.79 224.332 256.2C228.774 252.966 229.042 252.443 227.225 248.106C225.8 244.702 224.06 241.433 222.461 238.102C222.662 237.921 222.862 237.739 223.065 237.56C225.511 241.893 227.955 246.223 230.675 251.041C232.782 248.199 234.594 245.755 236.369 243.357C233.177 234.345 227.865 226.955 221.729 220.277C215.564 213.568 208.266 208.141 199.639 204.65C202.555 203.43 204.867 204.629 207.018 205.985C218.788 213.411 228.71 222.622 234.935 235.394C235.652 236.862 236.796 238.121 237.891 239.693C241.456 235.684 236.148 233.128 236.982 229.537C238.37 231.435 239.582 233.091 241.052 235.097C244.844 228.596 250.322 223.171 246.795 215.062C246.743 214.94 247.054 214.657 247.357 214.211C248.204 215.73 248.979 217.119 249.958 218.872C251.593 216.319 252.979 214.154 254.133 212.354C251.745 207.292 249.59 202.724 247.434 198.156C247.587 198.013 247.74 197.87 247.892 197.727C250.493 201.599 253.096 205.47 255.711 209.366C258.013 207.861 257.981 206.105 257.017 204.037C255.79 201.404 254.697 198.708 253.545 196.04C253.788 195.928 254.03 195.817 254.273 195.706C255.876 198.416 257.477 201.125 259.428 204.424C262.106 200.148 264.389 196.363 266.818 192.678C268.02 190.856 267.853 189.253 266.697 187.572C264.878 184.926 263.072 182.27 261.259 179.616C261.47 179.423 261.684 179.23 261.895 179.039C264.353 181.84 266.814 184.64 269.475 187.673C270.136 186.714 270.504 186.063 270.982 185.506C273.612 182.443 274.114 179.446 271.078 176.257C270.301 175.437 270.056 174.105 269.569 173.006C271.348 174.405 273.127 175.805 274.961 177.246C278.853 173.454 273.692 172.008 272.527 169.022C274.415 169.93 275.684 170.541 276.976 171.165C279.955 163.393 279.271 163.124 274.007 158.825C272.124 157.287 269.818 156.263 267.675 155.059C265.363 153.761 263.015 152.527 260.682 151.264C260.839 150.962 260.994 150.659 261.151 150.359C267.033 153.338 272.918 156.318 279.271 159.535C279.576 157.041 279.813 155.106 280.101 152.75C273.915 150.857 267.957 149.031 261.692 147.115C268.371 146.316 274.095 149.678 280.653 150.445C280.791 147.751 280.914 145.358 281.052 142.717C276.844 142.717 273.056 142.748 269.268 142.708C265.447 142.666 261.615 142.704 257.808 142.427C253.832 142.135 249.855 141.649 245.923 140.985C242.146 140.346 238.433 139.329 234.676 138.55C227.955 137.157 225.547 136.358 224.447 134.837C233.957 136.646 243.208 138.516 252.5 140.143C261.958 141.798 271.398 140.849 280.96 139.888C280.96 137.102 280.96 134.757 280.96 132.423C276.25 132.99 272.026 133.91 267.805 133.896C263.523 133.881 259.102 135.787 253.978 133.217C260.369 132.734 265.86 132.49 271.302 131.834C273.991 131.511 276.648 130.582 279.204 129.622C280.829 129.012 281.531 127.634 280.329 125.913C271.547 128.893 255.974 131.366 250.012 130.458C252.427 129.901 254.018 129.46 255.636 129.172C261.372 128.155 267.144 127.313 272.851 126.159C275.671 125.59 278.492 124.69 280.561 122.331C280.181 121.099 279.832 119.96 279.426 118.647C272.914 119.935 266.883 122.721 260.298 121.662C266.596 119.937 273.232 119.347 279.079 115.77C278.964 112.854 278.893 110.177 277.417 107.742C270.249 111.205 270.249 111.205 268.507 109.774C270.807 108.479 273.083 107.254 275.301 105.928C277.076 104.867 276.815 103.619 275.588 102.272C268.229 107.401 251.751 113.886 246.722 113.451C248.06 112.856 249 112.39 249.975 112.009C255.13 110.003 260.339 108.124 265.438 105.981C267.823 104.979 270.152 103.691 272.239 102.163C274.701 100.362 275.732 97.9163 273.869 94.9578C259.739 103.823 257.248 104.882 247.307 106.038C248.95 105.264 250.646 104.615 252.381 104.096C258.479 102.272 264.096 99.5048 269.189 95.6575C273.389 92.4846 273.585 91.4256 270.627 86.3133C265.754 90.562 260.931 94.8464 255.065 98.1874C255.065 97.515 255 97.2859 255.073 97.225C258.257 94.5669 261.445 91.9152 264.65 89.2824C270.171 84.7479 270.468 82.8379 266.371 75.9963C265.221 77.6079 264.205 79.1019 263.118 80.5433C258.824 86.2335 254.112 91.5538 248.241 95.6281C242.687 99.4838 236.913 103.02 231.231 106.693C230.196 107.361 229.211 108.212 228.076 108.576C227.403 108.792 226.479 108.223 224.807 107.779C230.794 104.02 235.73 100.604 240.954 97.7125C248.501 93.5352 254.82 88.0784 259.999 81.1884C266.026 73.168 266.968 73.002 259.748 63.8112C259.668 63.7104 259.472 63.7041 259.33 63.6536C255.654 72.8822 252.37 77.9777 248.618 79.9823C252.383 74.5716 255.851 69.3627 257.369 63.0296C257.992 60.4303 257.254 59.4617 255.261 58.514C252.506 63.3511 250.219 68.0935 247.276 72.3821C241.242 81.1737 239.702 82.5563 236.85 83.5355C239.737 79.7238 242.9 76.1139 245.405 72.088C248.074 67.7973 250.242 63.1725 252.356 58.5666C252.918 57.3415 253.004 55.3433 252.375 54.2401C251.29 52.3427 249.466 50.8718 247.75 48.9975C244.416 60.8842 241.198 66.9652 236.896 69.7934C245.488 55.8497 246.536 50.6386 243.375 45.1943C242.626 46.7177 241.943 48.0562 241.305 49.4136C238.69 55.0008 236.365 60.7497 233.426 66.1583C226.046 79.7407 215.134 90.5095 204.74 101.665C203.602 102.884 202.613 102.39 202.005 100.675C219.95 84.813 233.675 65.9902 241.395 42.8556C240.755 42.3702 240.088 41.8659 239.206 41.1978C237.325 45.2321 235.623 48.8862 233.919 52.5381C234.329 48.7391 235.45 45.2573 236.787 41.8596C237.776 39.3466 237.005 38.0753 233.907 37.4323C232.102 49.1425 226.209 58.7073 218.627 67.3497C219.641 64.7967 220.956 62.395 222.547 60.1908C227.236 53.6938 230.282 46.5601 231.482 38.5985C232.126 34.3267 231.975 33.8561 227.491 31.7002C225.902 35.6232 224.315 39.5441 222.729 43.465C222.425 43.3536 222.12 43.2444 221.817 43.133C222.319 41.4898 222.823 39.8488 223.494 37.6551C215.385 40.2102 207.928 43.278 200.517 46.7828C200.997 45.499 201.687 44.5072 202.63 44.0701C205.969 42.5215 209.393 41.1557 212.79 39.7353C215.056 38.7876 217.883 38.4073 219.457 36.7894C221.096 35.1063 222.649 34.3961 224.807 34.5789C225.026 33.6838 225.154 33.0891 225.315 32.505C226.581 27.8991 223.421 24.3522 218.512 27.1825C214.645 29.4119 209.972 30.118 206.533 34.062C205.592 30.7967 207.495 29.9583 209.006 29.1766C211.185 28.0483 213.564 27.317 215.78 26.2517C216.863 25.7306 217.768 24.8397 218.752 24.1147C218.562 23.7743 218.374 23.4339 218.184 23.0935C213.373 22.2531 209.976 25.9407 205.287 28.3319C207.029 23.249 211.532 23.2427 214.467 21.0743C210.806 18.8365 210.838 18.8785 207.984 21.0007C207.424 21.4168 206.514 21.3558 205.024 21.671C206.195 19.8703 206.91 18.7692 207.804 17.3929C203.96 15.9662 200.464 14.6676 196.693 13.2682C196.032 17.5778 195.462 21.2991 194.891 25.0183C194.657 24.9973 194.425 24.9763 194.191 24.9552C194.452 20.8873 194.711 16.8172 194.983 12.6C192.209 11.8204 189.913 11.1754 187.52 10.5051C187.258 17.8195 187.012 24.6716 186.767 31.5237C185.946 29.5443 185.994 27.5797 185.935 25.6213C185.799 21.1772 185.638 16.7331 185.433 12.2911C185.325 9.92933 184.346 8.43746 181.495 8.96487C181.384 9.99657 181.254 11.0493 181.158 12.1062C180.539 18.8701 180.391 25.7201 179.202 32.381C177.414 42.3913 174.914 52.2713 172.675 62.1996C172.234 64.1558 171.636 66.0785 171.051 67.9969C170.609 69.4446 169.79 69.5833 168.644 68.4571C170.513 62.1408 172.554 55.8454 174.226 49.4535C177.517 36.8692 179.81 24.1421 179.063 11.0157C178.93 8.66018 178.384 7.1452 175.93 6.75227C175.039 6.60938 174.161 6.39926 172.871 6.13871C172.871 10.9484 172.871 15.5165 172.871 20.0867C172.698 20.0951 172.522 20.1056 172.349 20.114C171.73 15.4388 171.111 10.7635 170.476 5.9538C169.414 5.81933 168.561 5.71216 167.331 5.55667C167.331 8.29037 167.331 10.7278 167.331 13.1652L167.405 13.1085C166.487 10.4546 165.567 7.80079 164.574 4.93471C163.1 5.00825 161.789 5.07549 160.518 5.14063C160.165 7.03384 159.877 8.58244 159.588 10.1332C159.331 10.1521 159.072 10.1689 158.815 10.1878C158.394 8.52571 157.974 6.86363 157.502 4.99984C155.965 4.99984 154.523 4.99984 152.804 4.99984C153.13 11.7742 155.056 18.1557 153.931 24.6968C153.245 17.8531 152.779 10.9841 150.024 4.50605C148.88 4.63843 148.013 4.74139 147.022 4.85696C146.748 8.99638 149.499 12.5454 148.374 16.5461C147.323 13.6527 146.685 10.6627 145.772 7.75877C144.835 4.77292 143.882 4.58169 141.051 6.22906C142.958 17.0168 144.848 27.71 146.738 38.4031C146.366 38.5439 145.993 38.6826 145.621 38.8234C145.191 38.0711 144.488 37.3588 144.373 36.5604C143.869 33.0492 143.621 29.5002 143.121 25.989C142.147 19.16 141.208 12.3058 137.801 5.7815C135.95 6.21436 134.247 6.61359 132.585 7.00232C133.352 11.8667 135.794 15.8821 135.39 20.5174C133.676 15.9662 131.962 11.4128 130.162 6.6283C128.245 7.35532 126.907 7.86382 125.462 8.41224C128.174 14.7748 131.151 20.6267 131.935 27.2183C130.542 24.4677 129.589 21.5512 128.372 18.7503C127.084 15.7918 125.64 12.8921 124.082 10.0659C123.004 8.10547 121.664 8.79047 120.403 9.95665C131.688 35.806 133.897 42.6959 132.39 48.7706C129.842 35.0664 124.967 22.2951 117.6 10.1079C116.243 10.4714 114.89 10.835 112.894 11.3708C116.784 16.9706 120.188 22.0282 121.808 27.9621C119.128 24.037 116.669 19.9921 114.094 16.025C111.067 11.3603 110.592 11.2972 105.234 14.2579C110.18 19.7988 114.468 25.7663 117.752 32.4167C117.545 32.6037 117.336 32.7886 117.129 32.9756C116.462 32.1373 115.756 31.3262 115.135 30.4521C112.108 26.1845 109.15 21.8664 106.079 17.6324C104.064 14.8525 103.491 14.7727 99.4455 16.2645C109.396 24.9405 116.103 35.6631 121.624 47.2787C127.634 59.9197 133.038 78.793 131.562 85.0568C131.01 82.5227 130.607 80.9279 130.323 79.3141C126.855 59.6193 119.051 41.8617 106.603 26.2475C103.645 22.5367 100.215 19.1937 95.8498 17.0861C93.7676 18.0296 91.8485 18.8995 89.4841 19.9711C96.4247 27.2687 102.765 34.3751 107.454 42.7653C107.323 42.8829 107.189 42.9985 107.057 43.1162C103.723 38.9431 100.413 34.7512 97.0477 30.6033C95.0658 28.1617 92.9355 25.8609 89.2562 23.4256C89.9795 28.9161 90.5273 33.2719 91.1335 37.6194C91.5537 40.6262 92.0513 43.6226 92.5133 46.6252L92.5238 46.6189C91.0081 41.8575 89.4904 37.0962 87.9936 32.3957C87.6925 32.5617 87.0612 32.9126 86.4591 33.2467C87.4207 40.3131 90.1259 47.035 89.6221 54.2401C89.0806 53.948 88.8109 53.595 88.7336 53.2063C87.381 46.247 86.2271 39.2394 84.6215 32.3411C84.0508 29.891 82.3888 27.6974 81.2265 25.386C81.8704 33.6165 85.4138 41.2356 85.2048 49.4451C84.8117 49.5249 84.4187 49.6048 84.0257 49.6825C83.3776 45.7658 82.7296 41.8512 82.0794 37.9367C80.6516 41.0675 82.8048 44.213 81.2746 47.3228C80.4551 45.9739 79.9763 44.5807 79.6962 43.1477C78.9561 39.376 78.3771 35.5686 77.5639 31.8137C77.3527 30.8366 76.5102 29.9982 75.9583 29.0968C75.5695 29.2586 75.1806 29.4204 74.7939 29.5821C75.3458 32.0763 75.8684 34.5747 76.4538 37.0604C77.7227 42.4375 77.7353 42.4354 76.0775 44.3391C73.8845 31.7842 73.8845 31.7843 71.0874 30.4605C71.3487 34.3351 74.911 37.4723 73.5124 42.8766C71.3675 38.6637 71.6205 34.2406 67.9746 31.4712C68.1418 35.0012 70.7466 37.5794 70.0944 41.2776C67.199 38.9726 68.1105 34.9403 65.2757 32.7613C64.1594 36.0266 68.2025 37.9493 66.599 41.9143C65.1691 39.2415 64.1385 37.2979 63.0681 35.3752C63.0117 35.2744 62.6207 35.3626 62.1545 35.3626C62.3406 36.0056 62.512 36.5624 62.6625 37.1235C62.811 37.6719 62.9385 38.2266 63.0786 38.7919C62.0249 39.0356 61.0884 39.0293 60.4445 39.46C59.8027 39.8908 59.4514 40.7628 58.9434 41.4856C57.6619 40.7334 56.6711 40.1513 55.653 39.5525C53.6565 41.1389 51.8817 42.551 49.4713 44.4673C60.2647 47.014 69.4191 51.5694 77.9506 57.3352C86.5762 63.1619 94.5557 69.7199 99.4747 79.27C98.2079 78.7594 97.2943 77.879 96.4832 76.9124C95.2979 75.4962 94.2652 73.9455 93.0297 72.5797C84.8201 63.5107 74.7333 57.1209 63.7517 52.038C59.3093 49.9809 54.9694 47.6927 49.9751 47.0812C47.8908 46.827 46.4379 47.3102 45.0289 49.2224C50.1193 51.0147 55.0446 52.6621 59.9051 54.4818C68.516 57.7029 70.9097 59.1591 72.6741 61.8508C68.8171 60.0521 64.8994 57.9257 60.7685 56.3729C55.7617 54.4901 50.6022 52.992 45.4512 51.5316C43.6408 51.0189 41.3788 50.5167 41.0296 53.6097C52.5464 56.0009 73.1925 66.5575 75.6698 71.6929C74.5284 71.2118 73.6796 71.0163 73.0211 70.5478C65.7042 65.3577 57.7979 61.3108 49.4524 58.0854C38.3099 53.7778 38.5816 54.633 33.257 64.3975C33.0584 64.761 33.1254 65.2695 33.0438 65.8893C43.5843 66.5512 53.1276 70.1506 62.2528 75.0843C60.7246 75.0192 59.3114 74.5716 57.9107 74.082C54.5763 72.9138 51.2608 71.6824 47.9138 70.552C43.2352 68.9718 38.4917 67.7531 33.4807 67.8813C31.3212 67.9359 29.8641 68.5075 29.9916 71.0647C43.2979 74.3027 56.4118 78.0513 68.4805 84.6975C65.7816 85.1177 65.7648 85.1513 63.3586 83.92C53.9805 79.1166 43.7829 76.7338 33.7734 73.8068C31.4927 73.1386 29.2118 73.8656 28.0558 75.7861C26.7053 78.0303 26.0635 80.7051 24.991 83.5208C37.6743 83.069 49.4901 83.691 60.7267 88.3578C56.6836 87.8325 52.7241 86.8281 48.7103 86.1179C40.9711 84.7479 33.1818 84.1595 25.4113 85.8405C24.3932 86.0612 23.2183 86.95 22.7019 87.8619C20.0532 92.5372 17.5885 97.3175 15.0945 102.081C15.0151 102.234 15.3035 102.581 15.431 102.863C25.3799 100.751 35.4584 100.505 45.5933 100.942C41.6945 101.593 37.7538 101.829 33.8403 102.283C28.3652 102.919 22.8838 103.571 17.4526 104.499C14.0638 105.077 11.3796 106.771 11.3482 111.051C13.7126 112.234 16.169 113.465 18.6275 114.697C21.5041 116.506 24.3827 118.317 27.2593 120.126C27.0649 120.494 26.8704 120.862 26.676 121.229C22.5995 120.357 19.3885 117.283 15.176 116.39C17.2227 118.279 19.2714 120.168 21.318 122.057C21.1612 122.343 21.0044 122.627 20.8476 122.913C18.4226 122.059 15.9976 121.206 13.5726 120.355C13.466 120.555 13.3593 120.755 13.2527 120.954C14.1391 122.036 15.0234 123.118 16.4429 124.852C14.0618 124.852 12.4207 124.852 10.6145 124.852C11.2124 127.754 12.981 128.296 15.1405 128.155C22.1689 127.695 29.2767 127.953 36.1315 125.844C36.6751 125.676 37.342 125.909 39.0186 126.037C34.8292 128.823 31.1519 129.517 27.3869 129.706C21.2783 130.013 15.1572 130.092 9.04867 130.389C8.27727 130.427 7.54135 131.196 6.78875 131.626C6.89328 131.996 6.99575 132.366 7.10028 132.734C8.87096 132.652 10.6437 132.585 12.4144 132.484C13.7879 132.404 15.1676 132.133 16.5307 132.208C20.1682 132.41 23.7932 132.828 27.4308 133.011C30.0565 133.143 32.6947 133.036 35.3288 133.036C25.7687 135.984 15.9077 134.461 6.04244 135.148C6.04244 136.653 6.04244 137.796 6.04244 139.172C22.8294 139.706 38.3914 135.198 53.9137 130.082C51.9527 132.2 49.4482 133.232 46.8518 133.971C43.7557 134.854 40.553 135.373 37.4779 136.316C29.0614 138.901 20.4755 140.283 11.6869 140.55C9.86188 140.607 8.0055 140.941 6.25572 141.466C5.64947 141.649 5.32753 142.79 4.53521 144.019C18.9076 144.702 32.308 144.133 46.3459 141.153C45.4052 141.973 45.1584 142.328 44.824 142.454C43.8247 142.832 42.8108 143.29 41.7677 143.419C33.7024 144.408 25.635 145.392 17.553 146.234C14.045 146.6 10.5037 146.652 6.97485 146.799C5.19163 146.873 3.93729 147.295 4.8195 149.985C12.9621 149.869 21.295 150.456 29.4376 149.468C40.992 148.066 52.4126 145.53 63.8792 143.425C66.7203 142.904 69.5258 142.179 72.8455 141.435C71.4721 144.278 69.3188 144.658 67.2471 145.129C64.705 145.705 62.1587 146.268 59.5978 146.751C43.1516 149.861 26.7639 153.477 9.84934 152.613C8.05775 152.521 6.25775 152.601 4.32819 152.601C4.22575 153.937 4.09199 154.685 4.1338 155.423C4.17352 156.133 4.39304 156.833 4.56864 157.713C17.2896 158.528 29.6133 156.805 41.9913 155.797C35.9225 157.516 29.8307 158.875 23.5194 159.169C17.1056 159.47 10.7023 160.012 4.1338 160.459C4.1338 161.42 4.1338 162.3 4.1338 163.628C11.1747 163.628 18.0986 164.09 24.9325 163.498C31.8125 162.901 38.6004 161.258 45.4198 160.075C45.8881 163.015 43.6512 163.124 42.2359 163.471C32.3979 165.885 22.495 168.018 12.3078 168.129C10.1274 168.152 7.94276 167.65 5.16235 167.32C5.82505 169.802 6.53163 172.46 7.25914 175.185C20.4107 173.909 32.8933 172.712 45.1167 169.507C43.4693 170.514 41.7697 171.197 40.0367 171.779C31.384 174.683 22.3027 175.3 13.3823 176.782C11.7998 177.044 10.2298 177.395 8.3483 177.765C8.9002 179.142 9.20129 180.003 9.59013 180.823C9.91416 181.505 10.3406 182.14 10.8591 183.029C20.8936 182.951 30.6292 180.919 40.3126 178.48C50.1214 176.006 60.1852 174.288 69.6951 170.964C78.9938 167.713 87.7385 162.853 96.7257 158.701C95.8394 160.014 94.7125 161.121 93.3934 161.905C80.4509 169.587 66.4589 174.519 51.8356 177.755C45.8588 179.076 39.8694 180.339 33.8758 181.577C30.8801 182.195 27.8614 182.695 24.8531 183.249C20.7139 184.012 16.5725 184.775 11.9628 185.624C12.9538 187.7 13.7837 189.446 14.6304 191.217C26.9959 190.629 39.1189 190.663 50.6649 186.193C40.0868 192.728 28.0077 192.287 16.3091 193.672C17.7035 197.994 18.2386 198.378 22.0455 197.859C23.1012 197.716 24.1465 197.471 25.2043 197.351C37.1873 195.991 48.8232 193.159 59.8006 188.156C67.3369 184.722 74.5639 180.606 81.9331 176.803C83.0641 176.219 84.2954 174.989 85.1651 177.15C65.3844 190.427 43.7055 198.219 19.6121 200.265C20.6302 202.579 21.4142 204.363 22.3089 206.401C32.4543 205.93 42.1168 204.005 51.6956 201.358C43.1976 206.647 33.1923 206.676 23.5904 209.147C24.6336 211.166 25.4677 212.78 26.5214 214.82C29.8871 214.222 33.1965 213.747 36.4514 213.022C39.8904 212.257 43.2791 211.265 46.6867 210.357C49.7263 209.546 52.1576 206.76 56.5498 207.254C55.2244 208.344 54.5931 208.95 53.8844 209.433C49.9625 212.106 45.3968 212.822 40.9001 213.822C36.673 214.764 32.287 215.23 28.0579 217.151C29.2349 219.283 30.1882 221.009 31.2523 222.938C42.9216 220.105 55.0864 219.437 64.9663 211.093C65.2213 213.583 63.5259 214.501 62.0145 215.392C56.8132 218.458 51.3318 220.832 45.3738 222.011C42.2129 222.635 39.0604 223.322 35.935 224.106C35.0215 224.335 34.2166 224.997 32.2557 226.06C34.3462 226.8 35.3559 227.468 36.3657 227.468C48.9486 227.48 60.7413 224.753 70.9473 216.905C76.0628 212.971 81.0927 208.929 86.1957 204.982C86.7664 204.541 87.5754 204.409 88.2757 204.134C88.4576 204.379 88.6416 204.625 88.8235 204.871C87.9539 205.857 87.0633 206.825 86.2166 207.83C82.7129 211.992 77.9486 214.551 73.7299 217.81C65.2067 224.394 55.5171 227.737 44.9055 228.775C42.2296 229.037 39.5977 229.756 36.6019 230.332C37.319 231.735 37.6305 232.618 38.1615 233.339C40.9042 237.06 43.6115 240.815 46.5466 244.378C47.3075 245.303 48.8441 245.582 50.0252 246.158C51.4384 248.417 53.6544 249.43 55.839 250.487C56.0376 250.155 56.2341 249.823 56.4306 249.491C54.2732 248.404 52.1137 247.318 49.9563 246.234C49.212 245.379 48.4678 244.526 47.4998 243.414C48.3193 243.263 48.7395 243.067 49.1137 243.132C52.3436 243.702 55.5652 244.32 58.7888 244.925C61.6361 242.25 64.4917 244.204 67.3516 244.893C67.5774 244.948 67.8471 244.826 68.0038 244.801C67.6317 244.063 67.2554 243.319 66.4944 241.807C69.2853 242.069 71.3236 242.26 73.5249 242.468C73.0504 241.462 72.649 240.615 71.9382 239.111C74.4155 239.249 76.2782 239.352 78.2621 239.464C77.798 238.527 77.4426 237.808 76.6754 236.257C82.4244 238.491 84.4125 231.847 89.2646 233.047C89.2855 229.46 91.2673 227.211 93.3223 224.787C97.1334 226.384 99.0901 224.211 100.888 221.076C103.865 215.884 105.401 210.309 106.221 204.445C106.668 201.249 107.321 198.082 107.933 194.911C109.888 184.764 112.279 174.681 113.686 164.46C114.608 157.768 117.123 152.771 123.033 149.527C124.473 148.737 125.749 147.64 127.459 146.432C126.244 145.66 125.552 145.049 124.745 144.734C117.792 142.021 111.702 137.892 105.786 133.408C102.855 131.187 99.6734 129.29 96.5396 127.352C91.9697 124.528 87.5211 121.414 82.6877 119.139C77.0454 116.483 71.7752 112.532 64.8534 113.352C61.7971 113.713 58.5923 112.667 55.492 112.86C53.0106 113.014 50.6002 113.505 48.1919 112.556C46.2309 110.818 44.2219 109.179 41.2262 109.524C43.5697 110.511 45.9131 111.497 48.2566 112.484C48.7228 113.287 49.189 114.09 50.0817 115.626C48.2504 115.138 47.1758 115.058 46.3124 114.585C43.6428 113.125 41.015 111.579 38.4541 109.937C37.3085 109.204 36.3364 108.725 35.2117 109.824C34.8375 108.796 34.4633 107.767 34.1895 107.013C35.9267 106.567 37.1203 106.235 38.3287 105.96C39.0311 105.8 39.9342 105.401 40.4401 105.678C43.5111 107.355 46.7807 105.275 49.8998 106.342C51.2503 106.805 52.8203 106.687 54.292 106.704C58.6717 106.75 63.0577 106.596 67.429 106.779C71.0958 106.933 74.75 107.439 78.4064 107.805C83.4028 108.305 88.4242 108.631 93.385 109.372C101.536 110.589 109.675 111.932 117.765 113.51C122.619 114.455 127.222 116.163 130.314 120.521C130.818 121.232 131.807 121.591 132.817 122.278C132.11 119.364 132.004 116.733 130.862 114.682C128.381 110.221 128.1 105.386 127.532 100.555L127.467 100.616C127.868 101.024 128.479 101.362 128.64 101.85C131.038 109.118 136.709 114.962 137.684 122.85C137.738 123.285 138.102 123.68 138.589 124.598C139.164 121.511 139.941 119.137 139.981 116.748C140.075 111.036 140.134 105.292 139.628 99.612C139.042 93.0352 141.434 87.1832 143.217 81.1653C143.639 79.7428 144.58 78.3097 145.657 77.2738C150.557 72.5566 153.279 66.4987 156.17 60.5375C156.839 59.1591 157.6 57.7239 157.815 56.2426C159.22 46.5013 161.256 36.8104 160.121 26.8527C159.866 24.6169 160.084 22.3245 160.084 20.0594C160.418 20.0173 160.752 19.9753 161.087 19.9333C161.363 21.4735 161.884 23.0158 161.867 24.5539C161.815 29.0337 161.528 33.5093 161.373 37.9871C161.315 39.7143 161.363 41.4457 161.363 43.5091C162.592 42.1328 163.506 41.1074 164.421 40.082C164.758 40.2312 165.095 40.3804 165.433 40.5296C165.302 41.618 165.444 42.8451 164.986 43.7697C163.867 46.0285 162.893 48.2138 163.56 50.8361C163.69 51.3467 163.343 52.0107 163.134 52.5738C159.927 61.1889 157.98 70.1401 158.871 79.27C159.812 88.9062 161.852 98.4311 163.343 108.017C163.993 112.209 164.467 116.426 165.021 120.633C165.316 120.731 165.613 120.828 165.908 120.927C166.941 119.204 167.971 117.481 169.004 115.758C169.767 114.68 172.271 113.86 172.223 113.247C172.052 111.085 173.051 109.967 174.671 109.549C177.086 108.925 176.016 105.937 177.54 105.371C180.184 104.39 179.411 101.177 181.52 100.095C184.578 98.5278 187.681 97.0464 190.764 95.5272C190.919 95.813 191.074 96.0988 191.228 96.3845C190.202 97.1725 188.189 98.1895 188.31 98.7106C189.048 101.911 186.119 101.825 184.821 103.148C183.249 104.136 181.679 105.126 180.109 106.113C180.312 106.391 180.514 106.67 180.717 106.947C181.796 105.308 184.737 106.134 184.731 103.058C185.321 103.485 185.91 103.911 187.016 104.71C182.946 107.094 179.325 109.217 175.706 111.337C175.809 111.568 175.909 111.801 176.011 112.032C177.701 111.417 179.392 110.801 181.081 110.183C181.175 110.429 181.267 110.677 181.361 110.923C179.277 112.142 177.195 113.36 175.094 114.59C175.543 115.01 175.934 115.375 176.122 115.552C174.728 117.479 172.418 119.254 172.382 121.074C172.334 123.516 171.053 124.335 169.65 125.365C168.389 126.291 166.928 126.947 166.048 129.492C168.051 128.441 169.255 127.857 170.413 127.193C173.892 125.201 177.404 123.074 181.581 123.598C185.776 124.123 189.589 125.335 192.539 129.029C194.26 131.183 197.17 132.547 199.766 133.797C207.702 137.621 215.744 141.225 223.753 144.9C224.286 145.146 224.867 145.32 225.444 145.431C230.633 146.434 235.914 146.904 240.782 149.361C252.209 155.129 261.533 163.414 269.707 173.145C269.005 172.895 268.145 172.823 267.621 172.367C262.409 167.831 257.233 163.252 252.084 158.642C245.599 152.832 237.724 150.058 228.833 147.438C230.357 149.43 231.16 150.93 232.36 151.96C236.052 155.122 237.122 159.642 237.492 163.908C237.883 168.415 239.712 171.031 243.513 172.792C244.625 173.306 245.72 173.928 246.684 174.681C248.513 176.114 250.42 177.536 251.43 180.186C246.676 177.114 242.361 174.323 237.536 171.203C236.823 173.439 236.083 174.981 235.88 176.591C235.596 178.858 235.654 181.176 235.673 183.47C235.686 185.101 235.309 186.181 232.976 185.861C232.322 180.635 231.348 175.376 231.099 170.081C230.907 166.003 229.483 162.607 227.33 159.373C222.67 152.378 214.981 152.41 207.967 150.846C214.323 156.123 222.731 158.356 228.676 164.91C226.291 165.958 225.593 164.42 224.57 163.66C222.478 162.107 220.521 160.317 218.274 159.043C213.365 156.261 208.695 152.878 202.896 152.057C199.935 149.081 196.593 150.178 193.545 151.55C186.995 154.498 180.328 156.429 173.072 155.557C172.924 155.54 172.733 155.854 172.386 156.177C176.574 157.875 181.344 156.434 185.298 158.407C185.243 158.844 185.187 159.281 185.132 159.716C178.79 159.361 172.447 159.008 166.104 158.655C169.606 159.762 173.193 160.226 176.787 160.644C180.251 161.048 183.97 160.121 187.9 162.853C181.629 164.628 176.246 161.315 169.951 162.218C172.815 165.383 176.009 164.107 178.553 164.988C181.261 165.923 184.273 165.982 187.16 166.37C189.913 166.74 192.675 167.041 196.336 167.48C192.721 170.226 189.943 168.085 187.275 168.032C184.547 167.98 181.859 166.772 178.119 167.097C179.275 167.751 179.597 168.011 179.963 168.125C185.858 169.955 191.866 171.073 198.067 171.012C199.31 170.999 200.893 170.516 201.321 172.745C197.546 172.762 193.892 172.762 190.237 172.762ZM123.29 165.124C122.776 165.816 122.349 166.414 121.896 166.992C121.44 167.57 120.489 168.562 120.554 168.631C122.847 171.132 119.895 172.008 119.126 173.544C118.831 174.132 118.342 175.155 118.559 175.382C120.062 176.952 118.678 178.078 117.932 178.997C114.428 183.306 112.591 188.318 111.489 193.663C110.381 199.032 109.169 204.396 109.411 210.099C112.616 208.937 112.973 206.197 113.782 203.772C114.466 201.726 114.888 199.687 117.78 199.416C118.919 199.309 119.927 197.775 120.993 196.891C120.819 196.615 120.646 196.34 120.472 196.065C119.153 196.151 117.834 196.237 116.331 196.336C117.547 193.623 118.854 191.373 119.59 188.946C122.086 180.711 123.089 172.088 126.395 164.027C128.339 159.285 130.193 154.635 133.732 150.838C135.056 149.417 136.258 147.886 137.592 146.314C136.057 144.381 134.704 142.677 133.352 140.971C133.12 141.141 132.89 141.313 132.658 141.483C133.417 143.097 134.178 144.711 134.976 146.409C132.488 150.264 127.747 150.825 124.381 153.605C125.853 153.857 127.122 154.076 129.102 154.416C126.93 156.049 125.487 157.133 124.014 158.241C124.678 158.869 125.178 159.342 125.786 159.919C124.21 161.403 122.887 162.647 121.538 163.918C122.153 164.336 122.621 164.662 123.29 165.124ZM114.353 131.124C112.722 126.417 107.96 124.428 105.458 119.651C114.019 121.671 120.746 124.875 126.652 130.046C129.02 132.122 132.037 133.454 134.78 135.089C134.985 135.211 135.357 135.049 135.967 134.986C136.67 134.144 137.516 133.129 138.453 132.007C135.34 129.252 132.413 126.779 129.618 124.163C125.592 120.397 120.905 117.895 115.547 116.878C111.081 116.031 106.547 115.506 102.025 115.018C97.2671 114.506 92.4861 114.205 87.5273 113.797C90.1823 117.561 90.1823 117.561 94.0979 116.233C96.0087 115.586 97.9842 116.815 99.3326 118.658C100.817 120.685 102.788 122.352 104.548 124.177C108.159 122.77 108.679 126.176 110.371 127.859C111.454 128.937 111.52 131.183 114.353 131.124ZM234.352 170.142C235.063 161.405 229.667 151.575 222.821 148.34C222.29 148.087 221.57 147.776 221.096 147.945C218.447 148.877 216.352 147.215 214.074 146.528C211.874 145.866 209.799 144.765 207.583 144.192C197.395 141.563 187.233 142.351 177.078 144.555C173.942 145.236 170.735 145.587 167.57 146.137C165.918 146.425 164.214 146.64 162.676 147.247C162.001 147.514 161.677 148.684 161.223 149.401C166.957 148.281 171.663 150.506 176.791 152.542C176.202 151.422 175.867 150.785 175.401 149.903C177.648 150.487 179.691 151.017 182.406 151.723C181.411 150.405 180.979 149.829 180.562 149.277C180.845 149.008 180.93 148.852 181.037 148.838C181.334 148.793 181.708 148.686 181.932 148.814C185.701 150.947 189.184 149.63 192.917 148.398C196.198 147.316 199.789 146.835 203.259 146.762C209.966 146.621 216.237 148.81 222.488 151.067C225.559 152.174 227.796 153.824 229.391 156.717C231.611 160.749 233.706 164.784 234.352 170.142ZM138.61 149.47C136.101 152.87 133.335 155.677 131.68 159.037C126.884 168.766 124.833 179.4 122.483 189.91C122.372 190.402 122.469 190.94 122.469 191.982C123.666 191.039 125.065 190.286 124.973 189.959C123.838 185.922 127.714 185.073 129.282 182.793C129.43 182.577 129.445 182.264 129.535 181.949C128.853 181.894 128.182 181.842 127.442 181.783C127.312 178.87 129.905 178.072 131.374 176.488C129.28 174.204 129.261 173.529 131.293 171.35C132.756 169.781 135.244 168.434 135.555 166.679C136.203 163.036 138.478 160.625 140.322 157.831C141.737 155.685 141.24 152.017 138.61 149.47ZM155.468 111.234C155.946 109.177 156.296 107.899 156.526 106.601C156.649 105.901 156.778 104.615 156.553 104.529C154.155 103.613 155.56 102.018 155.8 100.696C156.114 98.9627 156.561 97.2523 156.95 95.5314C156.705 95.4894 156.459 95.4474 156.214 95.4053C155.526 96.872 154.841 98.3387 154.038 100.053C153.54 98.8472 153.202 98.0298 152.865 97.2145C151.719 100.165 152.574 102.776 153.319 105.35C154.652 109.956 155.85 114.564 155.532 119.418C155.384 121.709 155.162 123.995 154.96 126.466C156.971 127.71 158.942 128.928 161.482 130.498C161.043 125.396 160.677 121.154 160.291 116.678C159.716 116.55 158.902 116.369 157.799 116.123C158.127 113.804 158.443 111.562 158.779 109.192C157.78 109.807 156.958 110.316 155.468 111.234ZM143.529 128.13C145.657 127.798 147.411 127.336 149.175 127.294C151.519 127.241 152.288 126.088 152.625 123.911C153.664 117.191 152.286 110.885 149.579 104.63C148.97 106.086 148.117 107.929 148.686 109.026C149.857 111.289 149.457 113.035 148.462 115.092C146.792 118.548 145.304 122.095 143.809 125.634C143.55 126.256 143.641 127.027 143.529 128.13ZM148.433 138.222C144.664 141.99 146.614 146.518 153.459 149.985C157.192 144.856 156.852 142.82 151.7 139.819C150.651 139.208 149.516 138.745 148.433 138.222ZM105.784 221.578C106.507 220.687 107.676 219.884 107.872 218.888C108.491 215.753 110.701 213.944 112.798 211.95C113.592 211.196 114.169 210.212 114.844 209.332C110.705 212.452 105.805 214.879 105.784 221.578ZM85.0104 22.2594C85.4097 24.016 85.8027 25.7474 86.179 27.4011C88.3845 26.3946 89.4214 25.0813 88.6019 22.9969C88.0667 21.6416 87.1114 21.1394 85.0104 22.2594ZM118.434 133.217C117.897 128.466 116.669 126.724 114 126.296C115.555 128.725 116.993 130.971 118.434 133.217ZM80.8837 248.173C80.915 247.877 80.9463 247.579 80.9756 247.282C78.584 246.963 76.1925 246.641 73.8009 246.322C73.7591 246.711 73.7173 247.1 73.6755 247.488C76.0796 247.717 78.4816 247.944 80.8837 248.173ZM125.684 142.128C126.002 141.834 126.319 141.538 126.637 141.244C125.489 139.781 124.344 138.319 123.196 136.854C123.031 136.978 122.866 137.102 122.701 137.226C123.696 138.861 124.691 140.496 125.684 142.128ZM10.5058 113.581C10.2507 113.863 9.99778 114.146 9.74273 114.428C10.6082 116.264 12.3099 116.93 14.4694 117C13.1482 115.861 11.827 114.72 10.5058 113.581ZM190.125 222.673C190.472 222.656 190.819 222.641 191.164 222.624C191.011 221.13 190.858 219.636 190.708 218.145C190.513 218.168 190.319 218.191 190.125 218.214C190.125 219.7 190.125 221.185 190.125 222.673ZM117.579 134.583C117.313 134.78 117.048 134.976 116.782 135.173C117.719 136.52 118.658 137.867 119.594 139.214C119.878 139.006 120.163 138.798 120.447 138.588C119.492 137.251 118.534 135.917 117.579 134.583ZM79.0252 31.2211C79.1819 31.1875 79.3388 31.156 79.4955 31.1245C79.3408 30.2735 79.2321 29.412 79.0147 28.5799C78.8265 27.8654 78.5108 27.1825 78.2537 26.487C78.1262 26.5333 77.9966 26.5816 77.867 26.6278C78.2537 28.1596 78.6405 29.6893 79.0252 31.2211ZM9.39357 119.401C9.1657 119.748 8.93784 120.095 8.70997 120.442C9.48765 120.809 10.2633 121.177 11.0389 121.543C11.1726 121.288 11.3043 121.034 11.4381 120.78C10.7566 120.32 10.0751 119.859 9.39357 119.401ZM154.199 84.3192C153.626 84.6638 153.446 84.7101 153.377 84.8236C152.909 85.5863 152.457 86.3595 152.025 87.1412C152.004 87.1769 152.209 87.3387 152.307 87.4417C152.852 86.7483 153.404 86.057 153.937 85.3531C154.021 85.2438 154.017 85.0673 154.199 84.3192ZM63.1789 258.375C63.0492 258.648 62.9197 258.921 62.788 259.194C63.6555 259.482 64.5231 259.77 65.3907 260.056C65.4597 259.879 65.5286 259.703 65.5976 259.526C64.7907 259.144 63.9837 258.759 63.1789 258.375ZM78.3373 113.041C78.3875 112.732 78.4398 112.423 78.49 112.114C77.752 112.007 77.0141 111.9 76.2761 111.793C76.2552 111.929 76.2343 112.064 76.2134 112.198C76.9221 112.48 77.6307 112.762 78.3373 113.041ZM174.297 181.241C174.563 181.125 174.83 181.01 175.096 180.896C174.839 180.184 174.579 179.471 174.322 178.757C174.128 178.818 173.933 178.881 173.739 178.942C173.925 179.707 174.111 180.474 174.297 181.241Z" fill="#BB9F87" fill-opacity="0.5"/>
<path d="M80.1676 101.322C76.02 99.9331 71.9141 98.3971 67.7122 97.2078C65.0948 96.4681 62.3374 96.1866 59.6281 95.8168C54.4791 95.1128 49.3196 94.4993 44.1686 93.8122C43.9804 93.787 43.8445 93.3604 43.3867 92.6733C47.8939 91.0512 52.1063 93.1104 56.279 93.2995C60.504 93.4907 64.7164 94.6023 68.8661 95.5961C73.0117 96.59 77.1719 97.7331 80.5376 100.456C80.4143 100.742 80.2909 101.032 80.1676 101.322Z" fill="#BB9F87" fill-opacity="0.5"/>
<path d="M113.935 79.8319C113.272 76.5687 112.622 73.3034 111.945 70.0444C111.288 66.8862 111.288 63.3141 109.714 60.7086C108.42 58.5674 108.123 56.731 108.198 54.5352C108.209 54.2599 108.449 53.991 108.604 53.6758C110.738 54.4091 110.13 56.4956 110.619 57.9686C111.246 59.8555 111.503 61.8643 111.97 63.8079C112.106 64.3753 112.359 65.3523 112.637 65.3817C115.689 65.6948 115.277 68.1449 115.626 70.1011C116.922 77.3735 118.202 84.6521 119.46 91.9329C119.533 92.3511 119.372 92.8091 119.31 93.3386C117.666 91.4097 117.635 91.4139 116.696 85.2258C116.257 82.3387 116.017 79.4222 115.59 76.533C115.158 73.606 115.227 70.5235 113.237 67.5628C113.466 71.9754 113.671 75.9362 113.878 79.8971L113.935 79.8319Z" fill="#BB9F87" fill-opacity="0.5"/>
<path d="M93.6528 31.3477C96.9329 42.9612 99.7154 54.6776 101.018 66.6988C100.675 66.7828 100.332 66.8669 99.9892 66.9509C99.684 65.5473 99.3432 64.15 99.0798 62.7401C97.8401 56.0897 96.682 49.4225 95.367 42.7868C94.9029 40.446 94.6333 38.0758 92.7664 36.0859C91.9177 35.1803 92.3232 33.0833 92.1602 31.5263C92.6598 31.4653 93.1574 31.4065 93.6528 31.3477Z" fill="#BB9F87" fill-opacity="0.5"/>
<path d="M105.271 73.8709C104.029 67.1763 103.124 61.4988 101.89 55.8948C100.701 50.4842 99.1748 45.1512 98.3281 39.625C100.686 42.7243 101.221 46.4456 102.016 50.0723C102.873 53.9806 103.993 57.8511 104.506 61.8056C104.976 65.4302 106.577 69.0422 105.271 73.8709Z" fill="#BB9F87" fill-opacity="0.5"/>
<path d="M28.1067 109.855C30.9581 111.593 33.8327 113.297 36.6465 115.095C37.2842 115.503 37.7127 116.241 37.767 117.594C36.7531 117.197 35.7037 116.869 34.7295 116.39C30.9457 114.524 27.1848 112.61 23.4155 110.712C22.8134 110.8 22.2134 110.887 21.6114 110.973C21.1682 109.828 20.725 108.68 19.8867 106.51C22.8323 107.399 24.8162 107.995 26.8001 108.594C27.2349 109.017 27.6697 109.435 28.1067 109.855Z" fill="#BB9F87" fill-opacity="0.5"/>
<path d="M28.1074 109.853C27.6725 109.433 27.2356 109.012 26.8008 108.594C26.8008 107.897 26.8008 107.197 26.8008 105.76C29.9554 107.233 32.623 108.477 35.2884 109.721C36.7894 110.685 38.2987 111.637 39.7872 112.618C41.3405 113.642 42.875 114.694 45.1014 116.197C42.4694 116.968 41.2966 116.272 40.013 115.407C37.5064 113.717 34.864 112.232 32.2989 110.63C30.9881 109.811 29.715 108.96 28.1074 109.853Z" fill="#BB9F87" fill-opacity="0.5"/>
<path d="M109.017 79.6495C108.375 74.5708 107.976 69.448 107.02 64.4303C106.071 59.4525 104.56 54.5818 103.059 48.7383C105.977 51.5791 106.863 54.3633 108.166 64.3294C108.826 69.385 110.319 74.3838 110.066 79.5276C109.717 79.5676 109.366 79.6075 109.017 79.6495Z" fill="#BB9F87" fill-opacity="0.5"/>
<path d="M21.6126 110.972C22.2146 110.884 22.8146 110.798 23.4167 110.712C23.9226 111.51 24.2508 112.567 24.9658 113.059C27.1567 114.563 29.496 115.851 32.429 117.614C29.6549 118.781 28.1978 117.423 26.7992 116.684C24.393 115.412 22.1415 113.838 19.8607 112.338C18.897 111.706 18.2113 111.697 17.766 112.874C15.9869 112.357 14.7096 111.435 14.902 109.146C17.6155 107.938 19.4196 110.247 21.6126 110.972Z" fill="#BB9F87" fill-opacity="0.5"/>
<path d="M21.9844 92.6285C24.5244 89.8885 30.9382 89.6153 35.4433 92.057C33.0371 93.0656 25.6073 93.3807 21.9844 92.6285Z" fill="#BB9F87" fill-opacity="0.5"/>
<path d="M67.0465 48.2886C62.4369 46.6224 57.8273 44.9561 53.3828 43.3487C56.1444 42.2056 62.0292 44.0421 67.0465 48.2886Z" fill="#BB9F87" fill-opacity="0.5"/>
<path d="M92.5195 46.6295C94.8108 51.456 95.4818 56.2426 94.307 59.3861C94.1 59.2159 93.7321 59.0625 93.7133 58.8734C93.2952 54.7928 92.9167 50.7059 92.53 46.6211L92.5195 46.6295Z" fill="#BB9F87" fill-opacity="0.5"/>
<path d="M121.102 86.9492C121.844 91.0697 122.584 95.1903 123.326 99.3129C122.889 99.3885 122.452 99.4663 122.015 99.5419C121.323 95.4277 120.633 91.3156 119.941 87.2014C120.328 87.1173 120.715 87.0333 121.102 86.9492Z" fill="#BB9F87" fill-opacity="0.5"/>
<path d="M107.46 42.7695C109.985 45.2952 111.221 48.4134 111.334 52.0612C109.91 49.0816 108.486 46.1 107.062 43.1204C107.194 43.0049 107.328 42.8872 107.46 42.7695Z" fill="#BB9F87" fill-opacity="0.5"/>
<path d="M123.762 95.998C125.706 98.8074 127.157 101.728 125.76 105.294C125.095 102.195 124.429 99.0953 123.762 95.998Z" fill="#BB9F87" fill-opacity="0.5"/>
<path d="M117.76 32.4219C119.309 34.956 120.858 37.4921 122.409 40.0283C122.068 40.2237 121.728 40.4213 121.387 40.6188C119.972 38.0742 118.554 35.5275 117.137 32.9829C117.346 32.7938 117.553 32.6089 117.76 32.4219Z" fill="#BB9F87" fill-opacity="0.5"/>
<path d="M87.1854 81.2004C85.2454 79.5405 83.3033 77.8784 81.3633 76.2184C81.5723 75.9621 81.7814 75.7057 81.9884 75.4473C84.5556 76.2815 85.9646 78.6138 87.8607 80.3158C87.637 80.61 87.4112 80.9063 87.1854 81.2004Z" fill="#BB9F87" fill-opacity="0.5"/>
<path d="M80.6109 89.9954C78.8068 89.323 77.0026 88.6506 74.3477 87.6631C77.751 86.0409 79.3294 87.5496 80.9872 88.7662C80.8618 89.1759 80.7363 89.5857 80.6109 89.9954Z" fill="#BB9F87" fill-opacity="0.5"/>
<path d="M113.875 79.905C114.293 82.5358 114.712 85.1665 115.13 87.7973C114.735 87.833 114.341 87.8687 113.946 87.9044C113.409 85.2569 113.834 82.5379 113.932 79.8399C113.936 79.8378 113.875 79.905 113.875 79.905Z" fill="#BB9F87" fill-opacity="0.5"/>
<path d="M73.7746 51.2207C74.7529 51.7775 75.7334 52.3365 76.7118 52.8933C76.6052 53.1118 76.4985 53.3303 76.3898 53.5489C75.3341 53.0572 74.2784 52.5655 73.2227 52.0759C73.4087 51.7901 73.5927 51.5044 73.7746 51.2207Z" fill="#BB9F87" fill-opacity="0.5"/>
<path d="M127.548 100.562C127.167 99.16 126.787 97.7564 126.406 96.3549C126.766 96.3108 127.127 96.2687 127.487 96.2246C127.487 97.6892 127.487 99.1537 127.485 100.62C127.481 100.622 127.548 100.562 127.548 100.562Z" fill="#BB9F87" fill-opacity="0.5"/>
<path d="M70.8398 230.085C77.5546 227.393 83.4625 223.895 87.7481 218.047C85.7182 225.321 79.8793 228.402 73.9046 231.325C72.7987 231.865 71.5966 232.568 70.8398 230.085Z" fill="#BB9F87" fill-opacity="0.5"/>
<path d="M83.0279 193.463C77.2288 199.58 66.1636 205.024 62.6055 203.514C62.7163 203.247 62.7665 202.799 62.9442 202.74C69.8095 200.456 75.9661 196.737 82.2147 193.199C82.384 193.102 82.752 193.367 83.0279 193.463Z" fill="#BB9F87" fill-opacity="0.5"/>
<path d="M73.8497 154.415C68.4541 157.617 62.356 158.603 56.168 159.328C61.9107 157.325 67.6534 155.321 73.3961 153.318C73.5466 153.684 73.6992 154.05 73.8497 154.415Z" fill="#BB9F87" fill-opacity="0.5"/>
<path d="M45.543 239.281C50.255 237.859 54.9671 236.438 59.6792 235.016C56.0124 239.498 50.6062 238.905 45.9841 240.601C45.8377 240.162 45.6914 239.722 45.543 239.281Z" fill="#BB9F87" fill-opacity="0.5"/>
<path d="M95.7812 215.384C98.4237 213.249 100.734 211.385 103.042 209.521C102.699 213.825 101.005 215.264 95.7812 215.384Z" fill="#BB9F87" fill-opacity="0.5"/>
<path d="M125.711 254.025C125.458 263.084 110.784 281.923 103.087 284.073C102.639 282.106 104.094 281.209 105.24 280.474C111.188 276.656 115.601 271.375 119.451 265.58C121.141 263.035 122.52 260.279 123.992 257.593C124.628 256.44 125.142 255.219 125.711 254.025Z" fill="#BB9F87" fill-opacity="0.5"/>
<path d="M108.48 255.407C108.554 254.878 108.505 254.418 108.681 254.073C110.385 250.741 112.126 247.427 114.1 243.643C114.549 248.122 112.018 253.178 108.48 255.407Z" fill="#BB9F87" fill-opacity="0.5"/>
<path d="M133.397 236.186C133.401 239.977 132.002 243.267 129.847 246.988C129.745 243.931 130.748 240.523 132.916 235.793C133.077 235.923 133.238 236.056 133.397 236.186Z" fill="#BB9F87" fill-opacity="0.5"/>
<path d="M135.029 228.565C135.1 226.043 134.364 223.415 135.624 221.053C135.982 221.112 136.339 221.168 136.697 221.227C136.114 223.652 135.532 226.079 134.951 228.504L135.029 228.565Z" fill="#BB9F87" fill-opacity="0.5"/>
<path d="M134.952 228.506C134.434 231.065 133.915 233.624 133.397 236.184C133.238 236.053 133.077 235.921 132.918 235.791C133.622 233.383 134.327 230.975 135.031 228.565L134.952 228.506Z" fill="#BB9F87" fill-opacity="0.5"/>
</svg>
