<svg width="126" height="198" viewBox="0 0 126 198" fill="none" xmlns="http://www.w3.org/2000/svg">
<path opacity="0.44" d="M83.4302 23.608C98.6504 20.1176 110.872 18.8259 123.08 19.4508C128.772 19.7426 134.495 19.8907 139.839 21.3124C143.738 22.3496 147.812 23.3332 151.151 25.2226C156.702 28.3644 161.682 32.2664 166.984 35.7507C171.969 39.0258 175.496 43.4697 178.631 48.2473C179.424 49.4559 180.139 50.723 180.765 52.0256C182.435 55.5019 184.03 59.0159 185.668 62.5089C187.98 67.437 189.105 72.7571 189.872 78.2134C190.35 81.6215 191.1 84.9632 191.635 88.3584C192.451 93.532 192.037 98.8024 190.756 104.146C190.111 106.835 189.967 109.605 189.009 112.221C187.754 115.649 186.102 119.032 184.285 122.307C181.84 126.711 179.109 131.009 176.424 135.318C175.572 136.686 174.571 138.013 173.473 139.24C170.473 142.591 167.793 146.097 165.678 149.934C165.281 150.654 164.646 151.353 163.967 151.887C157.342 157.089 150.507 161.932 142.613 165.225C138.477 166.951 134.507 169.123 130.439 171.041C123.418 174.35 116.031 175.922 108.62 177.079C104.074 177.79 99.4864 178.178 94.9543 178.346C89.986 178.53 85.0437 178.378 80.1173 178.223C73.0065 177.999 66.9325 175.291 60.5502 173.284C52.5646 170.773 46.1221 166.156 39.2839 162.072C38.2839 161.474 37.5849 160.47 36.8138 159.603C34.7574 157.285 32.7796 154.938 30.0111 153.228C28.6132 152.364 27.7274 150.863 26.5811 149.675C23.6011 146.588 22.103 142.657 20.8321 138.708C18.6705 131.994 16.7383 125.181 15.1051 118.284C14.3288 115.008 14.1377 111.474 14.2548 108.005C14.5176 100.178 16.8348 92.3691 18.5075 84.5709C19.1648 81.5073 20.7416 78.4903 22.0048 75.4789C22.8616 73.4356 23.7792 71.3905 24.8902 69.4313C26.3639 66.8309 27.8967 64.227 29.6849 61.7794C32.5225 57.8951 35.8951 54.2795 38.4682 50.2847C40.4626 47.1881 42.9616 44.8604 45.9906 42.7122C50.0884 39.8049 53.9436 36.5995 58.5036 34.3153C62.0097 32.5585 65.3232 30.3774 68.8702 28.7322C74.4979 26.1214 80.3411 24.1617 83.4302 23.608ZM158.5 149.257L158.602 149.12C155.033 152.304 150.781 154.86 147.951 158.589C146.801 159.046 145.571 159.407 144.46 159.997C139.8 162.471 135.186 165.03 130.535 167.519C129.13 168.27 127.386 168.247 126.018 169.355C127.419 170.783 128.845 170.136 130.32 169.447C134.89 167.308 139.517 165.295 144.041 163.058C150.93 159.654 157.551 155.777 162.731 150.116C164.77 147.889 166.281 145.27 168.194 142.606C167.975 142.142 167.578 141.49 167.373 140.769C167.299 140.51 167.688 140.088 167.867 139.74C168.216 139.942 168.628 140.092 168.896 140.365C169.085 140.558 169.076 140.919 169.26 141.583C170.987 139.54 172.512 137.925 173.803 136.179C178.827 129.381 183.054 122.247 186.254 114.717C187.005 112.952 188.511 111.149 187.144 109.299C187.032 109.149 187.185 108.71 187.355 108.489C189.3 105.951 189.452 103.086 189.902 100.369C190.364 97.5822 190.063 94.7864 190.216 91.986C190.438 87.8861 189.19 84.3012 187.495 81.125C187.731 79.9492 188.153 78.9537 188.074 78.0562C187.623 72.9357 186.25 68.0897 184.333 63.4609C182.784 59.7221 181.052 56.0524 179.139 52.4947C176.213 47.0519 172.843 41.9566 167.816 37.9291C163.416 34.4053 158.617 31.4256 153.71 28.5487C151.055 26.9914 148.43 25.3182 145.508 24.2038C139.05 21.7417 132.024 20.7938 124.735 20.7371C122.746 20.7216 120.752 20.0773 118.972 21.6526C115.259 19.709 101.896 20.7604 98.2483 22.9209C96.4011 22.765 94.9554 22.3146 93.5778 22.59C89.7942 23.3447 86.0394 24.405 82.2718 25.3423C82.0187 25.9851 81.7646 26.6293 81.5088 27.2784C79.9424 27.4266 79.409 25.6965 77.5944 26.5031C72.1588 28.9185 66.5996 31.0342 61.4837 34.1719C60.0757 35.0357 58.4649 35.6418 57.1915 36.6441C55.1553 38.2476 52.1847 38.9638 51.6274 41.1201C49.837 42.1619 48.3255 42.6952 47.3454 43.6734C43.8166 47.1962 40.3411 50.7816 37.091 54.5141C34.6318 57.3379 32.705 60.5338 30.2259 63.3413C28.9969 64.7335 28.9809 65.8299 29.6679 67.3083C27.551 67.4564 26.7038 68.4909 26.0958 70.0164C25.3583 71.868 24.2283 73.6253 23.4076 75.4619C21.6366 79.4276 19.8449 83.3806 19.2941 87.5861C18.9941 89.8781 18.368 92.1833 17.7495 94.4654C16.2271 100.079 15.885 105.66 15.6712 111.25C15.548 114.449 16.9753 117.188 17.4526 120.22C18.15 124.645 19.3805 128.966 20.8231 133.155C21.3802 134.774 21.066 137.31 24.3196 137.392C23.514 138.237 23.0159 138.759 22.3791 139.427C23.8822 142.262 25.3807 145.173 26.9625 148.035C27.6782 149.33 28.6365 150.427 30.8228 149.774C30.5895 151.631 31.2683 152.769 32.692 153.542C33.2892 153.867 33.741 154.431 34.1564 154.961C39.1636 161.346 46.2207 165.463 53.621 169.198C54.6445 169.715 55.6516 170.59 57.0599 169.224C57.2208 169.068 58.5358 169.622 58.5239 169.649C57.6772 171.67 59.4921 171.673 60.6064 172.086C63.1751 173.039 65.798 173.891 67.8736 174.605C69.1677 174.072 69.9843 173.737 70.8008 173.401C71.014 174.078 71.2273 174.755 71.5275 175.703C78.3707 177.916 86.2867 177.364 94.0193 177.279C99.4839 177.218 105.074 176.27 110.607 175.541C112.629 175.274 114.933 174.911 116.576 173.827C117.959 172.914 118.789 172.496 120.308 172.818C122.821 173.349 123.809 172.517 124.301 169.739C122.328 170.231 120.376 170.606 118.478 171.213C113.694 172.743 108.569 172.67 104.057 175.474C103.991 175.515 103.855 175.444 103.671 175.411C103.605 174.99 103.535 174.537 103.413 173.749C100.046 174.027 96.5869 174.313 93.1294 174.599L93.2571 174.669C89.9063 174.338 86.5554 174.007 83.1174 173.666C83.0266 174.258 82.9428 174.798 82.8281 175.539C81.9673 175.534 81.1972 175.528 80.2008 175.522C80.6569 174.642 80.9494 174.077 81.326 173.35C79.3641 173.16 77.6628 173.056 76.0018 172.819C73.8298 172.509 71.5569 172.349 69.5617 171.673C63.9352 169.764 58.5967 167.406 53.5947 164.438C50.3941 162.538 47.8131 159.395 43.0934 160.204C43.132 158.053 43.0699 158.11 40.9457 156.195C37.9891 153.53 34.6557 151.112 33.0241 147.433C32.3222 145.851 31.301 145.029 29.4725 145.026C29.9806 142.505 26.9504 133.144 24.4271 129.157L24.4701 129.202C23.5173 124.102 22.2537 119.064 21.7212 113.877C21.3755 110.508 21.9542 106.922 22.3758 103.429C22.7394 100.427 23.7262 97.4039 23.9858 94.4115C24.7608 85.4588 27.0558 76.8029 32.4334 68.6237C33.4205 67.1221 34.3054 65.5711 35.1362 64.2078C34.4609 63.6044 34.015 63.2062 33.1519 62.434C34.6063 62.3651 35.4219 62.327 36.125 62.2936C37.4674 60.2476 38.7256 58.2282 40.1003 56.2702C41.0234 54.9566 42.175 53.7389 41.098 52.1578C42.4032 51.8323 43.5853 51.8335 44.3521 51.2905C46.6377 49.6761 48.7605 47.8466 50.9476 46.1027C56.7112 41.5111 62.287 36.6625 69.2228 33.6808C70.1244 33.2929 70.9743 32.7726 71.96 32.2543C71.3662 31.7836 70.9154 31.4257 70.4449 31.0527C72.2732 29.4709 73.0842 30.8592 73.9384 31.446C76.8825 30.3912 79.5964 29.3582 82.3423 28.4433C94.7197 24.3247 107.15 23.1808 119.591 23.4832C122.685 23.5584 125.805 23.5933 128.818 23.9792C130.87 24.2417 132.762 24.9548 134.607 23.3923C135.414 24.2065 135.897 25.1316 136.72 25.4412C139.104 26.339 141.61 27.0232 144.095 27.7317C149.026 29.1382 153.432 31.2652 157.101 34.4878C158.153 35.4117 158.823 36.8474 160.791 36.7387C161.181 36.7173 161.696 37.4279 161.838 37.914C162.697 40.8554 165.068 42.487 167.434 44.1688C168.965 42.6488 168.965 42.6488 170.097 43.6523C169.426 44.0396 168.8 44.4012 168.368 44.6519C170.872 48.1381 173.338 51.5712 175.799 54.9998C176.72 54.7153 177.758 54.0422 178.093 55.5457C177.584 55.8639 177.055 56.1935 176.264 56.6867C176.681 57.7164 177.093 58.7754 177.539 59.8179C177.918 60.702 178.465 61.5227 178.715 62.4469C179.902 66.8499 180.94 71.3049 182.181 75.6889C182.815 77.9268 183.762 80.0542 184.649 82.4534C182.852 82.819 183.011 84.2515 182.864 85.7134C182.419 90.1157 181.883 94.5221 181.296 98.9275C180.747 103.049 180.003 107.173 179.531 111.291C179.406 112.377 180.372 113.488 180.107 114.512C179.82 115.618 178.539 116.586 177.939 117.703C176.484 120.411 175.283 123.212 173.763 125.892C172.831 127.534 172.174 129.117 172.297 130.856L172.356 130.788C169.988 134.438 167.696 138.096 164.6 141.383C162.312 143.812 160.515 146.619 158.5 149.257ZM88.9744 28.0584C79.8712 30.5596 70.9736 33.6474 63.054 39.0079C57.3947 42.8385 52.1539 47.2517 46.7505 51.4341C43 54.3375 40.6782 58.1021 38.5901 62.0106C37.7342 63.6125 36.8257 65.2118 35.7722 66.7255C30.5576 74.2184 27.3809 82.2386 26.3953 90.5882C25.8362 95.3318 24.9841 100.029 24.0291 104.744C23.8878 105.443 23.8111 106.149 23.7606 106.847C23.253 113.93 24.1765 120.714 26.1601 127.242C26.8892 129.639 28.2656 131.811 28.8681 134.241C30.171 139.5 33.1516 143.87 36.0435 148.223C38.5966 152.065 42.041 155.302 46.2538 157.758C49.793 159.821 53.0457 162.288 56.731 164.124C61.3255 166.413 65.9657 168.908 71.0768 170.091C77.3275 171.538 84.0454 171.897 90.6401 172.375C94.4484 172.65 98.4113 172.258 102.309 172.123C108.751 171.901 115.12 170.708 121.404 168.504C121.928 168.32 122.468 168.19 122.996 168.015C126.25 166.937 129.679 166.222 132.712 164.688C137.294 162.37 141.724 159.656 145.991 156.791C152.204 152.617 157.202 147.323 161.472 141.446C164.596 137.147 166.23 132.238 169.602 128.02C171.228 125.987 172.288 123.604 173.615 121.384C175.634 118.009 177.119 114.551 177.286 110.826C177.349 109.428 177.642 108.012 177.839 106.604C178.827 99.581 179.767 92.5577 180.823 85.5364C181.73 79.512 179.601 74.2245 178.373 68.7436C177.636 65.4525 176.031 62.4326 174.937 59.2415C173.019 53.6456 169.71 48.9572 165.413 44.884C163.717 43.2774 162.106 41.5913 160.375 40.0192C156.891 36.8589 153.831 33.4656 148.704 31.8824C139.913 29.1689 131.141 26.4662 121.662 25.6664C115.534 25.1494 109.223 25.1538 102.951 25.5606C98.3249 25.8608 93.6349 27.1889 88.9744 28.0584Z" fill="#FEC94E"/>
<path opacity="0.44" d="M168.472 86.212C166.565 88.4096 167.04 90.089 168.098 91.692C168.254 91.9266 168.446 92.191 168.446 92.4632C168.451 95.6177 168.464 98.7724 168.379 101.937C168.345 103.191 168.077 104.469 167.917 105.735C167.893 105.935 167.94 106.15 167.858 106.331C166.589 109.168 165.305 111.999 164.142 114.571C162.662 114.94 161.709 115.177 160.604 115.453C160.331 116.594 163.011 117.067 161.398 118.262C160.441 118.97 158.83 118.876 157.31 119.183C157.578 119.773 158.156 120.55 158.265 121.431C158.367 122.252 157.966 123.185 157.767 124.169C154.376 126.314 151.307 125.56 148.471 124.157C146.239 123.053 144.295 121.528 142.117 120.338C139.942 119.15 137.721 117.991 135.369 117.089C129.961 115.018 125.665 111.727 121.794 107.868C119.956 106.036 117.771 104.507 115.791 102.796C115.065 102.168 114.472 101.409 113.865 100.76C114.125 99.075 115.228 98.0435 116.73 97.3479C118.047 96.7386 119.381 96.0929 120.754 95.7019C127.258 93.8519 133.746 91.7896 140.305 90.3705C146.731 88.9812 153.236 88.2744 159.708 87.2706C161.763 86.9518 163.818 86.6274 165.874 86.3451C166.578 86.2507 167.287 86.2695 168.472 86.212ZM147.457 113.236C149.753 115.87 154.921 117.537 159.196 116.649C157.603 115.783 156.539 114.929 155.251 114.562C152.796 113.862 150.214 113.439 147.685 112.9C146.937 112.553 146.189 112.205 145.441 111.858C145.333 112.045 145.223 112.232 145.115 112.419C145.896 112.691 146.676 112.964 147.457 113.236ZM115.945 99.5859C120.739 99.1924 124.678 100.275 129.018 99.0782C137.214 96.8167 138.997 96.2655 140.943 94.2084C138.462 94.4866 136.104 94.7108 133.748 95.0247C129.674 95.5677 125.6 95.4663 121.521 96.7596C119.718 97.3311 118.015 97.8989 115.945 99.5859ZM157.564 92.3794C157.435 92.2749 157.322 92.0832 157.175 92.0798C150.413 91.8948 144.301 94.6348 138.294 97.824C138.228 97.8594 138.224 98.0128 138.191 98.111C143.787 99.3897 151.455 96.8997 157.564 92.3794ZM139.638 106.334C133.19 104.081 126.733 102.033 119.443 102.301C125.208 106.317 132.142 107.174 139.638 106.334ZM154.655 100.211C154.345 99.8932 154.229 99.6431 154.086 99.6465C149.896 99.7607 145.691 99.5375 141.516 100.163C138.797 100.571 136.453 99.994 134.072 99.6807C132.356 99.4551 131.208 99.6712 129.528 100.521C137.203 102.848 147.141 102.705 154.655 100.211ZM124.234 106.768C123.974 107.059 123.715 107.348 123.454 107.638C129.484 113.134 136.334 117.461 145.732 118.941C143.882 116.71 143.852 116.771 141.441 115.987C138.053 114.886 134.557 113.998 131.771 111.834C129.402 109.994 126.757 108.445 124.234 106.768ZM165.377 102.183C162.636 98.8148 159.381 99.0902 152.498 103.276C156.93 105.179 162.565 104.701 165.377 102.183ZM129.628 107.919C133.872 112.368 139.342 114.382 145.875 115.508C143.264 112.132 135.025 108.332 129.628 107.919ZM150.731 97.9037C155.508 98.052 160.242 98.7723 165.052 95.7359C162.864 93.332 159.772 94.1404 157.196 94.6858C154.975 95.1559 152.88 96.7858 150.731 97.9037ZM143.561 108.655C146.823 111.805 155.192 113.9 159.059 112.614C154.478 109.633 149.167 108.911 143.561 108.655ZM146.588 91.1236C146.609 91.3883 146.631 91.653 146.652 91.9166C151.249 91.3442 155.846 90.7788 160.443 90.1887C160.968 90.1211 161.546 90.0147 162.001 89.7537C162.451 89.496 162.775 89.0197 163.418 88.3749C157.421 88.5995 151.954 89.2209 146.588 91.1236ZM163.465 108.272C159.023 105.944 154.058 105.236 148.654 105.963C153.396 107.315 158.24 108.338 163.465 108.272ZM155.537 121.129C154.211 118.354 150.553 116.742 147.682 117.629C149.832 119.482 152.007 121.05 155.537 121.129ZM157.546 109.421C157.462 109.565 157.377 109.709 157.293 109.853C159.138 110.896 160.983 111.938 163.234 113.212C163.592 111.819 163.803 110.994 164.073 109.936C161.696 109.747 159.621 109.584 157.546 109.421ZM152.993 123.68C151.535 122.465 149.938 121.527 147.24 121.62C149.023 123.345 150.863 123.8 152.993 123.68ZM165.753 106.833C166.327 104.186 166.274 104.165 162.163 105.457C163.573 105.997 164.621 106.399 165.753 106.833ZM139.142 104.034C141.749 104.978 142.454 104.941 145.192 103.647C143.167 103.657 141.417 103.664 139.665 103.683C139.586 103.684 139.493 103.793 139.142 104.034ZM135.44 93.1863C139.905 93.2035 139.905 93.2035 141.15 91.7633C139.201 92.2489 137.321 92.7176 135.44 93.1863Z" fill="#FEC94E"/>
<path opacity="0.44" d="M39.6036 116.722C39.4063 115.947 39.405 115.636 39.2603 115.414C36.5334 111.259 36.889 106.338 37.2417 101.461C37.3379 100.127 36.8152 99.5151 35.4666 99.0204C38.4146 96.5991 38.605 93.3427 40.4602 90.4298C39.8901 90.0551 39.3724 89.7152 38.7372 89.2967C38.8285 87.2044 40.4255 85.581 41.664 83.8365C42.6413 82.4602 43.7536 81.2595 43.6385 79.4103C43.5603 78.1578 44.6053 76.7066 45.1638 75.3477C45.735 73.9589 46.328 72.5748 46.8429 71.3504C48.3226 70.3677 49.8098 69.3142 51.3626 68.3634C53.5819 67.0037 55.8966 66.5369 58.2644 67.1617C62.5205 68.2848 66.0824 70.4274 69.4321 72.848C72.9371 75.3824 76.5502 77.8308 79.7211 80.688C81.4032 82.2044 83.4355 83.1747 85.205 84.5033C87.8708 86.503 90.4231 88.6256 92.9814 90.7389C93.4961 91.1641 93.9579 91.7184 94.2111 92.3191C95.5056 95.3846 95.4066 95.8002 92.2998 98.2678C87.6926 101.928 82.2335 103.209 77.0804 102.591C72.4466 102.037 68.4733 103.38 64.4393 105.249C57.7413 108.352 51.1683 111.748 44.5116 114.949C43.0344 115.661 41.4279 116.075 39.6036 116.722ZM91.6368 96.2912C82.7446 90.3083 74.402 92.9184 68.4456 102.46C71.1632 100.662 73.5098 100.536 75.817 100.938C79.1088 101.511 82.4762 100.999 85.7544 100.04C87.8788 99.4179 90.3009 98.765 91.6368 96.2912ZM41.2846 97.1299C43.7347 99.9507 46.6627 101.03 49.9949 101.24C52.9477 101.426 55.9845 101.243 58.9919 101.15C61.543 101.072 64.408 101.586 66.579 100.569C68.907 99.4789 70.5891 96.9042 72.5445 94.971C72.6047 94.9114 72.5736 94.7755 72.6016 94.5246C72.1784 94.6646 71.7952 94.7591 71.4351 94.9145C67.8022 96.4775 64.1114 97.5246 60.2705 97.3985C55.5762 97.2445 50.8844 97.0822 46.1832 96.9712C44.7412 96.9364 43.2742 97.0593 41.2846 97.1299ZM63.3948 89.2773C62.8261 88.92 62.6159 88.684 62.34 88.6313C58.7852 87.9538 55.8275 86.3723 53.0962 84.3901C52.075 83.649 50.8941 83.0133 49.6433 82.6213C48.7611 82.3444 47.6216 82.3813 46.6269 82.5847C43.8099 83.1612 42.4858 85.0729 41.7069 87.2308C45.0572 88.2756 48.1429 89.3163 51.2979 90.2048C55.1097 91.2761 58.9978 91.8816 63.3948 89.2773ZM71.197 86.0377C68.0011 82.6132 65.371 79.5432 62.4407 76.743C60.4217 74.8138 58.064 73.1695 55.7073 71.5718C54.3843 70.6753 52.7277 70.4156 50.562 71.8889C55.2639 74.1895 57.85 78.1726 61.1501 81.5256C63.5936 84.0094 66.7681 85.3821 71.197 86.0377ZM62.2393 103.215C62.2317 103.087 62.2252 102.957 62.2176 102.829C58.2673 102.804 54.3193 102.763 50.3651 102.761C46.2622 102.759 43.212 100.655 39.9435 99.0036C38.3177 102.084 38.3717 105.016 39.9006 107.731C44.6887 105.818 49.5391 104.559 54.5777 104.313C57.1118 104.189 59.6844 103.596 62.2393 103.215ZM69.9247 93.3386C61.8702 93.1447 53.8964 91.6198 45.6077 95.0073C46.4322 95.4477 47.2942 95.6583 48.1874 95.6873C51.9338 95.8036 55.7107 95.7653 59.4359 95.9759C63.0857 96.1809 66.463 94.8789 69.9247 93.3386ZM66.2128 77.6069C66.1144 77.7072 66.0146 77.8067 65.9162 77.907C67.5199 79.6445 69.0356 81.462 70.7535 83.0965C72.1702 84.444 74.0155 85.1602 76.1234 85.6437C79.7338 86.4722 83.172 87.7313 86.69 88.7944C86.928 88.8665 87.227 88.812 87.4979 88.8169C86.7315 87.5221 85.7678 86.4336 84.4865 85.8375C78.4424 83.0195 72.3128 80.3375 66.2128 77.6069ZM68.8199 90.7203C75.422 91.9847 82.6236 90.4153 89.0404 92.4888C86.5294 90.4885 83.7473 88.9924 80.573 88.0518C77.9758 87.2826 75.4183 87.3276 72.7586 88.8918C71.5174 89.6223 70.137 90.1191 68.8199 90.7203ZM66.3768 87.1471C63.7458 85.1878 61.193 83.2536 58.5919 81.3748C58.0586 80.9899 57.3829 80.5981 56.7048 80.5733C54.7285 80.498 52.7189 80.607 50.2037 80.6527C55.4793 84.0688 61.3714 88.7793 66.3768 87.1471ZM56.7257 78.8016C54.0189 76.4268 52.2456 73.7814 48.4573 73.1243C47.2982 75.3324 45.5189 77.234 45.8111 79.9991C49.2392 79.6223 52.6137 79.2521 56.7257 78.8016ZM56.1802 69.6617C57.7859 70.7818 59.1733 71.7735 60.6014 72.7162C60.7921 72.8424 61.2762 72.8309 61.4846 72.6887C62.8199 71.7822 63.4816 72.6419 64.2107 73.242C65.2652 74.1096 66.2247 75.0755 67.3058 75.9143C69.1971 77.3808 71.3028 78.5365 74.1157 79.1774C70.8653 74.1346 60.7847 68.7276 56.1802 69.6617ZM42.7356 108.483C48.1942 110.397 53.4207 109.222 59.2075 105.559C53.1504 105.585 47.9033 106.228 42.7356 108.483ZM43.5833 89.5821C41.8486 91.3723 40.6726 93.0244 40.2418 95.2926C43.5603 94.0197 46.5736 92.8641 50.3413 91.419C47.678 90.6952 45.7317 90.1669 43.5833 89.5821ZM47.3185 111.876C47.2331 111.598 47.1489 111.319 47.0633 111.04C44.5031 111.833 42.306 109.3 39.2855 111.573C40.1104 112.614 40.8566 113.555 41.7459 114.676C43.6832 113.703 45.5008 112.789 47.3185 111.876Z" fill="#FEC94E"/>
<path opacity="0.44" d="M113.982 156.119C112.995 159.179 109.6 161.631 106.432 161.241C104.713 161.03 103.259 161.123 101.903 162.323C99.7374 160.251 95.4284 161.875 94.1591 158.238C93.9053 159.321 93.7745 159.877 93.5543 160.815C91.1233 159.388 88.4461 160.78 86.0111 160.564C83.4672 160.339 81.0201 159.7 78.5524 159.186C75.7014 158.592 72.8736 157.94 69.622 157.222C69.4171 156.86 68.8124 156.089 68.5141 155.2C67.98 153.606 68.0131 152.108 69.5178 150.448C71.2168 148.575 72.5697 146.429 73.9307 144.335C77.0058 139.606 79.9324 134.806 83.0536 130.1C84.0039 128.667 85.2396 127.286 86.6062 126.16C89.3727 123.88 91.1795 120.797 94.2257 118.765C94.6321 118.495 94.736 117.829 95.0448 117.381C96.8356 114.78 98.6671 112.201 100.436 109.59C101.02 108.728 101.459 107.794 102.066 106.71C103.746 107.436 104.943 108.232 105.39 109.884C106.101 112.515 107.129 115.043 107.773 117.694C109.296 123.967 110.562 130.322 112.141 136.576C113.313 141.217 114.871 145.732 116.138 150.343C116.596 152.011 116.707 153.799 117.034 155.903C115.742 156.022 114.829 156.106 113.912 156.194C110.287 155.095 108.772 151.891 106.168 149.511C105.411 152.886 104.709 156.016 104.025 159.065C106.886 160.077 109.233 159.985 111.419 157.574C112.025 156.904 113.115 156.593 113.982 156.119ZM108.09 128.334C107.925 128.35 107.761 128.366 107.596 128.383C107.247 130.056 106.861 131.729 106.557 133.403C105.782 137.671 105.369 141.899 106.779 145.866C108.118 149.629 110.524 152.532 114.584 154.428C114.801 153.586 115.196 152.923 115.061 152.447C112.776 144.394 110.425 136.367 108.09 128.334ZM91.2353 158.044C91.486 157.623 91.6458 157.237 91.9143 156.923C95.0198 153.297 95.6347 149.355 95.0367 145.358C94.6377 142.697 93.885 140.124 93.2867 137.49C93.1009 137.806 92.773 138.229 92.5952 138.683C91.224 142.214 89.876 145.749 88.5359 149.286C88.0904 150.462 87.6632 151.643 87.2804 152.829C86.6086 154.912 87.3142 156.347 89.2702 157.17C89.9176 157.444 90.552 157.74 91.2353 158.044ZM104.625 132.819C106.659 124.862 106.987 117.163 102.901 110.246C100.195 118.287 101.719 125.646 104.625 132.819ZM73.2281 152.846C75.4461 151.426 77.4389 150.405 79.0883 149.025C80.8715 147.533 82.5147 145.807 83.8812 143.99C85.1226 142.34 85.7661 140.356 86.9369 138.654C88.2952 136.68 87.5892 134.767 87.9885 132.756C85.2643 137.701 81.1005 141.599 77.268 145.733C75.4898 147.651 73.7404 149.698 73.2281 152.846ZM96.2296 152.97C98.5216 150.564 99.23 148.163 99.8491 145.83C100.541 143.226 101.243 140.331 99.8248 138.188C98.6145 136.359 98.4406 134.205 97.4194 132.372C97.0378 131.686 96.9563 130.832 96.7379 130.055C95.1709 134.704 94.8995 139.159 96.1891 143.417C96.9086 145.794 97.0866 148.199 96.4865 150.758C96.3527 151.328 96.3482 151.909 96.2296 152.97ZM89.8508 139.916C90.1065 139.6 90.4781 139.306 90.6012 138.965C91.7994 135.656 92.9113 132.33 94.1419 129.029C94.9127 126.964 93.8152 124.415 96.7412 122.896C97.3725 120.352 98.0026 117.809 98.6341 115.266C93.267 123.028 88.9888 130.962 89.8508 139.916ZM72.9959 155.216C75.8442 156.467 78.4338 155.797 80.8207 153.977C83.9939 151.557 85.7662 148.34 86.9997 144.913C87.2526 144.209 87.2477 143.455 87.4309 142.279C85.0026 144.941 83.1606 147.317 80.9259 149.312C78.6189 151.372 75.9282 153.063 72.9959 155.216ZM90.2586 125.366C83.4127 130.023 79.9659 136.595 76.8011 143.326C83.2501 138.447 86.7037 131.878 90.2586 125.366ZM99.5708 119.505C99.1712 119.899 98.9139 120.044 98.8821 120.201C97.7704 125.657 98.1506 130.807 100.597 135.491C100.95 136.166 101.381 137.037 102.951 136.789C101.817 130.985 100.71 125.326 99.5708 119.505ZM85.3464 152.179C82.9874 153.921 80.8325 155.514 78.5105 157.229C81.2338 157.78 83.8176 158.76 86.9362 158.56C85.0355 156.847 85.0893 154.582 85.3464 152.179ZM102.983 145.213C102.043 149.176 100.464 153.274 102.37 157.078C104.174 153.047 104.755 149.102 102.983 145.213ZM99.3891 151.9C98.0271 153.794 96.8603 155.418 95.4407 157.392C96.3901 158.05 97.1895 158.892 98.2395 159.248C99.2817 159.602 100.31 158.824 100.249 157.766C100.143 155.893 99.7269 154.071 99.3891 151.9Z" fill="#FEC94E"/>
<path opacity="0.44" d="M103.459 56.6235C100.07 51.9783 99.3496 46.3179 101.13 40.0147C106.097 39.3493 110.791 38.5202 115.457 38.1656C118.705 37.919 121.922 38.3077 125.145 38.4599C125.535 38.4785 126.141 38.7166 126.184 38.9726C126.499 40.8841 128.477 40.5772 129.779 41.2041C131.766 42.161 134.395 42.8803 135.336 44.5102C136.677 46.8342 137.214 49.7528 135.435 52.8594C132.792 57.4728 128.955 61.2219 125.022 64.8917C122.958 66.8166 121.412 68.835 121.105 71.3828C120.784 74.0385 119.406 76.4323 117.736 78.5727C115.098 81.9559 112.026 85.0773 109.18 88.3392C108.272 89.3804 107.279 89.82 105.877 89.599C106.046 88.2739 106.519 86.9419 106.276 85.822C106.017 84.6283 104.975 83.6858 104.462 82.5454C103.23 79.8131 102.19 77.0745 102.16 73.852C102.116 69.2521 101.574 64.7132 102.381 60.0275C102.539 59.0965 102.959 58.1713 103.459 56.6235ZM113.413 54.6871C111.339 57.4047 112.036 59.3595 112.787 61.2628C113.979 64.2884 114.222 67.3251 112.268 70.6035C111.888 71.2399 111.82 72.2081 112.039 72.8517C112.703 74.7899 112.41 76.7765 111.948 78.8095C111.565 80.4982 111.209 82.19 110.842 83.8791C115.223 79.0903 116.732 73.742 117.176 68.2021C117.244 67.3589 116.857 66.423 116.361 65.7493C114.1 62.6727 113.406 59.0712 113.413 54.6871ZM108.782 70.6528C111.743 68.6788 112.199 66.6057 111.7 64.0237C110.362 57.1106 106.028 51.8519 102.158 45.5849C102.152 49.2406 102.567 52.093 104.183 54.5586C107.265 59.2622 108.946 64.4621 108.782 70.6528ZM107.269 83.7263C107.547 83.6447 107.825 83.562 108.102 83.4807C108.133 83.1245 108.262 82.736 108.181 82.4166C107.415 79.4086 106.444 76.4585 105.888 73.396C105.578 71.6889 104.088 69.7664 106.76 67.9744C107.017 67.8026 106.936 66.9941 106.843 66.5292C106.462 64.6027 106.057 62.6819 105.563 60.7912C105.445 60.3383 104.949 60.012 104.626 59.6281C104.407 59.7208 104.189 59.8135 103.97 59.9062C103.207 68.2755 102.644 76.6006 107.269 83.7263ZM133.921 48.0847C133.274 48.7617 132.789 49.1973 132.397 49.6895C130.924 51.5427 129.747 53.5008 127.803 55.1496C125.025 57.5063 123.669 60.5941 123.576 64.559C127.275 60.5182 131.08 57.3244 133.424 53.1035C134.264 51.5914 135.082 50.0431 133.921 48.0847ZM117.364 62.0244C119.509 59.3564 121.168 57.0544 123.097 54.9519C125.447 52.3879 125.561 52.3901 124.488 48.9402C121.141 52.8653 117.234 56.5273 117.364 62.0244ZM118.04 64.0058C118.382 65.5723 118.882 66.9566 118.945 68.4103C119.007 69.8452 118.629 71.3494 118.444 72.8233C120.567 67.1396 121.845 61.3731 124.156 55.6528C122.055 58.5224 119.953 61.3933 118.04 64.0058ZM122.733 45.5633C118.504 47.5606 117.334 49.6554 117.771 54.1778C122.182 50.244 123.344 48.2975 122.733 45.5633ZM115.063 48.2735C116.023 48.184 116.662 48.3105 116.976 48.0648C118.728 46.6933 120.405 45.2379 122.098 43.8013C123.719 42.4238 123.749 42.1882 122.427 39.4963C119.449 42.0772 117.225 44.8615 115.063 48.2735ZM127.714 50.1607C130.746 49.6274 132.067 48.5934 132.202 46.8498C132.377 44.5611 131.562 43.6799 128.838 43.3778C128.476 45.566 128.114 47.7416 127.714 50.1607ZM111.163 49.7887C111.279 49.853 111.395 49.9176 111.511 49.9808C112.259 48.0363 113.187 46.1087 113.678 44.1412C113.929 43.1412 113.53 42.0117 113.174 41.0433C112.872 40.2235 112.07 39.9646 111.189 40.5663C111.179 43.6819 111.171 46.7353 111.163 49.7887ZM109.326 79.8402C109.584 79.7626 109.842 79.6836 110.099 79.606C110.548 77.2874 111.274 74.9343 109.848 72.718C108.333 73.2662 107.44 73.9877 107.933 75.4762C108.413 76.9239 108.862 78.3849 109.326 79.8402ZM105.424 41.7959C104.644 42.7072 103.859 43.2895 103.936 43.5886C104.492 45.7483 104.968 47.9987 107.544 49.0797C106.883 46.809 106.222 44.5394 105.424 41.7959ZM108.75 47.4483C110.091 45.1794 109.772 43.2541 108.851 41.4687C108.699 41.1739 108.084 41.1234 107.189 40.7583C107.786 43.3192 108.268 45.3838 108.75 47.4483ZM115.402 40.4279C115.66 41.5005 115.88 42.4148 116.184 43.6748C117.544 42.3368 118.744 41.4982 118.496 39.8567C117.526 40.0352 116.672 40.1928 115.402 40.4279Z" fill="#FEC94E"/>
<path opacity="0.44" d="M94.8162 40.01C95.132 40.6893 95.2321 41.3482 95.6418 41.7143C98.0925 43.902 97.8747 46.9228 97.8762 49.9542C97.879 53.6443 97.9907 57.3354 98.3661 60.9608C98.7343 64.5161 99.0844 68.0356 98.5375 71.7144C98.3809 72.7652 98.4891 73.9509 98.9241 74.8486C101.044 79.2163 101.608 83.9354 101.035 88.9144C100.078 89.5603 99.0969 90.2236 97.8915 91.0381C97.3402 90.5983 96.6353 90.208 96.1702 89.6389C93.4188 86.2742 90.0458 83.7223 85.6332 82.1413C79.5952 79.9783 75.0226 76.0915 71.4594 71.2324C70.4099 69.8017 69.1755 68.6618 67.5239 67.7663C65.7698 66.8154 64.2788 65.4812 62.7667 64.2208C61.1698 62.8894 59.6795 61.4877 57.3818 61.0383C55.9523 60.7588 55.6231 59.8089 56.453 58.5186C57.1379 57.4542 57.5761 56.3075 58.9854 55.6061C60.0487 55.0762 61.0576 54.1321 61.7546 53.1859C64.9044 48.9114 69.5171 46.9964 74.3173 45.2571C77.5061 44.1023 80.6599 42.8192 83.7984 41.5107C87.3766 40.0208 90.947 40.1924 94.8162 40.01ZM71.6091 68.3206C72.3771 69.5261 72.8722 70.4492 73.5061 71.2749C78.1919 77.3837 85.2878 80.4768 92.8057 83.2998C90.2645 75.974 79.0822 67.8826 71.6091 68.3206ZM73.8112 47.1405C76.8077 53.6791 79.9425 59.5792 85.1588 65.0539C84.5293 60.1815 84.0218 56.0208 83.4395 51.8777C83.2476 50.5163 82.9828 49.1528 82.5388 47.8756C81.831 45.8432 80.8283 45.444 78.4129 45.9986C77.0157 46.3197 75.6258 46.6884 73.8112 47.1405ZM91.0277 60.577C90.8766 60.9728 90.635 61.4294 90.5346 61.8934C89.5195 66.631 90.4806 70.8123 92.979 74.5847C93.718 75.6998 94.3841 76.8858 94.8695 78.1314C95.7481 80.385 96.4308 82.7223 97.2651 84.996C97.5798 85.8529 97.7879 86.9251 99.247 86.7603C99.817 83.4945 99.7855 81.8136 98.699 79.1244C96.2007 72.9422 93.6086 66.8003 91.0277 60.577ZM92.0809 46.875C91.7265 47.4911 91.5342 47.6782 91.5452 47.8293C91.7071 50.1391 90.2864 52.9858 93.3227 54.355C93.5674 54.4647 93.4504 55.2798 93.3628 55.762C92.4273 60.9222 94.4744 65.1058 96.7554 69.2412C97.7901 64.638 96.581 60.3894 96.2843 56.0078C96.0484 52.5317 94.0134 49.9127 92.0809 46.875ZM87.9046 66.5258C88.7794 63.0729 89.5794 60.0159 90.3032 56.9509C90.4123 56.487 90.1964 55.9838 90.0775 55.5171C89.3025 52.4663 87.5128 50.0814 84.8979 48.1727C85.9334 54.1747 85.0125 60.6259 87.9046 66.5258ZM75.3541 65.3956C74.7198 63.5785 73.7529 61.8342 73.5324 59.9275C73.2266 57.2717 71.8785 55.1923 70.7364 52.9661C70.198 51.9178 69.4394 51.3354 68.0231 51.6703C67.5041 58.0843 70.182 63.6041 75.3541 65.3956ZM83.1272 43.772C85.3894 45.8898 87.35 47.7257 89.3502 49.5989C90.0827 47.0158 90.7894 44.5244 91.5272 41.9197C88.812 41.6888 86.1244 42.0294 83.1272 43.772ZM65.8652 52.264C65.5929 52.242 65.3204 52.219 65.0466 52.1962C63.7864 53.5017 62.5259 54.806 61.4831 55.8855C62.925 57.6193 64.1784 59.0666 65.3611 60.5652C66.4893 61.9954 67.4151 63.6118 69.6827 63.9486C66.9753 60.5931 66.3243 56.4671 65.8652 52.264ZM92.9789 79.2851C90.6655 72.1372 84.2578 68.9165 77.6206 65.9258C78.5765 67.2776 79.7137 68.4922 81.1463 69.3143C85.5345 71.8311 89.5679 74.6564 92.2887 78.7968C92.4313 79.0139 92.745 79.1244 92.9789 79.2851ZM80.1022 61.9468C79.8194 61.3761 79.5699 60.7859 79.2493 60.237C77.6388 57.4841 76.0099 54.7413 74.3878 51.9947C73.8939 51.1599 73.4565 50.2864 72.8947 49.4977C71.9759 48.2074 71.6148 48.2423 69.3042 49.8634C72.5097 50.3112 72.5306 52.929 73.3679 54.9167C74.6816 58.0366 77.128 60.149 80.1022 61.9468ZM58.3938 58.9334C60.7961 60.6817 62.9076 62.2173 65.0178 63.752C64.3982 61.8931 63.4055 60.3854 62.2198 59.0279C61.3528 58.0379 60.1677 57.5764 58.3938 58.9334ZM96.1259 48.8991C96.0705 47.0961 96.6594 45.0697 94.6596 43.7455C93.6768 46.1664 94.3067 47.7544 96.1259 48.8991Z" fill="#FEC94E"/>
<path opacity="0.44" d="M124.16 154.675C120.158 149.883 118.177 144.281 117.47 138.428C116.832 133.143 114.88 128.647 112.252 124.356C109.42 119.736 108.419 114.396 106.713 109.334C106.373 108.326 106.244 107.246 107.518 106.281C108.756 105.344 109.644 105.81 110.82 106.093C116.461 107.449 120.899 110.632 125.39 113.506C133.21 118.515 141.202 123.415 147.607 130.012C149.32 131.777 149.863 133.683 148.817 136.129C146.49 141.572 142.731 146.089 137.566 149.696C135.832 150.907 134.211 152.358 132.339 153.272C130.773 154.038 128.924 154.254 127.189 154.574C126.222 154.753 125.234 154.649 124.16 154.675ZM137.219 141.589C136.1 140.783 135.08 139.834 133.844 139.194C125.285 134.77 119.582 127.968 115.388 119.911C114.827 118.833 114.622 117.572 114.146 116.446C113.095 113.953 111.523 111.835 109.023 110.357C109.16 111.831 109.652 113.152 109.913 114.537C110.905 119.781 114.639 123.62 116.682 128.322C116.832 128.669 117.157 128.939 117.42 129.229C122.653 134.984 129.227 139.14 137.219 141.589ZM121.342 125.263C124.348 131.905 130.666 135.283 137.062 138.584C134.192 131.847 128.273 128.073 121.342 125.263ZM132.065 120.445C135.595 125.84 138.496 131.894 146.931 132.149C142.466 127.733 138.245 123.062 132.065 120.445ZM126.041 124.951C122.352 119.691 120.878 113.492 114.02 111.183C116.247 118.235 119.332 122.304 126.041 124.951ZM121.505 113.873C122.422 115.436 123.607 116.892 124.199 118.586C125.356 121.892 127.874 124.035 130.693 125.96C131.409 126.45 132.429 126.587 133.31 126.887C130.195 121.671 127.536 116.336 121.505 113.873ZM125.355 141.084C125.376 143.959 125.41 146.796 125.416 149.639C125.424 153.062 126.297 153.477 129.884 151.73C128.401 144.805 127.583 142.871 125.355 141.084ZM119.73 136.274C120.576 140.689 120.738 145.37 123.411 149.534C123.908 144.311 123.937 139.604 119.73 136.274ZM131.823 150.877C133.318 150.108 134.376 149.564 135.703 148.88C133.381 147.144 132.365 144.522 129.017 143.064C130.07 145.993 130.899 148.303 131.823 150.877ZM140.318 138.837C139.649 135.3 137.521 132.425 135.415 129.543C134.72 128.59 133.687 128.428 132.47 128.702C135.151 132.162 137.739 135.505 140.318 138.837ZM140.41 133.196C141.228 136.103 142.078 139.126 142.892 142.021C145.061 138.878 144.261 135.93 140.41 133.196ZM137.876 146.788C137.58 144.828 134.962 142.832 131.383 141.888C133.684 143.908 134.461 146.537 137.876 146.788ZM145.89 137.855C146.933 136.626 147.824 135.709 146.999 134.653C146.75 134.334 145.819 134.502 144.842 134.414C145.246 135.741 145.515 136.624 145.89 137.855Z" fill="#FEC94E"/>
<path opacity="0.44" d="M97.3834 105.093C96.7469 105.788 96.2038 106.653 95.4205 107.192C91.9998 109.539 90.4719 112.948 88.6032 116.16C86.6662 119.49 84.9805 122.934 82.8573 126.172C81.6447 128.021 79.947 129.741 78.1699 131.197C75.2802 133.563 73.0592 136.086 71.7694 139.474C70.4568 142.922 68.0285 145.941 64.5611 148.131C61.874 149.828 61.722 149.805 60.1373 147.251C59.5084 147.231 58.7712 147.207 58.0329 147.183C54.3616 147.07 53.1529 146.264 52.419 143.065C52.048 141.452 51.2693 140.302 49.7187 139.525C47.8758 138.603 46.8271 137.014 46.0031 135.223C45.51 134.152 44.6214 133.274 43.7596 132.107C44.0262 128.963 44.3239 125.455 44.6457 121.664C46.4884 119.126 49.4568 117.33 52.6674 116.621C58.9542 115.23 64.8931 112.644 71.0121 110.707C72.6011 110.205 74.2031 109.69 75.8167 109.369C80.2665 108.484 84.5126 107.301 88.5529 104.738C91.3493 102.965 94.6086 102.474 97.3834 105.093ZM77.2591 129.548C76.6815 129.421 76.1027 129.294 75.3613 129.131C74.7288 130.258 74.1536 131.283 73.5783 132.307C73.8044 132.441 74.0291 132.573 74.2552 132.707C75.2325 131.635 76.2099 130.564 77.1872 129.492C79.6142 129.168 80.4102 127.169 81.3512 125.625C84.7215 120.092 87.8786 114.468 91.2258 108.69C90.7218 108.853 90.3487 108.872 90.1544 109.054C87.4663 111.555 85.0847 114.23 83.7061 117.508C82.9378 119.335 82.1458 121.169 81.1874 122.935C79.9711 125.174 78.5765 127.347 77.2591 129.548ZM47.0324 128.276C48.1933 127.987 49.3283 127.674 50.4707 127.425C55.4272 126.34 60.4379 125.523 65.3256 124.106C68.2344 123.263 70.9812 121.544 73.7349 120.093C74.4551 119.713 74.931 118.861 75.7571 117.969C75.0005 118.067 74.7724 118.048 74.5808 118.128C67.9767 120.874 61.3269 122.428 54.4043 121.959C50.7717 121.712 48.0883 124.251 47.0324 128.276ZM62.8104 147.515C65.7172 145.935 67.6311 143.8 68.9587 141.386C70.0106 139.474 70.5623 137.359 71.2153 135.316C71.8474 133.337 72.3262 131.334 72.9028 129.229C67.0303 131.899 61.2072 142.354 62.8104 147.515ZM52.5401 138.429C53.724 136.102 54.5131 133.518 56.1967 131.533C57.8113 129.627 60.3519 128.341 62.4855 126.783C60.5336 126.885 58.7287 127.4 56.909 127.771C54.9754 128.166 53.0242 128.384 51.0885 128.765C50.1309 128.953 49.0797 129.169 48.2788 129.682C47.6378 130.092 46.992 130.974 46.9041 131.641C46.5845 134.039 49.8945 137.849 52.5401 138.429ZM72.8853 123.384C72.3937 123.452 72.0582 123.41 71.8219 123.545C67.5421 125.967 63.1771 128.264 59.0386 130.902C56.2288 132.693 55.13 135.4 55.1725 138.504C59.4671 135.35 63.6001 132.39 67.6406 129.319C69.7529 127.712 71.6866 125.903 72.8853 123.384ZM65.8123 132.824C65.6591 132.69 65.5061 132.557 65.3529 132.423C62.3951 134.884 59.4097 137.318 56.4913 139.818C55.042 141.06 54.4426 142.653 54.8331 144.241C55.1421 145.503 57.0753 145.886 59.5215 145.423C59.6175 145.404 59.7084 145.313 59.5572 145.406C61.7079 141.08 63.7607 136.951 65.8123 132.824ZM83.2423 109.343C81.6089 110.212 80.4997 110.827 79.3693 111.399C75.1011 113.562 70.8968 115.905 66.0405 116.085C64.9841 116.123 63.884 116.589 62.4635 116.943C67.6502 120.095 77.8222 116.862 83.2423 109.343ZM87.0395 109.662C80.0939 113.743 77.8119 120.405 74.1086 126.446C76.7686 125.609 78.5584 124.496 79.4911 122.836C80.4279 121.169 81.1006 119.403 81.9817 117.713C82.8524 116.044 83.7905 114.394 84.7905 112.776C85.4568 111.7 86.284 110.697 87.0395 109.662ZM56.8935 116.962C52.4882 117.862 51.5416 118.249 48.8884 120.553C54.0125 120.378 58.6446 121 64.0001 120.038C61.4234 118.922 59.3586 118.028 56.8935 116.962ZM66.389 113.435C70.2424 114.282 73.5695 112.876 76.7735 110.98C76.7224 110.763 76.67 110.545 76.6189 110.328C73.2082 111.364 69.7987 112.4 66.389 113.435ZM48.1745 122.746C48.0584 122.596 47.9435 122.446 47.8272 122.295C47.3581 122.722 46.89 123.147 46.4207 123.573C47.0218 123.772 47.3326 123.671 47.5618 123.483C47.8062 123.281 47.9734 122.996 48.1745 122.746Z" fill="#FEC94E"/>
<path opacity="0.44" d="M162.812 77.4283C161.461 77.9375 160.398 78.0757 159.744 78.6306C157.083 80.8899 153.956 81.8799 150.736 82.7935C147.029 83.846 143.348 85.0293 139.655 86.1481C135.95 87.2709 132.244 88.381 128.537 89.502C126.105 90.2371 123.676 90.9804 121.245 91.7219C119.572 92.2312 117.961 92.9237 116.224 92.2733C115.579 92.0319 114.536 92.5075 113.112 92.7536C114.781 90.8698 116.05 89.4211 117.339 87.9885C119.746 85.3118 122.184 82.6564 124.562 79.9594C124.971 79.4954 125.457 78.782 125.375 78.3263C124.99 76.1877 126.547 74.5711 127.811 73.0572C132.625 67.2889 137.454 61.5124 143.296 56.5179C145.005 55.056 146.559 54.8418 148.567 56.0713C152.306 58.3582 155.531 61.1471 158.031 64.6084C160.279 67.7237 161.667 71.2535 162.668 74.9563C162.883 75.7509 162.775 76.6546 162.812 77.4283ZM122.243 85.0887C127.797 82.2321 132.112 78.7551 135.948 74.7682C139.366 71.2166 142.374 67.2897 147.637 65.9052C148.403 65.7034 149.047 64.7979 149.747 64.2184C149.636 63.9934 149.527 63.7681 149.417 63.5432C148.424 63.7902 147.4 63.9366 146.446 64.3005C139.967 66.7708 134.716 71.0025 129.964 75.7176C127.216 78.4449 125.039 81.6531 122.243 85.0887ZM155.204 68.7316C150.09 70.7354 145.111 72.5799 140.215 74.6481C137.706 75.7078 135.391 77.2212 133.073 79.6541C136.003 79.2955 138.237 78.6695 140.391 77.4644C144.766 75.0155 149.048 72.3569 153.936 71.0359C155.048 70.7357 155.67 70.057 155.204 68.7316ZM152.1 63.5427C150.719 66.3925 148.047 66.9038 145.687 68.0084C143.314 69.1187 141.033 70.5159 139.696 73.5018C143.184 72.0265 146.217 70.7675 149.232 69.4633C152.609 68.0024 152.937 67.3593 152.1 63.5427ZM122.972 89.2966C130.524 88.2113 137.719 85.554 144.868 82.6911C137.055 82.6277 129.99 85.8639 122.972 89.2966ZM131.199 71.6434C136.384 68.5353 140.925 64.828 144.119 59.8794C144.335 59.5455 144.161 59.0297 144.172 58.3394C138.237 61.8123 135.244 67.1439 131.199 71.6434ZM122.793 87.2028C128.407 84.8752 134.436 83.5545 140.198 79.5588C133.317 80.7947 127.398 82.346 122.793 87.2028ZM154.351 75.6263C149.5 76.0723 145.531 78.6672 141.536 81.1988C146.242 80.4733 150.946 79.7516 154.351 75.6263ZM157.238 71.5324C154.533 72.4684 151.358 72.2024 149.013 75.2301C152.317 74.3998 155.32 74.2877 157.238 71.5324ZM143.108 64.1219C145.433 63.2427 147.436 62.4861 149.597 61.6689C149.4 61.0205 149.22 60.4265 149.028 59.7966C146.05 59.9988 144.528 61.7186 143.108 64.1219ZM151.989 81.1062C154.744 80.4779 157 79.4922 158.654 77.1139C154.924 76.2387 153.919 79.1862 151.989 81.1062ZM159.777 72.9931C159.018 73.8142 158.593 74.2424 158.224 74.7051C158.155 74.7921 158.315 75.018 158.37 75.1793C160.097 74.9265 160.097 74.9265 159.777 72.9931ZM154.397 66.6325C155.85 65.4757 155.85 65.4757 154.633 63.9829C154.54 65.0224 154.479 65.7064 154.397 66.6325Z" fill="#FEC94E"/>
<path d="M95.2918 175.678C95.4466 176.091 95.6001 176.504 95.8085 177.063C94.9496 177.562 93.891 178.062 93.6072 176.962C93.3181 175.843 94.7078 176.046 95.4179 175.747L95.2918 175.678Z" fill="#BB9F87" fill-opacity="0.5"/>
<path d="M23.6938 86.6939C23.3111 87.3059 22.9271 87.9182 22.5455 88.5298C22.1758 88.371 21.9004 88.3404 21.8676 88.2248C21.5945 87.2341 22.0771 86.6419 23.6938 86.6939Z" fill="#BB9F87" fill-opacity="0.5"/>
<path d="M26.5085 127.656C25.7305 128.054 24.9524 128.452 23.8442 129.02C24.599 127.255 24.599 127.255 26.536 127.69C26.5511 127.701 26.5085 127.656 26.5085 127.656Z" fill="#BB9F87" fill-opacity="0.5"/>
<path d="M24.7511 76.8649C25.3004 76.9639 25.8587 77.0407 26.3818 77.1941C26.4311 77.2085 26.2594 77.6977 26.1897 77.9666C25.6202 77.857 25.0518 77.7472 24.4821 77.6365C24.571 77.3795 24.661 77.1222 24.7511 76.8649Z" fill="#BB9F87" fill-opacity="0.5"/>
<path d="M54.5123 165.904C55.6285 165.236 56.1826 165.797 56.9704 167.128C55.7272 166.947 54.9882 166.838 54.2493 166.73C54.3367 166.455 54.4251 166.18 54.5123 165.904Z" fill="#BB9F87" fill-opacity="0.5"/>
<path d="M22.6788 96.9178C22.3628 97.3619 22.1953 97.7602 22.0488 97.7712C21.6998 97.7972 21.3607 97.6413 21.0182 97.5583C21.1431 97.3301 21.239 96.9474 21.3978 96.9045C21.734 96.8119 22.1028 96.8973 22.6788 96.9178Z" fill="#BB9F87" fill-opacity="0.5"/>
</svg>
