<svg width="113" height="372" viewBox="0 0 113 372" fill="none" xmlns="http://www.w3.org/2000/svg">
<g opacity="0.48">
<path opacity="0.44" d="M67.1289 141.838C70.7869 153.008 72.0391 164.584 73.7676 176.014C74.5249 181.025 73.7658 186.293 73.1565 191.294C71.6173 203.927 68.7944 216.101 65.7168 228.168C65.0645 230.721 64.7169 233.412 64.2619 236.053C62.8703 244.131 61.5549 252.238 60.0987 260.293C58.2066 270.746 53.4978 279.284 48.2741 287.566C41.3349 298.565 32.7073 307.664 24.3998 317.082C21.0841 320.841 16.5052 323.149 12.3558 325.84C5.37641 330.361 -1.85354 334.414 -9.89048 336.316C-17.9805 338.229 -26.0693 340.515 -34.3648 341.169C-50.8609 342.471 -67.0117 338.331 -82.3984 328.639C-89.2518 324.321 -96.2242 320.182 -102.747 315.19C-108.528 310.766 -113.806 305.337 -119.225 300.228C-122.717 296.934 -126.293 293.678 -129.431 289.948C-138.603 279.047 -147.573 267.919 -156.624 256.882C-160.962 251.589 -165.145 246.152 -167.851 239.527C-170.711 232.529 -172.779 225.302 -173.842 217.798C-175.259 207.778 -176.681 197.756 -178.231 187.747C-179.154 181.783 -178.418 176.115 -177.55 170.518C-175.811 159.287 -173.963 148.161 -173.823 136.447C-173.744 129.818 -171.829 123.399 -170.543 116.962C-168.575 107.103 -163.373 99.5008 -158.439 91.8162C-146.894 73.8257 -132.047 60.1926 -115.498 48.7023C-107.745 43.3198 -99.356 39.4622 -91.0858 35.3391C-81.9781 30.7983 -71.8903 29.9722 -61.693 30.7296C-51.4443 31.4908 -41.1626 32.5282 -30.9253 34.2245C-26.484 34.9609 -22.0415 37.3885 -17.7433 39.5301C-14.227 41.2809 -10.9476 43.8156 -7.51725 45.8863C-2.2765 49.0509 3.16887 51.75 8.21934 55.3156C14.3863 59.6682 20.4179 64.4107 26.1759 69.5271C35.8326 78.106 42.1406 90.0538 49.1193 101.253C54.3332 109.621 58.8293 118.487 62.386 127.859C64.1269 132.449 65.558 137.173 67.1289 141.838ZM2.94866 237.66C3.98178 238.97 5.01432 240.279 6.04744 241.59C6.22384 241.362 6.3996 241.133 6.57538 240.903C5.34773 239.858 4.12179 238.812 2.89413 237.766C3.60541 234.759 1.63245 232.643 0.477033 229.778C-0.14178 230.707 -0.574622 231.354 -0.939667 231.901C0.491132 234.022 1.71901 235.841 2.94866 237.66ZM-9.03267 222.523C-8.02431 223.869 -7.01424 225.214 -5.56976 227.14C-5.25331 225.692 -4.8189 224.896 -4.97993 224.229C-5.72924 221.115 -7.79995 223.667 -9.07715 222.624C-15.4887 215.419 -22.6032 209.582 -30.5301 204.983C-33.9093 203.023 -37.066 199.96 -39.7814 196.771C-42.3012 193.811 -44.6723 191.837 -48.1047 192.435C-47.6775 198.718 -43.8975 204.592 -38.797 206.946C-35.8758 208.297 -32.8763 209.395 -30.0173 210.926C-22.9899 214.692 -16.0235 218.642 -9.03267 222.523ZM-3.62772 200.493L-3.50837 200.552C-6.08157 200.505 -8.66284 200.362 -11.2223 200.444C-13.1972 200.505 -15.2354 201.517 -16.6806 198.513C-16.8073 198.247 -17.7573 198.456 -19.2219 198.422C-15.4153 202.438 -12.3743 205.764 -9.22362 208.94C-6.04948 212.137 -2.65714 215.044 0.430796 218.345C2.63543 220.701 4.81651 223.284 6.42302 226.17C7.96875 228.946 8.92177 232.19 9.85033 235.315C11.4304 240.63 13.1116 245.967 14.114 251.386C14.7147 254.636 14.2034 258.076 14.0081 261.397C13.8709 263.73 13.2438 265.974 13.1693 268.31C13.1076 270.233 12.9247 271.796 11.1911 272.367C10.138 269.582 9.68505 266.798 9.66722 263.799C9.61609 255.111 7.78821 246.979 1.51565 240.572C0.652655 239.692 0.00663411 238.516 -0.760927 237.496C-6.17924 230.3 -12.1387 224.161 -19.6795 220.029C-28.5483 215.169 -38.0765 212.232 -46.8245 204.761C-45.8412 208.177 -45.0642 210.877 -44.2866 213.578C-44.4294 213.626 -44.5711 213.672 -44.714 213.72C-45.0664 213.087 -45.4189 212.454 -46.1158 211.202C-46.0269 213.138 -46.3647 214.727 -45.8308 215.789C-43.8498 219.741 -44.8112 223.519 -45.3797 227.096C-46.9882 237.231 -48.9361 247.26 -50.8999 257.276C-51.8971 262.362 -53.2045 267.304 -56.1905 271.254C-58.3691 274.137 -60.2907 277.288 -62.444 280.199C-64.6609 283.198 -66.3376 286.414 -65.6061 290.858C-66.5792 291.396 -67.38 291.84 -68.2158 292.303C-67.6597 292.885 -67.1904 293.372 -67.0294 293.542C-68.0955 295.726 -68.9906 297.557 -69.8382 299.291C-69.0006 300.265 -68.4329 300.927 -67.7523 301.718C-68.7071 302.481 -69.5706 302.929 -70.1487 303.684C-71.5591 305.519 -68.3429 305.978 -68.9113 306.873C-70.7023 309.699 -67.5872 310.331 -66.8762 311.934C-68.6672 312.877 -70.23 313.699 -72.1173 314.691C-69.8353 315.514 -68.1657 316.119 -66.4985 316.722C-66.4873 317.083 -66.4773 317.448 -66.4661 317.809C-68.0358 317.968 -69.6067 318.13 -71.7778 318.35C-69.7185 319.435 -68.2659 320.2 -66.8128 320.967C-66.8116 321.28 -66.8128 321.592 -66.8134 321.906C-67.9955 322.383 -69.177 322.863 -70.9671 323.587C-68.9195 324.631 -67.5866 325.31 -65.557 326.345C-66.986 327.107 -67.7531 327.514 -68.6171 327.974C-67.2127 328.887 -66.0607 329.636 -64.6852 330.53C-65.5269 331.384 -65.9688 331.831 -66.7601 332.638C-64.8657 333.338 -63.2913 333.921 -61.3123 334.653C-59.3982 331.402 -57.3427 328.394 -55.7381 325.055C-54.1465 321.746 -53.0101 318.105 -51.6752 314.609C-50.7363 319.068 -52.4463 322.242 -53.9078 325.493C-55.351 328.706 -56.9446 331.813 -58.5365 335.102C-53.4381 336.857 -52.0691 336.25 -50.0411 331.922C-47.2503 325.97 -45.7467 319.498 -45.4553 312.478C-45.3025 308.774 -44.9278 305.108 -44.6523 301.427C-44.3633 301.483 -44.0749 301.538 -43.7877 301.594C-43.7576 305.564 -43.5397 309.568 -43.7483 313.494C-43.9686 317.643 -44.3128 321.825 -45.123 325.792C-45.8727 329.473 -47.3098 332.888 -48.5644 336.791C-44.2445 337.079 -40.3908 337.387 -36.5439 337.551C-35.6507 337.589 -34.5609 337.45 -33.9382 336.864C-28.4862 331.741 -25.2102 325.136 -24.9331 316.419C-24.831 313.224 -24.2533 310.102 -23.821 306.966C-23.7171 306.211 -23.3336 305.541 -23.0776 304.831C-22.7147 311.758 -22.8412 318.477 -23.6515 325.005C-24.0446 328.184 -25.6771 331.028 -26.8297 333.974C-27.1562 334.809 -27.7705 335.465 -28.3579 336.361C-24.1274 336.917 -22.2949 334.323 -21.1017 330.745C-20.762 329.727 -20.321 328.752 -20.0755 327.696C-18.3553 320.263 -16.6214 312.89 -16.1051 304.971C-15.5763 296.846 -15.7905 288.916 -18.1466 280.878C-18.4126 279.974 -18.3433 278.971 -18.4294 278.013C-18.1158 277.96 -17.8022 277.907 -17.4904 277.855C-16.9578 279.281 -16.1807 280.677 -15.9345 282.138C-14.9282 288.094 -13.8064 294.008 -14.1984 300.061C-14.8223 309.67 -15.4898 319.215 -18.4097 328.093C-19.0092 329.915 -19.3525 331.876 -19.9377 334.272C-16.9499 333.831 -14.4971 333.641 -12.1577 333.03C-11.2861 332.805 -10.6006 331.678 -9.97462 330.815C-9.48068 330.131 -9.32202 329.102 -8.81778 328.434C-6.34373 325.159 -5.52386 321.071 -5.19943 316.699C-5.07611 315.037 -4.84816 313.396 -4.66741 311.745C-3.40698 318.047 -5.09673 323.664 -6.2921 330.394C-4.20343 329.793 -2.70966 329.618 -1.4392 328.95C3.16725 326.53 7.57562 323.63 12.301 321.529C15.5961 320.064 16.0645 317.081 16.1197 313.663C16.1506 311.76 15.6045 309.789 15.4223 307.845C15.3053 306.599 15.3788 305.348 15.3669 304.097L15.2913 304.056C16.2435 308.339 17.1938 312.622 18.164 316.988C22.1299 316.281 22.5699 311.128 25.4962 309.747C25.0187 308.088 24.4131 306.763 24.2893 305.433C23.2075 293.809 18.3832 284.146 11.1743 275.676C10.1101 274.426 9.16047 273.042 8.15828 271.718C8.32746 271.486 8.49613 271.251 8.66353 271.019C9.51844 271.429 10.3716 271.838 11.2277 272.245C15.1638 277.256 19.104 282.328 21.4504 288.531C23.7637 294.646 25.6679 300.932 27.7621 307.18C33.171 303.931 33.958 298.599 32.2549 292.091C31.5106 289.249 30.6394 286.437 29.8266 283.613C30.0707 283.541 30.3167 283.467 30.5608 283.395C32.0568 288.592 33.5527 293.79 35.0653 299.045C37.6493 297.53 37.9107 295.131 37.196 292.386C36.661 290.332 36.0726 288.24 35.1962 286.332C33.3897 282.395 31.3778 278.57 29.4496 274.701C34.3028 279.941 36.4401 286.889 39.3776 294.016C42.6314 289.276 45.5658 284.999 48.1328 281.26C48.2162 276.287 43.8159 276.217 42.5066 272.865C44.1758 272.05 45.5246 272.83 46.6491 273.713C47.8893 274.687 48.9071 276.086 50.038 277.319C52.8842 272.924 52.9591 272.324 50.1316 268.342C47.9125 265.216 45.4649 262.305 43.1191 259.297C43.2375 259.063 43.3553 258.827 43.4761 258.594C46.8401 262.418 50.2018 266.239 53.9426 270.491C54.9079 267.069 55.7386 264.128 56.5508 261.242C51.1734 252.824 44.4611 246.583 37.2542 241.273C30.0131 235.937 22.1802 232.189 13.7806 230.747C15.9142 228.783 18.2429 229.44 20.4798 230.295C32.7218 234.983 43.9093 241.95 52.9842 253.462C54.0287 254.786 55.376 255.79 56.7743 257.126C58.6421 252.154 53.3546 250.85 53.012 246.978C54.7561 248.574 56.2791 249.967 58.125 251.655C59.4551 244.082 62.5415 237.194 57.1438 229.781C57.0633 229.669 57.2461 229.303 57.3743 228.773C58.5445 230.116 59.6156 231.344 60.9669 232.893C61.6137 229.884 62.1621 227.332 62.619 225.209C59.0907 220.627 55.9058 216.492 52.7209 212.357C52.8093 212.173 52.8977 211.99 52.9862 211.807C56.3472 215.122 59.7093 218.434 63.0896 221.77C64.6145 219.667 64.0714 217.881 62.6399 216.006C60.8172 213.619 59.0904 211.135 57.3215 208.693C57.496 208.519 57.6705 208.346 57.845 208.173C60.0122 210.546 62.177 212.919 64.8137 215.808C65.8455 210.782 66.6843 206.356 67.6771 201.994C68.1689 199.838 67.5547 198.242 66.0725 196.809C63.7404 194.555 61.4161 192.287 59.0869 190.022C59.2105 189.773 59.3359 189.523 59.4601 189.276C62.3846 191.532 65.311 193.787 68.4767 196.229C68.7597 195.088 68.8827 194.332 69.1282 193.646C70.4753 189.87 70.0233 186.686 66.4914 184.176C65.5858 183.53 64.9852 182.23 64.2459 181.227C66.1778 182.219 68.1096 183.21 70.1002 184.231C72.3122 179.4 67.4759 179.194 65.603 176.431C67.4832 176.893 68.7476 177.206 70.0352 177.525C70.2966 168.855 69.6332 168.748 63.8705 165.652C61.8086 164.545 59.5371 164.067 57.3518 163.365C54.994 162.607 52.625 161.925 50.2598 161.209C50.3049 160.862 50.3482 160.514 50.3938 160.169C56.2975 161.765 62.2028 163.36 68.5782 165.083C68.106 162.461 67.7391 160.426 67.2932 157.949C61.4499 157.538 55.821 157.138 49.9029 156.723C55.3767 154.264 61.257 156.29 67.0873 155.46C66.4134 152.675 65.8153 150.2 65.1568 147.469C61.5602 148.504 58.332 149.468 55.0827 150.359C51.8043 151.256 48.5404 152.237 45.2053 152.89C41.7211 153.57 38.1801 154.053 34.6241 154.342C31.2078 154.619 27.7356 154.493 24.2958 154.621C18.142 154.852 15.849 154.629 14.462 153.346C23.1215 152.854 31.5774 152.488 39.9974 151.863C48.5672 151.228 56.3567 147.936 64.2468 144.603C63.4278 141.757 62.7385 139.362 62.0523 136.978C58.1936 138.716 54.8533 140.695 51.2416 141.719C47.5781 142.757 44.3594 145.791 39.2248 144.427C44.5447 142.361 49.1667 140.761 53.6248 138.753C55.8274 137.761 57.8253 136.159 59.7282 134.55C60.9374 133.528 61.1325 131.947 59.5992 130.485C52.9691 135.689 40.387 142.045 35.0245 142.585C36.9245 141.422 38.1544 140.58 39.4527 139.888C44.0565 137.438 48.7419 135.158 53.2805 132.576C55.5234 131.301 57.6693 129.688 58.7445 126.769C58.0574 125.606 57.4243 124.528 56.6917 123.287C51.5047 126.204 47.169 130.533 41.2296 131.072C46.1058 127.76 51.6033 125.525 55.5495 120.434C54.5939 117.484 53.7463 114.768 51.769 112.644C46.6603 117.943 46.6603 117.943 44.7513 116.91C46.3362 115.023 47.9218 113.212 49.4278 111.312C50.6328 109.792 50.0426 108.581 48.5979 107.508C43.8164 114.556 31.6395 125.232 27.2129 126.025C28.1816 125.089 28.8485 124.381 29.5693 123.753C33.3855 120.435 37.2857 117.235 41.0135 113.792C42.7575 112.182 44.3693 110.293 45.7034 108.22C47.2788 105.775 47.4408 103.024 44.9791 100.46C35.5087 112.99 33.6902 114.684 25.5341 118.31C26.7112 117.116 27.9694 116.036 29.2998 115.079C33.9755 111.716 37.9629 107.508 41.1844 102.326C43.8412 98.0529 43.6978 96.923 39.6669 92.4296C36.751 97.9674 33.8885 103.529 29.8571 108.384C29.6594 107.698 29.5366 107.48 29.5813 107.4C31.5211 103.902 33.4663 100.409 35.4314 96.932C38.8172 90.943 38.5095 88.9193 32.9965 82.94C32.4875 84.8688 32.0584 86.6445 31.553 88.384C29.5557 95.2515 27.0923 101.844 23.2729 107.449C19.659 112.753 15.7637 117.785 11.987 122.934C11.299 123.871 10.7076 124.983 9.84426 125.633C9.33255 126.02 8.3755 125.665 6.81581 125.624C10.828 120.312 14.0421 115.609 17.6572 111.371C22.8793 105.248 26.6765 98.1204 29.0769 89.8101C31.8704 80.1364 32.6274 79.7349 23.7545 72.1248C23.6569 72.0413 23.4871 72.0833 23.3508 72.0667C22.9225 82.3958 21.6134 88.4076 18.9955 91.3779C20.6229 84.9259 22.0559 78.753 21.4915 71.9118C21.2598 69.104 20.3444 68.2962 18.3631 67.8185C17.4301 73.4362 16.8694 78.8422 15.6144 83.9462C13.0422 94.4089 12.1318 96.2 9.98256 97.9014C11.3296 93.2985 12.9717 88.8337 13.9288 84.106C14.9492 79.0673 15.4425 73.8108 15.895 68.587C16.0156 67.1975 15.5015 65.1356 14.6394 64.1638C13.1544 62.4929 11.1639 61.4392 9.14611 59.9472C9.79036 72.9071 8.82807 79.9089 5.98238 83.8557C9.22702 67.5016 8.59038 61.922 4.28854 57.1394C4.0967 58.8793 3.90591 60.4144 3.75997 61.9576C3.16712 68.307 2.87023 74.7501 1.94796 80.9968C-0.366623 96.6835 -6.52774 110.366 -12.1321 124.316C-12.7459 125.84 -13.7361 125.579 -14.76 123.977C-4.0856 103.363 2.11118 80.7639 1.90917 55.2379C1.21974 54.8996 0.501552 54.5486 -0.448843 54.0832C-0.870997 58.6663 -1.25127 62.8167 -1.63395 66.9654C-2.40047 62.9848 -2.46623 59.1533 -2.32147 55.3542C-2.21508 52.5444 -3.24815 51.4359 -6.08504 51.5413C-4.18481 63.9445 -6.4099 75.1625 -10.3499 85.854C-10.2338 82.9972 -9.81594 80.2209 -9.10417 77.5785C-7.00635 69.7898 -6.50007 61.755 -7.81478 53.3289C-8.52016 48.8078 -8.78715 48.3641 -13.2533 47.2654C-13.4581 51.6627 -13.6617 56.0574 -13.8653 60.4521C-14.1571 60.4129 -14.45 60.3764 -14.7418 60.3372C-14.796 58.5357 -14.8478 56.7357 -14.9191 54.3303C-21.0987 58.9346 -26.5701 63.902 -31.8738 69.3045C-31.8402 67.875 -31.5421 66.6924 -30.8648 66.0141C-28.4667 63.6113 -25.9414 61.3741 -23.4555 59.0878C-21.7973 57.5625 -19.4936 56.4788 -18.6237 54.4392C-17.7177 52.3171 -16.5989 51.2097 -14.7013 50.8657C-14.7768 49.8975 -14.8426 49.2589 -14.8768 48.6227C-15.1479 43.6071 -18.892 40.7623 -22.2552 44.8604C-24.9053 48.0886 -28.6911 49.959 -30.4709 54.8329C-32.2347 51.7295 -30.8552 50.4053 -29.7932 49.2352C-28.2631 47.547 -26.4448 46.215 -24.864 44.5818C-24.0917 43.7833 -23.5799 42.6507 -22.9515 41.6682C-23.2141 41.3673 -23.4751 41.066 -23.7377 40.7651C-28.096 41.09 -29.9154 45.6919 -33.2201 49.2874C-33.2259 43.668 -29.3791 42.5538 -27.508 39.6172C-31.2943 38.2322 -31.2552 38.2674 -33.0702 41.1368C-33.4267 41.6995 -34.2219 41.861 -35.4032 42.5495C-34.9319 40.4225 -34.6445 39.1221 -34.2843 37.4964C-37.9895 36.9851 -41.3586 36.5187 -44.9932 36.0172C-44.291 40.581 -43.6849 44.5219 -43.0794 48.4606C-43.2857 48.4968 -43.4902 48.5324 -43.6965 48.5685C-44.6689 44.3497 -45.6437 40.1292 -46.6511 35.7555C-49.2512 35.6417 -51.4026 35.5476 -53.6454 35.4518C-51.7187 42.9862 -49.9154 50.0448 -48.1103 57.1028C-49.3943 55.2835 -49.9307 53.2652 -50.5564 51.2796C-51.9788 46.7743 -53.4227 42.2752 -54.9035 37.7891C-55.6907 35.4038 -56.9655 34.1209 -59.2475 35.361C-59.0389 36.4419 -58.8403 37.5489 -58.6118 38.6519C-57.1524 45.712 -55.2657 52.7442 -54.3244 59.8395C-52.9095 70.5025 -52.1423 81.2077 -51.1374 91.8981C-50.9394 94.0045 -50.8852 96.1151 -50.8215 98.2183C-50.773 99.8054 -51.4326 100.149 -52.7428 99.2802C-53.0021 92.3698 -53.1088 85.4386 -53.5583 78.4992C-54.4452 64.8377 -56.2263 51.2756 -60.7227 38.0535C-61.5294 35.6808 -62.441 34.2678 -64.6541 34.4702C-65.4572 34.5434 -66.2694 34.5448 -67.4484 34.596C-66.0346 39.508 -64.6918 44.1733 -63.3484 48.8407C-63.4943 48.892 -63.6413 48.9459 -63.7871 48.9972C-65.6902 44.3747 -67.5934 39.7522 -69.5503 34.9965C-70.4975 35.1204 -71.258 35.2207 -72.3543 35.3643C-71.5508 38.1562 -70.8343 40.6455 -70.1178 43.1348L-70.0719 43.0588C-71.6363 40.5743 -73.2026 38.0902 -74.8938 35.4074C-76.1318 35.8451 -77.2323 36.2362 -78.2994 36.6154C-78.0449 38.6358 -77.8363 40.2883 -77.627 41.943C-77.8412 42.0255 -78.0578 42.1065 -78.272 42.189C-79.1197 40.595 -79.9674 39.0009 -80.919 37.2136C-82.2323 37.5916 -83.4651 37.9465 -84.9338 38.3692C-82.6638 45.2075 -79.1424 51.2511 -78.1809 58.2081C-80.7786 51.3874 -83.1962 44.487 -87.4553 38.5489C-88.3937 38.9653 -89.1049 39.2839 -89.9178 39.6457C-88.9351 43.9406 -85.5406 46.8883 -85.3259 51.2509C-87.0751 48.5546 -88.4989 45.6577 -90.1333 42.9168C-91.8114 40.0978 -92.6824 40.137 -94.6174 42.5157C-89.8169 53.064 -85.0584 63.5198 -80.3 73.9756C-80.5766 74.2109 -80.8539 74.4441 -81.1305 74.6794C-81.7197 74.0171 -82.5295 73.4625 -82.8625 72.6753C-84.3252 69.2133 -85.581 65.65 -87.0401 62.1871C-89.8801 55.4524 -92.6971 48.6832 -97.5272 42.8583C-98.9812 43.7555 -100.32 44.5823 -101.626 45.3881C-99.5406 50.1673 -96.2734 53.6675 -95.2557 58.5007C-98.0587 54.2743 -100.862 50.0457 -103.807 45.6022C-105.232 46.8163 -106.226 47.6647 -107.299 48.5801C-103.111 54.4111 -98.847 59.6552 -96.2394 66.1942C-98.2378 63.7276 -99.91 60.9836 -101.773 58.4223C-103.743 55.7176 -105.83 53.1116 -107.992 50.6084C-109.49 48.8716 -110.434 49.9008 -111.169 51.4019C-93.926 75.0254 -90.0121 81.5184 -89.5147 88.0931C-95.721 74.7241 -103.642 62.8803 -113.52 52.246C-114.573 52.951 -115.622 53.655 -117.171 54.6933C-112.2 59.4552 -107.804 63.7833 -104.676 69.4449C-108.12 66.0956 -111.41 62.5694 -114.777 59.1514C-118.736 55.132 -119.16 55.1844 -122.869 59.5261C-117.013 63.9682 -111.594 69.008 -106.832 74.992C-106.954 75.2339 -107.079 75.4742 -107.201 75.7161C-108.017 75.0239 -108.859 74.3693 -109.647 73.6294C-113.488 70.0156 -117.286 66.3333 -121.155 62.7647C-123.695 60.4214 -124.208 60.4807 -127.226 62.9994C-116.171 69.4122 -107.288 78.7132 -99.1547 89.2178C-90.3022 100.649 -80.1358 118.595 -79.556 125.355C-80.7726 122.903 -81.5862 121.373 -82.3035 119.795C-91.0569 100.534 -102.947 84.3187 -118.174 71.434C-121.793 68.3719 -125.708 65.8016 -130.058 64.723C-131.56 66.1987 -132.945 67.5592 -134.651 69.2353C-126.574 74.9808 -119.066 80.6787 -112.592 88.094C-112.67 88.2465 -112.75 88.3975 -112.828 88.5501C-116.905 85.1084 -120.965 81.6413 -125.061 78.2332C-127.472 76.2271 -129.97 74.4014 -133.83 72.8193C-131.598 78.2487 -129.849 82.5625 -128.053 86.8533C-126.81 89.8208 -125.504 92.7585 -124.227 95.7114L-124.22 95.7024C-126.915 91.2126 -129.611 86.7232 -132.272 82.2909C-132.481 82.5345 -132.917 83.0482 -133.334 83.5375C-130.435 90.5178 -126.147 96.7172 -124.459 104.2C-125.008 104.034 -125.342 103.74 -125.523 103.362C-128.724 96.5877 -131.77 89.7148 -135.17 83.0646C-136.378 80.7028 -138.444 78.8713 -140.116 76.7967C-137.147 85.044 -131.879 91.9535 -129.644 100.389C-129.957 100.567 -130.269 100.746 -130.582 100.922C-132.287 97.081 -133.992 93.2426 -135.698 89.4046C-135.998 92.9533 -133.233 95.6361 -133.627 99.1885C-134.724 98.0124 -135.543 96.7074 -136.203 95.3128C-137.944 91.6429 -139.559 87.8969 -141.357 84.2621C-141.825 83.3162 -142.792 82.6672 -143.528 81.8824C-143.813 82.1433 -144.098 82.4041 -144.381 82.6645C-143.176 85.076 -141.995 87.499 -140.764 89.8936C-138.099 95.0729 -138.089 95.0677 -138.946 97.4197C-144.511 85.1372 -144.511 85.1372 -147.29 84.4733C-145.928 88.3661 -141.961 90.6937 -141.568 96.5571C-144.64 92.7821 -145.724 88.2027 -149.654 86.2712C-148.473 89.8353 -145.489 91.8276 -144.959 95.7649C-148.111 94.123 -148.518 89.7807 -151.581 88.2527C-151.575 91.8621 -147.555 92.8311 -147.76 97.2749C-149.767 94.897 -151.219 93.1656 -152.699 91.4653C-152.777 91.3762 -153.086 91.5625 -153.484 91.6772C-153.136 92.2881 -152.826 92.8146 -152.532 93.3505C-152.244 93.8741 -151.972 94.4093 -151.686 94.9521C-152.515 95.4602 -153.317 95.6841 -153.741 96.2824C-154.163 96.8802 -154.207 97.8572 -154.429 98.7204C-155.745 98.2674 -156.763 97.9167 -157.809 97.5555C-159.049 99.6668 -160.151 101.546 -161.648 104.096C-151.674 104.041 -142.511 106.442 -133.525 110.232C-124.44 114.061 -115.693 118.795 -108.681 127.338C-109.914 127.129 -110.954 126.454 -111.931 125.667C-113.36 124.512 -114.699 123.182 -116.156 122.091C-125.838 114.849 -136.338 110.804 -147.217 108.315C-151.619 107.306 -156 106.037 -160.449 106.641C-162.305 106.894 -163.404 107.745 -164.047 110.045C-159.169 110.623 -154.475 111.094 -149.786 111.756C-141.48 112.928 -139.006 113.826 -136.707 116.141C-140.532 115.253 -144.506 114.045 -148.493 113.475C-153.325 112.784 -158.175 112.523 -163.007 112.299C-164.705 112.221 -166.786 112.264 -166.175 115.509C-155.629 115.118 -134.88 120.821 -131.254 125.456C-132.371 125.245 -133.154 125.255 -133.854 124.938C-141.633 121.437 -149.58 119.249 -157.661 118.008C-168.45 116.35 -167.966 117.156 -169.647 128.438C-169.71 128.858 -169.503 129.361 -169.391 130.014C-160.187 128.098 -150.973 129.426 -141.724 132.22C-143.049 132.529 -144.389 132.42 -145.73 132.264C-148.923 131.892 -152.118 131.45 -155.311 131.118C-159.774 130.656 -164.187 130.578 -168.432 131.941C-170.261 132.528 -171.339 133.471 -170.478 136.051C-158.154 136.084 -145.844 136.687 -133.576 140.506C-135.759 141.599 -135.763 141.637 -138.182 140.972C-147.609 138.373 -157.025 138.448 -166.44 137.921C-168.585 137.8 -170.321 139.103 -170.745 141.349C-171.239 143.973 -171.001 146.863 -171.09 150.002C-160.383 146.421 -150.102 144.149 -139.126 146.151C-142.736 146.609 -146.416 146.558 -150.055 146.82C-157.072 147.324 -163.902 148.64 -170.049 152.268C-170.855 152.744 -171.597 153.94 -171.771 154.999C-172.66 160.425 -173.362 165.913 -174.093 171.392C-174.116 171.568 -173.767 171.851 -173.575 172.107C-165.693 167.503 -157.152 164.773 -148.361 162.726C-151.502 164.35 -154.801 165.56 -158.012 166.986C-162.504 168.983 -166.998 170.997 -171.367 173.282C-174.093 174.705 -175.889 177.095 -174.658 181.474C-172.289 182.101 -169.828 182.754 -167.365 183.407C-164.375 184.547 -161.382 185.688 -158.392 186.829C-158.45 187.252 -158.508 187.675 -158.566 188.099C-162.306 188.211 -165.954 185.861 -169.817 185.985C-167.513 187.411 -165.206 188.836 -162.902 190.262C-162.952 190.593 -163.002 190.921 -163.052 191.251C-165.376 190.977 -167.699 190.702 -170.022 190.429C-170.054 190.659 -170.087 190.889 -170.119 191.12C-169.044 192.007 -167.97 192.894 -166.247 194.316C-168.282 194.901 -169.685 195.305 -171.228 195.749C-169.864 198.566 -168.193 198.684 -166.389 198.009C-160.517 195.81 -154.367 194.326 -149.128 190.485C-148.713 190.18 -148.075 190.254 -146.604 189.972C-149.365 193.848 -152.304 195.461 -155.467 196.581C-160.597 198.397 -165.805 199.984 -170.939 201.789C-171.587 202.017 -171.99 202.984 -172.507 203.609C-172.309 203.961 -172.112 204.313 -171.915 204.663C-170.426 204.144 -168.93 203.639 -167.447 203.101C-166.296 202.681 -165.197 202.065 -164.01 201.807C-160.841 201.118 -157.62 200.653 -154.458 199.945C-152.175 199.435 -149.951 198.676 -147.7 198.028C-155.004 203.391 -163.88 204.261 -172.109 207.389C-171.667 208.926 -171.331 210.093 -170.927 211.499C-156.422 207.914 -144.447 199.483 -132.685 190.439C-133.738 193.085 -135.575 194.755 -137.577 196.149C-139.964 197.812 -142.548 199.129 -144.899 200.849C-151.333 205.559 -158.264 209.083 -165.697 211.518C-167.24 212.025 -168.729 212.823 -170.07 213.789C-170.534 214.125 -170.474 215.37 -170.79 216.82C-158.305 213.982 -147.02 210.104 -135.898 203.608C-136.461 204.676 -136.568 205.1 -136.817 205.311C-137.559 205.943 -138.291 206.66 -139.145 207.047C-145.747 210.042 -152.353 213.031 -159.013 215.88C-161.904 217.116 -164.915 218.041 -167.888 219.059C-169.39 219.573 -170.338 220.313 -168.793 222.842C-161.868 220.721 -154.574 219.27 -147.905 216.259C-138.442 211.985 -129.427 206.585 -120.245 201.615C-117.97 200.383 -115.786 198.953 -113.167 197.377C-113.505 200.618 -115.234 201.536 -116.866 202.526C-118.869 203.74 -120.88 204.941 -122.927 206.065C-136.069 213.286 -149.012 221.011 -163.722 224.29C-165.28 224.636 -166.795 225.16 -168.444 225.635C-168.139 227.025 -168.033 227.822 -167.781 228.565C-167.538 229.28 -167.145 229.941 -166.736 230.797C-155.624 228.5 -145.598 223.709 -135.315 219.634C-139.997 222.882 -144.804 225.769 -150.111 227.622C-155.505 229.507 -160.818 231.636 -166.3 233.709C-166.018 234.689 -165.759 235.588 -165.369 236.945C-159.351 235.213 -153.298 233.982 -147.631 231.695C-141.927 229.394 -136.608 226.046 -131.128 223.16C-129.863 226.047 -131.743 226.709 -132.851 227.411C-140.549 232.297 -148.386 236.911 -157.06 239.531C-158.917 240.091 -160.931 240.115 -163.405 240.462C-162.109 242.833 -160.724 245.374 -159.301 247.979C-148.436 243.441 -138.119 239.147 -128.614 232.868C-129.726 234.301 -130.978 235.416 -132.288 236.437C-138.83 241.531 -146.41 244.396 -153.598 248.103C-154.873 248.761 -156.112 249.505 -157.611 250.346C-156.735 251.616 -156.225 252.422 -155.651 253.163C-155.174 253.78 -154.623 254.324 -153.918 255.104C-145.365 252.556 -137.642 248.086 -130.083 243.213C-122.426 238.274 -114.33 234.043 -107.18 228.309C-100.188 222.701 -94.1428 215.587 -87.6823 209.136C-88.0538 210.695 -88.6914 212.103 -89.5884 213.228C-98.3918 224.257 -108.901 232.736 -120.447 239.638C-125.167 242.458 -129.915 245.221 -134.674 247.959C-137.052 249.327 -139.485 250.58 -141.893 251.887C-145.207 253.684 -148.522 255.482 -152.212 257.483C-150.755 259.359 -149.532 260.938 -148.288 262.539C-137.893 258.896 -127.522 255.948 -118.967 248.544C-126.087 257.82 -136.541 260.34 -146.132 264.632C-143.67 268.704 -143.099 268.965 -139.998 267.498C-139.138 267.093 -138.317 266.584 -137.448 266.202C-127.606 261.866 -118.494 256.111 -110.583 248.301C-105.151 242.94 -100.184 236.959 -95.004 231.262C-94.2091 230.387 -93.518 228.829 -92.1398 230.821C-105.143 249.247 -121.381 262.537 -141.371 270.554C-139.821 272.666 -138.626 274.295 -137.262 276.157C-128.73 273.18 -121.037 268.838 -113.629 263.777C-119.337 271.269 -127.88 273.761 -135.36 278.646C-133.875 280.452 -132.687 281.895 -131.187 283.719C-128.487 282.28 -125.798 280.981 -123.229 279.44C-120.515 277.812 -117.91 275.966 -115.265 274.201C-112.905 272.625 -111.646 269.181 -107.747 268.605C-108.559 270.045 -108.921 270.818 -109.385 271.486C-111.951 275.18 -115.642 277.035 -119.192 279.163C-122.528 281.164 -126.139 282.719 -129.189 285.721C-127.556 287.61 -126.234 289.137 -124.758 290.845C-115.617 285.082 -105.417 281.407 -99.4254 270.455C-98.4755 272.935 -99.6546 274.29 -100.685 275.572C-104.229 279.982 -108.216 283.756 -112.961 286.425C-115.479 287.84 -117.972 289.317 -120.412 290.886C-121.126 291.345 -121.619 292.219 -122.983 293.787C-120.978 294.028 -119.919 294.462 -119.056 294.214C-108.298 291.132 -99.021 285.445 -92.6053 274.92C-89.3894 269.644 -86.279 264.278 -83.0776 258.993C-82.7195 258.401 -82.067 258.067 -81.5493 257.614C-81.3216 257.82 -81.0921 258.026 -80.8644 258.232C-81.318 259.453 -81.7944 260.661 -82.2227 261.895C-83.9937 267.008 -87.3133 270.794 -89.9609 275.16C-95.3102 283.98 -102.609 289.778 -111.373 293.448C-113.583 294.375 -115.621 295.756 -118.012 297.081C-116.987 298.338 -116.461 299.163 -115.796 299.768C-112.357 302.894 -108.94 306.063 -105.384 308.98C-104.462 309.737 -103.066 309.645 -101.888 309.942C-100.016 311.901 -97.8243 312.391 -95.6465 312.933C-95.5743 312.545 -95.504 312.157 -95.4336 311.77C-97.5968 311.191 -99.7618 310.613 -101.924 310.036C-102.812 309.346 -103.699 308.658 -104.853 307.761C-104.197 307.405 -103.895 307.102 -103.556 307.076C-100.628 306.863 -97.6933 306.702 -94.7603 306.527C-93.1131 303.094 -90.0981 304.388 -87.4513 304.388C-87.2423 304.388 -87.0476 304.198 -86.921 304.133C-87.4558 303.471 -87.9961 302.804 -89.0912 301.447C-86.6287 301.028 -84.8305 300.722 -82.8879 300.393C-83.5893 299.482 -84.1813 298.716 -85.231 297.354C-83.073 296.886 -81.4507 296.533 -79.7224 296.159C-80.3945 295.316 -80.9095 294.67 -82.0211 293.275C-76.4511 294.142 -76.7049 286.867 -72.2053 286.899C-73.2417 283.231 -72.2089 280.447 -71.1653 277.465C-67.4387 278.158 -66.405 275.458 -65.79 271.814C-64.7719 265.779 -65.0973 259.708 -66.1208 253.517C-66.6779 250.143 -67.0512 246.749 -67.4597 243.36C-68.7718 232.516 -69.6919 221.629 -71.4937 210.845C-72.673 203.784 -71.9923 198.062 -67.895 193.295C-66.8962 192.134 -66.1288 190.7 -65.0224 189.045C-66.2872 188.557 -67.0583 188.102 -67.8406 187.979C-74.5805 186.919 -80.9989 184.2 -87.3734 181.076C-90.5312 179.529 -93.8083 178.374 -97.056 177.166C-101.792 175.406 -106.509 173.32 -111.309 172.185C-116.912 170.861 -122.578 168.123 -128.253 170.662C-130.758 171.783 -133.805 171.503 -136.398 172.463C-138.474 173.23 -140.389 174.325 -142.727 173.947C-144.913 172.655 -147.112 171.475 -149.571 172.564C-147.278 172.996 -144.986 173.426 -142.692 173.859C-142.058 174.564 -141.424 175.269 -140.209 176.618C-141.918 176.57 -142.859 176.753 -143.736 176.483C-146.447 175.648 -149.148 174.715 -151.819 173.669C-153.013 173.202 -153.985 172.952 -154.623 174.351C-155.245 173.393 -155.868 172.434 -156.323 171.731C-154.97 170.849 -154.047 170.216 -153.095 169.638C-152.542 169.302 -151.887 168.672 -151.373 168.831C-148.256 169.788 -146.073 166.859 -143.093 167.182C-141.803 167.322 -140.496 166.815 -139.233 166.47C-135.477 165.44 -131.773 164.205 -127.983 163.316C-124.804 162.571 -121.532 162.189 -118.3 161.663C-113.883 160.945 -109.495 160.042 -105.037 159.579C-97.7134 158.817 -90.3631 158.186 -82.9847 157.807C-78.558 157.579 -74.1215 158.191 -70.198 161.881C-69.5586 162.483 -68.6078 162.606 -67.5429 163.06C-69.0035 160.257 -69.8679 157.597 -71.4463 155.783C-74.8784 151.838 -76.539 146.969 -78.445 142.175L-78.4825 142.253C-78.0196 142.571 -77.3985 142.766 -77.1176 143.224C-72.9318 150.057 -66.3667 154.63 -63.2154 162.446C-63.0411 162.877 -62.6141 163.191 -61.9279 164.009C-62.3439 160.715 -62.3772 158.099 -63.0455 155.649C-64.6439 149.793 -66.2825 143.912 -68.3844 138.236C-70.8179 131.663 -70.4941 125.098 -70.739 118.514C-70.7962 116.957 -70.4135 115.262 -69.7978 113.939C-66.9964 107.916 -66.4508 101.06 -65.7321 94.2607C-65.5655 92.6884 -65.3369 91.0355 -65.5883 89.4697C-67.2511 79.1755 -68.3595 68.7775 -72.2567 58.8871C-73.1319 56.6666 -73.6199 54.2719 -74.2858 51.9585C-74.0123 51.8333 -73.7388 51.7082 -73.4652 51.583C-72.7767 53.088 -71.8783 54.5351 -71.4405 56.11C-70.1683 60.698 -69.0976 65.3394 -67.9136 69.9504C-67.4559 71.7288 -66.9059 73.4852 -66.2993 75.5926C-65.6533 73.8846 -65.1739 72.6126 -64.6927 71.3402C-64.3612 71.4097 -64.0297 71.4793 -63.6964 71.5484C-63.489 72.6924 -63.0068 73.9106 -63.1263 74.9674C-63.4182 77.5495 -63.6085 80.0209 -62.2677 82.535C-62.0068 83.0246 -62.1083 83.7881 -62.1215 84.4146C-62.3299 94.0018 -61.3621 103.622 -57.9173 112.727C-54.2807 122.337 -49.737 131.563 -45.6454 140.986C-43.8575 145.107 -42.2123 149.297 -40.5023 153.457C-40.2214 153.486 -39.9392 153.511 -39.6583 153.54C-39.2821 151.526 -38.9077 149.513 -38.5315 147.499C-38.1962 146.211 -36.2967 144.758 -36.5181 144.143C-37.3002 141.977 -36.7747 140.589 -35.5129 139.764C-33.6327 138.532 -35.4258 135.744 -34.2895 134.792C-32.3177 133.139 -33.9232 130.048 -32.4385 128.424C-30.2853 126.071 -28.0693 123.795 -25.8804 121.485C-25.6642 121.739 -25.448 121.993 -25.2318 122.246C-25.8775 123.304 -27.2991 124.838 -27.0423 125.34C-25.4709 128.427 -27.9994 129.059 -28.7199 130.73C-29.7732 132.126 -30.8241 133.523 -31.8757 134.918C-31.6208 135.151 -31.3653 135.386 -31.1105 135.62C-30.6703 133.681 -27.9136 133.8 -28.8232 130.66C-28.194 130.951 -27.5648 131.242 -26.3849 131.785C-29.1626 135.222 -31.6333 138.28 -34.1029 141.335C-33.9474 141.546 -33.7931 141.76 -33.6376 141.971C-32.3749 140.926 -31.1105 139.882 -29.8484 138.835C-29.6957 139.063 -29.5442 139.294 -29.3915 139.522C-30.8146 141.279 -32.236 143.036 -33.6703 144.808C-33.1627 145.127 -32.7211 145.404 -32.5084 145.538C-33.1337 147.849 -34.5861 150.23 -34.0816 152.097C-33.405 154.603 -34.2594 155.755 -35.1556 157.151C-35.9606 158.408 -37.0168 159.437 -37.021 162.252C-35.6181 160.687 -34.7607 159.794 -33.966 158.831C-31.5785 155.941 -29.2019 152.905 -25.4783 152.412C-21.7379 151.916 -18.1226 152.216 -14.5157 155.263C-12.4121 157.04 -9.52426 157.717 -6.93766 158.355C0.968804 160.308 8.90154 162.01 16.8267 163.793C17.3546 163.913 17.9026 163.948 18.4284 163.92C23.1577 163.668 27.8092 162.849 32.6925 164.16C44.1541 167.24 54.5582 173.408 64.4046 181.335C63.7307 181.252 62.9754 181.391 62.3929 181.054C56.6051 177.703 50.8354 174.3 45.0796 170.859C37.8294 166.52 30.2836 165.625 21.9145 165.136C23.8025 166.796 24.9297 168.13 26.2579 168.887C30.3428 171.208 32.5862 175.561 34.1562 179.826C35.8152 184.333 38.1476 186.555 41.9134 187.418C43.0153 187.67 44.1343 188.036 45.179 188.567C47.1637 189.581 49.2113 190.564 50.8531 193.022C45.8872 191.054 41.3792 189.266 36.3382 187.266C36.3861 189.725 36.207 191.482 36.5068 193.175C36.9303 195.561 37.6616 197.913 38.3522 200.252C38.8422 201.914 38.838 203.11 36.7501 203.358C34.6548 198.182 32.2763 193.05 30.5072 187.703C29.1439 183.585 26.929 180.468 24.1381 177.695C18.0994 171.697 11.5372 173.621 5.08327 173.75C12.0658 177.575 19.9085 177.787 26.9163 183.018C25.1859 184.676 24.137 183.277 23.0397 182.751C20.7947 181.68 18.5962 180.333 16.3012 179.586C11.2882 177.952 6.30227 175.646 1.10444 176.233C-2.30012 173.923 -4.8347 175.865 -7.03639 178.016C-11.7676 182.638 -16.8977 186.25 -23.3557 187.145C-23.4875 187.164 -23.5581 187.531 -23.7596 187.946C-19.6817 188.65 -16.0281 186.005 -12.0695 187.047C-11.9875 187.507 -11.9073 187.967 -11.8259 188.425C-17.3511 189.622 -22.8758 190.822 -28.4004 192.022C-25.0822 192.291 -21.8797 191.883 -18.6854 191.426C-15.6063 190.986 -12.7 189.125 -8.53807 190.948C-13.3763 194.304 -18.9511 192.244 -24.0653 194.715C-20.6873 197.242 -18.3321 195.154 -15.8989 195.427C-13.3103 195.716 -10.7183 195.035 -8.13664 194.722C-5.67483 194.423 -3.2263 194.05 0.0313032 193.598C-2.25065 197.292 -5.25453 195.789 -7.54981 196.391C-9.89691 197.009 -12.5498 196.436 -15.6505 197.689C-14.4703 198.072 -14.1185 198.259 -13.7725 198.285C-8.19602 198.704 -2.73249 198.367 2.54898 196.78C3.60837 196.461 4.81887 195.578 5.84047 197.749C2.61861 198.695 -0.504557 199.594 -3.62772 200.493ZM-63.0904 209.161C-63.3267 209.994 -63.5152 210.71 -63.733 211.412C-63.9527 212.114 -64.4741 213.361 -64.3984 213.416C-61.7034 215.405 -63.9686 217.026 -64.1746 218.784C-64.2536 219.458 -64.3709 220.623 -64.1183 220.801C-62.3723 222.035 -63.224 223.525 -63.592 224.647C-65.3197 229.91 -65.4172 235.48 -64.7875 241.21C-64.1563 246.966 -63.6158 252.743 -61.7322 258.507C-59.3348 256.532 -59.8346 253.646 -59.856 250.97C-59.8733 248.712 -60.1114 246.527 -57.7201 245.539C-56.7778 245.149 -56.3675 243.334 -55.7163 242.169C-55.9455 241.93 -56.1748 241.692 -56.404 241.453C-57.5061 241.866 -58.6082 242.278 -59.8638 242.749C-59.6214 239.679 -59.1661 237.06 -59.2506 234.4C-59.5378 225.376 -61.2151 216.322 -60.7596 207.277C-60.492 201.956 -60.274 196.751 -58.3652 192.002C-57.6518 190.226 -57.0747 188.366 -56.3967 186.433C-58.2764 184.836 -59.9334 183.428 -61.5909 182.018C-61.7392 182.249 -61.8851 182.482 -62.0334 182.713C-60.9105 184.174 -59.7858 185.635 -58.6042 187.173C-59.597 191.722 -63.4843 193.462 -65.5437 197.129C-64.2118 197.024 -63.063 196.935 -61.271 196.796C-62.6474 198.997 -63.5615 200.46 -64.4956 201.953C-63.7427 202.431 -63.1768 202.791 -62.487 203.232C-63.3982 205.134 -64.1635 206.73 -64.9422 208.36C-64.294 208.636 -63.798 208.854 -63.0904 209.161ZM-80.7228 176.636C-83.5 172.23 -88.155 171.37 -91.6977 167.107C-83.7875 167.064 -77.096 168.681 -70.5285 172.51C-67.8939 174.047 -64.9241 174.666 -62.0994 175.661C-61.8885 175.735 -61.618 175.478 -61.1148 175.263C-60.7622 174.23 -60.3368 172.985 -59.8662 171.609C-63.3364 169.561 -66.5648 167.756 -69.7226 165.771C-74.2706 162.916 -79.012 161.514 -83.8903 161.793C-87.9556 162.027 -91.9854 162.605 -95.9933 163.22C-100.211 163.867 -104.385 164.736 -108.743 165.54C-105.368 168.73 -105.368 168.73 -102.412 166.41C-100.969 165.279 -98.9189 166.049 -97.2248 167.599C-95.3602 169.305 -93.1856 170.522 -91.1444 171.953C-88.4726 169.628 -87.0265 172.978 -85.0863 174.281C-83.8439 175.115 -83.1265 177.393 -80.7228 176.636ZM33.3052 186.965C31.3444 177.868 23.8436 169.156 17.0409 167.536C16.513 167.409 15.8069 167.268 15.4508 167.556C13.4612 169.161 11.1824 167.979 9.0329 167.838C6.95873 167.703 4.86091 167.089 2.79839 167.048C-6.68092 166.869 -15.1345 170.174 -23.1664 174.923C-25.6463 176.39 -28.284 177.537 -30.8273 178.878C-32.1542 179.578 -33.5473 180.216 -34.6839 181.215C-35.1825 181.654 -35.1154 182.929 -35.2925 183.772C-30.7208 181.218 -26.0448 182.332 -21.0635 183.15C-21.8966 182.152 -22.3695 181.584 -23.0274 180.797C-20.935 180.841 -19.0337 180.879 -16.5052 180.932C-17.743 179.831 -18.2821 179.35 -18.8001 178.888C-18.6379 178.544 -18.6104 178.364 -18.5236 178.323C-18.2829 178.205 -17.9946 178.003 -17.7657 178.079C-13.9174 179.33 -11.328 177.128 -8.49886 174.952C-6.01361 173.04 -3.08545 171.665 -0.141136 170.736C5.54924 168.942 11.553 169.636 17.5586 170.403C20.5087 170.778 22.9054 171.913 25.1192 174.475C28.2019 178.047 31.1781 181.652 33.3052 186.965ZM-54.5989 189.405C-55.7436 193.495 -57.2822 197.042 -57.7097 200.881C-58.9487 211.996 -57.5755 223.361 -56.4942 234.673C-56.4444 235.203 -56.2041 235.728 -55.8978 236.793C-55.1513 235.535 -54.1771 234.422 -54.3521 234.11C-56.5088 230.267 -53.4458 228.447 -52.7759 225.733C-52.7127 225.475 -52.7921 225.152 -52.808 224.808C-53.4065 224.919 -53.9955 225.031 -54.6453 225.153C-55.6122 222.211 -53.6313 220.757 -52.8409 218.778C-55.3026 216.96 -55.5169 216.276 -54.4208 213.551C-53.6315 211.588 -51.9012 209.6 -52.1507 207.732C-52.6678 203.852 -51.4324 200.831 -50.678 197.523C-50.099 194.984 -51.6026 191.359 -54.5989 189.405ZM-51.4303 146.209C-51.6259 143.99 -51.7029 142.599 -51.8881 141.217C-51.9884 140.472 -52.2556 139.127 -52.4739 139.094C-54.7925 138.748 -54.0607 136.774 -54.2438 135.365C-54.4853 133.517 -54.6057 131.661 -54.7792 129.807C-55.0006 129.825 -55.2239 129.842 -55.4453 129.86C-55.602 131.527 -55.7568 133.193 -55.9389 135.142C-56.7187 134.032 -57.2484 133.281 -57.7757 132.531C-57.8877 135.826 -56.3891 138.283 -54.9964 140.729C-52.5026 145.105 -50.1244 149.516 -48.9692 154.551C-48.4228 156.927 -47.9402 159.316 -47.3871 161.89C-45.3027 162.665 -43.2596 163.425 -40.6273 164.403C-42.5022 159.301 -44.0619 155.058 -45.7081 150.582C-46.2371 150.593 -46.9853 150.608 -48.0009 150.629C-48.4023 148.179 -48.7914 145.812 -49.2005 143.308C-49.8735 144.183 -50.4263 144.904 -51.4303 146.209ZM-56.6677 166.401C-54.9464 165.539 -53.5833 164.635 -52.0876 164.158C-50.1002 163.528 -49.7817 162.161 -50.134 159.855C-51.2212 152.736 -54.2522 146.635 -58.4047 140.913C-58.4966 142.549 -58.6839 144.641 -57.8755 145.622C-56.2097 147.645 -56.0377 149.526 -56.2835 151.872C-56.6951 155.813 -56.9246 159.801 -57.162 163.783C-57.2007 164.482 -56.8955 165.247 -56.6677 166.401ZM-49.5095 175.502C-51.6235 180.277 -48.6254 184.421 -41.7566 186.278C-40.0733 180.122 -40.963 178.126 -46.2475 176.329C-47.3241 175.962 -48.4302 175.77 -49.5095 175.502ZM-61.4579 271.123C-61.1016 270.035 -60.3387 268.928 -60.4635 267.862C-60.8562 264.508 -59.4995 262.117 -58.2936 259.565C-57.8364 258.599 -57.6323 257.453 -57.314 256.387C-59.9345 260.592 -63.4091 264.276 -61.4579 271.123ZM-137.802 72.6727C-136.944 74.3685 -136.099 76.0401 -135.291 77.6364C-133.702 76.066 -133.202 74.4697 -134.515 72.5425C-135.371 71.29 -136.335 71.0121 -137.802 72.6727ZM-76.62 177.77C-78.4756 173.05 -80.0365 171.573 -82.4441 171.792C-80.4008 173.89 -78.5113 175.83 -76.62 177.77ZM-74.9217 304.409C-74.982 304.099 -75.043 303.786 -75.105 303.477C-77.2429 303.739 -79.3814 303.999 -81.5193 304.261C-81.4407 304.668 -81.3622 305.075 -81.2836 305.483C-79.1616 305.125 -77.042 304.766 -74.9217 304.409ZM-67.8043 185.087C-67.6192 184.708 -67.4346 184.328 -67.2495 183.949C-68.6602 182.738 -70.0694 181.526 -71.4808 180.313C-71.5855 180.48 -71.6902 180.647 -71.7949 180.814C-70.4639 182.239 -69.1329 183.664 -67.8043 185.087ZM-174.634 184.265C-174.77 184.615 -174.902 184.967 -175.038 185.318C-173.758 186.98 -172.108 187.242 -170.242 186.782C-171.706 185.943 -173.17 185.103 -174.634 184.265ZM10.9468 251.494C11.2385 251.391 11.5308 251.291 11.8206 251.189C11.251 249.7 10.6814 248.212 10.1143 246.726C9.9549 246.797 9.79555 246.868 9.63617 246.94C10.0729 248.457 10.5095 249.974 10.9468 251.494ZM-76.9492 179.375C-77.1181 179.642 -77.2876 179.907 -77.4565 180.174C-76.2601 181.319 -75.0619 182.464 -73.8656 183.609C-73.6837 183.326 -73.5018 183.044 -73.3206 182.759C-74.53 181.63 -75.7405 180.502 -76.9492 179.375ZM-140.283 83.2975C-140.158 83.2246 -140.034 83.1538 -139.909 83.0831C-140.291 82.252 -140.638 81.3989 -141.068 80.6026C-141.439 79.9193 -141.909 79.2995 -142.333 78.6524C-142.429 78.731 -142.525 78.8123 -142.623 78.8914C-141.842 80.3606 -141.062 81.8277 -140.283 83.2975ZM-173.874 190.483C-173.967 190.893 -174.06 191.303 -174.152 191.713C-173.38 191.898 -172.609 192.082 -171.838 192.265C-171.799 191.972 -171.761 191.68 -171.721 191.388C-172.439 191.086 -173.157 190.783 -173.874 190.483ZM-60.4264 119.033C-60.8146 119.526 -60.9547 119.618 -60.9803 119.751C-61.1563 120.645 -61.3149 121.546 -61.455 122.45C-61.4624 122.492 -61.2397 122.607 -61.1254 122.688C-60.8629 121.845 -60.5945 121.004 -60.3458 120.154C-60.3065 120.021 -60.3619 119.842 -60.4264 119.033ZM-87.0547 319.183C-87.0852 319.494 -87.1156 319.805 -87.1479 320.116C-86.3218 320.197 -85.4957 320.277 -84.6702 320.356C-84.6632 320.158 -84.6561 319.961 -84.649 319.764C-85.4511 319.572 -86.2538 319.378 -87.0547 319.183ZM-116.82 167.028C-116.868 166.7 -116.914 166.372 -116.962 166.044C-117.624 166.116 -118.286 166.188 -118.948 166.26C-118.926 166.405 -118.904 166.547 -118.883 166.69C-118.194 166.803 -117.506 166.916 -116.82 167.028ZM-14.7591 213.073C-14.5662 212.89 -14.3715 212.706 -14.1779 212.525C-14.607 211.861 -15.038 211.197 -15.4677 210.531C-15.616 210.641 -15.7637 210.753 -15.912 210.863C-15.5281 211.598 -15.1436 212.336 -14.7591 213.073Z" fill="#A60403"/>
<path d="M38.5755 125.188C38.2043 128.47 36.1981 129.774 34.282 130.995C25.4214 136.643 16.4541 142.061 6.57463 145.453C2.83106 146.737 -0.841142 148.236 -4.55087 149.624C-5.5762 150.008 -6.63382 150.454 -7.54151 148.328C8.90535 142.991 24.7856 136.538 38.5755 125.188Z" fill="#A60403"/>
<path d="M-12.495 143.545C-11.8239 142.71 -11.2706 141.682 -10.4636 141.078C-6.06493 137.781 -1.60444 134.585 2.85731 131.393C2.91662 131.35 3.26196 131.804 3.91579 132.482C-0.398069 138.158 -6.43934 140.789 -11.6849 144.699C-11.9561 144.315 -12.2256 143.93 -12.495 143.545Z" fill="#BB9F87" fill-opacity="0.5"/>
<path d="M11.0792 154.809C8.72686 155.563 6.38019 156.343 3.81148 155.075C3.76269 154.717 3.71448 154.361 3.66568 154.004C6.06479 153.769 8.46208 153.534 10.8618 153.301C10.9347 153.803 11.0075 154.305 11.0792 154.809Z" fill="#BB9F87" fill-opacity="0.5"/>
<path d="M-16.7065 249.857C-12.7081 253.316 -9.80958 258.056 -7.12966 262.722C-2.10864 271.469 1.72184 280.926 3.68818 290.991C5.73306 301.463 6.68143 311.998 6.18353 322.482C6.15952 322.969 5.60132 323.362 4.85886 324.413C4.55065 317.138 4.64039 310.633 3.89736 304.166C3.15823 297.733 2.0776 291.189 0.232678 284.968C-1.65857 278.585 -4.24368 272.272 -7.28969 266.414C-10.217 260.788 -14.1256 255.785 -17.6027 250.507C-17.3067 250.292 -17.0072 250.076 -16.7065 249.857Z" fill="#BB9F87" fill-opacity="0.5"/>
<path d="M15.3725 304.104C14.577 301.34 13.7821 298.579 12.9865 295.815C13.2279 295.766 13.4706 295.715 13.712 295.666C14.2391 298.466 14.7656 301.263 15.2945 304.062L15.3725 304.104Z" fill="#BB9F87" fill-opacity="0.5"/>
<path d="M33.8668 223.848C38.4275 226.095 42.0502 229.856 45.3008 234.179C46.796 236.167 48.1836 238.266 49.7323 240.474C48.0709 242.862 46.3692 242.455 43.7842 240.41C45.0566 239.951 45.7118 239.714 46.42 239.459C46.3166 239.201 46.2723 238.872 46.1108 238.721C44.8756 237.568 42.4738 238.963 42.0927 236.08C41.8231 234.041 38.5803 235.109 39.2517 232.239C39.2667 232.176 38.1566 231.627 37.5637 231.328C36.8508 230.969 36.1297 230.635 35.1686 230.172C35.8383 229.387 36.2465 228.91 36.8129 228.242C34.8401 227.781 33.0212 227.356 30.372 226.736C32.0048 225.357 32.9604 224.55 33.916 223.743L33.8668 223.848Z" fill="#A60403"/>
<path d="M38.7534 270.647C33.0444 264.719 26.0984 261.276 19.8741 256.294C21.6136 255.024 23.0068 256.215 24.235 257C28.4939 259.725 32.7051 262.579 36.8219 265.617C37.9935 266.481 38.7838 268.131 39.7468 269.42C39.4157 269.829 39.0846 270.238 38.7534 270.647Z" fill="#BB9F87" fill-opacity="0.5"/>
<path d="M30.1624 201.81C28.8094 204.53 26.6561 204.121 24.7432 204.056C23.0592 203.999 21.0158 205.403 19.695 202.097C19.342 201.214 17.34 201.074 15.9704 200.544C17.7073 199.07 21.9487 198.46 26.0595 199.05C25.811 199.921 25.5828 200.721 25.3488 201.541C26.9555 201.632 28.558 201.721 30.1624 201.81Z" fill="#A60403"/>
<path d="M-3.62659 200.494C0.400892 201.742 4.28444 201.3 8.13374 200.457C9.39657 200.18 10.6644 199.926 12.6933 199.5C11.3114 202.645 9.24345 202.531 7.54616 202.59C3.071 202.744 -1.34556 204.036 -5.90825 202.965C-5.987 202.597 -6.06576 202.23 -6.14389 201.864C-5.2636 201.427 -4.38327 200.99 -3.50538 200.552C-3.50895 200.553 -3.62659 200.494 -3.62659 200.494Z" fill="#BB9F87" fill-opacity="0.5"/>
<path d="M17.1562 156.742C22.5828 159.161 28.0153 161.506 31.681 167.097C31.5128 167.621 31.4851 167.78 31.4151 167.9C31.3505 168.012 31.2479 168.153 31.1464 168.157C30.8808 168.168 30.4849 168.238 30.3549 168.068C26.6221 163.145 21.6248 160.403 17.1562 156.742Z" fill="#A60403"/>
<path d="M16.9766 177.965C21.4819 177.593 25.5051 177.26 30.3332 176.86C27.0994 180.184 20.3952 180.62 16.9766 177.965Z" fill="#A60403"/>
<path d="M34.1972 217.45C31.2853 218.714 28.2549 217.622 25.2526 217.099C25.2304 216.653 25.2058 216.204 25.1818 215.758C28.1634 215.86 31.1433 215.962 34.1255 216.065C34.1484 216.528 34.1725 216.988 34.1972 217.45Z" fill="#BB9F87" fill-opacity="0.5"/>
<path d="M38.9109 215.083C36.06 215.415 33.272 215.139 29.9453 212.918C33.6049 211.906 36.5008 211.159 38.8605 215.19L38.9109 215.083Z" fill="#A60403"/>
<path d="M61.5496 201.643C59.1095 199.827 56.6686 198.008 54.2285 196.191C54.3804 195.906 54.53 195.619 54.6819 195.333C57.2666 196.832 59.8518 198.326 61.8802 200.99C61.7706 201.208 61.661 201.425 61.5496 201.643Z" fill="#BB9F87" fill-opacity="0.5"/>
<path d="M36.7821 190.87C34.4205 189.897 32.2381 188.567 30.168 186.16C32.8669 186.429 33.8829 187.143 36.8976 190.646L36.7821 190.87Z" fill="#A60403"/>
<path d="M9.8898 186.067C11.464 185.816 12.9417 185.834 13.9319 189.469C12.06 188.572 10.8326 187.984 9.6045 187.394C9.69824 186.954 9.79489 186.51 9.8898 186.067Z" fill="#BB9F87" fill-opacity="0.5"/>
<path d="M59.091 190.029C57.2065 188.993 55.3221 187.958 53.4382 186.924C55.8769 186.134 57.6904 187.629 59.4643 189.282C59.3407 189.531 59.217 189.781 59.091 190.029Z" fill="#BB9F87" fill-opacity="0.5"/>
<path d="M61.8793 200.99C64.0161 202.048 64.9691 204.109 66.2479 206.952C62.9164 206.294 62.998 203.129 61.5506 201.642C61.6602 201.425 61.7697 201.207 61.8793 200.99Z" fill="#BB9F87" fill-opacity="0.5"/>
<path d="M43.1268 259.309C41.3366 257.707 39.5458 256.103 37.7539 254.502C40.2461 254.819 41.8963 256.654 43.4819 258.607C43.3629 258.839 43.2446 259.072 43.1268 259.309Z" fill="#BB9F87" fill-opacity="0.5"/>
<path d="M48.3619 208.209C49.9058 209.412 51.4515 210.615 52.9954 211.818C52.9069 212.001 52.8185 212.185 52.7301 212.368C51.2377 211.055 49.7453 209.742 48.2499 208.432C48.2463 208.433 48.3619 208.209 48.3619 208.209Z" fill="#BB9F87" fill-opacity="0.5"/>
</g>
</svg>
