<svg width="185" height="408" viewBox="0 0 185 408" fill="none" xmlns="http://www.w3.org/2000/svg">
<path d="M-53.1283 45.3034C-24.1387 38.6593 -0.810486 36.4847 22.5569 38.3181C33.4519 39.1739 44.3993 39.7303 54.6672 42.9344C62.1583 45.2717 69.981 47.5046 76.4299 51.6003C87.1497 58.4109 96.8018 66.7869 107.057 74.3029C116.699 81.3679 123.593 90.8146 129.747 100.942C131.303 103.504 132.713 106.185 133.954 108.937C137.263 116.28 140.429 123.698 143.68 131.074C148.264 141.481 150.593 152.657 152.241 164.102C153.27 171.251 154.814 178.273 155.95 185.397C157.683 196.253 157.067 207.258 154.795 218.38C153.652 223.975 153.469 229.763 151.724 235.193C149.437 242.309 146.391 249.314 143.025 256.084C138.496 265.19 133.417 274.062 128.427 282.96C126.842 285.783 124.973 288.516 122.914 291.035C117.289 297.913 112.28 305.132 108.363 313.066C107.629 314.555 106.436 315.99 105.156 317.076C92.6609 327.67 79.7506 337.505 64.7645 344.053C56.9127 347.485 49.3935 351.856 41.6788 355.692C28.3614 362.31 14.287 365.279 0.154103 367.381C-8.51576 368.67 -17.2756 369.284 -25.9367 369.44C-35.4315 369.612 -44.8879 369.08 -54.314 368.544C-67.9195 367.769 -79.6251 361.842 -91.897 357.371C-107.252 351.774 -119.726 341.839 -132.938 333.002C-134.871 331.709 -136.241 329.579 -137.744 327.731C-141.754 322.795 -145.614 317.8 -150.965 314.104C-153.668 312.238 -155.411 309.059 -157.643 306.526C-163.445 299.941 -166.44 291.654 -169.002 283.34C-173.359 269.205 -177.281 254.872 -180.634 240.377C-182.228 233.489 -182.711 226.091 -182.603 218.839C-182.361 202.481 -178.19 186.248 -175.251 170.01C-174.096 163.631 -171.181 157.389 -168.866 151.145C-167.295 146.908 -165.609 142.67 -163.549 138.62C-160.818 133.245 -157.973 127.865 -154.635 122.823C-149.338 114.821 -143.009 107.404 -138.221 99.1599C-134.511 92.7694 -129.809 88.0086 -124.088 83.6462C-116.349 77.7421 -109.083 71.2041 -100.439 66.6232C-93.7929 63.1001 -87.5292 58.681 -80.8009 55.393C-70.1259 50.175 -59.0172 46.3281 -53.1283 45.3034ZM94.6145 311.339L94.8044 311.057C88.0856 317.563 80.0398 322.726 74.7512 330.404C72.5683 331.309 70.2282 332.012 68.1227 333.198C59.2939 338.17 50.5553 343.324 41.7436 348.329C39.0831 349.84 35.746 349.716 33.1678 351.976C35.8949 355.022 38.5994 353.731 41.3968 352.352C50.0654 348.077 58.8463 344.064 67.4231 339.582C80.4832 332.759 93.0164 324.935 102.734 313.32C106.558 308.749 109.362 303.337 112.93 297.847C112.497 296.868 111.716 295.486 111.299 293.969C111.15 293.425 111.88 292.559 112.209 291.839C112.884 292.276 113.678 292.607 114.198 293.19C114.566 293.601 114.562 294.358 114.936 295.753C118.17 291.556 121.032 288.242 123.442 284.646C132.824 270.645 140.669 255.907 146.539 240.295C147.916 236.635 150.735 232.929 148.059 229.002C147.841 228.684 148.119 227.772 148.435 227.317C152.072 222.092 152.266 216.107 153.036 210.443C153.826 204.634 153.159 198.773 153.358 192.923C153.645 184.357 151.139 176.806 147.792 170.089C148.204 167.64 148.978 165.576 148.798 163.696C147.764 152.967 144.977 142.772 141.157 133.008C138.07 125.121 134.636 117.371 130.86 109.848C125.084 98.3377 118.469 87.5355 108.721 78.8951C100.189 71.3352 90.9132 64.896 81.4335 58.6674C76.3039 55.2958 71.2286 51.6829 65.6036 49.2261C53.1716 43.7981 39.7048 41.5127 25.7648 41.0797C21.9597 40.9615 18.1251 39.5279 14.7744 42.746C7.60878 38.5207 -17.9114 40.1438 -24.8141 44.5053C-28.3519 44.0995 -31.1314 43.0951 -33.7567 43.6117C-40.967 45.0271 -48.112 47.0828 -55.2857 48.8807C-55.7482 50.2143 -56.2127 51.5507 -56.6803 52.8972C-59.6708 53.1397 -60.7486 49.4981 -64.1917 51.1068C-74.5059 55.9245 -85.0664 60.1098 -94.7451 66.4519C-97.4088 68.1979 -100.469 69.3961 -102.871 71.4374C-106.711 74.7035 -112.368 76.0733 -113.362 80.5592C-116.751 82.661 -119.624 83.7112 -121.466 85.715C-128.096 92.9308 -134.623 100.28 -140.714 107.947C-145.323 113.747 -148.901 120.348 -153.549 126.113C-155.852 128.972 -155.847 131.264 -154.483 134.386C-158.527 134.605 -160.112 136.732 -161.224 139.896C-162.573 143.737 -164.675 147.364 -166.184 151.17C-169.438 159.388 -172.733 167.578 -173.646 176.35C-174.144 181.131 -175.264 185.926 -176.371 190.672C-179.095 202.348 -179.563 214.006 -179.786 225.689C-179.915 232.373 -177.095 238.164 -176.081 244.526C-174.6 253.811 -172.103 262.901 -169.204 271.726C-168.085 275.135 -168.601 280.427 -162.377 280.737C-163.889 282.471 -164.824 283.541 -166.02 284.911C-163.051 290.906 -160.089 297.057 -156.968 303.113C-155.557 305.852 -153.687 308.188 -149.528 306.915C-149.913 310.79 -148.577 313.199 -145.828 314.877C-144.675 315.582 -143.793 316.782 -142.981 317.908C-133.193 331.478 -119.56 340.395 -105.284 348.526C-103.309 349.65 -101.354 351.524 -98.7067 348.728C-98.4043 348.409 -95.8711 349.623 -95.8929 349.68C-97.4448 353.87 -93.9742 353.954 -91.8294 354.867C-86.8854 356.97 -81.8413 358.867 -77.8484 360.448C-75.3913 359.39 -73.841 358.723 -72.2906 358.057C-71.8604 359.481 -71.4299 360.906 -70.8243 362.903C-57.6642 367.826 -42.5446 367.013 -27.7603 367.168C-17.3123 367.276 -6.65324 365.535 3.90195 364.248C7.76118 363.778 12.154 363.118 15.2606 360.92C17.875 359.072 19.4479 358.233 22.3632 358.971C27.1872 360.192 29.0484 358.492 29.8963 352.704C26.1401 353.648 22.419 354.348 18.8102 355.537C9.7122 358.529 -0.0908922 358.156 -8.62507 363.826C-8.74938 363.909 -9.0128 363.755 -9.36604 363.677C-9.50496 362.795 -9.65455 361.845 -9.915 360.191C-16.3442 360.627 -22.9489 361.076 -29.5513 361.525L-29.3049 361.676C-35.7236 360.84 -42.1426 360.002 -48.7285 359.143C-48.8825 360.375 -49.0247 361.502 -49.2194 363.047C-50.8657 362.999 -52.3386 362.954 -54.2442 362.898C-53.4014 361.077 -52.8608 359.909 -52.1648 358.404C-55.9229 357.922 -59.1797 357.631 -62.3641 357.064C-66.5281 356.32 -70.8797 355.889 -74.7178 354.389C-85.5411 350.154 -95.8285 344.991 -105.493 338.567C-111.677 334.457 -116.717 327.772 -125.716 329.259C-125.713 324.762 -125.83 324.878 -129.956 320.783C-135.699 315.081 -142.154 309.88 -145.397 302.115C-146.792 298.775 -148.772 297.012 -152.269 296.927C-151.381 291.677 -157.487 271.967 -162.446 263.519L-162.362 263.615C-164.354 252.906 -166.938 242.316 -168.129 231.443C-168.902 224.383 -167.915 216.908 -167.225 209.62C-166.63 203.356 -164.844 197.076 -164.447 190.828C-163.263 172.137 -159.162 154.132 -149.151 137.256C-147.314 134.158 -145.673 130.952 -144.13 128.137C-145.441 126.846 -146.307 125.994 -147.983 124.341C-145.204 124.26 -143.646 124.216 -142.302 124.176C-139.804 119.955 -137.465 115.785 -134.901 111.749C-133.18 109.042 -131.018 106.544 -133.13 103.191C-130.645 102.566 -128.384 102.62 -126.936 101.517C-122.619 98.2394 -118.62 94.5044 -114.496 90.9512C-103.627 81.5962 -93.126 71.6956 -79.9618 65.7583C-78.2507 64.9859 -76.6426 63.9344 -74.7749 62.8928C-75.9262 61.8826 -76.8001 61.1148 -77.7124 60.3143C-74.2688 57.0846 -72.6716 60.0234 -71.0186 61.2875C-65.4236 59.2084 -60.2682 57.1647 -55.0477 55.3697C-31.5152 47.2892 -7.78173 45.4326 16.0185 46.6014C21.937 46.8922 27.9063 47.0998 33.6803 48.0367C37.6121 48.6742 41.2555 50.2473 44.7317 47.0588C46.3007 48.7967 47.2551 50.7523 48.8403 51.4353C53.4288 53.4159 58.2438 54.9551 63.0193 56.544C72.4956 59.6983 80.9932 64.3371 88.1156 71.2354C90.158 73.2132 91.488 76.2449 95.2473 76.1024C95.9935 76.0744 97.0006 77.5829 97.2896 78.6057C99.0291 84.7948 103.618 88.3095 108.199 91.9291C111.076 88.8161 111.076 88.8161 113.273 90.9637C112.004 91.7448 110.819 92.4742 110.001 92.9799C114.905 100.379 119.735 107.666 124.556 114.943C126.309 114.388 128.27 113.025 128.962 116.184C127.998 116.827 126.997 117.494 125.501 118.492C126.333 120.663 127.156 122.896 128.045 125.096C128.798 126.961 129.872 128.701 130.38 130.645C132.797 139.905 134.93 149.268 137.45 158.49C138.736 163.198 140.618 167.689 142.394 172.745C138.969 173.432 139.322 176.435 139.089 179.486C138.386 188.675 137.506 197.868 136.531 207.057C135.618 215.653 134.333 224.246 133.567 232.84C133.365 235.105 135.248 237.47 134.777 239.601C134.265 241.902 131.847 243.872 130.736 246.183C128.044 251.782 125.84 257.59 123.023 263.13C121.296 266.524 120.092 269.806 120.386 273.449L120.497 273.309C116.09 280.841 111.828 288.393 106.017 295.135C101.722 300.115 98.3792 305.909 94.6145 311.339ZM-42.3777 54.8506C-59.7026 59.6895 -76.615 65.7641 -91.5811 76.6342C-102.276 84.4021 -112.151 93.4065 -122.345 101.921C-129.42 107.832 -133.735 115.606 -137.598 123.69C-139.181 127.004 -140.865 130.31 -142.829 133.43C-152.552 148.877 -158.36 165.515 -159.966 182.936C-160.877 192.833 -162.351 202.621 -164.02 212.441C-164.267 213.896 -164.39 215.37 -164.463 216.829C-165.198 231.621 -163.206 245.849 -159.195 259.588C-157.721 264.633 -155.017 269.236 -153.784 274.344C-151.117 285.399 -145.272 294.669 -139.596 303.896C-134.586 312.043 -127.891 318.962 -119.753 324.28C-112.917 328.747 -106.614 334.048 -99.5057 338.046C-90.6433 343.031 -81.6866 348.451 -71.8731 351.145C-59.8715 354.441 -47.0128 355.482 -34.3857 356.765C-27.0939 357.506 -19.5287 356.855 -12.0801 356.743C0.232443 356.555 12.3717 354.335 24.3148 349.997C25.3114 349.634 26.3401 349.385 27.3445 349.041C33.5309 346.928 40.065 345.58 45.8131 342.503C54.4984 337.853 62.8792 332.367 70.9438 326.557C82.6853 318.097 92.0673 307.239 100.038 295.132C105.867 286.273 108.829 276.076 115.138 267.401C118.178 263.219 120.126 258.28 122.591 253.694C126.338 246.722 129.065 239.554 129.259 231.769C129.332 228.85 129.846 225.899 130.177 222.963C131.832 208.317 133.394 193.668 135.181 179.028C136.715 166.467 132.467 155.316 129.936 143.8C128.416 136.885 125.246 130.499 123.049 123.778C119.194 111.991 112.711 102.042 104.357 93.3378C101.06 89.9044 97.9248 86.3084 94.5608 82.9457C87.794 76.1856 81.8295 68.9565 71.9717 65.4242C55.0697 59.3695 38.2045 53.3385 20.0527 51.257C8.31565 49.9115 -3.75286 49.6485 -15.7336 50.229C-24.5699 50.6573 -33.4943 53.2329 -42.3777 54.8506Z" fill="#FEC94E" fill-opacity="0.44"/>
<path d="M111.605 179.936C108.031 184.45 108.995 187.983 111.073 191.381C111.378 191.878 111.754 192.44 111.763 193.009C111.877 199.607 112.007 206.205 111.951 212.819C111.928 215.441 111.457 218.102 111.194 220.744C111.154 221.16 111.251 221.612 111.1 221.988C108.769 227.865 106.407 233.731 104.269 239.06C101.451 239.768 99.6362 240.224 97.5317 240.752C97.048 243.127 102.19 244.232 99.1445 246.661C97.337 248.101 94.2538 247.835 91.3574 248.411C91.8885 249.656 93.0209 251.306 93.2582 253.155C93.4798 254.875 92.7451 256.809 92.3963 258.859C85.9841 263.199 80.0893 261.49 74.6186 258.433C70.314 256.028 66.5448 252.756 62.3393 250.172C58.1417 247.593 53.8545 245.074 49.3258 243.087C38.9162 238.521 30.5902 231.454 23.0577 223.215C19.4823 219.304 15.2525 216.012 11.4096 212.348C9.99993 211.003 8.8403 209.391 7.65801 208.008C8.09916 204.495 10.1737 202.385 13.0242 200.995C15.5223 199.778 18.0509 198.485 20.6638 197.726C33.0414 194.138 45.3794 190.104 57.8759 187.419C70.1195 184.79 82.5369 183.593 94.8796 181.772C98.7988 181.194 102.718 180.604 106.64 180.102C107.984 179.935 109.341 180.005 111.605 179.936ZM72.3147 235.548C76.7943 241.157 86.7339 244.865 94.88 243.193C91.8039 241.313 89.7399 239.482 87.2644 238.659C82.5467 237.088 77.5942 236.092 72.7407 234.856C71.2986 234.098 69.8562 233.338 68.4141 232.58C68.2133 232.966 68.0102 233.353 67.8095 233.74C69.312 234.342 70.8122 234.946 72.3147 235.548ZM11.5972 205.642C20.7513 205.026 28.3211 207.46 36.5801 205.144C52.1789 200.767 55.5717 199.691 59.2235 195.473C54.4888 195.948 49.9871 196.315 45.4913 196.87C37.7187 197.83 29.9246 197.442 22.1659 199.971C18.7373 201.089 15.4991 202.203 11.5972 205.642ZM90.9502 192.364C90.7003 192.14 90.4761 191.735 90.1957 191.721C77.2586 191.043 65.6605 196.51 54.2796 202.921C54.154 202.992 54.1504 203.312 54.0906 203.516C64.8365 206.432 79.418 201.555 90.9502 192.364ZM57.1323 220.777C44.7271 215.786 32.3096 211.225 18.3771 211.471C29.5363 220.118 42.826 222.211 57.1323 220.777ZM85.6477 208.619C85.0432 207.94 84.8139 207.412 84.5405 207.413C76.5314 207.471 68.4817 206.823 60.5189 207.952C55.3325 208.688 50.8308 207.38 46.2672 206.622C42.9771 206.076 40.789 206.478 37.6039 208.183C52.3593 213.382 71.3608 213.511 85.6477 208.619ZM27.6887 221.021C27.2004 221.617 26.714 222.21 26.2257 222.807C37.9404 234.56 51.1854 243.906 69.2073 247.407C65.5945 242.66 65.5389 242.786 60.9025 241.043C54.3866 238.594 47.6716 236.587 42.2709 231.939C37.678 227.99 32.5685 224.637 27.6887 221.021ZM106.217 213.205C100.863 206.042 94.6487 206.478 81.624 214.935C90.1633 219.107 100.924 218.351 106.217 213.205ZM38.042 223.659C46.3065 233.147 56.8346 237.597 69.3658 240.232C64.2599 233.058 48.3762 224.755 38.042 223.659ZM78.0655 203.624C87.2072 204.14 96.2849 205.85 105.381 199.707C101.117 194.585 95.2308 196.143 90.3219 197.172C86.0908 198.06 82.1392 201.378 78.0655 203.624ZM64.7119 225.801C71.0558 232.528 87.1305 237.272 94.4823 234.749C85.6219 228.315 75.441 226.576 64.7119 225.801ZM69.9173 189.265C69.967 189.819 70.0166 190.374 70.066 190.926C78.8392 189.927 87.61 188.943 96.382 187.907C97.3841 187.788 98.487 187.591 99.3471 187.064C100.199 186.545 100.803 185.562 102.012 184.242C90.5494 184.453 80.1148 185.517 69.9173 189.265ZM102.763 225.857C94.1924 220.797 84.6739 219.102 74.3618 220.389C83.476 223.422 92.7745 225.77 102.763 225.857ZM88.031 252.405C85.4024 246.544 78.3533 243.015 72.8923 244.745C77.0662 248.714 81.2782 252.087 88.031 252.405ZM91.4836 228.005C91.3279 228.304 91.1695 228.6 91.0137 228.898C94.5764 231.158 98.139 233.418 102.488 236.178C103.125 233.281 103.501 231.565 103.983 229.363C99.4301 228.866 95.4557 228.436 91.4836 228.005ZM83.2507 257.63C80.4215 255.027 77.3356 252.995 72.1801 253.074C75.6466 256.758 79.1806 257.789 83.2507 257.63ZM107.093 222.945C108.101 217.435 107.999 217.389 100.181 219.914C102.896 221.104 104.912 221.99 107.093 222.945ZM56.1066 215.945C61.1247 218.031 62.4707 217.985 67.6641 215.395C63.7919 215.329 60.4464 215.269 57.0953 215.233C56.9441 215.231 56.7698 215.457 56.1066 215.945ZM48.6665 193.098C57.2065 193.327 57.2064 193.327 59.5385 190.368C55.8283 191.3 52.2474 192.199 48.6665 193.098Z" fill="#FEC94E" fill-opacity="0.44"/>
<path opacity="0.44" d="M9.68244 323.787C7.89684 330.145 1.48793 335.128 -4.58293 334.177C-7.87816 333.661 -10.6547 333.793 -13.2086 336.244C-17.4181 331.815 -25.6037 335.028 -28.1521 327.364C-28.6013 329.619 -28.8329 330.777 -29.2227 332.73C-33.9189 329.639 -38.9919 332.435 -43.6553 331.879C-48.5274 331.298 -53.2281 329.856 -57.9638 328.674C-63.4354 327.31 -68.8646 325.823 -75.1061 324.181C-75.5101 323.415 -76.692 321.777 -77.292 319.904C-78.3663 316.548 -78.353 313.415 -75.5308 310.009C-72.3444 306.164 -69.8287 301.734 -67.2959 297.413C-61.5732 287.654 -56.1366 277.741 -50.3249 268.032C-48.5554 265.076 -46.2385 262.239 -43.6627 259.943C-38.4484 255.295 -35.0962 248.923 -29.3388 244.805C-28.5706 244.257 -28.3941 242.869 -27.8185 241.945C-24.4809 236.583 -21.0645 231.267 -17.7685 225.882C-16.68 224.104 -15.8732 222.169 -14.7479 219.929C-11.5118 221.519 -9.19625 223.235 -8.28651 226.711C-6.83805 232.245 -4.7883 237.576 -3.46929 243.149C-0.347941 256.335 2.28445 269.682 5.51201 282.832C7.90703 292.589 11.0371 302.1 13.6135 311.799C14.5453 315.309 14.8165 319.053 15.5125 323.468C13.0456 323.661 11.3029 323.797 9.55216 323.943C2.58241 321.487 -0.419833 314.72 -5.47875 309.63C-6.81403 316.655 -8.05309 323.173 -9.25919 329.521C-3.75437 331.761 0.730691 331.669 4.83115 326.721C5.96648 325.345 8.0402 324.742 9.68244 323.787ZM-2.50889 265.417C-2.82361 265.444 -3.13605 265.471 -3.45078 265.498C-4.06313 268.984 -4.74512 272.465 -5.2711 275.955C-6.61196 284.847 -7.2608 293.674 -4.43145 302.033C-1.74612 309.961 2.95059 316.135 10.7789 320.277C11.1647 318.526 11.8988 317.156 11.624 316.153C6.98708 299.212 2.22436 282.32 -2.50889 265.417ZM-33.7495 326.833C-33.2841 325.964 -32.9914 325.163 -32.4884 324.518C-26.6707 317.068 -25.6261 308.849 -26.9027 300.463C-27.7542 294.88 -29.2792 289.465 -30.511 283.93C-30.8558 284.583 -31.4686 285.453 -31.7936 286.397C-34.298 293.722 -36.758 301.057 -39.2028 308.398C-40.0157 310.838 -40.7932 313.291 -41.4856 315.755C-42.7009 320.082 -41.3039 323.115 -37.5362 324.921C-36.2892 325.522 -35.0663 326.167 -33.7495 326.833ZM-8.98605 274.649C-5.36074 258.094 -4.99015 242.004 -13.0336 227.361C-17.9406 244.062 -14.7799 259.521 -8.98605 274.649ZM-68.3561 315.184C-64.1621 312.309 -60.3855 310.261 -57.2775 307.444C-53.9173 304.4 -50.8326 300.862 -48.2799 297.12C-45.9611 293.722 -44.7966 289.601 -42.6145 286.091C-40.0827 282.02 -41.4964 277.99 -40.7999 273.8C-45.8445 284.025 -53.6769 292 -60.8677 300.481C-64.2043 304.415 -67.4813 308.621 -68.3561 315.184ZM-24.3683 316.435C-20.0654 311.503 -18.7907 306.51 -17.6846 301.657C-16.4481 296.24 -15.2027 290.216 -17.9854 285.672C-20.3608 281.794 -20.765 277.282 -22.7788 273.403C-23.5312 271.952 -23.7156 270.163 -24.159 268.528C-27.0008 278.183 -27.3714 287.492 -24.7637 296.453C-23.3086 301.455 -22.8882 306.493 -23.9505 311.821C-24.1874 313.006 -24.1768 314.222 -24.3683 316.435ZM-37.0005 288.856C-36.5221 288.206 -35.8212 287.608 -35.5972 286.899C-33.4161 280.03 -31.4007 273.122 -29.1573 266.27C-27.7521 261.985 -29.9357 256.605 -24.3911 253.554C-23.2686 248.26 -22.1484 242.967 -21.0256 237.676C-31.0301 253.68 -38.9469 270.09 -37.0005 288.856ZM-68.7213 320.132C-63.2331 322.87 -58.3035 321.58 -53.7998 317.876C-47.8126 312.952 -44.5306 306.301 -42.286 299.184C-41.8259 297.723 -41.8602 296.146 -41.549 293.695C-46.104 299.158 -49.5472 304.047 -53.754 308.124C-58.0969 312.334 -63.1859 315.754 -68.7213 320.132ZM-36.705 258.441C-49.6408 267.886 -56.0131 281.484 -61.8407 295.426C-49.6712 285.5 -43.286 271.908 -36.705 258.441ZM-19.0931 246.582C-19.8442 247.391 -20.3314 247.683 -20.387 248.01C-22.3312 259.372 -21.4327 270.162 -16.5982 280.065C-15.9018 281.492 -15.0475 283.332 -12.0548 282.88C-14.4164 270.693 -16.7209 258.807 -19.0931 246.582ZM-45.2056 314.312C-49.6586 317.854 -53.7261 321.093 -58.1091 324.58C-52.8833 325.851 -47.9099 328.011 -41.953 327.727C-45.6448 324.061 -45.6172 319.328 -45.2056 314.312ZM-11.7123 300.503C-13.3784 308.751 -16.2616 317.253 -12.4898 325.293C-9.17377 316.939 -8.19462 308.713 -11.7123 300.503ZM-18.3621 314.333C-20.9036 318.237 -23.0806 321.583 -25.7295 325.651C-23.8921 327.067 -22.3355 328.863 -20.3157 329.654C-18.3111 330.44 -16.3704 328.857 -16.5223 326.64C-16.7882 322.718 -17.644 318.889 -18.3621 314.333Z" fill="#BB9F87" fill-opacity="0.5"/>
<path opacity="0.44" d="M-13.6911 115.2C-20.3254 105.338 -21.8911 93.467 -18.6963 80.3594C-9.22158 79.1819 -0.273238 77.6501 8.63815 77.1098C14.841 76.7342 21.0049 77.6859 27.172 78.1434C27.9188 78.1992 29.0858 78.7234 29.1754 79.2605C29.8421 83.2724 33.6137 82.7158 36.1247 84.0833C39.9554 86.1705 45.0065 87.7886 46.8598 91.2384C49.5015 96.1573 50.6265 102.285 47.3268 108.707C42.4266 118.242 35.2149 125.919 27.8162 133.425C23.9334 137.362 21.0451 141.518 20.5419 146.834C20.017 152.375 17.4616 157.322 14.3404 161.727C9.40909 168.69 3.63841 175.087 -1.69505 181.787C-3.39705 183.926 -5.28155 184.802 -7.96968 184.279C-7.68954 181.515 -6.82929 178.749 -7.33207 176.396C-7.86647 173.888 -9.89001 171.872 -10.9101 169.464C-13.3563 163.696 -15.4354 157.923 -15.6016 151.181C-15.8381 141.558 -17.0252 132.04 -15.6387 122.274C-15.3671 120.334 -14.595 118.416 -13.6911 115.2ZM5.2783 111.58C1.40399 117.174 2.80173 121.293 4.2998 125.307C6.68013 131.687 7.24735 138.049 3.61869 144.822C2.91391 146.137 2.81516 148.159 3.25604 149.515C4.59071 153.598 4.09589 157.741 3.28086 161.973C2.60344 165.489 1.97979 169.012 1.33367 172.529C9.55288 162.702 12.2587 151.58 12.9236 140.011C13.0253 138.25 12.2551 136.276 11.2842 134.846C6.85926 128.313 5.41221 120.749 5.2783 111.58ZM-3.04488 144.775C2.55216 140.774 3.35395 136.457 2.31415 131.035C-0.474223 116.517 -8.93677 105.331 -16.5445 92.0548C-16.4361 99.7012 -15.5465 105.685 -12.3737 110.913C-6.32405 120.884 -2.93829 131.833 -3.04488 144.775ZM-5.50234 172.056C-4.97332 171.897 -4.44462 171.736 -3.91788 171.578C-3.8705 170.834 -3.63731 170.027 -3.80301 169.356C-5.3674 163.031 -7.32243 156.818 -8.48781 150.388C-9.13716 146.804 -12.051 142.718 -7 139.085C-6.51522 138.737 -6.69672 137.043 -6.88907 136.066C-7.68298 132.02 -8.52057 127.985 -9.52792 124.009C-9.76901 123.056 -10.7279 122.352 -11.3584 121.536C-11.7736 121.72 -12.1887 121.904 -12.6038 122.089C-13.784 139.562 -14.5833 156.951 -5.50234 172.056ZM44.2736 98.6541C43.0598 100.042 42.147 100.932 41.4137 101.945C38.6576 105.758 36.4731 109.803 32.8104 113.168C27.5774 117.977 25.0864 124.378 25.0408 132.667C31.9785 124.374 39.149 117.858 43.4913 109.131C45.0469 106.004 46.5593 102.801 44.2736 98.6541ZM13.0776 127.097C17.0906 121.609 20.1869 116.866 23.8048 112.551C28.2141 107.289 28.4306 107.299 26.2644 100.037C19.9954 108.102 12.6469 115.594 13.0776 127.097ZM14.4362 131.271C15.142 134.562 16.1445 137.48 16.3145 140.523C16.4806 143.527 15.8067 146.657 15.5016 149.732C19.3737 137.935 21.6246 125.928 25.8538 114.063C21.9315 119.975 18.0073 125.889 14.4362 131.271ZM22.797 92.8976C14.7773 96.8928 12.6093 101.224 13.5944 110.702C21.8979 102.664 24.055 98.6429 22.797 92.8976ZM8.22083 98.2354C10.0535 98.0896 11.2795 98.3818 11.8716 97.8815C15.1755 95.0882 18.3342 92.1164 21.5231 89.1844C24.5782 86.3732 24.6272 85.8816 22.0098 80.194C16.4005 85.4639 12.2414 91.1918 8.22083 98.2354ZM32.4738 102.729C38.2533 101.744 40.7462 99.6382 40.9453 95.997C41.2034 91.2171 39.6173 89.339 34.3976 88.5895C33.7777 93.1509 33.1586 97.686 32.4738 102.729ZM0.81316 101.237C1.03819 101.376 1.26092 101.516 1.48558 101.653C2.85004 97.6183 4.56047 93.6263 5.43556 89.5322C5.8809 87.4513 5.08015 85.0715 4.36869 83.0306C3.764 81.3028 2.22098 80.7266 0.555559 81.9472C0.640806 88.4637 0.726959 94.8501 0.81316 101.237ZM-1.69872 164.016C-1.2091 163.865 -0.71755 163.71 -0.22793 163.559C0.552402 158.729 1.86305 153.838 -0.937123 149.141C-3.8163 150.222 -5.49958 151.693 -4.50801 154.827C-3.5419 157.876 -2.63374 160.952 -1.69872 164.016ZM-10.4269 84.2703C-11.8867 86.1429 -13.3692 87.327 -13.2126 87.9559C-12.0778 92.4973 -11.0927 97.225 -6.13035 99.5974C-7.4697 94.8192 -8.80872 90.0433 -10.4269 84.2703ZM-3.87849 96.2369C-1.3895 91.549 -2.06315 87.5081 -3.88411 83.7339C-4.18549 83.1106 -5.36223 82.9784 -7.08663 82.1762C-5.85967 87.5586 -4.86911 91.8978 -3.87849 96.2369ZM8.60856 81.8394C9.13641 84.0941 9.58788 86.0161 10.2113 88.6647C12.7666 85.9246 15.0342 84.2224 14.5049 80.7781C12.6562 81.1097 11.0282 81.4024 8.60856 81.8394Z" fill="#FEC94E" fill-opacity="0.8"/>
<path opacity="0.44" d="M29.1246 321.225C21.3136 311.03 17.3389 299.227 15.7925 286.953C14.3963 275.872 10.5145 266.382 5.34523 257.294C-0.223521 247.507 -2.31446 236.295 -5.74583 225.632C-6.43 223.51 -6.71098 221.246 -4.30784 219.283C-1.97255 217.374 -0.258674 218.388 1.99914 219.031C12.8316 222.112 21.424 228.96 30.1063 235.166C45.2271 245.981 60.6717 256.574 73.1379 270.651C76.4721 274.416 77.5738 278.425 75.6543 283.497C71.3862 294.782 64.3497 304.069 54.5932 311.389C51.3169 313.848 48.2663 316.812 44.7166 318.645C41.7484 320.178 38.2191 320.551 34.9138 321.146C33.0706 321.478 31.177 321.218 29.1246 321.225ZM53.6606 294.418C51.4935 292.684 49.5114 290.653 47.126 289.262C30.613 279.638 19.4826 265.165 11.1939 248.13C10.0859 245.852 9.65132 243.207 8.7045 240.829C6.61193 235.571 3.5349 231.072 -1.29472 227.873C-0.983657 230.962 0.00103157 233.746 0.54638 236.655C2.61758 247.666 9.88503 255.857 13.9478 265.781C14.2476 266.514 14.8766 267.091 15.3901 267.708C25.5883 279.972 38.2963 288.949 53.6606 294.418ZM22.7582 259.584C28.7256 273.606 40.919 280.944 53.2597 288.126C47.5485 273.91 36.1042 265.759 22.7582 259.584ZM43.1006 249.968C50.0296 261.405 55.7784 274.194 71.9171 275.091C63.2325 265.66 55.0058 255.709 43.1006 249.968ZM31.7326 259.133C24.503 247.972 21.4794 234.941 8.28731 229.816C12.7811 244.664 18.8146 253.306 31.7326 259.133ZM22.6899 235.765C24.4963 239.075 26.8092 242.171 27.9991 245.74C30.3206 252.705 35.2074 257.296 40.6603 261.444C42.0462 262.5 44.0014 262.832 45.6959 263.496C39.5652 252.451 34.3042 241.177 22.6899 235.765ZM30.9567 292.85C31.0936 298.863 31.2519 304.8 31.3589 310.745C31.4881 317.906 33.1706 318.812 39.9713 315.314C36.9063 300.765 35.2768 296.682 30.9567 292.85ZM20.0422 282.544C21.8053 291.816 22.2721 301.614 27.5216 310.439C28.2978 299.536 28.1965 289.691 20.0422 282.544ZM43.6518 313.613C46.4845 312.069 48.4896 310.975 51.0028 309.603C46.5051 305.872 44.475 300.343 38.0253 297.148C40.1356 303.321 41.7983 308.189 43.6518 313.613ZM59.4945 288.795C58.097 281.368 53.9319 275.262 49.81 269.142C48.4483 267.119 46.4683 266.737 44.1504 267.257C49.3921 274.61 54.4511 281.713 59.4945 288.795ZM59.4822 277C61.1436 283.115 62.8697 289.474 64.5225 295.566C68.5646 289.085 66.9374 282.884 59.4822 277ZM55.0884 305.321C54.458 301.208 49.3846 296.919 42.5104 294.79C46.9775 299.115 48.5516 304.648 55.0884 305.321ZM70.116 286.981C72.0693 284.455 73.7422 282.576 72.1304 280.332C71.6432 279.653 69.8683 279.963 67.9968 279.738C68.8132 282.531 69.3579 284.391 70.116 286.981Z" fill="#FEC94E" fill-opacity="0.8"/>
<path opacity="0.44" d="M100.504 161.294C97.9363 162.301 95.9093 162.544 94.6767 163.677C89.6625 168.287 83.7156 170.222 77.5875 171.994C70.5329 174.036 63.5332 176.352 56.5076 178.532C49.4597 180.721 42.4076 182.882 35.3567 185.067C30.7299 186.499 26.1083 187.949 21.4837 189.395C18.3025 190.388 15.2434 191.767 11.8999 190.332C10.6584 189.799 8.67951 190.749 5.96354 191.202C9.09307 187.335 11.472 184.359 13.8893 181.419C18.404 175.925 22.9777 170.477 27.436 164.939C28.203 163.986 29.1093 162.515 28.9371 161.558C28.1294 157.069 31.0524 153.755 33.4192 150.644C42.4338 138.788 51.4765 126.915 62.4827 116.722C65.7024 113.738 68.6674 113.357 72.5497 116.015C79.7759 120.959 86.0375 126.931 90.9331 134.277C95.3363 140.889 98.1087 148.331 100.145 156.118C100.583 157.789 100.408 159.675 100.504 161.294ZM23.172 175.566C33.699 169.831 41.8344 162.746 49.0383 154.573C55.4563 147.293 61.0795 139.21 71.0979 136.541C72.5561 136.152 73.7576 134.286 75.0765 133.104C74.8579 132.629 74.6416 132.153 74.4231 131.678C72.5337 132.152 70.5802 132.414 68.7673 133.134C56.4575 138.021 46.556 146.644 37.6269 156.301C32.4609 161.886 28.4056 168.501 23.172 175.566ZM85.6629 142.778C75.9512 146.749 66.4888 150.391 57.195 154.506C52.4327 156.614 48.0543 159.679 43.7021 164.667C49.294 164.043 53.5461 162.831 57.6252 160.403C65.91 155.47 74.0119 150.095 83.3148 147.543C85.4322 146.963 86.6001 145.57 85.6629 142.778ZM79.5552 131.793C77.0077 137.693 71.915 138.647 67.439 140.856C62.9366 143.075 58.6212 145.899 56.1637 152.086C62.7856 149.151 68.5443 146.649 74.2667 144.051C80.6762 141.141 81.2823 139.811 79.5552 131.793ZM24.7053 184.398C39.1124 182.453 52.7838 177.206 66.3611 171.527C51.4177 171.058 38.0136 177.521 24.7053 184.398ZM39.8513 147.833C49.6647 141.556 58.2266 133.999 64.1699 123.787C64.5716 123.098 64.2213 122.012 64.2192 120.569C52.9852 127.576 47.4378 138.597 39.8513 147.833ZM24.295 180.011C34.9523 175.385 46.4391 172.883 57.3252 164.775C44.2075 167.063 32.9387 170.052 24.295 180.011ZM84.2619 157.161C74.9996 157.884 67.4951 163.14 59.9389 168.262C68.915 166.948 77.8876 165.642 84.2619 157.161ZM89.648 148.724C84.5047 150.565 78.425 149.871 74.0407 156.102C80.331 154.508 86.0706 154.403 89.648 148.724ZM62.3766 132.616C66.7951 130.878 70.6002 129.382 74.7063 127.766C74.3074 126.401 73.943 125.151 73.5549 123.826C67.8663 124.12 65.013 127.651 62.3766 132.616ZM79.9276 168.52C85.1752 167.324 89.4568 165.36 92.5405 160.457C85.3784 158.466 83.555 164.587 79.9276 168.52ZM94.5512 151.888C93.1282 153.572 92.3281 154.45 91.6386 155.401C91.5093 155.58 91.8226 156.06 91.9327 156.399C95.2272 155.945 95.2272 155.945 94.5512 151.888ZM84.0515 138.354C86.7916 135.997 86.7916 135.997 84.4131 132.822C84.2712 134.992 84.1767 136.42 84.0515 138.354Z" fill="#FEC94E" fill-opacity="0.8"/>
<path d="M95.4529 316.366C97.3414 315.892 99.2276 315.418 101.116 314.944C101.293 315.362 101.47 315.781 101.644 316.202C99.8977 317.606 98.1534 319.009 95.708 320.973C95.6803 318.944 95.6626 317.517 95.6423 316.088L95.4529 316.366Z" fill="#BB9F87" fill-opacity="0.5"/>
<path d="M135.397 260.801C134.427 262.618 133.539 264.282 132.621 266.001C130.095 262.091 130.402 261.47 135.397 260.801Z" fill="#BB9F87" fill-opacity="0.5"/>
<path d="M119.844 278.466C121.285 277.401 122.727 276.336 124.168 275.271C124.452 275.508 124.736 275.742 125.022 275.978C124.237 277.715 123.451 279.455 122.372 281.841C121.218 280.138 120.596 279.22 119.965 278.314C119.955 278.326 119.844 278.466 119.844 278.466Z" fill="#BB9F87" fill-opacity="0.5"/>
<path d="M140.458 210C142.601 209.888 144.054 210.227 143.595 212.543C143.503 213.004 142.744 213.754 142.339 213.76C140.126 213.793 139.87 212.363 140.458 210Z" fill="#BB9F87" fill-opacity="0.5"/>
<path d="M136.615 160.876C135.646 159.867 134.804 159.352 134.558 158.593C134.418 158.157 135.24 157.323 135.63 156.669C136.377 157.142 137.354 157.457 137.773 158.149C137.991 158.503 137.22 159.526 136.615 160.876Z" fill="#BB9F87" fill-opacity="0.5"/>
<path d="M60.8815 53.8922C59.8509 53.0422 58.8204 52.1921 57.1654 50.827C60.6021 49.7685 61.5992 50.7373 60.8815 53.8922Z" fill="#BB9F87" fill-opacity="0.5"/>
<path d="M114.197 100.944C113.397 100.467 112.557 100.037 111.843 99.4543C111.75 99.3789 112.309 98.5183 112.567 98.0195C113.451 98.5222 114.336 99.0249 115.22 99.5277C114.878 100.001 114.538 100.473 114.197 100.944Z" fill="#BB9F87" fill-opacity="0.5"/>
<path d="M139.252 235.792C138.6 234.747 137.91 234.165 137.97 233.593C138.033 232.996 138.821 232.409 139.291 231.817C139.779 232.266 140.65 232.672 140.661 233.175C140.672 233.807 139.98 234.521 139.252 235.792Z" fill="#BB9F87" fill-opacity="0.5"/>
<path d="M136.099 201.115C137.1 200.088 137.627 199.159 138.143 199.116C138.785 199.062 139.419 199.739 140.055 200.101C139.569 200.707 139.172 201.589 138.572 201.833C138.061 202.041 137.317 201.505 136.099 201.115Z" fill="#BB9F87" fill-opacity="0.5"/>
<path d="M135.115 139.365C134.223 140.322 133.734 141.174 133.068 141.439C132.68 141.593 131.537 140.822 131.559 140.44C131.596 139.81 132.212 138.803 132.755 138.613C133.318 138.413 134.085 138.998 135.115 139.365Z" fill="#BB9F87" fill-opacity="0.5"/>
</svg>
