<svg width="44" height="37" viewBox="0 0 44 37" fill="none" xmlns="http://www.w3.org/2000/svg">
<path d="M38.9432 4.64376C37.9643 3.68564 36.802 2.92559 35.5227 2.40704C34.2434 1.88848 32.8722 1.62158 31.4874 1.62158C30.1026 1.62158 28.7314 1.88848 27.4521 2.40704C26.1728 2.92559 25.0105 3.68564 24.0316 4.64376L21.9999 6.63125L19.9682 4.64376C17.9908 2.70933 15.3089 1.62258 12.5124 1.62258C9.71592 1.62258 7.03398 2.70933 5.05657 4.64376C3.07916 6.57818 1.96826 9.20182 1.96826 11.9375C1.96826 14.6732 3.07916 17.2968 5.05657 19.2313L21.9999 35.8063L38.9432 19.2313C39.9226 18.2736 40.6996 17.1365 41.2297 15.885C41.7597 14.6336 42.0326 13.2922 42.0326 11.9375C42.0326 10.5828 41.7597 9.24145 41.2297 7.98996C40.6996 6.73848 39.9226 5.60142 38.9432 4.64376Z" fill="#022601" stroke="#022601" stroke-width="2" stroke-linecap="round" stroke-linejoin="round"/>
</svg>
