<svg width="46" height="45" viewBox="0 0 46 45" fill="none" xmlns="http://www.w3.org/2000/svg">
<path d="M39.9437 8.64327C38.9648 7.68515 37.8024 6.9251 36.5232 6.40655C35.2439 5.88799 33.8727 5.62109 32.4879 5.62109C31.1031 5.62109 29.7319 5.88799 28.4526 6.40655C27.1733 6.9251 26.011 7.68515 25.0321 8.64327L23.0004 10.6308L20.9687 8.64327C18.9913 6.70884 16.3094 5.6221 13.5129 5.6221C10.7164 5.6221 8.03447 6.70884 6.05706 8.64327C4.07965 10.5777 2.96875 13.2013 2.96875 15.937C2.96875 18.6727 4.07965 21.2963 6.05706 23.2308L23.0004 39.8058L39.9437 23.2308C40.9231 22.2731 41.7001 21.136 42.2301 19.8846C42.7602 18.6331 43.0331 17.2917 43.0331 15.937C43.0331 14.5824 42.7602 13.241 42.2301 11.9895C41.7001 10.738 40.9231 9.60093 39.9437 8.64327Z" stroke="#022601" stroke-width="2" stroke-linecap="round" stroke-linejoin="round"/>
</svg>
