<svg width="32" height="29" viewBox="0 0 32 29" fill="none" xmlns="http://www.w3.org/2000/svg">
<path d="M28.5232 3.53086C27.7996 2.80695 26.9405 2.23269 25.9949 1.84089C25.0494 1.4491 24.0359 1.24744 23.0123 1.24744C21.9888 1.24744 20.9753 1.4491 20.0298 1.84089C19.0842 2.23269 18.2251 2.80695 17.5015 3.53086L15.9998 5.03252L14.4982 3.53086C13.0366 2.06929 11.0543 1.24819 8.98734 1.24819C6.92038 1.24819 4.93807 2.06929 3.47651 3.53086C2.01495 4.99242 1.19385 6.97473 1.19385 9.04169C1.19385 11.1087 2.01495 13.091 3.47651 14.5525L15.9998 27.0759L28.5232 14.5525C29.2471 13.829 29.8213 12.9698 30.2131 12.0243C30.6049 11.0787 30.8066 10.0652 30.8066 9.04169C30.8066 8.01816 30.6049 7.00467 30.2131 6.0591C29.8213 5.11354 29.2471 4.25443 28.5232 3.53086Z" fill="#022601" stroke="#022601" stroke-width="2" stroke-linecap="round" stroke-linejoin="round"/>
</svg>
