<svg width="114" height="114" viewBox="0 0 114 114" fill="none" xmlns="http://www.w3.org/2000/svg">
<circle cx="57" cy="57" r="57" fill="#022601"/>
<path d="M73.0404 40.6875H73.0695M42.4154 27.75H71.582C79.6362 27.75 86.1654 34.1859 86.1654 42.125V70.875C86.1654 78.8141 79.6362 85.25 71.582 85.25H42.4154C34.3612 85.25 27.832 78.8141 27.832 70.875V42.125C27.832 34.1859 34.3612 27.75 42.4154 27.75ZM68.6654 54.6887C69.0253 57.0815 68.6107 59.5251 67.4805 61.6722C66.3503 63.8192 64.562 65.5603 62.3701 66.6478C60.1782 67.7353 57.6942 68.1138 55.2714 67.7296C52.8486 67.3453 50.6105 66.2177 48.8753 64.5073C47.1401 62.7969 45.9962 60.5908 45.6064 58.2026C45.2165 55.8145 45.6006 53.3659 46.7038 51.2053C47.8071 49.0447 49.5734 47.282 51.7516 46.1679C53.9297 45.0539 56.4088 44.6452 58.8362 45C61.3122 45.3619 63.6045 46.4992 65.3745 48.2439C67.1444 49.9886 68.2982 52.2481 68.6654 54.6887Z" stroke="#EFE4DC" stroke-width="4" stroke-linecap="round" stroke-linejoin="round"/>
</svg>
