<?xml version="1.0" encoding="UTF-8"?>
<svg id="Layer_1" xmlns="http://www.w3.org/2000/svg" version="1.1" viewBox="0 0 366.1 120.5">
  <!-- Generator: Adobe Illustrator 29.5.1, SVG Export Plug-In . SVG Version: 2.1.0 Build 141)  -->
  <defs>
    <style>
      .st0 {
        stroke: #efe4dc;
        stroke-miterlimit: 10;
      }

      .st0, .st1 {
        fill: #efe4dc;
      }
    </style>
  </defs>
  <g>
    <path class="st1" d="M8.8,36.4v7.1h-.4c0-1.7-.6-3.1-1.9-4.2-1.3-1.1-2.8-1.7-4.6-1.7H0v-1.2h8.8ZM16.3,36.4v51.8c0,5.7,1.1,10.6,3.2,14.9s5.2,7.7,9.1,10.1,8.4,3.6,13.5,3.6,10.2-1.1,14.2-3.4c4-2.3,7.2-5.4,9.5-9.5,2.3-4,3.4-8.8,3.4-14.2v-53.3h5.7v53.3c0,6.1-1.4,11.5-4.1,16.1-2.7,4.6-6.6,8.2-11.5,10.8-5,2.6-10.7,3.9-17.3,3.9s-12.6-1.3-17.7-3.8-9-6.1-11.8-10.7-4.2-9.9-4.2-16.1v-53.4h7.9,0ZM24.7,36.4v1.2h-2c-1.8,0-3.3.5-4.6,1.7-1.3,1.1-1.9,2.5-1.9,4.2h-.2v-7.1h8.6,0ZM69.6,36.4v7.1h-.4c0-1.7-.6-3.1-1.9-4.2-1.3-1.1-2.8-1.7-4.6-1.7h-2v-1.2h8.8ZM83.3,36.4v1.2h-1.9c-1.8,0-3.3.5-4.6,1.7-1.3,1.1-1.9,2.5-1.9,4.2h-.2v-7.1h8.6,0Z"/>
    <path class="st1" d="M102.3,110.2v8.6h-13.5v-1.2h1.9c2.2,0,4.1-.7,5.8-1.9s2.7-3.1,3-5.5h2.7,0ZM108.7,34.8h1.2l2.4,6.9-7.2,77.1h-6.6s10.1-84,10.1-84ZM105.8,112.1v.6c0,1.3.5,2.4,1.4,3.5s2.1,1.6,3.3,1.6h1.8v1.1h-7.4v-6.7s.9,0,.9,0ZM110,34.8l35,73.3-2.8,12.4-34.6-72.5,2.3-13.2h0ZM177.1,34.8l1,7.9-30.5,65.8c-1.2,2.7-2.1,4.9-2.8,6.8-.6,1.8-1.1,3.6-1.3,5.2h-1.2l-1.7-7.4,36.6-78.3h0ZM178.6,112.1h.9v6.7h-7.4v-1.1h1.8c1.4,0,2.5-.5,3.4-1.6.9-1.1,1.3-2.2,1.3-3.5v-.6h0ZM178.2,34.8l10.5,84h-9.5l-6.7-71.3,4.6-12.7s1.1,0,1.1,0ZM185,110.2h2.6c.4,2.3,1.5,4.2,3.2,5.5,1.7,1.3,3.6,1.9,5.7,1.9h1.9v1.2h-13.4v-8.6Z"/>
    <path class="st1" d="M212.6,36.4v7.1h-.4c0-1.7-.6-3.1-1.9-4.2-1.3-1.1-2.8-1.7-4.6-1.7h-1.9v-1.2h8.8ZM220.2,36.4v51.8c0,5.7,1.1,10.6,3.2,14.9s5.2,7.7,9.1,10.1,8.4,3.6,13.5,3.6,10.2-1.1,14.2-3.4c4-2.3,7.2-5.4,9.5-9.5,2.3-4,3.4-8.8,3.4-14.2v-53.3h5.7v53.3c0,6.1-1.4,11.5-4.1,16.1-2.7,4.6-6.5,8.2-11.5,10.8-5,2.6-10.7,3.9-17.3,3.9s-12.6-1.3-17.7-3.8c-5.1-2.6-9-6.1-11.8-10.7s-4.2-9.9-4.2-16.1v-53.4h7.9ZM228.6,36.4v1.2h-1.9c-1.8,0-3.3.5-4.6,1.7-1.3,1.1-1.9,2.5-1.9,4.2h-.2v-7.1h8.6ZM273.4,36.4v7.1h-.4c0-1.7-.6-3.1-1.9-4.2-1.3-1.1-2.8-1.7-4.6-1.7h-2v-1.2h8.8ZM287.2,36.4v1.2h-2c-1.8,0-3.3.5-4.6,1.7-1.3,1.1-1.9,2.5-1.9,4.2h-.2v-7.1h8.6Z"/>
    <path class="st1" d="M295.7,34.2c.8.3,2,.6,3.7.9,1.7.3,3.5.6,5.5.8,2,.2,3.9.3,5.6.3l-14.8,1.3s0-3.4,0-3.4ZM366.1,36.3v3.5h-70.4v-3.5h70.4ZM304.1,39.5v.3c-2,0-3.7.8-5.1,2.1s-2.1,3-2.1,4.9v2h-1.2c0,.1,0-9.4,0-9.4,0,0,8.4,0,8.4,0ZM327.3,110.2v8.6h-9.7v-1.2h1.6c2.1,0,3.9-.7,5.4-2.2,1.5-1.4,2.3-3.2,2.4-5.2h.4ZM334.9,36.8v82h-7.9V36.8h7.9ZM334.5,110.2h.4c0,2,.9,3.8,2.4,5.2s3.3,2.2,5.4,2.2h1.6v1.2h-9.7v-8.6h0ZM366.1,34.2v3.4l-14.8-1.3c1.8,0,3.7-.1,5.7-.3,2-.2,3.8-.5,5.5-.8s2.9-.6,3.6-.9ZM366.1,39.5v9.5h-1.2v-2.1c0-2-.7-3.6-2.1-4.9-1.4-1.3-3.1-2-5-2.1v-.3s8.4,0,8.4,0Z"/>
  </g>
  <path class="st0" d="M192.2,8.6s17.8,2.9,18.2,19.2c0,0-15.3,4.7-18.2-19.2Z"/>
  <path class="st0" d="M213.2,23.7s-1-20.3,20-23.2c0,0,.5,23.5-20,23.2Z"/>
  <path class="st0" d="M213.2,23.7l-.8,13.3c0-7.9-2-9.1-2-9.1"/>
</svg>