<svg width="114" height="114" viewBox="0 0 114 114" fill="none" xmlns="http://www.w3.org/2000/svg">
<rect width="114" height="114" rx="57" fill="#022601"/>
<path d="M83.5477 38.1646C80.1102 37.4277 76.9975 35.6097 74.6633 32.9756C72.3291 30.3415 70.8954 27.0291 70.5713 23.5213V22H58.7136V69.1622C58.7062 71.2502 58.0463 73.2833 56.8265 74.976C55.6067 76.6686 53.8884 77.9357 51.913 78.5992C49.9376 79.2626 47.8044 79.2891 45.8132 78.6749C43.8221 78.0607 42.0729 76.8366 40.8117 75.1748C39.5309 73.4851 38.8203 71.4305 38.7832 69.3089C38.746 67.1873 39.3842 65.1089 40.6051 63.3753C41.8259 61.6416 43.5661 60.3428 45.5732 59.6671C47.5803 58.9914 49.75 58.9739 51.7676 59.6173V47.5439C47.2684 46.9206 42.6873 47.7222 38.6651 49.8367C34.6429 51.9512 31.3807 55.2728 29.3349 59.3368C27.2891 63.4009 26.562 68.0042 27.2553 72.5028C27.9485 77.0014 30.0275 81.1703 33.2014 84.4265C36.2282 87.5302 40.1091 89.6596 44.3489 90.5429C48.5886 91.4262 52.9949 91.0233 57.0051 89.3857C61.0154 87.748 64.4477 84.9498 66.8641 81.3484C69.2804 77.7469 70.571 73.5056 70.5713 69.1657V45.0671C75.3634 48.5006 81.1092 50.3416 87 50.3311V38.5233C85.8399 38.5248 84.6828 38.4045 83.5477 38.1646Z" fill="#EFE4DC"/>
</svg>
