<?xml version="1.0" encoding="UTF-8"?>
<svg id="Layer_1" data-name="Layer 1" xmlns="http://www.w3.org/2000/svg" viewBox="0 0 168.88 202.87">
  <defs>
    <style>
      .cls-1 {
        fill: #070707;
      }

      .cls-1, .cls-2, .cls-3 {
        stroke: #022601;
        stroke-miterlimit: 10;
      }

      .cls-2 {
        fill: #020202;
      }

      .cls-3 {
        fill: none;
      }
    </style>
  </defs>
  <path class="cls-3" d="M135.25,159.29s1.65,1.43.92,2.05"/>
  <path class="cls-3" d="M57.86,60.63c.09-1.99.86-3.91,2.25-5.42.65-.71,1.4-1.27,2.09-1.27,0,0,14.6-.3,16.77-.41,4.88-.25,3.27,11.41,2.07,13.73-.91,1.77-.67,3.54-5.5,5.36-2.3.87-5.58.72-8.19.53-3.7-.26-6.96-2.44-8.32-5.64-.76-1.79-1.3-4.08-1.17-6.88h0Z"/>
  <path class="cls-3" d="M88.21,58.97c-.36-1.93.47-3.88,2.11-4.96s4.14-2.24,6.97-2.09c3.46.18,6.93.13,9,.06,1.79-.06,3.51.84,4.35,2.42.27.51.45,1.07.45,1.68v9.49c0,1.12-.38,2.22-1.1,3.08-.96,1.14-2.41,2.53-3.88,2.53h-9.72c-1.46,0-2.85-.66-3.77-1.79-1.46-1.79-3.42-5.07-4.41-10.42Z"/>
  <path class="cls-3" d="M81.71,56.93s5.38-2.04,5.94,0"/>
  <path class="cls-3" d="M57.84,58.24l-5.23,1.12-6.56,3.19s-.39-21.56,5.9-24.74c0,0,10.64,1.78,18.12-7.59,0,0,12.02-.37,14.62-4.31,0,0,5.24-5.42,12.72,0,0,0,17.24,10.12,16.5,28.68,0,0,.06,14.78,1.63,15.36s1.99,9.69,1.99,9.69c0,0-2.56,9.75-3.5,9.86l-.82-.43s-8.29,17.47-11.84,19.64l10.41,12.77-1.41,3.02s4.83,7.84,2.21,12.26l-11.46-1.61"/>
  <path class="cls-3" d="M75.53,72.61s-.29,3.71,2.04,3.43,3.35-.52,4.14.01,1.59,2.18,2.97,2.18,2.65-.14,3.45-.82,3.43-3.31,4.27-1.99c0,0,3.57.07,1.59-3.89l-1.37-2.15"/>
  <path class="cls-3" d="M46.04,62.55c.55,2.97,2.11,9.6-1.52,11.26-.93-2.47-3.27-6.26-6.04-6.92-2.03-.67-3.47,1.49-4.19,3.65-1.44,5.75,1.44,10.79,4.32,15.82,2.16,4.32,6.47,4.32,10.07,5.04,5.04,6.47,4.32,14.39,2.88,21.58-1.44,7.19-7.19,10.79-12.95,14.39-10.79,6.47-22.3,10.79-30.93,20.14-4.32,5.75-5.75,12.23-7.19,18.7"/>
  <path class="cls-3" d="M36.49,66.91s-5.15-20.07-3.81-23.75c0,0,2.58-3.01,1.79-5.69l4.23-7.03s4.69-5.19,4.69-6.95,6.36-6.78,8.04-6.78,9.71-5.02,9.04-6.36l.67,1.34s1.56-1.11,1.73-1.99c0,0,4.39-3.51,4.39-4.56s-.35-3.51-1.05-3.69,2.63-1.58,4.3-.61c0,0,1.51,1.84,1.81,4.39,0,0,12.41-2.19,14.34-1.4,0,0,5.44,5.97,11.23,8.95,0,0,7.37-.79,9.92,2.63,0,0,2.46,4.91,1.14,9.48,0,0,6.14,3.86,7.81,7.55,0,0,3.25,2.98,3.25,5s-.09,6.58.35,7.37,1.76.88,1.05,4.56c0,0-.53,1.84-2.54,3.86,0,0-1.76,5.09-2.9,6.41l-1.6,5.69"/>
  <path class="cls-3" d="M70.15,86.7s-.03-.03,0-.04c.82-.43,8.05-4.17,14.54-3.86,0,0,8.78,0,12.06,3.86,0,.02.54.05.52.04-.61-.06-1.51-.42-4.77-.42,0,0-6.52-.23-6.74-.23h-7.44l-8.16.65Z"/>
  <path class="cls-3" d="M70.78,87.87s1.73,7.91,13.81,7.21,12.2-7.21,12.2-7.21c-3.6,1.01-4.97,2.91-11.74,3.63,1.59-.39-4.09,1.79-14.27-3.63Z"/>
  <path class="cls-3" d="M65.04,85.93c2.24-3.71,6.35-6.33,10.85-6.33,5.99,0,12.35-.75,18.34.75,2.62,1.12,4.87,2.99,7.44,4.57"/>
  <path class="cls-3" d="M73.77,108.7s16.42,7.34,23.49,0"/>
  <path class="cls-3" d="M88.22,136.75c-.76-4.34-3.45-7.57-7.3-9.19,0-1.61.38-3.63-1.15-4.44-5-2.02-9.23-4.84-13.85-7.27-4.23-2.83-8.46-5.25-12.7-8.48-.38-.4-.38-.81-.67-1.08"/>
  <path class="cls-3" d="M102.01,111.75c-1.02,7.76-2.52,15.62-1.02,23.86,0,.75.37,1.5,0,2.25-1.5,2.62-2.25,5.99-2.25,8.98,0,.75,0,2.25-.75,1.87-3.37-.75-8.03-9.37-10.65-11.97l-9.34-7,1.2-6.67s-3.42,24.48-5.43,23.23c-2.01-1.25-21.46-25.16-26.08-26.36"/>
  <path class="cls-3" d="M111.77,121.47c-1.73,3.68,8.57,4.51,10.51,4.93,4.93,1.06,9.88,2.08,14.85,2.93,2.59.44,5.15.6,7.5,1.77s3.85,2.4,5.66,4.13c3.22,3.09,6.23,6.39,9.01,9.88,3.4,4.26,6.22,8.84,9.16,13.42"/>
  <path class="cls-3" d="M36.98,127.95s25.92,25.18,26.46,26.88c0,0,8.56.2,8.88-1.87.16-1.04-6.4-8.92-13.58-16.14-7.17-7.22-14.95-13.77-17.22-12.13l-4.54,3.27h0Z"/>
  <path class="cls-3" d="M63.44,154.83s3.52,6.35,8.88,3.27c0,0,2.76-.96,0-5.15"/>
  <line class="cls-3" x1="72.32" y1="158.1" x2="76.84" y2="161.95"/>
  <path class="cls-3" d="M80.62,166.2c2.49-.65,5.89.44,4.62,4.34-.51,1.56-2.98,2.58-4.76,1.73-1.48-.71-2.83-1.85-2.4-3.6.3-1.23,1.32-2.15,2.54-2.47h0Z"/>
  <path class="cls-3" d="M106.33,61.75c-3.61-3.35-7.21-3.63-7.21-3.63-4.22-.08-6.83,3.63-6.83,3.63"/>
  <line class="cls-3" x1="71.97" y1="53.51" x2="94.59" y2="52.15"/>
  <path class="cls-3" d="M76.84,161.95s4.09,2.08,2.92,4.6"/>
  <path class="cls-3" d="M114.11,136.05s.45-4.61,6.18-1.69l12.02,14.83-7.19,1.8s-6.18-12.47-11.01-14.94h0Z"/>
  <path class="cls-3" d="M124.98,150.26s.04.36.18.89c.43,1.58,1.78,4.66,5.67,3.95,0,0,3.01-.62,2.89-2.73-.12-2.11-1.91-3.26-1.91-3.26"/>
  <path class="cls-3" d="M133.07,154.81s4.15,1.93,4.57,2.88"/>
  <path class="cls-3" d="M92.95,61.77s2.39-.17,2.6,0"/>
  <path class="cls-3" d="M101.57,61.54s3.23-.27,3.62,0"/>
  <path class="cls-3" d="M68.49,164.59c22.94-4.13,52.12-6.3,75.13-4.14,6.47,4.32,6.47,12.23,9.11,17.73"/>
  <path class="cls-3" d="M71.88,202.77c2.42-12.38.7-26.32-3.38-38.18"/>
  <path class="cls-3" d="M30.74,168.64c12.19,8.35,28.01,16.26,31.53,33.08"/>
  <path class="cls-3" d="M53.68,101.85s15.66,9.92,18.28,10.11"/>
  <path class="cls-1" d="M100.51,58.35s1.24,1.97.06,3.81c-1.11,1.73-4.29,0-4.29,0-1.28-1.95,0-3.55,0-3.55"/>
  <g>
    <path class="cls-3" d="M61.53,64.21s1.68-1.56,2.97-1.26"/>
    <path class="cls-3" d="M60.49,63.91s2.68-4.77,7.63-5.03c0,0,4.45.67,5.64,1.47s3.07,1.7,3.07,1.7"/>
    <ellipse class="cls-2" cx="67.7" cy="61.39" rx="2.69" ry="2.16"/>
    <path class="cls-3" d="M70.39,62.35s5.28-.83,5.82-.22"/>
  </g>
  <line class="cls-3" x1="131.42" y1="154.81" x2="135.27" y2="159.32"/>
  <path class="cls-3" d="M134.11,161.49c2.49-.65,5.89.44,4.62,4.34-.51,1.56-2.98,2.58-4.76,1.73-1.48-.71-2.83-1.85-2.4-3.6.3-1.23,1.32-2.15,2.54-2.47h0Z"/>
</svg>