<svg width="114" height="114" viewBox="0 0 114 114" fill="none" xmlns="http://www.w3.org/2000/svg">
<circle cx="57" cy="57" r="57" fill="#022601"/>
<path d="M88.5583 40.5268C88.197 39.0833 87.4611 37.7607 86.425 36.6925C85.389 35.6244 84.0893 34.8486 82.6575 34.4435C77.4258 33.166 56.4991 33.166 56.4991 33.166C56.4991 33.166 35.5725 33.166 30.3408 34.5652C28.9089 34.9703 27.6093 35.7461 26.5732 36.8142C25.5371 37.8823 24.8013 39.205 24.44 40.6485C23.4825 45.9579 23.0141 51.344 23.0408 56.7389C23.0067 62.1745 23.4751 67.6016 24.44 72.951C24.8383 74.3497 25.5907 75.622 26.6243 76.6451C27.658 77.6681 28.938 78.4072 30.3408 78.791C35.5725 80.1902 56.4991 80.1902 56.4991 80.1902C56.4991 80.1902 77.4258 80.1902 82.6575 78.791C84.0893 78.3859 85.389 77.6101 86.425 76.542C87.4611 75.4739 88.197 74.1512 88.5583 72.7077C89.5084 67.4383 89.9767 62.0933 89.9575 56.7389C89.9916 51.3033 89.5232 45.8762 88.5583 40.5268Z" stroke="#EFE4DC" stroke-width="4" stroke-linecap="round" stroke-linejoin="round"/>
<path d="M49.6554 66.6852L67.145 56.7389L49.6554 46.7927V66.6852Z" stroke="#EFE4DC" stroke-width="4" stroke-linecap="round" stroke-linejoin="round"/>
</svg>
