<svg width="265" height="382" viewBox="0 0 265 382" fill="none" xmlns="http://www.w3.org/2000/svg">
<path d="M197.358 114.82C196.278 116.855 191.68 118.561 188.964 117.539C187.141 116.853 185.018 116.449 183.927 114.402C183.587 113.762 182.736 113.413 182.3 112.802C181.093 111.108 180.457 109.186 181.032 107.131C181.813 104.348 183.487 102.108 185.748 100.316C187.088 99.2541 188.684 99.4112 190.24 99.4286C194.042 99.4696 196.774 101.352 198.491 104.601C200.299 108.017 199.757 111.347 197.358 114.82ZM187.688 112.183C186.871 112.227 186.055 112.273 185.238 112.318C185.25 112.425 185.262 112.53 185.274 112.637C186.165 112.98 186.971 112.836 187.681 112.152C189.237 111.689 190.143 109.98 191.81 109.728C191.887 109.847 191.963 109.968 192.039 110.088C190.976 110.845 189.915 111.603 188.797 112.4C190.123 112.775 190.115 112.767 191.774 111.362C192.012 111.162 192.36 111.094 192.659 110.965C192.652 111.365 192.785 111.851 192.606 112.147C192.241 112.752 191.705 113.256 191.239 113.8C191.643 113.739 191.996 113.581 192.281 113.342C192.673 113.012 192.983 112.584 193.386 112.273C193.58 112.126 193.909 112.153 194.178 112.102C194.209 112.367 194.339 112.676 194.247 112.885C194.128 113.154 193.831 113.346 193.607 113.567C193.385 113.783 193.165 114.001 192.933 114.208C192.771 114.353 192.601 114.494 192.416 114.606C191.862 114.941 191.299 115.258 190.741 115.584C190.787 115.686 190.835 115.788 190.88 115.89C191.359 115.779 191.962 115.815 192.293 115.532C193.149 114.799 193.878 113.916 194.679 113.115C194.911 112.885 195.217 112.727 195.489 112.536C195.626 112.838 195.765 113.139 195.811 113.244C194.954 114.07 194.254 114.746 193.417 115.553C193.852 115.529 194.16 115.607 194.272 115.492C195.358 114.384 196.629 113.374 197.421 112.076C198.41 110.459 198.714 108.422 198.016 106.678C196.165 102.056 193.401 100.279 188.337 100.75C188.512 101.006 188.702 101.284 188.959 101.664C187.13 101.819 185.618 102.216 184.183 103.555C187.561 102.89 187.561 102.89 187.941 103.296C186.099 104.144 183.672 103.978 182.504 106.421C184.329 105.949 185.621 104.48 187.486 104.879C185.733 105.749 183.981 106.617 182.227 107.486C182.254 107.58 182.281 107.676 182.308 107.771C182.908 107.616 183.533 107.522 184.101 107.292C184.876 106.977 185.6 106.539 186.362 106.188C186.965 105.91 187.433 106.001 187.657 106.66C186.795 106.945 186.067 107.186 185.321 107.431C185.778 108.369 186.226 107.972 186.717 107.671C187.565 107.147 187.751 107.222 187.944 108.02C187.102 108.417 186.261 108.813 185.417 109.21C185.469 109.326 185.518 109.442 185.569 109.559C186.485 109.282 187.399 109.005 188.315 108.728C188.38 108.861 188.448 108.993 188.513 109.126C187.355 109.804 186.197 110.483 185.039 111.161C185.084 111.243 185.13 111.324 185.175 111.406C185.483 111.272 185.802 111.158 186.097 111C187.176 110.422 188.236 109.805 189.332 109.263C189.534 109.164 189.871 109.337 190.146 109.383C189.967 109.577 189.824 109.828 189.606 109.955C188.795 110.426 187.96 110.853 187.243 111.238C187.438 111.647 187.563 111.914 187.688 112.183ZM189.217 113.622C189.156 113.452 189.094 113.284 189.032 113.114C187.906 113.493 186.78 113.871 185.654 114.25C185.658 114.368 185.661 114.485 185.665 114.602C186.119 114.827 186.574 115.054 186.839 115.186C187.18 114.729 187.344 114.316 187.645 114.148C188.121 113.885 188.689 113.789 189.217 113.622ZM182.964 111.373C183.627 110.995 184.276 110.627 185.195 110.106C182.914 110.352 182.784 110.432 182.964 111.373Z" fill="#B5BF65"/>
<path d="M211.652 160.555C209.496 158.979 208.38 157.534 208.136 155.851C207.797 153.505 207.831 151.068 208.772 148.791C209.288 147.544 209.783 146.259 210.518 145.142C211.575 143.535 213.229 142.635 215.13 142.558C218.837 142.406 221.661 144.149 223.402 147.311C224.069 148.522 224.038 150.15 224.191 151.601C224.387 153.459 223.945 155.187 223.277 156.969C221.96 160.483 219.107 161.673 215.9 161.872C214.252 161.975 212.528 160.85 211.652 160.555ZM211.014 151.071C211.858 151.263 212.383 151.516 212.877 151.467C213.847 151.371 213.84 151.3 214.087 151.596C213.22 151.921 212.327 152.256 211.434 152.592C211.467 152.742 211.499 152.892 211.531 153.042C212.058 153.011 212.597 153.041 213.108 152.933C213.706 152.805 214.278 152.558 214.861 152.361C214.936 152.613 215.01 152.864 215.084 153.115C214.114 153.441 213.142 153.768 212.153 154.1C213.49 155.559 214.766 153.826 216.311 154.42C215.508 155.069 214.906 155.555 214.309 156.039C215.186 155.786 216.025 155.542 217.062 155.243C216.766 156.897 215.273 156.8 214.564 157.723C215.698 157.268 216.7 156.838 217.727 156.472C217.917 156.404 218.197 156.589 218.435 156.658C218.275 156.815 218.141 157.039 217.95 157.118C216.947 157.531 215.927 157.906 214.913 158.293C214.946 158.428 214.98 158.562 215.014 158.697C215.902 158.503 216.818 158.393 217.669 158.094C218.382 157.842 219.007 157.351 219.694 157.01C219.875 156.921 220.14 157 220.366 157.001C220.39 157.101 220.415 157.202 220.438 157.303C219.015 158.141 217.591 158.978 216.168 159.816C216.253 159.957 216.339 160.099 216.424 160.24C217.789 159.441 219.123 158.585 220.527 157.863C221.796 157.21 222.241 156.075 222.61 154.849C223.182 152.954 222.689 151.073 222.523 149.19C222.4 147.792 221.638 146.728 220.61 145.86C219.056 144.545 217.34 143.774 215.191 143.969C214.371 144.043 213.754 144.165 213.267 144.665C213.625 144.896 213.942 145.098 214.257 145.302C212.574 145.465 211.442 146.101 210.606 147.506C211.83 147.058 212.939 146.651 214.049 146.246C214.093 146.356 214.135 146.466 214.179 146.575C212.725 147.348 211.271 148.12 209.817 148.893C209.863 148.977 209.909 149.059 209.955 149.143C211.142 148.704 212.328 148.263 213.516 147.823C213.593 147.989 213.67 148.152 213.747 148.318C212.739 148.789 211.732 149.261 210.724 149.733C210.754 149.835 210.783 149.935 210.813 150.037C211.755 149.919 212.697 149.801 213.64 149.683C213.661 149.776 213.68 149.871 213.701 149.964C212.899 150.294 212.095 150.626 211.014 151.071ZM215.644 159.331C215.632 159.234 215.622 159.138 215.61 159.041C214.625 159.126 213.641 159.21 212.391 159.318C213.764 160.597 214.683 159.724 215.644 159.331ZM209.845 155.519C210.882 156.109 211.725 155.949 212.529 155.15C211.554 154.97 210.63 154.577 209.845 155.519Z" fill="#B5BF65"/>
<path d="M256.948 154.874C259.76 157.279 261.177 160.056 260.824 163.383C260.597 165.541 259.958 167.783 258.071 169.222C254.867 171.665 251.198 171.183 248.35 168.585C247.385 167.703 246.503 166.722 245.644 165.732C244.403 164.308 244.215 162.54 244.431 160.794C244.911 156.953 247.134 154.409 250.673 152.959C251.492 152.622 252.233 152.639 253.066 153.09C254.41 153.817 255.842 154.375 256.948 154.874ZM254.966 164.835C255.024 164.845 255.083 164.855 255.142 164.864C254.503 165.721 253.864 166.577 253.225 167.433C253.318 167.534 253.411 167.634 253.505 167.736C254.169 167.184 254.828 166.628 255.496 166.08C255.764 165.86 256.043 165.65 256.339 165.473C256.364 165.458 256.677 165.762 256.648 165.842C256.521 166.189 256.373 166.558 256.13 166.829C255.5 167.528 254.817 168.179 254.156 168.849C254.248 168.936 254.338 169.021 254.429 169.109C255.611 168.697 256.31 167.787 256.839 166.67C256.985 166.363 257.236 166.018 257.523 165.899C257.689 165.829 258.028 166.176 258.293 166.337C259.462 165.028 259.797 163.431 259.563 161.781C259.046 158.153 256.856 155.868 253.429 154.778C252.605 154.516 251.528 154.282 250.818 154.598C249.429 155.217 248.216 156.232 246.929 157.083C248.965 156.517 248.965 156.517 249.702 156.944C248.414 157.775 246.76 158.093 246.113 159.689C246.89 159.383 247.546 158.907 248.244 158.5C248.437 158.388 248.752 158.486 249.01 158.488C248.951 158.729 248.97 159.083 248.817 159.189C248.013 159.749 247.153 160.227 246.342 160.776C246.028 160.987 245.79 161.312 245.517 161.584C246.984 161.598 247.603 160.107 248.899 159.974C248.967 160.077 249.037 160.179 249.104 160.281C248.177 161.071 247.25 161.863 246.315 162.659C247.375 162.865 248.004 162.211 248.684 161.593C249.308 161.023 249.385 161.068 249.904 161.833C248.795 162.677 247.682 163.522 246.341 164.543C248.665 164.574 249.291 162.282 250.934 161.736C251.032 161.849 251.13 161.96 251.228 162.073C250.475 162.793 249.721 163.514 248.949 164.252C249.168 164.343 249.327 164.41 249.776 164.599C248.921 164.973 248.304 165.244 247.686 165.514C247.726 165.626 247.767 165.737 247.809 165.85C248.24 165.702 248.76 165.656 249.085 165.383C249.834 164.752 250.472 163.99 251.194 163.323C251.434 163.1 251.788 162.99 252.105 162.878C252.136 162.866 252.417 163.282 252.365 163.377C252.186 163.697 251.942 164.003 251.659 164.24C251.114 164.695 250.526 165.1 249.834 165.615C251.446 166.212 251.807 164.92 252.582 164.377C252.854 164.187 253.196 164.099 253.506 163.964C253.629 164.26 253.755 164.555 253.781 164.619C252.934 165.294 252.251 165.837 251.568 166.381C251.646 166.498 251.725 166.614 251.803 166.73C252.862 166.098 253.913 165.467 254.966 164.835ZM249.565 168.066C250.289 168.599 251.468 168.216 252.338 167.256C251.308 167.557 250.517 167.786 249.565 168.066Z" fill="#BB9F87" fill-opacity="0.5"/>
<path d="M228.303 214.468C231.115 216.873 232.533 219.65 232.18 222.977C231.952 225.134 231.313 227.377 229.426 228.816C226.223 231.259 222.554 230.777 219.706 228.179C218.74 227.297 217.859 226.315 216.999 225.326C215.759 223.901 215.57 222.133 215.787 220.388C216.267 216.547 218.49 214.003 222.029 212.553C222.848 212.216 223.589 212.233 224.422 212.684C225.765 213.41 227.198 213.969 228.303 214.468ZM226.321 224.429C226.38 224.439 226.438 224.448 226.497 224.458C225.858 225.315 225.22 226.17 224.581 227.027C224.673 227.128 224.767 227.228 224.861 227.33C225.525 226.778 226.184 226.221 226.852 225.674C227.12 225.454 227.398 225.244 227.694 225.067C227.72 225.052 228.033 225.356 228.003 225.436C227.876 225.783 227.728 226.152 227.485 226.422C226.855 227.122 226.172 227.772 225.512 228.443C225.603 228.53 225.694 228.615 225.784 228.702C226.967 228.291 227.666 227.381 228.195 226.264C228.34 225.957 228.591 225.612 228.878 225.492C229.044 225.423 229.384 225.769 229.649 225.931C230.817 224.622 231.153 223.025 230.918 221.375C230.402 217.747 228.212 215.461 224.784 214.372C223.96 214.109 222.883 213.876 222.174 214.192C220.784 214.811 219.572 215.826 218.285 216.677C220.321 216.111 220.321 216.111 221.057 216.538C219.77 217.369 218.116 217.686 217.469 219.283C218.245 218.976 218.902 218.501 219.599 218.093C219.793 217.982 220.107 218.08 220.366 218.081C220.306 218.323 220.325 218.677 220.173 218.783C219.369 219.343 218.509 219.821 217.698 220.369C217.384 220.581 217.146 220.906 216.873 221.178C218.34 221.192 218.958 219.701 220.255 219.568C220.322 219.67 220.392 219.772 220.46 219.875C219.533 220.665 218.606 221.457 217.671 222.253C218.73 222.459 219.36 221.805 220.039 221.186C220.664 220.617 220.74 220.662 221.259 221.427C220.15 222.271 219.038 223.116 217.696 224.137C220.021 224.167 220.647 221.875 222.289 221.329C222.387 221.442 222.486 221.554 222.584 221.667C221.831 222.387 221.077 223.108 220.305 223.846C220.523 223.936 220.683 224.003 221.132 224.192C220.277 224.566 219.659 224.837 219.041 225.108C219.081 225.22 219.123 225.331 219.164 225.444C219.595 225.295 220.115 225.249 220.441 224.977C221.189 224.345 221.827 223.584 222.549 222.917C222.789 222.694 223.143 222.584 223.461 222.471C223.491 222.46 223.773 222.876 223.72 222.971C223.541 223.291 223.297 223.597 223.015 223.834C222.469 224.289 221.881 224.694 221.189 225.209C222.801 225.806 223.163 224.514 223.938 223.971C224.209 223.781 224.551 223.692 224.862 223.558C224.985 223.854 225.11 224.149 225.137 224.213C224.289 224.888 223.607 225.431 222.923 225.974C223.002 226.091 223.081 226.208 223.158 226.324C224.217 225.692 225.268 225.061 226.321 224.429ZM220.921 227.659C221.644 228.193 222.824 227.81 223.694 226.849C222.664 227.15 221.873 227.38 220.921 227.659Z" fill="#B5BF65"/>
<path d="M109.745 123.663C112.557 126.069 113.974 128.845 113.621 132.173C113.394 134.33 112.755 136.572 110.867 138.011C107.664 140.454 103.995 139.972 101.147 137.374C100.182 136.492 99.3002 135.511 98.4406 134.522C97.2004 133.097 97.0118 131.329 97.2283 129.583C97.708 125.742 99.9313 123.199 103.47 121.748C104.289 121.411 105.03 121.428 105.864 121.878C107.206 122.607 108.639 123.164 109.745 123.663ZM107.762 133.625C107.82 133.635 107.879 133.645 107.938 133.655C107.298 134.511 106.66 135.367 106.021 136.224C106.114 136.325 106.207 136.424 106.301 136.526C106.965 135.974 107.624 135.418 108.292 134.871C108.56 134.651 108.839 134.441 109.135 134.264C109.16 134.249 109.473 134.552 109.444 134.632C109.317 134.979 109.169 135.349 108.925 135.619C108.296 136.317 107.613 136.969 106.952 137.64C107.044 137.726 107.134 137.811 107.225 137.899C108.408 137.486 109.106 136.577 109.635 135.461C109.781 135.153 110.032 134.809 110.319 134.689C110.485 134.619 110.824 134.966 111.089 135.128C112.258 133.818 112.593 132.221 112.359 130.571C111.842 126.943 109.652 124.658 106.225 123.569C105.401 123.306 104.324 123.072 103.614 123.389C102.225 124.008 101.012 125.022 99.7262 125.872C101.762 125.306 101.762 125.306 102.499 125.733C101.211 126.564 99.557 126.882 98.9099 128.478C99.6863 128.172 100.343 127.696 101.041 127.289C101.234 127.177 101.548 127.276 101.807 127.277C101.747 127.518 101.767 127.872 101.614 127.978C100.81 128.538 99.9501 129.016 99.1391 129.565C98.8252 129.777 98.5873 130.101 98.3143 130.373C99.781 130.387 100.4 128.896 101.696 128.763C101.764 128.866 101.834 128.968 101.901 129.07C100.974 129.86 100.047 130.652 99.112 131.448C100.171 131.654 100.801 131 101.481 130.38C102.106 129.811 102.183 129.856 102.702 130.621C101.592 131.465 100.48 132.31 99.1387 133.331C101.463 133.361 102.089 131.069 103.732 130.524C103.83 130.636 103.928 130.748 104.026 130.861C103.273 131.581 102.519 132.302 101.747 133.04C101.965 133.13 102.125 133.198 102.574 133.386C101.719 133.76 101.101 134.031 100.483 134.302C100.524 134.414 100.565 134.525 100.607 134.638C101.037 134.489 101.558 134.443 101.883 134.17C102.632 133.539 103.27 132.778 103.991 132.111C104.231 131.888 104.585 131.778 104.903 131.665C104.934 131.654 105.215 132.07 105.163 132.165C104.984 132.485 104.74 132.791 104.457 133.028C103.912 133.483 103.325 133.886 102.631 134.403C104.243 135 104.605 133.708 105.38 133.165C105.652 132.975 105.994 132.886 106.304 132.752C106.427 133.048 106.553 133.343 106.579 133.407C105.731 134.082 105.049 134.625 104.365 135.168C104.444 135.285 104.523 135.402 104.601 135.518C105.658 134.889 106.709 134.256 107.762 133.625ZM102.36 136.855C103.083 137.389 104.263 137.005 105.133 136.045C104.105 136.346 103.313 136.577 102.36 136.855Z" fill="#BB9F87" fill-opacity="0.5"/>
<path opacity="0.44" d="M64.865 69.4213C65.0466 68.8271 65.0554 67.9327 65.4478 67.7084C66.0774 67.3477 67.1991 67.0676 67.6957 67.3912C69.6184 68.6464 71.7335 68.5311 73.7938 68.4765C80.4386 68.2995 87.039 68.573 93.6172 69.6058C96.8009 70.1056 100.099 69.9876 103.228 70.6823C107.24 71.5732 111.135 72.9898 115.073 74.1994C116.129 74.5241 117.247 74.7698 118.193 75.3043C120.435 76.5723 122.662 77.8926 124.766 79.3729C128.103 81.7193 131.383 84.1539 134.601 86.6623C137.434 88.8699 140.089 91.3031 142.927 93.5019C147.009 96.6624 151.22 99.6594 155.313 102.807C158.12 104.966 160.883 107.19 163.551 109.518C166.768 112.324 169.896 115.236 173.003 118.163C177.737 122.623 182.237 127.348 187.173 131.568C192.783 136.363 196.11 142.874 200.704 148.418C203.331 151.588 204.83 155.401 206.558 159.093C209.195 164.729 211.905 170.34 213.45 176.39C214.821 181.762 215.309 187.276 214.694 192.79C214.467 194.826 213.542 196.832 212.68 198.736C211.154 202.107 210.981 205.712 210.626 209.277C210.505 210.477 210.138 210.523 209.123 210.544C205.66 210.617 203.475 208.621 201.443 206.201C198.708 202.944 195.869 199.773 193.124 196.524C190.228 193.095 187.456 189.558 184.506 186.175C182.362 183.719 179.957 181.49 177.774 179.065C174.275 175.178 170.887 171.192 167.408 167.285C162.455 161.721 157.787 155.911 152.227 150.881C147.749 146.829 143.699 142.309 139.295 138.171C136.547 135.588 133.532 133.283 130.569 130.939C127.353 128.397 124.008 126.016 120.811 123.451C116.33 119.855 111.984 116.093 107.481 112.527C105.587 111.028 103.402 109.904 101.417 108.512C99.2694 107.005 97.224 105.348 95.0908 103.818C93.283 102.521 91.3663 101.373 89.5825 100.046C87.0003 98.1269 84.3924 96.2218 81.9952 94.085C80.4743 92.7285 79.3158 90.965 77.9943 89.3842C76.4293 87.5133 74.6158 85.7946 73.3485 83.7391C70.4763 79.0768 66.6038 74.9746 65.2808 69.4194C65.1428 69.4224 65.0039 69.4218 64.865 69.4213ZM165.033 149.827C165.049 150.183 165.098 150.543 165.073 150.898C164.971 152.341 164.761 153.811 166.503 154.737C166.266 152.606 166.04 150.578 165.8 148.431C165.486 149.008 165.246 149.448 165.009 149.884C165.136 148.747 165.306 147.613 165.37 146.473C165.396 145.999 165.215 145.507 165.07 145.041C165.057 144.999 164.444 145.02 164.389 145.141C164.203 145.537 164.048 145.994 164.06 146.425C164.087 147.408 164.184 148.395 164.337 149.366C164.366 149.552 164.791 149.676 165.033 149.827ZM185.131 154.363L185.096 154.436C186.276 152.902 186.518 151.072 186.002 149.364C185.147 146.531 183.765 143.881 181.6 141.79C179.654 139.91 177.732 137.674 174.546 138.778C173.708 139.069 173.136 140.071 172.306 140.441C170.279 141.345 169.694 143.277 168.848 144.998C168.458 145.789 168.313 146.763 168.298 147.658C168.279 148.755 168.425 149.874 168.654 150.951C169.591 155.359 170.807 159.627 175.084 162.12C174.254 163.777 175.006 165.439 176.428 166.808C176.25 165.972 176.007 165.426 176.058 164.908C176.111 164.374 176.361 163.789 176.713 163.393C176.851 163.238 177.498 163.597 177.917 163.612C178.84 163.646 179.891 163.89 180.668 163.546C182.609 162.687 183.166 160.602 183.985 158.885C184.639 157.509 184.768 155.879 185.131 154.363ZM73.8669 80.7849C73.9659 81.1338 73.978 81.5483 74.181 81.8203C75.5284 83.6353 76.8039 85.5225 78.3171 87.1898C80.792 89.9165 83.274 92.6725 86.0443 95.0816C88.7853 97.4651 91.8741 99.4502 94.8342 101.577C97.7529 103.675 100.74 105.68 103.63 107.814C107.529 110.694 111.64 113.366 115.161 116.661C119.758 120.963 125 124.349 129.934 128.169C132.485 130.144 135.257 131.871 137.624 134.043C142.884 138.868 148.061 143.792 153.064 148.878C158.138 154.037 163.026 159.381 167.879 164.749C172.318 169.662 176.564 174.748 180.964 179.695C184.159 183.287 187.566 186.689 190.702 190.329C195.249 195.606 199.638 201.022 204.096 206.376C205.209 207.714 206.518 208.669 208.373 208.558C208.425 207.707 208.376 206.833 208.558 206.01C208.785 204.987 209.239 204.016 209.526 203.003C209.666 202.507 209.565 201.937 209.727 201.453C210.264 199.853 210.91 198.289 211.422 196.681C211.522 196.368 211.21 195.922 211.089 195.537C211.911 196.078 212.182 195.614 212.377 194.876C212.992 192.54 212.739 190.202 212.739 187.824C212.743 182.227 211.853 176.856 209.859 171.692C208.428 167.99 206.706 164.394 204.973 160.819C203.278 157.323 201.64 153.762 199.552 150.501C196.882 146.33 194.075 142.176 190.798 138.482C186.772 133.942 182.234 129.85 177.857 125.63C173.803 121.721 169.752 117.801 165.542 114.064C162.246 111.139 158.727 108.463 155.266 105.727C153.325 104.193 151.302 102.765 149.315 101.289C149.266 101.608 149.342 101.748 149.455 101.846C154.856 106.53 160.285 111.18 165.652 115.902C168.055 118.017 170.364 120.244 172.664 122.472C175.055 124.791 177.457 127.106 179.722 129.546C182.185 132.2 184.529 134.969 186.86 137.741C188.249 139.393 189.491 141.167 190.842 142.85C193.142 145.713 195.606 148.453 197.757 151.421C199.674 154.068 201.158 157.026 203.024 159.716C204.319 161.581 205.052 163.527 205.288 165.768C205.391 166.746 205.704 167.981 206.382 168.569C208.664 170.548 209.877 172.998 210.308 175.899C210.689 178.459 209.884 180.799 209.253 183.269C208.073 187.9 207.605 192.71 206.781 197.436C206.635 198.272 206.2 199.057 205.847 200.002C205.415 199.643 205.206 199.467 204.996 199.294C204.894 199.502 204.649 199.815 204.714 199.9C205.194 200.544 205.734 201.143 206.255 201.756C206.998 202.765 207.74 203.774 208.515 204.827C207.455 205.484 206.736 205.097 206.112 204.321C203.117 200.584 200.159 196.815 197.121 193.115C194.507 189.932 191.849 186.78 189.1 183.711C188.511 183.055 187.438 182.846 186.62 182.375C185.933 181.979 184.814 181.582 184.721 181.041C184.359 178.933 183.072 177.456 181.63 176.179C179.383 174.187 178.238 171.007 175.039 170.04C174.828 169.975 174.583 169.666 174.546 169.439C174.225 167.475 172.718 166.275 171.613 164.82C170.152 162.895 168.744 160.919 167.159 159.099C165.222 156.88 163.162 154.766 161.086 152.673C158.343 149.908 155.557 147.183 152.745 144.488C151.12 142.93 149.4 141.471 147.737 139.953C145.025 137.476 142.572 134.619 139.562 132.583C134.638 129.251 130.264 125.315 125.809 121.444C124.699 120.48 123.624 119.47 122.46 118.575C120.276 116.897 118.096 115.202 115.807 113.676C113.403 112.074 110.772 110.807 108.425 109.136C105.081 106.756 101.901 104.146 98.662 101.621C96.7903 100.164 94.8808 98.7479 93.089 97.1956C89.6624 94.2275 86.2746 91.2134 82.9436 88.1372C81.8795 87.1551 80.9283 85.9964 80.1592 84.7702C79.6555 83.9676 79.7225 82.8201 79.2699 81.9674C78.0084 79.586 76.7281 77.1926 75.2033 74.9799C74.6214 74.1353 73.3512 73.7637 72.3948 73.1763C72.774 74.0844 73.2938 74.6236 73.7197 75.2305C75.2362 77.3874 76.741 79.5535 78.2005 81.7495C78.4884 82.1827 78.5526 82.7665 78.7196 83.2797C78.4813 83.3897 78.2448 83.4986 78.0065 83.6087C76.2955 81.0899 74.5826 78.5724 72.8716 76.0537C72.7481 76.1381 72.6249 76.2208 72.5014 76.3053C73.2131 77.299 73.9363 78.2853 74.6325 79.2907C74.8827 79.6524 75.0641 80.0622 75.2777 80.4508C74.7983 80.5805 74.3173 80.7098 73.8385 80.8363C72.7423 78.9121 71.5645 77.0269 70.5901 75.0426C70.2229 74.2923 69.9481 73.1047 70.2938 72.4834C70.9059 71.3815 72.1698 71.3347 73.4096 71.6952C74.9102 72.1318 76.4334 72.5141 77.966 72.8182C81.0689 73.4339 84.169 74.0868 87.3015 74.501C88.5549 74.6664 90.0598 76.1177 90.6909 74.8905C91.7855 75.1691 92.7463 75.5824 93.7217 75.6274C96.084 75.7358 98.4388 75.9375 100.799 76.0406C104.748 76.2138 108.719 76.04 112.557 77.314C117.147 78.8381 121.627 80.5374 125.536 83.5169C128.14 85.5031 130.885 87.3037 133.562 89.1933C133.728 89.3105 133.932 89.45 133.994 89.6247C134.435 90.8347 134.794 92.0739 135.27 93.2699C136.524 96.4234 137.825 99.5601 139.106 102.703C138.224 99.4044 137.24 96.1309 136.295 92.4175C137.467 92.7985 138.072 92.9936 139.046 93.3098C138.481 92.727 138.224 92.3998 137.907 92.1473C134.313 89.2874 130.737 86.4018 127.097 83.6011C124.869 81.8863 122.69 80.0097 120.215 78.7337C116.846 76.9956 113.273 75.5972 109.679 74.3662C106.846 73.3966 103.885 72.6282 100.921 72.2483C95.0281 71.4943 89.1022 70.9527 83.1748 70.5464C78.0505 70.1959 72.9059 70.1535 67.5567 69.9681C68.0731 71.2704 68.3645 72.4811 68.9888 73.4865C70.535 75.9635 72.231 78.355 73.8669 80.7849ZM128.721 119.538C128.682 118.595 128.683 118.078 128.635 117.566C128.491 115.977 128.837 115.687 130.466 115.725C131.045 115.738 131.728 115.503 132.203 115.16C135.261 112.957 137.577 107.814 135.88 103.696C135.179 101.998 134.305 100.356 133.37 98.772C130.626 94.1244 125.552 91.3425 120.125 94.1226C119.037 94.6794 118.063 95.7746 117.438 96.8541C115.924 99.4666 115.85 102.312 116.338 105.289C116.77 107.935 118.072 109.982 120.031 111.562C121.367 112.638 122.975 113.551 124.611 114.022C125.859 114.383 126.608 114.941 127.117 115.995C127.619 117.032 128.07 118.092 128.721 119.538ZM159.134 145.207C159.349 145.192 159.565 145.177 159.782 145.164C159.821 144.708 159.74 144.191 159.934 143.815C160.107 143.477 160.762 143.002 160.897 143.085C162.744 144.222 164.201 143.073 165.752 142.375C167.952 141.384 169.798 140.148 170.864 137.766C172.021 135.181 172.523 132.578 171.313 130.064C170.161 127.668 168.527 125.496 167.027 123.28C165.55 121.097 162.248 119.91 159.652 120.556C159.021 120.712 158.14 120.825 157.862 121.266C156.682 123.132 155.759 125.159 154.594 127.038C153.89 128.175 152.914 129.144 151.954 130.318C151.931 130.629 151.751 131.243 151.87 131.79C152.739 135.77 154.062 139.434 158.427 140.953C158.754 141.067 159.031 141.73 159.075 142.165C159.176 143.167 159.123 144.189 159.134 145.207ZM145.585 132.189C145.808 131.185 145.846 130.493 146.128 129.92C146.337 129.495 146.893 128.907 147.245 128.94C150.163 129.209 151.809 127.897 153.398 125.431C155.027 122.897 155.438 120.472 155.24 117.632C155.001 114.213 153.545 111.159 151.695 108.591C149.681 105.793 146.221 104.891 142.836 106.119C139.638 107.277 137.863 109.976 137.393 113.666C136.974 116.956 137.86 120.017 139.2 122.896C139.974 124.562 140.57 126.85 142.786 127.137C144.746 127.39 145.362 128.106 145.064 129.979C144.976 130.548 145.334 131.19 145.585 132.189ZM199.941 193.796C200.064 193.783 200.19 193.77 200.313 193.757C200.301 192.782 200.496 191.742 200.225 190.845C199.888 189.728 200.49 189.34 201.218 189.027C203.721 187.947 205.301 186.018 206.605 183.699C208.71 179.956 209.284 176.303 206.878 172.425C205.091 169.544 202.644 167.77 199.356 167.15C198.973 167.079 198.249 167.35 198.113 167.654C196.417 171.474 194.099 174.708 190.256 176.439C190.106 179.052 191.087 181.264 192.54 183.135C194.127 185.179 195.262 187.765 198.114 188.609C198.572 188.745 199.001 189.483 199.158 190.025C199.513 191.254 199.69 192.536 199.941 193.796ZM109.277 105.831C109.409 105.839 109.542 105.846 109.674 105.855C109.789 104.884 109.965 103.916 109.999 102.942C110.033 102.016 110.299 101.617 111.312 101.363C112.172 101.147 113.286 100.414 113.557 99.6498C114.541 96.8789 115.285 93.9689 114.205 91.0473C113.139 88.1577 111.992 85.3566 108.686 84.0876C106.026 83.0649 103.498 83.6243 100.931 84.0957C100.202 84.2285 99.3779 84.6853 98.9107 85.2525C95.7653 89.0682 95.8534 92.7134 98.7957 96.7505C100.736 99.4109 103.388 100.509 106.46 100.96C108.355 101.238 109.437 102.709 109.178 104.644C109.123 105.028 109.238 105.436 109.277 105.831ZM186.142 177.391C185.63 175.56 186.466 175.166 188.156 174.876C189.927 174.571 191.83 173.979 193.017 172.301C194.879 169.666 196.773 167.094 196.683 163.587C196.598 160.29 194.806 157.968 192.656 155.821C191.422 154.588 190.406 152.936 188.34 152.949C186.161 157.526 185.992 163.227 180.62 165.765C180.896 166.615 181.145 167.359 181.381 168.107C181.802 169.44 182.026 170.878 182.678 172.087C183.652 173.904 184.925 175.562 186.142 177.391ZM85.2935 87.9618C85.4976 87.8431 85.7013 87.726 85.9038 87.607C84.2997 83.7608 82.6943 79.9126 81.0902 76.0664C81.2835 75.9684 81.4768 75.8705 81.6702 75.7725C81.9422 76.155 82.2914 76.5042 82.4725 76.9237C83.8273 80.083 85.0978 83.279 86.498 86.4164C87.3279 88.2749 87.6845 90.4261 89.3025 91.7877C87.6367 86.6713 85.9765 81.5429 84.2814 76.4254C84.1629 76.0677 83.8413 75.5753 83.5398 75.5138C82.1096 75.2208 80.6554 75.0539 78.794 74.7826C80.3214 78.2746 81.6654 81.4954 83.1434 84.652C83.6989 85.8347 84.5686 86.8639 85.2935 87.9618ZM88.4374 76.3989C88.2467 76.4925 88.0556 76.5876 87.8644 76.6828C89.7004 82.3212 91.5366 87.9581 93.3709 93.5962C93.1642 93.6718 92.9578 93.7459 92.751 93.8215C92.0338 91.8192 91.3304 89.8131 90.5936 87.8183C89.8373 85.7753 89.1817 83.6793 88.2336 81.7264C87.3173 79.8422 87.3287 77.5385 85.781 75.9361C85.582 76.2145 85.5636 76.4168 85.6202 76.5968C86.9362 80.6934 88.294 84.7773 89.575 88.8847C90.6942 92.4784 92.8055 95.1998 96.3333 96.764C95.8979 96.0032 95.3692 95.3148 94.8368 94.6291C94.4961 94.1901 93.9824 93.8057 93.8365 93.3099C92.3044 88.1145 90.8419 82.8989 89.3184 77.7019C89.1806 77.2224 88.7404 76.8302 88.4374 76.3989ZM201.214 164.217C201.381 161.891 201.291 159.994 200.186 158.251C199.142 156.606 198.249 154.859 197.131 153.267C195.524 150.981 193.777 148.793 192.089 146.563C192.047 146.61 192.004 146.657 191.964 146.705C192.767 149.169 193.568 151.634 194.371 154.098C194.506 154.06 194.641 154.022 194.775 153.983C194.529 152.744 194.281 151.506 194.034 150.267C194.195 150.231 194.355 150.193 194.516 150.157C195.278 152.497 196.04 154.837 196.802 157.177C196.87 157.163 196.939 157.148 197.007 157.134C196.809 156.139 196.611 155.142 196.413 154.146C197.337 155.913 198.048 157.732 198.507 159.613C198.948 161.419 199.129 163.287 199.422 165.129C199.642 165.084 199.863 165.039 200.081 164.994C199.608 162.59 199.133 160.185 198.659 157.78C198.801 157.75 198.943 157.718 199.087 157.689C199.761 159.756 200.434 161.824 201.214 164.217ZM176.693 136.208C176.233 133.987 175.816 131.828 175.334 129.684C174.896 127.737 174.55 125.786 172.49 124.656C171.481 124.102 170.742 123.059 169.882 122.238C167.725 120.176 165.567 118.114 163.41 116.051C163.911 117.557 164.468 118.84 166.031 119.621C167.314 120.264 168.393 121.471 169.323 122.622C170.659 124.275 171.778 126.104 172.96 127.817C172.945 127.544 172.925 127.203 172.906 126.862C173.375 127.416 173.736 128.011 173.884 128.653C174.377 130.8 174.794 132.964 175.238 135.123C175.388 135.854 175.411 136.727 176.693 136.208ZM120.233 87.1907C120.137 87.1957 120.042 87.201 119.946 87.206C119.738 86.0644 119.566 84.9157 119.312 83.7847C118.771 81.375 118.754 81.3782 117.569 81.1269C117.752 82.0358 117.85 82.9372 118.122 83.781C118.576 85.1834 118.992 86.6353 119.711 87.9022C120.25 88.8476 120.711 89.7364 120.317 90.8843C118.18 89.1438 118.677 86.2539 117.3 84.2841C117.143 84.3486 116.986 84.4146 116.829 84.4791C117.85 86.926 118.871 89.3713 119.929 91.9075C120.964 91.5705 121.805 91.297 122.693 91.0085C121.917 89.4702 121.174 87.9973 120.392 86.448C120.327 86.7488 120.279 86.9696 120.233 87.1907ZM94.1812 90.5983C94.3837 90.5676 94.5862 90.537 94.7887 90.5063C94.6326 89.2414 94.6402 87.928 94.2897 86.7184C93.4211 83.7252 92.4245 80.7665 91.3916 77.8249C91.2196 77.3368 90.6057 77.0025 90.1977 76.5972C90.0495 76.7305 89.9028 76.8643 89.7546 76.9976C91.2284 81.5319 92.7056 86.0653 94.1812 90.5983ZM135.009 115.556C134.967 115.561 134.925 115.566 134.884 115.57C134.932 116.282 134.929 117.001 135.038 117.702C135.486 120.563 135.946 123.424 136.441 126.277C136.842 128.593 136.866 128.588 138.809 129.192C137.998 126.702 137.194 124.49 136.566 122.229C135.952 120.03 135.52 117.783 135.009 115.556ZM123.615 90.8399C124.178 90.7844 124.659 90.7353 125.134 90.6882C124.288 88.671 123.652 86.6935 122.639 84.9334C122.101 83.998 122.01 82.3604 119.96 82.3335C121.228 85.2838 122.406 88.0275 123.615 90.8399ZM133.842 116.655C132.319 116.719 132.553 117.764 132.664 118.476C132.982 120.48 133.414 122.47 133.869 124.45C134.071 125.328 134.438 126.169 134.73 127.026C134.894 126.966 135.06 126.908 135.224 126.849C134.995 124.586 134.766 122.322 134.537 120.059C134.442 120.067 134.347 120.076 134.252 120.084C134.147 120.807 134.042 121.53 133.936 122.252C133.78 122.237 133.625 122.223 133.469 122.208C133.593 120.38 133.715 118.551 133.842 116.655ZM150.648 139.498C150.248 136.58 149.848 133.663 149.44 130.693C149.164 130.732 148.66 130.801 148.022 130.889C148.551 133.927 149.121 136.879 150.648 139.498ZM179.52 137.214C179.098 135.633 178.668 134.188 178.334 132.722C177.942 131 177.035 129.401 175.692 128.704C176.959 131.731 177.134 134.896 179.52 137.214ZM207.935 186.021C207.72 185.972 207.504 185.923 207.288 185.874C205.673 189.434 206.423 193.354 205.618 197.036C205.759 197.058 205.9 197.08 206.039 197.102C206.671 193.407 207.302 189.714 207.935 186.021ZM76.2778 74.6264C77.6329 77.0301 78.9229 79.3193 80.213 81.6084C79.9266 79.6906 79.3903 77.9001 78.7549 76.1467C78.3892 75.14 77.8036 74.2814 76.2778 74.6264ZM135.018 97.0192C134.867 93.945 133.878 91.351 131.862 89.2607C131.703 89.3378 131.543 89.4163 131.385 89.4937C132.596 92.0022 133.807 94.5107 135.018 97.0192ZM157.511 146.206C157.588 143.473 156.74 141.661 154.164 140.999C154.698 143.039 155.713 144.728 157.511 146.206ZM205.277 189.21C204.999 189.178 204.723 189.144 204.445 189.112C204.183 192.382 203.922 195.652 203.66 198.922C203.858 198.936 204.055 198.952 204.253 198.966C204.595 195.714 204.935 192.462 205.277 189.21ZM112.579 78.9229C112.371 79.0212 112.161 79.1191 111.953 79.2189C113.139 82.0708 114.328 84.9231 115.515 87.775C114.986 84.6451 114.139 81.6432 112.579 78.9229ZM204.037 166.593C204.229 166.483 204.422 166.374 204.614 166.266C203.957 164.727 203.301 163.189 202.645 161.65C202.452 161.732 202.257 161.813 202.063 161.895C202.65 163.488 201.6 165.743 204.037 166.593ZM107.3 105.843C106.852 103.293 105.523 102.367 102.517 102.325C103.319 102.982 104.026 103.614 104.785 104.174C105.528 104.723 106.326 105.201 107.3 105.843ZM192.446 152.669C192.505 152.644 192.565 152.616 192.624 152.591C192.338 151.097 192.251 149.524 191.704 148.132C191.23 146.925 191.541 145.191 189.817 144.596C190.702 147.311 191.574 149.989 192.446 152.669ZM95.2819 86.528C95.4134 86.4845 95.5437 86.4391 95.6752 86.3955C94.674 83.323 93.6743 80.2508 92.6749 77.1771C92.5437 77.2191 92.4122 77.2626 92.2807 77.3061C93.28 80.3799 94.281 83.4539 95.2819 86.528ZM138.667 97.8642C139.327 100.272 139.987 102.68 140.681 105.208C141.772 104.284 141.028 101.632 138.667 97.8642ZM203.512 189.871C202.869 190.155 202.271 190.288 202.266 190.441C202.199 192.328 202.219 194.219 202.217 196.109C202.391 196.119 202.566 196.13 202.741 196.139C202.984 194.156 203.228 192.171 203.512 189.871ZM188.717 150.802C188.765 150.789 188.815 150.778 188.863 150.765C188.156 147.829 187.456 144.89 186.706 141.965C186.676 141.85 186.159 141.859 185.783 141.795C186.804 144.929 187.759 147.866 188.717 150.802ZM179.075 165.879C178.715 166.443 178.132 166.953 178.092 167.502C177.997 168.811 178.448 169.988 179.715 170.845C179.499 169.177 179.304 167.657 179.075 165.879ZM131.657 117.407C131.412 117.445 131.167 117.484 130.922 117.522C131.24 119.76 131.558 121.998 131.875 124.238C132.035 124.215 132.195 124.192 132.356 124.17C132.122 121.916 131.89 119.66 131.657 117.407ZM129.17 87.6164C129.701 89.2472 130.231 90.8762 130.761 92.5051C130.893 92.4534 131.024 92.4017 131.156 92.35C130.559 90.7435 131.171 88.657 129.17 87.6164ZM147.488 132.306C146.061 136.077 146.091 136.275 147.99 136.956C147.832 135.49 147.67 133.996 147.488 132.306ZM143.136 132.933C143.661 130.8 143.323 130.008 141.499 128.901C141.187 129.866 143.474 130.687 141.525 131.626C142.092 132.085 142.54 132.449 143.136 132.933ZM155.387 109.294C155.266 109.357 155.144 109.419 155.023 109.483C155.596 110.844 156.169 112.205 156.74 113.568C156.736 112.575 155.87 111.472 157.673 110.939C156.736 110.265 156.061 109.779 155.387 109.294ZM109.397 78.3417C110.182 79.9408 110.853 81.309 111.523 82.6769C110.77 78.8045 110.77 78.8046 109.397 78.3417ZM125.58 118.705C124.869 116.289 124.174 115.704 122.004 115.686C123.235 116.725 124.265 117.594 125.58 118.705ZM124.971 87.9826C124.951 84.6276 124.951 84.6276 123.419 84.4088C123.967 85.6684 124.469 86.8255 124.971 87.9826ZM96.2097 83.9729C96.2956 83.9527 96.3815 83.9326 96.4673 83.9124C95.6751 81.8049 94.8828 79.6973 94.0905 77.5898C93.936 77.6499 93.7811 77.7116 93.6282 77.772C94.4894 79.838 95.3488 81.9053 96.2097 83.9729ZM180.521 135.953C180.639 135.931 180.756 135.909 180.873 135.887C180.424 134.505 179.973 133.121 179.523 131.739C179.412 131.781 179.302 131.822 179.191 131.863C179.634 133.227 180.078 134.59 180.521 135.953ZM184.11 141.603C184.295 141.558 184.482 141.51 184.668 141.465C184.307 140.073 183.946 138.682 183.585 137.29C183.415 137.332 183.246 137.375 183.075 137.417C183.421 138.812 183.764 140.207 184.11 141.603ZM189.383 147.716C189.486 147.682 189.59 147.647 189.693 147.613C189.024 145.56 188.357 143.505 187.688 141.451C187.584 141.485 187.481 141.52 187.377 141.554C188.046 143.609 188.715 145.663 189.383 147.716ZM151.575 137.176C151.479 137.209 151.38 137.243 151.284 137.275C151.76 138.736 152.234 140.197 152.71 141.656C152.807 141.624 152.905 141.59 153.002 141.557C152.526 140.096 152.051 138.637 151.575 137.176Z" fill="#B5BF65"/>
<path d="M206.241 201.771C206.785 199.919 207.458 198.096 207.842 196.211C208.334 193.803 208.586 191.347 208.957 188.914C209.236 187.087 209.061 185.138 210.34 183.571C210.529 183.34 210.778 183.155 210.96 182.985C212.488 184.629 212.43 186.467 211.842 188.37C211.744 188.687 211.525 188.966 211.364 189.262C211.067 189.058 210.768 188.853 210.407 188.604C210.164 189.438 209.907 190.288 209.672 191.145C209.633 191.287 209.676 191.59 209.705 191.593C211.071 191.736 210.822 193.239 211.412 193.699C211.12 194.303 210.857 194.847 210.595 195.39C210.221 196.503 209.951 197.666 209.436 198.709C209.125 199.338 208.432 199.777 207.917 200.307C207.729 200.499 207.579 200.734 207.374 200.905C207.011 201.212 206.62 201.485 206.241 201.771Z" fill="#BB9F87" fill-opacity="0.5"/>
<path d="M126.677 109.918C126.963 109.535 127.171 108.938 127.547 108.8C130.754 107.62 131.595 104.159 130.832 101.484C130.683 100.963 130.234 100.526 129.886 99.994C130.954 99.3416 131.669 99.6443 131.971 100.939C132.538 103.375 132.654 105.857 130.975 107.852C130.023 108.984 128.512 109.646 127.253 110.519C127.061 110.319 126.87 110.119 126.677 109.918Z" fill="#BB9F87" fill-opacity="0.5"/>
<path d="M185.131 154.362C184.188 155.788 183.403 157.369 182.239 158.585C181.551 159.305 180.283 159.52 179.234 159.81C178.986 159.879 178.4 159.394 178.293 159.06C178.222 158.838 178.679 158.199 178.977 158.143C183.155 157.341 184.453 155.684 184.237 151.317C184.23 151.167 184.299 151.013 184.334 150.86C184.5 150.844 184.665 150.83 184.832 150.815C184.919 152.022 185.009 153.228 185.097 154.435L185.131 154.362Z" fill="#BB9F87" fill-opacity="0.5"/>
<path d="M169.026 131.146C169.303 131.586 169.874 132.082 169.804 132.459C169.542 133.887 169.355 135.455 168.611 136.636C167.7 138.083 166.295 139.236 165.02 140.425C164.673 140.747 163.896 140.994 163.543 140.819C163.147 140.624 163.01 139.909 162.636 139.179C165.751 139.735 168.979 135.184 169.026 131.146Z" fill="#BB9F87" fill-opacity="0.5"/>
<path d="M152.071 113.006C152.313 113.963 152.702 114.911 152.764 115.879C152.85 117.245 152.741 118.631 152.63 120.002C152.44 122.341 151.312 124.146 149.2 125.181C148.684 125.434 147.898 125.194 147.254 125.076C147.123 125.052 146.945 124.507 147.029 124.302C147.112 124.098 147.491 123.923 147.756 123.899C149.729 123.725 151.501 121.908 151.603 119.809C151.71 117.605 151.738 115.397 151.8 113.192C151.889 113.13 151.98 113.068 152.071 113.006Z" fill="#BB9F87" fill-opacity="0.5"/>
<path d="M206.516 178.898C207.048 182.139 203.759 186.978 200.182 186.727C200.013 186.207 199.841 185.68 199.628 185.023C204.112 185.552 204.968 182.024 206.516 178.898Z" fill="#BB9F87" fill-opacity="0.5"/>
<path d="M108.282 87.1381C108.62 86.7704 108.887 86.4813 109.145 86.2003C113.158 89.0426 113.4 92.6815 109.854 96.1491C108.571 95.8158 108.994 94.9534 109.455 94.3538C111.529 91.6462 111.24 89.3402 108.282 87.1381Z" fill="#BB9F87" fill-opacity="0.5"/>
<path d="M188.553 168.911C192.126 168.722 194.444 166.093 193.971 162.723C194.928 162.867 195.281 163.294 195.105 164.326C194.472 168.027 192.69 169.932 189.136 170.548C188.302 170.692 188.19 170.379 188.553 168.911Z" fill="#BB9F87" fill-opacity="0.5"/>
<path d="M184.307 170.075C184.522 169.582 184.662 169.03 184.99 168.632C185.105 168.494 185.684 168.74 186.051 168.809C185.739 169.356 185.428 169.904 185.115 170.45C184.846 170.325 184.576 170.2 184.307 170.075Z" fill="#BB9F87" fill-opacity="0.5"/>
<path opacity="0.44" d="M262.45 275.08C262.204 274.384 261.874 273.515 261.589 272.633C261.416 272.096 261.236 271.541 261.208 270.986C261.195 270.741 261.54 270.283 261.746 270.27C262.001 270.255 262.453 270.552 262.519 270.796C263.249 273.537 264.843 275.555 267.34 276.906C267.91 277.216 268.367 277.734 268.877 278.155C269.641 278.785 270.457 279.361 271.155 280.057C271.822 280.723 272.343 281.533 272.973 282.24C274.101 283.505 275.154 283.446 276.294 282.213C278.031 280.335 278.411 277.925 279.003 275.593C279.746 272.664 280.351 269.692 281.251 266.811C281.9 264.736 282.976 262.8 283.772 260.765C284.197 259.678 284.383 258.498 284.78 257.398C284.952 256.923 285.386 256.543 285.7 256.119C285.959 256.656 286.384 257.177 286.44 257.735C286.537 258.695 286.415 259.679 286.37 260.653C286.283 262.619 286.201 264.587 286.088 266.552C286.061 267.034 286.067 267.602 285.819 267.971C283.732 271.089 284.117 274.938 282.721 278.247C281.877 280.247 280.943 282.207 280.075 284.196C279.604 285.274 279.107 286.351 278.769 287.472C278.473 288.455 277.814 288.597 277.039 288.403C275.517 288.023 274.022 287.53 272.509 287.111C272.237 287.036 271.701 287.009 271.671 287.094C271.15 288.592 269.796 287.883 268.847 288.214C268.411 288.367 267.994 288.621 267.626 288.905C266.966 289.414 266.42 290.109 265.703 290.502C263.779 291.553 261.788 292.481 259.827 293.467C258.496 294.136 257.967 295.274 258.021 296.77C258.04 297.296 257.596 297.841 257.178 298.326C255.852 296.759 256.199 295.093 256.703 293.552C257.158 292.162 257.983 290.894 258.621 289.625C256.454 290.08 254.235 290.661 251.978 290.985C250.201 291.239 248.38 291.19 246.579 291.25C241.318 291.428 236.403 289.792 231.508 288.217C227.45 286.912 223.888 284.629 220.425 282.143C218.089 280.467 215.453 279.211 212.965 277.747C209.624 275.782 206.291 273.802 202.96 271.819C197.765 268.728 192.618 265.55 187.367 262.558C183.027 260.084 178.572 257.812 174.154 255.475C169.861 253.202 165.571 250.924 161.248 248.711C156.717 246.391 152.158 244.128 147.596 241.868C142.359 239.275 137.158 236.604 131.846 234.177C127.805 232.33 123.569 230.915 119.509 229.105C117.11 228.035 114.88 226.587 112.589 225.282C109.912 223.759 107.252 222.207 104.28 220.49C104.48 221.363 104.58 221.798 104.689 222.273C104.536 222.259 104.432 222.277 104.412 222.244C103.163 220.235 101.162 219.64 99.0037 219.177C97.8053 218.921 96.6408 218.363 95.5527 217.771C94.0282 216.942 94.0855 215.227 95.9319 214.247C99.0784 212.578 101.299 210.018 103.624 207.452C105.707 205.151 108.001 202.996 110.442 201.08C111.647 200.134 113.356 199.749 114.897 199.333C116.964 198.776 119.076 198.186 121.194 198.069C123.667 197.932 126.189 198.126 128.648 198.478C131.203 198.843 133.774 199.365 136.219 200.177C141.601 201.965 146.883 204.055 152.253 205.882C158.223 207.914 163.689 210.996 169.173 213.992C173.947 216.6 178.409 219.776 183.119 222.51C187.003 224.765 191.087 226.67 195.009 228.864C197.993 230.534 200.875 232.387 203.775 234.206C207.714 236.677 211.624 239.19 215.549 241.682C216.814 242.485 218.099 243.254 219.348 244.078C224.57 247.521 229.758 251.017 235.007 254.418C238.971 256.987 242.941 259.561 247.035 261.912C251.037 264.212 254.435 267.214 257.743 270.354C259.375 271.905 260.923 273.544 262.45 275.08ZM249.576 285.525C249.517 285.891 249.458 286.256 249.393 286.668C248.657 286.229 247.89 285.771 247.125 285.315C248.57 286.616 248.684 289.671 251.725 289.054C251.007 287.94 250.389 286.985 249.773 286.03C250.366 286.662 250.927 287.328 251.564 287.914C251.965 288.282 252.531 288.839 252.932 288.77C254.651 288.481 256.341 288.004 258.034 287.568C258.908 287.342 259.768 287.06 260.834 286.743C261.372 285.783 261.497 284.641 260.193 283.652C259.894 283.425 259.686 282.895 259.68 282.5C259.656 280.847 258.823 279.496 258.094 278.128C257.185 276.427 256.119 274.81 255.129 273.172C256.068 273.224 256.356 274.159 256.816 274.886C257.285 275.629 257.744 276.38 258.189 277.137C258.626 277.883 259.04 278.644 259.464 279.4C259.459 277.557 258.602 276.192 257.449 274.934C257.143 274.6 257.072 273.896 257.169 273.418C257.21 273.215 257.96 273.154 258.63 272.957C255.502 270.399 252.509 267.687 249.242 265.358C246.112 263.125 242.667 261.337 239.414 259.269C235.02 256.473 230.665 253.614 226.318 250.746C224.376 249.465 222.539 248.023 220.573 246.783C218.074 245.207 215.461 243.815 212.956 242.251C210.099 240.465 207.322 238.555 204.481 236.743C201.983 235.149 199.478 233.564 196.915 232.079C194.99 230.963 192.928 230.082 191 228.972C186.357 226.3 181.768 223.535 177.137 220.846C172.719 218.281 168.36 215.596 163.817 213.274C159.17 210.9 154.376 208.795 149.561 206.779C146.081 205.32 142.503 204.057 138.891 202.966C135.309 201.884 131.663 200.946 127.984 200.279C124.454 199.638 120.861 199.504 117.333 200.664C115.591 201.238 113.683 201.371 112.013 202.082C109.138 203.308 107.237 205.832 105.261 208.101C103.014 210.679 100.688 213.121 97.9506 215.167C97.8741 215.224 97.7948 215.277 97.5081 215.479C98.0875 215.455 98.4096 215.442 98.7316 215.428C98.7226 215.539 98.7124 215.65 98.7034 215.761C98.3007 215.724 97.889 215.617 97.501 215.673C97.1646 215.722 96.8575 215.957 96.5374 216.11C96.8032 216.277 97.05 216.517 97.3402 216.591C97.8918 216.731 98.4695 216.774 99.0348 216.858C99.3482 215.242 100.395 214.372 101.855 213.899C101.417 214.339 100.979 214.777 100.636 215.121C101.265 215.814 101.786 216.389 102.307 216.965C102.358 217.299 102.436 217.717 102.667 217.836C103.846 218.439 105.066 218.965 106.341 219.55C106.12 217.662 104.749 217.095 103.584 216.61C102.229 216.046 101.605 215.32 101.816 213.888C103.927 213.604 105.838 212.798 106.669 210.761C107.444 208.862 108.831 207.637 110.435 206.693C111.904 205.827 113.593 205.316 115.217 204.742C119.919 203.075 124.82 202.966 129.675 203.439C133.103 203.773 136.472 204.759 139.854 205.51C141.267 205.824 142.706 206.144 144.032 206.703C148.805 208.714 153.589 210.717 158.266 212.94C162.379 214.896 166.38 217.093 170.374 219.283C172.518 220.458 174.526 221.878 176.63 223.131C179.156 224.636 181.735 226.054 184.264 227.558C188.565 230.116 192.816 232.76 197.139 235.284C203.063 238.746 209.06 242.081 214.969 245.569C217.861 247.277 220.639 249.179 223.439 251.04C225.927 252.693 228.293 254.54 230.853 256.067C234.819 258.436 238.912 260.591 242.931 262.874C243.606 263.257 244.18 263.823 244.8 264.305C244.437 264.519 244.21 264.525 244.032 264.437C242.04 263.441 240.042 262.456 238.073 261.415C235.166 259.88 232.204 258.429 229.409 256.708C226.459 254.893 223.71 252.751 220.811 250.848C218.26 249.174 215.633 247.612 213.018 246.035C210.844 244.723 208.657 243.434 206.444 242.187C203.508 240.533 200.507 238.988 197.595 237.292C193.958 235.172 190.399 232.916 186.772 230.778C183.169 228.655 179.507 226.637 175.906 224.514C172.166 222.311 168.466 220.037 164.748 217.793C164.663 217.915 164.576 218.037 164.491 218.159C164.708 218.621 164.925 219.083 165.144 219.546C163.94 218.132 162.882 216.641 160.951 216.094C161.425 216.858 161.859 217.555 162.291 218.251C162.201 218.316 162.11 218.382 162.019 218.447C160.784 217.149 159.55 215.851 158.314 214.553C158.249 214.617 158.183 214.678 158.118 214.741C158.574 215.661 159.032 216.58 159.487 217.5C159.364 217.574 159.24 217.647 159.116 217.721C157.89 216.012 156.94 214.026 154.712 213.066C155.996 215.533 155.996 215.533 155.782 216.275C154.49 214.146 152.745 212.631 150.681 211.511C151.087 212.391 151.492 213.271 151.897 214.153C151.772 214.209 151.645 214.267 151.52 214.324C150.678 213.284 149.914 212.168 148.974 211.227C148.044 210.298 147.16 209.164 145.496 209.112C146.784 210.611 148.789 211.365 149.025 213.485C148.693 213.322 148.544 213.005 148.301 212.794C147.248 211.879 146.143 211.024 145.114 210.083C144.82 209.814 144.729 209.328 144.544 208.94C144.664 208.842 144.782 208.742 144.903 208.642C142.685 208.021 140.466 207.4 137.911 206.684C138.845 207.67 139.546 208.381 140.216 209.123C141.657 210.721 141.724 210.907 141.575 211.318C140.903 210.598 140.152 209.937 139.375 209.313C138.564 208.662 137.717 208.058 136.902 207.412C136.248 206.895 135.619 206.347 134.979 205.814C134.895 205.913 134.813 206.012 134.729 206.111C135.374 206.778 136 207.463 136.664 208.108C138.154 209.558 138.162 209.55 137.774 210.038C135.833 208.472 133.891 206.906 131.95 205.34C131.881 205.43 131.81 205.519 131.741 205.61C132.638 206.827 134.258 207.541 134.271 209.412C133.325 208.453 132.378 207.495 131.315 206.416C131.406 207.117 131.462 207.547 131.536 208.112C130.064 206.884 128.86 205.88 127.656 204.874C127.614 204.938 127.57 205.004 127.527 205.07C128.065 205.925 128.602 206.779 129.139 207.634C129.019 207.715 128.898 207.797 128.777 207.879C128.054 207.124 127.332 206.372 126.611 205.618C126.552 205.678 126.495 205.738 126.437 205.798C126.658 206.64 126.878 207.482 127.099 208.325C126.98 208.382 126.86 208.441 126.742 208.498C125.753 207.499 124.764 206.501 123.72 205.444C124.025 206.699 124.288 207.783 124.553 208.867C124.669 208.698 124.787 208.527 124.903 208.358C123.985 207.541 123.067 206.727 122.149 205.91C122.016 206.007 121.883 206.103 121.75 206.2C121.985 206.896 122.227 207.587 122.456 208.286C122.668 208.934 122.867 209.586 123.072 210.237C122.996 210.242 122.919 210.249 122.843 210.254C122.15 209.344 121.458 208.433 120.765 207.523C120.676 207.574 120.587 207.623 120.497 207.674C121.021 209.335 121.545 210.997 122.069 212.658C121.071 211.053 120.292 209.387 119.693 207.661C119.078 205.886 118.787 205.638 116.998 206.061C119.653 208.047 119.481 211.303 120.618 213.971C120.249 213.823 120.134 213.559 120.025 213.294C119.152 211.168 118.801 208.739 116.775 207.263C116.164 206.818 115.361 206.634 114.646 206.331C114.579 206.473 114.513 206.616 114.446 206.76C114.795 207.012 115.158 207.249 115.493 207.521C115.871 207.827 116.278 208.122 116.569 208.501C116.784 208.782 116.876 209.186 116.917 209.547C116.926 209.625 116.387 209.907 116.273 209.832C116.014 209.661 115.79 209.353 115.681 209.054C115.388 208.236 113.348 207.224 112.478 207.573C113.057 208.031 113.645 208.428 114.15 208.912C115.121 209.842 115.106 209.909 114.237 210.454C113.383 208.878 111.249 207.942 110.579 208.851C111.307 209.413 112.091 209.919 112.739 210.562C113.031 210.852 113.054 211.413 113.199 211.851C112.84 211.671 112.451 211.529 112.122 211.304C111.25 210.707 110.403 210.073 109.545 209.454C109.442 209.6 109.336 209.748 109.233 209.894C109.594 210.168 109.962 210.434 110.315 210.716C110.693 211.016 111.128 211.28 111.406 211.657C111.59 211.909 111.543 212.329 111.599 212.675C111.274 212.574 110.908 212.537 110.632 212.36C110.234 212.103 109.926 211.707 109.532 211.441C109.15 211.184 108.708 211.018 108.292 210.812C108.26 210.904 108.226 210.995 108.194 211.086C109.024 211.879 109.853 212.67 110.683 213.463C110.54 213.654 110.396 213.845 110.254 214.035C109.399 213.479 108.545 212.923 107.654 212.343C107.389 212.575 107.138 212.796 106.881 213.02C107.431 213.513 108.068 213.871 108.397 214.416C109.255 215.841 109.973 217.35 110.756 218.819C112.239 221.603 113.627 224.472 116.971 225.612C116.038 223.912 115.13 222.254 114.211 220.601C114.087 220.379 113.928 220.04 113.744 220.011C112.31 219.778 113.155 219.09 113.354 218.256C113.657 218.702 113.833 218.937 113.983 219.187C115.206 221.233 116.391 223.302 117.654 225.324C118.613 226.859 120.173 227.411 121.892 227.841C119.635 224.702 117.473 221.696 115.311 218.692C115.483 218.569 115.655 218.445 115.828 218.324C116.611 219.484 117.395 220.645 118.177 221.806C118.256 221.751 118.336 221.694 118.415 221.639C117.644 220.041 116.872 218.441 116.101 216.843C116.237 216.778 116.373 216.711 116.509 216.647C117.051 217.643 117.581 218.646 118.139 219.634C119.321 221.729 120.519 223.817 121.709 225.907L121.665 225.856C122.654 228.727 125.22 229.414 127.811 230.363C126.7 228.261 125.673 226.317 124.644 224.373C124.758 224.309 124.872 224.245 124.984 224.18C125.251 224.599 125.54 225.005 125.779 225.439C127.255 228.107 128.302 231.064 131.643 232.216C133.73 232.937 135.675 234.074 137.683 235.026C137.744 234.958 137.807 234.89 137.869 234.823C136.588 232.724 135.306 230.626 134.025 228.527C134.143 228.451 134.26 228.375 134.379 228.299C135.039 229.261 135.735 230.2 136.352 231.19C138.063 233.934 139.645 236.8 143.253 237.5C142.716 236.425 142.156 235.307 141.597 234.189C141.708 234.104 141.819 234.019 141.931 233.934C143.189 237.028 145.212 239.27 148.618 240.2C146.664 237.141 144.781 234.197 142.9 231.252C143.01 231.158 143.119 231.066 143.229 230.972C144.491 232.231 145.752 233.49 147.111 234.845C147.957 234.633 149.304 236.359 149.571 238.371C149.068 238.016 148.55 237.65 148.03 237.284C149.395 240.719 151.026 242.196 152.982 242.103C151.85 239.786 150.742 237.516 149.633 235.245C150.032 235.423 150.271 235.701 150.447 236.016C151.569 238.019 152.661 240.036 153.793 242.032C154.703 243.639 156.209 244.398 158.081 245.007C156.869 242.588 155.77 240.39 154.669 238.194C155.938 239.918 156.926 241.791 158.027 243.593C158.956 245.116 160.105 246.449 161.991 246.876C161.413 245.635 160.861 244.448 160.309 243.262C161.322 244.468 161.924 245.95 162.937 247.052C163.911 248.11 165.314 248.777 166.527 249.613C165.986 247.955 165.245 246.556 164.501 245.157C164.313 244.806 164.129 244.16 163.925 244.154C162.433 244.107 162.792 242.814 162.43 242.042C161.76 240.614 161.159 239.155 160.534 237.707C160.373 237.333 160.226 236.953 160.073 236.575C160.134 236.544 160.194 236.514 160.254 236.484C160.629 236.974 161.004 237.465 161.379 237.955C161.432 237.918 161.486 237.881 161.54 237.843C160.847 236.679 160.154 235.514 159.462 234.35C159.565 234.257 159.668 234.166 159.772 234.073C160.114 234.37 160.456 234.667 160.999 235.14C160.546 234.094 160.187 233.27 159.829 232.445C159.945 232.389 160.062 232.333 160.179 232.276C162.203 233.834 161.95 236.797 163.603 238.508C163.704 237.99 163.79 237.536 163.878 237.084L163.875 237.08C164.44 238.157 165.006 239.235 165.572 240.312C165.684 240.261 165.798 240.21 165.911 240.158C165.7 239.239 165.488 238.321 165.276 237.401C165.742 237.736 165.901 238.142 166.076 238.54C166.907 240.441 167.705 242.36 168.592 244.234C169.189 245.495 169.91 246.697 170.583 247.919C172.087 250.647 173.121 253.812 176.732 254.565C175.935 253.098 175.131 251.619 174.327 250.14C175.512 251.416 176.391 252.907 177.54 254.152C178.656 255.362 180.047 256.32 181.319 257.388C181.352 257.315 181.387 257.241 181.421 257.166C180.253 254.79 179.085 252.412 177.916 250.034C178.026 249.97 178.136 249.906 178.245 249.842C179.946 253.271 181.504 256.805 184.768 259.087C183.737 256.897 182.708 254.712 181.443 252.673C179.256 249.146 178.383 247.31 178.697 245.862C179.287 247.26 179.756 248.478 180.308 249.657C181.528 252.26 183.586 254.347 184.497 257.198C185.38 259.955 188.035 261.15 190.538 262.284C189.56 260.939 188.382 259.738 187.521 258.344C186.698 257.011 185.435 255.802 185.34 253.697C186.433 255.289 187.295 256.544 188.157 257.801C188.223 257.758 188.289 257.714 188.355 257.671C187.882 256.764 187.409 255.86 186.936 254.953C187.049 254.893 187.16 254.832 187.272 254.774C188.141 256.318 189.012 257.861 189.881 259.405C189.828 259.457 189.775 259.509 189.722 259.562C189.522 259.441 189.323 259.319 188.832 259.02C190.821 261.347 191.826 264.184 194.883 264.815C194.366 264.056 193.797 263.217 193.227 262.378C195.132 263.994 196.037 266.589 198.747 267.424C198.249 266.634 197.801 265.932 197.362 265.226C196.94 264.546 196.526 263.859 196.109 263.177C197.294 264.266 198.336 265.443 199.133 266.768C200.101 268.375 200.978 269.161 202.841 269.483C200.723 266.408 198.392 263.542 196.659 260.302C196.801 260.208 196.943 260.116 197.085 260.022C197.795 261.137 198.504 262.252 199.214 263.367C199.279 263.324 199.344 263.282 199.408 263.238C198.533 261.42 197.658 259.6 196.783 257.782C196.929 257.712 197.073 257.642 197.219 257.573C197.994 258.979 198.653 260.464 199.571 261.769C200.546 263.152 200.701 264.95 202.562 265.973C203.782 266.643 204.258 268.667 205.072 270.086C204.307 269.019 203.567 267.934 202.759 266.902C202.565 266.653 202.15 266.577 201.835 266.422C201.774 266.537 201.713 266.651 201.652 266.765C203.225 268.756 204.131 271.415 207.192 271.887C206.468 271.275 205.744 270.665 205.019 270.053C205.255 270.074 205.491 270.095 205.879 270.13C204.731 268.228 203.689 266.5 202.461 264.464C203.003 264.638 203.277 264.643 203.367 264.772C203.755 265.337 204.089 265.939 204.443 266.528C205.441 268.192 206.411 269.875 207.447 271.515C208.216 272.735 209.016 273.97 210.715 274.199C209.837 272.283 209.006 270.465 208.172 268.648C208.312 268.568 208.453 268.488 208.593 268.408C210.036 271.402 210.842 274.892 214.52 276.396C213.891 274.927 213.341 273.643 212.664 272.06C214.593 274.019 214.651 277.085 217.735 278.024C216.953 276.249 216.293 274.751 215.632 273.254C217.449 276.02 218.347 279.496 222.063 280.633C221.196 278.96 220.324 277.28 219.451 275.598C221.946 277.928 222.138 282.046 225.988 283.34C224.714 281.212 223.441 279.086 222.125 276.888C222.384 277.037 222.719 277.114 222.847 277.319C223.861 278.959 224.833 280.626 225.826 282.278C226.501 283.401 226.937 284.818 228.763 284.687C228.149 283.193 227.543 281.721 226.936 280.249C227.95 281.709 228.73 283.271 229.568 284.799C230.197 285.946 231.18 286.51 232.661 286.468C231.752 284.553 230.927 282.81 230.101 281.068C231.115 282.333 231.97 283.668 232.713 285.064C233.504 286.549 234.55 287.61 236.433 287.768C235.738 286.341 235.077 284.978 234.415 283.617C235.389 284.699 236.188 285.872 236.905 287.093C237.769 288.561 239.276 288.452 240.647 288.827C239.622 287.087 238.643 285.422 237.662 283.759C237.759 283.702 237.854 283.643 237.952 283.584C238.712 284.761 239.504 285.919 240.222 287.121C240.991 288.404 241.947 289.352 243.555 289.319C244.29 289.303 245.023 289.238 245.647 289.202C244.706 286.087 241.961 284.329 239.894 282.024C241.843 283.139 243.705 284.32 245.521 285.565C245.836 285.78 245.965 286.268 246.33 286.882C245.617 286.78 245.283 286.731 244.949 286.684C246.257 287.586 246.899 289.5 248.955 289.26C247.825 287.644 246.77 286.089 245.658 284.575C245.431 284.266 245.023 283.986 244.652 283.905C243.857 283.73 243.845 283.787 243.997 282.669C244.785 282.955 245.546 283.233 246.295 283.504C246.36 283.111 246.411 282.81 246.481 282.387C247.83 283.063 249.036 283.669 250.369 284.337C249.878 283.583 249.489 282.985 249.098 282.386C249.214 282.284 249.328 282.182 249.444 282.08C250.65 282.72 251.856 283.357 253.144 284.04C253.061 283.677 253 283.405 252.87 282.834C253.935 283.181 254.783 283.456 255.694 283.753C255.509 282.577 256.09 282.695 256.877 283.048C257.477 283.318 258.174 283.402 258.727 283.736C259.434 284.166 260.461 284.396 260.443 285.76C259.458 285.305 258.615 284.915 257.812 284.544C258.185 285.073 258.549 285.591 258.911 286.107C258.797 286.223 258.682 286.34 258.567 286.456C257.653 286.062 256.739 285.666 255.759 285.243C255.698 285.559 255.644 285.833 255.516 286.481C254.021 285.722 252.661 285.031 251.287 284.332C251.084 285.17 253.207 285.055 252.032 286.399C250.658 285.66 249.274 284.916 247.888 284.172C247.84 284.254 247.794 284.336 247.746 284.418C248.361 284.787 248.968 285.155 249.576 285.525ZM261.358 279.975C260.154 281.944 261.081 283.195 264.008 284.948C263.944 285.393 263.878 285.857 263.811 286.321C263.676 286.24 263.541 286.159 263.404 286.08C263.033 286.524 262.633 286.947 262.298 287.418C261.824 288.085 261.446 288.825 260.942 289.469C260.296 290.294 259.567 291.054 258.876 291.842C260.65 291.286 262.226 290.473 263.86 289.792C265.96 288.917 267.235 287.363 268.034 285.292C268.239 284.76 268.706 284.329 269.054 283.852C269.174 283.912 269.294 283.97 269.414 284.029C269.766 281.97 268.982 280.314 267.444 279.023C266.368 278.12 265.164 277.368 264.017 276.55C263.901 276.568 263.785 276.585 263.669 276.603C264.039 278.096 264.087 279.801 264.881 281.017C265.517 281.99 265.177 282.252 264.582 283.029C263.489 281.994 262.463 281.023 261.358 279.975ZM284.866 262.228C284.82 262.208 284.775 262.186 284.73 262.166C283.988 263.75 283.07 265.279 282.547 266.932C281.804 269.278 281.435 271.742 280.755 274.112C279.889 277.128 279.733 280.409 277.712 283.011C277.152 283.733 276.353 284.75 275.631 284.778C273.567 284.856 271.907 283.833 270.929 281.746C270.863 282.461 270.854 283.038 270.746 283.599C270.667 284.01 270.456 284.738 270.308 284.736C269.049 284.724 269.478 285.774 269.03 286.39C270.729 286.803 270.18 285.058 270.692 284.814C272.557 285.425 274.219 285.97 275.881 286.514C276.559 286.736 277.225 287.044 277.649 286.081C278.836 283.394 280.254 280.787 281.215 278.023C282.449 274.468 283.327 270.79 284.353 267.163C284.424 266.91 284.462 266.645 284.486 266.383C284.618 264.998 284.74 263.613 284.866 262.228ZM172.584 252.214C170.549 250.08 170.502 246.977 167.851 245.396C166.901 244.829 166.426 243.463 165.734 242.461C165.684 242.499 165.631 242.538 165.58 242.576C165.905 243.298 166.229 244.02 166.553 244.743C166.396 244.844 166.239 244.944 166.08 245.044C164.997 243.527 163.915 242.01 162.722 240.338C162.728 240.656 162.702 240.755 162.737 240.821C163.651 242.514 164.721 244.14 165.458 245.905C166.778 249.075 168.952 251.197 172.584 252.214ZM103.287 215.107C103.587 215.341 103.797 215.63 103.949 215.603C105.263 215.364 105.472 216.427 105.918 217.212C106.158 217.632 106.387 218.059 106.62 218.485C107.906 220.84 110.297 221.745 112.388 223.045C112.254 222.563 112.025 222.191 111.821 221.809C110.829 219.949 109.911 218.045 108.832 216.234C107.99 214.823 107.909 214.877 107.188 216.28C107.124 216.406 106.914 216.457 106.8 216.528C105.728 215.837 104.92 214.682 103.287 215.107Z" fill="#B5BF65"/>
<path d="M254.081 275.403C252.895 273.603 251.816 271.965 250.737 270.326C250.545 270.441 250.354 270.556 250.162 270.671C250.827 271.736 251.492 272.801 252.158 273.865C252.03 273.966 251.904 274.066 251.777 274.167C250.912 273.056 250.049 271.946 249.185 270.834C249.114 270.873 249.044 270.913 248.972 270.953C249.355 271.614 249.737 272.275 250.121 272.937C250.029 272.999 249.936 273.059 249.843 273.12C248.993 272.072 248.188 270.986 247.281 269.99C246.609 269.251 245.796 268.642 245.077 267.941C244.989 267.856 245.098 267.565 245.133 267.178C246.674 268.201 248.079 269.133 249.531 270.099C250.395 269.04 251.333 269.787 251.92 270.504C253.83 272.847 255.604 275.302 257.411 277.728C257.559 277.926 257.563 278.232 257.634 278.488C257.527 278.54 257.422 278.593 257.316 278.644C256.394 277.347 255.475 276.049 254.538 274.731C254.418 274.913 254.252 275.155 254.081 275.403Z" fill="#BB9F87" fill-opacity="0.5"/>
<path d="M145.346 236.982C144.207 236.862 138.334 229.031 138.417 227.261C138.957 228.06 139.4 228.714 139.844 229.369C139.894 229.344 139.942 229.32 139.992 229.296C139.648 228.467 139.304 227.639 138.959 226.81C139.087 226.749 139.214 226.688 139.342 226.627C141.364 230.113 143.385 233.6 145.346 236.982Z" fill="#BB9F87" fill-opacity="0.5"/>
<path d="M185.619 257.497C183.609 253.936 181.592 250.379 179.603 246.808C179.412 246.465 179.4 246.023 179.435 245.619C181.65 249.489 183.867 253.36 186.083 257.229C185.929 257.318 185.773 257.408 185.619 257.497Z" fill="#BB9F87" fill-opacity="0.5"/>
<path d="M198.148 255.76C199.86 258.444 201.412 261.209 202.285 264.308C202.125 264.386 201.965 264.464 201.804 264.543C200.472 261.679 199.137 258.816 197.804 255.953C197.918 255.888 198.034 255.824 198.148 255.76Z" fill="#BB9F87" fill-opacity="0.5"/>
<path d="M204.64 252.258C204.067 252.284 204.062 252.556 204.311 255.042C203.552 253.524 202.895 252.352 202.388 251.118C202.235 250.744 202.656 250.148 202.525 249.747C202.27 248.966 201.811 248.252 201.436 247.511C201.247 247.138 201.057 246.765 200.868 246.391C200.995 246.325 201.123 246.258 201.251 246.191C202.343 248.144 203.432 250.096 204.64 252.258Z" fill="#BB9F87" fill-opacity="0.5"/>
<path d="M200.754 248.461C201.833 251.407 202.914 254.353 203.993 257.299C203.856 257.36 203.718 257.422 203.58 257.483C202.76 255.785 201.41 254.124 201.284 252.377C201.184 250.975 200.216 249.986 200.357 248.653C200.491 248.589 200.622 248.525 200.754 248.461Z" fill="#BB9F87" fill-opacity="0.5"/>
<path d="M121.705 225.901C121.156 224.649 120.605 223.397 120.053 222.144C121.804 224.327 124.023 226.139 125.04 228.852C123.915 227.851 122.788 226.851 121.662 225.849L121.705 225.901Z" fill="#BB9F87" fill-opacity="0.5"/>
<path d="M198.343 253.069C199.92 256.195 201.497 259.321 203.074 262.446C202.901 262.535 202.729 262.622 202.556 262.712C201.788 261.141 201.036 259.56 200.247 258C199.461 256.446 198.639 254.91 197.833 253.367C198.004 253.269 198.173 253.169 198.343 253.069Z" fill="#BB9F87" fill-opacity="0.5"/>
<path d="M199.518 250.661C200.64 252.772 201.763 254.883 202.9 257.022C202.516 257.242 202.188 257.43 201.774 257.668C200.918 255.366 200.061 253.055 199.203 250.746C199.305 250.718 199.412 250.69 199.518 250.661Z" fill="#BB9F87" fill-opacity="0.5"/>
<path d="M205.45 248.298C205.603 248.814 205.757 249.332 205.911 249.849C205.835 249.887 205.759 249.926 205.684 249.963C204.976 248.886 204.266 247.809 203.559 246.731C203.458 246.788 203.358 246.844 203.259 246.902C203.948 248.125 204.638 249.347 205.485 250.851C204.964 250.74 204.468 250.764 204.394 250.599C203.685 249.035 203.05 247.439 202.392 245.853C202.522 245.746 202.651 245.638 202.78 245.531C203.431 246.164 204.092 246.787 204.729 247.434C205.005 247.714 205.232 248.039 205.481 248.343L205.45 248.298Z" fill="#BB9F87" fill-opacity="0.5"/>
<path d="M163.884 237.082C162.726 234.767 161.569 232.453 160.41 230.139C160.496 230.064 160.584 229.989 160.67 229.913C161.015 230.24 161.492 230.503 161.678 230.903C162.506 232.692 163.264 234.515 164.011 236.341C164.091 236.537 163.93 236.829 163.882 237.079L163.884 237.082Z" fill="#BB9F87" fill-opacity="0.5"/>
<path d="M140.384 208.046C142.168 207.802 145.774 211.255 145.529 212.572C143.883 211.124 142.181 209.626 140.384 208.046Z" fill="#BB9F87" fill-opacity="0.5"/>
<path d="M116.625 213.273C117.89 215.646 119.153 218.018 120.419 220.389C120.294 220.46 120.168 220.532 120.044 220.603C118.671 218.302 117.299 216.001 115.927 213.7C116.159 213.557 116.393 213.415 116.625 213.273Z" fill="#BB9F87" fill-opacity="0.5"/>
<path d="M242.524 266.65C244.243 268.213 246.479 269.997 247.441 272.398C245.848 270.535 244.031 268.412 242.524 266.65Z" fill="#BB9F87" fill-opacity="0.5"/>
<path d="M189.045 241.061C189.293 239.538 187.558 238.254 188.721 236.413C189.411 237.807 190.024 239.048 190.638 240.29C190.56 240.338 190.482 240.386 190.403 240.433C190.116 239.944 189.827 239.457 189.448 238.815C189.555 239.704 189.637 240.385 189.719 241.066C189.495 241.065 189.269 241.062 189.045 241.061Z" fill="#BB9F87" fill-opacity="0.5"/>
<path d="M161.582 244C160.739 242.024 159.895 240.049 159.054 238.074C159.185 238.016 159.314 237.958 159.445 237.9C160.994 239.551 161.195 241.823 162.113 243.766C161.936 243.845 161.759 243.922 161.582 244Z" fill="#BB9F87" fill-opacity="0.5"/>
<path d="M141.906 226.726C141.628 226.611 141.352 226.585 141.298 226.461C140.596 224.853 139.901 223.241 139.268 221.606C139.163 221.336 139.364 220.946 139.425 220.612C139.644 220.833 139.97 221.018 140.065 221.282C140.689 223.037 141.263 224.809 141.906 226.726Z" fill="#BB9F87" fill-opacity="0.5"/>
<path d="M183.374 249.979C182.411 247.649 181.448 245.319 180.486 242.988C180.697 242.9 180.908 242.814 181.121 242.726C182.014 245.076 182.907 247.427 183.8 249.777C183.657 249.844 183.514 249.912 183.374 249.979Z" fill="#BB9F87" fill-opacity="0.5"/>
<path d="M141.709 229.457C140.424 227.229 139.138 225 137.853 222.772C138.012 222.681 138.174 222.59 138.334 222.499C139.613 224.721 140.892 226.944 142.17 229.165C142.016 229.262 141.863 229.36 141.709 229.457Z" fill="#BB9F87" fill-opacity="0.5"/>
<path d="M119.381 216.717C118.511 214.627 117.642 212.535 116.773 210.445C116.964 210.366 117.154 210.285 117.345 210.206C118.206 212.292 119.067 214.38 119.929 216.466C119.745 216.548 119.564 216.633 119.381 216.717Z" fill="#BB9F87" fill-opacity="0.5"/>
<path d="M142.554 224.378C141.736 222.202 140.916 220.026 140.098 217.85C140.269 217.785 140.44 217.719 140.609 217.653C141.447 219.829 142.284 222.005 143.121 224.181C142.934 224.247 142.744 224.313 142.554 224.378Z" fill="#BB9F87" fill-opacity="0.5"/>
<path d="M164.618 234.637C162.544 231.806 161.727 229.23 162.43 228.445C163.174 230.553 163.896 232.595 164.618 234.637Z" fill="#BB9F87" fill-opacity="0.5"/>
<path d="M164.032 224.869C165.272 226.859 166.154 229.006 166.48 231.397C165.502 229.304 164.524 227.211 163.547 225.117C163.708 225.035 163.87 224.952 164.032 224.869Z" fill="#BB9F87" fill-opacity="0.5"/>
<path d="M145.373 214.296C145.792 214.24 146.412 213.981 146.597 214.163C147.555 215.104 148.403 216.157 149.288 217.171C149.17 217.313 149.054 217.455 148.936 217.597C148.518 217.305 148.054 217.065 147.693 216.715C146.886 215.936 146.132 215.101 145.356 214.291L145.373 214.296Z" fill="#BB9F87" fill-opacity="0.5"/>
<path d="M143.586 222.373C143.479 220.532 141.642 219.19 142.455 217.076C143.038 218.798 143.621 220.519 144.204 222.241C143.997 222.284 143.792 222.329 143.586 222.373Z" fill="#BB9F87" fill-opacity="0.5"/>
<path d="M184.575 238.67C185.686 240.405 185.765 242.435 186.198 244.363C186.078 244.398 185.959 244.433 185.839 244.467C185.289 242.572 184.74 240.677 184.19 238.781C184.319 238.743 184.448 238.707 184.575 238.67Z" fill="#BB9F87" fill-opacity="0.5"/>
<path d="M165.457 232.52C164.643 230.645 163.828 228.77 163.014 226.895C163.163 226.832 163.311 226.767 163.461 226.703C164.819 228.345 164.923 230.524 165.776 232.382C165.67 232.428 165.564 232.473 165.457 232.52Z" fill="#BB9F87" fill-opacity="0.5"/>
<path d="M183.551 245.935C183.081 244.198 182.613 242.461 182.053 240.388C183.179 241.28 183.881 243.914 183.551 245.935Z" fill="#BB9F87" fill-opacity="0.5"/>
<path d="M134.03 232.865C132.811 231.138 131.593 229.41 130.376 227.684C130.486 227.606 130.597 227.53 130.707 227.452C131.692 229.362 133.666 230.574 134.437 232.633C134.301 232.711 134.166 232.788 134.03 232.865Z" fill="#BB9F87" fill-opacity="0.5"/>
<path d="M165.951 224.449C166.663 226.07 167.375 227.692 168.087 229.313C167.932 229.384 167.778 229.457 167.623 229.527C166.869 227.933 166.117 226.339 165.363 224.745C165.558 224.646 165.756 224.548 165.951 224.449Z" fill="#BB9F87" fill-opacity="0.5"/>
<path d="M171.222 228.836C170.578 227.412 169.936 225.987 169.291 224.563C169.497 224.472 169.702 224.381 169.91 224.291C170.536 225.725 171.161 227.157 171.786 228.591C171.599 228.673 171.411 228.754 171.222 228.836Z" fill="#BB9F87" fill-opacity="0.5"/>
<path d="M171.523 247.796C170.423 246.04 169.322 244.283 168.202 242.494C169.075 242.737 171.685 246.599 171.523 247.796Z" fill="#BB9F87" fill-opacity="0.5"/>
<path d="M144.705 220.209C144.24 218.589 143.785 217.002 143.329 215.415C144.649 216.099 145.429 218.754 144.705 220.209Z" fill="#BB9F87" fill-opacity="0.5"/>
<path d="M205.479 248.342C205.347 247.862 205.215 247.383 205.011 246.637C205.467 246.999 205.857 247.208 206.104 247.526C206.764 248.38 207.363 249.284 207.988 250.167C207.865 250.262 207.743 250.354 207.62 250.449C206.898 249.734 206.175 249.019 205.451 248.301C205.451 248.297 205.479 248.342 205.479 248.342Z" fill="#BB9F87" fill-opacity="0.5"/>
<path d="M220.498 264.738C220.054 262.985 219.609 261.232 219.164 259.48C219.333 259.436 219.499 259.392 219.668 259.348C220.1 261.104 220.531 262.861 220.961 264.615C220.808 264.655 220.652 264.697 220.498 264.738Z" fill="#BB9F87" fill-opacity="0.5"/>
<path d="M169.122 228.815C168.336 227.327 167.55 225.841 166.764 224.353C168.239 225.495 169.077 226.966 169.477 228.668C169.359 228.717 169.24 228.767 169.122 228.815Z" fill="#BB9F87" fill-opacity="0.5"/>
<path d="M217.373 260.034C217.783 261.593 218.192 263.154 218.602 264.713C218.448 264.754 218.292 264.796 218.137 264.838C217.69 263.271 217.243 261.706 216.796 260.139C216.988 260.105 217.181 260.068 217.373 260.034Z" fill="#BB9F87" fill-opacity="0.5"/>
<path d="M145.355 214.289C146.677 216.298 146.969 217.569 146.301 218.205C145.9 217.112 145.474 216.005 145.104 214.883C145.055 214.734 145.277 214.495 145.373 214.296C145.371 214.294 145.355 214.289 145.355 214.289Z" fill="#BB9F87" fill-opacity="0.5"/>
<path d="M151.68 215.467C152.622 216.745 153.563 218.023 154.504 219.301C154.357 219.407 154.212 219.513 154.065 219.619C153.158 218.321 152.251 217.023 151.343 215.723C151.458 215.637 151.569 215.552 151.68 215.467Z" fill="#BB9F87" fill-opacity="0.5"/>
<path d="M207.302 269.645C206.321 268.254 205.341 266.861 204.36 265.469C204.479 265.384 204.597 265.301 204.717 265.216C205.69 266.615 206.664 268.016 207.639 269.414C207.527 269.491 207.414 269.568 207.302 269.645Z" fill="#BB9F87" fill-opacity="0.5"/>
<path d="M221.538 262.044C221.188 260.734 220.84 259.423 220.49 258.112C220.621 258.08 220.752 258.049 220.882 258.017C221.782 259.179 221.648 260.621 221.866 261.967C221.757 261.992 221.648 262.018 221.538 262.044Z" fill="#BB9F87" fill-opacity="0.5"/>
<path d="M223.481 257.881C223.874 258.318 224.268 258.756 224.803 259.351C224.739 258.843 224.702 258.558 224.666 258.271C224.757 258.245 224.848 258.219 224.938 258.192C225.188 259.092 225.437 259.992 225.686 260.893C225.619 260.933 225.549 260.973 225.48 261.014C224.74 260.023 223.999 259.033 223.258 258.043C223.333 257.988 223.407 257.935 223.481 257.881Z" fill="#BB9F87" fill-opacity="0.5"/>
<path d="M148.703 214.228C149.747 215.549 150.792 216.868 151.835 218.188C151.708 218.288 151.581 218.389 151.455 218.488C150.444 217.15 149.433 215.812 148.42 214.476C148.516 214.393 148.609 214.311 148.703 214.228Z" fill="#BB9F87" fill-opacity="0.5"/>
<path d="M190.79 237.374C191.529 238.717 192.269 240.06 193.007 241.402C192.863 241.475 192.717 241.546 192.572 241.62C191.905 240.239 191.239 238.856 190.572 237.475C190.645 237.442 190.718 237.408 190.79 237.374Z" fill="#BB9F87" fill-opacity="0.5"/>
<path d="M186.468 237.351C186.832 238.756 187.196 240.161 187.559 241.565C187.431 241.601 187.301 241.639 187.172 241.675C186.788 240.284 186.402 238.893 186.015 237.503C186.167 237.452 186.318 237.401 186.468 237.351Z" fill="#BB9F87" fill-opacity="0.5"/>
<path d="M244.177 289.033C243.294 288.032 242.411 287.032 241.527 286.03C241.631 285.936 241.734 285.843 241.838 285.75C242.751 286.724 243.664 287.697 244.578 288.67C244.445 288.791 244.312 288.912 244.177 289.033Z" fill="#BB9F87" fill-opacity="0.5"/>
<path d="M170.977 243.561C171.609 244.82 172.24 246.078 172.872 247.338C172.772 247.392 172.67 247.445 172.57 247.5C171.88 246.269 171.19 245.039 170.501 243.811C170.658 243.729 170.817 243.645 170.977 243.561Z" fill="#BB9F87" fill-opacity="0.5"/>
<path d="M215.463 266.538C215.796 267.813 216.129 269.087 216.462 270.361C216.348 270.393 216.234 270.425 216.119 270.457C215.734 269.198 215.349 267.937 214.964 266.679C215.131 266.633 215.298 266.585 215.463 266.538Z" fill="#BB9F87" fill-opacity="0.5"/>
<path d="M195.052 239.071C195.819 240.374 196.585 241.677 197.351 242.979C197.263 243.03 197.175 243.083 197.088 243.136C196.308 241.828 195.527 240.52 194.747 239.212C194.848 239.164 194.95 239.116 195.052 239.071Z" fill="#BB9F87" fill-opacity="0.5"/>
</svg>
