<svg width="500" height="756" viewBox="0 0 500 756" fill="none" xmlns="http://www.w3.org/2000/svg">
<path d="M413.342 195.857C417.423 194.613 419.122 191.856 420.784 188.081C419.374 188.021 417.973 187.6 417.669 188.004C415.994 190.232 412.567 191.574 413.342 195.857Z" fill="#BB9F87" fill-opacity="0.5"/>
<path d="M460.093 129.275C462.616 126.932 462.616 126.932 459.361 122.613C458.018 125.188 459.796 127.112 460.093 129.275Z" fill="#BB9F87" fill-opacity="0.5"/>
<path d="M459.161 267.293C460.177 265.877 461.197 264.464 462.312 262.908C458.816 262.059 458.816 262.059 459.161 267.293Z" fill="#BB9F87" fill-opacity="0.5"/>
<path d="M354.164 262.133C353.095 264.214 352.423 265.897 354.839 266.925C355.226 267.089 356.223 266.714 356.388 266.345C357.225 264.477 357.283 262.792 354.164 262.133Z" fill="#BB9F87" fill-opacity="0.5"/>
<path d="M417.052 158.935C415.759 161.269 415.556 162.829 418.422 164.019C420.009 161.77 419.006 160.499 417.052 158.935Z" fill="#BB9F87" fill-opacity="0.5"/>
<path d="M452.773 147.632C453.819 144.473 452.674 143.386 450.574 143.077C450.172 143.019 449.343 143.609 449.261 144.011C448.723 146.645 450.857 146.641 452.773 147.632Z" fill="#BB9F87" fill-opacity="0.5"/>
<path d="M438.653 97.3087C441.059 94.46 438.388 93.5402 436.814 91.5302C435.704 94.445 436.349 96.045 438.653 97.3087Z" fill="#BB9F87" fill-opacity="0.5"/>
<path d="M441.653 334.044C439.99 336.021 439.187 337.561 441.561 338.791C442.081 339.061 443.33 338.847 443.646 338.419C445.206 336.29 443.666 335.253 441.653 334.044Z" fill="#BB9F87" fill-opacity="0.5"/>
<path d="M467.114 196.183C466.894 194.489 467.015 193.472 466.586 192.82C466.287 192.365 465.23 192.405 464.513 192.224C464.333 193.114 463.771 194.19 464.086 194.841C464.376 195.437 465.613 195.568 467.114 196.183Z" fill="#BB9F87" fill-opacity="0.5"/>
<path d="M487.7 240.695C485.026 237.542 485.026 237.542 481.706 240.217C483.726 240.379 485.141 240.492 487.7 240.695Z" fill="#BB9F87" fill-opacity="0.5"/>
<path d="M437.089 80.0298C438.002 77.7331 438.684 76.0114 439.536 73.868C436.046 75.1231 436.046 75.1231 437.089 80.0298Z" fill="#BB9F87" fill-opacity="0.5"/>
<path d="M474.783 129.414C476.08 126.493 475.584 125.01 471.943 124.929C473.174 126.873 473.978 128.145 474.783 129.414Z" fill="#BB9F87" fill-opacity="0.5"/>
<path d="M364.774 339.906C365.418 341.184 366.065 342.465 366.871 344.065C368.155 341.234 368.155 341.234 364.774 339.906Z" fill="#BB9F87" fill-opacity="0.5"/>
<path d="M422.457 153.898C423.167 154.749 423.878 155.599 424.589 156.452C425.149 155.975 425.712 155.496 426.272 155.019C425.508 154.135 424.744 153.251 423.982 152.366C423.473 152.877 422.963 153.388 422.457 153.898Z" fill="#BB9F87" fill-opacity="0.5"/>
<path d="M483.602 181.761C485.03 182.257 486.274 183.031 486.633 182.737C487.277 182.203 487.58 181.036 487.613 180.118C487.624 179.825 486.129 179.056 485.674 179.267C484.953 179.595 484.532 180.569 483.602 181.761Z" fill="#BB9F87" fill-opacity="0.5"/>
<path d="M456.082 171.125C457.192 170.952 458.321 170.844 459.393 170.54C459.544 170.496 459.427 169.508 459.436 168.958C458.273 168.985 457.107 169.013 455.944 169.041C455.988 169.735 456.035 170.43 456.082 171.125Z" fill="#BB9F87" fill-opacity="0.5"/>
<path d="M282.492 335.121C284.644 334.739 285.914 334.514 287.199 334.285C287.024 333.481 287.07 332.913 286.839 332.757C285.021 331.521 283.476 331.332 282.492 335.121Z" fill="#BB9F87" fill-opacity="0.5"/>
<path d="M432.545 49.1364C432.865 51.8483 433.697 53.5788 436.649 51.4873C436.393 48.09 434.011 49.6227 432.45 49.3547C432.455 49.3458 432.545 49.1364 432.545 49.1364Z" fill="#BB9F87" fill-opacity="0.5"/>
<path d="M250.678 311.933C251.429 312.577 252.118 313.346 252.974 313.775C253.169 313.874 253.953 312.79 254.465 312.25C253.525 311.595 252.584 310.936 251.64 310.281C251.322 310.832 251 311.382 250.678 311.933Z" fill="#BB9F87" fill-opacity="0.5"/>
<path d="M415.332 226.82C413.573 227.784 412.779 228.956 414.17 230.584C414.476 230.943 415.825 230.999 416.139 230.668C417.577 229.147 417.015 227.884 415.332 226.82Z" fill="#BB9F87" fill-opacity="0.5"/>
<path d="M352.338 335.569C351.411 336.34 350.48 337.108 349.552 337.879C350.12 338.34 350.688 338.805 351.256 339.269C351.965 338.371 352.674 337.47 353.383 336.57C353.034 336.238 352.688 335.903 352.338 335.569Z" fill="#BB9F87" fill-opacity="0.5"/>
<path d="M289.267 315.087C289.442 313.955 289.625 312.822 289.741 311.685C289.744 311.65 288.756 311.382 288.688 311.497C288.12 312.442 287.662 313.449 287.169 314.438C287.866 314.654 288.567 314.871 289.267 315.087Z" fill="#BB9F87" fill-opacity="0.5"/>
<path d="M324.393 319.772C324.044 321.098 323.716 321.92 323.684 322.754C323.674 322.979 324.847 323.557 324.991 323.431C325.647 322.841 326.134 322.059 326.68 321.346C326.078 320.932 325.475 320.515 324.393 319.772Z" fill="#BB9F87" fill-opacity="0.5"/>
<path d="M339.529 282.348C339.124 281.167 338.719 279.988 338.311 278.81C337.875 278.922 337.441 279.033 337.005 279.145C337.275 280.408 337.541 281.671 337.811 282.934C338.382 282.738 338.957 282.544 339.529 282.348Z" fill="#BB9F87" fill-opacity="0.5"/>
<path d="M392.773 348.938C393.318 347.748 393.971 346.992 393.82 346.466C393.674 345.957 392.555 345.262 392.131 345.411C391.58 345.604 390.995 346.549 390.993 347.172C390.988 347.64 391.887 348.109 392.773 348.938Z" fill="#BB9F87" fill-opacity="0.5"/>
<path d="M413.047 347.254C413.637 345.967 414.333 345.148 414.152 344.652C413.948 344.087 412.956 343.807 412.308 343.402C411.964 344.024 411.314 344.672 411.365 345.261C411.412 345.81 412.197 346.299 413.047 347.254Z" fill="#BB9F87" fill-opacity="0.5"/>
<path d="M374.858 232.047C375.288 230.57 375.659 229.732 375.685 228.881C375.69 228.696 374.187 228.111 373.856 228.355C373.32 228.75 372.928 229.696 372.969 230.379C372.993 230.829 373.884 231.231 374.858 232.047Z" fill="#BB9F87" fill-opacity="0.5"/>
<path d="M482.162 149.927C480.962 149.415 480.176 148.777 479.707 148.959C479.144 149.179 478.851 150.094 478.44 150.708C479.08 151.118 479.718 151.836 480.355 151.837C480.829 151.835 481.297 150.893 482.162 149.927Z" fill="#BB9F87" fill-opacity="0.5"/>
<path d="M381.015 298.01C381.449 296.686 381.95 295.941 381.795 295.377C381.665 294.907 380.765 294.651 380.205 294.297C379.861 294.881 379.193 295.503 379.257 296.039C379.324 296.585 380.109 297.047 381.015 298.01Z" fill="#BB9F87" fill-opacity="0.5"/>
<path d="M424.297 291.644C423.589 290.902 422.906 290.127 422.123 289.474C422.06 289.423 421.308 290.199 420.875 290.591C421.63 291.311 422.385 292.032 423.143 292.756C423.527 292.385 423.91 292.014 424.297 291.644Z" fill="#BB9F87" fill-opacity="0.5"/>
<path d="M389.651 216.149C388.267 215.653 387.527 215.11 387.052 215.284C386.448 215.504 386.056 216.31 385.574 216.861C386.098 217.318 386.746 218.234 387.121 218.135C387.848 217.939 388.422 217.172 389.651 216.149Z" fill="#BB9F87" fill-opacity="0.5"/>
<path d="M393.822 268.695C394.81 268.7 395.562 268.874 396.151 268.637C396.426 268.526 396.586 267.221 396.456 267.16C395.821 266.852 395.072 266.684 394.367 266.699C394.221 266.699 394.09 267.675 393.822 268.695Z" fill="#BB9F87" fill-opacity="0.5"/>
<path d="M439.523 84.2242C440.291 83.6233 441.062 83.0252 441.83 82.4242C441.276 81.9536 440.722 81.483 440.171 81.0124C439.698 81.8614 439.228 82.7133 438.755 83.5623C439.008 83.7821 439.264 84.0046 439.523 84.2242Z" fill="#BB9F87" fill-opacity="0.5"/>
<path d="M463.883 161.615C464.333 161.067 464.69 160.633 465.043 160.199C464.479 159.816 463.913 159.433 463.349 159.054C463.024 159.549 462.455 160.046 462.457 160.54C462.458 160.864 463.281 161.186 463.883 161.615Z" fill="#BB9F87" fill-opacity="0.5"/>
<path d="M395.988 239.662C396.341 238.783 396.739 238.131 396.781 237.458C396.794 237.259 395.551 236.663 395.306 236.838C394.793 237.205 394.437 237.938 394.29 238.581C394.25 238.754 395.171 239.153 395.988 239.662Z" fill="#BB9F87" fill-opacity="0.5"/>
<path opacity="0.44" d="M228.318 295.093C222.01 296.358 215.702 295.805 209.746 293.967C200.806 291.21 192.018 287.876 183.357 284.33C173.085 280.125 166.417 272.376 163.581 261.64C161.671 254.402 160.248 247.033 158.634 239.718C155.384 224.983 154.248 210.189 157.666 195.321C158.308 192.533 159.391 189.844 160.278 187.112C162.21 181.172 163.738 175.056 166.171 169.33C170.648 158.79 175.603 148.45 180.478 138.083C182.599 133.571 184.602 128.919 187.374 124.814C197.767 109.433 208.816 94.6049 222.668 81.992C237.289 68.6786 251.022 54.3318 267.83 43.644C276.255 38.2879 285.071 33.5434 293.608 28.3545C303.395 22.4083 314.15 19.4028 325.306 17.6051C334.133 16.1812 342.969 14.7133 351.85 13.7531C364.187 12.4184 376.566 9.72639 388.861 14.5054C397.082 17.7015 405.159 21.2574 411.47 27.4613C421.054 36.8758 423.165 49.4248 422.981 61.9757C422.838 71.8977 420.584 81.7973 419.112 91.686C418.317 97.0293 417.207 102.324 416.229 107.639C414.07 119.392 409.574 130.401 405.035 141.34C401.845 149.026 397.116 156.104 394.211 163.877C388.734 178.534 379.86 191.124 371.071 203.74C366.45 210.372 360.812 216.373 355.15 222.188C344.41 233.224 333.925 244.581 320.86 253.076C315.969 256.255 311.005 259.404 306.526 263.115C293.34 274.045 278.287 281.468 257.203 289.419C251.168 290.6 239.732 292.801 228.318 295.093ZM304.689 260.301C309.976 256.245 315.621 252.655 320.959 248.657C339.433 234.817 355.908 218.775 369.491 200.21C379.048 187.148 387.53 173.196 393.343 157.812C395.978 150.84 400.487 144.564 402.993 137.559C406.972 126.428 411.737 115.507 413.146 103.521C413.992 96.3083 416.334 89.2777 417.286 82.0689C418.278 74.5612 419.896 67.0226 417.902 59.3268C417.208 56.6433 417.431 53.6216 417.722 50.8061C418.348 44.7854 415.742 39.754 412.714 35.1029C409.855 30.7113 406.914 25.8595 400.68 25.413C398.048 21.9082 394.181 20.4175 390.284 18.9011C382.986 16.0625 375.644 14.6279 367.685 15.7791C352.445 17.9851 337.044 19.1743 321.877 21.7618C312.277 23.4009 302.953 26.639 294.402 31.7609C282.088 39.1405 269.202 45.6408 258.13 54.9264C249.68 62.0107 241.364 69.2587 233.178 76.6414C227.604 81.6651 222.324 87.0187 216.966 92.2745C207.075 101.979 199.17 113.247 191.692 124.822C189.096 128.838 186.673 132.997 184.56 137.28C179.764 146.997 174.73 156.64 170.701 166.676C167.072 175.716 164.458 185.188 161.746 194.568C157.652 208.734 158.821 222.899 162.238 237.043C163.847 243.706 165.243 250.432 166.387 257.19C168.329 268.679 174.861 276.722 185.317 280.985C194.925 284.903 204.954 287.874 214.953 290.711C218.65 291.761 222.907 291.927 226.712 291.303C238.199 289.425 249.591 286.965 257.298 285.459C276.516 278.015 291.336 270.544 304.689 260.301Z" fill="#FEC94E"/>
<path d="M272 192.87C271.726 195.969 270.5 199.769 271.806 202.045C274.113 206.068 272.26 209.007 271.384 212.464C270.312 216.679 268.994 220.963 268.854 225.252C268.467 237.026 266.193 248.37 262.839 259.612C261.002 265.763 256.125 269.132 251.087 270.759C246.299 272.305 240.535 271.527 235.332 270.825C231.925 270.365 228.908 269.526 227.217 271.549C221.379 270.431 216.518 269.499 211.37 268.512C211.958 267.041 212.441 265.701 213.016 264.405C215.797 258.119 218.425 251.758 221.463 245.598C223.562 241.341 226.086 237.265 228.715 233.304C230.653 230.383 233.852 228.093 235.113 224.968C237.99 217.847 240.022 210.387 242.411 203.008C223.292 219.115 210.055 240.163 194.976 258.631C186.182 255.564 186.8 245.147 179.118 242.147C177.12 235.489 172.702 229.505 174.299 221.856C175.21 217.498 175.133 212.933 175.547 207.911C181.046 205.286 187.108 202.094 193.411 199.478C198.549 197.343 204.007 195.997 209.259 194.114C212.172 193.07 215.012 191.776 217.768 190.367C223.338 187.521 228.869 184.767 235.127 183.506C238.702 182.784 242.075 180.952 245.472 179.468C249.846 177.557 254.118 175.405 258.52 173.564C259.487 173.157 260.815 173.606 262.387 173.678C260.049 177.32 257.972 180.556 255.774 183.988C259.706 184.276 260.846 181.507 262.4 179.39C265.108 175.704 268.24 173.434 273.737 175.819C273.126 181.732 272.492 187.294 272 192.87ZM256.764 249.234C259.833 243.974 258.587 238.022 257.594 232.167C251.813 243.13 247.689 254.706 243.175 266.121C243.696 266.438 244.217 266.754 244.738 267.073C248.781 261.147 253.159 255.415 256.764 249.234ZM214.632 216.039C224.693 216.39 238.844 205.019 243.969 192.956C232.463 198.582 224.955 208.494 214.632 216.039ZM252.49 196.093C245.344 201.919 239.993 214.437 237.389 233.029C243.303 221.192 251.363 210.185 252.49 196.093ZM204.716 204.296C211.622 205.625 230.225 194.949 234.782 186.948C222.47 189.34 213.792 196.839 204.716 204.296ZM264.928 183.373C257.44 188.683 253.508 201.071 251.959 221.202C252.419 221.376 252.881 221.55 253.341 221.722C257.089 209.323 260.837 196.922 264.928 183.373ZM262.131 228.455C261.773 232.783 261.939 237.156 261.853 241.508C261.737 247.363 259.426 252.352 255.933 256.946C253.982 259.516 252.32 262.305 251.074 265.465C255.22 264.673 258.029 262.699 259.554 258.661C262.734 250.245 265.055 241.694 265.205 232.632C265.273 228.555 265.543 224.48 265.723 220.404C265.14 220.346 264.56 220.288 263.98 220.23C263.336 222.972 262.359 225.682 262.131 228.455ZM240.721 263.604C243.443 256.983 246.152 250.357 248.306 243.45C240.739 249.285 237.017 257.66 232.148 265.885C238.561 268.713 238.625 268.697 240.721 263.604ZM247.162 222.572C246.427 223.623 245.497 224.587 244.987 225.738C240.819 235.146 236.689 244.57 232.648 254.031C231.888 255.807 231.564 257.767 231.037 259.643C231.431 259.758 231.825 259.875 232.219 259.99C238.596 248.187 246.654 237.103 247.162 222.572ZM181.756 228.427C178.332 229.616 177.811 230.706 179.033 233.989C179.175 234.375 179.385 234.736 179.574 235.103C180.293 236.5 181.021 237.894 182.058 239.892C184.938 236.46 187.275 233.087 190.204 230.353C193.085 227.666 196.574 225.631 199.793 223.311C199.623 223.005 199.452 222.696 199.285 222.39C193.443 224.402 187.595 226.4 181.756 228.427ZM199.135 247.411C207.208 239.498 212.196 230.745 217.811 222.409C208.799 228.096 200.825 234.635 199.135 247.411ZM213.3 210.136C203.164 210.234 196.329 216.991 188.832 222.711C197.376 219.483 206.376 216.813 213.3 210.136ZM193.08 252.766C196.269 248.337 196.377 243.236 197.95 237.333C193.864 239.302 190.785 240.785 187.481 242.379C188.263 247.022 188.62 250.75 193.08 252.766ZM269.289 182.389C264.242 191.667 264.687 202.058 263.231 212.064C267.483 202.625 269.973 192.828 269.289 182.389ZM185.123 206.334C185.298 206.748 185.474 207.163 185.649 207.577C193.084 207.355 199.726 205.17 204.993 199.58C204.731 198.963 204.47 198.349 204.205 197.732C197.846 200.597 191.484 203.466 185.123 206.334ZM207.085 224.048C205.431 225.2 203.802 226.386 202.118 227.492C201.1 228.163 199.994 229.23 198.936 229.217C193.225 229.151 191.527 233.444 188.399 238.386C196.702 234.836 202.981 230.953 207.085 224.048ZM195.082 213.887C188.582 212.859 184.831 216.13 182.035 220.914C182.382 221.298 182.727 221.683 183.071 222.067C187.077 219.339 191.079 216.612 195.082 213.887ZM227.807 254.967C224.71 258.807 222.116 262.025 219.373 265.431C225.529 266.779 227.141 264.807 227.807 254.967ZM183.542 211.203C182.342 210.977 181.107 210.942 179.101 210.756C178.542 213.472 178.012 216.05 177.482 218.628C177.851 218.79 178.219 218.951 178.588 219.113C180.735 216.82 182.885 214.526 185.134 212.125C184.569 211.783 184.091 211.305 183.542 211.203ZM218.842 259.163C224.089 255.853 224.777 254.383 223.074 249.201C221.401 253.139 220.231 255.891 218.842 259.163ZM231.439 236.59C230.971 236.311 230.504 236.031 230.033 235.755C228.294 238.519 226.557 241.283 224.818 244.048C225.433 244.388 226.049 244.726 226.661 245.067C228.256 242.241 229.847 239.416 231.439 236.59Z" fill="#BB9F87" fill-opacity="0.5"/>
<path opacity="0.44" d="M309.655 42.9725C301.831 70.0684 295.663 97.4976 291.901 125.463C292.944 125 293.613 124.448 293.928 123.739C298.075 114.414 302.176 105.068 306.267 95.7174C306.504 95.1744 306.849 94.3749 306.627 93.9878C304.204 89.7215 306.691 86.3536 308.471 82.7961C310.796 78.1542 313.451 73.6047 315.151 68.7334C318.025 60.5045 320.287 52.0578 322.764 43.6883C323.978 39.5903 324.62 39.2784 328.929 39.3829C331.31 39.4405 333.838 39.1589 336.064 38.3691C338.782 37.4052 341.249 35.7391 343.831 34.3893C349.981 31.1776 356.088 31.8899 362.095 34.7326C362.693 34.2814 363.272 33.9768 363.68 33.5238C366.376 30.5286 369.223 29.293 372.846 32.1979C373.771 32.9384 375.144 33.1869 376.355 33.4857C378.641 34.0482 380.957 34.4814 383.394 34.9968C382.96 36.3186 382.935 37.0646 382.552 37.4703C377.706 42.6101 372.857 47.747 367.898 52.7781C366.201 54.5009 364.131 57.284 362.341 57.205C358.004 57.0106 360.472 61.3052 357.828 62.6213C354.967 64.0472 353.36 67.9284 351.117 70.6655C343.335 80.1678 335.633 89.7386 327.664 99.0812C322.869 104.702 317.565 109.884 312.615 115.374C305.786 122.95 299.094 130.652 292.268 138.233C291.746 138.815 290.624 138.853 289.875 139.109C288.574 137.28 292.878 134.186 286.76 133.658C285.354 137.249 283.779 141.27 282.276 145.105C278.999 145.382 277.89 143.836 277.161 141.273C276.077 137.472 274.665 133.754 273.213 130.075C269.126 119.705 266.799 109.105 266.89 97.8217C266.962 88.5443 267.573 79.0451 263.54 70.1676C263.108 69.218 263.594 67.8512 263.646 66.8591C270.072 64.0274 276.129 61.3877 282.149 58.667C282.859 58.3479 283.336 57.5514 283.977 57.0466C287.566 54.2372 290.951 51.0812 294.828 48.7508C299.186 46.1297 303.994 44.259 308.604 42.0622C308.958 42.3616 309.307 42.6671 309.655 42.9725ZM324.746 69.0501C325.15 69.3456 325.554 69.644 325.961 69.9393C326.692 68.5762 327.423 67.213 328.154 65.8498C331.048 61.9881 333.945 58.1233 337.513 53.3615C327.91 56.6903 326.088 59.1349 327.501 65.4895C326.584 66.6753 325.665 67.8642 324.746 69.0501ZM303.383 120.478C305.78 120.196 306.797 118.766 307.125 116.768C313.348 111.353 316.496 103.852 320.402 96.8528C313.552 101.807 309.736 108.892 306.747 116.562C305.629 117.869 304.507 119.174 303.383 120.478ZM278.369 89.6528C282.155 83.3224 286.177 77.1185 289.662 70.6278C293.14 64.1518 296.087 57.3889 299.177 50.9388C285.915 53.3455 274.217 75.9778 278.369 89.6528ZM320.567 87.6758C333.738 78.5093 340.58 64.9401 346.232 50.6624C334.071 60.6289 326.64 73.6902 320.567 87.6758ZM321.752 59.2123C326.954 54.1906 333.31 51.3429 339.238 47.7383C343.98 44.8546 347.735 40.349 351.722 36.0957C348.185 36.1006 344.867 36.7557 341.846 38.5007C334.444 42.7739 333.818 43.024 326.403 43.6549C324.885 48.7299 323.318 53.9725 321.752 59.2123ZM270.431 83.1414C270.208 97.0116 268.638 111.024 275.485 124.137C275.631 110.253 278.651 96.0403 270.431 83.1414ZM280.741 117.009C285.929 106.202 286.191 94.5589 287.487 81.5166C279.793 92.9903 277.441 106.526 280.741 117.009ZM290.169 86.1312C294.67 84.4542 296.926 82.7312 297.502 78.3515C298.461 71.0637 300.335 63.8997 302.055 55.5492C292.774 64.2444 293.272 75.3162 290.169 86.1312ZM353.389 55.5124C353.456 54.1603 355.711 52.8116 357.116 51.6475C361.591 47.9305 363.965 44.2172 365.77 37.7738C359.519 40.5082 347.65 55.9031 345.453 64.9273C348.511 62.0618 353.124 60.8239 353.389 55.5124ZM283.089 133.956C289.024 125.843 291.413 113.774 290.033 100.789C284.195 111.133 284.525 122.129 283.089 133.956ZM302.514 113.819C310.479 103.302 315.359 91.3528 318.613 78.6811C313.417 90.4819 305.143 100.88 302.514 113.819ZM348.674 69.1797C348.287 68.8517 347.897 68.5267 347.51 68.1988C338.274 75.709 332.44 86.1171 324.886 95.0592C325.448 95.5179 326.008 95.9796 326.57 96.4383C333.94 87.3511 341.307 78.2639 348.674 69.1797ZM370.949 36.2373C368.282 41.3952 365.782 46.222 363.286 51.0489C369.346 48.2688 372.619 43.0133 377.175 37.2833C374.502 36.8343 372.751 36.5411 370.949 36.2373ZM278.2 66.4187C273.227 68.5852 271.415 73.1578 273.692 80.4178C275.458 74.9283 276.832 70.6632 278.2 66.4187ZM353.352 42.6065C353.676 42.8861 354.004 43.1628 354.328 43.4394C355.477 42.1785 356.625 40.9176 357.773 39.6566C357.26 39.2992 356.747 38.9387 356.233 38.5813C355.271 39.926 354.311 41.2677 353.352 42.6065Z" fill="#FEC94E"/>
<path opacity="0.44" d="M406.805 83.4475C405.83 89.7212 406.182 96.3878 401.198 101.478C400.079 102.621 399.284 104.272 398.826 105.834C397.757 109.482 395.178 110.937 391.798 112.155C384.8 114.677 377.97 117.669 371.091 120.516C362.275 124.165 353.883 128.739 344.321 130.679C339.591 131.639 334.372 131.454 330.155 134.862C324.669 139.296 317.966 141.259 311.198 142.575C306.411 143.507 301.477 144.635 296.011 142.991C296.738 140.461 296.727 137.606 298.144 136.058C304.464 129.16 311.183 122.627 317.778 115.979C321.001 112.73 325.17 110.022 327.302 106.18C331.339 98.8939 338.32 94.6034 343.68 88.7657C351.212 80.5666 360.823 74.2997 369.362 66.9943C374.573 62.5337 379.448 57.6798 384.462 52.9867C386.01 51.536 387.833 49.5942 389.802 51.4614C393.219 54.704 397.91 56.7618 399.76 61.5257C401.207 65.2602 402.652 69.0036 403.855 72.8194C404.109 73.6238 403.353 74.777 402.99 75.7436C402.426 77.2552 401.8 78.7477 401.062 80.5993C403.092 80.6731 404.634 80.731 406.381 80.7933C406.57 81.8885 406.921 82.7054 406.805 83.4475ZM338.692 118.611C340.457 118.056 342.957 118.041 343.843 116.838C346.051 113.839 349.426 113.498 352.324 112.297C359.084 109.49 365.12 105.716 371.024 101.37C377.336 96.7251 384.464 93.1915 391.216 89.1368C392.192 88.5519 393.049 87.7648 393.961 87.0702C393.721 86.6368 393.481 86.2005 393.24 85.7641C372.797 92.6176 352.808 100.26 338.692 118.611ZM375.201 103.281C371.113 104.627 367.651 107.879 363.907 110.27C364.096 110.646 364.286 111.022 364.475 111.401C370.739 110.137 377 108.876 383.265 107.615C384.083 107.451 384.946 107.064 385.717 107.194C393.565 108.513 397.584 104.191 400.306 96.9276C391.538 99.0752 383.193 100.647 375.201 103.281ZM381.92 68.6338C369.384 74.7962 359.414 84.1111 350.181 94.3838C364.744 90.6135 374.134 80.583 381.92 68.6338ZM303.918 139.397C319.908 139.628 331.694 130.783 343.132 121.072C328.733 124.318 317.317 133.924 303.918 139.397ZM378.251 112.454C364.874 113.401 352.967 118.097 342.734 127.105C355.646 124.887 367.145 119.153 378.251 112.454ZM322.279 125.303C333.805 117.709 343.884 108.456 354.533 97.6387C338.608 102.406 331.007 114.5 322.279 125.303ZM374.499 86.1735C374.112 86.4302 374.339 87.6123 374.208 89.2755C381.44 86.7863 388.127 84.7676 394.557 82.1229C396.803 81.1983 399.312 79.2653 398.241 74.9761C389.231 77.0061 381.743 81.3512 374.499 86.1735ZM331.767 108.997C326.012 110.288 312.004 123.553 307.511 131.966C313.385 131.297 327.241 115.995 331.767 108.997ZM396.182 67.5974C391.701 67.7948 387.033 67.6571 383.936 72.0318C382.316 74.323 380.28 76.3219 379.039 79.1868C385.228 76.4216 391.416 73.6534 398.81 70.348C397.792 69.2354 396.95 67.5636 396.182 67.5974ZM383.743 97.6474C390.946 96.2521 398.628 95.8348 402.646 88.1576C395.302 89.4009 389.16 92.8346 383.743 97.6474ZM385.209 56.6718C381.24 60.1617 377.424 63.8238 373.864 67.8459C379.947 65.7669 385.197 62.4398 389.918 58.0014C388.56 55.7412 386.966 55.129 385.209 56.6718ZM395.834 63.0765C395.555 62.6001 395.162 61.6817 395.01 61.72C393.996 61.9784 393.032 62.4373 392.052 62.8323C392.288 63.3359 392.524 63.8367 392.759 64.3403C393.782 63.9181 394.808 63.4958 395.834 63.0765Z" fill="#FEC94E"/>
<path d="M336.375 195.606C328.807 189.417 321.049 183.413 313.009 177.854C305.678 172.786 297.884 168.391 290.332 163.637C289.947 163.396 289.929 162.575 289.609 161.647C291.144 160.994 292.526 160.404 293.853 159.841C293.899 157.472 293.936 155.468 293.972 153.486C294.997 153.011 295.714 152.507 296.5 152.341C306.25 150.287 316 148.241 325.766 146.268C336.748 144.05 347.682 141.421 358.761 139.897C367.039 138.757 375.258 138.009 382.998 134.521C384.846 133.69 387.123 133.808 389.462 133.448C384.169 143.395 379.26 152.614 374.31 161.913C369.912 162.954 369.343 163.705 366.829 168.971C363.798 175.318 360.185 181.399 357.357 187.829C354.641 194.002 347.115 195.308 344.415 201.428C344.005 202.355 341.927 202.545 340.446 203.149C338.874 200.119 338.231 197.122 336.375 195.606ZM341.758 154.886C344.438 154.859 347.124 154.69 349.793 154.844C353.253 155.043 356.721 155.358 360.147 155.882C364.024 156.472 367.86 157.346 372.252 158.203C373.443 154.556 374.492 151.356 375.878 147.117C370.101 148.195 365.548 149.38 360.927 149.817C355.979 150.284 350.963 150.046 345.981 150.125C341.314 150.201 336.572 148.667 332.036 150.921C335.553 151.899 339.85 150.255 341.758 154.886ZM346.322 177.524C341.417 175.468 336.589 172.904 329.82 173.098C336.528 178.589 342.452 183.436 348.791 188.624C352.519 181.491 352.183 179.981 346.322 177.524ZM345.938 145.37C346.004 145.871 346.068 146.373 346.131 146.871C354.217 146.898 362.332 147.685 370.312 145.183C372.484 144.502 374.794 143.395 376.915 143.625C380.498 144.011 381.006 142.018 381.724 139.202C369.298 141.343 357.618 143.356 345.938 145.37ZM350.074 157.478C344.424 158.063 338.807 158.939 333.191 160.304C343.429 161.855 353.597 164.069 364.012 161.553C359.762 158.544 355.156 156.949 350.074 157.478ZM320.476 178.318C324.347 180.668 328.328 182.838 332.293 185.107C331.639 176.851 321.901 170.503 308.156 170.391C313.04 173.544 316.703 176.025 320.476 178.318ZM333.431 154.835C322.098 154.169 312.347 155.747 301.879 157.717C308.965 162.385 320.657 161.333 333.431 154.835ZM360.571 172.714C354.862 170.956 349.36 169.263 343.857 167.567C343.707 167.769 343.559 167.974 343.408 168.179C347.823 172.47 352.238 176.764 357.222 181.608C358.238 178.908 359.301 176.088 360.571 172.714ZM307.398 164.871C315.31 168.076 323.566 169.357 332.202 168.94C324.334 163.932 318.837 163.061 307.398 164.871ZM342.902 196.517C344.505 194.913 345.727 193.691 347.482 191.935C344.225 189.289 341.39 186.984 338.555 184.679C338.119 185.068 337.685 185.454 337.249 185.844C339.031 189.206 340.809 192.565 342.902 196.517ZM363.863 166.23C360.258 166.225 356.881 166.221 352.847 166.213C360.631 170.316 361.625 170.324 363.863 166.23Z" fill="#BB9F87" fill-opacity="0.5"/>
<path d="M326.17 224.717C324.617 226.615 322.458 228.047 320.464 229.548C314.194 234.264 306.872 237.46 301.424 243.44C299.498 245.556 296.62 247.41 293.076 246.549C292.289 246.358 291.142 246.76 290.44 247.269C288.261 248.853 286.307 250.753 284.089 252.277C281.999 253.71 280.157 255.868 276.226 255.639C276.797 252.104 277.455 248.927 277.793 245.719C278.199 241.843 279.275 237.715 278.411 234.085C275.509 221.863 275.406 209.818 278.422 197.657C279.014 195.265 279.25 192.726 279.238 190.258C279.212 183.243 280.505 176.656 284.149 170.521C286.398 166.734 287.093 166.272 290.57 168.683C302.076 176.668 313.015 185.203 320.277 197.62C321.922 200.432 324.502 202.745 326.847 205.096C329.9 208.156 333.147 211.022 336.296 213.961C333.867 216.868 333.867 216.868 330.919 216.811C329.083 219.949 327.925 222.578 326.17 224.717ZM299.748 206.103C299.965 208.733 299.759 210.731 300.337 212.467C302.372 218.571 301.554 224.807 301.636 231.014C301.68 234.305 301.133 237.064 297.939 238.907C296.541 239.714 295.587 241.298 294.435 242.527C311.215 234.006 311.617 221.787 299.748 206.103ZM297.276 178.603C302.206 189.257 309.256 198.003 319.79 203.57C314.331 193.332 307.153 184.72 297.276 178.603ZM291.943 180.611C292.766 191.851 298.837 200.089 306.904 207.188C305.498 196.282 298.211 188.739 291.943 180.611ZM297.904 227.346C299.746 216.856 296.402 208.227 292.651 199.671C289.749 209.458 290.122 218.638 297.904 227.346ZM285.806 176.148C280.877 185.956 283.005 195.958 285.064 205.81C288.551 195.855 288.041 186.014 285.806 176.148ZM284.972 245.716C294.588 242.033 296.732 231.87 289.736 223.201C288.14 230.748 286.567 238.183 284.972 245.716ZM313.549 214.318C309.041 219.433 312.852 225.432 311.222 231.153C319.098 227.171 319.768 221.155 313.549 214.318ZM324.164 216.7C323.181 215.154 321.806 213.85 320.561 212.482C319.396 211.2 318.169 209.972 316.302 209.228C317.882 213.816 319.461 218.405 321.228 223.544C325.525 220.638 326.009 219.607 324.164 216.7ZM279.874 222.583C280.638 227.037 281.336 231.103 282.263 236.489C285.901 231.594 284.967 227.278 286.063 222.446C283.547 222.502 282.171 222.531 279.874 222.583ZM279.511 217.285C283.364 214.815 280.723 211.608 281.509 208.812C281.018 208.714 280.528 208.616 280.035 208.515C279.863 211.44 279.688 214.361 279.511 217.285Z" fill="#BB9F87" fill-opacity="0.5"/>
<path opacity="0.44" d="M252.07 82.0841C252.786 82.9138 253.542 83.386 253.519 83.8191C253.125 91.1622 256.719 96.8712 260.545 102.727C264.053 108.099 266.831 113.925 265.242 120.884C264.889 122.432 265.705 124.683 266.737 126.044C272.596 133.781 276.013 142.154 274.367 152.502C267.513 152.151 261.042 150.262 254.877 147.11C253.228 146.268 251.55 145.456 249.814 144.815C245.957 143.388 241.795 142.561 238.222 140.629C229.54 135.934 220.681 132.055 209.299 131.692C218.533 109.77 235.214 95.974 252.07 82.0841ZM266.392 147.676C264.673 143.122 261.004 140.78 257.5 138.609C253.69 136.252 249.471 134.555 245.399 132.633C244.159 132.048 242.82 131.67 241.53 131.198C252.164 142.973 257.283 146.173 266.392 147.676ZM241.921 138.472C237.521 131.97 231.553 129.717 225.795 127.264C223.314 126.205 220.595 125.652 217.753 128.496C225.839 131.832 233.339 134.929 241.921 138.472ZM248.003 125.421C253.121 132.589 261.073 136.58 267.615 142.221C263.634 133.725 255.666 129.758 248.003 125.421ZM267.448 134.051C264.48 126.3 258.757 120.305 254.269 113.522C256.409 121.802 259.946 129.193 267.448 134.051ZM243.996 128.243C241.047 121.4 235.053 118.841 228.496 117.074C233.034 121.679 237.902 125.82 243.996 128.243ZM253.454 124.718C252.314 117.951 247.153 111.27 239.525 106.687C243.212 113.909 248.988 118.402 253.454 124.718ZM259.968 107.668C256.886 102.536 253.804 97.4037 250.722 92.2714C250.688 99.4811 251.221 100.353 259.968 107.668ZM229.316 107.626C228.025 108.907 227.217 109.711 225.966 110.951C227.791 112.081 229.26 112.991 230.73 113.902C231.062 113.602 231.395 113.306 231.731 113.006C231.01 111.396 230.286 109.786 229.316 107.626ZM239.719 112.676C238.09 111.93 236.749 111.315 234.748 110.399C235.621 113.666 236.051 116.165 239.719 112.676ZM247.638 109.079C248.569 106.256 248.569 106.256 245.541 103.785C246.177 105.4 246.817 107.012 247.638 109.079ZM239.943 99.104C239.753 98.573 239.329 98.1289 238.972 97.5869C237.517 99.6641 237.517 99.6641 240.506 101.662C240.291 100.634 240.204 99.838 239.943 99.104Z" fill="#FEC94E"/>
<path d="M193.146 161.349C192.873 155.488 195.482 151.421 199.591 147.899C198.921 145.958 198.332 144.246 197.379 141.468C204.383 144.918 210.713 145.117 217.159 144.401C217.97 144.311 218.814 144.562 219.645 144.612C230.827 145.295 240.665 150.992 251.451 153.145C251.847 153.225 252.244 153.441 252.574 153.686C255.591 155.928 258.939 156.483 262.633 156.027C265.525 155.671 267.927 156.561 267.79 159.613C267.082 161.651 266.376 163.686 265.431 166.404C261.368 167.803 256.586 169.176 252.025 171.077C244.441 174.234 236.217 174.868 228.627 178.689C219.041 183.514 208.349 186.194 198.044 189.511C192.995 191.135 187.718 191.233 181.327 190.263C186.18 184.337 186.472 176.753 192.821 172.59C191.551 171.039 190.423 169.662 189.493 168.524C190.902 165.91 193.249 163.574 193.146 161.349ZM238.036 160.569C243.959 162.533 249.194 160.847 255.037 159.583C245.716 152.481 232.875 151.701 221.218 156.997C226.861 158.146 232.639 158.78 238.036 160.569ZM200.333 170.358C202.787 169.988 205.168 169.113 207.574 168.43C215.281 166.238 222.984 164.034 231.428 161.624C218.183 160.025 206.438 162.406 195.374 169.905C197.03 170.08 198.739 170.6 200.333 170.358ZM221.752 152.981C224.268 152.114 226.897 151.582 229.504 150.887C226.076 147.767 215.081 146.629 205.245 148.484C210.205 153 215.304 155.199 221.752 152.981ZM220.675 177.843C211.746 176.413 204.107 178.87 196.571 185.917C206.361 185.657 213.004 180.204 220.675 177.843ZM234.473 170.955C239.635 172.035 249.52 169.458 258.428 164.378C250.167 165.1 241.932 165.772 234.473 170.955ZM202.213 150.545C196.791 154.121 196.585 154.473 196.905 159.778C200.747 158.457 204.526 157.155 208.789 155.691C206.298 153.738 204.253 152.142 202.213 150.545ZM232.147 166.845C225.427 166.052 222.23 166.695 211.59 171.151C219.325 172.481 229.063 170.292 232.147 166.845ZM188.611 187.191C192.974 183.827 196.573 181.056 200.407 178.101C192.773 174.901 190.392 176.632 188.611 187.191Z" fill="#BB9F87" fill-opacity="0.5"/>
<path opacity="0.44" d="M360.004 368.342C348.894 366.499 337.886 364.061 326.796 362.077C301.513 357.55 277.66 348.67 254.464 338C241.773 332.163 229.405 325.588 217.092 318.97C205.89 312.949 194.588 306.983 184.025 299.945C175.21 294.072 167.06 286.951 161.786 277.416C158.57 271.603 155.406 265.645 153.233 259.397C150.864 252.586 148.347 245.708 149.083 238.092C149.639 232.341 148.625 226.437 149.196 220.69C150.265 209.918 151.024 198.971 153.656 188.54C156.908 175.649 161.555 163.059 166.316 150.613C170.637 139.313 176.069 128.466 183.484 118.761C188.681 111.959 193.526 104.858 199.11 98.3901C208.223 87.8305 217.687 77.5675 227.271 67.4306C229.942 64.6055 233.928 63.0359 236.673 60.2618C245.963 50.8708 256.426 42.9252 267.122 35.3139C283.794 23.448 300.859 12.3747 321.435 8.0266C336.379 4.868 351.36 2.19093 366.629 3.4426C374.252 4.06725 381.699 6.6104 389.301 7.79383C399.981 9.45571 408.391 15.9162 417.66 20.5664C418.931 21.2031 420.076 22.2546 421.031 23.3305C427.237 30.3348 435.858 34.7707 441.14 42.8528C443.935 47.1259 448.544 50.2526 451.13 54.6119C453.764 59.0492 457.8 62.1471 460.336 66.7415C466.264 77.4876 472.824 87.9368 479.817 98.0318C490.436 113.365 496.162 130.576 500.988 148.3C505.385 164.443 506.356 181.109 509.06 197.507C509.654 201.108 509.078 204.984 508.566 208.67C506.641 222.512 503.076 235.974 498.868 249.282C497.301 254.239 496.058 259.299 494.524 264.266C493.544 267.432 492.094 270.46 491.209 273.647C487.695 286.322 485.836 299.265 484.532 312.351C483.635 321.327 481.363 330.11 474.383 336.64C468.919 341.752 463.187 346.449 456.633 350.303C449.885 354.273 443.086 356.25 435.304 355.661C428.569 355.149 422.066 356.05 416.061 359.747C413.077 361.585 409.567 362.563 406.292 363.93C393.7 368.825 374.141 370.684 360.004 368.342ZM474.119 332.62C473.804 332.238 473.489 331.859 473.174 331.477C469.394 334.627 464.92 336.932 462.277 341.466C459.974 340.939 459.543 339.519 460.97 337.86C462.314 336.297 464.024 335.045 465.609 333.698C469.1 330.73 472.676 327.854 476.105 324.814C479.758 321.579 481.062 317.447 480.516 311.439C472.088 319.134 464.388 326.162 456.688 333.192C456.722 328.055 461.828 327.303 463.329 323.375C462.871 323.022 462.176 322.484 461.48 321.946C462.212 321.033 462.902 319.367 463.681 319.327C472.573 318.849 475.126 310.756 481.253 305.814C479.165 304.098 477.665 302.87 476.258 301.716C470.447 307.554 464.912 313.115 459.402 318.652C456.882 316.718 458.105 315.145 459.366 314.227C468.443 307.603 474.438 298.2 481.495 289.774C482.82 288.191 483.288 285.722 483.699 283.577C484.204 280.941 484.231 278.215 484.478 275.392C478.623 279.127 476.252 283.778 477.648 289.362C471.638 287.887 468.499 292.07 466.092 296.003C463.908 299.569 461.327 301.358 456.54 302.015C457.42 300.461 457.767 299.042 458.668 298.394C462.106 295.921 465.139 293.366 463.407 287.685C465.577 288.51 466.806 288.978 468.421 289.592C471.257 285.893 474.22 282.141 477.053 278.292C479.031 275.604 480.487 272.46 482.764 270.079C489.641 262.876 490.555 253.288 494.482 243.438C489.496 246.128 488.142 250.209 485.834 253.298C483.514 256.405 478.992 258.761 481.699 264.699C477.324 263.62 475.514 265.956 473.507 268.36C466.713 276.509 459.783 284.549 452.781 292.52C452.119 293.277 450.569 293.254 449.431 293.591C449.108 293.122 448.788 292.649 448.465 292.179C449.947 290.388 451.31 288.479 452.938 286.831C457.586 282.125 462.901 277.987 465.377 271.512C465.579 270.984 466.065 270.468 466.555 270.16C475.662 264.421 480.436 254.886 486.958 246.889C488.402 245.119 489.353 242.945 490.806 241.186C500.443 229.525 502.045 215.497 502.724 201.187C502.753 200.605 502.462 200.006 502.129 198.616C501.179 199.899 500.486 200.694 499.955 201.582C497.282 206.053 494.576 210.505 492.041 215.054C490.847 217.199 489.501 219.476 489.165 221.827C488.811 224.299 488.869 225.912 485.666 226.509C484.122 226.796 482.252 229.297 483.444 232.026C485.033 235.67 484.716 236.048 480.949 235.537C480.38 235.458 479.819 235.315 478.882 235.128C479.095 236.737 479.272 238.052 479.436 239.302C477.13 240.576 474.836 241.437 473.075 242.931C471.2 244.523 469.832 246.715 468.053 248.872C468.586 250.422 469.135 252.018 469.892 254.215C468.525 254.013 467.762 253.997 467.07 253.766C466.357 253.53 465.714 253.088 465.01 252.72C457.906 260.705 450.471 267.817 442.103 275.315C441.089 271.334 443.14 269.911 444.695 268.647C458.247 257.608 468.978 244.076 479.39 229.855C478.752 228.725 478.12 227.605 477.087 225.77C479.163 225.624 480.643 225.519 482.222 225.407C489.429 215.239 495.429 204.301 500.4 192.797C502.93 186.937 502.615 183.22 499.006 175.301C497.316 178.722 495.889 181.603 494.35 184.714C495.316 185.766 496.211 186.741 497.238 187.856C493.467 191.602 489.885 195.16 486.478 198.544C487.916 201.122 488.882 202.855 489.849 204.589C489.466 204.863 489.08 205.14 488.694 205.414C487.558 204.526 486.423 203.641 485.296 202.759C484.903 202.954 484.384 203.038 484.197 203.332C472.62 221.597 457.87 237.228 443.135 252.868C441.997 254.076 440.895 255.593 439.076 253.77C439.181 253.355 439.156 252.879 439.385 252.632C445.868 245.563 452.315 238.46 458.906 231.497C461.774 228.469 464.869 225.693 463.223 220.007C468.43 222.969 469.512 218.839 471.534 216.56C473.569 214.265 475.834 211.908 472.993 207.937C478.489 208.063 480.67 204.608 482.333 201.155C485.27 195.059 490.656 190.004 490.536 182.561C494.138 180.242 494.263 175.96 496.173 172.701C499.345 167.293 498.684 161.939 496.895 156.435C496.32 154.667 495.689 152.914 494.913 150.656C491.123 154.008 491.54 158.814 489.549 162.481C487.464 166.32 485.867 170.417 483.824 174.278C481.789 178.122 479.467 181.814 477.326 185.481C479.079 186.821 479.807 187.378 481.254 188.485C477.038 188.457 475.47 190.873 473.995 193.691C471.511 198.435 468.599 202.955 466.127 207.705C465.549 208.817 466.017 210.467 466.012 210.786C462.939 213.968 460.231 216.367 458.015 219.156C454.391 223.72 451.061 228.524 447.659 233.264C446.64 234.683 445.743 236.112 443.154 234.635C443.706 233.521 444.061 232.171 444.886 231.239C455.86 218.827 464.321 204.806 471.728 190.061C474.416 184.716 477.901 179.774 480.641 174.451C482.137 171.546 485.984 168.643 481.97 164.77C481.788 164.593 482.809 162.419 483.317 162.4C487.071 162.259 487.21 159.201 488.019 156.81C489.155 153.459 489.98 150.001 491.057 146.628C491.989 143.705 491.721 141.29 490.171 138.379C488.262 134.792 487.654 130.516 486.45 126.546C486.237 125.846 485.863 125.193 484.369 124.482C480.902 134.969 477.432 145.452 473.856 156.275C477.351 156.238 480.172 156.784 480.169 161.584C478.065 160.921 476.408 160.401 474.639 159.842C474.166 160.139 473.422 160.333 473.183 160.791C470.419 166.123 467.459 171.381 465.197 176.925C464.56 178.488 464.346 179.705 462.801 180.741C461.53 181.595 460.709 183.235 459.9 184.65C455.029 193.163 450.241 201.722 445.367 210.233C444.592 211.586 443.532 212.777 442.538 214.135C440.291 212.279 441.555 210.943 442.361 209.519C446.675 201.897 450.953 194.255 455.253 186.628C460.614 177.121 466.8 168.039 470.093 157.474C470.711 155.488 471.715 153.622 472.301 151.627C475.184 141.837 477.998 132.028 480.807 122.216C482.067 117.81 481.582 113.669 479.363 109.554C478.021 107.062 477.422 104.175 476.147 100.466C475.143 102.288 474.387 103.187 474.128 104.21C472.645 110.073 470.906 115.91 470.015 121.869C469.514 125.227 470.543 128.821 466.984 130.835C468.269 133.237 469.2 134.977 470.637 137.663C468.23 137.217 466.825 136.954 465.111 136.637C459.97 153.231 451.733 168.446 442.985 183.415C440.675 187.37 438.531 191.429 436.025 195.251C434.708 197.258 432.771 198.857 430.27 200.284C430.468 199.28 430.408 198.123 430.902 197.297C436.351 188.163 442.248 179.277 447.315 169.94C455.564 154.745 463.01 139.049 465.997 121.908C466.987 116.213 470.558 111.342 470.231 105.435C470.198 104.846 470.547 104.233 470.716 103.63C472.806 96.1694 471.802 89.3617 466.815 83.1852C465.001 80.9376 463.737 78.2487 461.804 75.0681C461.265 76.6407 460.733 77.6196 460.606 78.6513C459.942 84.0122 459.258 89.3794 458.863 94.7638C458.75 96.3214 459.51 97.9658 459.97 99.5405C460.415 101.06 460.984 102.542 461.822 104.971C459.986 104.542 459.169 104.352 457.536 103.971C454.151 121.627 448.886 138.84 440.567 155.005C441.889 156.424 442.903 157.51 444.746 159.485C441.998 159.88 440.348 160.117 438.06 160.446C435.144 166.422 431.995 172.756 428.962 179.144C427.812 181.568 426.99 184.184 423.116 184.682C423.153 183.26 422.819 182.004 423.266 181.162C426.678 174.708 430.525 168.472 433.692 161.904C437.662 153.672 441.234 145.241 444.756 136.803C449.112 126.373 452.051 115.509 453.954 104.369C454.706 99.965 453.268 93.5349 450.583 89.8587C452.345 89.5553 453.892 89.2915 455.762 88.9683C455.961 87.9146 456.182 86.7347 456.503 85.0411C454.834 84.7988 453.362 84.5845 451.685 84.3423C451.84 83.5234 451.748 82.7683 452.082 82.4104C457.716 76.3535 458.102 68.7797 453.044 62.4468C451.233 60.1787 449.44 57.8986 446.956 54.7619C446.867 56.9124 446.651 58.1916 446.789 59.434C448.838 78.3309 446.303 96.9042 442.714 115.371C441.923 119.434 440.462 123.444 438.741 127.219C437.233 130.531 437.046 133.441 440.055 137.23C436.947 137.72 434.744 138.065 432.238 138.46C431.783 133.547 433.929 130.125 435.226 126.478C436.79 122.08 439.796 117.985 437.725 112.828C437.358 111.918 437.852 109.873 438.583 109.448C441.693 107.64 441.482 104.598 441.827 101.826C442.574 95.8228 443.32 89.8082 443.66 83.773C443.872 80.012 442.356 75.9047 443.403 72.5031C444.661 68.4159 443.969 64.7121 443.56 60.8882C443.144 56.971 442.179 53.1122 441.421 49.2343C441.303 48.6259 441.151 47.945 440.788 47.4733C436.901 42.4253 433.535 36.8839 427.106 33.7959C428.891 38.982 430.673 44.1683 432.458 49.3515L432.55 49.142C432.396 49.7416 431.913 50.5441 432.137 50.9164C435.007 55.6703 432.608 60.6734 432.804 65.5307C433.024 70.9197 432.733 76.3779 432.119 81.7436C431.533 86.8865 430.693 92.0874 429.181 97.0249C425.156 110.154 420.635 123.131 416.448 136.214C412.248 149.341 405.782 161.496 399.858 173.83C395.74 182.406 390.298 190.479 384.576 198.123C376.349 209.108 367.901 220.033 358.504 230.005C346.222 243.035 333.491 255.753 318.014 265.226C308.243 271.207 298.772 277.71 288.803 283.336C273.004 292.251 256.571 300.066 238.52 302.99C225.821 305.048 212.895 306.623 199.973 303.957C199.679 303.896 199.301 304.24 198.345 304.675C204.184 308.425 209.571 312.248 215.293 315.468C223.834 320.274 232.562 324.763 241.315 329.179C246.897 331.996 252.564 334.696 258.375 336.985C269.822 341.495 281.349 345.805 292.924 349.974C306.872 354.999 321.351 357.995 335.823 361.087C348.73 363.845 361.74 364.589 374.862 365.258C385.137 365.78 394.686 364.042 404.079 360.329C409.862 358.043 415.58 355.533 421.492 353.636C424.381 352.71 427.702 352.435 430.731 352.756C441.285 353.868 450.291 350.131 458.823 344.565C460.184 343.677 461.503 342.722 462.84 341.796C466.598 338.735 470.357 335.679 474.119 332.62ZM166.846 279.054C171.924 287.611 180.503 292.39 189.323 296.252C199.627 300.763 210.536 302.239 221.753 300.735C229.578 299.686 237.391 298.555 245.205 297.428C256.338 295.818 266.118 290.366 276.116 285.862C293.832 277.882 309.613 266.471 325.603 255.564C330.908 251.946 335.645 247.425 340.363 243.019C353.174 231.06 365.329 218.41 376.006 204.528C387.855 189.119 397.178 172.185 405.187 154.393C412.063 139.122 417.076 123.235 422.537 107.517C429.554 87.3202 431.692 66.4109 426.669 45.3173C425.436 40.1399 422.947 35.2201 420.689 30.3422C417.514 23.4812 410.767 20.4554 404.876 16.6836C399.941 13.52 394.271 12.0354 388.554 10.5869C377.194 7.71165 365.841 4.7164 354.046 5.86416C343.926 6.85065 333.881 8.65412 323.809 10.1249C309.302 12.2452 296.584 19.0605 284.438 26.5301C268.659 36.2314 253.618 47.1038 240.209 60.064C236.024 64.111 231.187 67.4762 226.882 71.4117C214.058 83.1346 203.411 96.7933 192.663 110.355C184.35 120.842 176.765 131.808 171.338 144.104C162.978 163.05 156.088 182.484 152.62 202.983C150.732 214.147 151.023 225.387 152.077 236.604C152.636 242.574 153.467 248.514 154.1 253.833C158.573 262.797 162.198 271.227 166.846 279.054ZM482.454 295.562C480.657 296.98 479.42 297.957 477.526 299.453C482.782 301.963 482.529 299.247 482.454 295.562Z" fill="#FEC94E"/>
<path opacity="0.44" d="M344.585 186.876C347.917 186.762 350.431 187.126 352.68 186.516C362.025 183.984 371.186 180.677 380.618 178.56C392.131 175.978 403.82 174.377 415.751 175.491C425.147 176.369 434.687 176.095 443.993 177.477C455.884 179.242 467.779 181.522 479.35 184.744C492.699 188.463 505.983 188.001 519.415 186.582C525.976 185.889 532.387 186.86 537.92 190.07C553.297 198.989 562.532 212.388 562.337 230.432C562.215 241.846 564.891 251.68 570.987 261.172C573.848 265.626 575.774 271.018 576.809 276.242C580.068 292.696 583.317 309.195 585.427 325.818C588.176 347.465 588.099 369.183 583.796 390.754C582.464 397.439 582.275 404.358 580.873 411.022C573.743 444.908 559.173 475.347 537.635 502.421C530.288 511.657 522.983 520.971 515.022 529.665C496.73 549.64 475.416 566.228 452.798 580.819C439.784 589.215 424.93 594.739 410.995 601.742C395.45 609.553 378.508 613.355 362.052 618.328C349.026 622.265 335.264 623.88 321.748 626.023C312.199 627.537 302.539 628.663 292.888 629.158C277.103 629.967 261.247 630.509 245.576 627.735C230.693 625.101 215.857 622.178 201.06 619.11C195.683 617.996 190.613 618.369 185.934 620.955C178.388 625.128 171.431 623.713 164.457 619.674C162.235 618.386 159.888 617.206 157.456 616.407C149.489 613.789 142.74 610.051 140.33 601.113C139.935 599.65 138.095 598.287 136.599 597.456C126.112 591.618 119.862 583.291 120.23 570.805C120.268 569.47 120.208 567.751 119.442 566.836C114.118 560.467 115.113 553.273 119.185 547.717C125.02 539.755 124.069 531.777 123.335 522.991C122.081 507.941 121.841 492.804 121.284 477.701C121.075 472.05 121.23 466.386 121.104 460.729C120.623 439.208 127.592 419.303 134.547 399.44C140.584 382.202 149.167 366.123 158.043 350.214C171.102 326.811 186.699 305.175 203.824 284.606C204.581 283.698 205.804 282.887 206.017 281.867C208.019 272.215 216.328 267.659 222.533 261.52C233.553 250.612 247.308 243.401 260.152 235.027C273.603 226.257 287.381 217.925 301.432 210.152C313.192 203.643 325.534 198.178 337.656 192.334C340.574 190.933 344.202 190.528 344.585 186.876ZM141.506 490.663C141.115 490.4 140.707 490.166 140.28 489.961C136.444 487.737 132.475 485.981 127.208 485.783C127.269 490.501 127.32 494.589 127.37 498.498C140.864 500.869 156.408 510.512 159.521 518.177C156.523 520.231 154.76 517.48 152.761 516.305C147.268 513.083 141.996 509.468 136.397 506.453C134.095 505.213 131.175 505.121 127.633 504.292C127.796 507.604 127.905 509.831 128.001 511.823C135.75 514.285 141.3 518.975 146.742 523.777C147.754 524.669 148.569 526.088 148.855 527.398C149.05 528.284 148.429 529.837 147.682 530.311C146.916 530.796 145.301 530.706 144.51 530.183C143.648 529.611 143.422 528.168 142.722 527.253C139.2 522.648 134.749 519.59 128.491 518.701C128.58 520.837 128.604 522.468 128.727 524.096C128.813 525.274 128.677 526.661 129.253 527.566C130.317 529.238 131.556 531.45 133.203 532C148.956 537.262 158.06 550.335 168.471 561.798C170.726 564.282 171.672 567.871 169.752 571.331C168.88 571.196 168.231 571.294 168.016 571.036C164.167 566.371 161.646 560.458 155.486 557.971C154.96 557.757 154.541 556.917 154.352 556.282C150.845 544.592 139.872 542.351 131.072 536.721C128.786 539.925 126.833 542.308 125.296 544.933C123.869 547.37 122.681 549.997 121.745 552.663C119.184 559.957 122.769 565.881 130.641 567.666C132.02 564.85 132.02 564.85 131.477 560.554C130.909 556.057 131.972 554.348 136.208 553.1C136.685 555.549 136.334 558.844 137.8 560.264C141.417 563.775 145.525 568.125 150.061 569.044C157.47 570.547 159.148 573.867 159.167 580.802C159.185 587.772 162.727 594.073 167.578 599.095C171.373 603.024 176.619 602.416 181.649 602.019C182.658 601.94 183.773 603.197 185.002 603.935C178.9 609.129 170.719 609.522 164.996 603.634C159.383 597.858 152.032 599.424 145.759 595.862C145.739 604.011 150.72 610.836 155.134 610.085C155.745 608.194 156.327 606.392 156.966 604.413C162.362 605.87 162.79 610.62 165.211 613.58C169.357 618.642 174.634 620.551 180.789 618.391C183.468 617.45 186.147 616.488 188.759 615.374C192.368 613.831 195.782 613.859 199.736 614.686C216.84 618.255 234.024 621.485 251.252 624.41C257.273 625.434 263.523 625.723 269.632 625.491C282.596 624.995 295.56 624.183 308.481 623.027C318.342 622.143 328.146 620.604 337.955 619.226C356.774 616.58 374.851 610.609 392.508 604.244C411.299 597.471 429.251 588.119 446.992 578.788C456.73 573.668 465.307 566.315 474.347 559.889C492.348 547.09 508.578 532.197 522.43 515.12C538.335 495.513 553.97 475.493 563.182 451.531C567.585 440.073 572.37 428.651 575.41 416.809C578.573 404.498 580.139 391.741 581.818 379.099C582.808 371.633 582.988 364.015 582.964 356.468C582.886 331.279 578.309 306.661 573.058 282.144C571.313 273.991 568.895 266.153 563.955 259.246C558.682 251.875 556.579 243.664 557.039 234.514C557.854 218.369 550.805 205.833 538.107 196.26C536.813 195.286 535.224 194.706 533.771 193.945C550.507 213.403 550.507 213.403 549.123 218.685C547.026 216.549 545.211 214.905 543.634 213.059C537.337 205.69 531.156 198.313 522.288 193.651C518.496 191.656 515.322 191.887 510.354 193.683C515.453 196.828 519.537 199.348 524.139 202.184C523.454 206.398 527.456 208.811 530.022 212.071C531.214 213.584 533.668 215.015 530.381 217.567C529.059 216.457 527.439 215.477 526.313 214.095C519.665 205.91 511.303 199.831 502.348 194.516C500.802 193.599 498.661 193.684 496.792 193.308C501.781 199.663 507.543 204.488 512.475 210.048C517.526 215.745 521.763 222.159 526.305 228.189C527.796 227.626 528.457 227.423 529.077 227.132C530.742 226.35 532.349 226.056 533.182 228.161C534.012 230.261 532.56 231.029 530.916 231.791C528.033 233.127 525.235 234.65 522.584 235.997C518.777 233.838 521.99 231.263 521.752 228.841C516.622 224.447 514.88 215.58 504.643 217.317C507.8 210.453 503.656 207.204 499.542 204.098C493.376 199.44 487.155 194.847 480.788 190.47C479.443 189.546 477.377 189.673 475.642 189.315C478.822 193.442 482.518 196.6 486 199.983C489.562 203.44 492.96 207.064 496.341 210.699C499.884 214.505 503.485 218.278 506.756 222.314C509.666 225.909 514.301 228.251 516.415 234.422C513.496 233.634 511.631 233.684 510.651 232.778C504.797 227.366 498.236 222.391 493.633 216.025C486.414 206.038 477.902 197.912 467.354 191.741C466.356 191.156 465.116 190.477 464.68 189.524C462.092 183.891 456.663 185.013 452.065 183.985C457.358 188.249 460.366 195.34 468.274 196.321C468.316 199.692 468.753 202.678 473.274 202.327C473.926 202.276 475.378 203.886 475.29 204.575C475.008 206.741 476.014 207.418 477.759 208.099C478.722 208.473 480.088 209.662 480.056 210.434C479.885 214.658 483.22 216.541 485.383 219.239C490.106 225.133 494.794 231.055 499.389 237.047C500.982 239.123 501.67 241.29 498.438 242.251C490.547 233.123 482.939 224.169 475.158 215.364C466.396 205.449 457.784 195.35 446.986 187.506C443.811 185.201 440.339 183.299 436.891 181.141C435.257 183.523 434.119 185.18 432.969 186.854C430.155 184.647 430.155 184.647 429.48 181.468C420.5 179.248 405.802 179.396 400.337 181.889C405.218 185.745 410.26 189.233 414.716 193.352C422.517 200.563 430.127 208.001 437.5 215.648C444.059 222.451 450.227 229.636 456.482 236.729C457.783 238.206 459.739 239.735 457.898 242.421C455.464 243.239 454.274 241.395 452.756 239.932C449.105 236.418 447.004 231.104 441.257 229.949C440.763 229.85 440.085 228.9 440.093 228.356C440.166 224.201 436.859 222.183 434.51 219.736C422.412 207.125 410.619 194.215 395.326 185.12C388.846 181.264 387.493 180.664 380.02 185.183C386.441 189.952 392.643 194.557 398.842 199.16L398.695 199.088C403.535 203.564 407.216 209.828 415.349 209.101C415.327 210.585 415.28 211.484 415.309 212.383C415.435 216.322 420.619 222.058 424.026 221.465C425.984 221.127 428.064 220.087 428.734 222.415C429.124 223.767 427.692 225.64 426.989 227.514C430.64 231.91 434.444 236.413 438.159 240.995C439.651 242.833 441.076 243.373 443.615 242.771C446.444 242.102 447.533 243.834 445.973 246.572C445.566 247.285 445.126 247.978 444.648 248.765C456.73 263.971 468.538 278.832 480.352 293.696C478.527 295.721 477.204 296.614 475.437 294.456C467.698 285.002 460.113 275.41 452.09 266.205C444.03 256.961 438.976 244.96 427.336 238.929C426.684 238.59 426.499 237.319 426.135 236.462C422.738 228.486 418.201 221.719 407.718 220.074C411.015 215.215 407.088 213.136 404.315 210.823C394.698 202.809 384.955 194.946 375.175 187.132C374.195 186.348 372.51 185.75 371.359 186.003C366.871 186.99 362.391 188.183 357.696 191.067C366.201 197.2 373.978 202.807 381.34 208.115C383.809 207.68 385.944 207.304 388.077 206.929C387.963 209.022 387.85 211.11 387.709 213.689C389.177 215.08 391.102 216.803 392.918 218.637C407.046 232.923 421.286 247.098 435.219 261.572C444.879 271.608 454.138 282.031 463.491 292.358C465.608 294.697 467.994 297.131 466.815 301.862C464.968 300.812 463.404 300.369 462.504 299.342C454.099 289.771 445.927 279.99 437.401 270.528C434.993 267.855 431.652 266.021 428.18 263.379C425.104 254.06 415.347 249.313 409.256 241.211C407.31 242.264 405.744 243.109 404.088 244.003C399.184 239.426 394.522 235.075 389.862 230.726C390.179 230.317 390.499 229.906 390.816 229.497C394.759 232.072 398.704 234.65 402.647 237.23C402.987 236.819 403.331 236.407 403.671 235.997C399.123 231.385 394.606 226.739 390.015 222.169C386.704 218.874 383.545 215.141 376.76 217.549C378.82 210.573 373.888 208.567 370.235 205.979C365.631 202.717 360.503 200.201 355.815 197.052C348.609 192.214 345.465 192.322 338.294 198.641C346.655 204.022 354.889 209.317 363.568 214.9C363.62 212.615 363.657 210.923 363.716 208.286C365.874 209.226 368.44 209.882 368.413 210.407C368.293 212.782 367.439 215.121 366.686 218.128C375.548 223.708 381.567 233.309 391.13 237.91C392.965 240.482 394.47 243.032 396.396 245.205C400.786 250.155 405.531 254.793 409.843 259.804C412.949 263.412 415.99 266.675 421.094 265.356C423.085 268.359 420.168 271.452 422.977 274.215C429.196 280.334 434.834 287.046 440.754 293.472C446.987 300.239 453.299 306.935 459.514 313.721C461.072 315.425 462.793 317.269 460.434 320.76C458.989 319.583 457.559 318.693 456.478 317.484C453.961 314.672 451.738 311.595 449.169 308.834C445.31 304.682 441.191 300.774 437.305 296.646C433.583 292.692 430.062 288.552 426.38 284.561C422.539 280.401 418.609 276.323 414.719 272.205C405.937 273.263 408.83 264.275 405.014 260.791C393.688 250.443 383.281 239.091 372.021 228.663C360.536 218.025 347.73 209.113 333.426 202.526C332.19 201.956 330.61 200.839 329.648 201.197C325.623 202.708 321.239 203.759 317.785 207.542C320.039 208.879 321.825 209.947 323.616 210.998C339.632 220.376 353.687 232.3 367.271 244.806C370.151 247.457 372.795 249.92 377.097 248.494C377.343 248.412 377.811 248.993 378.499 249.51C378.339 251.115 378.156 252.928 377.968 254.839C382.249 259.219 386.482 263.672 390.846 267.993C406.118 283.111 421.448 298.17 436.719 313.287C438.387 314.939 439.996 316.712 441.26 318.672C441.676 319.318 441.183 320.918 440.596 321.702C440.245 322.171 438.657 322.275 438.064 321.882C436.715 320.991 435.575 319.747 434.455 318.546C430.91 314.748 427.541 310.775 423.873 307.104C414.69 297.912 405.321 288.902 396.143 279.706C392.735 276.293 389.824 272.233 383.135 274.222C385.398 269.371 383.553 266.87 380.846 264.208C359.625 243.32 338.095 222.869 310.079 210.018C300.331 216.208 289.248 220.794 279.68 228.557C285.752 231.897 291.124 234.85 296.495 237.803C299.6 239.962 302.622 242.255 305.835 244.236C309.039 246.213 311.346 249.782 315.76 250.394C314.194 244.433 314.194 244.433 318.962 243.681C319.059 247.841 323.567 251.158 320.553 255.29C336.666 269.793 352.556 283.599 367.844 298.046C376.574 306.296 384.377 315.531 392.422 324.483C393.162 325.303 392.616 327.28 392.666 328.719C391.395 328.521 389.925 328.65 388.908 328.036C387.758 327.34 387.019 325.974 386.095 324.9C381.323 319.351 376.932 313.405 371.7 308.329C360.164 297.144 348.291 286.293 336.33 275.559C334.133 273.587 330.861 272.811 328.071 271.478C326.886 269.467 326.052 266.615 324.153 265.074C315.723 258.23 307.006 251.74 298.358 245.167C294.626 242.331 290.791 239.665 285.473 241.55C284.402 233.975 277.763 234.625 273.525 231.797C269.717 234.23 266.282 236.425 262.362 238.933C268.794 242.913 274.52 246.18 279.937 249.896C283.992 252.678 287.777 255.623 294.109 252.7C291.731 258.938 295.353 261.425 298.495 264.262C302.528 267.906 306.505 271.62 310.34 275.468C312.779 277.916 316.284 278.07 318.789 279.652C321.272 281.221 321.699 285.714 323.937 288.059C337.484 302.253 351.303 316.188 365.003 330.236C368.135 333.447 371.293 336.649 374.159 340.088C374.984 341.079 374.833 342.887 375.126 344.321C373.667 344.05 372.035 344.096 370.796 343.423C369.388 342.66 368.266 341.311 367.129 340.11C356.557 328.965 345.976 317.826 335.472 306.612C332.077 302.989 328.842 299.267 322.687 300.362C323.127 293.678 319.059 290.147 315.011 286.447C307.159 279.276 299.884 271.418 291.634 264.752C283.957 258.549 275.672 252.897 267.03 248.135C255.562 241.813 255.299 242.281 244.683 250.142C244.421 250.334 244.438 250.901 244.347 251.202C249.858 253.885 255.546 256.224 260.785 259.322C266.051 262.436 270.996 266.147 275.843 269.906C278.701 272.123 281.303 274.185 285.254 274.045C286.842 273.99 288.483 275.342 290.583 276.267C289.317 277.93 288.556 278.93 287.784 279.944C288.318 280.563 288.711 281.18 289.25 281.618C313.694 301.525 334.092 325.64 357.149 346.989C358.806 348.522 360.789 350.183 359.27 352.835C356.382 354.067 355.196 351.953 353.686 350.589C346.239 343.859 340.25 335.472 331.014 330.762C330.317 330.408 329.986 329.289 329.538 328.5C328.425 326.544 327.667 324.268 326.184 322.665C322.013 318.158 317.675 313.786 313.167 309.614C302.259 299.512 291.213 289.554 280.51 279.797C277.947 280.545 275.992 281.115 272.812 282.045C273.907 278.873 274.482 277.207 275.369 274.642C271.96 273.345 268.651 272.086 265.381 270.843C264.351 269.253 263.63 266.829 262.042 265.922C256.927 263.012 251.566 260.501 246.154 258.165C243.499 257.02 240.528 256.599 236.566 255.551C234.929 256.976 232.398 259.174 229.408 261.775C244.235 267.451 256.466 275.309 267.657 284.878C273.764 290.099 279.828 295.387 286.124 300.372C309 318.49 325.453 342.409 344.083 364.359C344.653 365.028 344.37 366.42 344.486 367.475C343.235 367.487 341.515 368.027 340.817 367.412C338.54 365.402 336.454 363.109 334.622 360.677C318.081 338.713 300.548 317.679 279.005 300.316C277.038 298.732 275.318 297.625 272.664 298.275C271.695 298.513 270.482 297.774 268.841 297.335C270.291 293.101 267.802 290.928 264.967 288.6C252.994 278.772 239.641 271.411 224.962 265.393C222.995 267.436 220.784 269.272 219.224 271.551C218.481 272.633 218.306 275.391 219.017 275.962C221.935 278.3 225.116 280.56 228.568 281.88C230.253 282.527 232.826 280.434 234.861 280.685C237.598 281.023 235.375 284.584 238.297 286.464C248.379 292.952 257.709 300.611 267.271 307.892C269.042 309.241 270.29 308.966 272.29 308.013C274.761 306.834 276.027 308.296 275.582 311.255C275.428 312.285 274.87 313.255 274.695 313.733C282.659 322.198 290.267 329.978 297.51 338.083C303.009 344.238 308.13 350.74 313.233 357.237C314.716 359.126 316.902 361.298 313.734 364.876C311.94 362.746 310.239 360.723 308.531 358.701C304.112 353.467 301.37 346.363 293.383 345.168C292.321 342.356 291.957 339.007 290.133 336.955C278.488 323.855 265.913 311.723 251.548 301.547C247.666 298.797 243.847 296.221 239.269 297.3C237.664 295.021 236.784 292.518 235.038 291.505C228.134 287.504 220.96 283.974 213.589 280.111C209.432 285.123 205.582 289.765 201.511 294.673C208.149 298.327 214.09 301.657 220.103 304.851C221.301 305.488 222.758 305.791 224.131 305.926C228.973 306.404 233.646 306.905 234.793 313.048C234.937 313.811 236.551 314.294 237.618 314.998C238.451 312.711 238.122 308.93 241.436 310.711C243.816 311.991 245.661 313.157 248.414 312.45C248.998 312.3 250.517 313.359 250.509 313.844C250.496 314.828 249.984 316.145 249.222 316.705C247.883 317.687 246.204 318.205 244.654 318.923C253.188 326.279 261.7 332.726 269.135 340.238C279.919 351.136 289.948 362.787 300.237 374.17C301.694 375.78 303.819 377.523 300.834 380.771C298.76 378.703 296.713 376.892 294.942 374.841C291.079 370.376 287.488 365.669 283.556 361.269C262.687 337.923 238.549 318.789 210.277 305.118C205.938 303.019 201.2 301.748 196.501 300.04C193.677 304.456 191.36 308.088 189.161 311.525C196.915 315.632 203.955 318.981 210.621 322.957C232.105 335.778 250.615 352.273 267.976 370.137C273.734 376.063 279.475 382.007 285.059 388.093C285.771 388.872 285.479 390.572 285.652 391.847C284.367 391.864 282.689 392.405 281.872 391.794C279.629 390.116 277.678 388.018 275.735 385.97C268.746 378.601 261.841 371.157 254.832 363.809C253.099 361.991 251.561 359.859 248.238 360.826C246.207 361.417 244.938 359.995 244.539 357.641C243.625 352.228 243.5 352.277 237.991 353.145C237.139 353.279 236.227 353.007 234.907 352.884C235.1 350.563 235.262 348.61 235.438 346.502C219.836 334.516 204.298 322.604 184.711 316.806C181.416 321.72 178.359 326.282 174.488 332.053C180.448 333.543 185.011 334.684 190.764 336.123C191.253 336.667 192.449 338.997 194.344 339.971C211.606 348.842 225.952 361.459 239.792 374.762C247.289 381.964 254.806 389.15 262.27 396.383C263.745 397.811 265.821 399.256 262.827 402.279C261.121 401.118 259.077 400.084 257.481 398.577C251.3 392.732 245.335 386.658 239.156 380.812C228.342 370.576 217.77 360.019 204.767 352.446C202.206 350.955 198.868 350.461 196.786 348.537C189.557 341.859 180.259 340.062 171.22 336.07C168.427 341.015 165.946 345.412 163.658 349.462C164.444 350.451 164.549 350.728 164.731 350.795C189.942 359.918 210.531 375.956 229.552 394.288C231.187 395.863 235.037 397.64 232.297 400.338C229.536 403.052 227.916 399.076 226.222 397.507C210.366 382.841 193.652 369.343 174.051 359.941C169.9 357.95 165.184 357.14 160.26 355.644C157.046 361.663 154.234 366.923 151.172 372.656C153.781 373.4 155.338 373.848 156.895 374.291C158.255 374.957 159.615 375.624 160.979 376.29C162.893 377.175 164.753 378.213 166.734 378.916C184.679 385.301 197.66 398.609 211.398 410.858C213.02 412.303 214.594 413.838 212.464 416.761C211.146 416.122 209.578 415.71 208.473 414.759C204.955 411.733 202.307 407.47 196.855 407.401C196.241 407.392 195.396 406.251 195.073 405.468C192.032 398.066 186.536 394.233 179.361 393.921C177.467 391.647 176.295 388.988 174.32 388.09C166.581 384.561 158.59 381.577 150.675 378.435C150.307 378.29 149.772 378.561 149.469 378.613C147.083 383.203 144.735 387.716 142.095 392.795C146.484 394.507 150.229 395.834 153.861 397.418C157.674 399.083 161.376 400.997 165.118 402.801C166.19 400.566 166.942 398.991 167.7 397.408C171.835 399.051 171.716 401.935 170.441 405.403C180.021 409.183 185.308 418.606 194.824 422.26C195.995 422.709 197.326 425.62 196.902 426.772C195.901 429.488 193.346 428.542 191.535 427.423C189.343 426.068 187.33 424.381 185.385 422.671C177.09 415.371 169.137 407.514 157.109 406.838C156.348 406.796 155.401 405.987 154.944 405.277C151.583 400.057 145.862 400.207 140.162 398.181C138.696 403.065 137.377 407.454 135.762 412.841C140.369 413.412 144.025 413.781 147.652 414.357C149.39 414.632 151.37 414.88 152.724 415.855C159.555 420.781 166.215 425.943 172.32 430.561C175.21 429.814 177.075 429.33 180.194 428.523C177.8 434.195 180.848 436.185 184.041 438.322C186.002 439.636 187.576 441.522 189.659 443.463C186.022 446.188 184.187 444.622 181.979 443.009C170.543 434.654 159.374 425.832 145.855 420.871C145.246 420.648 144.524 420.73 143.968 420.677C142.551 422.343 141.271 423.848 140.044 425.29C136.959 423.32 138.886 418.563 133.805 417.676C132.465 422.336 131.137 426.954 129.473 432.74C136.13 435.002 142.356 437.117 149.23 439.451C149.754 439.207 151.485 438.403 153.216 437.599C153.95 437.519 154.685 437.439 155.42 437.362C152.197 442.977 154.971 444.789 158.308 447.254C161.797 449.83 165.232 449.055 169.345 448.999C168.151 453.781 170.556 456.24 174.064 458.241C176.516 459.639 178.788 461.381 181.018 463.13C182.574 464.35 183.615 465.894 181.387 468.772C172.601 463.919 165.033 457.152 156.624 451.702C147.948 446.075 138.885 441.219 129.001 437.916C126.956 444.197 126.558 451.466 127.715 456.23C133.586 458.459 139.588 460.096 144.945 462.946C150.529 465.916 155.999 469.514 160.573 473.838C164.65 477.69 170.955 480.15 172.205 487.28C167.114 486.496 167.295 486.286 163.201 482.726C159.005 479.076 154.403 475.893 149.98 472.507L150.098 472.594C143.822 466.348 135.979 463.918 126.739 462.471C126.693 468.547 126.654 473.83 126.618 479.062C132.219 481.082 137.322 482.797 142.329 484.761C146.74 486.493 150.843 489.651 155.958 486.441C156.646 488.726 157.141 490.371 157.505 491.575C159.844 490.829 161.667 490.25 163.492 489.667C163.708 491.752 163.925 493.84 164.261 497.058C165 499.147 171.578 498.536 169.898 505.459C166.375 503.506 163.534 502.098 160.867 500.415C154.716 496.542 148.876 492.098 141.506 490.663ZM137.725 592.513C135.037 585.408 132.924 579.821 130.601 573.676C129.148 573.454 127.168 573.146 124.598 572.749C126.661 581.079 129.481 587.985 137.725 592.513Z" fill="#FEC94E"/>
<path d="M149.081 520.698C149.241 521.589 149.68 522.536 149.504 523.355C149.111 525.175 147.81 526.523 146.086 525.193C145.299 524.586 145.347 522.554 145.51 521.229C145.572 520.731 147.028 520.402 147.852 519.997C148.282 520.201 148.69 520.435 149.081 520.698Z" fill="#BB9F87" fill-opacity="0.5"/>
<path d="M164.468 404.333C164.854 402.357 164.827 399.494 167.895 400.586C171.194 401.758 169.459 404.264 168.551 406.332C167.19 405.665 165.829 405.001 164.468 404.333Z" fill="#BB9F87" fill-opacity="0.5"/>
<path opacity="0.44" d="M372.978 309.479C370.668 305.602 369.273 302.152 366.943 299.53C350.606 281.135 331 266.863 309.655 254.853C308.838 254.392 307.644 254.298 307.138 253.64C306.258 252.5 305.78 251.049 305.134 249.731C306.574 249.621 308.377 248.895 309.403 249.497C318.147 254.624 326.745 259.999 335.398 265.278C337.809 266.751 339.634 269.674 343.319 266.699C345.18 265.196 348.482 267.823 347.555 270.351C346.537 273.119 347.493 274.259 349.137 275.669C368.207 292.051 383.816 311.73 400.921 329.981C410.762 340.481 420.662 350.929 430.378 361.544C431.864 363.167 435.838 365.19 432.802 367.634C429.607 370.203 428.273 366.067 426.554 364.021C423.378 360.24 420.095 356.551 416.782 352.736C414.945 353.651 413.354 354.441 411.877 355.176C408.548 352.518 410.139 350.518 412.68 348.557C407.679 343.42 402.86 338.624 398.226 333.657C393.078 328.138 388.096 322.464 383.051 316.851C379.924 313.368 377.154 309.364 372.978 309.479Z" fill="#FEC94E"/>
<path opacity="0.44" d="M451.083 235.005C447.001 231.49 442.919 227.976 439.72 225.223C435.488 225.705 432.441 226.052 429.397 226.398C428.834 225.815 428.273 225.234 427.71 224.651C429.009 223.38 430.308 222.114 431.135 221.304C429.197 217.119 423.121 217.511 423.363 211.843C432.519 211.333 436.882 221.524 444.985 220.346C447.05 223.031 448.584 225.669 450.712 227.682C463.572 239.829 476.459 251.953 487.389 265.926C489.672 268.843 492.307 269.865 494.89 269.466C496.113 274.722 497.191 279.363 498.484 284.918C496.678 284.201 495.381 284.097 494.823 283.402C488.329 275.333 481.986 267.142 475.515 259.055C472.755 255.607 470.339 251.424 463.735 253.81C465.823 247.396 462.245 244.832 459.146 242.041C456.526 239.681 453.851 237.381 451.199 235.052L451.083 235.005Z" fill="#FEC94E"/>
<path opacity="0.44" d="M497.076 303.952C496.001 306.554 494.679 307.783 492.64 306.11C491.029 304.79 489.729 303.065 488.392 301.44C484.52 296.734 481.018 291.668 476.742 287.371C473.887 284.499 473.156 280.969 471.862 277.586C471.554 276.783 472.755 275.403 473.259 274.286C474.112 274.929 475.748 275.67 475.682 276.199C475.323 279.141 477.632 280.126 479.096 281.874C485.245 289.206 491.201 296.704 497.076 303.952Z" fill="#FEC94E"/>
<path d="M153.345 566.228C155.142 562.593 157.28 562.768 159.229 563.711C161.747 564.93 164.465 566.174 166.383 568.113C171.824 573.621 176.916 579.474 182.102 585.233C182.708 585.906 183.32 586.792 183.421 587.641C183.515 588.425 183.159 589.616 182.578 590.032C182.003 590.44 180.725 590.397 180.06 590.018C179.079 589.454 178.243 588.511 177.561 587.57C171.183 578.756 164.142 570.674 153.345 566.228Z" fill="#BB9F87" fill-opacity="0.5"/>
<path opacity="0.44" d="M454.276 355.876C461.898 360.745 466.132 367.251 470.99 373.113C471.404 373.611 470.932 375.562 470.29 376.017C469.625 376.49 467.803 376.386 467.256 375.807C462.595 370.889 458.019 365.881 453.681 360.679C453.09 359.971 453.968 358.034 454.276 355.876Z" fill="#FEC94E"/>
<path d="M187.749 612.745C193.992 614.185 201.457 624.369 204.102 635.58C202.349 635.075 200.39 635.108 199.894 634.273C195.769 627.325 191.914 620.22 187.749 612.745Z" fill="#BB9F87" fill-opacity="0.5"/>
<path opacity="0.44" d="M232.973 463.066C229.279 460.397 225.051 458.595 224.003 453.157C230.276 454.265 233.794 458.215 232.973 463.066Z" fill="#FEC94E"/>
<path d="M241.066 333.543C238.852 330.836 237.484 329.217 236.195 327.537C235.957 327.228 236.049 326.668 235.934 325.797C240.411 323.519 242.03 328.586 245.735 330.37C244.252 331.376 242.775 332.381 241.066 333.543Z" fill="#BB9F87" fill-opacity="0.5"/>
<path d="M193.309 407.371C189.699 408.737 186.793 409.947 183.799 410.878C183.159 411.078 181.83 410.47 181.497 409.861C181.14 409.208 181.348 408.003 181.722 407.245C182.313 406.045 190.243 404.009 191.576 404.691C192.09 404.951 192.317 405.785 193.309 407.371Z" fill="#BB9F87" fill-opacity="0.5"/>
<path d="M186.834 631.575C181.288 630.242 177.689 627.32 175.02 622.566C179.858 622.314 184.115 625.56 186.834 631.575Z" fill="#BB9F87" fill-opacity="0.5"/>
<path d="M333.848 427.301C338.228 425.018 338.228 425.018 342.539 430.412C339.422 431.865 339.422 431.865 333.848 427.301Z" fill="#BB9F87" fill-opacity="0.5"/>
<path opacity="0.44" d="M408.555 427.489C410.073 428.925 411.769 430.228 413.011 431.872C413.428 432.423 413.001 434.314 412.375 434.752C411.722 435.206 409.738 435.006 409.424 434.464C408.367 432.632 407.794 430.519 407.036 428.515C407.542 428.172 408.049 427.832 408.555 427.489Z" fill="#FEC94E"/>
<path d="M223.733 345.593C222.197 345.928 220.393 346.921 219.19 346.434C217.671 345.819 216.567 344.058 215.469 342.648C215.224 342.333 215.552 341.114 215.962 340.854C216.642 340.42 217.838 340.005 218.404 340.323C220.328 341.396 222.072 342.79 223.888 344.061C223.836 344.571 223.787 345.082 223.733 345.593Z" fill="#BB9F87" fill-opacity="0.5"/>
<path d="M336.409 313.625C335.112 311.571 333.813 309.519 332.135 306.862C333.95 306.345 335.316 305.487 335.929 305.861C338.764 307.606 338.82 310.253 336.409 313.625Z" fill="#BB9F87" fill-opacity="0.5"/>
<path d="M286.516 444.5C280.317 445.658 278.417 443.541 279.431 437.29C281.846 439.747 283.791 441.728 286.516 444.5Z" fill="#BB9F87" fill-opacity="0.5"/>
<path d="M325.173 254.385C323.009 251.917 322.026 249.8 325.03 247.895C325.719 247.459 327.738 247.762 328.049 248.327C329.737 251.404 327.542 252.767 325.173 254.385Z" fill="#BB9F87" fill-opacity="0.5"/>
<path opacity="0.44" d="M458.041 508.582C457.527 507.852 457.303 507.677 457.278 507.477C456.997 505.278 457.03 503.098 459.574 502.282C460.167 502.092 461.663 502.867 461.797 503.427C462.481 506.25 460.949 507.764 458.041 508.582Z" fill="#FEC94E"/>
<path d="M229.515 328.166C225.331 328.803 222.432 326.258 223.769 323.507C224.087 322.851 225.939 322.883 227.104 322.749C227.314 322.725 227.682 323.399 227.852 323.804C228.366 325.051 228.817 326.325 229.515 328.166Z" fill="#BB9F87" fill-opacity="0.5"/>
<path d="M344.338 613.15C344.093 610.149 345.866 609.453 347.773 609.474C348.596 609.483 350.003 610.628 350.06 611.343C350.119 612.111 349.018 613.511 348.222 613.678C347.016 613.937 345.634 613.366 344.338 613.15Z" fill="#BB9F87" fill-opacity="0.5"/>
<path d="M266.457 320.176C264.221 321.347 262.232 322.55 260.722 319.559C260.46 319.044 261 317.549 261.545 317.289C264.156 316.044 265.808 316.937 266.457 320.176Z" fill="#BB9F87" fill-opacity="0.5"/>
<path d="M192.185 358.642C191.48 355.245 192.27 353.322 195.289 353.159C195.85 353.129 196.966 354.264 196.988 354.892C197.103 357.956 195.135 358.732 192.185 358.642Z" fill="#BB9F87" fill-opacity="0.5"/>
<path opacity="0.44" d="M490.205 381.038C492.044 379.403 492.976 378.182 494.204 377.66C494.744 377.43 495.889 378.626 496.757 379.176C495.882 380.291 495.174 381.654 494.056 382.401C493.562 382.729 492.231 381.8 490.205 381.038Z" fill="#FEC94E"/>
<path d="M173.78 566.592C175.355 567.674 176.886 568.173 177.174 569.069C177.476 570.014 176.592 571.341 176.226 572.5C174.963 571.909 173.357 571.59 172.571 570.612C172.162 570.1 173.179 568.434 173.78 566.592Z" fill="#BB9F87" fill-opacity="0.5"/>
<path d="M358.931 259.062C360.03 257.379 360.517 255.78 361.464 255.427C362.309 255.113 363.667 256.182 364.798 256.639C364.092 257.719 363.589 259.086 362.606 259.763C362.031 260.161 360.693 259.447 358.931 259.062Z" fill="#BB9F87" fill-opacity="0.5"/>
<path d="M372.862 418.952C374.39 419.971 376.022 420.488 376.277 421.392C376.507 422.209 375.231 423.451 374.621 424.507C373.614 423.81 372.27 423.305 371.722 422.344C371.39 421.769 372.299 420.486 372.862 418.952Z" fill="#BB9F87" fill-opacity="0.5"/>
<path d="M284.307 396.006C285.083 396.768 286.302 397.426 286.516 398.321C286.774 399.402 286.177 400.69 285.951 401.888C284.963 401.596 283.373 401.555 283.123 400.955C282.697 399.936 283.119 398.567 283.184 397.343C283.56 396.896 283.934 396.451 284.307 396.006Z" fill="#BB9F87" fill-opacity="0.5"/>
<path d="M265.331 497.31C266.824 498.417 268.08 498.985 268.666 499.956C268.907 500.358 267.682 502.365 267.169 502.345C266.073 502.306 264.707 501.652 264.05 500.792C263.721 500.361 264.695 498.931 265.331 497.31Z" fill="#BB9F87" fill-opacity="0.5"/>
<path d="M239.408 411.666C236.564 413.544 234.28 415.698 231.862 411.259C234.53 408.788 236.715 409.381 239.408 411.666Z" fill="#BB9F87" fill-opacity="0.5"/>
<path d="M217.305 490.136C218.435 488.586 219.017 486.985 219.938 486.757C220.832 486.537 222.073 487.726 223.161 488.299C222.553 489.423 222.19 491.085 221.264 491.503C220.475 491.865 219.036 490.795 217.305 490.136Z" fill="#BB9F87" fill-opacity="0.5"/>
<path d="M225.541 383.644C226.741 381.962 227.256 380.606 228.213 380.122C228.869 379.79 230.137 380.671 231.131 381.011C230.54 382.065 230.17 383.419 229.286 384.064C228.705 384.49 227.378 383.897 225.541 383.644Z" fill="#BB9F87" fill-opacity="0.5"/>
<path d="M240.849 622.72C241.668 621.081 242.049 619.421 242.623 619.351C243.756 619.216 244.992 619.961 246.187 620.342C245.855 621.286 245.726 622.852 245.146 623.041C244.086 623.386 242.76 622.919 240.849 622.72Z" fill="#BB9F87" fill-opacity="0.5"/>
<path d="M451.2 235.053C451.497 235.672 451.956 236.266 452.06 236.915C452.445 239.263 451.096 240.371 448.985 240.464C448.261 240.495 447.502 239.705 446.761 239.288C447.547 238.073 448.238 236.781 449.163 235.685C449.542 235.237 450.432 235.221 451.089 235.01L451.2 235.053Z" fill="#BB9F87" fill-opacity="0.5"/>
<path d="M473.878 295.234C475.456 296.419 476.414 297.141 477.373 297.858C476.612 298.848 476.019 300.14 475.017 300.695C474.555 300.95 472.652 299.866 472.55 299.209C472.389 298.198 473.215 297.03 473.878 295.234Z" fill="#BB9F87" fill-opacity="0.5"/>
<path d="M345.934 290.99C346.975 288.486 348.191 286.762 350.709 288.613C351.285 289.039 351.492 290.998 351.025 291.632C349.011 294.369 347.578 292.265 345.934 290.99Z" fill="#BB9F87" fill-opacity="0.5"/>
<path d="M371.034 372.372C372.481 373.141 373.405 373.631 374.328 374.122C373.701 375.206 373.279 376.565 372.356 377.253C371.919 377.579 369.701 376.583 369.714 376.241C369.757 375.081 370.435 373.943 371.034 372.372Z" fill="#BB9F87" fill-opacity="0.5"/>
<path d="M370.736 472.614C372.224 473.982 373.517 474.679 373.936 475.726C374.236 476.478 373.369 477.696 373.023 478.708C371.791 477.923 370.338 477.318 369.443 476.25C369.108 475.854 370.076 474.366 370.736 472.614Z" fill="#BB9F87" fill-opacity="0.5"/>
<path d="M310.593 345.347C311.913 343.574 312.56 341.889 313.398 341.788C314.406 341.668 315.576 342.893 316.673 343.535C316.111 344.439 315.713 345.873 314.942 346.112C313.957 346.422 312.669 345.77 310.593 345.347Z" fill="#BB9F87" fill-opacity="0.5"/>
<path d="M305.008 395.011C306.554 393.464 307.284 392.223 308.314 391.884C309.029 391.646 310.155 392.645 311.096 393.093C310.523 394.195 310.199 395.835 309.309 396.241C308.488 396.612 307.062 395.66 305.008 395.011Z" fill="#BB9F87" fill-opacity="0.5"/>
<path d="M154.862 535.161C155.844 533.344 156.206 531.919 157.12 531.238C157.78 530.747 159.177 531.249 160.246 531.305C159.763 532.662 159.527 534.207 158.689 535.288C158.327 535.757 156.728 535.264 154.862 535.161Z" fill="#BB9F87" fill-opacity="0.5"/>
<path d="M199.35 377.076C198.158 377.805 197.428 378.626 196.738 378.59C195.558 378.529 194.349 378.042 193.285 377.485C193.029 377.351 193.145 375.706 193.329 375.657C194.532 375.334 195.828 375.047 197.04 375.192C197.728 375.277 198.319 376.197 199.35 377.076Z" fill="#BB9F87" fill-opacity="0.5"/>
<path d="M303.828 267.873C303.011 264.155 303.601 262.188 307.377 262.417C308.85 266.015 307.012 267.268 303.828 267.873Z" fill="#BB9F87" fill-opacity="0.5"/>
<path opacity="0.44" d="M413.933 413.986C411.988 416.359 410.389 416.752 408.887 414.931C408.525 414.493 408.723 412.98 409.191 412.578C411.175 410.877 412.33 412.494 413.933 413.986Z" fill="#FEC94E"/>
<path d="M405.104 375.565C406.597 376.513 407.641 377.175 408.688 377.84C408.077 378.761 407.488 380.422 406.854 380.441C405.741 380.472 404.456 379.651 403.573 378.83C403.347 378.624 404.375 377.073 405.104 375.565Z" fill="#BB9F87" fill-opacity="0.5"/>
<path d="M292.051 444.51C293.466 442.544 295.205 441.801 297.114 443.471C297.56 443.862 297.378 445.925 296.827 446.342C294.538 448.057 293.216 446.413 292.051 444.51Z" fill="#BB9F87" fill-opacity="0.5"/>
<path d="M196.649 502.456C196.788 505.48 195.806 507.029 193.161 506.725C192.61 506.663 191.726 505.375 191.799 504.748C192.117 501.99 193.955 501.649 196.649 502.456Z" fill="#BB9F87" fill-opacity="0.5"/>
<path d="M251.1 372.261C252.045 370.867 252.71 369.254 253.183 369.308C254.317 369.44 255.629 370.15 256.315 371.05C256.614 371.445 255.571 373.669 255.122 373.673C253.966 373.687 252.804 372.923 251.1 372.261Z" fill="#BB9F87" fill-opacity="0.5"/>
<path d="M286.742 271.234C288.089 272.578 289.33 273.33 289.711 274.391C289.912 274.953 288.625 276.053 288.007 276.908C287.012 276.187 285.65 275.648 285.156 274.669C284.867 274.101 285.957 272.83 286.742 271.234Z" fill="#BB9F87" fill-opacity="0.5"/>
<path d="M175.688 447.908C174.492 448.361 173.278 449.181 172.1 449.139C171.303 449.109 170.552 447.866 169.779 447.167C170.557 446.486 171.303 445.301 172.122 445.25C173.271 445.178 174.475 445.947 175.656 446.358C175.665 446.873 175.678 447.39 175.688 447.908Z" fill="#BB9F87" fill-opacity="0.5"/>
<path d="M274.907 281.103C276.476 281.766 278.161 282.072 278.232 282.593C278.377 283.688 277.925 285.108 277.203 285.958C276.891 286.326 274.555 285.796 274.444 285.349C274.169 284.24 274.645 282.944 274.907 281.103Z" fill="#BB9F87" fill-opacity="0.5"/>
<path d="M265.442 432.908C266.973 434.252 268.107 434.95 268.743 435.96C268.985 436.346 267.921 438.156 267.732 438.111C266.542 437.838 265.17 437.462 264.41 436.62C264.047 436.218 264.899 434.717 265.442 432.908Z" fill="#BB9F87" fill-opacity="0.5"/>
<path d="M215.959 362.523C217.501 363.516 218.78 364.007 219.436 364.936C219.682 365.286 218.454 367.424 217.942 367.406C216.834 367.368 215.526 366.67 214.778 365.82C214.469 365.469 215.383 364.037 215.959 362.523Z" fill="#BB9F87" fill-opacity="0.5"/>
<path d="M217.651 537.2C219.255 537.815 221.042 538.091 221.115 538.61C221.276 539.757 220.578 541.027 220.23 542.248C219.227 541.802 217.826 541.605 217.341 540.836C216.903 540.138 217.466 538.81 217.651 537.2Z" fill="#BB9F87" fill-opacity="0.5"/>
<path opacity="0.44" d="M435.81 398.617C436.692 397.125 437.216 396.239 437.743 395.351C438.842 396.044 440.072 396.616 440.959 397.519C441.18 397.745 440.301 399.728 439.954 399.722C438.761 399.694 437.582 399.142 435.81 398.617Z" fill="#FEC94E"/>
<path d="M282.422 361.215C281.226 362.533 280.535 363.906 279.862 363.897C278.73 363.882 277.61 362.99 276.486 362.469C277.036 361.573 277.512 360.001 278.154 359.929C279.294 359.8 280.535 360.583 282.422 361.215Z" fill="#BB9F87" fill-opacity="0.5"/>
<path d="M241.757 581.333C243.047 579.999 243.761 578.689 244.42 578.713C245.504 578.756 246.557 579.664 247.621 580.206C247.065 581.064 246.595 582.537 245.928 582.636C244.887 582.784 243.708 582.004 241.757 581.333Z" fill="#BB9F87" fill-opacity="0.5"/>
<path d="M216.787 462.051C218.191 462.726 219.12 463.17 220.045 463.614C219.513 464.694 218.978 465.775 218.445 466.854C217.5 466.378 216.122 466.117 215.743 465.36C215.429 464.725 216.28 463.51 216.787 462.051Z" fill="#BB9F87" fill-opacity="0.5"/>
<path d="M215.833 503.566C217.31 504.624 218.516 505.176 219.15 506.113C219.368 506.435 218.17 508.408 217.59 508.42C216.55 508.446 215.187 507.786 214.56 506.956C214.235 506.533 215.207 505.126 215.833 503.566Z" fill="#BB9F87" fill-opacity="0.5"/>
<path d="M145.855 500.507C144.57 501.994 143.906 503.21 142.888 503.733C142.443 503.96 140.493 502.587 140.571 502.249C140.833 501.111 141.496 499.825 142.416 499.185C142.869 498.869 144.219 499.839 145.855 500.507Z" fill="#BB9F87" fill-opacity="0.5"/>
<path d="M285.211 567.301C286.715 568.953 287.842 569.684 288.116 570.655C288.343 571.451 287.805 573.003 287.141 573.36C286.481 573.716 284.753 573.288 284.391 572.676C283.992 571.998 284.615 570.718 285.211 567.301Z" fill="#BB9F87" fill-opacity="0.5"/>
<path d="M274.886 474.816C276.005 472.995 276.439 471.698 277.339 471.077C277.76 470.785 279.688 471.644 279.846 472.262C280.047 473.039 279.366 474.444 278.636 474.941C277.997 475.373 276.759 474.929 274.886 474.816Z" fill="#BB9F87" fill-opacity="0.5"/>
<path d="M252.642 403.866C253.37 402.606 253.965 400.937 254.376 400.982C255.521 401.104 256.59 401.938 257.69 402.492C257.02 403.552 256.505 404.805 255.581 405.551C255.299 405.778 253.889 404.607 252.642 403.866Z" fill="#BB9F87" fill-opacity="0.5"/>
<path d="M236.609 351.316C238.197 352.466 239.867 353.091 239.956 353.889C240.058 354.814 238.956 356.224 238.005 356.771C237.507 357.056 235.536 356.055 235.42 355.417C235.229 354.379 236.009 353.161 236.609 351.316Z" fill="#BB9F87" fill-opacity="0.5"/>
<path d="M263.991 380.524C265.556 381.492 266.596 382.136 267.64 382.782C267.051 383.654 266.592 385.065 265.831 385.252C264.99 385.463 263.451 384.806 263 384.056C262.646 383.468 263.481 382.162 263.991 380.524Z" fill="#BB9F87" fill-opacity="0.5"/>
<path d="M233.199 628.597C232.23 629.884 231.51 631.411 231.054 631.335C229.911 631.146 228.68 630.409 227.928 629.517C227.659 629.196 228.752 627.005 229.076 627.044C230.287 627.172 231.439 627.87 233.199 628.597Z" fill="#BB9F87" fill-opacity="0.5"/>
<path d="M213.709 583.808C212.658 585.756 211.159 586.533 209.439 584.869C208.962 584.408 209.125 582.312 209.653 581.965C211.643 580.661 213.005 581.672 213.709 583.808Z" fill="#BB9F87" fill-opacity="0.5"/>
<path d="M195.442 548.493C194.39 549.969 193.935 551.273 193.2 551.453C192.404 551.653 190.89 551.039 190.537 550.349C190.209 549.704 190.855 547.764 191.316 547.675C192.374 547.478 193.578 548.059 195.442 548.493Z" fill="#BB9F87" fill-opacity="0.5"/>
<path d="M157.552 502.542C156.388 505.714 154.252 506.51 150.802 505.338C151.884 500.468 155.009 502.149 157.669 502.627L157.552 502.542Z" fill="#BB9F87" fill-opacity="0.5"/>
<path d="M352.332 529.681C353.863 530.576 354.9 531.177 355.934 531.78C355.338 532.619 354.865 533.98 354.108 534.161C353.241 534.368 351.797 533.781 351.238 533.053C350.903 532.619 351.78 531.248 352.332 529.681Z" fill="#BB9F87" fill-opacity="0.5"/>
<path d="M368.603 393.126C371.14 395.033 372.475 395.553 372.562 396.234C372.662 397.011 371.796 398.44 371.081 398.647C370.361 398.852 368.87 398.116 368.52 397.399C368.095 396.529 368.51 395.244 368.603 393.126Z" fill="#BB9F87" fill-opacity="0.5"/>
<path d="M387.55 329.615C389.018 330.617 390.421 331.084 390.56 331.798C390.725 332.644 390.031 334.126 389.275 334.539C388.627 334.893 387.367 334.133 386.378 333.865C386.708 332.677 387.034 331.487 387.55 329.615Z" fill="#BB9F87" fill-opacity="0.5"/>
<path opacity="0.44" d="M471.146 383.398C469.783 385.109 468.246 385.875 466.666 383.809C466.308 383.338 466.594 381.659 467.068 381.386C469.14 380.199 470.538 381.037 471.146 383.398Z" fill="#FEC94E"/>
<path opacity="0.44" d="M495.743 398.343C493.844 400.405 492.142 400.579 490.82 398.778C490.43 398.247 490.962 396.244 491.597 395.902C493.709 394.776 494.946 396.083 495.743 398.343Z" fill="#FEC94E"/>
<path d="M463.161 562.619C461.89 563.843 461.143 565.123 460.421 565.108C459.616 565.094 458.628 564.023 458.139 563.17C457.959 562.859 458.979 561.295 459.463 561.29C460.441 561.276 461.428 561.941 463.161 562.619Z" fill="#BB9F87" fill-opacity="0.5"/>
<path d="M406.42 229.188C406.273 228.754 405.907 228.256 406.013 227.896C406.345 226.776 406.855 225.704 407.294 224.615C408.041 225.042 408.788 225.468 409.535 225.895C408.893 226.863 408.312 227.877 407.579 228.769C407.346 229.051 406.719 229.01 406.273 229.116L406.42 229.188Z" fill="#BB9F87" fill-opacity="0.5"/>
<path d="M349.278 412.039C350.514 412.724 352.006 413.099 352.114 413.721C352.255 414.523 351.332 416.254 350.8 416.28C349.728 416.337 348.609 415.51 347.512 415.048C348.026 414.172 348.542 413.294 349.278 412.039Z" fill="#BB9F87" fill-opacity="0.5"/>
<path d="M414.881 589.382C416.684 590.467 417.867 590.95 418.675 591.789C418.963 592.091 418.28 593.941 418.151 593.93C416.974 593.818 415.598 593.727 414.752 593.048C414.299 592.685 414.777 591.169 414.881 589.382Z" fill="#BB9F87" fill-opacity="0.5"/>
<path d="M500.569 291.361C501.944 292.148 503.051 292.464 503.56 293.197C503.845 293.608 503.135 294.707 502.875 295.497C501.89 295.161 500.742 295.023 500.007 294.394C499.699 294.131 500.267 292.837 500.569 291.361Z" fill="#BB9F87" fill-opacity="0.5"/>
<path d="M489.614 351.459C491.008 352.248 492.512 352.635 492.636 353.288C492.795 354.118 492.05 355.504 491.28 355.982C490.83 356.261 489.138 355.445 488.802 354.74C488.484 354.073 489.206 352.91 489.614 351.459Z" fill="#BB9F87" fill-opacity="0.5"/>
<path d="M399.912 215.824C401.25 216.614 402.134 217.14 403.019 217.662C402.456 218.521 401.893 219.38 401.332 220.241C400.522 219.657 399.491 219.216 398.998 218.434C398.746 218.037 399.458 217.03 399.912 215.824Z" fill="#BB9F87" fill-opacity="0.5"/>
<path opacity="0.44" d="M450.889 428.344C452.019 429.257 452.985 429.765 453.462 430.567C453.633 430.853 452.544 432.44 452.141 432.397C451.23 432.298 450.227 431.696 449.607 430.996C449.4 430.761 450.261 429.592 450.889 428.344Z" fill="#FEC94E"/>
<path d="M259.937 459.674C260.912 460.444 262.157 461.245 262.084 461.396C261.573 462.438 260.784 463.345 260.085 464.295C259.322 463.677 257.917 463.027 257.947 462.452C257.994 461.602 259.061 460.808 259.937 459.674Z" fill="#BB9F87" fill-opacity="0.5"/>
<path d="M308.406 498.19C309.255 498.84 309.997 499.27 310.491 499.897C310.595 500.032 309.739 501.343 309.417 501.307C308.67 501.221 307.979 500.644 307.268 500.268C307.573 499.71 307.88 499.151 308.406 498.19Z" fill="#BB9F87" fill-opacity="0.5"/>
<path d="M214.446 459.066C213.71 460.433 213.474 461.541 212.884 461.781C212.248 462.04 211.285 461.489 210.463 461.291C210.712 460.537 210.751 459.459 211.269 459.119C211.844 458.742 212.86 459.048 214.446 459.066Z" fill="#BB9F87" fill-opacity="0.5"/>
</svg>
