<svg width="376" height="660" viewBox="0 0 376 660" fill="none" xmlns="http://www.w3.org/2000/svg">
<g opacity="0.44">
<path d="M51.6284 420.218C50.5052 420.499 49.9547 420.479 49.65 420.736C46.0763 423.747 42.5085 426.769 39.0152 429.864C38.2408 430.548 37.2833 431.477 37.2031 432.39C36.6754 438.324 31.5384 441.628 29.2098 446.55C26.8483 451.537 23.5459 456.072 20.8331 460.902C19.0746 464.033 17.4496 467.26 16.0855 470.58C10.1534 485.034 0.525701 496.814 -11.0819 507.149C-13.2019 509.037 -15.5936 510.795 -18.1745 512.017C-27.1362 516.248 -36.0458 520.654 -45.3296 524.18C-58.5071 529.187 -72.5769 530.247 -86.8351 530.396C-97.4033 530.506 -107.751 529.201 -117.765 525.828C-125.031 523.381 -131.974 519.924 -139.042 516.875C-143.796 514.823 -148.628 512.901 -153.218 510.524C-156.463 508.843 -159.361 506.495 -163.048 504.023C-159.54 502.495 -156.578 502.675 -153.824 502.841C-146.433 503.29 -141.262 500.712 -137.166 494.691C-134.643 490.983 -130.576 488.141 -126.75 485.512C-123.165 483.049 -119.111 481.113 -115.043 479.419C-108.416 476.666 -104.779 471.557 -102.791 465.189C-100.374 457.455 -98.2131 449.634 -96.1365 441.794C-94.5039 435.637 -90.4042 431.361 -85.5219 427.666C-76.5666 420.883 -66.2084 416.829 -55.2091 414.073C-49.384 412.615 -43.575 411.385 -37.4203 411.196C-26.9738 410.871 -17.3932 414.035 -7.89665 417.929C3.32774 422.532 14.7856 426.272 26.7653 428.118C29.5768 428.551 31.6267 427.783 33.7373 425.738C38.8027 420.825 44.1949 416.205 49.7322 411.789C52.6141 409.49 53.3982 406.361 54.26 403.226C54.8084 401.229 54.8348 399.045 54.8563 396.936C54.9069 391.965 54.953 386.987 54.7218 382.015C54.6123 379.652 54.4055 377.041 53.3168 374.976C50.3625 369.381 47.0936 363.953 41.1346 360.577C31.1624 354.925 21.2561 349.151 11.4102 343.28C1.67666 337.472 -7.41574 330.789 -16.2176 323.664C-23.7643 317.559 -31.5125 311.638 -39.5467 306.172C-49.6393 299.307 -58.6104 291.374 -66.4542 282.169C-74.4991 272.731 -81.2459 262.499 -86.3232 251.355C-90.1728 242.91 -92.7761 234.052 -94.4468 225.039C-96.6759 213.025 -98.2168 200.899 -97.9922 188.785C-97.8406 180.523 -96.7687 172.284 -94.708 164.235C-91.2282 150.632 -85.8596 137.816 -79.4316 125.432C-76.4736 119.73 -73.303 114.129 -69.9518 108.648C-66.8117 103.51 -64.0148 98.272 -62.5121 92.3852C-62.1106 90.8167 -61.3715 89.2493 -60.4131 87.9526C-59.1376 86.2283 -56.8498 86.4562 -55.9195 88.4235C-53.5133 93.5243 -49.3117 96.9377 -44.9415 100.341C-35.9062 107.371 -26.4954 114.057 -18.188 121.841C-8.28598 131.119 1.74709 140.32 9.97662 151.262C17.1603 160.816 25.5754 169.517 34.6806 177.486C35.8032 178.467 37.134 179.219 38.7619 180.353C39.2567 178.63 39.6865 177.526 39.8853 176.379C41.5008 166.981 45.8292 158.766 51.2591 151.164C53.5766 147.919 56.8479 145.336 59.7254 142.488C60.364 141.859 61.1438 141.354 61.9045 140.857C68.5724 136.491 72.1897 130.06 74.4082 122.725C75.2315 120.002 75.8397 117.227 78.1169 115.242C78.3373 115.049 78.5244 114.775 78.6161 114.499C80.7865 107.955 85.6424 103.06 89.3562 97.4787C92.827 92.2672 96.5947 87.2028 100.724 82.481C103.633 79.1538 104.909 75.3034 106.223 71.3127C107.026 68.8635 107.187 65.9536 110.095 64.4157C114.084 68.3063 116.453 72.8811 118.339 77.761C119.277 80.1894 120.327 82.6034 121.545 84.9188C132.708 106.105 141.033 128.221 146.582 151.219C150.386 166.976 151.003 182.844 149.053 198.669C147.691 209.72 145.886 220.702 144.21 232.161C145.372 231.556 146.515 231.008 147.604 230.384C152.87 227.376 158.126 224.35 163.383 221.323C176.909 213.541 192.232 210.603 207.375 207.068C225.151 202.918 243.28 202.694 261.532 203.818C273.499 204.555 284.954 207.971 295.836 213.117C299.174 214.696 302.289 217.073 305.001 219.6C313.432 227.447 323.536 231.66 334.501 234.459C339.322 235.691 344.013 237.583 348.65 239.463C350.404 240.172 352.35 241.272 352.593 243.827C351.996 244.116 351.499 244.569 350.967 244.586C344.102 244.806 338.219 247.383 332.558 250.783C322.601 256.763 313.655 263.763 306.325 272.724C299.104 281.552 291.923 290.475 283.937 298.621C273.201 309.569 262.477 320.608 249.696 329.477C238.99 336.907 227.205 342.113 214.427 345.483C209.384 346.814 204.5 348.651 199.514 350.17C189.458 353.233 179.034 354.508 168.444 354.816C161.922 355.004 155.373 354.813 148.856 355.059C138.017 355.468 127.425 353.581 116.844 351.204C114.443 350.664 111.912 350.645 109.441 350.587C105.568 350.498 102.287 352.184 99.027 353.852C91.3 357.802 85.2531 363.72 79.4437 369.837C76.6758 372.753 74.1602 375.993 72.0799 379.415C68.7549 384.881 67.244 391.143 67.2369 397.494C67.225 407.415 65.7647 417.005 63.4466 426.53C62.7875 429.243 62.9033 432.18 62.8051 435.026C62.4425 445.279 64.451 455.619 62.6939 465.831C61.8065 470.995 61.3385 476.241 60.4777 481.411C59.9875 484.356 59.1518 487.242 58.3127 490.106C58.1444 490.68 57.0653 491.511 56.7451 491.381C56.0383 491.09 55.2741 490.348 55.0122 489.641C52.0792 481.696 50.4968 473.469 49.1769 465.23C48.7061 462.297 49.3547 459.245 49.3569 456.244C49.3617 451.576 48.933 446.868 49.2654 442.234C49.7161 435.917 50.7164 429.658 51.4625 423.373C51.5667 422.501 51.5578 421.625 51.6284 420.218ZM-49.2318 488.674C-50.4017 488.974 -51.6709 489.089 -52.7279 489.599C-61.6594 493.902 -70.5912 498.177 -80.3997 500.547C-82.1812 500.976 -83.9359 501.66 -85.5491 502.497C-93.3715 506.555 -102.004 508.245 -110.637 509.946C-112.068 510.227 -113.481 510.581 -114.9 510.903C-114.201 511.562 -113.575 511.784 -113.02 511.679C-103.335 509.838 -93.5304 508.384 -84.0203 505.973C-73.096 503.204 -63.0679 498.284 -53.2364 493.034C-51.1894 491.942 -49.9182 490.665 -49.2768 488.602C-45.7492 489.798 -43.1204 487.991 -40.927 486.002C-34.7946 480.443 -27.0609 477.315 -20.0925 473.037C-11.1666 467.558 -2.17872 462.213 5.58593 455.163C12.2778 449.086 19.2538 443.299 26.1466 437.434C27.239 436.502 28.1938 435.264 30.1527 435.804C31.9761 436.303 33.0214 435.15 33.564 433.589C35.0105 429.417 38.2719 426.751 41.565 424.043C45.0033 421.218 48.242 418.172 51.57 415.22C51.3539 414.972 51.1392 414.721 50.9231 414.474C49.5618 415.488 48.0964 416.4 46.8542 417.539C40.5731 423.282 34.8697 429.636 27.8101 434.556C19.746 440.174 11.6309 445.724 3.53686 451.299C0.797617 453.185 -2.06545 454.92 -4.66598 456.971C-10.005 461.186 -14.9139 465.952 -20.525 469.787C-29.1431 475.678 -38.2111 480.961 -47.0548 486.549C-47.9062 487.078 -48.5137 487.954 -49.2318 488.674ZM2.20196 466.504C3.55472 469.001 4.91042 471.499 6.4137 474.278C7.71978 472.757 7.74428 471.192 7.13831 469.559C6.39524 467.552 5.50021 465.596 4.75419 463.587C4.62634 463.246 4.91931 462.771 5.03593 462.277C5.94738 462.619 6.74671 462.918 7.31157 463.13C9.8286 462.18 6.34565 456.661 12.0953 458.325C11.936 460.449 11.7479 462.505 11.6362 464.564C11.5242 466.602 10.2754 468.669 11.7704 471.267C17.874 460.511 23.6766 450.29 29.4778 440.072C28.0186 440.24 27.1622 440.83 26.3863 441.51C19.2462 447.753 12.2462 454.159 4.91386 460.181C2.64825 462.041 1.72763 463.857 2.26192 466.598C0.743649 464.669 -0.807773 464.315 -2.77534 465.968C-4.38303 467.322 -6.16896 468.515 -8.0202 469.543C-10.4235 470.876 -11.237 472.686 -11.0795 475.452C-10.677 482.578 -12.3154 489.186 -16.3356 495.115C-18.7717 498.703 -20.9693 502.451 -23.315 506.103C-24.8789 508.536 -26.5168 510.916 -28.5062 513.895C-22.1964 511.707 -17.2977 508.8 -12.8122 505.17C-11.0035 503.705 -9.94518 502.204 -10.738 499.768C-10.9431 499.139 -10.6745 498.382 -10.5942 497.257C-9.49436 498.516 -8.7402 499.381 -7.97864 500.252C-3.74365 497.746 -8.48949 494.124 -6.61181 491.352C-5.35726 492.438 -4.12054 493.508 -2.88676 494.576C-0.884152 493.455 -1.15324 491.993 -1.86787 490.245C-2.9572 487.587 -3.83914 484.858 -4.81018 482.157C-4.48888 482.044 -4.16613 481.927 -3.84779 481.812C-2.33354 484.533 -0.822281 487.252 0.740108 490.061C3.55361 487.259 3.54345 487.265 2.18697 484.709C0.637818 481.794 -0.582417 478.786 -1.13407 474.753C1.86499 477.132 0.988496 480.809 3.75626 482.464C5.15595 478.846 5.062 476.988 3.79719 473.065C3.09776 470.92 2.71999 468.691 2.20196 466.504ZM-47.1845 415.339C-51.8712 416.553 -56.5594 417.762 -61.2461 418.976C-66.6108 421.168 -72.2591 422.894 -77.2772 425.655C-86.5224 430.738 -93.5479 437.759 -94.6369 449.211C-91.3139 450.686 -90.4245 455.833 -85.1029 455.558C-86.7955 451.145 -90.7866 448.211 -91.4088 443.738C-89.1833 445.986 -87.4588 448.519 -85.5368 450.904C-82.1464 455.104 -78.7908 455.842 -73.1592 453.636C-75.0313 450.926 -77.0397 448.344 -78.6677 445.562C-80.1922 442.957 -83.1586 441.042 -82.6477 437.346C-78.3164 443.097 -73.9865 448.85 -69.3176 455.049C-68.2709 455.08 -66.728 455.129 -64.6611 455.191C-68.0593 449.102 -72.9099 444.778 -74.8546 438.855C-74.119 439.104 -73.6993 439.544 -73.3334 440.016C-69.7019 444.686 -66.0384 449.336 -62.4695 454.049C-61.0966 455.861 -59.5292 456.418 -56.9047 455.821C-58.7795 453.137 -60.3699 450.867 -61.9544 448.593C-65.3957 443.658 -65.3943 443.656 -65.3575 441.268C-64.9741 441.625 -64.5771 441.897 -64.314 442.258C-61.262 446.392 -58.2085 450.524 -55.2046 454.688C-53.7153 456.754 -52.0545 458.036 -49.1205 456.667C-52.3285 451.953 -55.4063 447.43 -58.4857 442.902C-58.221 442.724 -57.9607 442.548 -57.696 442.37C-57.0388 443.118 -56.3511 443.843 -55.7259 444.617C-52.504 448.622 -49.3051 452.65 -46.0818 456.652C-44.9939 458.001 -43.797 458.732 -41.99 456.919C-43.1853 455.438 -44.4089 454.034 -45.4973 452.539C-46.5946 451.033 -47.6076 449.463 -48.5769 447.88C-49.4336 446.478 -50.9422 445.263 -50.7114 443.006C-48.3378 446.127 -46.4143 448.948 -44.1757 451.515C-42.043 453.961 -40.6481 457.188 -36.2901 459.143C-38.6479 455.016 -40.4663 451.833 -42.2846 448.65C-41.9918 448.49 -41.6975 448.335 -41.4017 448.176C-39.0369 451.403 -36.6532 454.614 -34.3161 457.858C-32.9628 459.738 -31.4549 461.116 -28.5459 460.177C-30.3922 456.771 -32.1677 453.496 -33.9448 450.217C-31.9294 452.015 -30.4023 454.058 -28.7328 455.989C-27.0753 457.907 -26.6755 461.229 -22.3178 461.301C-24.3225 457.028 -26.1127 453.21 -27.9058 449.391C-27.5542 449.24 -27.1982 449.087 -26.8466 448.936C-24.7416 452.704 -22.6322 456.47 -20.1874 460.843C-19.7807 457.367 -23.0791 455.103 -21.3079 451.719C-19.4939 455.233 -17.9224 458.281 -16.1205 461.767C-13.4935 458.74 -16.8388 456.041 -15.8293 453.2C-14.505 455.218 -13.4218 456.87 -12.3987 458.427C-5.60434 453.753 0.91963 449.267 8.17631 444.274C2.35284 442.03 -2.6715 439.961 -7.78463 438.162C-12.9582 436.344 -18.1505 434.437 -23.4686 433.219C-28.794 432 -34.2734 431.451 -39.7034 430.856C-45.1291 430.26 -50.5869 429.669 -56.0138 429.639C-61.3071 429.609 -66.5733 430.288 -71.8525 430.656C-71.9286 430.447 -72.0064 430.234 -72.0811 430.023C-71.0781 429.319 -70.0721 428.617 -69.0792 427.919C-69.966 426.789 -70.6707 425.893 -71.3724 424.998C-69.5728 425.039 -68.1832 425.581 -66.7979 426.138C-65.4022 426.697 -64.01 427.431 -62.263 426.513C-63.3882 425.223 -64.2898 424.188 -65.582 422.707C-61.0814 422.82 -58.6882 427.177 -54.6216 426.336C-56.314 424.333 -58.2586 422.784 -60.0671 421.098C-60.6526 420.553 -60.8834 419.646 -61.2764 418.904C-59.5403 419.898 -57.6976 420.747 -56.1 421.919C-53.8666 423.558 -52.0547 426.256 -49.6263 427.012C-46.2607 428.059 -42.4881 427.725 -38.8895 427.983C-38.6886 427.646 -38.4892 427.311 -38.2882 426.973C-39.4606 425.564 -40.6954 424.197 -41.7965 422.735C-43.655 420.276 -45.4278 417.757 -47.2354 415.263C-46.4588 415.725 -45.5139 416.044 -44.9302 416.673C-41.741 420.098 -38.6866 423.642 -35.4757 427.046C-34.7121 427.854 -33.573 428.648 -32.5185 428.825C-29.4976 429.336 -26.4296 429.527 -22.5179 429.93C-25.5469 426.094 -28.0936 422.868 -30.6433 419.64C-30.3572 419.42 -30.0667 419.198 -29.7806 418.978C-26.7433 422.234 -23.5594 425.376 -20.724 428.787C-18.8104 431.087 -16.7148 432.412 -13.0043 432.368C-15.8878 428.649 -18.4458 425.349 -21.0038 422.05C-19.4599 422.507 -18.4646 423.408 -17.5593 424.385C-14.903 427.241 -12.3019 430.148 -9.63547 432.999C-7.80131 434.957 -5.5687 436.1 -1.89917 436.504C-4.98258 431.999 -7.55854 428.236 -10.1331 424.471C-9.8682 424.308 -9.60187 424.142 -9.33557 423.975C-8.65732 424.762 -7.94127 425.526 -7.30515 426.345C-4.53093 429.899 -1.78142 433.473 0.981155 437.036C2.35196 438.801 4.06752 439.688 7.2342 439.472C4.80067 436.045 2.81293 433.247 0.828099 430.451C1.88425 430.969 2.86907 431.642 3.58813 432.517C5.36493 434.683 6.90936 437.029 8.74563 439.144C11.1468 441.91 11.5849 441.859 14.4832 439.909C16.4871 438.557 18.6002 437.357 20.5996 436C21.9098 435.108 23.1018 434.054 25.1985 432.402C22.3669 432.331 20.7581 432.288 19.1405 432.247C18.9662 431.184 18.8303 430.353 18.7263 429.709C10.4252 426.981 2.22053 424.767 -5.5938 421.57C-12.0063 418.95 -18.3436 416.254 -25.128 415.011C-32.5375 413.654 -39.9724 412.815 -47.1845 415.339ZM-28.7917 508.377L-28.8761 508.426C-25.487 505.764 -25.1097 502.28 -26.2357 498.318C-26.7161 496.635 -26.9654 494.9 -27.323 493.187C-27.0333 493.121 -26.7452 493.051 -26.4555 492.986C-25.5028 495.195 -24.5531 497.402 -23.1703 500.609C-22.2657 498.363 -21.4815 497.205 -21.3822 495.969C-21.275 494.666 -21.9832 493.286 -22.0263 491.942C-22.0635 490.807 -23.1315 489.521 -21.9463 488.18C-21.0089 490.009 -20.2238 491.538 -19.2896 493.358C-17.4318 490.852 -18.4926 488.9 -19.2634 486.904C-20.4751 483.762 -20.4514 483.562 -19.6772 481.119C-18.61 483.22 -17.6077 485.191 -16.6024 487.165C-16.3012 487.084 -16.003 487.001 -15.7018 486.92C-15.7886 483.296 -17.0183 479.809 -17.6921 475.746C-22.8798 478.666 -27.7013 481.201 -32.3207 484.033C-35.9287 486.247 -39.1878 488.975 -42.7838 491.203C-44.8037 492.454 -45.647 493.905 -45.765 496.262C-46.1489 503.84 -49.5328 510.052 -54.9454 515.232C-56.2508 516.481 -57.5754 517.716 -58.9372 518.907C-61.6377 521.273 -64.3725 523.605 -67.8016 526.565C-57.6131 525.497 -49.0803 522.867 -40.9124 519.725C-41.1241 517.732 -41.2852 516.226 -41.442 514.718C-41.1477 514.665 -40.8521 514.609 -40.5549 514.558C-39.6622 515.684 -38.7652 516.809 -37.3516 518.592C-36.7718 514.46 -39.1027 511.13 -37.8119 506.833C-36.6697 510.368 -35.8231 512.992 -34.7787 516.236C-31.5696 511.423 -36.3863 507.223 -34.462 502.131C-33.2118 505.732 -32.2531 508.493 -30.9816 512.154C-29.9274 510.339 -29.3596 509.358 -28.7917 508.377ZM-132.37 494.383C-132.14 495.035 -131.909 495.687 -131.683 496.34C-131.529 497.141 -131.374 497.943 -131.119 499.263C-132.758 498.591 -133.86 498.142 -135.374 497.524C-139.491 504.888 -146.93 505.986 -154.886 506.343C-153.182 507.289 -151.592 507.897 -149.971 508.077C-147.862 508.313 -145.725 508.143 -143.604 508.268C-140.812 508.432 -138.008 508.968 -135.239 508.898C-129.197 508.747 -123.114 508.663 -117.159 507.901C-110.664 507.069 -104.233 505.719 -97.0629 503.432C-99.3008 502.988 -100.498 502.551 -101.678 502.548C-111.149 502.545 -120.617 502.639 -130.085 502.661C-131.142 502.664 -132.208 502.415 -133.27 502.283C-133.279 501.868 -133.289 501.448 -133.297 501.033C-128.202 499.261 -122.592 499.787 -116.537 499.047C-120.151 496.446 -123.172 494.273 -126.193 492.099C-125.968 491.756 -125.745 491.412 -125.519 491.07C-124.21 491.74 -122.865 492.348 -121.603 493.098C-118.498 494.938 -115.47 496.913 -112.322 498.676C-111.424 499.177 -110.222 499.141 -109.161 499.35C-109.093 499.129 -109.026 498.908 -108.958 498.687C-112.077 496.067 -115.193 493.452 -118.312 490.833C-118.07 490.495 -117.825 490.158 -117.584 489.823C-112.218 492.714 -108.185 498.055 -101.528 498.875C-103.938 496.427 -106.349 493.981 -109.402 490.881C-106.281 491.209 -105.37 493.053 -103.939 494.091C-102.288 495.289 -100.703 496.575 -99.0252 497.734C-97.6477 498.687 -96.178 499.511 -94.1657 500.751C-95.9065 497.327 -99.4042 496.276 -100.387 492.5C-95.8081 494.825 -93.5046 499.381 -89.0352 500.559C-88.7893 500.294 -88.5434 500.029 -88.2975 499.764C-90.2235 497.525 -92.1495 495.287 -94.0725 493.05C-93.8396 492.803 -93.6037 492.558 -93.3693 492.308C-90.6333 494.443 -87.8942 496.58 -85.1582 498.715C-84.8702 498.418 -84.5792 498.123 -84.2912 497.826C-85.6864 496.211 -87.08 494.601 -89.1549 492.202C-86.0607 492.378 -84.8847 493.846 -83.7001 495.077C-81.8562 496.994 -79.9404 497.604 -77.4219 496.542C-71.5198 494.052 -65.5331 491.732 -59.6159 489.271C-58.7461 488.911 -58.0653 488.147 -56.9147 487.284C-58.297 486.736 -59.1285 486.339 -59.9949 486.07C-70.2218 482.869 -80.5937 482.731 -91.0305 483.447C-98.8548 483.984 -106.245 485.936 -113.405 488.752C-113.883 488.942 -114.522 488.774 -115.586 488.77C-114.952 487.496 -114.526 486.642 -114.072 485.731C-114.743 484.944 -115.415 484.16 -116.509 482.875C-120.254 485.177 -124.058 487.331 -127.63 489.79C-129.423 491.032 -130.801 492.835 -132.37 494.383ZM-40.4545 181.543C-40.3795 181.989 -40.4241 182.495 -40.215 182.873C-33.9541 194.189 -26.2207 204.468 -16.8401 213.594C-6.30143 223.843 4.31518 233.996 13.265 245.686C17.937 251.784 22.4216 257.804 24.7113 265.163C29.3124 279.957 34.9948 294.414 40.7343 308.86C44.8199 319.147 48.2639 329.739 49.3705 340.663C50.6785 353.586 53.4606 366.135 58.1026 378.409C58.591 379.695 58.329 381.274 58.2248 382.696C58.0046 385.745 57.6596 388.785 57.3674 391.83C57.7574 391.918 58.149 392.01 58.539 392.098C59.2154 389.907 60.1991 387.762 60.4799 385.508C60.7596 383.286 60.3306 380.953 60.1976 378.373C63.1983 379.019 63.8443 380.792 63.6946 382.861C63.5646 384.655 63.0614 386.41 62.7375 388.184C61.8548 393.039 60.9309 397.886 60.1351 402.76C59.9194 404.072 59.6632 404.885 58.0829 405.218C57.2971 405.383 56.8211 406.754 55.9245 407.958C58.7184 408.067 59.9687 408.612 59.6826 411.015C59.2909 414.3 59.2624 417.639 59.0707 420.955C59.0183 421.857 59.0544 422.796 58.8045 423.641C58.6642 424.115 57.9296 424.817 57.6234 424.739C56.9755 424.574 56.0512 424.038 55.9253 423.517C55.6367 422.35 55.7666 421.097 55.7267 419.879C53.9267 429.085 52.5628 438.31 51.631 447.591C51.3268 450.616 52.1575 453.791 52.4692 456.897C52.9339 454.897 52.7312 452.916 52.8679 450.968C53.286 444.957 53.7967 438.953 54.3662 432.958C54.4859 431.711 54.6263 430.152 56.7084 430.463C56.3917 440.092 56.0771 449.657 55.7559 459.383C52.8458 460.785 52.3886 461.379 52.6582 463.638C52.928 465.919 55.0641 467.853 58.5359 468.83C58.8156 468.022 59.1658 467.222 59.3746 466.378C60.5031 461.8 60.4319 457.157 60.0644 452.416C59.6206 446.691 59.674 440.944 59.6101 435.21C59.5825 432.825 59.5085 430.377 59.9838 428.077C60.9523 423.383 62.702 418.84 63.3427 414.104C64.0461 408.907 63.9994 403.571 64.0384 398.285C64.1018 389.904 66.5462 382.24 71.0683 375.439C73.8543 371.248 77.6795 367.734 81.0147 363.896C81.6014 363.222 82.0768 362.453 82.6027 361.731C82.3472 361.502 82.0903 361.276 81.8349 361.047C79.1234 363.142 76.226 365.054 73.7569 367.389C71.7067 369.33 69.9934 371.669 68.4314 374.024C66.8925 376.348 64.9346 377.514 61.386 377.267C60.8757 375.768 60.2464 374.145 59.7736 372.484C59.3607 371.027 59.5962 368.672 58.7314 368.202C55.5533 366.477 55.9712 363.616 55.3795 361.076C52.5136 348.736 49.7794 336.37 46.8389 324.044C45.3212 317.682 43.461 311.387 41.7662 305.059C40.5827 300.639 39.8987 296.039 38.1472 291.823C33.0864 279.621 27.611 267.569 22.2714 255.47C21.9006 254.633 21.3706 253.847 20.8336 253.089C17.5071 248.404 14.371 243.578 10.767 239.097C5.50342 232.547 0.15221 226.031 -5.60907 219.899C-15.2231 209.665 -25.8406 200.319 -34.3685 189.123C-36.3284 186.549 -38.4757 184.103 -40.5344 181.599C-40.8835 180.521 -41.234 179.447 -41.583 178.37C-42.0681 178.638 -42.5561 178.904 -43.0425 179.175C-42.1839 179.958 -41.3192 180.751 -40.4545 181.543ZM93.4718 97.2299C93.3468 97.3225 93.2203 97.4108 93.0939 97.499C91.8374 99.3251 90.5809 101.151 89.6886 102.45C91.0884 107.029 92.2703 110.896 93.6503 115.42C88.8454 113.409 90.3095 108.58 87.6326 105.384C86.6181 106.769 84.9877 107.962 85.1179 109.017C85.4622 111.818 86.5614 114.558 87.3693 117.346C88.5981 116.952 89.5464 116.65 91.1916 116.123C90.8442 135.804 98.2935 153.655 103.371 172.044C105.825 158.612 108.236 145.204 109.706 131.667C111.175 118.147 112.024 104.51 109.794 90.5994C111.054 91.0223 112.038 91.5141 112.421 92.2753C113.039 93.496 113.529 94.8891 113.609 96.2194C114.054 103.459 114.622 110.711 114.633 117.943C114.645 125.495 113.679 133.018 113.857 140.565C114.061 149.224 113.723 157.782 112.368 166.271C111.56 171.33 110.764 176.395 109.823 181.429C109.184 184.851 110.449 187.69 112.35 190.819C115.773 187.118 110.133 183.953 112.035 180.144C113.428 182.246 114.55 183.932 115.591 185.505C120.195 182.176 116.601 179 115.83 175.348C117.245 176.324 118.662 177.302 120.13 178.312C122.449 176.507 123.112 174.554 121.532 171.648C120.442 169.638 118.966 167.472 119.556 164.103C121.213 166.577 122.425 168.386 123.674 170.252C125.753 168.723 126.341 167.249 125.241 165.256C124.148 163.273 123.095 161.269 122.101 159.237C121.523 158.055 120.624 156.699 123.011 155.867C124.316 157.982 125.599 160.068 127.094 162.496C129.736 156.669 129.454 151.738 125.494 147.036C125.023 146.478 125.183 145.422 125.052 144.597C125.338 144.515 125.626 144.438 125.913 144.357C127.215 145.861 128.517 147.368 130.022 149.109C131.418 143.118 131.373 143.149 127.696 138.268C127.269 137.697 127.702 136.528 127.752 135.242C129.12 135.995 129.893 136.419 130.818 136.931C131.025 135.725 131.213 134.636 131.394 133.583C133.911 133.314 133.571 134.988 133.778 136.259C135.579 147.425 133.195 157.973 129.403 168.146C126.649 175.535 122.68 182.316 117.992 188.799C112.575 196.288 107.103 203.944 104.982 213.27C104.884 213.706 104.703 214.128 104.504 214.527C100.447 222.617 99.287 231.272 100.09 240.326C100.37 243.474 100.535 246.627 100.775 250.066C99.6111 250.039 98.7157 250.018 97.5223 249.99C97.8671 251.515 98.1449 252.748 98.6284 254.878C101.137 251.228 103.156 248.286 105.174 245.346L105.102 245.409C105.515 244.219 106.353 243.013 106.266 241.838C105.966 237.923 105.289 234.021 104.866 230.107C104.773 229.244 105.131 228.355 105.282 227.478C105.655 227.512 106.027 227.548 106.398 227.584C107.051 231.842 107.703 236.103 108.422 240.78C110.423 239.47 111.22 238.346 110.694 236.123C109.962 233.016 109.687 229.815 109.359 226.646C109.263 225.729 109.639 224.783 109.799 223.85C110.019 223.841 110.238 223.828 110.458 223.819C111.03 226.757 111.601 229.69 112.173 232.628C112.479 232.602 112.79 232.575 113.096 232.55C112.979 228.539 112.862 224.528 112.747 220.514C113.121 220.502 113.499 220.488 113.874 220.473C114.467 224.236 115.062 228 115.711 232.132C117.689 230.715 118.735 229.246 118.503 227.059C118.296 225.093 118.047 223.131 117.871 221.163C117.717 219.48 117.638 217.791 117.525 216.108C117.945 216.072 118.367 216.038 118.787 216C119.414 219.482 120.037 222.963 120.68 226.539C123.626 225.775 123.297 223.744 123.035 221.776C122.544 218.078 122.02 214.385 121.511 210.693C121.882 210.629 122.254 210.57 122.624 210.506C123.531 214.102 124.438 217.699 125.386 221.469C128.44 219.739 128.574 217.482 128.076 214.94C127.475 211.863 126.962 208.771 126.41 205.685C126.782 205.611 127.153 205.537 127.529 205.462C128.416 208.672 129.305 211.88 130.289 215.441C132.822 212.636 132.819 212.634 132.478 209.885C131.963 205.722 131.455 201.559 130.943 197.397C133.841 200.656 133.119 204.805 134.666 208.786C139.915 202.279 135.744 195.678 134.805 188.687C138.567 191.438 136.462 196.694 140.986 197.846C141.071 205.598 137.985 211.844 133.691 217.602C129.651 223.021 124.787 227.75 120.315 232.79C112.75 241.32 106.136 250.665 99.2932 259.795C92.629 268.689 93.1832 278.043 99.363 288.126C100.662 286.708 101.806 285.455 103.106 284.034C99.6062 279.148 97.6864 273.982 97.8891 268.212C100.727 271.934 100.491 277.102 104.613 280.886C106.169 277.553 103.441 275.461 102.96 273.062C102.442 270.485 101.541 267.969 100.806 265.427C101.209 265.299 101.614 265.167 102.017 265.039C103.631 268.501 105.244 271.963 107.246 276.263C108.48 273.09 110.332 271.144 109.034 268.327C107.554 265.114 106.06 261.907 104.66 258.66C104.439 258.144 104.681 257.455 104.742 256.015C107.949 259.186 107.702 263.533 111.056 265.688C113.025 263.9 112.812 262.269 111.832 260.202C110.385 257.143 109.361 253.909 108.157 250.746C108.514 250.605 108.869 250.463 109.226 250.321C110.894 253.45 112.567 256.576 114.231 259.696C117.448 257.836 117.698 255.673 116.366 252.85C115.304 250.6 114.662 248.173 113.832 245.824C114.183 245.697 114.532 245.565 114.882 245.438C116.348 248.283 117.816 251.125 119.315 254.037C124.167 250.16 124.12 250.179 121.909 245.301C121.096 243.506 120.056 241.703 120.397 239.587C121.559 240.739 122.346 242.028 123.15 243.308C124.017 244.69 124.9 246.063 126.102 247.955C127.678 246.085 128.809 244.741 130.031 243.291C128.522 240.23 127.083 237.303 125.641 234.374C125.961 234.189 126.277 234.006 126.597 233.821C128.45 236.277 130.305 238.735 132.285 241.358C133.588 240.282 134.604 239.443 135.742 238.504C134.153 235.249 132.634 232.143 130.713 228.21C135.124 230 134.846 234.835 138.481 236.157C142.258 230.831 136.189 227.028 136.648 222.153C138.16 224.107 139.673 226.062 141.443 228.345C144.985 215.11 146.438 201.855 146.853 188.626C145.286 187.225 143.901 185.988 142.512 184.748C141.886 183.888 141.261 183.026 140.634 182.166C139.166 179.479 137.695 176.791 136.226 174.104C141.077 176.362 141.563 182.311 147.218 184.785C143.721 179.361 140.701 174.679 137.684 169.999C137.995 169.788 138.305 169.58 138.616 169.369C141.648 170.942 142.043 174.771 145.037 177.292C143.791 172.592 140.147 169.522 139.984 165.051C141.484 167.091 142.978 169.132 144.476 171.174C144.648 171.063 144.818 170.954 144.993 170.844C143.128 167.709 141.263 164.573 139.399 161.437C139.712 161.259 140.028 161.083 140.341 160.905C142.094 163.491 143.843 166.079 145.596 168.666C145.9 168.55 146.205 168.439 146.507 168.327C146.14 166.808 146.014 165.189 145.353 163.79C143.977 160.87 142.294 158.078 140.79 155.207C140.434 154.53 140.282 153.755 140.037 153.028C140.257 152.931 140.478 152.833 140.696 152.739C141.891 154.237 143.085 155.736 144.279 157.234C144.667 156.248 144.65 155.601 144.353 155.096C143.186 153.118 141.932 151.189 140.558 148.997C141.168 148.321 141.825 147.598 142.475 146.879C137.557 125.179 116.6 75.0821 109.775 69.6191C110.415 72.7224 110.958 75.3082 111.462 77.9031C111.487 78.0293 111.162 78.2084 110.395 78.9389C109.931 77.605 109.532 76.4496 109.062 75.0912C106.274 77.9519 107.206 80.5757 108.087 83.2125C108.213 83.5922 108.124 84.0324 108.148 84.8706C107.229 83.7169 106.581 82.9064 105.725 81.8341C104.689 82.982 103.817 83.9469 102.988 84.8658C104.423 88.1952 106.223 91.181 105.621 95.2988C103.527 92.6141 103.427 89.5895 100.85 87.6452C100.006 89.046 99.3287 90.1697 98.6885 91.2344C100.828 94.8177 102.131 98.3566 101.539 103.291C100.005 99.3412 98.8287 96.3134 97.2068 92.1347C95.4892 94.4819 94.4805 95.8559 93.4718 97.2299ZM325.635 249.572C325.782 249.495 325.927 249.412 326.075 249.335C326.652 249.741 327.229 250.15 327.809 250.558C328.268 249.894 329.08 249.26 329.116 248.559C329.195 247.1 327.717 245.67 328.661 243.53C329.782 245.225 330.595 246.456 331.417 247.699C334.5 245.618 334.5 245.618 331.66 241.719C317.105 242.313 302.682 243.8 288.445 246.544C280.735 248.028 272.855 248.917 265.286 250.842C259.41 252.335 253.896 255.018 248.22 257.173C246.246 257.264 243.929 256.932 243.36 259.447C242.704 262.329 242.32 265.278 241.796 268.34C243.176 268.615 244.182 268.813 245.512 269.077C246.424 264.963 247.293 261.03 248.164 257.099C248.562 257.839 249.303 258.598 249.286 259.312C249.24 261.103 248.798 262.867 248.617 264.654C248.478 266.012 248.494 267.388 248.443 268.755C248.847 268.822 249.249 268.887 249.653 268.954C252.424 265.153 251.604 259.956 254.194 255.375C255.802 260.702 252.247 265.187 253.723 270.964C257.331 266.156 257.069 260.87 259.422 256.604C259.613 261.355 257.635 265.813 257.936 271.264C260.693 269.079 260.516 266.395 261.265 264.149C262.055 261.778 262.802 259.389 263.564 257.007C263.842 257.088 264.122 257.173 264.4 257.254C263.61 261.868 262.816 266.481 261.977 271.375C263.762 271.621 265.098 271.806 266.877 272.048C268.412 267.064 269.879 262.296 271.349 257.528C272.139 262.571 269.84 267.09 269.479 271.89C273.313 272.856 273.403 272.891 274.456 270.061C275.526 267.173 276.393 264.21 277.352 261.28C277.658 261.35 277.964 261.42 278.27 261.49C277.637 265.185 277.003 268.875 276.37 272.57C276.684 272.765 276.999 272.956 277.313 273.151C278.07 272.677 278.997 272.342 279.546 271.699C280.378 270.718 280.949 269.526 281.628 268.421L281.555 268.352C281.6 269.838 281.644 271.328 281.686 272.753C284.318 274.083 285.672 272.98 286.52 270.912C287.508 268.503 288.433 266.069 289.384 263.645C289.693 263.76 290 263.873 290.31 263.987C289.551 266.795 288.793 269.601 288.076 272.261C291.307 274.079 293.973 268.368 297.895 272.72C295.929 273.623 294.411 274.477 292.781 275.04C286.039 277.363 278.983 276.574 272.038 275.76C261.354 274.508 250.664 273.152 240.06 271.266C231.031 269.659 222.58 272.143 213.866 272.721C213.435 272.751 213.026 273.058 212.629 273.271C204.346 277.737 196.066 282.207 187.784 286.68C183.151 288.074 182.367 290.001 184.402 296.038C187.114 293.209 187.521 289.946 187.718 286.597C189.023 286.603 189.893 287.143 189.688 288.507C189.443 290.141 188.938 291.731 188.72 293.368C188.622 294.09 188.952 294.882 189.173 296.11C192.414 293.292 191.01 288.78 194.708 286.65C194.147 289.91 193.59 293.172 192.995 296.63C194.189 296.867 194.791 297.059 195.39 297.079C195.807 297.092 196.222 296.867 196.592 296.76C197.702 288.175 197.702 288.175 199.809 286.306C199.67 290.212 199.541 293.822 199.414 297.436C203.338 293.982 203.877 288.985 206.46 284.961C206.682 286.303 206.568 287.539 206.251 288.714C205.545 291.323 204.64 293.876 204.059 296.509C203.936 297.067 204.73 298.044 205.348 298.495C205.586 298.67 206.802 298.067 207.081 297.553C207.644 296.516 207.849 295.291 208.245 294.159C209.112 291.664 210.003 289.175 210.884 286.683C211.447 288.018 211.41 289.183 211.148 290.287C210.663 292.327 209.919 294.307 209.513 296.361C208.945 299.232 209.403 299.574 212.953 299.452C214.099 295.462 215.239 291.493 216.638 286.617C218.286 291.893 214.112 296.206 217.909 301.349C219.145 297.181 220.155 293.769 221.167 290.359C221.569 290.453 221.969 290.549 222.371 290.643C221.787 294.044 221.202 297.447 220.625 300.826C223.742 301.485 223.906 301.551 224.277 300.584C225.087 298.496 225.712 296.332 226.409 294.197C226.789 293.036 227.164 291.872 227.541 290.71C227.87 290.809 228.197 290.904 228.526 291.003C227.894 294.681 227.263 298.358 226.633 302.026C230.691 302.865 230.679 302.859 231.92 299.788C232.778 297.664 233.682 295.56 234.567 293.446C234.82 293.535 235.072 293.624 235.324 293.713C234.625 296.711 233.922 299.708 233.158 302.988C234.845 303.323 236.243 303.599 238.113 303.97C238.484 301.819 238.734 300.049 239.1 298.31C239.436 296.709 239.646 294.983 242.075 293.564C241.39 297.558 240.843 300.733 240.287 303.977C243.423 303.944 243.475 303.96 244.15 301.778C244.821 299.62 245.179 297.331 247.379 295.799C246.722 298.656 246.067 301.514 245.334 304.704C246.403 304.742 247.584 305.05 247.773 304.75C249.453 302.068 250.957 299.276 252.513 296.517C252.687 296.517 252.859 296.515 253.035 296.512C252.589 299.114 252.142 301.716 251.675 304.439C257.96 305.216 256.625 299.307 259.987 296.677C259.539 299.296 259.234 301.07 258.871 303.186C260.951 302.695 262.689 302.286 264.519 301.857C265.882 303.806 265.315 304.968 263.443 305.362C258.632 306.375 253.828 307.586 248.928 308.018C245.436 308.328 241.737 307.827 238.238 307.095C234.809 306.377 231.385 306.594 227.918 305.967C214.079 303.458 200.351 300.144 186.268 299.163C173.026 298.24 161.453 301.02 152.057 310.078C151.406 310.704 150.658 311.232 149.984 311.837C145.108 316.222 140.244 320.614 135.515 324.879C140.668 324.717 145.756 324.022 150.769 324.508C163.342 325.734 175.886 327.479 188.437 329.048C194.791 329.842 201.156 331.29 207.494 331.406C218.784 331.616 229.106 328.167 238.712 322.834C239.415 322.443 240.219 322.22 240.977 321.92C241.074 323.288 240.742 324.288 240.031 324.715C235.118 327.664 230.504 331.08 224.531 332.216C218.159 333.426 211.872 335.122 205.251 334.458C199.822 333.913 194.422 332.951 189.004 332.231C178.472 330.832 167.931 329.527 157.406 328.079C147.464 326.713 137.865 326.932 128.881 331.545C126.431 332.802 125.198 334.331 124.852 336.97C124.167 342.19 125.719 346.734 129.265 350.758C129.414 350.925 130.084 350.666 130.707 350.581C130.276 347.804 129.709 345.128 129.476 342.437C129.007 336.989 129.204 336.022 130.735 334.481C131.053 337.158 131.169 339.56 131.661 341.9C132.217 344.556 132.904 347.23 133.915 349.763C134.738 351.825 136.378 352.422 138.26 350.924C137.619 346.122 135.774 341.526 137.115 336.755C137.769 337.636 138.091 338.561 138.312 339.51C139.009 342.486 139.432 345.535 140.404 348.431C141.647 352.127 142.801 352.532 147.447 351.574C145.026 347.578 143.224 343.471 144.818 338.846C145.518 339.634 145.98 340.495 146.145 341.401C146.79 344.935 148.238 348.094 150.593 350.929C151.618 352.161 152.55 352.286 153.293 351.678C153.053 346.077 152.829 340.835 152.603 335.588C152.977 335.569 153.348 335.548 153.72 335.531C153.961 336.968 154.259 338.402 154.427 339.845C154.71 342.26 154.692 344.721 155.202 347.092C156.077 351.154 158.737 352.464 162.604 351.029C161.137 345.359 160.759 340.777 161.695 337.569C162.078 338.865 162.39 339.686 162.552 340.53C162.959 342.622 163.165 344.75 163.689 346.816C164.54 350.193 166.148 351.38 169.404 351.252C168.956 347.768 168.508 344.287 168.06 340.803C171.702 343.635 169.71 348.274 172.986 351.704C173.601 348.117 172.092 344.779 174.05 341.15C174.692 345.073 175.194 348.163 175.773 351.71C178.027 351.382 179.749 351.128 181.531 350.866C179.475 344.489 179.444 343.612 181.213 340.621C182.117 343.989 181.858 347.583 185.067 350.355C185.873 347.042 183.707 343.878 185.49 339.93C186.49 343.715 187.235 346.539 187.953 349.249C192.446 349.486 192.91 349.019 192.411 345.591C192.219 344.27 190.988 342.927 192.339 340.993C193.489 343.561 194.433 345.669 195.645 348.379C196.972 345.834 197.947 343.971 199.107 341.748C200.569 343.635 201.574 344.927 202.434 346.037C207.226 344.674 211.652 343.403 216.087 342.164C226.52 339.246 236.341 335.128 245.274 329.188C252.756 324.213 259.465 318.372 265.934 312.26C270.862 307.603 275.935 303.056 280.471 298.051C288.142 289.589 295.138 280.53 303.028 272.275C306.699 268.434 306.917 264.876 305.023 260.428C304.539 259.294 304.03 258.167 303.594 257.018C302.773 254.851 302.001 252.666 301.209 250.492C305.449 254.51 306.218 260.063 309.396 264.712C310.06 263.709 310.666 262.588 310.371 261.733C309.315 258.696 307.908 255.764 306.743 252.756C306.488 252.095 306.677 251.283 306.647 249.759C310.163 253.419 310.418 257.671 312.704 260.942C314.728 260.629 315.41 259.642 314.581 257.761C313.258 254.751 311.955 251.738 310.642 248.722C310.946 248.578 311.249 248.434 311.554 248.288C313.426 251.321 315.295 254.352 317.515 257.945C320.76 253.399 315.745 250.285 315.621 246.104C319.181 248.299 319.049 252.12 321.737 254.709C324.2 251.216 320.3 248.774 320.435 245.593C323.157 246.721 323.172 249.695 325.318 251.588C325.452 250.621 325.543 250.097 325.635 249.572ZM205.026 235.708L205.106 235.653C203.855 236.734 202.528 237.748 201.387 238.927C200.804 239.528 200.279 240.396 200.199 241.206C199.718 246.14 199.373 251.09 198.975 256.038C198.916 256.784 198.804 257.525 198.717 258.268C195.562 253.383 199.214 248.504 197.886 242.83C192.219 248.49 195.816 255.205 194.605 261.917C192.139 258.26 192.607 254.992 192.118 251.268C188.756 256.747 190.851 262.338 190.28 267.801C188.806 266.905 187.988 266.409 186.404 265.446C186.82 268.719 187.137 271.187 187.493 273.972C188.357 273.571 188.941 273.395 189.41 273.07C197.071 267.785 205.487 263.883 214.243 260.526C219.63 258.459 225.406 257.039 229.684 252.864C230.488 252.077 231.844 251.666 233.031 251.442C239.671 250.194 244.388 246.37 248.043 241.184C254.157 232.511 262.442 226.26 271.833 221.328C275.169 219.575 278.918 218.52 282.524 217.255C284.056 216.717 285.574 216.77 286.61 219.188C285.427 219.602 284.363 219.942 283.327 220.338C279.912 221.651 276.427 222.825 273.113 224.342C260.419 230.147 252.663 241.046 243.566 251.429C246.827 250.63 249.472 249.816 252.197 249.344C267.102 246.747 282.008 244.141 296.951 241.724C306.967 240.103 316.932 238.295 327.333 239.021C331.128 239.287 333.636 239.917 334.904 243.569C335.083 244.081 335.638 244.48 336.11 245.045C339.264 244.018 342.274 243.035 346.084 241.792C341.899 239.216 338.052 238.226 334.121 237.399C322.502 234.952 312.323 229.745 303.354 221.901C300.094 219.05 296.395 216.25 292.415 214.685C282.962 210.97 273.48 207.317 263.102 206.649C250.307 205.825 237.566 205.326 224.923 206.854C218.331 207.651 211.826 208.985 205.305 210.168C194.339 212.161 183.691 215.286 173.487 219.344C158.153 225.441 144.835 234.651 132.987 245.783C131.016 247.633 129.474 249.949 127.378 251.629C120.082 257.477 115.376 264.955 112.354 273.64C109.29 282.446 106.378 291.279 106.169 300.785C105.977 309.523 105.657 318.263 105.824 327.01C105.886 330.156 106.022 333.564 107.901 336.658C115.172 330.134 122.339 323.919 129.201 317.396C130.823 315.855 131.784 313.394 132.397 311.167C133.624 306.717 132.858 302.228 130.667 297.605C133.228 297.096 133.597 295.401 133.651 293.405C133.802 288.023 134.002 282.646 134.306 277.278C134.439 274.875 134.596 272.428 135.197 270.128C137.183 262.519 140.353 255.571 145.481 249.378C152.411 241.005 160.337 234.055 170.59 229.762C171.27 229.476 172.089 229.487 172.846 229.357C172.95 229.584 173.051 229.809 173.155 230.035C171.663 231.242 170.169 232.444 168.721 233.617C170.291 241.905 170.263 243.036 168.188 246.279C168.14 243.838 168.052 241.755 168.074 239.675C168.093 237.764 167.283 236.056 165.349 236.039C163.067 236.02 163.117 237.906 163.393 239.744C163.865 242.9 164.213 246.075 164.465 249.247C164.545 250.255 164.157 251.284 163.983 252.302C163.614 252.267 163.247 252.23 162.878 252.195C162.42 247.962 161.964 243.733 161.495 239.362C157.129 241.342 156.743 241.847 157.334 245.45C157.95 249.204 158.764 252.938 159.367 256.695C159.501 257.536 159.11 258.44 158.956 259.315C158.593 259.312 158.234 259.31 157.871 259.307C156.839 254.712 155.805 250.115 154.75 245.426C151.989 246.38 152.388 248.188 152.49 249.81C152.79 254.501 153.18 259.19 153.464 263.881C153.536 265.066 153.336 266.258 153.261 267.446C152.827 267.424 152.394 267.4 151.959 267.378C151.532 262.118 151.104 256.858 150.663 251.414C145.628 254.003 144.992 255.095 145.991 259.638C147.037 264.411 148.242 269.154 149.309 273.923C149.502 274.787 149.361 275.711 149.386 277.631C144.5 271.729 146.357 265.108 143.054 258.705C142.45 261.458 141.62 263.181 141.788 264.843C142.37 270.561 142.743 276.36 146.105 281.538C146.547 282.22 146.286 283.321 146.35 284.228C141.185 279.887 141.341 274.019 139.94 268.524C138.95 271.789 137.824 274.961 138.815 278.473C139.853 282.154 140.901 285.832 141.869 289.527C142.092 290.384 142.019 291.304 142.084 292.194C141.836 292.243 141.589 292.291 141.343 292.336C140.358 290.887 139.373 289.438 138.204 287.714C137.504 291.68 137.603 293.896 139.657 295.699C141.476 297.298 141.227 298.632 140.828 300.723C139.496 299.884 138.525 299.272 137.05 298.343C136.955 302.792 136.87 306.711 136.778 311.134C139.064 309.213 141.306 307.479 143.369 305.566C150.901 298.593 158.615 291.79 167.475 286.434C176.651 280.886 181.506 272.769 183.853 262.682C185.747 254.544 189.097 246.94 194.995 240.882C199.604 236.152 204.646 231.79 209.766 227.568C218.979 219.969 229.642 214.86 241.441 211.905C242.633 211.605 243.963 211.766 245.227 211.712C244.855 212.937 244.293 213.496 243.664 213.556C239.104 214.001 237.575 216.774 237.312 220.861C237.188 222.812 236.449 224.702 235.986 226.618C233.156 223.071 237.665 219.938 235.483 216.511C232.181 217.902 232.161 217.899 231.699 220.465C231.138 223.579 230.627 226.704 230.072 229.822C229.862 231.005 229.438 232.024 227.725 232.062C227.121 227.684 231.495 224.026 228.997 219.502C224.909 221.477 224.982 221.493 224.216 225.07C223.4 228.884 222.477 232.676 221.471 236.44C221.309 237.046 220.472 237.458 219.416 238.464C219.741 233.178 223.003 229.271 222.164 224.377C217.561 225.594 217.534 225.588 217.175 228.957C216.789 232.553 216.525 236.165 216.064 239.749C215.936 240.747 215.294 241.662 214.887 242.618C212.673 240.142 214.158 238.116 214.382 236.018C214.632 233.685 215.915 231.419 214.663 228.767C212.589 229.137 211.399 229.799 211.409 232.203C211.427 237.025 211.089 241.837 210.814 246.645C210.78 247.216 210.208 247.738 209.458 248.995C207.561 243.008 210.351 237.997 209.377 232.364C207.61 233.718 206.318 234.712 205.026 235.708ZM-6.19774 137.674C-7.37278 135.845 -8.73395 134.251 -11.56 133.612C-11.6207 135.974 -11.6764 138.047 -11.7234 140.118C-11.7725 142.251 -11.2944 144.524 -13.4454 146.181C-13.9472 145.09 -14.0833 144.032 -14.0239 142.992C-13.2449 129.55 -13.8334 128.235 -25.0333 119.554C-29.1215 116.386 -33.4104 113.46 -37.3859 110.165C-44.5666 104.217 -51.5782 98.0744 -58.2153 92.3948C-60.9469 97.7968 -63.3836 103.958 -66.9497 109.394C-74.8195 121.391 -80.5776 134.388 -86.1359 147.504C-87.9451 151.768 -89.4249 156.189 -90.8064 160.62C-93.3654 168.817 -93.692 177.484 -95.1444 185.916C-95.3976 187.382 -95.3753 188.935 -95.2421 190.438C-94.3873 200.108 -93.7858 209.808 -92.4809 219.44C-90.9038 231.099 -87.7224 242.458 -82.4167 253.233C-77.9634 262.274 -72.454 270.735 -66.0487 278.607C-58.6346 287.722 -50.0348 295.648 -40.256 302.413C-32.3924 307.857 -24.7532 313.641 -17.2399 319.549C-6.38233 328.084 4.82987 336.037 16.7121 343.182C27.7732 349.829 39.8531 354.87 49.8996 363.759C46.5499 353.31 47.8097 342.672 44.8031 333.18C39.8138 332.954 35.2477 333.315 30.8954 332.44C21.0799 330.473 11.34 328.011 1.62728 325.504C-1.67705 324.65 -4.85338 323.164 -8.00219 321.762C-9.96857 320.886 -12.1162 319.949 -13.5668 318.473C-16.9515 315.024 -20 311.256 -23.0962 307.545C-23.5794 306.967 -23.5921 306.025 -23.8226 305.249C-18.4561 309.09 -15.6246 315.271 -9.41408 317.924C-10.7936 315.839 -12.5622 314.067 -13.9422 312.049C-15.3133 310.042 -17.8733 308.556 -17.0013 305.203C-16.01 306.244 -15.0187 307.285 -14.026 308.324C-10.2589 312.279 -6.57434 316.309 -2.68118 320.14C-1.41128 321.386 0.151923 322.728 2.51625 322.644C0.197634 319.796 -2.20229 317.452 -3.81099 314.69C-5.32503 312.094 -9.17773 310.725 -8.69887 306.176C-1.86322 311.889 1.21839 320.413 10.3037 324.282C6.16773 318.322 1.80975 313.642 -0.826056 307.829C6.26619 313.637 9.92312 322.93 19.9258 326.815C16.7215 322.16 12.2203 319.271 11.6899 313.98C12.8617 314.695 13.7156 315.663 14.565 316.633C16.7111 319.089 18.6979 321.705 21.0424 323.968C24.9211 327.71 28.4098 329.181 32.3898 329.207C29.8491 326.76 27.0905 324.582 24.9813 321.928C23.0022 319.443 19.981 317.387 20.0182 313.606C25.8164 319.321 30.6654 326.029 39.4453 329.886C35.2318 324.056 29.7346 320.422 27.5906 314.409C30.3814 316.582 32.615 319.217 35.037 321.679C37.5275 324.21 39.3127 327.657 43.9223 328.785C42.0923 319.823 38.4756 311.996 35.6471 303.97C34.2288 303.69 33.0034 303.242 31.7912 303.237C22.257 303.198 12.8633 302.15 3.58541 299.458C-8.44431 295.967 -20.7032 293.221 -32.5751 289.25C-45.7367 284.848 -56.6285 277.033 -63.8242 264.953C-64.204 264.317 -64.3464 263.55 -64.6024 262.846C-64.397 262.734 -64.19 262.627 -63.9817 262.516C-62.9742 263.452 -61.9681 264.391 -60.5892 265.672C-61.1242 261.569 -64.5777 258.783 -63.4848 254.503C-60.4922 259.898 -57.8922 264.902 -54.9862 269.742C-52.0518 274.629 -48.3255 278.811 -42.0835 281.087C-44.6937 276.521 -46.9535 272.486 -49.2963 268.491C-54.7134 259.255 -55.07 258.486 -54.6616 255.578C-53.8141 256.617 -53.0062 257.339 -52.5394 258.221C-50.3713 262.318 -48.5076 266.577 -46.1225 270.554C-43.9896 274.106 -41.4933 277.505 -38.8105 280.698C-37.4595 282.304 -35.3344 283.308 -32.9844 284.995C-34.8058 282.133 -36.3653 279.758 -37.8446 277.342C-39.3825 274.83 -41.0563 272.358 -42.2804 269.71C-43.42 267.246 -46.0809 265.242 -45.5629 261.861C-42.7706 262.5 -42.3805 264.669 -41.6563 266.362C-38.5247 273.687 -33.7166 279.978 -28.6608 286.138C-27.4971 287.558 -26.1927 288.311 -24.1345 287.615C-26.6924 283.451 -29.1136 279.522 -31.5188 275.585C-37.3313 266.074 -37.327 266.072 -36.7459 263.234C-35.6499 264.97 -34.7141 266.362 -33.87 267.804C-31.7597 271.415 -29.7179 275.066 -27.5989 278.674C-24.5129 283.921 -20.7159 288.455 -14.2536 290.633C-15.7851 288.262 -17.2403 286.113 -18.5863 283.903C-20.0359 281.517 -21.5572 279.147 -22.7194 276.633C-23.7273 274.46 -26.2277 272.717 -25.4958 268.981C-24.549 270.205 -24.0741 270.712 -23.7274 271.288C-21.0209 275.811 -18.3042 280.328 -15.6632 284.886C-13.0959 289.317 -8.903 291.648 -4.06124 293.455C-4.61858 291.946 -5.8544 290.94 -6.70465 289.694C-10.297 284.442 -13.8051 279.133 -17.2607 273.794C-17.6922 273.129 -17.62 272.166 -17.7808 271.34C-17.2818 271.125 -16.7843 270.913 -16.2883 270.697C-15.8038 271.807 -15.4576 273 -14.8042 274.012C-11.9506 278.45 -9.26116 283.014 -6.01794 287.182C-3.76174 290.08 -0.780011 292.478 2.01926 294.95C3.19984 295.992 4.71309 296.78 6.5881 296.211C4.90014 293.994 3.25919 292.109 1.93706 290.035C0.521997 287.815 -0.48389 285.359 -1.86551 283.117C-4.45772 278.911 -4.47223 278.925 -3.6753 276.532C-1.73989 280.019 0.0088814 283.266 1.84944 286.464C4.45617 290.986 7.88654 294.778 12.6277 297.288C14.9391 298.51 17.3466 299.447 20.189 298.581C17.4886 295.167 14.6899 292.195 12.5961 288.823C10.5637 285.549 7.67274 282.584 7.32028 278.415C8.2713 278.861 9.03228 279.471 9.45211 280.247C13.1633 287.133 17.5727 293.455 24.2927 297.989C25.3974 298.734 26.3584 300.033 28.0171 298.981C26.0847 296.155 23.9928 293.475 22.3426 290.568C20.7734 287.802 17.7067 285.63 17.8051 281.055C23.5277 287.256 25.5242 295.289 32.9696 298.987C32.8664 297.205 32.3453 295.661 31.7847 294.129C29.512 287.93 27.2086 281.74 24.9593 275.532C23.4933 271.485 22.1865 267.388 20.6533 263.365C19.3635 259.982 17.958 259.244 14.2277 259.451C13.3494 259.498 12.4148 259.503 11.5722 259.267C8.73678 258.471 5.94992 257.469 3.10609 256.704C-6.87912 254.008 -17.0246 251.834 -26.8295 248.578C-34.5355 246.017 -41.9492 242.389 -49.283 238.809C-58.8117 234.158 -67.3897 228.08 -74.6675 220.367C-78.8742 215.909 -81.0435 210.531 -82.2085 204.748C-82.5734 202.933 -82.0228 201.862 -79.9215 201.864C-79.9708 209.112 -76.5288 216.06 -71.2236 219.597C-76.5942 207.485 -76.5942 207.485 -75.1429 204.975C-73.0471 210.79 -71.1819 216.474 -66.7105 220.857C-67.249 218.132 -68.2588 215.603 -69.1444 213.035C-69.9919 210.574 -71.8074 208.147 -69.8011 204.681C-67.2391 208.061 -68.3352 211.776 -66.658 214.717C-64.8216 217.938 -63.6335 221.499 -61.72 224.671C-59.9295 227.638 -57.8461 230.555 -53.7997 232.801C-54.7214 230.824 -55.2499 229.603 -55.8529 228.411C-58.1519 223.861 -60.5091 219.337 -62.7468 214.762C-63.13 213.979 -63.0201 212.986 -63.2733 211.075C-60.1403 213.702 -59.4554 216.395 -58.2215 218.789C-55.6073 223.861 -52.9917 228.937 -50.1984 233.918C-49.0331 236.001 -47.1467 237.153 -44.1146 236.528C-45.7429 233.622 -47.1907 231.261 -48.4124 228.799C-49.5707 226.468 -51.9483 224.578 -51.8338 220.543C-50.5452 222.082 -49.8099 222.757 -49.3294 223.567C-47.1958 227.169 -45.269 230.885 -42.9971 234.405C-41.6678 236.465 -39.9998 238.398 -38.1754 240.068C-36.4268 241.667 -34.2801 242.854 -31.2216 242.888C-32.8494 240.238 -34.1423 238.157 -35.4089 236.062C-36.6126 234.07 -37.8935 232.112 -38.9426 230.049C-39.9494 228.072 -42.4625 226.581 -41.4785 222.714C-39.7866 225.333 -38.6595 227.088 -37.5193 228.839C-34.4806 233.513 -31.5132 238.232 -28.3623 242.839C-26.873 245.015 -24.7726 246.477 -21.4126 246.561C-24.3413 241.443 -28.8657 237.597 -29.4413 231.89C-28.6484 232.04 -28.0956 232.335 -27.7961 232.784C-24.957 237.017 -22.2401 241.329 -19.3297 245.516C-16.4553 249.649 -12.0354 249.987 -6.71226 250.595C-11.2972 245.08 -15.1341 240.193 -17.3569 234.321C-15.1853 235.84 -14.0683 238.157 -12.4373 240.061C-9.21119 243.831 -5.79615 247.462 -2.29867 251.004C-0.8646 252.454 1.06917 253.197 4.0449 252.64C1.96029 250.172 -0.0351646 248.225 -1.49047 245.959C-2.84682 243.85 -5.8677 242.468 -5.34276 238.399C-3.80125 240.202 -2.80423 241.341 -1.83331 242.504C0.464994 245.26 2.80546 247.985 5.02237 250.8C7.77523 254.294 11.3114 255.474 16.1372 255.004C14.9532 253.266 14.0757 251.846 13.0702 250.518C5.80562 240.947 -2.13378 231.939 -11.0784 223.799C-12.8804 222.159 -15.0054 220.511 -17.2651 219.751C-27.8872 216.18 -36.7567 209.702 -45.7082 203.348C-48.7764 201.172 -51.824 198.897 -54.5539 196.34C-63.7143 187.761 -71.9922 178.46 -79.0396 168.132C-80.3553 166.206 -81.2653 164.441 -81.0653 162.295C-80.7434 158.84 -80.2436 155.407 -79.763 151.976C-79.5341 150.338 -78.971 148.883 -77.3007 148.482C-77.7683 152.994 -78.1932 157.415 -78.69 161.823C-78.9694 164.294 -77.8844 165.971 -75.2654 167.692C-75.294 165.455 -75.3644 163.821 -75.3262 162.193C-75.2614 159.479 -75.2334 156.757 -74.9452 154.071C-74.8656 153.336 -73.9142 152.719 -73.0985 151.726C-73.0887 157.802 -73.0194 163.182 -73.0997 168.556C-73.1398 171.361 -72.1166 173.46 -69.075 175.293C-69.1553 172.704 -69.1159 170.612 -69.3097 168.532C-69.7331 163.997 -70.3252 159.473 -70.7295 154.937C-70.7881 154.29 -70.197 153.608 -69.572 152.185C-69.0027 153.927 -68.5483 154.767 -68.4707 155.625C-67.8839 162.277 -67.3101 168.933 -66.8553 175.589C-66.6711 178.266 -65.8992 180.561 -63.3527 182.681C-64.0241 174.98 -67.777 167.824 -65.4784 159.906C-64.791 160.719 -64.483 160.925 -64.4402 161.163C-64.2799 162.063 -64.1047 162.977 -64.1116 163.878C-64.1583 170.776 -62.4972 177.434 -60.4757 184.055C-59.604 186.9 -58.0306 189.108 -54.8629 190.934C-56.6607 183.161 -59.3462 176.164 -59.7071 168.744C-57.5102 169.855 -57.715 171.87 -57.2255 173.674C-55.5817 179.707 -53.945 185.747 -51.9707 191.692C-51.1371 194.209 -49.4428 196.465 -46.2339 198.51C-47.8254 192.557 -50.7935 187.788 -50.3816 182.294C-47.1399 188.86 -46.0159 196.278 -40.4827 201.929C-41.159 198.999 -41.8338 196.066 -42.5056 193.135C-42.1025 192.999 -41.6977 192.867 -41.2945 192.732C-40.6039 193.787 -39.8213 194.801 -39.2372 195.905C-37.861 198.502 -36.5535 201.132 -35.2678 203.769C-32.4777 209.49 -27.294 212.058 -20.739 214.58C-21.9432 213.087 -22.4943 212.379 -23.0684 211.695C-27.3856 206.56 -32.2456 201.757 -35.9252 196.237C-44.2145 183.794 -50.7018 170.486 -55.6617 156.502C-59.2062 146.511 -60.8191 136.453 -60.058 126.051C-59.7281 121.554 -60.124 116.987 -60.0029 112.463C-59.9518 110.589 -59.4116 108.747 -59.1203 107.059C-57.0791 106.623 -56.3071 107.401 -56.2213 108.872C-56.0565 111.742 -55.6299 114.659 -55.9075 117.477C-56.9522 128.072 -55.2823 138.332 -51.1334 148.311C-48.5933 154.422 -45.8488 160.46 -43.1657 166.517C-41.61 170.028 -40.1869 173.609 -38.3615 176.991C-34.4323 184.267 -28.6812 190.302 -23.2097 196.486C-21.0045 198.979 -18.3058 201.063 -15.832 203.335C-15.5448 203.091 -15.2589 202.849 -14.9687 202.607C-18.6054 198.534 -23.2397 195.131 -25.8462 189.532C-24.4519 190.1 -23.8263 190.354 -22.6562 190.83C-23.9729 189.163 -25.052 188.031 -25.8471 186.742C-27.5721 183.946 -31.0334 181.461 -28.0941 177.65C-27.833 177.311 -28.4913 176.257 -28.765 175.552C-29.0658 174.782 -29.4164 174.031 -29.7466 173.268C-29.5761 173.173 -29.4101 173.08 -29.2397 172.986C-26.928 175.87 -24.6176 178.757 -22.3028 181.642C-21.7233 178.58 -22.9239 176.376 -24.7397 174.368C-26.2024 172.747 -27.6902 171.124 -28.9641 169.365C-29.9823 167.96 -31.1735 166.455 -30.3777 163.978C-28.246 167.004 -27.2483 170.377 -23.4076 172.048C-23.5078 167.652 -23.7864 164.07 -27.4637 161.337C-29.1831 160.061 -30.9116 158.43 -30.5995 155.668C-28.8092 157.419 -27.0203 159.173 -25.0263 161.123C-23.3612 157.165 -24.5937 154.556 -27.5881 152.3C-29.0528 151.196 -31.2019 150.255 -30.3209 147.353C-28.2304 149.164 -26.4087 150.743 -24.5068 152.392C-22.7085 148.955 -24.5545 146.881 -26.6814 144.863C-27.8096 143.792 -29.7427 143.201 -29.4404 140.803C-26.2353 141.478 -24.9249 146.183 -20.785 143.806C-22.0758 158.249 -20.3515 171.904 -17.0111 185.484C-14.9188 193.988 -12.2764 202.249 -7.03281 209.608C-6.54073 210.3 -6.08779 211.356 -6.25852 212.081C-6.65414 213.762 -5.52772 214.485 -4.61668 215.56C2.33023 223.765 9.19724 232.031 16.0875 240.281C17.4999 241.972 18.9079 243.664 20.6947 245.81C20.9138 244.536 21.207 243.972 21.0272 243.696C19.0112 240.654 16.7957 237.727 14.8889 234.623C12.8442 231.3 12.9636 231.233 14.2039 226.677C16.5547 229.403 17.6713 233.106 21.653 235.231C22.053 228.633 16.2388 224.679 14.9948 218.487C18.1124 221.057 18.936 224.582 22.1976 226.729C22.0859 220.605 16.9268 216.801 16.4975 211.289C18.3612 213.914 20.2278 216.54 22.4908 219.725C23.5027 216.733 22.381 215.048 21.3166 213.367C20.2311 211.654 18.9442 210.017 18.6673 207.208C20.5498 209.268 21.8589 210.701 23.4077 212.393C25.7917 206.351 19.3145 203.616 18.2954 198.102C20.8198 200.757 22.6551 202.691 24.6497 204.794C26.6555 200.852 21.8064 199.156 22.3884 195.62C23.8288 196.889 25.042 197.954 26.331 199.089C29.7464 194.456 24.5414 191.718 24.1159 187.788C25.6469 189.244 27.1779 190.701 28.859 192.301C30.7875 188.938 25.9769 187.487 26.9685 184.623C30.431 187.523 30.4309 187.523 34.0934 187.18C33.8424 189.25 34.2597 191.694 33.2361 193.156C29.8339 198.013 28.8153 203.677 27.9285 209.206C26.4039 218.704 25.6282 228.351 24.8198 237.968C24.2351 244.908 24.3991 251.867 27.4195 258.562C30.9057 266.288 34.3335 274.04 37.8008 281.773C38.0474 282.327 38.5745 283.332 38.6885 283.297C41.615 282.456 40.9682 285.322 42.0298 286.356C42.4373 286.754 42.4765 287.49 42.7553 288.039C42.9588 288.436 43.2775 288.782 43.545 289.148C42.8671 282.925 38.7919 277.672 38.7084 271.456C41.2011 275.25 41.888 279.845 45.0337 283.421C46.6122 281.641 46.1779 280.117 45.3259 278.515C43.363 274.84 41.4263 271.151 39.5509 267.435C39.2208 266.782 39.2495 265.971 39.1119 265.232C39.4185 265.118 39.7266 265.001 40.0361 264.889C41.2376 266.937 42.4463 268.978 43.6419 271.03C46.1339 275.317 46.1325 275.32 48.08 276.211C46.5667 273.342 45.0881 270.654 43.7189 267.918C40.8856 262.261 40.912 262.253 41.7785 259.364C43.8458 264.144 45.4951 268.73 48.8535 272.51C52.217 268.492 52.2466 268.067 49.4805 264.248C47.3873 261.358 45.3204 258.46 44.7113 254.738C47.2619 257.92 49.811 261.105 52.9243 264.994C54.6205 260.623 51.7456 258.528 50.3482 256.097C48.8653 253.52 47.2001 251.038 45.6152 248.515C45.8844 248.351 46.1567 248.187 46.4273 248.02C50.2174 250.626 51.0383 255.798 55.0547 258.317C56.8588 256.29 56.5028 254.589 55.1192 252.746C52.9661 249.879 50.9047 246.948 48.8986 243.989C48.5198 243.432 48.5676 242.612 48.4173 241.912C48.5971 241.865 48.7785 241.823 48.9583 241.776C51.519 244.945 54.0767 248.113 56.8568 251.561C58.478 247.719 58.4882 247.713 56.761 245.193C54.5623 241.991 52.1042 238.919 50.6139 234.811C54.6754 236.647 54.645 241.483 58.6524 242.899C59.918 240.219 59.5541 238.146 57.4634 236.101C54.9297 233.625 52.6118 230.944 50.2013 228.35C50.4487 228.089 50.7005 227.827 50.9479 227.566C53.7188 229.999 56.4911 232.429 59.8767 235.4C59.8473 233.428 60.2509 232.127 59.7455 231.424C57.2824 227.989 54.5751 224.713 51.9535 221.377C52.1137 221.179 52.2739 220.98 52.4371 220.783C54.7816 222.716 57.1261 224.649 59.5774 226.671C60.5918 223.425 59.732 221.253 57.0675 219.636C56.2774 219.157 55.6366 218.421 54.9834 217.753C54.8986 217.664 55.1413 217.274 55.3084 216.82C56.4911 217.256 57.6753 217.697 59.1176 218.23C59.0623 216.295 59.0211 214.874 58.9786 213.456C60.3339 213.963 61.2387 214.677 61.3891 215.494C62.055 219.074 62.5261 222.68 63.0176 226.282C63.3171 228.475 63.9713 230.746 63.6945 232.859C62.8974 238.952 61.9402 245.037 60.606 251.016C59.5306 255.833 58.0183 260.567 56.3255 265.195C54.6765 269.7 52.3992 273.964 50.6677 278.441C46.2829 289.778 43.7357 301.153 47.5601 313.728C51.2049 325.719 53.4926 338.057 56.3491 350.248C56.8239 352.272 57.161 354.317 57.5656 356.362C59.1969 348.251 60.7854 340.334 62.3768 332.419C61.636 334.297 61.0291 336.307 60.0734 338.134C59.112 339.971 59.9174 342.683 56.7689 344.248C56.8552 342.591 56.7253 341.447 57.0066 340.431C57.8419 337.399 58.8392 334.414 59.7688 331.408C60.6646 329.715 61.5589 328.017 62.4547 326.324C62.2923 326.248 62.1299 326.173 61.9689 326.095C61.2534 327.887 60.535 329.678 59.8195 331.47C58.2162 331.291 57.5475 330.346 57.9924 328.948C58.4444 327.529 59.1542 326.188 59.8156 324.847C61.9981 320.411 64.2176 315.99 66.412 311.559C67.9891 308.368 68.8091 304.854 71.2951 302.031C72.3805 300.799 72.2535 298.551 72.6814 296.762C72.3186 296.628 71.9544 296.497 71.5916 296.362C67.1254 305.141 62.6622 313.922 57.7829 323.515C56.1717 318.598 59.3554 316.048 60.4201 312.724C58.4166 311.599 58.1937 310.192 59.3074 308.223C61.737 303.929 63.9713 299.523 66.188 295.114C68.0016 291.508 69.7428 287.862 71.3896 284.174C72.8966 280.792 73.8996 277.136 75.7707 273.981C76.8598 272.148 77.2335 270.693 76.4596 268.029C72.5215 276.352 70.1033 284.653 65.4517 292.735C64.1341 290.132 65.1772 288.8 65.792 287.382C67.8219 282.72 69.8458 278.054 71.8269 273.37C72.8737 270.896 73.1517 267.666 74.9744 266.049C77.605 263.718 77.0429 261.42 76.5623 258.529C74.9276 262.127 73.6087 265.644 71.7798 268.877C69.9652 272.09 69.2782 276.111 65.045 278.856C65.3021 277.352 65.1911 276.516 65.5635 276.06C70.9843 269.413 72.4925 260.878 76.423 253.515C76.7451 252.909 76.6674 252.044 76.6266 251.303C76.1205 242.36 75.1809 233.488 72.4824 224.758C67.5531 208.795 58.0286 196.055 43.3954 187.303C37.4783 183.764 32.5321 179.431 27.7134 174.758C25.7464 172.85 23.652 171.069 20.8073 168.496C20.6423 172.484 20.3622 175.447 20.4256 178.414C20.5807 185.478 20.6336 185.483 18.6768 187.064C18.6641 186.122 18.6384 185.411 18.6479 184.696C18.7194 179.104 18.7499 173.513 18.8979 167.924C18.9499 165.902 18.3946 164.543 16.1914 164.061C15.7898 170.64 15.3357 176.928 15.0432 183.226C14.7472 189.59 14.6099 195.964 14.4035 202.334C13.8487 202.322 13.2938 202.31 12.739 202.298C12.3871 197.52 12.9757 192.725 13.0156 187.943C13.0565 183.123 13.25 178.309 13.1778 173.484C13.1041 168.655 12.7853 163.819 12.5751 158.988C12.2655 158.99 11.9588 158.994 11.6507 158.994C10.8018 172.258 9.95434 185.519 9.10545 198.783C7.89249 198.172 7.14752 197.333 7.18406 196.558C7.42277 191.281 7.83034 186.016 8.17331 180.746C8.61651 173.982 9.21243 167.224 9.41039 160.445C9.49811 157.474 8.90639 154.391 5.63172 151.487C5.59187 157.91 5.94778 163.538 5.41285 169.047C4.87804 174.563 5.4359 180.255 4.05308 186.33C1.86913 184.439 2.19667 182.826 2.36877 181.219C3.4962 170.556 3.5839 159.834 3.03718 149.073C2.92509 146.847 2.32807 145.006 -0.776673 143.935C-0.390214 155.547 -0.307579 166.717 -1.94567 177.816C-2.74075 177.399 -3.34003 176.918 -3.33139 176.468C-3.07058 164.65 -2.74372 152.833 -2.42097 140.709C-3.62718 139.725 -4.94464 138.653 -6.26066 137.579L-6.19774 137.674ZM86.139 263.144C86.6269 263.09 87.1177 263.038 87.6086 262.985C88.5965 257.22 89.6902 251.473 90.5369 245.686C91.0341 242.288 90.8871 238.769 91.511 235.406C91.9816 232.866 90.1895 231.082 89.852 228.905C89.4375 226.228 89.4185 223.511 89.1578 220.816C88.5115 214.106 87.0844 207.609 82.8695 201.892C82.5108 201.405 82.3702 200.774 82.0913 200.225C75.7223 187.628 73.1359 174.143 70.8906 160.593C70.378 157.501 70.4367 154.338 70.1915 150.616C71.5889 151.296 72.3422 151.664 73.1147 152.038C77.5494 146.706 72.7175 142.36 71.3437 137.531C65.5386 139.712 68.6296 143.689 69.4245 147.155C65.8448 147.424 66.8295 143.833 64.9409 142.957C60.649 144.938 60.5232 145.076 61.329 149.348C61.8946 152.342 62.6564 155.309 63.2455 158.301C63.3966 159.065 63.2343 159.876 63.2171 160.665C59.7868 156.99 61.0025 152.021 58.4897 148.156C55.1151 150.365 54.9819 150.4 55.9372 153.454C57.1669 157.388 58.6438 161.259 59.9978 165.16C60.2421 165.865 60.3782 166.6 60.6123 167.311C61.6068 170.339 62.6408 173.354 63.6177 176.387C63.852 177.112 63.9093 177.886 64.05 178.634C63.6729 178.747 63.2958 178.861 62.9173 178.97C58.7577 171.262 57.2106 162.496 52.8255 154.595C51.2099 156.448 50.9356 158.095 51.9976 160.14C56.2653 168.368 60.4602 176.629 64.6418 184.895C64.9976 185.6 65.0704 186.431 65.273 187.203C64.9186 187.36 64.5685 187.516 64.214 187.673C60.8611 183.971 59.4503 179.119 57.0047 174.902C54.4014 170.417 52.1988 165.721 49.8108 161.097C46.8946 162.475 48.0969 164.265 48.7508 165.642C51.7258 171.907 54.8949 178.089 57.9092 184.334C58.5628 185.69 60.1981 186.934 58.8358 189.518C53.8329 182.051 50.562 174.407 46.7379 166.762C44.787 168.346 45.2664 169.84 45.9029 171.229C47.6915 175.152 49.5897 179.035 51.409 182.949C51.7461 183.676 51.9138 184.474 52.1603 185.24C51.8223 185.416 51.4842 185.592 51.1432 185.766C47.7628 182.528 47.2913 177.363 43.6407 174.218C44.134 178.821 44.895 183.254 49.0482 186.455C60.068 194.941 68.8307 204.935 73.9007 217.939C77.5406 227.274 79.0543 236.83 80.0924 246.483C80.753 252.616 83.92 257.667 86.139 263.144ZM86.2129 200.089C87.1191 198.075 87.8772 196.396 88.9616 193.994C89.8475 198.328 87.0696 201.704 89.3976 205.471C90.1772 203.97 90.7564 202.85 91.4674 201.485C93.2298 205.855 89.8875 209.934 92.7952 214.031C93.4796 211.34 94.1683 208.649 94.8556 205.96C95.1383 206.032 95.4196 206.108 95.7023 206.18C95.2844 210.894 94.8694 215.61 94.45 220.328C96.4978 211.212 97.9338 201.999 99.7039 192.859C100.721 187.616 100.983 182.344 99.9135 177.12C98.2958 169.219 96.3866 161.35 94.1733 153.569C91.6597 144.731 89.2463 135.923 88.6494 126.778C88.476 124.138 89.489 121.005 85.7854 119.268C85.0204 118.909 84.9647 117.055 84.5603 115.897C84.2428 114.985 83.8931 114.077 83.4378 112.843C81.1847 115.419 80.6047 117.793 81.7343 120.723C82.6694 123.15 83.2145 125.709 84.0798 128.728C79.8807 127.141 81.4427 123.152 79.1733 121.232C77.376 123.985 77.3482 123.989 77.8766 126.617C78.548 129.952 79.2662 133.276 79.9668 136.605C79.5924 136.698 79.2181 136.792 78.8451 136.883C77.9234 134.466 76.9987 132.048 75.9371 129.27C71.8468 133.916 74.5332 138.251 75.6759 142.584C76.8227 142.535 77.6132 142.5 78.6544 142.453C76.5089 148.553 74.6614 154.336 74.0607 160.414C74.3568 160.497 74.6544 160.584 74.9504 160.667C76.0591 157.235 77.1679 153.803 78.278 150.368C78.292 154.033 77.4473 157.457 77.1816 160.94C76.9234 164.329 73.8739 167.471 76.7622 171.878C78.2233 167.26 79.503 163.227 80.7797 159.192C80.9259 164.179 81.0022 169.091 78.0346 173.2C76.4961 175.333 77.2766 177.178 78.6674 179.446C80.0702 175.185 81.3107 171.405 82.5541 167.627C82.6887 171.962 82.2647 176.117 82.202 180.292C82.1376 184.456 80.1959 188.688 82.96 193.559C83.6735 190.965 84.201 189.053 84.7285 187.141C86.0251 191.353 83.2591 195.512 86.2129 200.089ZM-20.8034 465.889C-22.3464 465.401 -22.9117 465.154 -23.4956 465.052C-26.5298 464.531 -29.5843 464.145 -32.5994 463.52C-34.8714 463.048 -37.0584 462.028 -39.3328 461.701C-48.1455 460.429 -56.9697 459.283 -65.802 458.196C-72.963 457.315 -80.0825 456.902 -86.9748 459.308C-89.1729 460.076 -91.4137 460.51 -90.8689 464.578C-93.692 462.519 -95.5696 461.153 -97.7539 459.563C-98.8514 463.171 -99.9629 466.836 -101.192 470.88C-98.1047 473.962 -94.9871 477.191 -91.6899 480.242C-91.1892 480.705 -89.8678 480.325 -88.4941 480.342C-91.1683 476.583 -94.9238 474.37 -95.9626 470.126C-92.5094 473.315 -89.0577 476.508 -85.0519 480.205C-84.1009 480.212 -82.2366 480.272 -80.3809 480.224C-78.6251 480.175 -76.8737 480.01 -74.8123 479.879C-76.8237 474.673 -80.6682 471.625 -83.6468 467.822C-82.586 467.92 -81.448 468.086 -80.8628 468.72C-78.0155 471.815 -74.8982 474.802 -72.7249 478.304C-71.48 480.31 -70.3712 480.812 -67.6677 480.74C-70.5425 477.128 -73.1381 473.866 -75.7308 470.606C-74.3788 470.65 -73.4714 471.124 -72.831 471.832C-70.4195 474.49 -68.024 477.165 -65.7664 479.943C-64.2728 481.781 -62.6304 482.689 -59.6669 481.987C-62.4516 478.629 -64.9709 475.59 -67.4902 472.551C-61.2218 474.929 -59.2793 482.102 -52.3522 485.238C-54.239 479.795 -57.6278 476.266 -59.7908 472.114C-54.7068 474.688 -53.7172 480.517 -49.2441 484.156C-39.628 478.825 -29.9337 473.633 -20.8034 465.889ZM-54.9659 508.906C-50.1785 506.014 -50.299 503.16 -55.2873 498.207C-55.4395 498.236 -55.6068 498.236 -55.7394 498.3C-66.3218 503.361 -76.9908 508.197 -88.6539 510.804C-89.7468 511.047 -90.8344 512.335 -91.3702 513.414C-93.9247 518.561 -98.4649 521.508 -103.544 523.739C-105.327 524.522 -107.576 524.363 -109.607 524.634C-109.73 524.26 -109.851 523.883 -109.973 523.509C-107.221 522.19 -104.333 521.067 -101.747 519.497C-98.9665 517.809 -96.0759 516.057 -94.8936 512.743C-95.328 512.523 -95.6179 512.245 -95.8523 512.275C-103.813 513.264 -111.836 513.995 -119.709 515.39C-125.463 516.41 -130.793 515.338 -136.198 513.544C-137.893 512.982 -139.62 512.535 -141.335 512.034C-140.881 513.008 -140.231 513.388 -139.541 513.677C-134.911 515.607 -130.09 517.169 -125.667 519.493C-109.793 527.828 -92.9917 528.26 -75.9794 527.331C-75.5513 527.307 -75.1487 527.019 -74.629 526.814C-74.9274 525.359 -75.2162 523.958 -75.7188 521.505C-73.9045 523.18 -72.8897 524.117 -71.6179 525.286C-70.6162 522.732 -73.6399 520.49 -71.6783 517.954C-70.6784 519.638 -69.8676 521.006 -69.0554 522.371C-68.8426 522.267 -68.6312 522.165 -68.4183 522.06C-68.9445 519.816 -69.472 517.574 -69.9982 515.33C-69.6049 515.221 -69.2102 515.109 -68.817 515C-68.0352 516.828 -67.2534 518.656 -66.3384 520.793C-62.7119 518 -67.3283 514.621 -65.244 511.712C-64.2524 513.653 -63.3586 515.407 -62.1138 517.846C-59.0906 513.173 -63.7257 509.384 -62.2113 504.697C-60.7324 508.059 -59.6077 510.625 -58.0487 514.166C-55.4922 509.05 -59.6945 505.477 -58.7826 501.371C-57.5149 503.875 -56.2427 506.384 -54.9659 508.906ZM101.364 314.648C94.675 321.665 87.3892 328.21 82.9014 336.577C78.4536 344.866 75.7307 354.075 72.2509 362.879C77.9791 359.78 83.2309 356.507 88.1381 352.807C92.698 349.367 96.8268 345.4 101.276 341.819C103.471 340.054 103.675 337.835 103.424 335.341C102.748 328.601 102.082 321.863 101.364 314.648ZM234.611 257.903C234.524 257.664 234.435 257.421 234.349 257.182C229.902 258.677 225.369 259.983 221.028 261.709C213.514 264.696 205.989 267.7 198.723 271.178C193.797 273.539 189.299 276.703 184.63 279.538C172.43 286.947 160.356 294.509 150.072 304.403C147.147 307.219 143.787 309.598 140.768 312.328C131.16 321.012 121.636 329.782 112.034 338.47C111.072 339.343 109.804 339.901 108.687 340.618C107.828 341.168 106.959 341.709 106.14 342.314C104.446 343.567 102.852 344.953 101.095 346.118C97.2027 348.695 95.9032 349.939 94.8627 352.226C99.5106 350.305 104.517 348.232 109.86 346.026C109.958 345.678 109.952 344.474 110.559 343.782C113.529 340.401 116.448 336.93 119.782 333.907C128.829 325.713 138.304 317.957 147.188 309.608C156.814 300.557 168 293.565 179.293 286.833C190.742 280.004 202.931 274.301 214.809 268.128C221.397 264.696 228.011 261.308 234.611 257.903ZM62.706 363.03C63.1965 362.839 63.4062 362.828 63.4504 362.734C70.111 348.763 72.5579 333.753 73.2472 318.335C73.3049 317.057 72.3357 315.693 71.841 314.369C70.6648 315.289 70.2657 316.054 70.058 316.874C68.0635 324.712 66.1117 332.562 64.1232 340.403C62.264 347.718 61.1247 355.101 62.706 363.03ZM75.5344 302.249C74.1756 307.493 78.919 311.259 78.6218 316.439C77.392 315.45 76.6711 314.872 75.9486 314.29C77.9958 318.772 78.8169 323.204 77.8754 327.94C79.2587 324.743 80.5352 321.566 80.9441 318.254C81.8948 310.489 82.0984 302.6 83.261 294.879C83.9102 290.558 82.1419 287.496 80.0643 284.238C76.3488 289.478 82.172 294.103 80.5561 299.43C79.5991 297.881 78.642 296.333 77.253 294.083C76.0704 299.991 80.6558 304.229 80.7505 309.632C77.4186 308.042 77.6451 304.804 75.5344 302.249ZM84.835 316.896C83.3604 321.599 81.9271 326.316 80.3846 330.992C80.0787 331.925 79.5166 333.334 78.8127 333.476C74.7106 334.299 74.3248 337.478 73.8576 340.597C72.8305 347.48 70.8406 354.027 67.8948 360.306C66.3756 363.544 65.2049 366.951 63.9603 370.315C63.6855 371.054 63.7662 371.928 63.6847 372.741C64.7592 372.548 65.3656 372.136 65.5811 371.572C66.4216 369.365 67.0525 367.073 67.9151 364.874C69.7127 360.288 71.5766 355.726 73.476 351.181C76.3549 344.294 79.5023 337.516 82.1113 330.524C83.6989 326.257 85.2716 321.866 84.835 316.896ZM96.4365 234.82C90.9011 256.075 88.8543 277.928 86.6296 299.752C89.8956 278.109 93.1661 256.465 96.4365 234.82ZM98.8998 216.336C99.1658 216.361 99.4302 216.388 99.6962 216.413C100.658 210.809 101.554 205.188 102.597 199.6C104.83 187.637 107.221 175.704 109.365 163.724C110.031 160 110.113 156.154 110.463 152.365C110.273 152.344 110.081 152.32 109.891 152.299C106.226 173.644 102.565 194.99 98.8998 216.336ZM92.0209 304.123C88.2341 309.078 88.5475 312.306 93.4152 318.882C94.2625 317.292 95.8559 315.746 95.587 314.518C94.8362 311.061 93.3197 307.737 92.0209 304.123ZM122.115 336.808C118.02 339.279 116.965 341.463 118.146 345.046C119.056 347.8 120.948 349.014 123.703 348.965C123.176 344.927 122.645 340.862 122.115 336.808ZM96.8618 297.901C96.5539 297.806 96.2503 297.708 95.9423 297.612C95.2396 298.932 93.7519 300.372 93.9849 301.553C94.7015 305.195 95.5001 308.931 98.2526 313.049C98.8727 311.152 99.7296 309.945 99.5305 308.887C98.8382 305.198 97.7826 301.558 96.8618 297.901ZM83.7388 285.343C87.4214 279.619 83.0806 275.344 81.3088 269.842C79.4833 275.845 80.8656 280.533 83.7388 285.343ZM-105.024 476.298C-101.786 478.344 -99.3239 481.18 -94.2167 480.903C-97.3161 477.609 -99.6861 475.088 -102.445 472.155C-103.508 473.863 -104.173 474.933 -105.024 476.298ZM-95.5461 450.997C-96.2228 453.489 -96.7138 455.285 -97.1975 457.067C-95.8038 457.915 -94.6528 458.612 -93.2059 459.495C-92.0794 458.804 -90.9558 458.112 -89.5979 457.28C-90.9933 455.541 -91.9928 454.216 -93.0837 452.968C-93.5665 452.418 -94.2409 452.027 -95.5461 450.997ZM101.282 306.253C103.248 300.618 102.714 297.481 98.681 293.178C98.485 298.356 100.52 302.226 101.282 306.253ZM-101.198 481.676C-103.092 480.194 -104.627 478.994 -106.374 477.627C-107.417 478.562 -108.313 479.369 -109.631 480.554C-106.633 481.309 -104.619 483.564 -101.198 481.676ZM240.832 260.037C237.707 261.114 237.155 262.943 238.263 268.254C240.486 265.759 240.392 262.926 240.832 260.037ZM-19.8051 189.954C-21.6051 186.501 -23.226 182.943 -26.6356 180.59C-25.8267 184.651 -22.8776 187.355 -19.8051 189.954ZM93.9002 281.493C93.5382 281.526 93.1791 281.56 92.8171 281.593C93.022 285.159 93.3572 288.696 95.9205 291.956C96.4766 291.401 96.8972 291.143 96.8572 291.002C95.9003 287.827 94.8966 284.664 93.9002 281.493ZM75.7089 279.751C73.884 283.943 72.2428 287.715 70.6016 291.487C74.0713 288.49 76.266 284.953 75.7089 279.751ZM234.293 268.201C234.681 265.941 234.98 264.2 235.327 262.175C231.433 263.848 231.078 265.529 234.293 268.201ZM181.193 290.916C177.019 293.588 176.921 294.353 180.122 295.799C180.492 294.115 180.844 292.514 181.193 290.916ZM-49.542 500.531C-49.5031 498.946 -49.4628 497.357 -49.4141 495.415C-52.8154 497.061 -52.8154 497.061 -49.542 500.531ZM228.978 264.712C227.421 265.518 225.867 266.328 224.31 267.133C226.527 267.559 228.983 268.57 228.978 264.712ZM116.296 348.087C115.904 346.421 115.645 345.319 115.282 343.771C114.138 344.959 113.279 345.846 112.168 346.997C113.535 347.357 114.524 347.618 116.296 348.087ZM68.6954 296.939C68.3735 296.79 68.0515 296.641 67.7296 296.491C66.6392 298.994 65.5459 301.494 64.4555 303.996C64.6563 304.084 64.8556 304.174 65.0563 304.262C66.2708 301.823 67.4838 299.379 68.6954 296.939ZM91.4694 289.95C91.3768 291.796 90.8308 293.752 93.2721 295.574C93.6242 293.056 92.6653 291.475 91.4694 289.95ZM88.4038 323.008C91.5573 320.722 89.2106 318.515 88.5561 316.436C88.5098 318.454 88.4636 320.472 88.4038 323.008ZM-120.627 512.263C-120.667 511.984 -120.71 511.703 -120.751 511.424C-122.691 511.66 -124.633 511.894 -126.573 512.13C-126.539 512.349 -126.507 512.571 -126.473 512.79C-124.527 512.614 -122.577 512.44 -120.627 512.263ZM170.712 295.968C170.962 296.318 171.216 296.666 171.466 297.016C172.43 295.907 175.604 297.208 174.554 293.599C173.172 294.451 171.943 295.21 170.712 295.968ZM63.8489 324.153C64.1751 324.073 64.5932 324.062 64.6167 323.957C64.9096 322.493 65.148 321.019 65.4041 319.547C64.494 320.939 62.8689 322.093 63.8489 324.153ZM109.004 189.236C108.631 189.334 108.257 189.427 107.884 189.525C108.294 190.899 108.706 192.271 109.116 193.645C109.413 193.572 109.71 193.499 110.007 193.426C109.672 192.027 109.337 190.631 109.004 189.236ZM182.846 276.418C185.207 275.549 186.405 274.959 184.445 272.562C183.899 273.873 183.51 274.816 182.846 276.418ZM85.2246 269.35C84.8148 269.433 84.405 269.516 83.9982 269.6C84.3314 270.804 84.666 272.005 84.9991 273.209C85.3737 273.13 85.7498 273.054 86.1244 272.975C85.8235 271.766 85.5225 270.558 85.2246 269.35ZM-14.5109 475.084C-14.9759 475.093 -15.4439 475.1 -15.909 475.109C-15.645 476.515 -15.384 477.919 -15.1201 479.326C-14.8459 479.305 -14.5718 479.285 -14.2977 479.264C-14.3721 477.872 -14.4422 476.48 -14.5109 475.084ZM101.949 291.794C102.276 291.949 102.601 292.1 102.927 292.255C103.195 291.448 103.463 290.641 103.732 289.838C103.445 289.732 103.156 289.628 102.868 289.521C102.56 290.275 102.256 291.036 101.949 291.794Z" fill="#A60403"/>
<path d="M142.53 184.741C141.688 184.849 140.585 185.346 140.052 184.998C137.22 183.133 135.196 180.554 133.391 177.842C133.679 177.553 133.969 177.26 134.257 176.97C136.389 178.7 138.521 180.429 140.653 182.159C141.277 183.021 141.904 183.881 142.53 184.741Z" fill="#BB9F87" fill-opacity="0.5"/>
<path d="M-6.26484 137.585C-6.3894 145.567 -6.50806 153.552 -6.66635 161.535C-6.66987 161.71 -7.1036 161.862 -7.61961 162.228C-9.62904 160.44 -9.66561 157.831 -9.19986 156.018C-7.82519 150.648 -8.18347 145.281 -8.70542 139.856C-8.88802 137.953 -8.51753 136.804 -6.19907 137.675L-6.26484 137.585Z" fill="#BB9F87" fill-opacity="0.5"/>
<path d="M205.021 235.706C205.543 235.988 206.524 236.294 206.52 236.544C206.397 241.695 206.162 246.839 205.932 252.385C202.85 250.873 203.657 248.63 203.811 246.759C204.12 243.042 204.657 239.353 205.101 235.651L205.021 235.706Z" fill="#BB9F87" fill-opacity="0.5"/>
<path d="M223.312 312.817C225.464 315.885 230.855 317.18 228.792 322.492C226.885 321.756 225.099 321.066 223.289 320.364C223.297 317.703 223.304 315.258 223.312 312.817Z" fill="#BB9F87" fill-opacity="0.5"/>
<path d="M290.481 251.847C291.823 252.599 292.589 253.03 293.632 253.611C293.459 252.854 293.294 252.306 293.216 251.749C293.143 251.22 293.158 250.685 293.813 249.876C294.463 250.946 295.119 252.012 295.758 253.088C296.384 254.139 297.095 255.162 297.581 256.27C298.085 257.415 298.371 258.645 298.308 260.059C296.09 257.144 291.266 257.016 290.481 251.847Z" fill="#BB9F87" fill-opacity="0.5"/>
<path d="M296.867 249.701C301.317 253.314 304.034 260.065 303.064 264.344C300.876 259.173 298.872 254.436 296.867 249.701Z" fill="#BB9F87" fill-opacity="0.5"/>
<path d="M190.65 318.63C188.025 316.906 185.984 311.246 186.457 308.005C188.857 309.463 189.364 310.705 190.65 318.63Z" fill="#BB9F87" fill-opacity="0.5"/>
<path d="M194.173 321.14C191.844 317.988 191.386 315.325 191.634 308.029C193.238 309.555 194.694 316.566 194.173 321.14Z" fill="#BB9F87" fill-opacity="0.5"/>
<path d="M198.02 309.011C198.982 312.235 199.945 315.463 201.033 319.105C200.089 318.917 199.114 319.008 198.829 318.625C196.644 315.703 197.024 312.412 196.945 309.197C197.301 309.132 197.66 309.07 198.02 309.011Z" fill="#BB9F87" fill-opacity="0.5"/>
<path d="M182.81 307.169C184.757 311.243 185.568 314.646 185.651 318.636C183.235 316.596 181.753 311.035 182.81 307.169Z" fill="#BB9F87" fill-opacity="0.5"/>
<path d="M205.715 320.627C202.302 320.545 201.481 317.892 202.101 308.868C203.775 311.017 203.332 312.976 203.818 314.654C204.363 316.532 204.999 318.39 205.715 320.627Z" fill="#BB9F87" fill-opacity="0.5"/>
<path d="M215.958 322.3C214.45 321.582 213.734 321.47 213.509 321.094C212.462 319.326 211.918 314.765 212.475 311.075C213.723 315.103 214.671 318.15 215.958 322.3Z" fill="#BB9F87" fill-opacity="0.5"/>
<path d="M178.312 309.357C179.38 311.514 180.447 313.675 181.798 316.409C178.095 315.002 177.546 314.04 177.334 309.74C177.663 309.612 177.987 309.486 178.312 309.357Z" fill="#BB9F87" fill-opacity="0.5"/>
<path d="M207.573 311.762C208.586 314.899 209.6 318.035 210.74 321.566C207.338 319.887 206.534 317.672 207.573 311.762Z" fill="#BB9F87" fill-opacity="0.5"/>
<path d="M218.454 321.398C217.512 319.152 216.574 316.907 215.557 314.481C218.219 315.069 218.219 315.069 219.466 320.911C219.127 321.073 218.792 321.236 218.454 321.398Z" fill="#BB9F87" fill-opacity="0.5"/>
<path d="M171.737 309.469C175.166 311.381 175.785 313.581 176.275 316.725C173.334 314.936 172.281 312.952 171.737 309.469Z" fill="#BB9F87" fill-opacity="0.5"/>
<path d="M171.162 314.976C167.883 313.926 167.734 311.934 167.344 310.074C170.06 310.636 170.599 312.408 171.162 314.976Z" fill="#BB9F87" fill-opacity="0.5"/>
<path d="M230.825 321.024C231.235 316.625 231.235 316.625 234.817 316.478C235.685 319.945 232.283 318.829 230.825 321.024Z" fill="#BB9F87" fill-opacity="0.5"/>
<path d="M166.79 313.819C163.908 313.875 162.921 312.892 162.054 310.858C164.479 310.691 165.506 311.655 166.79 313.819Z" fill="#BB9F87" fill-opacity="0.5"/>
<path d="M281.619 268.42C281.798 266.742 281.978 265.061 282.153 263.381C283.339 265.358 283.416 267.105 281.547 268.351L281.619 268.42Z" fill="#BB9F87" fill-opacity="0.5"/>
<path d="M325.638 249.573C325.041 248.384 324.442 247.199 323.623 245.568C326.424 246.148 325.94 247.908 326.078 249.336C325.931 249.413 325.783 249.491 325.638 249.573Z" fill="#BB9F87" fill-opacity="0.5"/>
<path d="M127.58 186.016C128.403 185.75 129.227 185.487 130.102 185.204C129.56 182.969 133.197 182.616 132.91 180.018C134.713 181.861 136.518 183.701 138.809 186.039C135.317 186.31 133.351 189.361 129.858 188.366C129.099 187.584 128.341 186.803 127.58 186.016Z" fill="#BB9F87" fill-opacity="0.5"/>
<path d="M105.174 245.343C103.884 245.603 102.599 245.668 102.393 243.95C101.935 240.128 101.578 236.297 101.073 231.454C104.148 234.084 103.229 236.609 103.763 238.734C104.318 240.936 104.663 243.18 105.099 245.404L105.174 245.343Z" fill="#BB9F87" fill-opacity="0.5"/>
<path d="M93.4744 97.2299C94.2822 97.8273 95.3931 98.2666 95.8438 99.048C97.2443 101.495 97.7315 105.318 97.4888 109.752C97.0359 109.027 96.5235 108.565 96.4788 108.081C96.1828 104.724 95.196 101.615 93.123 98.8096C92.9048 98.5147 93.0951 97.9414 93.0965 97.4991C93.2216 97.4136 93.3465 97.321 93.4744 97.2299Z" fill="#BB9F87" fill-opacity="0.5"/>
<path d="M118.5 197.47C119.952 195.8 121.35 195.02 122.646 196.581C123.23 197.284 122.78 198.786 122.798 199.922C122.448 200.042 122.096 200.165 121.745 200.285C120.687 199.369 119.63 198.45 118.5 197.47Z" fill="#BB9F87" fill-opacity="0.5"/>
<path d="M127.581 186.017C128.343 186.8 129.102 187.582 129.862 188.368C129.218 188.906 128.575 189.441 127.934 189.981C127.481 189.642 127.025 189.304 126.57 188.963C126.184 188.024 125.796 187.083 125.229 185.703C126.237 185.839 126.909 185.928 127.581 186.017Z" fill="#BB9F87" fill-opacity="0.5"/>
<path d="M126.567 188.965C127.022 189.305 127.476 189.641 127.931 189.982C127.554 190.521 127.098 191.566 126.813 191.513C125.251 191.231 123.868 190.552 123.838 188.428C124.831 188.623 125.699 188.794 126.567 188.965Z" fill="#BB9F87" fill-opacity="0.5"/>
<path d="M122.825 191.153C123.605 191.52 124.461 191.787 125.137 192.286C125.567 192.603 125.738 193.261 126.125 193.942C123.913 194.501 123.26 193.071 122.825 191.153Z" fill="#BB9F87" fill-opacity="0.5"/>
</g>
</svg>
