<?xml version="1.0" encoding="UTF-8"?>
<svg id="Layer_1" data-name="Layer 1" xmlns="http://www.w3.org/2000/svg" viewBox="0 0 515.64 465.99">
  <defs>
    <style>
      .cls-1 {
        fill: rgba(187, 159, 135, .5);
      }

      .cls-2 {
        opacity: .3;
      }

      .cls-3 {
        fill: #a60403;
      }
    </style>
  </defs>
  <g class="cls-2">
    <path class="cls-3" d="M214.68,355.8c-1.12.28-1.67.26-1.98.52-3.57,3.01-7.14,6.03-10.63,9.13-.77.68-1.73,1.61-1.81,2.53-.53,5.93-5.66,9.24-7.99,14.16-2.36,4.99-5.66,9.52-8.38,14.35-1.76,3.13-3.38,6.36-4.75,9.68-5.93,14.45-15.56,26.23-27.17,36.57-2.12,1.89-4.51,3.65-7.09,4.87-8.96,4.23-17.87,8.64-27.16,12.16-13.18,5.01-27.25,6.07-41.51,6.22-10.57.11-20.92-1.2-30.93-4.57-7.27-2.45-14.21-5.9-21.28-8.95-4.75-2.05-9.59-3.97-14.18-6.35-3.24-1.68-6.14-4.03-9.83-6.5,3.51-1.53,6.47-1.35,9.22-1.18,7.39.45,12.56-2.13,16.66-8.15,2.52-3.71,6.59-6.55,10.42-9.18,3.58-2.46,7.64-4.4,11.71-6.09,6.63-2.75,10.26-7.86,12.25-14.23,2.42-7.73,4.58-15.55,6.65-23.39,1.63-6.16,5.73-10.43,10.61-14.13,8.96-6.78,19.31-10.84,30.31-13.59,5.83-1.46,11.63-2.69,17.79-2.88,10.45-.33,20.03,2.84,29.52,6.73,11.22,4.6,22.68,8.34,34.66,10.19,2.81.43,4.86-.34,6.97-2.38,5.07-4.91,10.46-9.53,15.99-13.95,2.88-2.3,3.67-5.43,4.53-8.56.55-2,.57-4.18.6-6.29.05-4.97.1-9.95-.13-14.92-.11-2.36-.32-4.97-1.41-7.04-2.95-5.6-6.22-11.02-12.18-14.4-9.97-5.65-19.88-11.43-29.72-17.3-9.73-5.81-18.83-12.49-27.63-19.62-7.55-6.11-15.29-12.03-23.33-17.49-10.09-6.86-19.06-14.8-26.91-24-8.04-9.44-14.79-19.67-19.87-30.81-3.85-8.44-6.45-17.3-8.12-26.32-2.23-12.01-3.77-24.14-3.55-36.25.15-8.26,1.22-16.5,3.28-24.55,3.48-13.6,8.85-26.42,15.28-38.8,2.96-5.7,6.13-11.3,9.48-16.78,3.14-5.14,5.94-10.38,7.44-16.26.4-1.57,1.14-3.14,2.1-4.43,1.28-1.72,3.56-1.5,4.49.47,2.41,5.1,6.61,8.51,10.98,11.92,9.04,7.03,18.45,13.72,26.75,21.5,9.9,9.28,19.94,18.48,28.16,29.42,7.18,9.55,15.6,18.26,24.7,26.22,1.12.98,2.45,1.73,4.08,2.87.49-1.72.92-2.83,1.12-3.97,1.62-9.4,5.94-17.61,11.37-25.21,2.32-3.24,5.59-5.83,8.47-8.68.64-.63,1.42-1.13,2.18-1.63,6.67-4.37,10.29-10.8,12.5-18.13.82-2.72,1.43-5.5,3.71-7.48.22-.19.41-.47.5-.74,2.17-6.54,7.03-11.44,10.74-17.02,3.47-5.21,7.24-10.28,11.37-15,2.91-3.33,4.18-7.18,5.5-11.17.8-2.45.96-5.36,3.87-6.9,3.99,3.89,6.36,8.47,8.24,13.35.94,2.43,1.99,4.84,3.21,7.16,11.16,21.19,19.49,43.3,25.04,66.3,3.8,15.76,4.42,31.62,2.47,47.45-1.36,11.05-3.17,22.03-4.84,33.49,1.16-.6,2.3-1.15,3.39-1.78,5.27-3.01,10.52-6.03,15.78-9.06,13.53-7.78,28.85-10.72,43.99-14.26,17.78-4.15,35.9-4.37,54.16-3.25,11.97.74,23.42,4.15,34.3,9.3,3.34,1.58,6.45,3.96,9.17,6.48,8.43,7.85,18.54,12.06,29.5,14.86,4.82,1.23,9.51,3.12,14.15,5,1.75.71,3.7,1.81,3.94,4.36-.6.29-1.09.74-1.63.76-6.87.22-12.75,2.8-18.41,6.2-9.96,5.98-18.9,12.98-26.23,21.94-7.22,8.83-14.4,17.75-22.39,25.9-10.74,10.95-21.46,21.99-34.24,30.86-10.71,7.43-22.49,12.64-35.27,16.01-5.04,1.33-9.93,3.17-14.91,4.69-10.06,3.06-20.48,4.34-31.07,4.65-6.52.19-13.07,0-19.59.24-10.84.41-21.43-1.48-32.01-3.85-2.4-.54-4.93-.56-7.4-.62-3.87-.09-7.15,1.6-10.41,3.26-7.73,3.95-13.77,9.87-19.58,15.99-2.77,2.92-5.28,6.16-7.36,9.58-3.33,5.47-4.84,11.73-4.84,18.08-.01,9.92-1.47,19.51-3.79,29.04-.66,2.71-.54,5.65-.64,8.5-.36,10.25,1.65,20.59-.11,30.8-.89,5.16-1.36,10.41-2.22,15.58-.49,2.94-1.33,5.83-2.17,8.69-.17.57-1.25,1.4-1.57,1.28-.71-.29-1.47-1.03-1.73-1.74-2.93-7.94-4.52-16.17-5.84-24.41-.47-2.93.18-5.99.18-8.99,0-4.67-.42-9.38-.09-14.01.45-6.32,1.45-12.58,2.2-18.86.1-.87.1-1.75.17-3.15ZM113.82,424.26c-1.17.3-2.44.41-3.5.92-8.93,4.3-17.86,8.58-27.67,10.95-1.78.43-3.54,1.11-5.15,1.95-7.82,4.06-16.45,5.75-25.09,7.45-1.43.28-2.84.63-4.26.96.7.66,1.33.88,1.88.78,9.68-1.84,19.49-3.29,29-5.71,10.92-2.77,20.95-7.69,30.78-12.94,2.05-1.09,3.32-2.37,3.96-4.43,3.53,1.2,6.16-.61,8.35-2.6,6.13-5.56,13.87-8.69,20.83-12.97,8.93-5.48,17.91-10.82,25.68-17.87,6.69-6.08,13.67-11.86,20.56-17.73,1.09-.93,2.05-2.17,4.01-1.63,1.82.5,2.87-.65,3.41-2.21,1.45-4.17,4.71-6.84,8-9.55,3.44-2.83,6.68-5.87,10.01-8.82-.22-.25-.43-.5-.65-.75-1.36,1.01-2.83,1.93-4.07,3.07-6.28,5.74-11.98,12.1-19.04,17.02-8.06,5.62-16.18,11.17-24.27,16.74-2.74,1.89-5.6,3.62-8.2,5.67-5.34,4.21-10.25,8.98-15.86,12.82-8.62,5.89-17.69,11.17-26.53,16.76-.85.53-1.46,1.4-2.18,2.12ZM165.25,402.09c1.35,2.5,2.71,4.99,4.21,7.77,1.31-1.52,1.33-3.09.72-4.72-.74-2.01-1.64-3.96-2.38-5.97-.13-.34.17-.82.28-1.31.91.34,1.71.64,2.28.85,2.52-.95-.97-6.47,4.78-4.8-.16,2.12-.35,4.18-.46,6.24-.11,2.04-1.36,4.11.13,6.7,6.1-10.76,11.91-20.98,17.71-31.2-1.46.17-2.32.76-3.09,1.44-7.14,6.24-14.14,12.65-21.47,18.67-2.27,1.86-3.19,3.68-2.65,6.42-1.52-1.93-3.07-2.28-5.04-.63-1.61,1.35-3.39,2.55-5.24,3.58-2.4,1.33-3.22,3.14-3.06,5.91.4,7.13-1.24,13.73-5.26,19.66-2.44,3.59-4.63,7.34-6.98,10.99-1.56,2.43-3.2,4.81-5.19,7.79,6.31-2.19,11.21-5.1,15.69-8.73,1.81-1.47,2.87-2.97,2.07-5.4-.21-.63.06-1.39.14-2.51,1.1,1.26,1.85,2.12,2.62,3,4.23-2.51-.51-6.13,1.37-8.9,1.25,1.09,2.49,2.16,3.73,3.22,2-1.12,1.73-2.58,1.02-4.33-1.09-2.66-1.97-5.39-2.94-8.09.32-.11.64-.23.96-.35,1.51,2.72,3.03,5.44,4.59,8.25q2.81-2.8,1.45-5.35c-1.55-2.92-2.77-5.92-3.32-9.96,3,2.38,2.12,6.06,4.89,7.71,1.4-3.62,1.31-5.48.04-9.4-.7-2.14-1.08-4.37-1.6-6.56ZM115.86,350.92c-4.69,1.21-9.37,2.42-14.06,3.64-5.36,2.19-11.01,3.92-16.03,6.68-9.25,5.08-16.27,12.1-17.36,23.56,3.32,1.48,4.21,6.62,9.53,6.35-1.69-4.41-5.68-7.35-6.31-11.82,2.23,2.25,3.95,4.78,5.87,7.17,3.39,4.2,6.75,4.94,12.38,2.73-1.87-2.71-3.88-5.29-5.51-8.07-1.52-2.61-4.49-4.52-3.98-8.22,4.33,5.75,8.66,11.5,13.33,17.7,1.05.03,2.59.08,4.66.14-3.4-6.09-8.25-10.41-10.19-16.34.74.25,1.16.69,1.52,1.16,3.63,4.67,7.29,9.32,10.86,14.03,1.37,1.81,2.94,2.37,5.56,1.77-1.87-2.68-3.47-4.95-5.05-7.23q-3.44-4.93-3.4-7.32c.38.36.78.63,1.04.99,3.05,4.13,6.11,8.27,9.11,12.43,1.49,2.07,3.15,3.35,6.08,1.98-3.21-4.71-6.29-9.24-9.37-13.76.26-.18.52-.35.79-.53.66.75,1.34,1.47,1.97,2.25,3.22,4.01,6.42,8.03,9.64,12.04,1.09,1.35,2.28,2.08,4.09.27-1.2-1.48-2.42-2.89-3.51-4.38-1.1-1.51-2.11-3.08-3.08-4.66-.86-1.4-2.37-2.62-2.13-4.87,2.37,3.12,4.3,5.94,6.54,8.51,2.13,2.45,3.53,5.67,7.89,7.63-2.36-4.13-4.18-7.31-5.99-10.49.29-.16.59-.32.88-.47,2.36,3.23,4.75,6.44,7.09,9.68,1.35,1.88,2.86,3.26,5.77,2.32-1.85-3.41-3.62-6.68-5.4-9.96,2.02,1.8,3.54,3.84,5.21,5.77,1.66,1.92,2.06,5.24,6.41,5.31-2-4.27-3.79-8.09-5.59-11.91.35-.15.71-.3,1.06-.45,2.1,3.77,4.21,7.53,6.66,11.91.41-3.48-2.89-5.74-1.12-9.12,1.81,3.51,3.39,6.56,5.19,10.05,2.63-3.03-.72-5.73.29-8.57,1.32,2.02,2.41,3.67,3.43,5.23,6.79-4.67,13.32-9.16,20.58-14.15-5.82-2.24-10.85-4.31-15.96-6.11-5.17-1.82-10.37-3.72-15.68-4.94-5.33-1.22-10.8-1.77-16.23-2.36-5.43-.6-10.88-1.19-16.31-1.22-5.29-.03-10.56.65-15.84,1.02-.08-.21-.15-.42-.23-.63,1-.7,2.01-1.41,3-2.1-.89-1.13-1.59-2.03-2.29-2.92,1.8.04,3.19.58,4.57,1.14,1.4.56,2.79,1.29,4.53.38-1.13-1.29-2.03-2.33-3.32-3.81,4.5.11,6.89,4.47,10.96,3.63-1.69-2-3.64-3.55-5.45-5.24-.59-.54-.82-1.45-1.21-2.19,1.74.99,3.58,1.84,5.18,3.02,2.23,1.64,4.05,4.34,6.47,5.09,3.37,1.05,7.14.71,10.74.97.2-.34.4-.67.6-1.01-1.17-1.41-2.41-2.78-3.51-4.24-1.86-2.46-3.63-4.98-5.44-7.47.78.46,1.72.78,2.31,1.41,3.19,3.42,6.24,6.97,9.45,10.37.76.81,1.9,1.6,2.96,1.78,3.02.51,6.09.7,10,1.1-3.03-3.84-5.58-7.06-8.13-10.29.29-.22.58-.44.86-.66,3.04,3.26,6.22,6.4,9.06,9.81,1.91,2.3,4.01,3.62,7.72,3.58-2.88-3.72-5.44-7.02-8-10.32,1.54.46,2.54,1.36,3.44,2.34,2.66,2.86,5.26,5.76,7.92,8.61,1.83,1.96,4.07,3.1,7.74,3.51-3.08-4.51-5.66-8.27-8.23-12.03.26-.16.53-.33.8-.5.68.79,1.39,1.55,2.03,2.37,2.77,3.55,5.52,7.13,8.29,10.69,1.37,1.76,3.09,2.65,6.25,2.44-2.43-3.43-4.42-6.22-6.41-9.02,1.06.52,2.04,1.19,2.76,2.07,1.78,2.17,3.32,4.51,5.16,6.63,2.4,2.77,2.84,2.71,5.74.76,2-1.35,4.12-2.55,6.12-3.91,1.31-.89,2.5-1.95,4.6-3.6-2.83-.07-4.44-.11-6.06-.15-.17-1.06-.31-1.89-.41-2.54-8.3-2.73-16.51-4.94-24.32-8.14-6.41-2.62-12.75-5.32-19.53-6.56-7.41-1.36-14.84-2.2-22.06.33ZM134.26,443.96l-.08.05c3.39-2.66,3.77-6.15,2.64-10.11-.48-1.68-.73-3.42-1.09-5.13.29-.07.58-.14.87-.2.95,2.21,1.9,4.42,3.29,7.62.9-2.25,1.69-3.4,1.79-4.64.11-1.3-.6-2.68-.64-4.03-.04-1.13-1.11-2.42.08-3.76.94,1.83,1.72,3.36,2.66,5.18,1.86-2.51.8-4.46.03-6.45-1.21-3.14-1.19-3.34-.41-5.79,1.07,2.1,2.07,4.07,3.07,6.05.3-.08.6-.16.9-.24-.09-3.62-1.32-7.11-1.99-11.17-5.19,2.92-10.01,5.45-14.63,8.29-3.61,2.21-6.87,4.94-10.46,7.17-2.02,1.25-2.86,2.7-2.98,5.06-.38,7.58-3.77,13.79-9.18,18.97-1.31,1.25-2.63,2.48-3.99,3.67-2.7,2.37-5.44,4.7-8.86,7.66,10.19-1.07,18.72-3.7,26.89-6.84-.21-1.99-.37-3.5-.53-5.01.29-.05.59-.11.89-.16.89,1.13,1.79,2.25,3.2,4.03.58-4.13-1.75-7.46-.46-11.76,1.14,3.54,1.99,6.16,3.03,9.4,3.21-4.81-1.61-9.01.32-14.11,1.25,3.6,2.21,6.36,3.48,10.02,1.05-1.82,1.62-2.8,2.19-3.78ZM30.68,429.97c.23.65.46,1.3.69,1.96.15.8.31,1.6.56,2.92-1.64-.67-2.74-1.12-4.25-1.74-4.12,7.36-11.56,8.46-19.51,8.82,1.7.95,3.29,1.55,4.92,1.73,2.11.24,4.25.07,6.37.19,2.79.16,5.6.7,8.37.63,6.04-.15,12.12-.24,18.08-1,6.49-.83,12.93-2.18,20.1-4.47-2.24-.44-3.44-.88-4.62-.88-9.47,0-18.94.09-28.41.11-1.06,0-2.12-.25-3.18-.38,0-.41-.02-.83-.03-1.25,5.1-1.77,10.7-1.25,16.76-1.99-3.61-2.6-6.63-4.77-9.66-6.95.22-.34.45-.69.67-1.03,1.31.67,2.65,1.28,3.92,2.03,3.1,1.84,6.13,3.82,9.28,5.58.9.5,2.1.46,3.16.67.07-.22.14-.44.2-.66-3.12-2.62-6.24-5.24-9.35-7.85.24-.34.49-.68.73-1.01,5.37,2.89,9.4,8.23,16.06,9.05-2.41-2.45-4.82-4.89-7.87-7.99,3.12.33,4.03,2.17,5.46,3.21,1.65,1.2,3.24,2.48,4.91,3.64,1.38.95,2.85,1.78,4.86,3.02-1.74-3.42-5.24-4.48-6.22-8.25,4.58,2.33,6.88,6.88,11.35,8.06.25-.26.49-.53.74-.79-1.93-2.24-3.85-4.48-5.78-6.71.23-.25.47-.49.7-.74,2.74,2.13,5.48,4.27,8.21,6.41.29-.3.58-.59.87-.89-1.4-1.61-2.79-3.22-4.86-5.62,3.09.18,4.27,1.64,5.45,2.88,1.84,1.92,3.76,2.53,6.28,1.46,5.9-2.49,11.89-4.81,17.81-7.27.87-.36,1.55-1.12,2.7-1.99-1.38-.55-2.21-.95-3.08-1.21-10.23-3.2-20.6-3.34-31.04-2.62-7.82.54-15.21,2.49-22.37,5.31-.48.19-1.12.02-2.18.02.63-1.27,1.06-2.13,1.51-3.04-.67-.79-1.34-1.57-2.44-2.86-3.74,2.3-7.55,4.46-11.12,6.92-1.79,1.24-3.17,3.04-4.74,4.59ZM122.59,117.13c.07.45.03.95.24,1.33,6.26,11.32,13.99,21.6,23.37,30.72,10.54,10.25,21.16,20.4,30.11,32.09,4.67,6.1,9.16,12.12,11.45,19.48,4.6,14.79,10.28,29.25,16.02,43.7,4.09,10.29,7.53,20.88,8.64,31.8,1.31,12.92,4.09,25.47,8.73,37.75.49,1.29.23,2.86.12,4.29-.22,3.05-.57,6.09-.86,9.13.39.09.78.18,1.17.27.68-2.19,1.66-4.34,1.94-6.59.28-2.22-.15-4.55-.28-7.14,3,.65,3.65,2.42,3.5,4.49-.13,1.79-.63,3.55-.96,5.32-.88,4.86-1.81,9.7-2.6,14.58-.22,1.31-.47,2.12-2.05,2.46-.79.17-1.26,1.54-2.16,2.74,2.79.11,4.04.65,3.76,3.06-.39,3.28-.42,6.62-.61,9.94-.05.9-.02,1.84-.27,2.69-.14.47-.87,1.18-1.18,1.1-.65-.17-1.57-.7-1.7-1.22-.29-1.17-.16-2.42-.2-3.64-1.8,9.21-3.16,18.43-4.1,27.71-.3,3.02.53,6.2.84,9.31.46-2,.26-3.98.4-5.93.42-6.01.93-12.01,1.5-18.01.12-1.25.26-2.81,2.34-2.49-.32,9.63-.63,19.19-.95,28.92-2.91,1.4-3.37,2-3.1,4.26.27,2.28,2.41,4.21,5.88,5.19.28-.81.63-1.61.84-2.45,1.13-4.58,1.06-9.22.69-13.96-.44-5.72-.39-11.47-.45-17.21-.03-2.38-.1-4.83.37-7.13.97-4.69,2.72-9.24,3.36-13.97.7-5.2.66-10.53.7-15.82.06-8.38,2.51-16.05,7.03-22.85,2.79-4.19,6.61-7.7,9.95-11.54.59-.67,1.06-1.44,1.59-2.17-.26-.23-.51-.45-.77-.68-2.71,2.1-5.61,4.01-8.08,6.34-2.05,1.94-3.76,4.28-5.33,6.63-1.54,2.32-3.5,3.49-7.05,3.24-.51-1.5-1.14-3.12-1.61-4.78-.41-1.46-.18-3.81-1.04-4.28-3.18-1.73-2.76-4.59-3.35-7.13-2.87-12.34-5.6-24.71-8.54-37.03-1.52-6.36-3.38-12.66-5.07-18.99-1.18-4.42-1.87-9.02-3.62-13.24-5.06-12.2-10.54-24.25-15.88-36.35-.37-.84-.9-1.62-1.44-2.38-3.33-4.68-6.46-9.51-10.07-13.99-5.26-6.55-10.61-13.07-16.38-19.2-9.61-10.23-20.23-19.58-28.76-30.78-1.96-2.57-4.11-5.02-6.17-7.52-.35-1.08-.7-2.15-1.05-3.23-.49.27-.97.53-1.46.81.86.78,1.72,1.58,2.59,2.37ZM256.52,32.81c-.12.09-.25.18-.38.27-1.26,1.83-2.51,3.65-3.41,4.95,1.4,4.58,2.58,8.45,3.96,12.97-4.8-2.01-3.34-6.84-6.02-10.04-1.01,1.38-2.64,2.58-2.51,3.63.34,2.8,1.44,5.54,2.25,8.33,1.23-.39,2.18-.7,3.82-1.22-.35,19.68,7.1,37.53,12.18,55.92,2.45-13.43,4.86-26.84,6.33-40.38,1.47-13.52,2.32-27.16.09-41.07,1.26.42,2.24.91,2.63,1.68.62,1.22,1.11,2.61,1.19,3.94.44,7.24,1.01,14.49,1.02,21.72.01,7.55-.95,15.08-.78,22.62.2,8.66-.13,17.22-1.49,25.71-.81,5.06-1.6,10.12-2.54,15.16-.64,3.42.63,6.26,2.53,9.39,3.42-3.7-2.22-6.87-.31-10.68,1.39,2.1,2.51,3.79,3.56,5.36,4.6-3.33,1.01-6.51.24-10.16,1.42.98,2.83,1.95,4.3,2.96,2.32-1.8,2.98-3.76,1.4-6.66-1.09-2.01-2.57-4.18-1.98-7.54,1.66,2.47,2.87,4.28,4.12,6.15,2.08-1.53,2.67-3,1.57-5-1.09-1.98-2.15-3.99-3.14-6.02-.58-1.18-1.48-2.54.91-3.37,1.31,2.11,2.59,4.2,4.08,6.63,2.64-5.83,2.36-10.76-1.6-15.46-.47-.56-.31-1.61-.44-2.44.29-.08.57-.16.86-.24,1.3,1.5,2.6,3.01,4.11,4.75,1.4-5.99,1.35-5.96-2.33-10.84-.43-.57,0-1.74.06-3.03,1.37.75,2.14,1.18,3.07,1.69.21-1.21.4-2.29.58-3.35,2.52-.27,2.18,1.41,2.38,2.68,1.8,11.17-.58,21.71-4.38,31.89-2.75,7.39-6.72,14.17-11.41,20.65-5.42,7.49-10.89,15.15-13.01,24.47-.1.44-.28.86-.48,1.26-4.06,8.09-5.22,16.75-4.41,25.8.28,3.15.45,6.3.69,9.74-1.16-.03-2.06-.05-3.25-.08.34,1.52.62,2.76,1.11,4.89,2.51-3.65,4.53-6.59,6.55-9.53l-.07.06c.41-1.19,1.25-2.4,1.16-3.57-.3-3.91-.98-7.82-1.4-11.73-.09-.86.26-1.75.42-2.63.37.03.75.07,1.12.11.65,4.26,1.31,8.52,2.02,13.2,2-1.31,2.8-2.43,2.27-4.66-.73-3.11-1.01-6.31-1.33-9.48-.1-.92.28-1.86.44-2.8.22,0,.44-.02.66-.03.57,2.94,1.14,5.87,1.71,8.81.31-.03.62-.05.92-.08-.12-4.01-.23-8.02-.35-12.04.37-.01.75-.03,1.13-.04.59,3.76,1.19,7.53,1.84,11.66,1.98-1.42,3.02-2.89,2.79-5.07-.21-1.97-.46-3.93-.63-5.9-.15-1.68-.23-3.37-.35-5.05.42-.04.84-.07,1.26-.11.63,3.48,1.25,6.96,1.89,10.54,2.95-.76,2.62-2.79,2.36-4.76-.49-3.7-1.02-7.39-1.52-11.08.37-.06.74-.12,1.11-.19.91,3.6,1.81,7.19,2.76,10.96,3.05-1.73,3.19-3.99,2.69-6.53-.6-3.08-1.11-6.17-1.67-9.26.37-.07.74-.15,1.12-.22.89,3.21,1.78,6.42,2.76,9.98q2.53-2.8,2.19-5.56c-.51-4.16-1.02-8.33-1.54-12.49,2.9,3.26,2.18,7.41,3.72,11.39,5.25-6.51,1.08-13.11.14-20.1,3.76,2.75,1.66,8.01,6.18,9.16.09,7.75-3,14-7.29,19.76-4.04,5.42-8.9,10.15-13.38,15.19-7.57,8.53-14.18,17.88-21.02,27.01-6.66,8.89-6.11,18.25.07,28.33,1.3-1.42,2.44-2.67,3.74-4.09-3.5-4.89-5.42-10.05-5.22-15.82,2.84,3.72,2.6,8.89,6.72,12.67,1.56-3.33-1.17-5.42-1.65-7.82-.52-2.58-1.42-5.09-2.15-7.64.4-.13.81-.26,1.21-.39,1.61,3.46,3.23,6.92,5.23,11.22,1.23-3.17,3.09-5.12,1.79-7.94-1.48-3.21-2.97-6.42-4.37-9.67-.22-.52.02-1.21.08-2.64,3.21,3.17,2.96,7.52,6.31,9.67,1.97-1.79,1.76-3.42.78-5.49-1.45-3.06-2.47-6.29-3.68-9.46.36-.14.71-.28,1.07-.43,1.67,3.13,3.34,6.25,5.01,9.38,3.22-1.86,3.47-4.02,2.13-6.85-1.06-2.25-1.7-4.68-2.53-7.03.35-.13.7-.26,1.05-.39,1.47,2.85,2.93,5.69,4.43,8.6,4.85-3.88,4.81-3.86,2.59-8.74-.81-1.79-1.85-3.6-1.51-5.71,1.16,1.15,1.95,2.44,2.75,3.72.87,1.38,1.75,2.76,2.95,4.65,1.58-1.87,2.71-3.21,3.93-4.66-1.51-3.06-2.95-5.99-4.39-8.92.32-.18.64-.37.96-.55,1.85,2.46,3.71,4.91,5.69,7.54,1.3-1.08,2.32-1.92,3.46-2.85-1.59-3.26-3.11-6.36-5.03-10.29,4.41,1.79,4.13,6.62,7.77,7.95,3.78-5.33-2.29-9.13-1.83-14,1.51,1.95,3.03,3.91,4.79,6.19,3.54-13.24,5-26.49,5.41-39.72-1.57-1.4-2.95-2.64-4.34-3.88-.63-.86-1.25-1.72-1.88-2.58-1.47-2.69-2.94-5.38-4.41-8.06,4.85,2.26,5.34,8.21,10.99,10.68-3.5-5.42-6.52-10.11-9.53-14.79.31-.21.62-.42.93-.63,3.03,1.57,3.43,5.4,6.42,7.92-1.25-4.7-4.89-7.77-5.05-12.24,1.5,2.04,2.99,4.08,4.49,6.12.17-.11.34-.22.52-.33-1.86-3.13-3.73-6.27-5.59-9.41.31-.18.63-.35.94-.53,1.75,2.59,3.5,5.17,5.25,7.76.3-.12.61-.23.91-.34-.37-1.52-.49-3.14-1.15-4.54-1.38-2.92-3.06-5.71-4.56-8.58-.36-.68-.51-1.45-.75-2.18.22-.1.44-.2.66-.29,1.2,1.5,2.39,3,3.58,4.49.39-.99.37-1.63.07-2.14-1.17-1.98-2.42-3.91-3.79-6.1.61-.68,1.27-1.4,1.92-2.12-4.92-21.7-25.88-71.8-32.7-77.26.64,3.1,1.18,5.69,1.69,8.28.03.13-.3.31-1.07,1.04-.46-1.33-.86-2.49-1.33-3.85-2.79,2.86-1.86,5.48-.97,8.12.13.38.04.82.06,1.66-.92-1.15-1.57-1.96-2.42-3.04-1.04,1.15-1.91,2.11-2.74,3.03,1.43,3.33,3.24,6.32,2.63,10.43-2.09-2.68-2.19-5.71-4.77-7.65-.84,1.4-1.52,2.52-2.16,3.59,2.14,3.58,3.44,7.12,2.85,12.06-1.53-3.95-2.71-6.98-4.33-11.16-1.72,2.35-2.73,3.72-3.74,5.1ZM488.68,185.16c.15-.08.29-.16.44-.24.58.41,1.15.81,1.73,1.22.46-.66,1.27-1.3,1.31-2,.08-1.46-1.4-2.89-.45-5.03,1.12,1.7,1.93,2.93,2.76,4.17q3.08-2.08.24-5.98c-14.55.59-28.98,2.08-43.21,4.83-7.71,1.48-15.59,2.37-23.16,4.3-5.88,1.49-11.39,4.18-17.07,6.33-1.97.09-4.29-.24-4.86,2.27-.66,2.88-1.04,5.83-1.56,8.89,1.38.27,2.39.47,3.72.74.91-4.11,1.78-8.05,2.65-11.98.4.74,1.14,1.5,1.12,2.21-.05,1.79-.49,3.55-.67,5.34-.14,1.36-.12,2.73-.17,4.1.4.07.81.13,1.21.2,2.77-3.8,1.95-9,4.54-13.58,1.61,5.33-1.95,9.81-.47,15.59,3.61-4.81,3.35-10.09,5.7-14.36.19,4.75-1.79,9.21-1.49,14.66,2.76-2.18,2.58-4.87,3.33-7.12.79-2.37,1.54-4.76,2.3-7.14.28.08.56.17.84.25-.79,4.61-1.58,9.23-2.42,14.12,1.79.25,3.12.43,4.9.67,1.53-4.98,3-9.75,4.47-14.52.79,5.04-1.51,9.56-1.87,14.36,3.83.97,3.92,1,4.98-1.83,1.07-2.89,1.94-5.85,2.9-8.78.31.07.61.14.92.21-.63,3.7-1.27,7.39-1.9,11.08.31.2.63.39.94.58.76-.47,1.68-.81,2.23-1.45.83-.98,1.4-2.17,2.08-3.28l-.07-.07c.05,1.49.09,2.98.13,4.4,2.63,1.33,3.99.23,4.83-1.84.99-2.41,1.91-4.84,2.86-7.27.31.12.62.23.93.34-.76,2.81-1.52,5.61-2.23,8.27,3.23,1.82,5.9-3.89,9.82.46-1.97.9-3.48,1.76-5.11,2.32-6.74,2.32-13.8,1.53-20.74.72-10.68-1.25-21.37-2.61-31.98-4.49-9.03-1.61-17.48.88-26.19,1.46-.43.03-.84.34-1.24.55-8.28,4.47-16.56,8.94-24.85,13.41-4.63,1.39-5.42,3.32-3.38,9.36,2.71-2.83,3.12-6.09,3.32-9.44,1.3,0,2.18.55,1.97,1.91-.25,1.63-.75,3.22-.97,4.86-.1.72.23,1.51.45,2.74,3.24-2.82,1.84-7.33,5.53-9.46-.56,3.26-1.12,6.52-1.71,9.98,1.19.24,1.8.43,2.4.45.42.01.83-.21,1.2-.32q1.11-8.59,3.22-10.45c-.14,3.91-.27,7.52-.4,11.13,3.92-3.45,4.46-8.45,7.05-12.48.22,1.34.11,2.58-.21,3.75-.71,2.61-1.61,5.16-2.19,7.8-.12.56.67,1.54,1.29,1.99.24.18,1.45-.43,1.73-.94.56-1.04.77-2.26,1.16-3.39.87-2.49,1.76-4.98,2.64-7.48.56,1.33.53,2.5.26,3.6-.49,2.04-1.23,4.02-1.63,6.07-.57,2.87-.11,3.21,3.44,3.09,1.15-3.99,2.29-7.96,3.68-12.83,1.65,5.28-2.53,9.59,1.27,14.73,1.24-4.17,2.25-7.58,3.26-10.99.4.09.8.19,1.2.28-.58,3.4-1.17,6.8-1.75,10.18,3.12.66,3.28.73,3.65-.24.81-2.09,1.44-4.25,2.13-6.39.38-1.16.76-2.32,1.13-3.49.33.1.66.19.99.29-.63,3.68-1.26,7.36-1.89,11.02,4.06.84,4.05.83,5.29-2.24.86-2.12,1.76-4.23,2.65-6.34.25.09.51.18.76.27-.7,3-1.4,5.99-2.17,9.27,1.69.33,3.08.61,4.96.98.37-2.15.62-3.92.99-5.66.34-1.6.55-3.33,2.97-4.75-.68,3.99-1.23,7.17-1.79,10.41,3.14-.03,3.19-.02,3.86-2.2.67-2.16,1.03-4.45,3.23-5.98-.66,2.86-1.31,5.71-2.04,8.9,1.07.04,2.25.35,2.44.05,1.68-2.68,3.18-5.47,4.74-8.23.17,0,.35,0,.52,0-.45,2.6-.89,5.2-1.36,7.93,6.28.78,4.95-5.13,8.31-7.76-.45,2.62-.75,4.39-1.12,6.51,2.08-.49,3.82-.9,5.65-1.33,1.36,1.95.8,3.11-1.08,3.51-4.81,1.01-9.61,2.22-14.51,2.66-3.49.31-7.19-.19-10.69-.92-3.43-.72-6.85-.5-10.32-1.13-13.84-2.51-27.57-5.82-41.65-6.8-13.24-.92-24.82,1.86-34.21,10.92-.65.63-1.4,1.15-2.07,1.76-4.88,4.38-9.74,8.78-14.47,13.04,5.15-.16,10.24-.86,15.25-.37,12.57,1.23,25.12,2.97,37.67,4.54,6.35.79,12.72,2.24,19.06,2.36,11.29.21,21.61-3.24,31.22-8.57.7-.39,1.51-.61,2.26-.91.1,1.37-.24,2.37-.95,2.79-4.91,2.95-9.53,6.36-15.5,7.5-6.37,1.21-12.66,2.91-19.28,2.24-5.43-.55-10.83-1.51-16.25-2.23-10.53-1.4-21.07-2.7-31.6-4.15-9.94-1.37-19.54-1.15-28.53,3.47-2.45,1.26-3.68,2.79-4.03,5.42-.68,5.22.87,9.76,4.41,13.79.15.17.82-.09,1.44-.18-.43-2.78-1-5.45-1.23-8.14-.47-5.45-.27-6.42,1.26-7.96.32,2.68.43,5.08.93,7.42.56,2.66,1.24,5.33,2.25,7.86.82,2.06,2.46,2.66,4.35,1.16-.64-4.8-2.49-9.4-1.14-14.17.65.88.98,1.81,1.2,2.76.7,2.98,1.12,6.02,2.09,8.92,1.24,3.7,2.4,4.1,7.04,3.14-2.42-4-4.22-8.1-2.63-12.73.7.79,1.16,1.65,1.33,2.55.64,3.53,2.09,6.69,4.45,9.53,1.02,1.23,1.96,1.36,2.7.75-.24-5.6-.46-10.84-.69-16.09.37-.02.75-.04,1.12-.06.24,1.44.54,2.87.71,4.31.28,2.42.26,4.88.77,7.25.88,4.06,3.54,5.37,7.4,3.94-1.47-5.67-1.85-10.25-.91-13.46.38,1.3.69,2.12.86,2.96.41,2.09.61,4.22,1.14,6.29.85,3.38,2.46,4.56,5.72,4.44-.45-3.48-.9-6.97-1.34-10.45,3.64,2.83,1.65,7.47,4.93,10.9.62-3.59-.89-6.93,1.06-10.55.64,3.92,1.14,7.01,1.72,10.56,2.25-.33,3.98-.58,5.76-.84-2.06-6.38-2.09-7.25-.32-10.24.9,3.37.65,6.96,3.85,9.73.81-3.31-1.36-6.48.42-10.43,1,3.79,1.74,6.61,2.46,9.32,4.49.24,4.96-.23,4.46-3.66-.19-1.32-1.42-2.66-.07-4.6,1.15,2.57,2.09,4.68,3.31,7.39,1.33-2.54,2.3-4.41,3.46-6.63,1.46,1.89,2.47,3.18,3.33,4.29,4.79-1.36,9.22-2.63,13.65-3.87,10.43-2.92,20.25-7.04,29.19-12.98,7.48-4.97,14.19-10.82,20.66-16.93,4.93-4.66,10-9.2,14.54-14.21,7.67-8.46,14.67-17.52,22.56-25.78,3.67-3.84,3.89-7.4,1.99-11.85-.48-1.13-.99-2.26-1.43-3.41-.82-2.17-1.59-4.35-2.38-6.53,4.24,4.02,5.01,9.57,8.19,14.22.66-1,1.27-2.12.98-2.98-1.06-3.04-2.46-5.97-3.63-8.98-.26-.66-.07-1.47-.1-3,3.52,3.66,3.77,7.91,6.06,11.18,2.02-.31,2.71-1.3,1.88-3.18-1.32-3.01-2.63-6.02-3.94-9.04.3-.14.61-.29.91-.43,1.87,3.03,3.74,6.06,5.96,9.66,3.24-4.55-1.77-7.66-1.89-11.84,3.56,2.19,3.43,6.02,6.12,8.6,2.46-3.49-1.44-5.93-1.3-9.12,2.72,1.13,2.74,4.1,4.88,5.99.13-.97.23-1.49.32-2.02ZM368.07,171.29l.08-.05c-1.25,1.08-2.58,2.1-3.72,3.27-.58.6-1.11,1.47-1.19,2.28-.48,4.93-.83,9.88-1.22,14.83-.06.75-.17,1.49-.26,2.23-3.15-4.89.5-9.76-.83-15.44-5.67,5.66-2.07,12.38-3.28,19.09-2.47-3.66-2-6.92-2.49-10.65-3.36,5.48-1.27,11.07-1.84,16.53-1.47-.9-2.29-1.39-3.88-2.35.42,3.27.73,5.74,1.09,8.53.86-.4,1.45-.58,1.92-.9,7.66-5.29,16.08-9.19,24.83-12.54,5.39-2.07,11.16-3.49,15.44-7.66.8-.79,2.16-1.2,3.35-1.42,6.64-1.25,11.36-5.07,15.01-10.26,6.11-8.67,14.4-14.92,23.79-19.86,3.34-1.75,7.08-2.81,10.69-4.07,1.53-.54,3.05-.49,4.09,1.93-1.18.41-2.25.75-3.28,1.15-3.42,1.31-6.9,2.49-10.21,4-12.69,5.81-20.45,16.7-29.55,27.09,3.26-.8,5.91-1.61,8.63-2.09,14.9-2.6,29.81-5.2,44.75-7.62,10.02-1.62,19.98-3.43,30.38-2.7,3.79.27,6.3.9,7.57,4.55.18.51.73.91,1.21,1.48,3.15-1.03,6.16-2.01,9.97-3.25-4.19-2.58-8.03-3.57-11.96-4.39-11.62-2.45-21.8-7.65-30.77-15.5-3.26-2.85-6.96-5.65-10.94-7.22-9.45-3.71-18.93-7.37-29.31-8.04-12.79-.82-25.54-1.32-38.18.21-6.59.8-13.1,2.13-19.62,3.31-10.97,1.99-21.61,5.12-31.82,9.18-15.33,6.1-28.65,15.31-40.5,26.44-1.97,1.85-3.51,4.17-5.61,5.85-7.3,5.85-12,13.33-15.02,22.01-3.06,8.81-5.98,17.64-6.18,27.14-.19,8.74-.51,17.48-.35,26.23.06,3.15.2,6.55,2.08,9.65,7.27-6.52,14.44-12.74,21.3-19.26,1.62-1.54,2.58-4,3.2-6.23,1.23-4.45.46-8.94-1.73-13.56,2.56-.51,2.93-2.2,2.98-4.2.15-5.38.35-10.76.65-16.13.13-2.4.29-4.85.89-7.15,1.99-7.61,5.16-14.56,10.28-20.75,6.93-8.37,14.86-15.32,25.11-19.62.68-.29,1.5-.27,2.26-.4.1.23.21.45.31.68-1.49,1.21-2.99,2.41-4.43,3.58,1.57,8.29,1.54,9.42-.53,12.66-.05-2.44-.14-4.52-.11-6.6.02-1.91-.79-3.62-2.73-3.64-2.28-.02-2.23,1.87-1.96,3.71.47,3.16.82,6.33,1.07,9.5.08,1.01-.31,2.04-.48,3.06-.37-.04-.74-.07-1.1-.11-.46-4.23-.91-8.46-1.38-12.83-4.37,1.98-4.75,2.49-4.16,6.09.62,3.75,1.43,7.49,2.03,11.25.13.84-.26,1.74-.41,2.62-.36,0-.72,0-1.08,0-1.03-4.6-2.07-9.19-3.12-13.88-2.76.95-2.36,2.76-2.26,4.38.3,4.69.69,9.38.97,14.07.07,1.18-.13,2.38-.2,3.57-.43-.02-.87-.05-1.3-.07-.43-5.26-.85-10.52-1.3-15.96-5.03,2.59-5.67,3.68-4.67,8.22,1.05,4.77,2.25,9.52,3.32,14.29.19.86.05,1.79.08,3.71-4.89-5.9-3.03-12.52-6.33-18.93-.6,2.75-1.43,4.48-1.27,6.14.58,5.72.96,11.52,4.32,16.7.44.68.18,1.78.25,2.69-5.17-4.34-5.01-10.21-6.41-15.7-.99,3.27-2.12,6.44-1.12,9.95,1.04,3.68,2.09,7.36,3.05,11.05.22.86.15,1.78.21,2.67-.25.05-.49.1-.74.14-.99-1.45-1.97-2.9-3.14-4.62-.7,3.97-.6,6.18,1.45,7.99,1.82,1.6,1.57,2.93,1.17,5.02-1.33-.84-2.3-1.45-3.78-2.38-.1,4.45-.18,8.37-.27,12.79,2.29-1.92,4.53-3.65,6.59-5.57,7.53-6.97,15.25-13.78,24.11-19.13,9.18-5.55,14.03-13.66,16.38-23.75,1.89-8.14,5.24-15.74,11.14-21.8,4.61-4.73,9.65-9.09,14.77-13.31,9.21-7.6,19.88-12.71,31.67-15.66,1.19-.3,2.52-.14,3.79-.19-.37,1.22-.93,1.78-1.56,1.84-4.56.45-6.09,3.22-6.35,7.3-.12,1.95-.86,3.84-1.33,5.76-2.83-3.55,1.68-6.68-.5-10.11-3.3,1.39-3.32,1.39-3.78,3.95-.56,3.11-1.07,6.24-1.63,9.36-.21,1.18-.63,2.2-2.35,2.24-.6-4.38,3.77-8.04,1.27-12.56-4.09,1.98-4.01,1.99-4.78,5.57-.82,3.81-1.74,7.61-2.75,11.37-.16.61-1,1.02-2.05,2.02.32-5.29,3.59-9.19,2.75-14.09-4.6,1.22-4.63,1.21-4.99,4.58-.39,3.6-.65,7.21-1.11,10.79-.13,1-.77,1.91-1.18,2.87-2.21-2.48-.73-4.5-.5-6.6.25-2.33,1.53-4.6.28-7.25-2.07.37-3.26,1.03-3.25,3.44.02,4.82-.32,9.63-.6,14.44-.03.57-.61,1.09-1.36,2.35-1.9-5.99.89-11-.08-16.63-1.77,1.35-3.06,2.35-4.35,3.34ZM156.85,73.26c-1.18-1.83-2.54-3.42-5.36-4.06-.06,2.36-.12,4.43-.16,6.51-.05,2.13.43,4.41-1.72,6.06-.5-1.09-.64-2.15-.58-3.19.78-13.44.19-14.76-11.01-23.44-4.09-3.17-8.38-6.09-12.35-9.39-7.18-5.95-14.19-12.09-20.83-17.77-2.73,5.4-5.17,11.56-8.73,17-7.87,12-13.63,24.99-19.19,38.11-1.81,4.26-3.29,8.68-4.67,13.12-2.56,8.2-2.89,16.86-4.34,25.3-.25,1.47-.23,3.02-.1,4.52.85,9.67,1.46,19.37,2.76,29,1.58,11.66,4.76,23.02,10.06,33.79,4.45,9.04,9.96,17.5,16.37,25.37,7.41,9.11,16.01,17.04,25.79,23.81,7.86,5.44,15.5,11.23,23.02,17.14,10.86,8.54,22.07,16.49,33.95,23.63,11.06,6.65,23.14,11.69,33.19,20.58-3.35-10.45-2.09-21.09-5.1-30.58-4.99-.23-9.56.14-13.91-.74-9.82-1.97-19.56-4.43-29.27-6.94-3.3-.85-6.48-2.34-9.63-3.74-1.97-.88-4.11-1.81-5.56-3.29-3.38-3.45-6.43-7.22-9.53-10.93-.48-.58-.5-1.52-.73-2.3,5.37,3.84,8.2,10.02,14.41,12.68-1.38-2.09-3.15-3.86-4.53-5.88-1.37-2.01-3.93-3.49-3.06-6.85.99,1.04,1.98,2.08,2.98,3.12,3.77,3.95,7.45,7.98,11.34,11.82,1.27,1.25,2.83,2.59,5.2,2.5-2.32-2.85-4.72-5.19-6.33-7.95-1.51-2.6-5.37-3.96-4.89-8.51,6.84,5.71,9.92,14.24,19,18.11-4.14-5.96-8.49-10.64-11.13-16.45,7.09,5.81,10.75,15.1,20.75,18.99-3.2-4.65-7.71-7.54-8.24-12.83,1.17.71,2.03,1.68,2.88,2.65,2.15,2.46,4.13,5.07,6.48,7.33,3.88,3.74,7.37,5.21,11.35,5.24-2.54-2.45-5.3-4.62-7.41-7.28-1.98-2.49-5-4.54-4.96-8.32,5.8,5.72,10.65,12.42,19.43,16.28-4.21-5.83-9.71-9.46-11.85-15.48,2.79,2.17,5.02,4.81,7.45,7.27,2.49,2.53,4.28,5.98,8.89,7.11-1.83-8.96-5.45-16.79-8.28-24.82-1.42-.28-2.64-.73-3.86-.73-9.53-.04-18.93-1.09-28.21-3.78-12.03-3.49-24.29-6.24-36.16-10.21-13.16-4.4-24.05-12.22-31.25-24.3-.38-.64-.52-1.4-.78-2.11.21-.11.41-.22.62-.33,1.01.94,2.01,1.88,3.39,3.16-.53-4.1-3.99-6.89-2.9-11.17,2.99,5.4,5.59,10.4,8.5,15.24,2.93,4.89,6.66,9.07,12.9,11.35-2.61-4.57-4.87-8.6-7.21-12.6-5.42-9.24-5.77-10.01-5.37-12.91.85,1.04,1.66,1.76,2.12,2.64,2.17,4.1,4.03,8.36,6.42,12.33,2.13,3.55,4.63,6.95,7.31,10.14,1.35,1.61,3.48,2.61,5.83,4.3-1.82-2.86-3.38-5.24-4.86-7.65-1.54-2.51-3.21-4.98-4.44-7.63-1.14-2.46-3.8-4.47-3.28-7.85,2.79.64,3.18,2.81,3.91,4.5,3.13,7.33,7.94,13.62,13,19.78,1.16,1.42,2.47,2.17,4.53,1.48-2.56-4.16-4.98-8.09-7.38-12.03q-5.81-9.51-5.23-12.35c1.1,1.74,2.03,3.13,2.88,4.57,2.11,3.61,4.15,7.26,6.27,10.87,3.09,5.25,6.88,9.78,13.35,11.96-1.53-2.37-2.99-4.52-4.33-6.73-1.45-2.39-2.97-4.76-4.13-7.27-1.01-2.17-3.51-3.92-2.78-7.65.95,1.22,1.42,1.73,1.77,2.31,2.71,4.52,5.42,9.04,8.06,13.6,2.57,4.43,6.76,6.76,11.6,8.57-.56-1.51-1.79-2.51-2.64-3.76-3.59-5.25-7.1-10.56-10.56-15.9-.43-.67-.36-1.63-.52-2.45.5-.21,1-.43,1.49-.64.48,1.11.83,2.3,1.48,3.32,2.85,4.44,5.54,9,8.79,13.17,2.26,2.9,5.24,5.3,8.04,7.77,1.18,1.04,2.69,1.83,4.57,1.26-1.69-2.22-3.33-4.1-4.65-6.18-1.42-2.22-2.42-4.68-3.8-6.92-2.59-4.21-2.61-4.19-1.81-6.58,1.94,3.49,3.68,6.73,5.52,9.93,2.61,4.52,6.04,8.31,10.78,10.82,2.31,1.22,4.72,2.16,7.56,1.29-2.7-3.41-5.5-6.39-7.59-9.76-2.03-3.27-4.92-6.24-5.28-10.41.95.45,1.71,1.06,2.13,1.83,3.71,6.89,8.12,13.21,14.84,17.74,1.1.74,2.07,2.04,3.72.99-1.93-2.83-4.02-5.51-5.67-8.41-1.57-2.77-4.64-4.94-4.54-9.51,5.72,6.2,7.72,14.23,15.16,17.93-.1-1.78-.62-3.33-1.18-4.86-2.27-6.2-4.58-12.39-6.83-18.6-1.47-4.05-2.77-8.14-4.31-12.17-1.29-3.38-2.7-4.12-6.43-3.91-.88.05-1.81.05-2.66-.18-2.84-.8-5.62-1.8-8.47-2.56-9.99-2.7-20.13-4.87-29.94-8.13-7.71-2.56-15.12-6.19-22.45-9.77-9.53-4.65-18.11-10.73-25.38-18.44-4.21-4.46-6.38-9.84-7.54-15.62-.36-1.82.19-2.89,2.29-2.88-.05,7.25,3.39,14.2,8.7,17.73q-5.37-12.11-3.92-14.62c2.1,5.81,3.96,11.5,8.43,15.88-.54-2.72-1.55-5.25-2.43-7.82-.85-2.46-2.66-4.89-.66-8.35,2.56,3.38,1.47,7.1,3.14,10.04,1.84,3.22,3.02,6.78,4.94,9.95,1.79,2.97,3.87,5.88,7.92,8.13-.92-1.98-1.45-3.2-2.05-4.39-2.3-4.55-4.66-9.07-6.89-13.65-.38-.78-.27-1.78-.53-3.69,3.13,2.63,3.82,5.32,5.05,7.71,2.61,5.07,5.23,10.15,8.02,15.13,1.17,2.08,3.05,3.24,6.08,2.61-1.63-2.91-3.08-5.27-4.3-7.73-1.16-2.33-3.54-4.22-3.42-8.26,1.29,1.54,2.02,2.21,2.5,3.02,2.13,3.6,4.06,7.32,6.33,10.84,1.33,2.06,3,3.99,4.82,5.66,1.75,1.6,3.9,2.79,6.95,2.82-1.63-2.65-2.92-4.73-4.19-6.83-1.2-1.99-2.48-3.95-3.53-6.01-1.01-1.98-3.52-3.47-2.54-7.33,1.69,2.62,2.82,4.37,3.96,6.12,3.04,4.67,6.01,9.39,9.16,14,1.49,2.18,3.59,3.64,6.95,3.72-2.93-5.12-7.45-8.96-8.03-14.67.79.15,1.35.45,1.65.89,2.84,4.23,5.56,8.54,8.47,12.73,2.87,4.13,7.29,4.47,12.62,5.08-4.58-5.51-8.42-10.4-10.64-16.27,2.17,1.52,3.29,3.84,4.92,5.74,3.23,3.77,6.64,7.4,10.14,10.94,1.43,1.45,3.37,2.19,6.34,1.64-2.08-2.47-4.08-4.41-5.54-6.68-1.36-2.11-4.38-3.49-3.85-7.56,1.54,1.8,2.54,2.94,3.51,4.1,2.3,2.76,4.64,5.48,6.86,8.3,2.75,3.49,6.29,4.67,11.11,4.2-1.18-1.74-2.06-3.16-3.07-4.49-7.26-9.57-15.2-18.58-24.15-26.72-1.8-1.64-3.93-3.29-6.19-4.05-10.62-3.57-19.49-10.05-28.44-16.4-3.07-2.18-6.12-4.45-8.85-7.01-9.16-8.58-17.44-17.88-24.49-28.21-1.32-1.93-2.23-3.69-2.03-5.84.32-3.46.82-6.89,1.3-10.32.23-1.64.79-3.09,2.46-3.49-.47,4.51-.89,8.93-1.39,13.34-.28,2.47.81,4.15,3.42,5.87-.03-2.24-.1-3.87-.06-5.5.06-2.71.09-5.44.38-8.12.08-.74,1.03-1.35,1.85-2.35,0,6.08.08,11.46,0,16.83-.04,2.8.98,4.9,4.02,6.74-.08-2.59-.04-4.68-.23-6.76-.42-4.54-1.02-9.06-1.42-13.6-.06-.65.53-1.33,1.16-2.75.57,1.74,1.02,2.58,1.1,3.44.59,6.65,1.16,13.31,1.62,19.96.18,2.68.96,4.97,3.5,7.09-.67-7.7-4.42-14.86-2.13-22.77.69.81,1,1.02,1.04,1.26.16.9.34,1.81.33,2.72-.05,6.9,1.61,13.56,3.64,20.18.87,2.85,2.45,5.05,5.61,6.88-1.8-7.77-4.48-14.77-4.84-22.19,2.2,1.11,1.99,3.13,2.48,4.93,1.64,6.03,3.28,12.07,5.25,18.02.83,2.52,2.53,4.77,5.74,6.82-1.59-5.95-4.56-10.72-4.15-16.22,3.24,6.57,4.37,13.98,9.9,19.63-.68-2.93-1.35-5.86-2.02-8.79.4-.14.81-.27,1.21-.4.69,1.06,1.47,2.07,2.06,3.17,1.38,2.6,2.68,5.23,3.97,7.86,2.79,5.72,7.97,8.29,14.53,10.81-1.2-1.49-1.76-2.2-2.33-2.88-4.32-5.14-9.18-9.94-12.86-15.46-8.29-12.44-14.78-25.75-19.74-39.74-3.54-9.99-5.16-20.05-4.4-30.45.33-4.5-.07-9.06.06-13.59.05-1.87.59-3.72.88-5.4,2.04-.44,2.81.34,2.9,1.81.16,2.87.59,5.79.31,8.6-1.04,10.6.63,20.86,4.77,30.83,2.54,6.11,5.28,12.15,7.97,18.21,1.56,3.51,2.98,7.09,4.8,10.47,3.93,7.28,9.68,13.31,15.15,19.49,2.21,2.49,4.9,4.58,7.38,6.85.29-.24.57-.49.86-.73-3.64-4.07-8.27-7.48-10.88-13.07,1.39.57,2.02.82,3.19,1.3-1.32-1.67-2.4-2.8-3.19-4.09-1.73-2.8-5.19-5.28-2.25-9.09.26-.34-.4-1.39-.67-2.1-.3-.77-.65-1.52-.98-2.28.17-.1.34-.19.51-.28,2.31,2.88,4.62,5.77,6.94,8.66.58-3.06-.62-5.27-2.44-7.27-1.46-1.62-2.95-3.24-4.22-5-1.02-1.4-2.21-2.91-1.41-5.39,2.13,3.03,3.13,6.4,6.97,8.07-.1-4.4-.38-7.98-4.06-10.71-1.72-1.28-3.45-2.91-3.14-5.67,1.79,1.75,3.58,3.51,5.57,5.46,1.67-3.96.43-6.57-2.56-8.82-1.46-1.1-3.61-2.04-2.73-4.95,2.09,1.81,3.91,3.39,5.81,5.04,1.8-3.44-.05-5.51-2.17-7.53-1.13-1.07-3.06-1.66-2.76-4.06,3.21.68,4.52,5.38,8.66,3-1.29,14.44.43,28.1,3.77,41.68,2.09,8.5,4.73,16.76,9.98,24.12.49.69.95,1.75.77,2.47-.4,1.68.73,2.4,1.64,3.48,6.95,8.21,13.81,16.47,20.7,24.72,1.41,1.69,2.82,3.38,4.61,5.53.22-1.27.51-1.84.33-2.11-2.02-3.04-4.23-5.97-6.14-9.07-2.04-3.32-1.93-3.39-.68-7.95,2.35,2.73,3.47,6.43,7.45,8.55.4-6.6-5.41-10.55-6.66-16.74,3.12,2.57,3.94,6.1,7.2,8.24-.11-6.12-5.27-9.93-5.7-15.44,1.86,2.62,3.73,5.25,5.99,8.44,1.01-2.99-.11-4.68-1.17-6.36-1.09-1.71-2.37-3.35-2.65-6.16,1.88,2.06,3.19,3.49,4.74,5.19,2.38-6.04-4.09-8.78-5.11-14.29,2.52,2.65,4.36,4.59,6.35,6.69,2.01-3.94-2.84-5.64-2.26-9.17,1.44,1.27,2.65,2.33,3.94,3.47,3.42-4.63-1.79-7.37-2.22-11.3,1.53,1.46,3.06,2.91,4.74,4.51,1.93-3.36-2.88-4.81-1.89-7.68q3.46,2.9,7.12,2.56c-.25,2.07.17,4.51-.86,5.98-3.4,4.86-4.42,10.52-5.31,16.05-1.52,9.5-2.3,19.15-3.11,28.76-.58,6.94-.42,13.9,2.6,20.59,3.49,7.73,6.91,15.48,10.38,23.21.25.55.77,1.56.89,1.52,2.93-.84,2.28,2.02,3.34,3.06.41.4.45,1.13.73,1.68.2.4.52.74.79,1.11-.68-6.22-4.75-11.48-4.84-17.69,2.49,3.79,3.18,8.39,6.33,11.96,1.58-1.78,1.14-3.3.29-4.91-1.96-3.68-3.9-7.36-5.78-11.08-.33-.65-.3-1.46-.44-2.2.31-.11.61-.23.92-.34,1.2,2.05,2.41,4.09,3.61,6.14q2.49,4.29,4.44,5.18c-1.51-2.87-2.99-5.56-4.36-8.29-2.83-5.66-2.81-5.67-1.94-8.55,2.07,4.78,3.72,9.37,7.08,13.15,3.36-4.02,3.39-4.44.63-8.26-2.09-2.89-4.16-5.79-4.77-9.51,2.55,3.18,5.1,6.37,8.21,10.26,1.7-4.37-1.18-6.47-2.58-8.9-1.48-2.58-3.15-5.06-4.73-7.58.27-.16.54-.33.81-.49,3.79,2.61,4.61,7.78,8.63,10.3,1.8-2.03,1.45-3.73.06-5.57-2.15-2.87-4.21-5.8-6.22-8.76-.38-.56-.33-1.38-.48-2.08.18-.05.36-.09.54-.14,2.56,3.17,5.12,6.34,7.9,9.79q1.62-3.84-.1-6.37c-2.2-3.2-4.66-6.27-6.15-10.38,4.06,1.84,4.03,6.67,8.04,8.09,1.27-2.68.9-4.75-1.19-6.8-2.53-2.48-4.85-5.16-7.26-7.75.25-.26.5-.52.75-.78,2.77,2.43,5.54,4.86,8.93,7.83-.03-1.97.37-3.27-.13-3.98-2.46-3.43-5.17-6.71-7.79-10.05.16-.2.32-.4.48-.59,2.34,1.93,4.69,3.87,7.14,5.89,1.01-3.25.15-5.42-2.51-7.04-.79-.48-1.43-1.21-2.08-1.88-.08-.09.16-.48.33-.93,1.18.44,2.37.88,3.81,1.41-.06-1.93-.1-3.36-.14-4.77,1.36.51,2.26,1.22,2.41,2.04.67,3.58,1.14,7.19,1.63,10.79.3,2.19.95,4.46.68,6.58-.8,6.09-1.75,12.18-3.09,18.16-1.08,4.82-2.59,9.55-4.28,14.18-1.65,4.51-3.93,8.77-5.66,13.25-4.38,11.34-6.93,22.71-3.11,35.29,3.64,11.99,5.93,24.33,8.79,36.52.47,2.02.81,4.07,1.22,6.11,1.63-8.11,3.22-16.03,4.81-23.94-.74,1.88-1.35,3.89-2.3,5.71-.96,1.84-.16,4.55-3.3,6.11.09-1.66-.04-2.8.24-3.82.84-3.03,1.83-6.02,2.76-9.02.9-1.69,1.79-3.39,2.69-5.08-.16-.08-.32-.15-.49-.23-.72,1.79-1.43,3.58-2.15,5.38-1.6-.18-2.27-1.12-1.83-2.52.45-1.42,1.16-2.76,1.82-4.1,2.18-4.44,4.4-8.86,6.6-13.29,1.58-3.19,2.4-6.7,4.88-9.53,1.09-1.23.96-3.48,1.39-5.27-.36-.13-.73-.26-1.09-.4-4.47,8.78-8.93,17.56-13.81,27.15-1.61-4.92,1.57-7.47,2.64-10.79-2-1.12-2.23-2.53-1.11-4.5,2.43-4.29,4.66-8.7,6.88-13.11,1.81-3.61,3.55-7.25,5.2-10.94,1.51-3.38,2.51-7.04,4.38-10.19,1.09-1.83,1.46-3.29.69-5.95-3.94,8.32-6.36,16.62-11.01,24.71-1.32-2.6-.27-3.93.34-5.35,2.03-4.66,4.05-9.33,6.03-14.01,1.05-2.47,1.32-5.7,3.15-7.32,2.63-2.33,2.07-4.63,1.59-7.52-1.63,3.6-2.95,7.12-4.78,10.35-1.81,3.21-2.5,7.23-6.73,9.98.26-1.5.15-2.34.52-2.8,5.42-6.65,6.93-15.18,10.86-22.54.32-.61.24-1.47.2-2.21-.51-8.94-1.45-17.81-4.14-26.54-4.93-15.96-14.45-28.7-29.09-37.46-5.92-3.54-10.86-7.87-15.68-12.54-1.97-1.91-4.06-3.69-6.91-6.26-.17,3.99-.45,6.95-.38,9.92.16,7.06.21,7.07-1.75,8.65-.01-.94-.04-1.65-.03-2.37.07-5.59.1-11.18.25-16.77.05-2.02-.5-3.38-2.71-3.86-.4,6.58-.86,12.87-1.15,19.16-.3,6.36-.43,12.74-.64,19.11-.55-.01-1.11-.02-1.66-.04-.35-4.78.24-9.57.28-14.36.04-4.82.23-9.63.16-14.46-.07-4.83-.39-9.66-.6-14.5-.31,0-.62,0-.92,0-.85,13.26-1.7,26.52-2.55,39.79-1.21-.61-1.96-1.45-1.92-2.23.24-5.28.65-10.54.99-15.81.44-6.76,1.04-13.52,1.24-20.3.09-2.97-.5-6.05-3.78-8.96-.04,6.42.32,12.05-.22,17.56-.53,5.52.02,11.21-1.36,17.28-2.18-1.89-1.86-3.5-1.68-5.11,1.13-10.66,1.22-21.38.67-32.15-.11-2.23-.71-4.07-3.81-5.14.39,11.61.47,22.78-1.17,33.88-.8-.42-1.39-.9-1.39-1.35.26-11.82.59-23.64.91-35.76-1.21-.98-2.52-2.06-3.84-3.13l.06.1ZM249.19,198.73c.49-.05.98-.11,1.47-.16.99-5.76,2.08-11.51,2.93-17.3.5-3.4.35-6.92.97-10.28.47-2.54-1.32-4.32-1.66-6.5-.41-2.68-.43-5.39-.69-8.09-.65-6.71-2.07-13.21-6.29-18.92-.36-.49-.5-1.12-.78-1.67-6.37-12.6-8.96-26.08-11.2-39.63-.51-3.09-.45-6.26-.7-9.98,1.4.68,2.15,1.05,2.92,1.42,4.43-5.33-.4-9.68-1.77-14.51-5.81,2.18-2.71,6.16-1.92,9.62-3.58.27-2.6-3.32-4.48-4.2-4.29,1.98-4.42,2.12-3.61,6.39.57,2.99,1.33,5.96,1.92,8.95.15.76-.01,1.58-.03,2.36-3.43-3.67-2.21-8.64-4.73-12.51-3.37,2.21-3.51,2.24-2.55,5.3,1.23,3.93,2.71,7.81,4.06,11.71.24.71.38,1.44.61,2.15.99,3.03,2.03,6.04,3.01,9.08.23.73.29,1.5.43,2.25-.38.11-.75.23-1.13.34-4.16-7.71-5.71-16.47-10.09-24.38-1.62,1.85-1.89,3.5-.83,5.54,4.27,8.23,8.46,16.49,12.64,24.76.36.71.43,1.54.63,2.31-.35.16-.7.31-1.06.47-3.35-3.7-4.76-8.55-7.21-12.77-2.6-4.48-4.81-9.18-7.19-13.8-2.92,1.38-1.71,3.17-1.06,4.54,2.97,6.26,6.14,12.45,9.16,18.69.65,1.36,2.29,2.6.93,5.18-5-7.47-8.27-15.11-12.1-22.76-1.95,1.58-1.47,3.08-.83,4.47,1.79,3.92,3.69,7.81,5.51,11.72.34.73.5,1.52.75,2.29-.34.18-.68.35-1.02.53-3.38-3.24-3.85-8.4-7.5-11.55.49,4.6,1.25,9.04,5.41,12.24,11.02,8.49,19.78,18.48,24.85,31.48,3.64,9.34,5.15,18.89,6.19,28.54.66,6.13,3.83,11.18,6.05,16.66ZM249.26,135.67c.91-2.01,1.66-3.69,2.75-6.1.89,4.33-1.89,7.71.44,11.48.78-1.5,1.36-2.62,2.07-3.99,1.76,4.37-1.58,8.45,1.33,12.55.68-2.69,1.37-5.38,2.06-8.07.28.07.56.15.85.22-.42,4.71-.83,9.43-1.25,14.15,2.05-9.12,3.48-18.33,5.25-27.47,1.02-5.24,1.28-10.51.21-15.74-1.62-7.9-3.53-15.77-5.74-23.55-2.51-8.84-4.93-17.65-5.52-26.79-.17-2.64.84-5.77-2.86-7.51-.76-.36-.82-2.21-1.23-3.37-.32-.91-.67-1.82-1.12-3.05-2.25,2.58-2.83,4.95-1.7,7.88.94,2.43,1.48,4.99,2.35,8-4.2-1.59-2.64-5.58-4.91-7.5-1.8,2.75-1.83,2.76-1.3,5.38.67,3.33,1.39,6.66,2.09,9.99-.37.09-.75.19-1.12.28-.92-2.42-1.85-4.83-2.91-7.61-4.09,4.65-1.4,8.98-.26,13.31,1.15-.05,1.94-.08,2.98-.13-2.15,6.1-3.99,11.88-4.59,17.96.3.08.59.17.89.25,1.11-3.43,2.22-6.86,3.33-10.3.01,3.67-.83,7.09-1.1,10.57-.26,3.39-3.31,6.53-.42,10.94,1.46-4.62,2.74-8.65,4.02-12.69.15,4.99.22,9.9-2.75,14.01-1.54,2.13-.76,3.98.63,6.25,1.4-4.26,2.64-8.04,3.89-11.82.13,4.34-.29,8.49-.35,12.67-.06,4.16-2.01,8.4.76,13.27.71-2.59,1.24-4.51,1.77-6.42,1.3,4.21-1.47,8.37,1.48,12.95ZM142.24,401.47c-1.54-.49-2.11-.74-2.69-.84-3.03-.52-6.09-.91-9.1-1.53-2.27-.47-4.46-1.49-6.73-1.82-8.81-1.27-17.64-2.42-26.47-3.5-7.16-.88-14.28-1.29-21.17,1.11-2.2.77-4.44,1.2-3.89,5.27-2.82-2.06-4.7-3.42-6.89-5.02-1.1,3.61-2.21,7.27-3.44,11.32,3.09,3.08,6.2,6.31,9.5,9.36.5.46,1.82.08,3.2.1-2.67-3.76-6.43-5.97-7.47-10.22,3.45,3.19,6.9,6.38,10.91,10.08.95,0,2.82.07,4.67.02,1.76-.05,3.51-.21,5.57-.35-2.01-5.21-5.86-8.25-8.83-12.06,1.06.1,2.2.26,2.78.9,2.85,3.1,5.96,6.08,8.14,9.58,1.24,2.01,2.35,2.51,5.06,2.44-2.87-3.61-5.47-6.87-8.06-10.13,1.35.04,2.26.52,2.9,1.23,2.41,2.66,4.81,5.33,7.06,8.11,1.49,1.84,3.14,2.75,6.1,2.04-2.78-3.36-5.3-6.4-7.82-9.44,6.27,2.38,8.21,9.55,15.14,12.69-1.89-5.44-5.28-8.97-7.44-13.12,5.08,2.57,6.07,8.4,10.55,12.04,9.62-5.33,19.31-10.52,28.44-18.27ZM108.08,444.49c4.79-2.89,4.67-5.75-.32-10.7-.15.03-.32.03-.45.09-10.58,5.06-21.25,9.9-32.91,12.5-1.09.24-2.18,1.53-2.72,2.61-2.55,5.15-7.09,8.09-12.17,10.33-1.78.78-4.03.62-6.06.89-.12-.37-.24-.75-.37-1.12,2.75-1.32,5.64-2.44,8.23-4.01,2.78-1.69,5.67-3.44,6.85-6.75-.43-.22-.72-.5-.96-.47-7.96.99-15.98,1.72-23.86,3.11-5.75,1.02-11.08-.05-16.49-1.85-1.7-.56-3.42-1.01-5.14-1.51.45.97,1.1,1.35,1.79,1.64,4.63,1.93,9.45,3.49,13.87,5.82,15.87,8.34,32.68,8.77,49.69,7.84.43-.02.83-.31,1.35-.52-.3-1.46-.59-2.86-1.09-5.31,1.81,1.67,2.83,2.61,4.1,3.78,1-2.55-2.02-4.8-.06-7.33,1,1.68,1.81,3.05,2.62,4.42.21-.1.42-.21.64-.31-.53-2.24-1.05-4.49-1.58-6.73.39-.11.79-.22,1.18-.33.78,1.83,1.56,3.66,2.48,5.79,3.63-2.79-.99-6.17,1.09-9.08.99,1.94,1.89,3.69,3.13,6.13,3.02-4.67-1.61-8.46-.1-13.15,1.48,3.36,2.6,5.93,4.16,9.47,2.56-5.12-1.65-8.69-.73-12.8,1.27,2.5,2.54,5.01,3.82,7.54ZM264.41,250.23c-6.69,7.02-13.97,13.56-18.46,21.93-4.45,8.29-7.17,17.5-10.65,26.3,5.73-3.1,10.98-6.37,15.89-10.07,4.56-3.44,8.69-7.41,13.14-10.99,2.19-1.77,2.4-3.98,2.15-6.48-.68-6.74-1.34-13.48-2.06-20.69ZM397.66,193.49c-.09-.24-.18-.48-.26-.72-4.45,1.49-8.98,2.8-13.32,4.53-7.51,2.99-15.04,5.99-22.3,9.47-4.93,2.36-9.42,5.52-14.09,8.36-12.2,7.41-24.27,14.97-34.56,24.87-2.93,2.82-6.29,5.19-9.3,7.92-9.61,8.68-19.13,17.45-28.73,26.14-.96.87-2.23,1.43-3.35,2.15-.86.55-1.73,1.09-2.55,1.7-1.69,1.25-3.29,2.64-5.04,3.8-3.89,2.58-5.19,3.82-6.23,6.11,4.65-1.92,9.65-3.99,15-6.2.1-.35.09-1.55.7-2.24,2.97-3.38,5.89-6.85,9.22-9.88,9.05-8.19,18.52-15.95,27.41-24.3,9.63-9.05,20.81-16.04,32.1-22.77,11.45-6.83,23.64-12.53,35.52-18.71,6.59-3.43,13.2-6.82,19.8-10.22ZM225.75,298.61c.49-.19.7-.2.74-.3,6.66-13.97,9.11-28.98,9.8-44.4.06-1.28-.91-2.64-1.41-3.97-1.18.92-1.58,1.68-1.78,2.51-1.99,7.84-3.95,15.69-5.93,23.53-1.86,7.31-3,14.7-1.42,22.63ZM238.58,237.83c-1.36,5.24,3.38,9.01,3.09,14.19-1.23-.99-1.95-1.57-2.67-2.15,2.05,4.48,2.87,8.91,1.93,13.65,1.38-3.2,2.66-6.37,3.07-9.69.95-7.76,1.15-15.65,2.32-23.38.65-4.32-1.12-7.38-3.2-10.64-3.72,5.24,2.11,9.86.49,15.19-.96-1.55-1.91-3.1-3.3-5.35-1.18,5.91,3.4,10.15,3.5,15.55-3.33-1.59-3.11-4.83-5.22-7.38ZM247.88,252.48c-1.47,4.7-2.91,9.42-4.45,14.1-.31.93-.87,2.34-1.57,2.48-4.1.82-4.49,4-4.96,7.12-1.03,6.88-3.02,13.43-5.96,19.71-1.52,3.24-2.69,6.64-3.93,10.01-.27.74-.19,1.61-.28,2.43,1.07-.19,1.68-.61,1.9-1.17.84-2.21,1.47-4.5,2.33-6.7,1.8-4.59,3.66-9.15,5.56-13.69,2.88-6.89,6.03-13.67,8.64-20.66,1.59-4.27,3.16-8.66,2.72-13.63ZM259.48,170.4c-5.54,21.26-7.58,43.11-9.81,64.93,3.27-21.64,6.54-43.29,9.81-64.93ZM261.95,151.92c.27.02.53.05.8.08.96-5.6,1.86-11.22,2.9-16.81,2.23-11.96,4.62-23.9,6.77-35.88.67-3.72.75-7.57,1.1-11.36-.19-.02-.38-.04-.57-.07-3.67,21.35-7.33,42.69-10.99,64.04ZM255.07,239.71c-3.79,4.96-3.47,8.18,1.39,14.76.85-1.59,2.44-3.14,2.17-4.36-.75-3.46-2.27-6.78-3.57-10.4ZM285.16,272.39c-4.1,2.47-5.15,4.65-3.97,8.24.91,2.75,2.8,3.97,5.56,3.92-.53-4.04-1.06-8.1-1.59-12.16ZM259.91,233.49c-.31-.1-.61-.19-.92-.29-.7,1.32-2.19,2.76-1.96,3.94.72,3.64,1.52,7.38,4.27,11.5.62-1.9,1.48-3.1,1.28-4.16-.69-3.69-1.75-7.33-2.67-10.99ZM246.79,220.93c3.68-5.72-.66-10-2.43-15.5-1.83,6-.44,10.69,2.43,15.5ZM58.02,411.88c3.24,2.05,5.7,4.88,10.81,4.61-3.1-3.29-5.47-5.82-8.23-8.75-1.06,1.71-1.73,2.78-2.58,4.14ZM67.5,386.58c-.68,2.49-1.17,4.29-1.65,6.07,1.39.85,2.54,1.55,3.99,2.43,1.13-.69,2.25-1.38,3.61-2.21-1.4-1.74-2.39-3.06-3.49-4.31-.48-.55-1.16-.94-2.46-1.97ZM264.33,241.84c1.97-5.63,1.43-8.77-2.6-13.07-.2,5.18,1.84,9.05,2.6,13.07ZM61.85,417.26c-1.89-1.48-3.43-2.68-5.18-4.05-1.04.93-1.94,1.74-3.26,2.93,3,.76,5.01,3.01,8.43,1.12ZM403.88,195.62c-3.12,1.08-3.68,2.91-2.57,8.22,2.22-2.49,2.13-5.33,2.57-8.22ZM143.24,125.54c-1.8-3.45-3.42-7.01-6.83-9.36.81,4.06,3.76,6.76,6.83,9.36ZM256.95,217.08c-.36.03-.72.07-1.08.1.2,3.57.54,7.1,3.1,10.36.56-.55.98-.81.94-.95-.96-3.18-1.96-6.34-2.96-9.51ZM238.76,215.34c-1.82,4.19-3.47,7.96-5.11,11.74,3.47-3,5.66-6.53,5.11-11.74ZM397.34,203.79c.39-2.26.69-4,1.03-6.03-3.89,1.67-4.25,3.35-1.03,6.03ZM344.24,226.5c-4.17,2.67-4.27,3.44-1.07,4.88.37-1.68.72-3.29,1.07-4.88ZM113.51,436.12c.04-1.58.08-3.17.13-5.12q-3.4,1.65-.13,5.12ZM392.03,200.3c-1.56.81-3.11,1.62-4.67,2.42,2.22.43,4.67,1.44,4.67-2.42ZM279.34,283.67c-.39-1.67-.65-2.77-1.01-4.32-1.14,1.19-2,2.08-3.11,3.23,1.37.36,2.36.62,4.13,1.09ZM231.74,232.52c-.32-.15-.64-.3-.97-.45-1.09,2.5-2.18,5-3.27,7.51.2.09.4.18.6.27,1.21-2.44,2.43-4.88,3.64-7.32ZM254.52,225.53c-.09,1.85-.64,3.8,1.8,5.62.35-2.52-.61-4.1-1.8-5.62ZM251.45,258.59c3.15-2.29.81-4.49.15-6.57-.05,2.02-.09,4.04-.15,6.57ZM42.42,447.85c-.04-.28-.08-.56-.12-.84-1.94.24-3.88.47-5.82.71.03.22.07.44.1.66,1.95-.18,3.9-.35,5.85-.53ZM333.76,231.55c.25.35.5.7.75,1.05.96-1.11,4.14.19,3.09-3.42-1.38.85-2.61,1.61-3.84,2.37ZM226.9,259.74c.33-.08.74-.09.77-.2.29-1.46.53-2.94.79-4.41-.91,1.39-2.54,2.55-1.56,4.61ZM272.05,124.82c-.37.1-.75.19-1.12.29.41,1.37.82,2.75,1.23,4.12.3-.07.59-.15.89-.22-.34-1.4-.67-2.79-1-4.19ZM345.89,212c2.36-.87,3.56-1.46,1.6-3.86-.55,1.31-.94,2.25-1.6,3.86ZM248.27,204.93c-.41.08-.82.17-1.23.25.33,1.2.67,2.4,1,3.61.37-.08.75-.16,1.13-.23-.3-1.21-.6-2.42-.9-3.62ZM148.54,410.67c-.47,0-.93.02-1.4.02.26,1.41.53,2.81.79,4.22.27-.02.55-.04.82-.06-.07-1.39-.14-2.78-.21-4.18ZM265,227.38c.33.15.65.31.98.46.27-.81.54-1.61.81-2.42-.29-.11-.58-.21-.86-.32-.31.75-.61,1.52-.92,2.27Z"/>
    <path class="cls-1" d="M305.58,120.33c-.84.11-1.94.6-2.48.26-2.83-1.87-4.86-4.44-6.66-7.16.29-.29.58-.58.87-.87,2.13,1.73,4.26,3.46,6.4,5.19.62.86,1.25,1.72,1.88,2.58Z"/>
    <path class="cls-1" d="M156.78,73.17c-.12,7.98-.24,15.97-.4,23.95,0,.18-.44.33-.95.69-2.01-1.79-2.05-4.4-1.58-6.21,1.37-5.37,1.02-10.74.49-16.16-.18-1.9.19-3.05,2.51-2.18l-.07-.09Z"/>
    <path class="cls-1" d="M368.07,171.29c.52.28,1.5.59,1.5.84-.12,5.15-.36,10.29-.59,15.84-3.08-1.51-2.28-3.75-2.12-5.63.31-3.72.85-7.41,1.29-11.11l-.08.05Z"/>
    <path class="cls-1" d="M386.36,248.4c2.15,3.07,7.54,4.36,5.48,9.68-1.91-.74-3.69-1.43-5.5-2.13,0-2.66.01-5.11.02-7.55Z"/>
    <path class="cls-1" d="M453.53,187.43c1.34.75,2.11,1.18,3.15,1.76-.17-.76-.34-1.3-.42-1.86-.07-.53-.06-1.06.6-1.87.65,1.07,1.31,2.14,1.95,3.21.63,1.05,1.34,2.07,1.82,3.18.5,1.15.79,2.38.73,3.79-2.22-2.91-7.04-3.04-7.83-8.21Z"/>
    <path class="cls-1" d="M459.92,185.29c4.45,3.61,7.17,10.36,6.2,14.64-2.19-5.17-4.19-9.91-6.2-14.64Z"/>
    <path class="cls-1" d="M353.7,254.21c-2.62-1.72-4.67-7.38-4.19-10.62,2.4,1.46,2.91,2.7,4.19,10.62Z"/>
    <path class="cls-1" d="M357.22,256.72c-2.33-3.15-2.79-5.82-2.54-13.11,1.6,1.53,3.06,8.54,2.54,13.11Z"/>
    <path class="cls-1" d="M361.07,244.6c.96,3.22,1.93,6.45,3.01,10.09-.94-.19-1.92-.1-2.2-.48-2.18-2.92-1.8-6.21-1.88-9.43.36-.07.71-.13,1.07-.19Z"/>
    <path class="cls-1" d="M345.86,242.75c1.95,4.07,2.76,7.48,2.84,11.47-2.42-2.04-3.9-7.6-2.84-11.47Z"/>
    <path class="cls-1" d="M368.76,256.21c-3.41-.08-4.23-2.74-3.61-11.76,1.67,2.15,1.23,4.11,1.72,5.79.55,1.88,1.18,3.74,1.9,5.97Z"/>
    <path class="cls-1" d="M379.01,257.88c-1.51-.72-2.22-.83-2.45-1.21-1.05-1.77-1.59-6.33-1.03-10.02,1.25,4.03,2.2,7.07,3.48,11.22Z"/>
    <path class="cls-1" d="M341.36,244.94c1.07,2.16,2.14,4.32,3.49,7.05-3.7-1.41-4.25-2.37-4.46-6.67.33-.13.65-.25.98-.38Z"/>
    <path class="cls-1" d="M370.62,247.35c1.01,3.14,2.03,6.27,3.17,9.8-3.4-1.68-4.21-3.89-3.17-9.8Z"/>
    <path class="cls-1" d="M381.5,256.98c-.94-2.25-1.88-4.49-2.9-6.92q2.66.59,3.91,6.43c-.34.16-.67.32-1.01.49Z"/>
    <path class="cls-1" d="M334.79,245.05c3.43,1.91,4.05,4.11,4.54,7.26-2.94-1.79-3.99-3.77-4.54-7.26Z"/>
    <path class="cls-1" d="M334.21,250.56c-3.28-1.05-3.43-3.04-3.82-4.9,2.72.56,3.26,2.33,3.82,4.9Z"/>
    <path class="cls-1" d="M393.87,256.61q.41-4.4,3.99-4.55c.87,3.47-2.53,2.35-3.99,4.55Z"/>
    <path class="cls-1" d="M329.84,249.4c-2.88.06-3.87-.93-4.74-2.96,2.43-.17,3.45.8,4.74,2.96Z"/>
    <path class="cls-1" d="M444.67,204c.18-1.68.36-3.36.53-5.04,1.19,1.98,1.26,3.72-.61,4.97l.07.07Z"/>
    <path class="cls-1" d="M488.69,185.16c-.6-1.19-1.2-2.37-2.02-4.01,2.8.58,2.32,2.34,2.46,3.77-.15.08-.3.15-.44.24Z"/>
    <path class="cls-1" d="M290.63,121.6c.82-.27,1.65-.53,2.52-.81-.54-2.24,3.1-2.59,2.81-5.19,1.8,1.84,3.61,3.68,5.9,6.02-3.49.27-5.46,3.32-8.95,2.33-.76-.78-1.52-1.56-2.28-2.35Z"/>
    <path class="cls-1" d="M268.22,180.93c-1.29.26-2.58.32-2.78-1.39-.46-3.82-.81-7.65-1.32-12.5,3.08,2.63,2.16,5.15,2.69,7.28.56,2.2.9,4.45,1.34,6.67l.08-.06Z"/>
    <path class="cls-1" d="M256.52,32.81c.81.6,1.92,1.04,2.37,1.82,1.4,2.45,1.89,6.27,1.64,10.7-.45-.72-.97-1.19-1.01-1.67-.3-3.36-1.28-6.47-3.36-9.27-.22-.29-.03-.87-.03-1.31.13-.09.25-.18.38-.27Z"/>
    <path class="cls-1" d="M281.55,133.05c1.45-1.67,2.85-2.45,4.15-.89.58.7.13,2.21.15,3.34-.35.12-.7.24-1.05.36-1.06-.92-2.12-1.84-3.25-2.82Z"/>
    <path class="cls-1" d="M290.63,121.6c.76.78,1.52,1.57,2.28,2.35-.64.54-1.29,1.07-1.93,1.61-.45-.34-.91-.68-1.36-1.02-.39-.94-.77-1.88-1.34-3.26,1.01.14,1.68.22,2.35.31Z"/>
    <path class="cls-1" d="M289.62,124.55c.46.34.91.68,1.36,1.02-.38.54-.83,1.58-1.12,1.53-1.56-.28-2.95-.96-2.98-3.09.99.2,1.86.37,2.73.54Z"/>
    <path class="cls-1" d="M285.87,126.74c.78.37,1.64.63,2.31,1.13.43.32.6.98.99,1.66-2.21.56-2.86-.87-3.3-2.79Z"/>
  </g>
</svg>